<?xml version="1.0" encoding="UTF-8" standalone="no"?><!DOCTYPE svg PUBLIC "-//W3C//DTD SVG 1.1//EN" "http://www.w3.org/Graphics/SVG/1.1/DTD/svg11.dtd"><svg width="100%" height="100%" viewBox="0 0 135 30" version="1.1" xmlns="http://www.w3.org/2000/svg" xmlns:xlink="http://www.w3.org/1999/xlink" xml:space="preserve" style="fill-rule:evenodd;clip-rule:evenodd;stroke-linejoin:round;stroke-miterlimit:1.41421;"><g></g><rect x="-117" y="-451" width="400" height="1430" style="fill:none;"/><path id="Base" d="M88.207,14.906c0,-6.062 -4.922,-10.983 -10.983,-10.983l-20.093,0c-6.061,0 -10.983,4.921 -10.983,10.983c0,6.062 4.922,10.983 10.983,10.983l20.093,0c6.061,0 10.983,-4.921 10.983,-10.983Z" style="fill:#3c96da;"/><path d="M116.577,1.186l0.096,0.002l0.097,0.003l0.096,0.004l0.096,0.005l0.096,0.007l0.095,0.008l0.095,0.009l0.094,0.01l0.095,0.011l0.094,0.013l0.093,0.013l0.093,0.015l0.093,0.016l0.092,0.017l0.092,0.018l0.092,0.019l0.091,0.021l0.091,0.021l0.09,0.023l0.09,0.023l0.089,0.025l0.089,0.026l0.089,0.026l0.088,0.028l0.087,0.029l0.088,0.03l0.086,0.031l0.086,0.032l0.086,0.033l0.085,0.034l0.085,0.035l0.084,0.036l0.083,0.037l0.083,0.038l0.083,0.038l0.082,0.04l0.081,0.041l0.081,0.042l0.08,0.042l0.08,0.044l0.079,0.045l0.078,0.045l0.078,0.046l0.077,0.048l0.077,0.048l0.076,0.049l0.075,0.05l0.075,0.051l0.074,0.051l0.073,0.053l0.073,0.053l0.072,0.054l0.071,0.055l0.071,0.056l0.07,0.057l0.069,0.057l0.069,0.059l0.068,0.059l0.067,0.06l0.066,0.061l0.066,0.061l0.065,0.062l0.064,0.063l0.064,0.064l0.062,0.065l0.062,0.065l0.061,0.066l0.061,0.066l0.059,0.068l0.059,0.068l0.058,0.069l0.057,0.069l0.056,0.071l0.056,0.07l0.054,0.072l0.054,0.072l0.053,0.073l0.052,0.074l0.051,0.074l0.05,0.075l0.05,0.075l0.048,0.076l0.048,0.077l0.046,0.077l0.046,0.078l0.045,0.079l0.044,0.079l0.043,0.08l0.042,0.08l0.041,0.081l0.04,0.081l0.039,0.082l0.038,0.082l0.037,0.083l0.037,0.084l0.035,0.084l0.034,0.084l0.033,0.085l0.032,0.086l0.031,0.086l0.031,0.087l0.029,0.087l0.028,0.087l0.027,0.088l0.025,0.088l0.025,0.089l0.024,0.089l0.023,0.09l0.021,0.09l0.021,0.091l0.019,0.091l0.018,0.091l0.017,0.092l0.016,0.092l0.015,0.092l0.014,0.093l0.013,0.093l0.011,0.094l0.01,0.094l0.009,0.094l0.008,0.095l0.007,0.095l0.005,0.095l0.004,0.096l0.004,0.096l0.001,0.096l0.001,0.096l0,4.345l-15.041,0l0,-4.345l0,-0.096l0.002,-0.096l0.003,-0.096l0.005,-0.096l0.005,-0.095l0.007,-0.095l0.008,-0.095l0.009,-0.094l0.01,-0.094l0.011,-0.094l0.013,-0.093l0.014,-0.093l0.014,-0.092l0.016,-0.092l0.017,-0.092l0.019,-0.091l0.019,-0.091l0.021,-0.091l0.021,-0.09l0.023,-0.09l0.023,-0.089l0.025,-0.089l0.026,-0.088l0.027,-0.088l0.028,-0.087l0.029,-0.087l0.03,-0.087l0.031,-0.086l0.033,-0.086l0.033,-0.085l0.034,-0.084l0.035,-0.084l0.036,-0.084l0.038,-0.083l0.038,-0.082l0.039,-0.082l0.04,-0.081l0.041,-0.081l0.042,-0.08l0.043,-0.08l0.044,-0.079l0.045,-0.079l0.046,-0.078l0.046,-0.077l0.048,-0.077l0.048,-0.076l0.05,-0.075l0.05,-0.075l0.051,-0.074l0.052,-0.074l0.053,-0.073l0.054,-0.072l0.054,-0.072l0.056,-0.07l0.056,-0.071l0.057,-0.069l0.058,-0.069l0.059,-0.068l0.059,-0.068l0.061,-0.066l0.061,-0.066l0.061,-0.066l0.063,-0.064l0.064,-0.064l0.064,-0.063l0.065,-0.062l0.065,-0.061l0.067,-0.061l0.067,-0.06l0.068,-0.059l0.068,-0.059l0.07,-0.057l0.07,-0.057l0.07,-0.056l0.072,-0.055l0.072,-0.054l0.073,-0.053l0.073,-0.053l0.074,-0.051l0.075,-0.051l0.075,-0.05l0.076,-0.049l0.077,-0.048l0.077,-0.048l0.078,-0.046l0.078,-0.045l0.079,-0.045l0.08,-0.044l0.08,-0.042l0.081,-0.042l0.081,-0.041l0.082,-0.04l0.083,-0.038l0.083,-0.038l0.083,-0.037l0.084,-0.036l0.085,-0.035l0.085,-0.034l0.086,-0.033l0.086,-0.032l0.086,-0.031l0.087,-0.03l0.088,-0.029l0.088,-0.028l0.089,-0.026l0.089,-0.026l0.089,-0.025l0.09,-0.023l0.09,-0.023l0.091,-0.021l0.091,-0.021l0.092,-0.019l0.091,-0.018l0.093,-0.017l0.093,-0.016l0.093,-0.015l0.093,-0.013l0.094,-0.013l0.094,-0.011l0.095,-0.01l0.095,-0.009l0.095,-0.008l0.096,-0.007l0.096,-0.005l0.096,-0.004l0.096,-0.003l0.097,-0.002l0.097,-0.001l0.098,0.001Zm-0.181,1.058l-0.084,0.001l-0.083,0.003l-0.083,0.003l-0.083,0.005l-0.082,0.006l-0.082,0.007l-0.082,0.007l-0.081,0.009l-0.081,0.01l-0.081,0.01l-0.081,0.012l-0.079,0.013l-0.08,0.013l-0.08,0.015l-0.079,0.016l-0.078,0.016l-0.078,0.018l-0.078,0.018l-0.078,0.019l-0.077,0.021l-0.077,0.021l-0.076,0.022l-0.076,0.023l-0.076,0.024l-0.075,0.025l-0.075,0.025l-0.075,0.027l-0.073,0.027l-0.074,0.029l-0.073,0.029l-0.073,0.03l-0.072,0.031l-0.072,0.031l-0.071,0.033l-0.071,0.033l-0.07,0.034l-0.071,0.036l-0.069,0.035l-0.068,0.037l-0.069,0.038l-0.068,0.038l-0.067,0.039l-0.067,0.04l-0.067,0.041l-0.066,0.041l-0.064,0.042l-0.066,0.043l-0.064,0.044l-0.064,0.044l-0.063,0.045l-0.062,0.046l-0.062,0.047l-0.062,0.047l-0.06,0.048l-0.061,0.049l-0.059,0.05l-0.059,0.05l-0.059,0.05l-0.057,0.052l-0.057,0.052l-0.057,0.053l-0.056,0.054l-0.055,0.054l-0.055,0.055l-0.053,0.055l-0.054,0.056l-0.052,0.057l-0.052,0.057l-0.051,0.058l-0.051,0.059l-0.049,0.058l-0.05,0.061l-0.048,0.06l-0.047,0.061l-0.047,0.061l-0.046,0.062l-0.046,0.063l-0.044,0.063l-0.045,0.064l-0.043,0.064l-0.042,0.065l-0.042,0.065l-0.04,0.066l-0.041,0.067l-0.039,0.067l-0.038,0.067l-0.038,0.067l-0.037,0.069l-0.036,0.069l-0.035,0.069l-0.035,0.07l-0.033,0.07l-0.033,0.071l-0.032,0.071l-0.03,0.071l-0.031,0.072l-0.029,0.074l-0.029,0.072l-0.027,0.072l-0.027,0.074l-0.026,0.075l-0.025,0.075l-0.023,0.074l-0.024,0.076l-0.022,0.076l-0.021,0.075l-0.02,0.077l-0.02,0.077l-0.018,0.076l-0.018,0.078l-0.016,0.078l-0.016,0.078l-0.015,0.079l-0.013,0.079l-0.013,0.08l-0.012,0.079l-0.011,0.081l-0.009,0.079l-0.009,0.08l-0.008,0.082l-0.007,0.08l-0.005,0.083l-0.005,0.081l-0.004,0.082l-0.002,0.083l-0.002,0.082l-0.001,0.087l0,3.283l12.926,0l0,-3.284l0,-0.086l-0.002,-0.082l-0.002,-0.083l-0.004,-0.082l-0.005,-0.082l-0.005,-0.082l-0.007,-0.08l-0.008,-0.081l-0.009,-0.081l-0.01,-0.08l-0.01,-0.08l-0.012,-0.079l-0.013,-0.08l-0.014,-0.079l-0.014,-0.078l-0.016,-0.079l-0.016,-0.077l-0.018,-0.079l-0.018,-0.077l-0.02,-0.076l-0.02,-0.077l-0.021,-0.075l-0.023,-0.076l-0.023,-0.076l-0.023,-0.074l-0.025,-0.075l-0.026,-0.074l-0.027,-0.074l-0.028,-0.074l-0.028,-0.072l-0.029,-0.073l-0.03,-0.071l-0.032,-0.072l-0.032,-0.072l-0.032,-0.069l-0.033,-0.071l-0.035,-0.071l-0.035,-0.068l-0.036,-0.069l-0.037,-0.068l-0.038,-0.068l-0.038,-0.067l-0.039,-0.067l-0.041,-0.067l-0.04,-0.066l-0.042,-0.065l-0.043,-0.065l-0.043,-0.064l-0.043,-0.064l-0.045,-0.063l-0.046,-0.062l-0.046,-0.063l-0.047,-0.061l-0.047,-0.061l-0.049,-0.061l-0.049,-0.06l-0.049,-0.058l-0.051,-0.059l-0.051,-0.058l-0.052,-0.057l-0.052,-0.057l-0.053,-0.056l-0.055,-0.055l-0.055,-0.056l-0.054,-0.053l-0.056,-0.054l-0.057,-0.053l-0.056,-0.052l-0.058,-0.051l-0.06,-0.052l-0.058,-0.05l-0.06,-0.049l-0.06,-0.049l-0.06,-0.048l-0.062,-0.047l-0.062,-0.047l-0.062,-0.046l-0.064,-0.045l-0.063,-0.044l-0.064,-0.044l-0.065,-0.043l-0.066,-0.042l-0.066,-0.042l-0.066,-0.04l-0.067,-0.04l-0.067,-0.039l-0.068,-0.038l-0.069,-0.038l-0.069,-0.037l-0.069,-0.035l-0.07,-0.035l-0.07,-0.035l-0.071,-0.033l-0.071,-0.033l-0.072,-0.032l-0.072,-0.03l-0.073,-0.03l-0.073,-0.029l-0.074,-0.029l-0.074,-0.027l-0.074,-0.027l-0.075,-0.025l-0.075,-0.025l-0.076,-0.024l-0.076,-0.023l-0.076,-0.022l-0.077,-0.021l-0.077,-0.021l-0.078,-0.019l-0.078,-0.018l-0.078,-0.018l-0.079,-0.016l-0.079,-0.016l-0.079,-0.015l-0.08,-0.013l-0.08,-0.013l-0.08,-0.012l-0.081,-0.01l-0.081,-0.01l-0.081,-0.009l-0.082,-0.007l-0.082,-0.007l-0.082,-0.006l-0.083,-0.005l-0.083,-0.003l-0.083,-0.003l-0.084,-0.001l-0.084,-0.001l-0.083,0.001Z" style="fill:#3f3f3f;"/><path d="M124.304,12.001l0.044,0.001l0.042,0.003l0.043,0.004l0.042,0.005l0.042,0.005l0.042,0.007l0.041,0.008l0.041,0.009l0.04,0.01l0.04,0.011l0.04,0.012l0.039,0.012l0.039,0.014l0.038,0.015l0.038,0.015l0.038,0.017l0.037,0.017l0.036,0.018l0.036,0.019l0.036,0.02l0.035,0.021l0.034,0.021l0.034,0.022l0.033,0.023l0.033,0.024l0.032,0.025l0.032,0.025l0.03,0.026l0.031,0.027l0.029,0.028l0.029,0.028l0.028,0.029l0.028,0.029l0.026,0.03l0.027,0.031l0.025,0.032l0.024,0.032l0.024,0.032l0.023,0.034l0.023,0.034l0.021,0.034l0.021,0.035l0.02,0.035l0.019,0.036l0.018,0.037l0.017,0.037l0.017,0.037l0.015,0.038l0.015,0.039l0.013,0.039l0.013,0.039l0.012,0.04l0.011,0.04l0.01,0.04l0.009,0.041l0.007,0.041l0.007,0.042l0.006,0.042l0.005,0.042l0.004,0.042l0.003,0.043l0.001,0.043l0.001,0.044l0,10.713l-0.001,0.044l-0.001,0.043l-0.003,0.043l-0.004,0.042l-0.005,0.042l-0.006,0.042l-0.007,0.042l-0.007,0.041l-0.009,0.041l-0.01,0.04l-0.011,0.041l-0.012,0.039l-0.013,0.04l-0.013,0.038l-0.015,0.039l-0.015,0.038l-0.017,0.037l-0.017,0.037l-0.018,0.037l-0.019,0.036l-0.02,0.035l-0.021,0.035l-0.021,0.035l-0.023,0.033l-0.023,0.034l-0.024,0.032l-0.024,0.032l-0.025,0.032l-0.027,0.031l-0.026,0.03l-0.028,0.029l-0.028,0.029l-0.029,0.029l-0.029,0.027l-0.031,0.027l-0.03,0.026l-0.032,0.025l-0.032,0.025l-0.033,0.024l-0.033,0.023l-0.034,0.022l-0.034,0.022l-0.035,0.02l-0.036,0.02l-0.036,0.019l-0.036,0.018l-0.037,0.017l-0.038,0.017l-0.038,0.015l-0.038,0.015l-0.039,0.014l-0.039,0.012l-0.04,0.012l-0.04,0.011l-0.04,0.01l-0.041,0.009l-0.041,0.008l-0.042,0.007l-0.042,0.006l-0.042,0.004l-0.043,0.004l-0.042,0.003l-0.044,0.002l-0.043,0l-15.563,0l-0.044,0l-0.043,-0.002l-0.043,-0.003l-0.042,-0.004l-0.042,-0.004l-0.042,-0.006l-0.042,-0.007l-0.041,-0.008l-0.041,-0.009l-0.04,-0.01l-0.04,-0.011l-0.04,-0.012l-0.039,-0.012l-0.039,-0.014l-0.039,-0.015l-0.038,-0.015l-0.037,-0.017l-0.037,-0.017l-0.037,-0.018l-0.036,-0.019l-0.035,-0.02l-0.035,-0.02l-0.034,-0.022l-0.034,-0.022l-0.033,-0.023l-0.033,-0.024l-0.032,-0.025l-0.032,-0.025l-0.031,-0.026l-0.03,-0.027l-0.029,-0.027l-0.029,-0.029l-0.028,-0.029l-0.028,-0.029l-0.027,-0.03l-0.026,-0.031l-0.025,-0.032l-0.025,-0.032l-0.024,-0.032l-0.023,-0.034l-0.022,-0.033l-0.021,-0.035l-0.021,-0.035l-0.02,-0.035l-0.019,-0.036l-0.018,-0.037l-0.017,-0.037l-0.017,-0.037l-0.015,-0.038l-0.015,-0.039l-0.014,-0.038l-0.012,-0.04l-0.012,-0.039l-0.011,-0.041l-0.01,-0.04l-0.009,-0.041l-0.008,-0.041l-0.007,-0.042l-0.005,-0.042l-0.005,-0.042l-0.004,-0.042l-0.003,-0.043l-0.001,-0.043l-0.001,-0.044l0,-10.713l0.001,-0.044l0.001,-0.043l0.003,-0.043l0.004,-0.042l0.005,-0.042l0.005,-0.042l0.007,-0.042l0.008,-0.041l0.009,-0.041l0.01,-0.04l0.011,-0.04l0.012,-0.04l0.012,-0.039l0.014,-0.039l0.015,-0.039l0.015,-0.038l0.017,-0.037l0.017,-0.037l0.018,-0.037l0.019,-0.036l0.02,-0.035l0.021,-0.035l0.021,-0.034l0.022,-0.034l0.023,-0.034l0.024,-0.032l0.025,-0.032l0.025,-0.032l0.026,-0.031l0.027,-0.03l0.028,-0.029l0.028,-0.029l0.029,-0.028l0.029,-0.028l0.03,-0.027l0.031,-0.026l0.032,-0.025l0.032,-0.025l0.033,-0.024l0.033,-0.023l0.034,-0.022l0.034,-0.021l0.035,-0.021l0.035,-0.02l0.036,-0.019l0.037,-0.018l0.037,-0.017l0.037,-0.017l0.038,-0.015l0.039,-0.015l0.039,-0.014l0.039,-0.012l0.04,-0.012l0.04,-0.011l0.04,-0.01l0.041,-0.009l0.041,-0.008l0.042,-0.007l0.042,-0.005l0.042,-0.005l0.042,-0.004l0.043,-0.003l0.043,-0.001l0.044,-0.001l15.563,0l0.043,0.001Zm-15.6,0.999l-0.024,0l-0.018,0.001l-0.018,0.001l-0.017,0.002l-0.017,0.002l-0.017,0.002l-0.016,0.003l-0.017,0.003l-0.017,0.004l-0.016,0.003l-0.016,0.005l-0.015,0.004l-0.017,0.006l-0.016,0.005l-0.014,0.006l-0.016,0.006l-0.015,0.007l-0.015,0.007l-0.015,0.007l-0.014,0.008l-0.014,0.007l-0.014,0.009l-0.015,0.01l-0.013,0.007l-0.014,0.01l-0.014,0.01l-0.012,0.01l-0.013,0.01l-0.013,0.011l-0.013,0.012l-0.011,0.01l-0.012,0.012l-0.011,0.011l-0.012,0.014l-0.012,0.012l-0.009,0.011l-0.011,0.013l-0.01,0.014l-0.009,0.013l-0.01,0.014l-0.009,0.013l-0.009,0.014l-0.009,0.016l-0.007,0.013l-0.008,0.014l-0.008,0.016l-0.006,0.013l-0.007,0.016l-0.006,0.015l-0.005,0.014l-0.006,0.018l-0.005,0.015l-0.005,0.016l-0.005,0.017l-0.004,0.017l-0.003,0.015l-0.003,0.015l-0.003,0.018l-0.002,0.016l-0.002,0.017l-0.002,0.02l-0.001,0.018l-0.001,0.015l0,0.024l0,10.703l0,0.024l0.001,0.016l0.001,0.017l0.002,0.02l0.002,0.017l0.002,0.016l0.003,0.018l0.003,0.016l0.003,0.014l0.004,0.017l0.005,0.017l0.005,0.016l0.005,0.015l0.006,0.018l0.005,0.015l0.006,0.014l0.007,0.016l0.007,0.013l0.007,0.016l0.008,0.015l0.007,0.012l0.009,0.016l0.009,0.014l0.009,0.013l0.01,0.015l0.009,0.012l0.01,0.013l0.011,0.014l0.009,0.011l0.012,0.012l0.012,0.014l0.011,0.012l0.012,0.011l0.011,0.01l0.013,0.012l0.013,0.011l0.014,0.011l0.011,0.009l0.014,0.009l0.014,0.011l0.013,0.008l0.015,0.009l0.014,0.009l0.014,0.007l0.014,0.008l0.015,0.007l0.015,0.007l0.015,0.007l0.016,0.006l0.015,0.006l0.015,0.005l0.017,0.006l0.015,0.004l0.016,0.005l0.016,0.004l0.017,0.003l0.017,0.004l0.016,0.002l0.017,0.003l0.017,0.002l0.017,0.001l0.018,0.001l0.018,0.001l0.024,0l15.55,0l0.025,0l0.018,-0.001l0.017,-0.001l0.017,-0.001l0.018,-0.002l0.017,-0.003l0.016,-0.003l0.017,-0.003l0.017,-0.003l0.016,-0.004l0.016,-0.005l0.015,-0.004l0.017,-0.006l0.015,-0.005l0.015,-0.006l0.016,-0.006l0.015,-0.007l0.014,-0.006l0.016,-0.008l0.015,-0.008l0.012,-0.007l0.015,-0.009l0.015,-0.009l0.012,-0.008l0.014,-0.01l0.014,-0.01l0.014,-0.01l0.011,-0.01l0.013,-0.011l0.014,-0.012l0.011,-0.01l0.011,-0.011l0.012,-0.012l0.012,-0.014l0.011,-0.012l0.01,-0.011l0.011,-0.014l0.01,-0.013l0.009,-0.012l0.009,-0.013l0.01,-0.015l0.01,-0.016l0.007,-0.012l0.008,-0.014l0.009,-0.018l0.006,-0.013l0.007,-0.013l0.007,-0.016l0.005,-0.014l0.006,-0.015l0.006,-0.018l0.005,-0.015l0.005,-0.016l0.004,-0.017l0.004,-0.014l0.004,-0.017l0.003,-0.018l0.003,-0.016l0.002,-0.016l0.002,-0.017l0.002,-0.02l0.001,-0.017l0.001,-0.016l0,-0.024l0,-10.703l0,-0.024l-0.001,-0.015l-0.001,-0.018l-0.002,-0.02l-0.002,-0.017l-0.002,-0.016l-0.003,-0.016l-0.003,-0.017l-0.004,-0.018l-0.003,-0.014l-0.005,-0.017l-0.005,-0.016l-0.005,-0.015l-0.006,-0.018l-0.006,-0.014l-0.005,-0.015l-0.007,-0.016l-0.007,-0.013l-0.006,-0.013l-0.009,-0.017l-0.008,-0.015l-0.007,-0.012l-0.01,-0.016l-0.01,-0.015l-0.009,-0.012l-0.009,-0.013l-0.011,-0.014l-0.01,-0.013l-0.01,-0.011l-0.011,-0.012l-0.012,-0.014l-0.012,-0.011l-0.011,-0.012l-0.011,-0.01l-0.014,-0.012l-0.013,-0.011l-0.011,-0.009l-0.014,-0.011l-0.015,-0.01l-0.013,-0.01l-0.012,-0.007l-0.015,-0.01l-0.015,-0.009l-0.012,-0.007l-0.015,-0.008l-0.016,-0.008l-0.014,-0.006l-0.015,-0.007l-0.016,-0.006l-0.015,-0.006l-0.015,-0.005l-0.017,-0.006l-0.015,-0.004l-0.016,-0.005l-0.016,-0.003l-0.017,-0.004l-0.016,-0.003l-0.017,-0.003l-0.017,-0.002l-0.017,-0.002l-0.018,-0.002l-0.017,-0.001l-0.018,-0.001l-0.024,0l-15.551,0Z" style="fill:#3f3f3f;"/><path d="M26.344,5.698c0.004,0.142 -0.047,0.286 -0.155,0.394c-0.023,0.023 -0.053,0.034 -0.079,0.052l-1.483,1.482l0.38,0.38c0.027,0.018 0.057,0.029 0.08,0.052c0.108,0.109 0.158,0.252 0.155,0.393c0.003,0.142 -0.047,0.286 -0.155,0.394c-0.023,0.023 -0.053,0.034 -0.08,0.052l-17.483,17.467c-0.062,0.117 -0.159,0.216 -0.289,0.265l-5.402,2.117c-0.032,0.017 -0.065,0.028 -0.1,0.039l-0.007,0.003c-0.004,0.001 -0.009,0 -0.013,0.002c-0.051,0.014 -0.103,0.025 -0.158,0.025c-0.054,0.001 -0.104,-0.009 -0.156,-0.023c-0.011,-0.003 -0.021,-0.001 -0.033,-0.005c-0.004,-0.002 -0.007,-0.006 -0.011,-0.007c-0.049,-0.018 -0.091,-0.046 -0.133,-0.078c-0.021,-0.015 -0.044,-0.029 -0.062,-0.047c-0.018,-0.018 -0.032,-0.041 -0.047,-0.062c-0.032,-0.042 -0.059,-0.084 -0.078,-0.133c-0.002,-0.004 -0.006,-0.007 -0.007,-0.011c-0.004,-0.011 -0.002,-0.022 -0.005,-0.034c-0.014,-0.05 -0.024,-0.101 -0.023,-0.154c0,-0.056 0.011,-0.107 0.025,-0.159c0.002,-0.004 0,-0.008 0.002,-0.012l0.003,-0.007c0.011,-0.035 0.022,-0.068 0.039,-0.1l2.119,-5.397c0.05,-0.13 0.148,-0.227 0.266,-0.288l15.306,-15.288c-0.146,-0.46 -0.571,-0.795 -1.079,-0.795c-0.336,0 -0.635,0.148 -0.843,0.379l-0.001,-0.001l-1.792,1.79l0.002,0.002l-3.77,3.765c-0.21,0.21 -0.55,0.21 -0.761,0c-0.21,-0.21 -0.21,-0.551 0,-0.761l5.54,-5.533c0.009,-0.01 0.021,-0.012 0.031,-0.021c0.402,-0.421 0.965,-0.687 1.594,-0.687c0.8,0 1.488,0.431 1.872,1.069l1.386,-1.384c0.019,-0.026 0.03,-0.056 0.053,-0.079c0.108,-0.108 0.252,-0.158 0.394,-0.154c0.142,-0.004 0.285,0.046 0.394,0.154c0.023,0.023 0.034,0.053 0.052,0.079l0.381,0.38l1.483,-1.481c0.018,-0.026 0.029,-0.056 0.052,-0.079c0.109,-0.109 0.252,-0.159 0.394,-0.155c0.143,-0.004 0.286,0.046 0.395,0.155c0.023,0.023 0.034,0.053 0.052,0.079l1.523,1.521c0.026,0.018 0.055,0.029 0.079,0.052c0.106,0.109 0.157,0.252 0.153,0.393Zm-23.774,21.55l3.515,-1.378l-2.137,-2.134l-1.378,3.512Zm18.815,-21.34l-16.88,16.862l2.546,2.544l16.88,-16.862l-2.546,-2.544Zm2.756,-1.101l-1.168,1.167l0.893,0.891l1.168,-1.167l-0.893,-0.891Z" style="fill:#3f3f3f;"/></svg>