<?xml version="1.0" encoding="UTF-8" standalone="no"?><!DOCTYPE svg PUBLIC "-//W3C//DTD SVG 1.1//EN" "http://www.w3.org/Graphics/SVG/1.1/DTD/svg11.dtd"><svg width="100%" height="100%" viewBox="0 0 20 20" version="1.1" xmlns="http://www.w3.org/2000/svg" xmlns:xlink="http://www.w3.org/1999/xlink" xml:space="preserve" style="fill-rule:evenodd;clip-rule:evenodd;stroke-linejoin:round;stroke-miterlimit:1.41421;"><g></g><rect x="-117" y="-316" width="400" height="1430" style="fill:none;"/><g><path d="M14.595,2.06l0.036,0.001l0.036,0.001l0.036,0.002l0.036,0.004l0.035,0.004l0.035,0.005l0.035,0.005l0.034,0.007l0.034,0.008l0.034,0.008l0.034,0.009l0.033,0.01l0.033,0.011l0.032,0.011l0.032,0.012l0.032,0.013l0.031,0.014l0.031,0.014l0.031,0.016l0.03,0.016l0.029,0.016l0.03,0.017l0.028,0.018l0.029,0.019l0.027,0.019l0.028,0.02l0.026,0.021l0.027,0.021l0.026,0.022l0.025,0.022l0.024,0.023l0.025,0.024l0.023,0.024l0.023,0.025l0.022,0.025l0.022,0.026l0.021,0.026l0.021,0.027l0.02,0.027l0.019,0.028l0.019,0.028l0.018,0.029l0.017,0.029l0.016,0.03l0.016,0.03l0.015,0.031l0.015,0.03l0.014,0.032l0.013,0.032l0.012,0.032l0.011,0.032l0.011,0.033l0.01,0.033l0.009,0.034l0.008,0.034l0.007,0.034l0.007,0.034l0.006,0.035l0.005,0.035l0.004,0.035l0.003,0.036l0.002,0.036l0.002,0.036l0,0.036l0,13.42l-0.001,0.058l-0.005,0.057l-0.007,0.056l-0.01,0.056l-0.012,0.054l-0.016,0.053l-0.017,0.052l-0.02,0.052l-0.023,0.049l-0.025,0.049l-0.027,0.047l-0.029,0.045l-0.031,0.044l-0.034,0.043l-0.035,0.041l-0.037,0.039l-0.039,0.037l-0.041,0.035l-0.042,0.034l-0.044,0.031l-0.046,0.029l-0.047,0.027l-0.049,0.025l-0.049,0.023l-0.051,0.02l-0.053,0.017l-0.053,0.016l-0.054,0.012l-0.056,0.01l-0.056,0.007l-0.057,0.004l-0.058,0.002l-10.414,0l-0.038,-0.001l-0.037,-0.001l-0.037,-0.002l-0.037,-0.004l-0.037,-0.004l-0.037,-0.005l-0.036,-0.006l-0.036,-0.007l-0.035,-0.008l-0.035,-0.008l-0.035,-0.01l-0.035,-0.01l-0.034,-0.011l-0.034,-0.012l-0.033,-0.013l-0.033,-0.013l-0.033,-0.014l-0.032,-0.015l-0.032,-0.016l-0.031,-0.017l-0.031,-0.017l-0.03,-0.018l-0.03,-0.018l-0.029,-0.02l-0.029,-0.02l-0.029,-0.021l-0.028,-0.021l-0.027,-0.022l-0.027,-0.023l-0.026,-0.023l-0.026,-0.024l-0.025,-0.024l-0.024,-0.025l-0.024,-0.026l-0.023,-0.026l-0.023,-0.027l-0.022,-0.027l-0.022,-0.028l-0.02,-0.029l-0.02,-0.029l-0.02,-0.029l-0.018,-0.03l-0.018,-0.03l-0.018,-0.031l-0.016,-0.032l-0.016,-0.031l-0.015,-0.032l-0.014,-0.033l-0.014,-0.033l-0.012,-0.033l-0.012,-0.034l-0.011,-0.034l-0.011,-0.035l-0.009,-0.035l-0.009,-0.035l-0.007,-0.035l-0.007,-0.036l-0.006,-0.036l-0.005,-0.037l-0.004,-0.037l-0.004,-0.037l-0.002,-0.037l-0.002,-0.037l0,-0.038l0,-13.103l0,-0.035l0.002,-0.035l0.002,-0.034l0.003,-0.034l0.004,-0.035l0.004,-0.034l0.006,-0.034l0.006,-0.033l0.007,-0.034l0.008,-0.033l0.009,-0.033l0.009,-0.033l0.011,-0.032l0.011,-0.033l0.012,-0.032l0.013,-0.031l0.013,-0.032l0.014,-0.031l0.015,-0.03l0.016,-0.031l0.016,-0.029l0.017,-0.03l0.018,-0.029l0.019,-0.029l0.019,-0.028l0.021,-0.028l0.02,-0.027l0.022,-0.027l0.022,-0.027l0.023,-0.026l0.024,-0.025l0.024,-0.025l0.025,-0.024l0.025,-0.024l0.026,-0.022l0.026,-0.023l0.027,-0.021l0.028,-0.021l0.028,-0.02l0.028,-0.019l0.029,-0.019l0.029,-0.018l0.029,-0.017l0.03,-0.016l0.031,-0.016l0.03,-0.015l0.031,-0.014l0.032,-0.013l0.031,-0.013l0.032,-0.012l0.033,-0.011l0.032,-0.01l0.033,-0.01l0.033,-0.009l0.033,-0.007l0.034,-0.008l0.033,-0.006l0.034,-0.005l0.034,-0.005l0.035,-0.004l0.034,-0.003l0.034,-0.002l0.035,-0.001l0.035,0l10.196,0.011Zm-10.207,0.989l-0.01,0l-0.01,0.001l-0.01,0.001l-0.01,0.001l-0.009,0.001l-0.009,0.001l-0.01,0.002l-0.01,0.002l-0.01,0.003l-0.009,0.002l-0.008,0.003l-0.01,0.003l-0.009,0.003l-0.01,0.003l-0.008,0.004l-0.009,0.003l-0.009,0.005l-0.009,0.004l-0.009,0.004l-0.008,0.005l-0.008,0.005l-0.008,0.005l-0.009,0.005l-0.009,0.006l-0.007,0.006l-0.015,0.011l-0.007,0.006l-0.009,0.008l-0.006,0.006l-0.007,0.006l-0.008,0.008l-0.006,0.007l-0.007,0.007l-0.006,0.008l-0.006,0.008l-0.006,0.007l-0.006,0.009l-0.004,0.006l-0.006,0.009l-0.005,0.009l-0.006,0.009l-0.005,0.009l-0.008,0.015l-0.003,0.008l-0.008,0.019l-0.003,0.009l-0.004,0.011l-0.003,0.009l-0.005,0.016l-0.002,0.01l-0.003,0.013l-0.001,0.007l-0.003,0.021l-0.002,0.016l0,0.011l-0.001,0.012l0,0.015l0,13.092l0,0.016l0.001,0.013l0.001,0.013l0,0.01l0.002,0.015l0.002,0.011l0.001,0.008l0.002,0.011l0.003,0.013l0.003,0.012l0.003,0.012l0.003,0.009l0.002,0.008l0.005,0.013l0.004,0.011l0.004,0.009l0.004,0.01l0.004,0.009l0.007,0.013l0.004,0.009l0.005,0.008l0.007,0.012l0.006,0.009l0.005,0.007l0.006,0.009l0.007,0.011l0.008,0.01l0.006,0.007l0.006,0.008l0.01,0.01l0.007,0.008l0.007,0.007l0.008,0.008l0.009,0.008l0.008,0.007l0.008,0.007l0.01,0.009l0.008,0.006l0.008,0.005l0.011,0.008l0.009,0.006l0.009,0.006l0.009,0.005l0.01,0.005l0.01,0.006l0.011,0.005l0.01,0.005l0.009,0.004l0.01,0.004l0.012,0.004l0.01,0.004l0.01,0.003l0.011,0.003l0.01,0.003l0.011,0.003l0.012,0.003l0.011,0.002l0.011,0.001l0.012,0.002l0.011,0.001l0.013,0.001l0.012,0.001l0.011,0.001l0.019,0l10.395,0l0.02,-0.001l0.007,0l0.006,-0.001l0.006,-0.001l0.006,-0.001l0.005,-0.002l0.006,-0.002l0.005,-0.002l0.005,-0.002l0.006,-0.003l0.004,-0.002l0.005,-0.004l0.006,-0.004l0.004,-0.003l0.005,-0.004l0.005,-0.005l0.004,-0.005l0.005,-0.004l0.003,-0.004l0.003,-0.005l0.003,-0.005l0.003,-0.006l0.003,-0.005l0.003,-0.006l0.001,-0.004l0.002,-0.005l0.002,-0.007l0.001,-0.006l0.001,-0.006l0.001,-0.004l0,-0.008l0.001,-0.021l0,-13.398l0,-0.017l-0.001,-0.013l0,-0.011l-0.001,-0.01l-0.002,-0.012l-0.001,-0.009l-0.001,-0.009l-0.002,-0.008l-0.002,-0.011l-0.003,-0.012l-0.002,-0.007l-0.003,-0.01l-0.003,-0.009l-0.003,-0.008l-0.004,-0.011l-0.004,-0.01l-0.003,-0.008l-0.004,-0.007l-0.006,-0.012l-0.004,-0.008l-0.004,-0.007l-0.005,-0.008l-0.006,-0.01l-0.006,-0.009l-0.005,-0.007l-0.005,-0.007l-0.006,-0.008l-0.007,-0.009l-0.006,-0.007l-0.005,-0.006l-0.007,-0.007l-0.009,-0.01l-0.007,-0.006l-0.005,-0.005l-0.008,-0.007l-0.009,-0.008l-0.007,-0.005l-0.008,-0.006l-0.008,-0.006l-0.008,-0.006l-0.009,-0.006l-0.007,-0.004l-0.009,-0.005l-0.009,-0.005l-0.008,-0.004l-0.008,-0.005l-0.01,-0.004l-0.009,-0.004l-0.008,-0.004l-0.009,-0.003l-0.01,-0.004l-0.01,-0.003l-0.009,-0.002l-0.008,-0.003l-0.01,-0.002l-0.01,-0.002l-0.01,-0.002l-0.01,-0.002l-0.01,-0.001l-0.011,-0.002l-0.01,0l-0.011,-0.001l-0.01,-0.001l-0.018,0l-10.183,-0.011l-0.016,0Z"/></g><rect x="8" y="3" width="1.5" height="2"/><rect x="9.5" y="5" width="1.5" height="2"/><rect x="8" y="7" width="1.5" height="2"/><rect x="9.5" y="9" width="1.5" height="2"/><rect x="8" y="11" width="1.5" height="2"/><rect x="9.5" y="13" width="1.5" height="2"/><rect x="8" y="15" width="1.5" height="2"/></svg>