<?xml version="1.0" encoding="UTF-8" standalone="no"?><!DOCTYPE svg PUBLIC "-//W3C//DTD SVG 1.1//EN" "http://www.w3.org/Graphics/SVG/1.1/DTD/svg11.dtd"><svg width="100%" height="100%" viewBox="0 0 20 20" version="1.1" xmlns="http://www.w3.org/2000/svg" xmlns:xlink="http://www.w3.org/1999/xlink" xml:space="preserve" style="fill-rule:evenodd;clip-rule:evenodd;stroke-linejoin:round;stroke-miterlimit:1.41421;"><g></g><rect x="-117" y="-276" width="400" height="1430" style="fill:none;"/><g><g><path d="M8.916,7.354l-2.709,2.709l2.709,2.708l-0.707,0.708l-3.416,-3.416l3.416,-3.417l0.707,0.708Z"/><path d="M14.374,10.063l-3.416,3.416l-0.707,-0.708l2.709,-2.708l-2.709,-2.709l0.707,-0.708l3.416,3.417Z"/></g><path d="M14.595,2.013l0.036,0.001l0.036,0.001l0.036,0.002l0.036,0.004l0.035,0.004l0.035,0.005l0.035,0.005l0.034,0.007l0.034,0.008l0.034,0.008l0.034,0.009l0.033,0.01l0.033,0.011l0.032,0.011l0.032,0.012l0.032,0.013l0.031,0.014l0.031,0.014l0.031,0.016l0.03,0.016l0.029,0.016l0.03,0.017l0.028,0.018l0.029,0.019l0.027,0.019l0.028,0.02l0.026,0.021l0.027,0.021l0.026,0.022l0.025,0.022l0.024,0.023l0.025,0.024l0.023,0.024l0.023,0.025l0.022,0.025l0.022,0.026l0.021,0.026l0.021,0.027l0.02,0.027l0.019,0.028l0.019,0.028l0.018,0.029l0.017,0.029l0.016,0.03l0.016,0.03l0.015,0.031l0.015,0.03l0.014,0.032l0.013,0.032l0.012,0.032l0.011,0.032l0.011,0.033l0.01,0.033l0.009,0.034l0.008,0.034l0.007,0.034l0.007,0.034l0.006,0.035l0.005,0.035l0.004,0.035l0.003,0.036l0.002,0.036l0.002,0.036l0,0.036l0,13.42l-0.001,0.058l-0.005,0.057l-0.007,0.056l-0.01,0.056l-0.012,0.054l-0.016,0.053l-0.017,0.052l-0.02,0.051l-0.023,0.05l-0.025,0.049l-0.027,0.047l-0.029,0.045l-0.031,0.044l-0.034,0.043l-0.035,0.041l-0.037,0.039l-0.039,0.037l-0.041,0.035l-0.042,0.034l-0.044,0.031l-0.046,0.029l-0.047,0.027l-0.049,0.025l-0.049,0.023l-0.051,0.02l-0.053,0.017l-0.053,0.015l-0.054,0.013l-0.056,0.01l-0.056,0.007l-0.057,0.004l-0.058,0.002l-10.414,0l-0.038,-0.001l-0.037,-0.001l-0.037,-0.002l-0.037,-0.004l-0.037,-0.004l-0.037,-0.005l-0.036,-0.006l-0.036,-0.007l-0.035,-0.008l-0.035,-0.008l-0.035,-0.01l-0.035,-0.01l-0.034,-0.011l-0.034,-0.012l-0.033,-0.013l-0.033,-0.013l-0.033,-0.014l-0.032,-0.015l-0.032,-0.016l-0.031,-0.017l-0.031,-0.017l-0.03,-0.018l-0.03,-0.018l-0.029,-0.02l-0.029,-0.02l-0.029,-0.021l-0.028,-0.021l-0.027,-0.022l-0.027,-0.023l-0.026,-0.023l-0.026,-0.024l-0.025,-0.024l-0.024,-0.025l-0.024,-0.026l-0.023,-0.026l-0.023,-0.027l-0.022,-0.028l-0.022,-0.027l-0.02,-0.029l-0.02,-0.029l-0.02,-0.029l-0.018,-0.03l-0.018,-0.03l-0.018,-0.031l-0.016,-0.032l-0.016,-0.031l-0.015,-0.032l-0.014,-0.033l-0.014,-0.033l-0.012,-0.033l-0.012,-0.034l-0.011,-0.034l-0.011,-0.035l-0.009,-0.035l-0.009,-0.035l-0.007,-0.035l-0.007,-0.036l-0.006,-0.036l-0.005,-0.037l-0.004,-0.037l-0.004,-0.037l-0.002,-0.037l-0.002,-0.037l0,-0.038l0,-13.103l0,-0.035l0.002,-0.035l0.002,-0.034l0.003,-0.034l0.004,-0.035l0.004,-0.034l0.006,-0.034l0.006,-0.033l0.007,-0.034l0.008,-0.033l0.009,-0.033l0.009,-0.033l0.011,-0.032l0.011,-0.033l0.012,-0.032l0.013,-0.031l0.013,-0.032l0.014,-0.031l0.015,-0.03l0.016,-0.031l0.016,-0.03l0.017,-0.029l0.018,-0.029l0.019,-0.029l0.019,-0.028l0.021,-0.028l0.02,-0.027l0.022,-0.027l0.022,-0.027l0.023,-0.026l0.024,-0.025l0.024,-0.025l0.025,-0.024l0.025,-0.024l0.026,-0.022l0.026,-0.023l0.027,-0.021l0.028,-0.021l0.028,-0.02l0.028,-0.019l0.029,-0.019l0.029,-0.018l0.029,-0.017l0.03,-0.016l0.031,-0.016l0.03,-0.015l0.031,-0.014l0.032,-0.014l0.031,-0.012l0.032,-0.012l0.033,-0.011l0.032,-0.01l0.033,-0.01l0.033,-0.009l0.033,-0.007l0.034,-0.008l0.033,-0.006l0.034,-0.005l0.034,-0.005l0.035,-0.004l0.034,-0.003l0.034,-0.002l0.035,-0.001l0.035,0l10.196,0.011Zm-10.207,0.989l-0.01,0l-0.01,0.001l-0.01,0.001l-0.01,0.001l-0.009,0.001l-0.009,0.001l-0.011,0.002l-0.009,0.002l-0.01,0.003l-0.009,0.002l-0.008,0.003l-0.01,0.003l-0.009,0.003l-0.009,0.003l-0.01,0.004l-0.008,0.003l-0.009,0.004l-0.009,0.005l-0.009,0.004l-0.008,0.005l-0.008,0.005l-0.009,0.005l-0.008,0.005l-0.009,0.006l-0.007,0.006l-0.015,0.011l-0.007,0.006l-0.009,0.008l-0.006,0.006l-0.007,0.006l-0.008,0.008l-0.006,0.007l-0.007,0.007l-0.006,0.008l-0.006,0.008l-0.006,0.007l-0.006,0.009l-0.004,0.006l-0.006,0.009l-0.005,0.009l-0.006,0.009l-0.005,0.009l-0.008,0.015l-0.003,0.008l-0.005,0.011l-0.003,0.008l-0.003,0.009l-0.004,0.011l-0.003,0.009l-0.005,0.016l-0.002,0.01l-0.003,0.013l-0.001,0.007l-0.003,0.021l-0.002,0.016l0,0.011l-0.001,0.012l0,0.014l0,13.093l0,0.016l0.001,0.013l0.001,0.013l0,0.01l0.002,0.015l0.002,0.011l0.001,0.008l0.002,0.011l0.003,0.013l0.003,0.012l0.003,0.012l0.003,0.009l0.002,0.008l0.005,0.013l0.004,0.011l0.004,0.009l0.004,0.01l0.004,0.009l0.007,0.013l0.004,0.009l0.005,0.008l0.007,0.012l0.006,0.009l0.005,0.008l0.006,0.008l0.007,0.011l0.008,0.009l0.006,0.008l0.006,0.008l0.01,0.01l0.007,0.008l0.007,0.007l0.008,0.008l0.009,0.008l0.008,0.007l0.008,0.007l0.011,0.009l0.007,0.006l0.008,0.005l0.011,0.008l0.009,0.006l0.009,0.006l0.009,0.005l0.01,0.005l0.01,0.006l0.011,0.005l0.01,0.005l0.009,0.004l0.011,0.004l0.011,0.004l0.01,0.004l0.01,0.003l0.011,0.003l0.01,0.003l0.012,0.003l0.011,0.002l0.011,0.002l0.012,0.002l0.011,0.002l0.011,0.001l0.013,0.001l0.012,0.001l0.011,0.001l0.019,0l10.395,0l0.02,-0.001l0.007,0l0.006,-0.001l0.006,-0.001l0.006,-0.001l0.005,-0.002l0.006,-0.002l0.005,-0.002l0.005,-0.002l0.006,-0.003l0.004,-0.003l0.005,-0.003l0.006,-0.004l0.004,-0.003l0.005,-0.004l0.004,-0.004l0.005,-0.006l0.005,-0.005l0.003,-0.003l0.003,-0.005l0.003,-0.005l0.003,-0.006l0.003,-0.005l0.003,-0.006l0.001,-0.004l0.002,-0.005l0.002,-0.007l0.001,-0.006l0.001,-0.006l0.001,-0.004l0,-0.008l0.001,-0.021l0,-13.398l0,-0.017l-0.001,-0.013l0,-0.011l-0.001,-0.01l-0.002,-0.012l-0.001,-0.009l-0.001,-0.009l-0.002,-0.008l-0.002,-0.011l-0.003,-0.012l-0.002,-0.008l-0.003,-0.009l-0.003,-0.009l-0.003,-0.008l-0.004,-0.011l-0.004,-0.01l-0.004,-0.008l-0.003,-0.007l-0.006,-0.011l-0.004,-0.009l-0.004,-0.007l-0.004,-0.008l-0.007,-0.01l-0.006,-0.009l-0.005,-0.007l-0.005,-0.007l-0.006,-0.008l-0.007,-0.008l-0.006,-0.008l-0.005,-0.006l-0.007,-0.007l-0.009,-0.01l-0.007,-0.006l-0.005,-0.005l-0.008,-0.007l-0.009,-0.008l-0.007,-0.005l-0.008,-0.006l-0.008,-0.006l-0.008,-0.006l-0.009,-0.006l-0.007,-0.004l-0.009,-0.005l-0.009,-0.005l-0.007,-0.004l-0.009,-0.005l-0.01,-0.004l-0.009,-0.004l-0.008,-0.004l-0.009,-0.003l-0.01,-0.004l-0.01,-0.003l-0.009,-0.002l-0.008,-0.003l-0.01,-0.002l-0.01,-0.002l-0.01,-0.002l-0.01,-0.002l-0.01,-0.001l-0.011,-0.002l-0.01,0l-0.011,-0.001l-0.01,-0.001l-0.018,0l-10.183,-0.011l-0.016,0Z"/></g><path id="Shape" d="M15.154,-18.928l0.048,0.001l0.096,0.008l0.048,0.005l0.047,0.007l0.047,0.008l0.046,0.009l0.046,0.01l0.045,0.011l0.045,0.012l0.045,0.014l0.044,0.014l0.044,0.015l0.043,0.017l0.043,0.018l0.042,0.018l0.042,0.02l0.041,0.02l0.08,0.044l0.04,0.023l0.039,0.025l0.038,0.025l0.037,0.026l0.037,0.027l0.036,0.027l0.036,0.029l0.034,0.029l0.035,0.031l0.033,0.031l0.064,0.064l0.031,0.033l0.031,0.035l0.029,0.034l0.029,0.036l0.027,0.036l0.027,0.037l0.026,0.037l0.025,0.038l0.025,0.039l0.023,0.04l0.044,0.08l0.02,0.041l0.02,0.042l0.018,0.042l0.018,0.043l0.017,0.043l0.015,0.044l0.014,0.044l0.014,0.045l0.012,0.045l0.011,0.045l0.01,0.046l0.009,0.046l0.008,0.047l0.007,0.047l0.005,0.048l0.008,0.096l0.002,0.097l0,14.21l-0.001,0.049l-0.001,0.048l-0.004,0.048l-0.004,0.048l-0.005,0.048l-0.007,0.047l-0.008,0.047l-0.009,0.046l-0.01,0.046l-0.011,0.045l-0.012,0.045l-0.014,0.045l-0.014,0.044l-0.015,0.044l-0.017,0.043l-0.018,0.043l-0.018,0.042l-0.02,0.042l-0.02,0.041l-0.022,0.04l-0.022,0.04l-0.023,0.04l-0.025,0.039l-0.025,0.038l-0.026,0.037l-0.027,0.037l-0.027,0.036l-0.029,0.036l-0.029,0.034l-0.031,0.035l-0.031,0.033l-0.032,0.032l-0.032,0.032l-0.033,0.031l-0.035,0.031l-0.034,0.029l-0.036,0.029l-0.036,0.027l-0.037,0.027l-0.037,0.026l-0.038,0.025l-0.039,0.025l-0.04,0.023l-0.04,0.022l-0.04,0.022l-0.041,0.02l-0.042,0.02l-0.042,0.018l-0.043,0.018l-0.043,0.017l-0.044,0.015l-0.044,0.014l-0.045,0.014l-0.045,0.012l-0.045,0.011l-0.046,0.01l-0.046,0.009l-0.047,0.008l-0.047,0.007l-0.048,0.005l-0.048,0.004l-0.048,0.004l-0.048,0.001l-0.049,0.001l-11.21,0l-0.049,-0.001l-0.048,-0.001l-0.048,-0.004l-0.048,-0.004l-0.048,-0.005l-0.047,-0.007l-0.047,-0.008l-0.046,-0.009l-0.046,-0.01l-0.045,-0.011l-0.045,-0.012l-0.045,-0.014l-0.044,-0.014l-0.044,-0.015l-0.043,-0.017l-0.043,-0.018l-0.042,-0.018l-0.042,-0.02l-0.041,-0.02l-0.04,-0.022l-0.04,-0.022l-0.04,-0.023l-0.039,-0.025l-0.038,-0.025l-0.037,-0.026l-0.037,-0.027l-0.036,-0.027l-0.036,-0.029l-0.034,-0.029l-0.035,-0.031l-0.033,-0.031l-0.032,-0.032l-0.032,-0.032l-0.031,-0.033l-0.031,-0.035l-0.029,-0.034l-0.029,-0.036l-0.027,-0.036l-0.027,-0.037l-0.026,-0.037l-0.025,-0.038l-0.025,-0.039l-0.023,-0.04l-0.022,-0.04l-0.022,-0.04l-0.02,-0.041l-0.02,-0.042l-0.018,-0.042l-0.018,-0.043l-0.017,-0.043l-0.015,-0.044l-0.014,-0.044l-0.014,-0.045l-0.012,-0.045l-0.011,-0.045l-0.01,-0.046l-0.009,-0.046l-0.008,-0.047l-0.007,-0.047l-0.005,-0.048l-0.004,-0.048l-0.004,-0.048l-0.001,-0.048l-0.001,-0.049l0,-12.105l4,-4l9.105,0l0.049,0.001Zm-8.74,0.999l-3.414,3.414l0,11.714l0.001,0.023l0.002,0.023l0.002,0.022l0.002,0.023l0.003,0.022l0.004,0.022l0.004,0.021l0.005,0.022l0.005,0.021l0.012,0.042l0.007,0.02l0.007,0.021l0.016,0.04l0.009,0.02l0.009,0.019l0.009,0.02l0.011,0.019l0.01,0.019l0.011,0.018l0.012,0.019l0.024,0.036l0.013,0.017l0.013,0.018l0.014,0.017l0.014,0.016l0.029,0.033l0.016,0.015l0.015,0.015l0.016,0.015l0.017,0.015l0.016,0.014l0.017,0.014l0.017,0.013l0.018,0.013l0.054,0.036l0.019,0.011l0.019,0.01l0.019,0.011l0.019,0.009l0.04,0.018l0.04,0.016l0.021,0.007l0.02,0.007l0.042,0.012l0.021,0.005l0.022,0.005l0.021,0.004l0.022,0.004l0.022,0.003l0.068,0.006l0.023,0.001l11.256,0l0.023,-0.001l0.023,-0.002l0.022,-0.002l0.023,-0.002l0.022,-0.003l0.022,-0.004l0.021,-0.004l0.022,-0.005l0.021,-0.005l0.021,-0.006l0.021,-0.006l0.02,-0.007l0.021,-0.007l0.02,-0.008l0.02,-0.008l0.02,-0.009l0.02,-0.009l0.019,-0.009l0.019,-0.011l0.019,-0.01l0.019,-0.011l0.018,-0.012l0.018,-0.012l0.018,-0.012l0.018,-0.013l0.017,-0.013l0.017,-0.014l0.016,-0.014l0.017,-0.015l0.016,-0.015l0.015,-0.015l0.016,-0.015l0.014,-0.016l0.015,-0.017l0.014,-0.016l0.014,-0.017l0.013,-0.018l0.013,-0.017l0.012,-0.018l0.012,-0.018l0.012,-0.019l0.011,-0.018l0.01,-0.019l0.011,-0.019l0.009,-0.02l0.009,-0.019l0.009,-0.02l0.008,-0.02l0.008,-0.02l0.007,-0.021l0.007,-0.02l0.006,-0.021l0.006,-0.021l0.005,-0.021l0.005,-0.022l0.004,-0.022l0.004,-0.021l0.003,-0.022l0.002,-0.023l0.002,-0.022l0.002,-0.023l0.001,-0.023l0,-0.029l0,-14.198l0,-0.029l-0.001,-0.023l-0.002,-0.023l-0.002,-0.022l-0.002,-0.023l-0.003,-0.022l-0.004,-0.021l-0.004,-0.022l-0.005,-0.022l-0.005,-0.021l-0.006,-0.021l-0.006,-0.021l-0.007,-0.02l-0.007,-0.021l-0.008,-0.02l-0.008,-0.02l-0.009,-0.02l-0.009,-0.019l-0.01,-0.02l-0.01,-0.019l-0.01,-0.019l-0.011,-0.018l-0.012,-0.019l-0.012,-0.018l-0.012,-0.018l-0.013,-0.017l-0.013,-0.018l-0.014,-0.017l-0.014,-0.016l-0.015,-0.017l-0.014,-0.016l-0.016,-0.015l-0.015,-0.016l-0.016,-0.014l-0.017,-0.015l-0.016,-0.014l-0.017,-0.014l-0.017,-0.013l-0.018,-0.013l-0.018,-0.012l-0.018,-0.012l-0.018,-0.012l-0.019,-0.011l-0.019,-0.01l-0.019,-0.01l-0.02,-0.01l-0.019,-0.009l-0.02,-0.009l-0.02,-0.008l-0.02,-0.008l-0.021,-0.007l-0.02,-0.007l-0.021,-0.006l-0.021,-0.006l-0.022,-0.005l-0.021,-0.005l-0.022,-0.004l-0.021,-0.004l-0.022,-0.003l-0.023,-0.002l-0.022,-0.002l-0.023,-0.002l-0.023,-0.001l-0.029,0l-8.685,0l0,0Z"/></svg>