<?xml version="1.0" encoding="UTF-8" standalone="no"?><!DOCTYPE svg PUBLIC "-//W3C//DTD SVG 1.1//EN" "http://www.w3.org/Graphics/SVG/1.1/DTD/svg11.dtd"><svg width="100%" height="100%" viewBox="0 0 20 20" version="1.1" xmlns="http://www.w3.org/2000/svg" xmlns:xlink="http://www.w3.org/1999/xlink" xml:space="preserve" style="fill-rule:evenodd;clip-rule:evenodd;stroke-linejoin:round;stroke-miterlimit:10;"><g></g><rect x="-117" y="-296" width="400" height="1430" style="fill:none;"/><g><path d="M14.595,2.037l0.036,0l0.036,0.002l0.036,0.002l0.036,0.003l0.035,0.004l0.035,0.005l0.035,0.006l0.034,0.007l0.034,0.007l0.034,0.008l0.034,0.009l0.033,0.01l0.033,0.011l0.032,0.012l0.032,0.012l0.032,0.013l0.031,0.013l0.031,0.015l0.031,0.015l0.03,0.016l0.029,0.017l0.03,0.017l0.028,0.018l0.029,0.019l0.027,0.019l0.028,0.02l0.026,0.02l0.027,0.022l0.026,0.021l0.025,0.023l0.024,0.023l0.025,0.023l0.023,0.024l0.023,0.025l0.022,0.025l0.022,0.026l0.021,0.027l0.021,0.026l0.02,0.028l0.019,0.027l0.019,0.029l0.018,0.029l0.017,0.029l0.016,0.029l0.016,0.031l0.015,0.03l0.015,0.031l0.014,0.031l0.013,0.032l0.012,0.032l0.011,0.033l0.011,0.032l0.01,0.034l0.009,0.033l0.008,0.034l0.007,0.034l0.007,0.035l0.006,0.034l0.005,0.035l0.004,0.036l0.003,0.035l0.002,0.036l0.002,0.036l0,0.037l0,13.42l-0.001,0.057l-0.005,0.057l-0.007,0.057l-0.01,0.055l-0.012,0.054l-0.016,0.054l-0.017,0.052l-0.02,0.051l-0.023,0.05l-0.025,0.048l-0.027,0.047l-0.029,0.046l-0.031,0.044l-0.034,0.042l-0.035,0.041l-0.037,0.039l-0.039,0.037l-0.041,0.036l-0.042,0.033l-0.044,0.031l-0.046,0.03l-0.047,0.027l-0.049,0.025l-0.049,0.022l-0.051,0.02l-0.053,0.018l-0.053,0.015l-0.054,0.013l-0.056,0.009l-0.056,0.008l-0.057,0.004l-0.058,0.001l-10.414,0l-0.038,0l-0.037,-0.002l-0.037,-0.002l-0.037,-0.003l-0.037,-0.004l-0.037,-0.005l-0.036,-0.006l-0.036,-0.007l-0.035,-0.008l-0.035,-0.009l-0.035,-0.009l-0.035,-0.01l-0.034,-0.011l-0.034,-0.012l-0.033,-0.013l-0.033,-0.014l-0.033,-0.014l-0.032,-0.015l-0.032,-0.016l-0.031,-0.016l-0.031,-0.017l-0.03,-0.018l-0.03,-0.019l-0.029,-0.019l-0.029,-0.02l-0.029,-0.021l-0.028,-0.021l-0.027,-0.022l-0.027,-0.023l-0.026,-0.023l-0.026,-0.024l-0.025,-0.025l-0.024,-0.025l-0.024,-0.026l-0.023,-0.026l-0.023,-0.027l-0.022,-0.027l-0.022,-0.028l-0.02,-0.028l-0.02,-0.029l-0.02,-0.03l-0.018,-0.03l-0.018,-0.03l-0.018,-0.031l-0.016,-0.031l-0.016,-0.032l-0.015,-0.032l-0.014,-0.033l-0.014,-0.033l-0.012,-0.033l-0.012,-0.034l-0.011,-0.034l-0.011,-0.034l-0.009,-0.035l-0.009,-0.035l-0.007,-0.036l-0.007,-0.036l-0.006,-0.036l-0.005,-0.036l-0.004,-0.037l-0.004,-0.037l-0.002,-0.037l-0.002,-0.038l0,-0.038l0,-13.103l0,-0.034l0.002,-0.035l0.002,-0.035l0.003,-0.034l0.004,-0.034l0.004,-0.034l0.006,-0.034l0.006,-0.034l0.007,-0.033l0.008,-0.034l0.009,-0.033l0.009,-0.032l0.011,-0.033l0.011,-0.032l0.012,-0.032l0.013,-0.032l0.013,-0.031l0.014,-0.031l0.015,-0.031l0.016,-0.03l0.016,-0.03l0.017,-0.03l0.018,-0.029l0.019,-0.028l0.019,-0.029l0.021,-0.027l0.02,-0.028l0.022,-0.027l0.022,-0.026l0.023,-0.026l0.024,-0.025l0.024,-0.025l0.025,-0.024l0.025,-0.024l0.026,-0.023l0.026,-0.022l0.027,-0.022l0.028,-0.02l0.028,-0.02l0.028,-0.02l0.029,-0.018l0.029,-0.018l0.029,-0.017l0.03,-0.017l0.031,-0.015l0.03,-0.015l0.031,-0.015l0.032,-0.013l0.031,-0.013l0.032,-0.011l0.033,-0.012l0.032,-0.01l0.033,-0.009l0.033,-0.009l0.033,-0.008l0.034,-0.007l0.033,-0.006l0.034,-0.006l0.034,-0.004l0.035,-0.004l0.034,-0.003l0.034,-0.002l0.035,-0.002l0.035,0l10.196,0.012Zm-10.207,0.988l-0.01,0.001l-0.01,0l-0.009,0.001l-0.011,0.001l-0.009,0.001l-0.009,0.002l-0.01,0.002l-0.01,0.002l-0.01,0.002l-0.009,0.003l-0.008,0.002l-0.01,0.003l-0.009,0.003l-0.01,0.004l-0.009,0.003l-0.008,0.004l-0.009,0.004l-0.009,0.005l-0.008,0.004l-0.009,0.004l-0.008,0.005l-0.009,0.005l-0.008,0.006l-0.009,0.006l-0.007,0.005l-0.015,0.012l-0.007,0.006l-0.009,0.008l-0.007,0.006l-0.014,0.014l-0.006,0.007l-0.007,0.007l-0.006,0.007l-0.006,0.008l-0.006,0.008l-0.006,0.008l-0.004,0.007l-0.006,0.008l-0.005,0.009l-0.006,0.009l-0.005,0.01l-0.008,0.015l-0.003,0.008l-0.008,0.019l-0.003,0.008l-0.004,0.012l-0.003,0.009l-0.005,0.016l-0.002,0.01l-0.003,0.012l-0.001,0.008l-0.003,0.021l-0.002,0.016l0,0.011l-0.001,0.011l0,0.015l0,13.092l0,0.017l0.001,0.013l0.001,0.013l0,0.01l0.002,0.014l0.002,0.011l0.001,0.009l0.002,0.01l0.003,0.013l0.003,0.013l0.003,0.011l0.003,0.009l0.002,0.009l0.005,0.013l0.004,0.01l0.004,0.01l0.004,0.009l0.004,0.01l0.007,0.013l0.004,0.008l0.005,0.008l0.007,0.012l0.006,0.01l0.005,0.007l0.006,0.009l0.007,0.01l0.008,0.01l0.006,0.008l0.006,0.007l0.01,0.01l0.007,0.009l0.007,0.006l0.008,0.008l0.009,0.009l0.008,0.007l0.008,0.007l0.01,0.008l0.008,0.006l0.008,0.006l0.011,0.007l0.009,0.006l0.009,0.006l0.01,0.006l0.009,0.005l0.01,0.005l0.01,0.005l0.011,0.005l0.009,0.004l0.011,0.005l0.011,0.004l0.01,0.003l0.01,0.004l0.011,0.003l0.01,0.003l0.012,0.002l0.011,0.003l0.011,0.002l0.012,0.002l0.011,0.002l0.011,0.001l0.012,0.001l0.012,0.001l0.012,0l0.019,0l10.396,0l0.02,0l0.006,-0.001l0.006,0l0.006,-0.002l0.006,-0.001l0.005,-0.001l0.006,-0.002l0.005,-0.002l0.005,-0.003l0.006,-0.002l0.004,-0.003l0.005,-0.003l0.006,-0.004l0.004,-0.004l0.005,-0.004l0.004,-0.004l0.005,-0.005l0.005,-0.005l0.003,-0.004l0.003,-0.004l0.003,-0.006l0.003,-0.005l0.003,-0.005l0.003,-0.006l0.001,-0.004l0.002,-0.006l0.002,-0.006l0.001,-0.006l0.001,-0.006l0.001,-0.005l0,-0.007l0.001,-0.021l0,-13.398l0,-0.017l-0.001,-0.014l0,-0.01l-0.001,-0.01l-0.002,-0.013l-0.001,-0.009l-0.001,-0.008l-0.002,-0.009l-0.002,-0.01l-0.003,-0.013l-0.002,-0.007l-0.003,-0.009l-0.003,-0.009l-0.003,-0.009l-0.004,-0.011l-0.004,-0.01l-0.003,-0.007l-0.004,-0.008l-0.006,-0.011l-0.004,-0.009l-0.004,-0.006l-0.005,-0.008l-0.006,-0.01l-0.006,-0.01l-0.005,-0.007l-0.005,-0.007l-0.006,-0.008l-0.007,-0.008l-0.006,-0.008l-0.005,-0.005l-0.007,-0.007l-0.01,-0.01l-0.006,-0.007l-0.005,-0.004l-0.008,-0.008l-0.009,-0.007l-0.007,-0.006l-0.008,-0.006l-0.008,-0.006l-0.008,-0.005l-0.009,-0.006l-0.007,-0.004l-0.009,-0.006l-0.009,-0.005l-0.008,-0.004l-0.008,-0.004l-0.009,-0.004l-0.009,-0.004l-0.009,-0.004l-0.009,-0.004l-0.01,-0.003l-0.01,-0.003l-0.009,-0.003l-0.009,-0.002l-0.009,-0.003l-0.01,-0.002l-0.01,-0.002l-0.01,-0.001l-0.01,-0.002l-0.011,-0.001l-0.01,-0.001l-0.011,-0.001l-0.01,0l-0.018,0l-10.183,-0.012l-0.016,0Z"/></g><path d="M9.536,5.34c0.181,0.079 0.638,0.198 0.578,0.757c-0.061,0.58 -0.763,1.636 -1.157,2.672c-0.394,1.038 -0.979,2.056 -1.489,2.811c-0.509,0.754 -0.636,1.244 -0.968,1.527c-0.334,0.282 -0.742,0.541 -0.892,0.567c-0.15,0.026 -0.351,-0.184 -0.391,-0.259c-0.04,-0.075 -0.055,-0.202 -0.02,-0.352c0.034,-0.151 0.073,-0.542 0.303,-0.767c0.232,-0.227 0.655,-0.288 1.186,-0.547c0.531,-0.257 1.21,-0.497 1.768,-0.66c0.558,-0.163 0.993,-0.251 1.373,-0.32c0.382,-0.069 0.708,-0.119 1.027,-0.144c0.32,-0.026 0.634,-0.026 0.94,0c0.305,0.025 0.605,0.075 0.864,0.137c0.258,0.063 0.476,0.139 0.666,0.259c0.19,0.119 0.354,0.282 0.435,0.465c0.082,0.182 0.082,0.383 0.014,0.528c-0.068,0.144 -0.205,0.232 -0.361,0.282c-0.156,0.05 -0.333,0.063 -0.544,0c-0.21,-0.063 -0.456,-0.201 -0.714,-0.384c-0.258,-0.182 -0.53,-0.407 -0.884,-0.759c-0.353,-0.353 -0.789,-0.831 -1.156,-1.296c-0.367,-0.465 -0.667,-0.917 -0.871,-1.301c-0.203,-0.383 -0.313,-0.697 -0.401,-1.012c-0.089,-0.314 -0.156,-0.629 -0.184,-0.911c-0.027,-0.284 -0.014,-0.535 0.014,-0.735c0.027,-0.202 0.068,-0.352 0.136,-0.453c0.068,-0.101 0.164,-0.151 0.232,-0.176c0.067,-0.026 0.109,-0.026 0.149,-0.031c0.04,-0.006 0.081,-0.019 0.143,0c0.059,0.017 0.138,0.065 0.204,0.102Z" style="fill:none;stroke:#000;stroke-width:0.67px;"/></svg>