<?xml version="1.0" encoding="UTF-8" standalone="no"?><!DOCTYPE svg PUBLIC "-//W3C//DTD SVG 1.1//EN" "http://www.w3.org/Graphics/SVG/1.1/DTD/svg11.dtd"><svg width="100%" height="100%" viewBox="0 0 25 25" version="1.1" xmlns="http://www.w3.org/2000/svg" xmlns:xlink="http://www.w3.org/1999/xlink" xml:space="preserve" style="fill-rule:evenodd;clip-rule:evenodd;stroke-linejoin:round;stroke-miterlimit:1.41421;"><g></g><rect x="-196" y="-356" width="400" height="1430" style="fill:none;"/><path id="Layer1" d="M12.065,8l0,4.088c0,1.118 -0.295,2.036 -0.886,2.755c-0.591,0.719 -1.397,1.195 -2.419,1.429l0,-1.804c0.308,-0.096 0.559,-0.216 0.75,-0.36c0.192,-0.143 0.341,-0.314 0.447,-0.511c0.107,-0.197 0.179,-0.42 0.216,-0.67c0.037,-0.251 0.056,-0.53 0.056,-0.839l0,-0.431l-1.469,0l0,-3.657l3.305,0Zm4.935,0l0,4.088c0,1.118 -0.296,2.036 -0.886,2.755c-0.591,0.719 -1.398,1.195 -2.42,1.429l0,-1.804c0.309,-0.096 0.559,-0.216 0.751,-0.36c0.191,-0.143 0.34,-0.314 0.447,-0.511c0.106,-0.197 0.178,-0.42 0.215,-0.67c0.038,-0.251 0.056,-0.53 0.056,-0.839l0,-0.431l-1.469,0l0,-3.657l3.306,0l0,0Z" style="fill-rule:nonzero;"/></svg>