<?xml version="1.0" encoding="UTF-8" standalone="no"?><!DOCTYPE svg PUBLIC "-//W3C//DTD SVG 1.1//EN" "http://www.w3.org/Graphics/SVG/1.1/DTD/svg11.dtd"><svg width="100%" height="100%" viewBox="0 0 20 20" version="1.1" xmlns="http://www.w3.org/2000/svg" xmlns:xlink="http://www.w3.org/1999/xlink" xml:space="preserve" style="fill-rule:evenodd;clip-rule:evenodd;stroke-linejoin:round;stroke-miterlimit:1.41421;"><g></g><rect x="-117" y="-176" width="400" height="1430" style="fill:none;"/><g><path d="M3.023,3c4.383,0 8.767,0 13.15,0c0.183,0 0.375,-0.006 0.561,0.001c0.045,0.003 0.09,0.008 0.135,0.014c0.13,0.022 0.255,0.059 0.374,0.116c0.31,0.149 0.556,0.419 0.674,0.743c0.05,0.136 0.075,0.278 0.08,0.423c0.002,0.164 0.001,0.329 0.001,0.493c0,3.113 0,6.226 0,9.34c0,0.195 0.006,0.402 -0.002,0.602c-0.009,0.141 -0.036,0.28 -0.087,0.413c-0.131,0.338 -0.399,0.613 -0.734,0.751c-0.141,0.059 -0.291,0.09 -0.443,0.1c-0.163,0.006 -0.329,0.002 -0.49,0.002l-13.321,0c-0.211,0 -0.436,0.006 -0.653,-0.002c-0.142,-0.009 -0.281,-0.037 -0.414,-0.088c-0.338,-0.13 -0.613,-0.399 -0.751,-0.734c-0.058,-0.142 -0.09,-0.291 -0.099,-0.444c-0.008,-0.215 -0.001,-0.439 -0.001,-0.649c0.004,-3.085 0.007,-6.171 0.011,-9.257c0,-0.184 -0.005,-0.376 0.003,-0.562c0.009,-0.144 0.037,-0.285 0.091,-0.42c0.138,-0.351 0.427,-0.632 0.781,-0.762c0.137,-0.05 0.279,-0.074 0.424,-0.08c0.236,-0.003 0.473,0 0.71,0Zm-0.67,1c-0.035,0 -0.07,0.003 -0.104,0.014c-0.136,0.042 -0.228,0.167 -0.234,0.308c-0.002,0.168 -0.001,0.335 -0.001,0.503c-0.004,3.086 -0.008,6.172 -0.011,9.258c0,0.077 -0.02,0.424 0.001,0.622c0.023,0.164 0.157,0.286 0.323,0.293l14.38,-0.003c0.162,-0.023 0.284,-0.156 0.291,-0.321c0.033,-3.445 0,-6.891 0,-10.336c0,-0.017 -0.001,-0.033 -0.003,-0.049c-0.022,-0.161 -0.158,-0.283 -0.32,-0.289c-4.773,-0.059 -9.548,0 -14.322,0Z" style="fill-rule:nonzero;"/><path d="M4.796,4.863c3.353,0 6.706,0 10.059,0c0.305,0 0.611,-0.022 0.915,0.001c0.023,0.003 0.045,0.008 0.067,0.014c0.134,0.045 0.225,0.157 0.242,0.296c0.01,0.128 0.002,0.28 0.002,0.389c0,2.457 0,4.915 0,7.373c0,0.204 0.014,0.409 -0.002,0.613c-0.015,0.126 -0.093,0.236 -0.212,0.286c-0.037,0.015 -0.076,0.023 -0.116,0.026c-0.177,0.004 -0.354,0 -0.532,0c-3.725,0 -7.451,0 -11.177,0c-0.173,0 -0.347,0.011 -0.52,-0.001c-0.127,-0.016 -0.237,-0.094 -0.286,-0.213c-0.016,-0.037 -0.023,-0.076 -0.026,-0.116c-0.005,-0.212 0,-0.425 0,-0.638c0.003,-2.339 0.006,-4.679 0.009,-7.019c0.001,-0.233 -0.015,-0.467 0.003,-0.7c0.005,-0.035 0.012,-0.068 0.026,-0.1c0.049,-0.117 0.159,-0.194 0.284,-0.21c0.42,-0.031 0.842,-0.001 1.264,-0.001Zm9.673,7.998l-2.994,-3.158l-1.831,1.834l-2.745,-3.377l-2.301,2.95l-0.03,0.034c-0.088,0.085 -0.193,0.142 -0.317,0.152c-0.013,0.001 -0.026,0.001 -0.039,0.001l-0.002,1.564l10.259,0Zm0.612,-0.77l0,-6.229l-10.862,0l0,0.014l-0.005,4.142l2.629,-3.371c0.027,0 0.055,0 0.082,0l2.793,3.436l1.775,-1.777l3.588,3.785Z"/></g></svg>