<?xml version="1.0" encoding="UTF-8" standalone="no"?><!DOCTYPE svg PUBLIC "-//W3C//DTD SVG 1.1//EN" "http://www.w3.org/Graphics/SVG/1.1/DTD/svg11.dtd"><svg width="100%" height="100%" viewBox="0 0 11 11" version="1.1" xmlns="http://www.w3.org/2000/svg" xmlns:xlink="http://www.w3.org/1999/xlink" xml:space="preserve" style="fill-rule:evenodd;clip-rule:evenodd;stroke-linejoin:round;stroke-miterlimit:1.41421;"><g></g><rect x="-127" y="-383" width="400" height="1430" style="fill:none;"/><g><g><path d="M5.797,6.269l-1.066,-1.066l3.603,-3.603l-1.6,-1.6l4.266,0l0,4.266l-1.6,-1.6l-3.603,3.603Z"/><clipPath id="_clip1"><path d="M-1.838,-0.635l8.368,0l0,5.529l11.307,0l0,11.153l-16.877,0l0,-1.741l-2.798,0l0,-14.941Z"/></clipPath><g clip-path="url(#_clip1)"><path d="M7.992,1l0.051,0.001l0.05,0.002l0.051,0.003l0.05,0.004l0.049,0.006l0.05,0.007l0.048,0.008l0.049,0.009l0.048,0.011l0.047,0.011l0.047,0.013l0.047,0.014l0.046,0.015l0.046,0.016l0.045,0.017l0.045,0.018l0.044,0.019l0.043,0.021l0.043,0.021l0.042,0.022l0.042,0.024l0.041,0.024l0.04,0.025l0.04,0.026l0.039,0.027l0.039,0.028l0.037,0.029l0.037,0.03l0.036,0.031l0.036,0.031l0.034,0.032l0.034,0.034l0.034,0.033l0.032,0.035l0.031,0.036l0.031,0.036l0.03,0.037l0.029,0.037l0.027,0.039l0.028,0.039l0.026,0.04l0.025,0.04l0.024,0.041l0.024,0.042l0.022,0.042l0.021,0.043l0.02,0.043l0.02,0.044l0.018,0.045l0.017,0.045l0.016,0.046l0.015,0.046l0.014,0.046l0.013,0.048l0.011,0.047l0.011,0.048l0.009,0.049l0.008,0.048l0.007,0.05l0.006,0.049l0.004,0.05l0.003,0.051l0.002,0.05l0.001,0.051l0,5.05l-0.001,0.051l-0.002,0.05l-0.003,0.051l-0.004,0.05l-0.006,0.049l-0.007,0.05l-0.008,0.048l-0.009,0.049l-0.011,0.048l-0.011,0.047l-0.013,0.048l-0.014,0.046l-0.015,0.046l-0.016,0.046l-0.017,0.045l-0.018,0.045l-0.02,0.044l-0.02,0.043l-0.021,0.043l-0.022,0.042l-0.024,0.042l-0.024,0.041l-0.025,0.04l-0.026,0.04l-0.028,0.039l-0.027,0.039l-0.029,0.037l-0.03,0.037l-0.031,0.036l-0.031,0.036l-0.032,0.035l-0.034,0.033l-0.034,0.034l-0.034,0.032l-0.036,0.031l-0.036,0.031l-0.037,0.03l-0.037,0.029l-0.039,0.028l-0.039,0.027l-0.04,0.026l-0.04,0.025l-0.041,0.024l-0.042,0.024l-0.042,0.022l-0.043,0.021l-0.043,0.021l-0.044,0.019l-0.045,0.018l-0.045,0.017l-0.046,0.016l-0.046,0.015l-0.047,0.014l-0.047,0.013l-0.047,0.011l-0.048,0.011l-0.049,0.009l-0.048,0.008l-0.05,0.007l-0.049,0.006l-0.05,0.004l-0.051,0.003l-0.05,0.002l-0.051,0.001l-5.057,0l-0.051,-0.001l-0.05,-0.002l-0.051,-0.003l-0.05,-0.004l-0.049,-0.006l-0.049,-0.007l-0.049,-0.008l-0.049,-0.009l-0.048,-0.011l-0.047,-0.011l-0.047,-0.013l-0.047,-0.014l-0.046,-0.015l-0.046,-0.016l-0.045,-0.017l-0.044,-0.018l-0.045,-0.019l-0.043,-0.021l-0.043,-0.021l-0.042,-0.022l-0.042,-0.024l-0.041,-0.024l-0.04,-0.025l-0.04,-0.026l-0.039,-0.027l-0.038,-0.028l-0.038,-0.029l-0.037,-0.03l-0.036,-0.031l-0.036,-0.031l-0.034,-0.032l-0.034,-0.034l-0.033,-0.033l-0.033,-0.035l-0.031,-0.036l-0.031,-0.036l-0.03,-0.037l-0.028,-0.037l-0.028,-0.039l-0.027,-0.039l-0.027,-0.04l-0.025,-0.04l-0.024,-0.041l-0.023,-0.042l-0.023,-0.042l-0.021,-0.043l-0.02,-0.043l-0.02,-0.044l-0.018,-0.045l-0.017,-0.045l-0.016,-0.046l-0.015,-0.046l-0.014,-0.046l-0.013,-0.048l-0.011,-0.047l-0.011,-0.048l-0.009,-0.049l-0.008,-0.048l-0.007,-0.05l-0.006,-0.049l-0.004,-0.05l-0.003,-0.051l-0.002,-0.05l-0.001,-0.051l0,-5.05l0.001,-0.051l0.002,-0.05l0.003,-0.051l0.004,-0.05l0.006,-0.049l0.007,-0.05l0.008,-0.048l0.009,-0.049l0.011,-0.048l0.011,-0.047l0.013,-0.048l0.014,-0.046l0.015,-0.046l0.016,-0.046l0.017,-0.045l0.018,-0.045l0.02,-0.044l0.02,-0.043l0.021,-0.043l0.023,-0.042l0.023,-0.042l0.024,-0.041l0.025,-0.04l0.027,-0.04l0.027,-0.039l0.028,-0.039l0.028,-0.037l0.03,-0.037l0.031,-0.036l0.031,-0.036l0.033,-0.035l0.033,-0.033l0.034,-0.034l0.034,-0.032l0.036,-0.031l0.036,-0.031l0.037,-0.03l0.038,-0.029l0.038,-0.028l0.039,-0.027l0.04,-0.026l0.04,-0.025l0.041,-0.024l0.042,-0.024l0.042,-0.022l0.043,-0.021l0.043,-0.021l0.045,-0.019l0.044,-0.018l0.045,-0.017l0.046,-0.016l0.046,-0.015l0.047,-0.014l0.047,-0.013l0.047,-0.011l0.048,-0.011l0.049,-0.009l0.049,-0.008l0.049,-0.007l0.049,-0.006l0.05,-0.004l0.051,-0.003l0.05,-0.002l0.051,-0.001l5.057,0Zm-5.051,1.004l-0.031,0l-0.025,0.001l-0.026,0.002l-0.024,0.002l-0.025,0.003l-0.024,0.003l-0.024,0.004l-0.023,0.005l-0.024,0.005l-0.023,0.005l-0.023,0.006l-0.023,0.007l-0.023,0.008l-0.022,0.007l-0.021,0.009l-0.023,0.009l-0.021,0.009l-0.021,0.01l-0.021,0.01l-0.021,0.012l-0.02,0.011l-0.021,0.012l-0.019,0.012l-0.02,0.013l-0.02,0.014l-0.019,0.014l-0.019,0.014l-0.016,0.013l-0.019,0.016l-0.018,0.016l-0.017,0.016l-0.017,0.017l-0.015,0.016l-0.017,0.017l-0.016,0.018l-0.015,0.018l-0.014,0.017l-0.014,0.019l-0.015,0.02l-0.013,0.02l-0.012,0.018l-0.013,0.021l-0.012,0.019l-0.011,0.02l-0.012,0.022l-0.01,0.021l-0.009,0.02l-0.01,0.022l-0.01,0.024l-0.008,0.021l-0.007,0.019l-0.007,0.025l-0.008,0.024l-0.005,0.021l-0.006,0.024l-0.006,0.024l-0.004,0.023l-0.004,0.023l-0.003,0.023l-0.003,0.027l-0.002,0.025l-0.002,0.025l-0.001,0.026l0,0.031l0,5.036l0,0.031l0.001,0.026l0.002,0.025l0.002,0.025l0.003,0.027l0.003,0.023l0.004,0.023l0.004,0.023l0.006,0.024l0.006,0.024l0.005,0.021l0.008,0.024l0.007,0.025l0.007,0.019l0.008,0.021l0.01,0.024l0.01,0.022l0.009,0.02l0.01,0.021l0.012,0.022l0.011,0.02l0.012,0.019l0.013,0.021l0.012,0.018l0.013,0.02l0.015,0.02l0.014,0.019l0.014,0.017l0.015,0.018l0.016,0.018l0.017,0.017l0.015,0.016l0.017,0.017l0.017,0.016l0.018,0.016l0.019,0.016l0.016,0.013l0.019,0.014l0.019,0.014l0.02,0.014l0.02,0.013l0.019,0.012l0.021,0.012l0.02,0.011l0.021,0.012l0.021,0.01l0.021,0.01l0.021,0.009l0.023,0.009l0.021,0.009l0.022,0.007l0.023,0.008l0.023,0.007l0.023,0.006l0.023,0.005l0.024,0.005l0.023,0.005l0.024,0.004l0.024,0.003l0.025,0.003l0.024,0.002l0.026,0.002l0.025,0.001l0.032,0l5.043,0l0.032,0l0.025,-0.001l0.025,-0.002l0.025,-0.002l0.025,-0.003l0.024,-0.003l0.024,-0.004l0.023,-0.005l0.024,-0.005l0.024,-0.005l0.022,-0.006l0.023,-0.007l0.022,-0.007l0.023,-0.008l0.022,-0.009l0.021,-0.008l0.021,-0.01l0.023,-0.01l0.021,-0.011l0.02,-0.011l0.02,-0.011l0.02,-0.011l0.021,-0.013l0.019,-0.013l0.02,-0.014l0.019,-0.014l0.017,-0.013l0.019,-0.015l0.018,-0.015l0.017,-0.015l0.018,-0.017l0.017,-0.017l0.015,-0.016l0.017,-0.017l0.016,-0.018l0.015,-0.018l0.015,-0.019l0.014,-0.018l0.013,-0.018l0.013,-0.019l0.013,-0.02l0.013,-0.021l0.013,-0.021l0.011,-0.02l0.01,-0.018l0.01,-0.021l0.011,-0.024l0.01,-0.022l0.008,-0.02l0.008,-0.021l0.008,-0.024l0.008,-0.022l0.006,-0.022l0.007,-0.026l0.005,-0.021l0.005,-0.022l0.005,-0.025l0.004,-0.025l0.003,-0.024l0.003,-0.024l0.002,-0.025l0.002,-0.023l0.001,-0.026l0,-0.033l0,-5.036l0,-0.033l-0.001,-0.026l-0.002,-0.023l-0.002,-0.025l-0.003,-0.024l-0.003,-0.024l-0.004,-0.025l-0.005,-0.025l-0.005,-0.022l-0.005,-0.021l-0.007,-0.026l-0.006,-0.022l-0.008,-0.022l-0.008,-0.024l-0.008,-0.021l-0.008,-0.02l-0.01,-0.022l-0.011,-0.024l-0.01,-0.021l-0.01,-0.018l-0.011,-0.02l-0.013,-0.021l-0.013,-0.021l-0.013,-0.02l-0.013,-0.019l-0.013,-0.018l-0.014,-0.018l-0.015,-0.019l-0.015,-0.018l-0.016,-0.018l-0.017,-0.017l-0.015,-0.016l-0.017,-0.017l-0.018,-0.017l-0.017,-0.015l-0.018,-0.015l-0.019,-0.015l-0.017,-0.013l-0.019,-0.014l-0.02,-0.014l-0.019,-0.013l-0.021,-0.013l-0.02,-0.011l-0.02,-0.011l-0.02,-0.011l-0.021,-0.011l-0.023,-0.01l-0.021,-0.01l-0.021,-0.008l-0.022,-0.009l-0.023,-0.008l-0.022,-0.007l-0.023,-0.007l-0.022,-0.006l-0.024,-0.005l-0.024,-0.005l-0.023,-0.005l-0.024,-0.004l-0.024,-0.003l-0.025,-0.003l-0.025,-0.002l-0.025,-0.002l-0.025,-0.001l-0.031,0l-5.045,0Z"/></g></g></g></svg>