<?xml version="1.0" encoding="UTF-8" standalone="no"?><!DOCTYPE svg PUBLIC "-//W3C//DTD SVG 1.1//EN" "http://www.w3.org/Graphics/SVG/1.1/DTD/svg11.dtd"><svg width="100%" height="100%" viewBox="0 0 25 25" version="1.1" xmlns="http://www.w3.org/2000/svg" xmlns:xlink="http://www.w3.org/1999/xlink" xml:space="preserve" style="fill-rule:evenodd;clip-rule:evenodd;stroke-linejoin:round;stroke-miterlimit:1.41421;"><g></g><rect x="-196" y="-281" width="400" height="1430" style="fill:none;"/><path d="M12.113,18.081l-0.906,0l0,-5.099l-6.301,0l0,5.099l-0.906,0l0,-11.081l0.906,0l0,5.206l6.301,0l0,-5.206l0.906,0l0,11.081Z" style="fill-rule:nonzero;"/><g transform="matrix(0.214476,6.93889e-18,-6.93889e-18,0.214476,-12.746,-44.8813)"><path d="M157.342,293.186l-32.079,0l0,-3.264l16.927,-19.198c3.122,-3.525 5.328,-6.476 6.618,-8.854c1.289,-2.377 1.934,-4.654 1.934,-6.83c0,-3.218 -0.905,-5.796 -2.715,-7.736c-1.81,-1.94 -4.371,-2.91 -7.683,-2.91c-3.927,0 -6.907,1.088 -8.942,3.265c-2.034,2.176 -3.052,5.086 -3.052,8.729l-3.938,0l-0.071,-0.213c-0.119,-4.306 1.277,-7.949 4.187,-10.929c2.91,-2.981 6.849,-4.472 11.816,-4.472c4.448,0 8.008,1.278 10.682,3.833c2.673,2.555 4.009,5.985 4.009,10.291c0,2.838 -0.893,5.719 -2.679,8.64c-1.786,2.922 -4.276,6.181 -7.469,9.776l-14.23,16.111l0.071,0.177l26.614,0l0,3.584Z" style="fill:none;"/><path d="M157.342,293.186l-32.079,0l0,-3.264l16.927,-19.198c3.122,-3.525 5.328,-6.476 6.618,-8.854c1.289,-2.377 1.934,-4.654 1.934,-6.83c0,-3.218 -0.905,-5.796 -2.715,-7.736c-1.81,-1.94 -4.371,-2.91 -7.683,-2.91c-3.927,0 -6.907,1.088 -8.942,3.265c-2.034,2.176 -3.052,5.086 -3.052,8.729l-3.938,0l-0.071,-0.213c-0.119,-4.306 1.277,-7.949 4.187,-10.929c2.91,-2.981 6.849,-4.472 11.816,-4.472c4.448,0 8.008,1.278 10.682,3.833c2.673,2.555 4.009,5.985 4.009,10.291c0,2.838 -0.893,5.719 -2.679,8.64c-1.786,2.922 -4.276,6.181 -7.469,9.776l-14.23,16.111l0.071,0.177l26.614,0l0,3.584Z" style="fill-rule:nonzero;"/></g></svg>