<?xml version="1.0" encoding="UTF-8" standalone="no"?><!DOCTYPE svg PUBLIC "-//W3C//DTD SVG 1.1//EN" "http://www.w3.org/Graphics/SVG/1.1/DTD/svg11.dtd"><svg width="100%" height="100%" viewBox="0 0 17 17" version="1.1" xmlns="http://www.w3.org/2000/svg" xmlns:xlink="http://www.w3.org/1999/xlink" xml:space="preserve" style="fill-rule:evenodd;clip-rule:evenodd;stroke-linejoin:round;stroke-miterlimit:1.41421;"><g></g><rect x="-58" y="-156" width="400" height="1430" style="fill:none;"/><g><path d="M7.789,8.523c-1.156,-1.184 -2.305,-2.377 -3.475,-3.547c-0.05,-0.055 -0.088,-0.114 -0.108,-0.185c-0.051,-0.178 0.023,-0.373 0.178,-0.473c0.063,-0.04 0.131,-0.059 0.204,-0.067c0.036,-0.001 0.035,-0.001 0.072,0.001c0.087,0.013 0.159,0.044 0.229,0.098c1.23,1.13 2.416,2.307 3.588,3.499c1.185,-1.156 2.377,-2.304 3.548,-3.475c0.023,-0.021 0.028,-0.027 0.055,-0.046c0.06,-0.043 0.127,-0.065 0.2,-0.076c0.036,-0.002 0.036,-0.002 0.072,-0.001c0.061,0.006 0.118,0.02 0.172,0.049c0.163,0.086 0.253,0.274 0.218,0.456c-0.014,0.073 -0.047,0.135 -0.092,0.193c-1.13,1.231 -2.307,2.416 -3.499,3.588c1.156,1.185 2.304,2.378 3.475,3.548c0.074,0.081 0.122,0.179 0.124,0.291c0.001,0.049 -0.006,0.097 -0.021,0.142c-0.066,0.201 -0.277,0.325 -0.485,0.285c-0.072,-0.014 -0.135,-0.048 -0.193,-0.093c-1.231,-1.13 -2.416,-2.307 -3.588,-3.499c-1.185,1.157 -2.378,2.305 -3.548,3.475c-0.081,0.075 -0.179,0.122 -0.291,0.124c-0.211,0.005 -0.398,-0.153 -0.43,-0.362c-0.007,-0.047 -0.006,-0.096 0.003,-0.143c0.014,-0.073 0.048,-0.135 0.093,-0.194c1.13,-1.23 2.307,-2.416 3.499,-3.588Z"/></g></svg>