<?xml version="1.0" encoding="UTF-8" standalone="no"?><!DOCTYPE svg PUBLIC "-//W3C//DTD SVG 1.1//EN" "http://www.w3.org/Graphics/SVG/1.1/DTD/svg11.dtd"><svg width="100%" height="100%" viewBox="0 0 207 173" version="1.1" xmlns="http://www.w3.org/2000/svg" xmlns:xlink="http://www.w3.org/1999/xlink" xml:space="preserve" style="fill-rule:evenodd;clip-rule:evenodd;stroke-linejoin:round;stroke-miterlimit:1.5;"><g></g><g><g><path d="M97.211,121.064l7.258,18.707" style="fill:none;stroke:#000;stroke-width:1px;"/><path d="M101.822,121.296l6.896,17.937" style="fill:none;stroke:#000;stroke-width:1px;"/><path d="M106.798,137.925l0.085,0.003l0.084,0.005l0.083,0.008l0.083,0.009l0.083,0.012l0.081,0.013l0.081,0.016l0.08,0.017l0.08,0.02l0.078,0.021l0.078,0.023l0.077,0.025l0.076,0.027l0.076,0.029l0.074,0.03l0.074,0.032l0.072,0.034l0.072,0.036l0.071,0.037l0.069,0.039l0.069,0.041l0.067,0.042l0.067,0.044l0.065,0.045l0.064,0.047l0.063,0.048l0.062,0.05l0.06,0.051l0.059,0.052l0.058,0.054l0.057,0.056l0.055,0.056l0.054,0.058l0.053,0.059l0.051,0.061l0.05,0.062l0.048,0.063l0.047,0.064l0.045,0.065l0.044,0.066l0.042,0.068l0.041,0.069l0.039,0.069l0.037,0.071l0.035,0.071l0.034,0.073l0.033,0.074l0.03,0.074l0.029,0.075l0.027,0.077l0.025,0.077l0.023,0.078l0.021,0.078l0.019,0.08l0.018,0.08l0.015,0.081l0.014,0.081l0.012,0.082l0.009,0.083l0.007,0.084l0.006,0.084l0.003,0.084l0.001,0.085l-0.001,0.086l-0.003,0.084l-0.006,0.084l-0.007,0.084l-0.009,0.082l-0.012,0.083l-0.014,0.081l-0.015,0.081l-0.018,0.08l-0.019,0.08l-0.021,0.078l-0.023,0.078l-0.025,0.077l-0.027,0.077l-0.029,0.075l-0.03,0.074l-0.033,0.074l-0.034,0.072l-0.035,0.072l-0.037,0.071l-0.039,0.069l-0.041,0.069l-0.042,0.067l-0.044,0.067l-0.045,0.065l-0.047,0.064l-0.048,0.063l-0.05,0.062l-0.051,0.06l-0.053,0.06l-0.054,0.058l-0.055,0.056l-0.057,0.056l-0.058,0.054l-0.059,0.052l-0.06,0.051l-0.062,0.05l-0.063,0.048l-0.064,0.047l-0.065,0.045l-0.067,0.044l-0.067,0.042l-0.069,0.041l-0.069,0.039l-0.071,0.037l-0.072,0.036l-0.072,0.034l-0.074,0.032l-0.074,0.03l-0.076,0.029l-0.076,0.027l-0.077,0.025l-0.078,0.023l-0.078,0.021l-0.08,0.02l-0.08,0.017l-0.081,0.016l-0.081,0.013l-0.083,0.012l-0.083,0.009l-0.083,0.008l-0.084,0.005l-0.085,0.003l-0.085,0.001l-0.085,-0.001l-0.084,-0.003l-0.084,-0.005l-0.084,-0.008l-0.083,-0.009l-0.082,-0.012l-0.081,-0.013l-0.081,-0.016l-0.081,-0.017l-0.079,-0.02l-0.079,-0.021l-0.077,-0.023l-0.078,-0.025l-0.076,-0.027l-0.075,-0.029l-0.075,-0.03l-0.073,-0.032l-0.073,-0.034l-0.071,-0.036l-0.071,-0.037l-0.07,-0.039l-0.068,-0.041l-0.068,-0.042l-0.066,-0.044l-0.065,-0.045l-0.064,-0.047l-0.063,-0.048l-0.062,-0.05l-0.061,-0.051l-0.059,-0.052l-0.058,-0.054l-0.057,-0.056l-0.055,-0.056l-0.054,-0.058l-0.052,-0.06l-0.052,-0.06l-0.049,-0.062l-0.049,-0.063l-0.046,-0.064l-0.046,-0.065l-0.043,-0.067l-0.042,-0.067l-0.041,-0.069l-0.039,-0.069l-0.037,-0.071l-0.036,-0.072l-0.034,-0.072l-0.032,-0.074l-0.03,-0.074l-0.029,-0.075l-0.027,-0.077l-0.025,-0.077l-0.023,-0.078l-0.021,-0.078l-0.02,-0.08l-0.017,-0.08l-0.016,-0.081l-0.013,-0.081l-0.012,-0.083l-0.009,-0.082l-0.008,-0.084l-0.005,-0.084l-0.003,-0.084l-0.001,-0.086l0.001,-0.085l0.003,-0.084l0.005,-0.084l0.008,-0.084l0.009,-0.083l0.012,-0.082l0.013,-0.081l0.016,-0.081l0.017,-0.08l0.02,-0.08l0.021,-0.078l0.023,-0.078l0.025,-0.077l0.027,-0.077l0.029,-0.075l0.03,-0.074l0.032,-0.074l0.034,-0.073l0.036,-0.071l0.037,-0.071l0.039,-0.069l0.041,-0.069l0.042,-0.068l0.043,-0.066l0.046,-0.065l0.046,-0.064l0.049,-0.063l0.049,-0.062l0.052,-0.061l0.052,-0.059l0.054,-0.058l0.055,-0.056l0.057,-0.056l0.058,-0.054l0.059,-0.052l0.061,-0.051l0.062,-0.05l0.063,-0.048l0.064,-0.047l0.065,-0.045l0.066,-0.044l0.068,-0.042l0.068,-0.041l0.07,-0.039l0.071,-0.037l0.071,-0.036l0.073,-0.034l0.073,-0.032l0.075,-0.03l0.075,-0.029l0.076,-0.027l0.078,-0.025l0.077,-0.023l0.079,-0.021l0.079,-0.02l0.081,-0.017l0.081,-0.016l0.081,-0.013l0.082,-0.012l0.083,-0.009l0.084,-0.008l0.084,-0.005l0.084,-0.003l0.085,-0.001l0.085,0.001Zm-0.144,1l-0.059,0.002l-0.059,0.004l-0.059,0.005l-0.058,0.006l-0.057,0.008l-0.057,0.01l-0.056,0.01l-0.055,0.013l-0.056,0.013l-0.054,0.015l-0.054,0.016l-0.054,0.017l-0.053,0.019l-0.052,0.02l-0.052,0.021l-0.051,0.023l-0.05,0.023l-0.05,0.025l-0.049,0.026l-0.049,0.027l-0.048,0.028l-0.047,0.03l-0.046,0.03l-0.045,0.032l-0.046,0.033l-0.044,0.033l-0.042,0.035l-0.043,0.036l-0.041,0.036l-0.041,0.038l-0.04,0.04l-0.038,0.038l-0.037,0.04l-0.038,0.043l-0.036,0.042l-0.033,0.042l-0.035,0.045l-0.032,0.045l-0.032,0.046l-0.031,0.046l-0.029,0.047l-0.028,0.047l-0.027,0.048l-0.026,0.048l-0.024,0.051l-0.025,0.052l-0.022,0.051l-0.021,0.051l-0.02,0.052l-0.018,0.053l-0.019,0.055l-0.015,0.053l-0.015,0.054l-0.014,0.056l-0.012,0.056l-0.01,0.056l-0.01,0.057l-0.008,0.057l-0.007,0.057l-0.005,0.057l-0.003,0.061l-0.003,0.059l0,0.059l0,0.06l0.003,0.059l0.003,0.06l0.005,0.058l0.007,0.057l0.008,0.057l0.01,0.057l0.01,0.056l0.012,0.056l0.014,0.056l0.015,0.054l0.016,0.053l0.018,0.055l0.018,0.053l0.02,0.052l0.021,0.051l0.022,0.05l0.025,0.053l0.024,0.051l0.026,0.047l0.027,0.049l0.028,0.047l0.029,0.046l0.031,0.047l0.032,0.046l0.032,0.045l0.035,0.046l0.033,0.041l0.036,0.042l0.038,0.043l0.037,0.04l0.038,0.038l0.041,0.04l0.04,0.038l0.041,0.036l0.043,0.036l0.042,0.035l0.044,0.033l0.046,0.033l0.045,0.032l0.046,0.03l0.047,0.03l0.048,0.028l0.049,0.027l0.049,0.026l0.05,0.025l0.05,0.023l0.051,0.023l0.052,0.021l0.052,0.02l0.054,0.019l0.053,0.017l0.053,0.016l0.055,0.015l0.056,0.013l0.055,0.012l0.056,0.011l0.057,0.01l0.057,0.008l0.058,0.006l0.059,0.005l0.059,0.004l0.059,0.002l0.059,0.001l0.06,-0.001l0.059,-0.002l0.059,-0.004l0.058,-0.005l0.058,-0.006l0.058,-0.008l0.056,-0.01l0.056,-0.011l0.056,-0.012l0.055,-0.013l0.055,-0.015l0.054,-0.016l0.053,-0.018l0.053,-0.018l0.053,-0.02l0.052,-0.021l0.051,-0.023l0.05,-0.023l0.05,-0.025l0.049,-0.026l0.049,-0.027l0.047,-0.028l0.047,-0.029l0.046,-0.031l0.046,-0.032l0.045,-0.033l0.044,-0.033l0.044,-0.035l0.042,-0.036l0.04,-0.036l0.041,-0.038l0.04,-0.039l0.039,-0.04l0.038,-0.04l0.036,-0.041l0.036,-0.043l0.035,-0.043l0.033,-0.044l0.033,-0.045l0.031,-0.044l0.031,-0.047l0.03,-0.048l0.028,-0.047l0.027,-0.049l0.026,-0.049l0.025,-0.05l0.023,-0.05l0.023,-0.052l0.021,-0.053l0.02,-0.05l0.018,-0.053l0.018,-0.054l0.016,-0.054l0.015,-0.056l0.013,-0.052l0.012,-0.056l0.011,-0.058l0.009,-0.057l0.008,-0.057l0.007,-0.059l0.005,-0.057l0.004,-0.059l0.002,-0.059l0.001,-0.06l-0.001,-0.059l-0.002,-0.059l-0.004,-0.059l-0.005,-0.057l-0.007,-0.059l-0.008,-0.057l-0.009,-0.057l-0.011,-0.058l-0.012,-0.056l-0.013,-0.052l-0.015,-0.056l-0.016,-0.054l-0.018,-0.054l-0.018,-0.053l-0.02,-0.05l-0.021,-0.053l-0.023,-0.052l-0.023,-0.05l-0.025,-0.05l-0.026,-0.05l-0.027,-0.048l-0.028,-0.047l-0.03,-0.048l-0.031,-0.047l-0.031,-0.044l-0.033,-0.045l-0.033,-0.044l-0.035,-0.043l-0.036,-0.043l-0.036,-0.041l-0.038,-0.04l-0.039,-0.041l-0.04,-0.038l-0.041,-0.038l-0.04,-0.036l-0.042,-0.036l-0.044,-0.035l-0.044,-0.034l-0.045,-0.032l-0.046,-0.032l-0.046,-0.031l-0.047,-0.029l-0.047,-0.028l-0.049,-0.027l-0.049,-0.026l-0.05,-0.025l-0.05,-0.023l-0.051,-0.023l-0.053,-0.021l-0.052,-0.02l-0.052,-0.018l-0.054,-0.018l-0.055,-0.016l-0.054,-0.015l-0.055,-0.013l-0.056,-0.013l-0.056,-0.01l-0.056,-0.01l-0.058,-0.008l-0.058,-0.006l-0.058,-0.005l-0.059,-0.004l-0.059,-0.002l-0.06,-0.001l-0.059,0.001Z"/><path d="M100.247,161.832l-2.734,7.712l3.316,1.227l2.699,-7.574" style="fill:none;stroke:#000;stroke-width:1px;"/><path d="M109.094,142.337l-4.032,17.412" style="fill:none;stroke:#000;stroke-width:1px;"/><path d="M104.401,142.227l-3.478,16.119" style="fill:none;stroke:#000;stroke-width:1px;"/><path d="M102.57,157.239l0.085,0.003l0.084,0.005l0.083,0.008l0.083,0.009l0.082,0.012l0.082,0.013l0.081,0.016l0.08,0.017l0.079,0.02l0.079,0.021l0.078,0.023l0.077,0.025l0.076,0.027l0.075,0.029l0.075,0.03l0.073,0.032l0.073,0.034l0.072,0.036l0.07,0.037l0.07,0.039l0.068,0.041l0.068,0.042l0.066,0.044l0.066,0.045l0.064,0.047l0.063,0.048l0.061,0.05l0.061,0.051l0.059,0.052l0.058,0.054l0.057,0.056l0.055,0.056l0.054,0.058l0.053,0.06l0.051,0.06l0.049,0.062l0.049,0.063l0.047,0.064l0.045,0.065l0.043,0.066l0.043,0.068l0.04,0.069l0.039,0.069l0.037,0.071l0.036,0.071l0.034,0.073l0.032,0.074l0.031,0.074l0.028,0.075l0.027,0.077l0.025,0.077l0.023,0.078l0.022,0.078l0.019,0.08l0.018,0.08l0.015,0.081l0.014,0.081l0.011,0.082l0.01,0.083l0.007,0.084l0.005,0.084l0.004,0.084l0.001,0.085l-0.001,0.086l-0.004,0.084l-0.005,0.084l-0.007,0.084l-0.01,0.082l-0.011,0.083l-0.014,0.081l-0.015,0.081l-0.018,0.08l-0.019,0.08l-0.022,0.078l-0.023,0.078l-0.025,0.077l-0.027,0.077l-0.028,0.075l-0.031,0.074l-0.032,0.074l-0.034,0.073l-0.036,0.071l-0.037,0.071l-0.039,0.069l-0.04,0.069l-0.043,0.067l-0.043,0.067l-0.045,0.065l-0.047,0.064l-0.049,0.063l-0.049,0.062l-0.051,0.06l-0.053,0.06l-0.054,0.058l-0.055,0.056l-0.057,0.056l-0.058,0.054l-0.059,0.052l-0.061,0.051l-0.061,0.05l-0.063,0.048l-0.064,0.047l-0.066,0.045l-0.066,0.044l-0.068,0.042l-0.068,0.041l-0.07,0.039l-0.07,0.037l-0.072,0.036l-0.073,0.034l-0.073,0.032l-0.075,0.03l-0.075,0.029l-0.076,0.027l-0.077,0.025l-0.078,0.023l-0.079,0.021l-0.079,0.02l-0.08,0.017l-0.081,0.016l-0.082,0.013l-0.082,0.012l-0.083,0.009l-0.083,0.008l-0.084,0.005l-0.085,0.003l-0.085,0.001l-0.085,-0.001l-0.085,-0.003l-0.084,-0.005l-0.083,-0.008l-0.083,-0.009l-0.082,-0.012l-0.082,-0.013l-0.081,-0.016l-0.08,-0.017l-0.079,-0.02l-0.079,-0.021l-0.078,-0.023l-0.077,-0.025l-0.076,-0.027l-0.076,-0.029l-0.074,-0.03l-0.074,-0.032l-0.072,-0.034l-0.072,-0.036l-0.07,-0.037l-0.07,-0.039l-0.069,-0.041l-0.067,-0.042l-0.067,-0.044l-0.065,-0.045l-0.064,-0.047l-0.063,-0.048l-0.062,-0.05l-0.06,-0.051l-0.059,-0.052l-0.058,-0.054l-0.057,-0.056l-0.055,-0.056l-0.054,-0.058l-0.053,-0.06l-0.051,-0.06l-0.05,-0.062l-0.048,-0.063l-0.047,-0.064l-0.045,-0.065l-0.044,-0.067l-0.042,-0.067l-0.04,-0.069l-0.039,-0.069l-0.038,-0.071l-0.035,-0.071l-0.034,-0.073l-0.032,-0.074l-0.031,-0.074l-0.029,-0.075l-0.026,-0.077l-0.025,-0.077l-0.024,-0.078l-0.021,-0.078l-0.019,-0.08l-0.018,-0.08l-0.015,-0.081l-0.014,-0.081l-0.011,-0.083l-0.01,-0.082l-0.007,-0.084l-0.006,-0.084l-0.003,-0.084l-0.001,-0.086l0.001,-0.085l0.003,-0.084l0.006,-0.084l0.007,-0.084l0.01,-0.083l0.011,-0.082l0.014,-0.081l0.015,-0.081l0.018,-0.08l0.019,-0.08l0.021,-0.078l0.024,-0.078l0.025,-0.077l0.026,-0.077l0.029,-0.075l0.031,-0.074l0.032,-0.074l0.034,-0.073l0.035,-0.071l0.038,-0.071l0.039,-0.069l0.04,-0.069l0.042,-0.068l0.044,-0.066l0.045,-0.065l0.047,-0.064l0.048,-0.063l0.05,-0.062l0.051,-0.06l0.053,-0.06l0.054,-0.058l0.055,-0.056l0.057,-0.056l0.058,-0.054l0.059,-0.052l0.06,-0.051l0.062,-0.05l0.063,-0.048l0.064,-0.047l0.065,-0.045l0.067,-0.044l0.067,-0.042l0.069,-0.041l0.07,-0.039l0.07,-0.037l0.072,-0.036l0.072,-0.034l0.074,-0.032l0.074,-0.03l0.076,-0.029l0.076,-0.027l0.077,-0.025l0.078,-0.023l0.079,-0.021l0.079,-0.02l0.08,-0.017l0.081,-0.016l0.082,-0.013l0.082,-0.012l0.083,-0.009l0.083,-0.008l0.084,-0.005l0.085,-0.003l0.085,-0.001l0.085,0.001Zm-0.145,1l-0.059,0.002l-0.058,0.004l-0.059,0.005l-0.058,0.006l-0.058,0.008l-0.056,0.01l-0.056,0.01l-0.056,0.013l-0.055,0.013l-0.055,0.015l-0.053,0.016l-0.053,0.017l-0.055,0.019l-0.052,0.02l-0.05,0.021l-0.052,0.023l-0.051,0.023l-0.049,0.025l-0.05,0.026l-0.049,0.027l-0.048,0.029l-0.046,0.029l-0.046,0.03l-0.046,0.032l-0.045,0.032l-0.044,0.034l-0.043,0.035l-0.042,0.036l-0.042,0.037l-0.04,0.037l-0.039,0.039l-0.039,0.039l-0.038,0.041l-0.038,0.042l-0.035,0.042l-0.034,0.043l-0.034,0.044l-0.033,0.045l-0.031,0.044l-0.031,0.047l-0.03,0.048l-0.028,0.047l-0.027,0.049l-0.026,0.049l-0.025,0.05l-0.023,0.05l-0.022,0.05l-0.021,0.053l-0.021,0.054l-0.019,0.052l-0.017,0.053l-0.015,0.053l-0.015,0.055l-0.014,0.056l-0.012,0.056l-0.011,0.056l-0.009,0.057l-0.008,0.057l-0.007,0.057l-0.005,0.059l-0.004,0.059l-0.002,0.059l-0.001,0.059l0.001,0.06l0.002,0.059l0.004,0.059l0.005,0.059l0.007,0.057l0.008,0.057l0.009,0.057l0.011,0.056l0.012,0.056l0.014,0.056l0.015,0.055l0.015,0.053l0.017,0.052l0.019,0.053l0.021,0.054l0.021,0.053l0.022,0.05l0.023,0.05l0.025,0.05l0.026,0.049l0.027,0.049l0.028,0.047l0.03,0.048l0.031,0.047l0.031,0.044l0.033,0.045l0.033,0.044l0.035,0.043l0.035,0.042l0.038,0.042l0.038,0.041l0.039,0.039l0.039,0.039l0.04,0.037l0.042,0.037l0.042,0.036l0.043,0.035l0.044,0.034l0.045,0.032l0.046,0.032l0.046,0.03l0.046,0.029l0.048,0.029l0.049,0.027l0.05,0.026l0.049,0.025l0.05,0.023l0.052,0.023l0.052,0.021l0.052,0.02l0.053,0.019l0.053,0.017l0.054,0.016l0.055,0.015l0.055,0.013l0.056,0.012l0.056,0.011l0.056,0.01l0.058,0.008l0.058,0.006l0.059,0.005l0.058,0.004l0.059,0.002l0.06,0.001l0.06,-0.001l0.059,-0.002l0.058,-0.004l0.059,-0.005l0.058,-0.006l0.058,-0.008l0.056,-0.01l0.056,-0.011l0.055,-0.012l0.055,-0.013l0.055,-0.015l0.054,-0.016l0.054,-0.017l0.053,-0.019l0.052,-0.02l0.052,-0.021l0.051,-0.023l0.05,-0.023l0.05,-0.025l0.049,-0.026l0.049,-0.027l0.049,-0.029l0.046,-0.029l0.046,-0.03l0.046,-0.032l0.045,-0.032l0.044,-0.034l0.042,-0.035l0.043,-0.036l0.041,-0.036l0.041,-0.038l0.04,-0.04l0.038,-0.038l0.038,-0.041l0.037,-0.042l0.035,-0.041l0.035,-0.044l0.034,-0.044l0.033,-0.045l0.032,-0.046l0.029,-0.045l0.03,-0.048l0.028,-0.047l0.027,-0.049l0.026,-0.049l0.026,-0.05l0.023,-0.05l0.022,-0.05l0.021,-0.053l0.021,-0.054l0.018,-0.053l0.017,-0.052l0.016,-0.053l0.015,-0.055l0.014,-0.056l0.012,-0.056l0.011,-0.056l0.009,-0.057l0.008,-0.057l0.007,-0.057l0.005,-0.057l0.003,-0.061l0.003,-0.059l0,-0.06l0,-0.059l-0.003,-0.059l-0.003,-0.061l-0.005,-0.057l-0.007,-0.057l-0.008,-0.057l-0.009,-0.057l-0.011,-0.056l-0.012,-0.056l-0.014,-0.056l-0.015,-0.055l-0.016,-0.053l-0.017,-0.053l-0.018,-0.052l-0.021,-0.054l-0.021,-0.053l-0.022,-0.05l-0.024,-0.05l-0.025,-0.05l-0.025,-0.049l-0.028,-0.049l-0.028,-0.047l-0.03,-0.048l-0.029,-0.045l-0.032,-0.046l-0.033,-0.045l-0.034,-0.044l-0.035,-0.044l-0.034,-0.041l-0.038,-0.042l-0.038,-0.041l-0.038,-0.038l-0.041,-0.04l-0.04,-0.038l-0.041,-0.036l-0.043,-0.036l-0.042,-0.035l-0.044,-0.034l-0.045,-0.032l-0.046,-0.032l-0.046,-0.03l-0.046,-0.029l-0.049,-0.029l-0.049,-0.027l-0.049,-0.026l-0.05,-0.025l-0.05,-0.023l-0.052,-0.023l-0.05,-0.021l-0.053,-0.02l-0.054,-0.019l-0.053,-0.017l-0.053,-0.016l-0.055,-0.015l-0.056,-0.013l-0.055,-0.013l-0.056,-0.01l-0.056,-0.01l-0.058,-0.008l-0.058,-0.006l-0.059,-0.005l-0.058,-0.004l-0.059,-0.002l-0.06,-0.001l-0.06,0.001Z"/></g><path d="M74.597,104.468l0.08,0.001l0.079,0.003l0.079,0.004l0.08,0.004l0.079,0.006l0.079,0.007l44.536,3.978l0.08,0.007l0.079,0.009l0.079,0.01l0.079,0.01l0.078,0.012l0.078,0.012l0.078,0.013l0.078,0.015l0.078,0.015l0.077,0.016l0.077,0.017l0.077,0.018l0.076,0.019l0.076,0.02l0.076,0.021l0.076,0.022l0.075,0.022l0.075,0.024l0.075,0.024l0.074,0.026l0.074,0.026l0.073,0.027l0.074,0.028l0.072,0.029l0.073,0.03l0.072,0.031l0.071,0.031l0.072,0.033l0.071,0.033l0.07,0.034l0.07,0.035l0.07,0.036l0.069,0.036l0.068,0.038l0.069,0.038l0.067,0.04l0.068,0.04l0.066,0.04l0.067,0.042l0.065,0.043l0.066,0.043l0.065,0.044l0.064,0.045l0.064,0.046l0.063,0.046l0.062,0.047l0.062,0.048l0.062,0.049l0.061,0.05l0.06,0.05l0.06,0.052l0.059,0.051l0.059,0.053l0.058,0.054l0.057,0.054l0.057,0.055l0.056,0.056l0.056,0.056l0.055,0.057l0.054,0.058l0.053,0.059l0.053,0.059l0.053,0.06l0.051,0.061l0.051,0.062l0.05,0.062l0.049,0.062l0.048,0.063l0.047,0.064l0.047,0.064l0.046,0.065l0.045,0.065l0.044,0.066l0.043,0.066l0.042,0.066l0.042,0.067l0.04,0.068l0.04,0.068l0.039,0.068l0.038,0.069l0.037,0.069l0.037,0.07l0.035,0.07l0.035,0.07l0.033,0.071l0.033,0.071l0.032,0.072l0.031,0.072l0.03,0.072l0.029,0.073l0.029,0.073l0.027,0.073l0.027,0.074l0.026,0.074l0.024,0.074l0.024,0.074l0.023,0.075l0.022,0.075l0.021,0.076l0.02,0.075l0.02,0.076l0.018,0.076l0.017,0.076l0.017,0.077l0.015,0.077l0.015,0.077l0.014,0.077l0.013,0.077l0.011,0.078l0.011,0.078l0.01,0.078l0.009,0.078l0.008,0.078l0.007,0.078l0.006,0.079l0.005,0.078l0.005,0.079l0.003,0.079l0.002,0.079l0.001,0.079l0.001,0.079l-0.001,0.079l-0.002,0.079l-0.002,0.08l-0.004,0.079l-0.005,0.079l-0.005,0.08l-0.007,0.08l-0.007,0.07l-0.007,0.07l-0.009,0.07l-0.009,0.07l-0.01,0.069l-0.011,0.07l-0.012,0.069l-0.013,0.068l-0.013,0.069l-0.014,0.068l-0.015,0.068l-0.016,0.068l-0.017,0.068l-0.018,0.067l-0.018,0.067l-0.019,0.067l-0.021,0.067l-0.02,0.066l-0.022,0.066l-0.022,0.066l-0.024,0.065l-0.024,0.065l-0.024,0.065l-0.026,0.064l-0.026,0.064l-0.028,0.064l-0.027,0.063l-0.029,0.063l-0.03,0.063l-0.03,0.062l-0.031,0.062l-0.031,0.062l-0.033,0.061l-0.033,0.06l-0.034,0.061l-0.035,0.06l-0.035,0.059l-0.036,0.059l-0.037,0.059l-0.037,0.058l-0.039,0.058l-0.039,0.057l-0.039,0.057l-0.041,0.056l-0.041,0.056l-0.042,0.056l-0.042,0.055l-0.044,0.054l-0.043,0.054l-0.045,0.053l-0.045,0.053l-0.046,0.053l-0.047,0.051l-0.047,0.052l-0.048,0.05l-0.049,0.051l-0.049,0.049l-0.05,0.049l-0.051,0.049l-0.051,0.048l-0.052,0.047l-0.052,0.047l-0.053,0.046l-0.054,0.046l-0.055,0.045l-0.054,0.044l-0.056,0.043l-0.056,0.043l-0.056,0.042l-0.057,0.041l-0.057,0.04l-0.057,0.04l-0.058,0.039l-0.059,0.038l-0.059,0.038l-0.059,0.036l-0.06,0.036l-0.06,0.035l-0.06,0.035l-0.061,0.034l-0.061,0.032l-0.062,0.033l-0.062,0.031l-0.062,0.03l-0.063,0.03l-0.063,0.029l-0.063,0.028l-0.064,0.028l-0.064,0.027l-0.064,0.025l-0.064,0.026l-0.065,0.024l-0.065,0.023l-0.066,0.023l-0.065,0.022l-0.066,0.021l-0.066,0.02l-0.067,0.02l-0.066,0.018l-0.067,0.018l-0.067,0.017l-0.068,0.017l-0.067,0.015l-0.068,0.015l-0.068,0.013l-0.068,0.013l-0.068,0.012l-0.069,0.012l-0.068,0.01l-0.069,0.01l-0.069,0.008l-0.069,0.008l-0.069,0.007l-0.069,0.007l-0.07,0.005l-0.069,0.005l-0.07,0.003l-0.07,0.003l-0.069,0.002l-0.07,0.001l-0.07,0l-0.07,0l-0.07,-0.002l-0.07,-0.002l-0.071,-0.003l-0.07,-0.004l-0.07,-0.005l-0.07,-0.006l-46.014,-4.11l-0.071,-0.007l-0.07,-0.008l-0.069,-0.008l-0.07,-0.009l-0.07,-0.011l-0.069,-0.011l-0.069,-0.011l-0.069,-0.013l-0.068,-0.014l-0.069,-0.014l-0.068,-0.015l-0.068,-0.016l-0.067,-0.017l-0.067,-0.017l-0.068,-0.019l-0.066,-0.019l-0.067,-0.02l-0.066,-0.021l-0.066,-0.022l-0.066,-0.022l-0.065,-0.023l-0.065,-0.024l-0.065,-0.025l-0.064,-0.026l-0.064,-0.026l-0.064,-0.027l-0.063,-0.028l-0.063,-0.029l-0.063,-0.029l-0.062,-0.03l-0.062,-0.031l-0.062,-0.032l-0.061,-0.032l-0.061,-0.033l-0.06,-0.034l-0.06,-0.035l-0.059,-0.035l-0.059,-0.037l-0.059,-0.036l-0.058,-0.038l-0.058,-0.038l-0.057,-0.039l-0.057,-0.04l-0.056,-0.04l-0.056,-0.042l-0.056,-0.041l-0.055,-0.043l-0.054,-0.043l-0.054,-0.044l-0.053,-0.045l-0.053,-0.045l-0.053,-0.046l-0.052,-0.046l-0.051,-0.048l-0.051,-0.048l-0.05,-0.048l-0.049,-0.05l-0.05,-0.05l-0.048,-0.05l-0.048,-0.051l-0.047,-0.052l-0.047,-0.053l-0.046,-0.053l-0.046,-0.054l-0.045,-0.054l-0.044,-0.055l-0.043,-0.055l-0.043,-0.056l-0.042,-0.056l-0.041,-0.057l-0.041,-0.057l-0.039,-0.058l-0.039,-0.058l-0.038,-0.058l-0.038,-0.059l-0.037,-0.059l-0.035,-0.06l-0.036,-0.06l-0.034,-0.061l-0.034,-0.061l-0.033,-0.061l-0.032,-0.061l-0.031,-0.062l-0.031,-0.063l-0.029,-0.062l-0.029,-0.063l-0.029,-0.063l-0.027,-0.064l-0.027,-0.064l-0.026,-0.064l-0.025,-0.065l-0.024,-0.065l-0.023,-0.065l-0.023,-0.065l-0.022,-0.066l-0.021,-0.066l-0.02,-0.066l-0.02,-0.066l-0.019,-0.067l-0.017,-0.067l-0.017,-0.067l-0.017,-0.067l-0.015,-0.068l-0.015,-0.067l-0.013,-0.068l-0.013,-0.068l-0.012,-0.069l-0.012,-0.068l-0.01,-0.069l-0.01,-0.068l-0.009,-0.069l-0.007,-0.069l-0.008,-0.07l-0.006,-0.069l-0.005,-0.069l-0.005,-0.07l-0.003,-0.069l-0.003,-0.07l-0.002,-0.07l-0.001,-0.07l-0.001,-0.07l0.001,-0.07l0.001,-0.07l0.003,-0.07l0.003,-0.07l0.004,-0.07l0.005,-0.071l0.006,-0.07l0,-0.001l0.008,-0.079l0.008,-0.079l0.01,-0.079l0.01,-0.079l0.012,-0.079l0.012,-0.078l0.013,-0.078l0.015,-0.078l0.015,-0.077l0.016,-0.077l0.017,-0.078l0.018,-0.076l0.019,-0.077l0.02,-0.076l0.021,-0.076l0.022,-0.075l0.022,-0.076l0.024,-0.074l0.024,-0.075l0.026,-0.074l0.026,-0.074l0.027,-0.074l0.028,-0.073l0.029,-0.073l0.03,-0.072l0.031,-0.072l0.031,-0.072l0.033,-0.071l0.033,-0.071l0.034,-0.07l0.035,-0.07l0.036,-0.07l0.037,-0.069l0.037,-0.069l0.038,-0.068l0.04,-0.068l0.04,-0.067l0.04,-0.067l0.042,-0.066l0.043,-0.066l0.043,-0.065l0.044,-0.065l0.045,-0.064l0.046,-0.064l0.046,-0.063l0.047,-0.063l0.049,-0.062l0.048,-0.061l0.05,-0.061l0.05,-0.061l0.052,-0.06l0.052,-0.059l0.052,-0.058l0.054,-0.058l0.054,-0.058l0.055,-0.057l0.056,-0.056l0.056,-0.055l0.057,-0.055l0.058,-0.054l0.059,-0.054l0.059,-0.053l0.061,-0.052l0.06,-0.051l0.062,-0.051l0.062,-0.05l0.062,-0.049l0.064,-0.048l0.063,-0.048l0.064,-0.046l0.065,-0.046l0.065,-0.045l0.066,-0.044l0.066,-0.043l0.066,-0.043l0.067,-0.041l0.068,-0.041l0.068,-0.04l0.068,-0.038l0.069,-0.039l0.069,-0.037l0.07,-0.036l0.07,-0.035l0.07,-0.035l0.071,-0.034l0.071,-0.033l0.072,-0.031l0.072,-0.031l0.072,-0.031l0.073,-0.029l0.073,-0.028l0.073,-0.028l0.074,-0.026l0.074,-0.026l0.074,-0.025l0.074,-0.024l0.075,-0.022l0.075,-0.022l0.076,-0.022l0.075,-0.02l0.076,-0.019l0.076,-0.018l0.077,-0.018l0.076,-0.016l0.077,-0.016l0.077,-0.014l0.077,-0.014l0.077,-0.013l0.078,-0.012l0.078,-0.011l0.078,-0.009l0.078,-0.009l0.078,-0.008l0.078,-0.008l0.079,-0.006l0.078,-0.005l0.079,-0.004l0.079,-0.003l0.079,-0.002l0.079,-0.002l0.079,0l0.079,0.001Zm-0.149,0.976l-0.066,0.001l-0.067,0.002l-0.067,0.002l-0.067,0.004l-0.067,0.004l-0.066,0.006l-0.066,0.006l-0.067,0.006l-0.066,0.008l-0.066,0.008l-0.066,0.01l-0.066,0.01l-0.065,0.01l-0.066,0.012l-0.066,0.012l-0.064,0.013l-0.064,0.014l-0.066,0.015l-0.065,0.016l-0.063,0.016l-0.065,0.017l-0.064,0.018l-0.063,0.019l-0.063,0.019l-0.064,0.021l-0.063,0.021l-0.063,0.021l-0.062,0.023l-0.062,0.023l-0.062,0.024l-0.061,0.025l-0.063,0.026l-0.06,0.026l-0.06,0.027l-0.061,0.028l-0.059,0.028l-0.061,0.03l-0.059,0.029l-0.059,0.032l-0.059,0.031l-0.057,0.032l-0.06,0.034l-0.057,0.033l-0.056,0.034l-0.058,0.036l-0.056,0.035l-0.056,0.037l-0.056,0.038l-0.055,0.037l-0.055,0.039l-0.054,0.04l-0.053,0.039l-0.055,0.042l-0.053,0.042l-0.052,0.041l-0.052,0.044l-0.052,0.043l-0.05,0.044l-0.052,0.046l-0.049,0.045l-0.049,0.046l-0.048,0.046l-0.048,0.047l-0.048,0.048l-0.047,0.048l-0.046,0.049l-0.045,0.049l-0.044,0.05l-0.044,0.049l-0.043,0.051l-0.045,0.053l-0.041,0.051l-0.041,0.051l-0.041,0.053l-0.04,0.054l-0.039,0.053l-0.038,0.053l-0.039,0.055l-0.038,0.056l-0.036,0.054l-0.036,0.057l-0.037,0.057l-0.033,0.055l-0.034,0.058l-0.034,0.058l-0.031,0.056l-0.032,0.057l-0.031,0.06l-0.031,0.06l-0.03,0.059l-0.029,0.06l-0.028,0.059l-0.027,0.06l-0.027,0.063l-0.026,0.06l-0.026,0.062l-0.024,0.061l-0.024,0.062l-0.023,0.062l-0.022,0.063l-0.022,0.063l-0.02,0.063l-0.02,0.064l-0.02,0.064l-0.018,0.064l-0.017,0.063l-0.017,0.064l-0.016,0.066l-0.016,0.065l-0.014,0.066l-0.014,0.066l-0.013,0.066l-0.012,0.064l-0.012,0.067l-0.01,0.067l-0.01,0.066l-0.009,0.067l-0.008,0.066l-0.007,0.068l-0.003,0.029l0,-0.028l-0.001,0.04l-0.007,0.085l-0.004,0.058l-0.004,0.058l-0.002,0.06l-0.003,0.058l-0.001,0.057l0,0.058l0,0.057l0.001,0.058l0.002,0.057l0.002,0.059l0.003,0.058l0.004,0.056l0.004,0.06l0.005,0.056l0.006,0.057l0.007,0.059l0.007,0.056l0.008,0.056l0.008,0.056l0.01,0.056l0.01,0.058l0.011,0.058l0.011,0.055l0.012,0.055l0.013,0.057l0.014,0.058l0.014,0.054l0.014,0.054l0.015,0.054l0.017,0.056l0.017,0.056l0.017,0.054l0.019,0.055l0.018,0.053l0.019,0.053l0.021,0.055l0.021,0.054l0.021,0.054l0.022,0.051l0.023,0.054l0.023,0.053l0.024,0.051l0.024,0.05l0.026,0.053l0.026,0.051l0.027,0.052l0.027,0.051l0.027,0.049l0.029,0.051l0.03,0.05l0.028,0.048l0.031,0.049l0.031,0.05l0.032,0.048l0.032,0.049l0.032,0.046l0.034,0.048l0.034,0.047l0.035,0.046l0.036,0.047l0.036,0.046l0.036,0.045l0.038,0.045l0.037,0.044l0.038,0.045l0.038,0.042l0.04,0.044l0.04,0.042l0.04,0.042l0.041,0.042l0.04,0.04l0.042,0.04l0.042,0.04l0.044,0.04l0.043,0.039l0.042,0.037l0.043,0.037l0.046,0.038l0.044,0.036l0.045,0.036l0.045,0.035l0.045,0.034l0.048,0.035l0.047,0.034l0.046,0.032l0.047,0.032l0.048,0.032l0.049,0.031l0.048,0.031l0.048,0.029l0.05,0.03l0.051,0.029l0.05,0.028l0.049,0.027l0.051,0.027l0.05,0.026l0.051,0.025l0.052,0.025l0.053,0.025l0.052,0.024l0.051,0.023l0.054,0.023l0.053,0.021l0.053,0.021l0.054,0.021l0.053,0.02l0.055,0.019l0.054,0.019l0.054,0.017l0.055,0.018l0.055,0.016l0.056,0.016l0.055,0.015l0.056,0.015l0.056,0.014l0.056,0.013l0.057,0.013l0.056,0.012l0.057,0.011l0.057,0.01l0.058,0.01l0.057,0.009l0.056,0.008l0.058,0.008l0.059,0.007l0.058,0.006l0.06,0.006l46.008,4.11l0.061,0.005l0.059,0.004l0.058,0.004l0.058,0.002l0.058,0.002l0.058,0.001l0.058,0.001l0.058,0l0.058,-0.001l0.058,-0.002l0.058,-0.002l0.057,-0.003l0.058,-0.004l0.057,-0.004l0.057,-0.006l0.058,-0.005l0.057,-0.007l0.057,-0.007l0.057,-0.008l0.056,-0.009l0.057,-0.009l0.057,-0.01l0.057,-0.011l0.055,-0.011l0.057,-0.012l0.055,-0.013l0.056,-0.013l0.056,-0.015l0.055,-0.014l0.055,-0.016l0.056,-0.016l0.054,-0.017l0.053,-0.017l0.056,-0.019l0.054,-0.018l0.053,-0.02l0.055,-0.02l0.053,-0.021l0.054,-0.021l0.052,-0.022l0.053,-0.023l0.052,-0.023l0.052,-0.024l0.053,-0.025l0.05,-0.025l0.051,-0.026l0.052,-0.027l0.051,-0.027l0.05,-0.028l0.049,-0.028l0.051,-0.029l0.049,-0.03l0.05,-0.031l0.048,-0.03l0.048,-0.032l0.049,-0.033l0.047,-0.032l0.047,-0.033l0.047,-0.035l0.048,-0.035l0.045,-0.035l0.046,-0.035l0.046,-0.038l0.045,-0.037l0.044,-0.037l0.043,-0.037l0.044,-0.04l0.044,-0.04l0.042,-0.039l0.042,-0.041l0.042,-0.04l0.04,-0.041l0.04,-0.041l0.039,-0.042l0.04,-0.043l0.038,-0.043l0.039,-0.044l0.038,-0.044l0.036,-0.043l0.037,-0.045l0.035,-0.045l0.035,-0.045l0.035,-0.046l0.035,-0.048l0.033,-0.046l0.032,-0.045l0.032,-0.048l0.033,-0.049l0.031,-0.049l0.03,-0.046l0.029,-0.049l0.031,-0.052l0.028,-0.048l0.028,-0.05l0.028,-0.05l0.026,-0.051l0.027,-0.051l0.025,-0.05l0.025,-0.052l0.024,-0.052l0.024,-0.053l0.024,-0.053l0.022,-0.052l0.022,-0.053l0.021,-0.054l0.02,-0.053l0.02,-0.052l0.019,-0.055l0.019,-0.055l0.018,-0.056l0.017,-0.054l0.016,-0.053l0.017,-0.057l0.015,-0.057l0.015,-0.054l0.013,-0.055l0.014,-0.058l0.012,-0.055l0.012,-0.058l0.011,-0.056l0.011,-0.056l0.01,-0.059l0.009,-0.057l0.008,-0.057l0.008,-0.057l0.006,-0.057l0.007,-0.06l0.002,-0.018l0,0.025l0.001,-0.041l0.008,-0.092l0.005,-0.066l0.004,-0.069l0.003,-0.068l0.002,-0.066l0.001,-0.066l0.001,-0.068l0,-0.068l-0.001,-0.068l-0.002,-0.066l-0.003,-0.065l-0.003,-0.068l-0.005,-0.067l-0.005,-0.065l-0.006,-0.068l-0.007,-0.067l-0.007,-0.064l-0.009,-0.067l-0.009,-0.067l-0.01,-0.064l-0.011,-0.066l-0.011,-0.066l-0.013,-0.065l-0.013,-0.066l-0.014,-0.063l-0.015,-0.065l-0.015,-0.065l-0.017,-0.065l-0.017,-0.064l-0.018,-0.064l-0.018,-0.064l-0.019,-0.062l-0.021,-0.063l-0.021,-0.065l-0.022,-0.063l-0.022,-0.06l-0.023,-0.063l-0.024,-0.061l-0.025,-0.062l-0.026,-0.063l-0.027,-0.061l-0.026,-0.059l-0.028,-0.06l-0.029,-0.062l-0.029,-0.059l-0.03,-0.059l-0.031,-0.059l-0.031,-0.059l-0.032,-0.057l-0.033,-0.058l-0.035,-0.059l-0.034,-0.057l-0.035,-0.057l-0.036,-0.057l-0.037,-0.056l-0.037,-0.055l-0.037,-0.055l-0.039,-0.054l-0.04,-0.056l-0.04,-0.053l-0.041,-0.053l-0.042,-0.054l-0.043,-0.053l-0.042,-0.052l-0.043,-0.05l-0.045,-0.052l-0.046,-0.051l-0.044,-0.048l-0.046,-0.049l-0.048,-0.051l-0.046,-0.047l-0.047,-0.047l-0.049,-0.047l-0.048,-0.045l-0.049,-0.045l-0.05,-0.045l-0.05,-0.045l-0.051,-0.043l-0.052,-0.043l-0.05,-0.041l-0.053,-0.042l-0.053,-0.041l-0.053,-0.04l-0.053,-0.04l-0.054,-0.038l-0.055,-0.038l-0.055,-0.038l-0.055,-0.036l-0.057,-0.037l-0.055,-0.035l-0.057,-0.034l-0.057,-0.035l-0.056,-0.032l-0.059,-0.033l-0.059,-0.032l-0.058,-0.031l-0.059,-0.03l-0.06,-0.03l-0.059,-0.029l-0.059,-0.028l-0.061,-0.027l-0.061,-0.027l-0.062,-0.026l-0.061,-0.026l-0.061,-0.024l-0.062,-0.024l-0.063,-0.023l-0.063,-0.022l-0.062,-0.022l-0.064,-0.02l-0.063,-0.02l-0.064,-0.02l-0.064,-0.018l-0.064,-0.018l-0.065,-0.016l-0.065,-0.017l-0.065,-0.015l-0.065,-0.014l-0.065,-0.014l-0.066,-0.013l-0.066,-0.012l-0.067,-0.012l-0.066,-0.01l-0.067,-0.01l-0.066,-0.009l-0.067,-0.008l-0.067,-0.007l-0.071,-0.007l-44.53,-3.978l-0.07,-0.006l-0.067,-0.004l-0.068,-0.004l-0.067,-0.003l-0.067,-0.002l-0.067,-0.002l-0.068,0l-0.067,0Z"/><path d="M79.859,101.947l0.098,0.003l0.099,0.005l0.098,0.007l33.719,3.012l0.098,0.01l0.098,0.013l0.097,0.015l0.096,0.017l0.096,0.019l0.096,0.022l0.094,0.024l0.094,0.026l0.093,0.029l0.092,0.031l0.091,0.033l0.091,0.035l0.089,0.038l0.089,0.039l0.087,0.042l0.087,0.044l0.085,0.046l0.084,0.048l0.083,0.05l0.082,0.052l0.081,0.054l0.079,0.056l0.078,0.058l0.077,0.061l0.075,0.062l0.073,0.063l0.073,0.066l0.07,0.068l0.07,0.069l0.067,0.072l0.066,0.073l0.064,0.075l0.063,0.076l0.06,0.078l0.058,0.079l0.056,0.081l0.054,0.081l0.052,0.083l0.05,0.084l0.048,0.085l0.045,0.086l0.044,0.087l0.041,0.088l0.039,0.089l0.037,0.089l0.034,0.091l0.032,0.091l0.031,0.092l0.027,0.093l0.026,0.094l0.023,0.094l0.021,0.095l0.019,0.095l0.016,0.096l0.014,0.096l0.012,0.096l0.009,0.097l0.007,0.098l0.005,0.097l0.002,0.098l0,0.098l-0.003,0.098l-0.005,0.099l-0.007,0.098l-0.001,0.001l-41.635,-3.719l0,-0.001l0.01,-0.098l0.013,-0.098l0.014,-0.097l0.017,-0.097l0.02,-0.096l0.022,-0.095l0.024,-0.094l0.026,-0.094l0.029,-0.093l0.031,-0.092l0.033,-0.092l0.035,-0.09l0.038,-0.09l0.039,-0.088l0.042,-0.088l0.044,-0.086l0.046,-0.085l0.048,-0.085l0.05,-0.083l0.052,-0.081l0.054,-0.081l0.056,-0.079l0.058,-0.078l0.06,-0.077l0.062,-0.075l0.064,-0.074l0.066,-0.072l0.068,-0.071l0.069,-0.069l0.071,-0.067l0.074,-0.066l0.075,-0.064l0.076,-0.063l0.078,-0.06l0.079,-0.058l0.08,-0.056l0.082,-0.055l0.083,-0.051l0.084,-0.05l0.085,-0.048l0.086,-0.045l0.087,-0.044l0.088,-0.041l0.088,-0.039l0.09,-0.037l0.091,-0.034l0.091,-0.033l0.092,-0.03l0.093,-0.028l0.094,-0.025l0.094,-0.024l0.095,-0.021l0.095,-0.018l0.096,-0.017l0.096,-0.014l0.096,-0.011l0.097,-0.01l0.098,-0.007l0.097,-0.004l0.098,-0.002l0.098,0Zm-0.166,0.869l-0.076,0.003l-0.076,0.006l-0.076,0.007l-0.076,0.009l-0.075,0.011l-0.075,0.013l-0.074,0.015l-0.074,0.016l-0.073,0.018l-0.074,0.02l-0.073,0.022l-0.072,0.024l-0.071,0.025l-0.071,0.027l-0.07,0.029l-0.069,0.03l-0.069,0.032l-0.068,0.034l-0.067,0.036l-0.067,0.037l-0.065,0.039l-0.065,0.04l-0.064,0.043l-0.063,0.044l-0.062,0.045l-0.06,0.047l-0.06,0.049l-0.059,0.05l-0.057,0.052l-0.056,0.053l-0.054,0.054l-0.053,0.055l-0.051,0.056l-0.05,0.058l-0.049,0.059l-0.047,0.06l-0.045,0.061l-0.044,0.061l-0.042,0.063l-0.041,0.065l-0.039,0.064l-0.038,0.066l-0.035,0.067l-0.035,0.068l-0.032,0.067l-0.031,0.07l-0.03,0.071l-0.014,0.035l39.662,3.543l-0.008,-0.038l-0.016,-0.074l-0.018,-0.073l-0.02,-0.074l-0.022,-0.072l-0.024,-0.072l-0.025,-0.072l-0.027,-0.071l-0.029,-0.07l-0.03,-0.069l-0.032,-0.069l-0.035,-0.068l-0.035,-0.067l-0.037,-0.066l-0.04,-0.067l-0.04,-0.064l-0.042,-0.063l-0.044,-0.064l-0.045,-0.062l-0.048,-0.06l-0.048,-0.06l-0.05,-0.058l-0.052,-0.058l-0.052,-0.055l-0.055,-0.055l-0.055,-0.053l-0.057,-0.051l-0.057,-0.05l-0.059,-0.048l-0.06,-0.048l-0.061,-0.045l-0.062,-0.044l-0.062,-0.042l-0.065,-0.041l-0.065,-0.039l-0.066,-0.038l-0.066,-0.035l-0.068,-0.035l-0.068,-0.032l-0.069,-0.031l-0.07,-0.03l-0.071,-0.027l-0.071,-0.026l-0.072,-0.024l-0.073,-0.022l-0.073,-0.021l-0.074,-0.019l-0.075,-0.017l-0.075,-0.015l-0.075,-0.014l-0.076,-0.011l-0.076,-0.01l-0.083,-0.008l-33.708,-3.011l-0.082,-0.007l-0.077,-0.004l-0.077,-0.002l-0.077,0l-0.076,0.002Z"/><path d="M97.571,91.919l0.169,0.004l0.17,0.006l0.171,0.008l0.17,0.01l0.171,0.012l0.172,0.015l0.171,0.016l0.171,0.018l0.169,0.021l0.17,0.022l0.168,0.024l0.168,0.026l0.166,0.028l0.167,0.03l0.165,0.032l0.164,0.034l0.164,0.036l0.163,0.037l0.162,0.04l0.161,0.041l0.161,0.043l0.159,0.045l0.159,0.046l0.157,0.049l0.157,0.05l0.156,0.052l0.155,0.053l0.154,0.056l0.153,0.057l0.152,0.059l0.151,0.06l0.151,0.062l0.149,0.064l0.148,0.066l0.147,0.067l0.146,0.068l0.145,0.071l0.144,0.072l0.143,0.073l0.142,0.075l0.141,0.077l0.139,0.078l0.139,0.079l0.137,0.082l0.136,0.082l0.136,0.084l0.133,0.086l0.133,0.087l0.132,0.088l0.13,0.09l0.129,0.092l0.128,0.092l0.127,0.095l0.125,0.095l0.124,0.097l0.123,0.098l0.122,0.1l0.12,0.101l0.119,0.102l0.118,0.103l0.116,0.105l0.115,0.106l0.114,0.107l0.112,0.109l0.111,0.109l0.109,0.111l0.109,0.112l0.106,0.114l0.105,0.114l0.104,0.116l0.103,0.117l0.1,0.118l0.1,0.119l0.098,0.12l0.096,0.121l0.095,0.122l0.093,0.124l0.092,0.124l0.091,0.125l0.088,0.127l0.087,0.127l0.086,0.129l0.084,0.129l0.082,0.131l0.081,0.131l0.079,0.133l0.078,0.133l0.075,0.134l0.074,0.135l0.073,0.136l0.071,0.137l0.069,0.138l0.067,0.138l0.066,0.14l0.064,0.14l0.062,0.141l0.06,0.142l0.059,0.142l0.056,0.144l0.055,0.144l0.054,0.145l0.051,0.145l0.049,0.147l0.048,0.146l0.046,0.148l0.044,0.149l0.042,0.149l0.04,0.149l0.038,0.15l0.037,0.151l0.034,0.152l0.032,0.152l0.031,0.153l0.028,0.153l0.027,0.154l0.024,0.154l0.023,0.155l0.021,0.155l0.018,0.156l0.017,0.157l0.014,0.156l0.012,0.158l0.011,0.157l0.008,0.159l0.006,0.158l0.004,0.159l0.002,0.159l-0.001,0.16l-0.002,0.16l-0.005,0.161l-0.006,0.16l-0.009,0.162l-0.012,0.161l-0.013,0.162l-26.53,-2.37l0.016,-0.162l0.017,-0.161l0.02,-0.16l0.022,-0.159l0.024,-0.159l0.026,-0.158l0.028,-0.157l0.03,-0.157l0.032,-0.155l0.034,-0.155l0.036,-0.155l0.038,-0.153l0.04,-0.153l0.042,-0.151l0.044,-0.151l0.046,-0.15l0.048,-0.15l0.049,-0.148l0.052,-0.148l0.053,-0.146l0.055,-0.146l0.058,-0.145l0.058,-0.144l0.061,-0.143l0.063,-0.142l0.064,-0.141l0.066,-0.14l0.068,-0.139l0.069,-0.139l0.072,-0.137l0.072,-0.136l0.075,-0.135l0.076,-0.135l0.078,-0.133l0.08,-0.132l0.081,-0.131l0.083,-0.13l0.085,-0.129l0.086,-0.127l0.088,-0.127l0.089,-0.126l0.091,-0.124l0.092,-0.123l0.094,-0.122l0.095,-0.121l0.097,-0.12l0.099,-0.119l0.1,-0.117l0.101,-0.117l0.103,-0.115l0.104,-0.113l0.105,-0.113l0.107,-0.111l0.109,-0.11l0.109,-0.109l0.112,-0.107l0.112,-0.107l0.114,-0.104l0.115,-0.104l0.116,-0.102l0.118,-0.101l0.119,-0.1l0.12,-0.098l0.121,-0.097l0.123,-0.095l0.124,-0.094l0.125,-0.093l0.126,-0.091l0.128,-0.09l0.128,-0.088l0.13,-0.087l0.131,-0.085l0.132,-0.084l0.133,-0.083l0.134,-0.081l0.135,-0.079l0.136,-0.078l0.138,-0.076l0.138,-0.075l0.139,-0.074l0.141,-0.071l0.141,-0.071l0.142,-0.068l0.144,-0.067l0.144,-0.066l0.145,-0.063l0.146,-0.062l0.147,-0.061l0.148,-0.059l0.149,-0.057l0.149,-0.055l0.151,-0.054l0.151,-0.052l0.152,-0.051l0.153,-0.049l0.154,-0.047l0.154,-0.045l0.155,-0.043l0.156,-0.042l0.157,-0.04l0.157,-0.038l0.158,-0.036l0.159,-0.035l0.16,-0.033l0.16,-0.031l0.161,-0.029l0.161,-0.027l0.162,-0.025l0.163,-0.024l0.163,-0.021l0.164,-0.02l0.164,-0.018l0.165,-0.016l0.166,-0.013l0.165,-0.012l0.167,-0.01l0.167,-0.009l0.167,-0.006l0.168,-0.004l0.169,-0.002l0.168,0l0.17,0.002Zm-0.332,0.999l-0.157,0.002l-0.155,0.003l-0.156,0.006l-0.155,0.007l-0.154,0.01l-0.155,0.011l-0.153,0.013l-0.153,0.015l-0.153,0.016l-0.152,0.018l-0.151,0.02l-0.151,0.022l-0.151,0.024l-0.149,0.025l-0.149,0.027l-0.149,0.028l-0.148,0.031l-0.147,0.032l-0.147,0.034l-0.146,0.035l-0.145,0.037l-0.145,0.039l-0.143,0.04l-0.144,0.042l-0.142,0.044l-0.141,0.044l-0.141,0.047l-0.141,0.049l-0.139,0.049l-0.139,0.052l-0.138,0.053l-0.136,0.054l-0.137,0.056l-0.135,0.058l-0.134,0.059l-0.134,0.06l-0.132,0.062l-0.132,0.064l-0.131,0.065l-0.13,0.067l-0.129,0.067l-0.128,0.07l-0.127,0.07l-0.126,0.072l-0.125,0.074l-0.124,0.075l-0.123,0.076l-0.122,0.078l-0.122,0.079l-0.12,0.08l-0.118,0.081l-0.117,0.083l-0.118,0.085l-0.115,0.085l-0.114,0.087l-0.114,0.088l-0.112,0.09l-0.111,0.09l-0.11,0.092l-0.108,0.093l-0.108,0.095l-0.106,0.095l-0.104,0.096l-0.104,0.099l-0.103,0.099l-0.101,0.1l-0.099,0.101l-0.099,0.103l-0.098,0.104l-0.096,0.105l-0.094,0.105l-0.093,0.107l-0.092,0.109l-0.091,0.109l-0.088,0.109l-0.089,0.112l-0.086,0.113l-0.085,0.112l-0.083,0.115l-0.083,0.116l-0.08,0.116l-0.079,0.117l-0.078,0.119l-0.076,0.119l-0.075,0.121l-0.073,0.121l-0.071,0.121l-0.07,0.123l-0.069,0.125l-0.067,0.125l-0.065,0.126l-0.064,0.127l-0.062,0.126l-0.06,0.129l-0.059,0.13l-0.058,0.13l-0.055,0.131l-0.054,0.132l-0.052,0.132l-0.051,0.134l-0.049,0.135l-0.047,0.134l-0.045,0.136l-0.044,0.137l-0.042,0.137l-0.04,0.138l-0.039,0.14l-0.037,0.139l-0.034,0.141l-0.034,0.142l-0.031,0.141l-0.029,0.143l-0.028,0.143l-0.005,0.031l24.446,2.183l0,-0.031l-0.001,-0.146l-0.004,-0.144l-0.006,-0.146l-0.007,-0.146l-0.01,-0.144l-0.011,-0.143l-0.013,-0.144l-0.015,-0.144l-0.017,-0.142l-0.019,-0.142l-0.021,-0.143l-0.022,-0.141l-0.024,-0.14l-0.026,-0.14l-0.028,-0.14l-0.03,-0.14l-0.032,-0.14l-0.033,-0.137l-0.035,-0.138l-0.037,-0.137l-0.038,-0.136l-0.04,-0.137l-0.042,-0.134l-0.044,-0.135l-0.046,-0.136l-0.047,-0.133l-0.048,-0.132l-0.051,-0.132l-0.052,-0.133l-0.054,-0.13l-0.055,-0.13l-0.058,-0.13l-0.058,-0.13l-0.06,-0.127l-0.062,-0.127l-0.064,-0.127l-0.065,-0.126l-0.067,-0.125l-0.068,-0.125l-0.069,-0.123l-0.072,-0.123l-0.072,-0.121l-0.075,-0.121l-0.075,-0.12l-0.078,-0.119l-0.079,-0.119l-0.08,-0.118l-0.082,-0.116l-0.083,-0.116l-0.085,-0.115l-0.086,-0.113l-0.087,-0.113l-0.089,-0.112l-0.091,-0.111l-0.092,-0.11l-0.093,-0.108l-0.095,-0.109l-0.095,-0.106l-0.097,-0.106l-0.099,-0.105l-0.099,-0.103l-0.102,-0.103l-0.103,-0.102l-0.103,-0.1l-0.105,-0.098l-0.106,-0.098l-0.108,-0.098l-0.109,-0.095l-0.11,-0.095l-0.111,-0.093l-0.113,-0.092l-0.113,-0.091l-0.116,-0.09l-0.115,-0.088l-0.118,-0.087l-0.119,-0.086l-0.119,-0.084l-0.12,-0.084l-0.123,-0.082l-0.122,-0.081l-0.124,-0.079l-0.125,-0.077l-0.126,-0.077l-0.128,-0.075l-0.128,-0.074l-0.13,-0.072l-0.131,-0.072l-0.13,-0.069l-0.133,-0.068l-0.133,-0.067l-0.135,-0.065l-0.135,-0.064l-0.137,-0.062l-0.137,-0.06l-0.138,-0.059l-0.14,-0.058l-0.14,-0.056l-0.141,-0.055l-0.142,-0.053l-0.143,-0.051l-0.144,-0.05l-0.144,-0.048l-0.146,-0.047l-0.146,-0.045l-0.147,-0.043l-0.148,-0.041l-0.149,-0.04l-0.15,-0.039l-0.15,-0.036l-0.152,-0.035l-0.152,-0.033l-0.153,-0.032l-0.153,-0.029l-0.154,-0.028l-0.155,-0.026l-0.156,-0.025l-0.157,-0.022l-0.157,-0.021l-0.158,-0.019l-0.159,-0.017l-0.159,-0.015l-0.16,-0.013l-0.159,-0.012l-0.159,-0.009l-0.158,-0.007l-0.158,-0.006l-0.158,-0.004l-0.157,-0.001l-0.157,0Z"/><path d="M93.723,97.051l-0.097,0.032l-0.093,0.032l-0.094,0.033l-0.093,0.034l-0.092,0.035l-0.091,0.036l-0.091,0.037l-0.09,0.038l-0.089,0.039l-0.089,0.04l-0.088,0.041l-0.087,0.042l-0.087,0.043l-0.086,0.044l-0.086,0.045l-0.086,0.047l-0.478,-0.878l0.092,-0.05l0.003,-0.002l0.093,-0.049l0.003,-0.001l0.094,-0.048l0.002,-0.002l0.095,-0.047l0.003,-0.001l0.095,-0.046l0.003,-0.001l0.096,-0.045l0.003,-0.002l0.098,-0.043l0.002,-0.001l0.097,-0.043l0.003,-0.001l0.099,-0.042l0.003,-0.001l0.099,-0.041l0.003,-0.001l0.1,-0.039l0.002,-0.001l0.101,-0.039l0.003,-0.001l0.101,-0.037l0.003,-0.001l0.101,-0.036l0.003,-0.001l0.102,-0.034l0.003,-0.001l0.102,-0.034l0.31,0.951Z"/><path d="M91.526,98.146l-0.118,0.086l-0.112,0.085l-0.11,0.088l-0.108,0.089l-0.107,0.091l-0.104,0.092l-0.102,0.094l-0.1,0.097l-0.098,0.097l-0.095,0.1l-0.094,0.102l-0.091,0.102l-0.089,0.105l-0.043,0.052l-0.043,0.054l-0.043,0.054l-0.041,0.053l-0.042,0.055l-0.041,0.055l-0.039,0.055l-0.039,0.055l-0.039,0.056l-0.039,0.056l-0.037,0.056l-0.037,0.057l-0.036,0.058l-0.036,0.058l-0.035,0.058l-0.034,0.058l-0.034,0.059l-0.033,0.059l-0.033,0.059l-0.032,0.06l-0.031,0.06l-0.03,0.06l-0.03,0.061l-0.029,0.061l-0.028,0.061l-0.029,0.062l-0.027,0.062l-0.026,0.062l-0.026,0.063l-0.025,0.063l-0.025,0.063l-0.023,0.062l-0.023,0.065l-0.023,0.065l-0.021,0.064l-0.021,0.065l-0.02,0.064l-0.02,0.068l-0.959,-0.284l0.021,-0.073l0.001,-0.002l0.023,-0.074l0.001,-0.004l0.024,-0.072l0,-0.002l0.025,-0.072l0.001,-0.004l0.025,-0.072l0.001,-0.001l0.025,-0.071l0.001,-0.003l0.027,-0.072l0.001,-0.004l0.028,-0.071l0,-0.001l0.028,-0.071l0.002,-0.004l0.029,-0.07l0.001,-0.002l0.029,-0.07l0.002,-0.003l0.031,-0.07l0,-0.001l0.031,-0.069l0.001,-0.003l0.032,-0.069l0.001,-0.002l0.033,-0.069l0.001,-0.002l0.034,-0.069l0.001,-0.002l0.034,-0.068l0.002,-0.002l0.035,-0.068l0.001,-0.002l0.036,-0.067l0,-0.001l0.037,-0.067l0.002,-0.004l0.037,-0.066l0.001,-0.001l0.037,-0.066l0.002,-0.002l0.038,-0.066l0.002,-0.002l0.039,-0.065l0.002,-0.003l0.04,-0.064l0.001,-0.001l0.04,-0.064l0.001,-0.002l0.042,-0.064l0.001,-0.003l0.042,-0.063l0.002,-0.003l0.043,-0.062l0.001,-0.002l0.043,-0.062l0.001,-0.002l0.044,-0.062l0.002,-0.003l0.045,-0.061l0.001,-0.003l0.046,-0.06l0.001,-0.002l0.045,-0.06l0.002,-0.003l0.047,-0.06l0.002,-0.002l0.047,-0.06l0.001,-0.002l0.048,-0.059l0.002,-0.002l0.049,-0.059l0.002,-0.003l0.098,-0.115l0.004,-0.005l0.101,-0.114l0.003,-0.003l0.104,-0.112l0.003,-0.004l0.106,-0.11l0.004,-0.004l0.108,-0.109l0.004,-0.003l0.11,-0.106l0.003,-0.003l0.113,-0.105l0.004,-0.003l0.116,-0.103l0.003,-0.003l0.117,-0.1l0.004,-0.003l0.12,-0.099l0.003,-0.002l0.121,-0.096l0.004,-0.004l0.124,-0.093l0.004,-0.003l0.123,-0.091l0.59,0.808Z"/><path d="M99.353,88.513l-0.313,3.505l-0.996,-0.089l0.313,-3.505l0.996,0.089Z"/><path d="M99.247,82.969l0.012,0l0.05,0.002l0.013,0l0.051,0.003l0.012,0.001l0.05,0.004l0.011,0.001l0.051,0.005l0.012,0.001l0.05,0.006l0.013,0.002l0.05,0.008l0.011,0.002l0.048,0.008l0.012,0.002l0.049,0.01l0.013,0.003l0.049,0.011l0.011,0.003l0.047,0.012l0.013,0.003l0.047,0.013l0.011,0.003l0.047,0.015l0.012,0.003l0.046,0.016l0.012,0.004l0.045,0.016l0.01,0.004l0.045,0.017l0.012,0.005l0.046,0.019l0.013,0.005l0.044,0.02l0.009,0.004l0.042,0.02l0.01,0.005l0.043,0.021l0.012,0.006l0.043,0.023l0.01,0.006l0.043,0.023l0.011,0.007l0.04,0.024l0.008,0.005l0.04,0.025l0.011,0.007l0.04,0.026l0.008,0.006l0.039,0.027l0.012,0.008l0.039,0.029l0.01,0.007l0.037,0.029l0.007,0.005l0.036,0.029l0.01,0.008l0.036,0.031l0.009,0.007l0.036,0.032l0.011,0.01l0.034,0.032l0.006,0.006l0.033,0.032l0.009,0.008l0.034,0.035l0.009,0.01l0.032,0.034l0.005,0.006l0.031,0.035l0.01,0.01l0.031,0.037l0.007,0.009l0.03,0.037l0.009,0.011l0.027,0.036l0.005,0.006l0.028,0.038l0.008,0.011l0.028,0.041l0.008,0.012l0.025,0.038l0.003,0.005l0.025,0.038l0.008,0.013l0.025,0.042l0.006,0.012l0.023,0.041l0.005,0.01l0.023,0.041l0.006,0.013l0.021,0.042l0.004,0.009l0.02,0.042l0.006,0.013l0.018,0.043l0.004,0.009l0.019,0.044l0.006,0.017l0.017,0.046l0.004,0.009l0.014,0.042l0.003,0.009l0.016,0.046l0.005,0.017l0.013,0.046l0.003,0.009l0.012,0.045l0.003,0.013l0.012,0.047l0.003,0.013l0.01,0.047l0.003,0.013l0.008,0.048l0.003,0.013l0.008,0.05l0.002,0.016l0.006,0.048l0.001,0.009l0.005,0.046l0.001,0.013l0.004,0.048l0.001,0.013l0.003,0.048l0.001,0.013l0.001,0.05l0.001,0.017l0,0.05l-0.001,0.012l-0.001,0.049l0,0.012l-0.003,0.049l0,0.012l-0.004,0.051l-0.001,0.016l-0.006,0.051l-0.001,0.012l-0.007,0.049l-0.001,0.013l-0.008,0.048l-0.002,0.013l-0.009,0.048l-0.003,0.013l-0.01,0.048l-0.002,0.013l-0.012,0.048l-0.003,0.013l-0.013,0.047l-0.003,0.013l-0.014,0.048l-0.004,0.013l-0.015,0.044l-0.003,0.009l-0.016,0.047l-0.006,0.017l-0.018,0.046l-0.004,0.009l-0.017,0.044l-0.006,0.013l-0.019,0.043l-0.004,0.009l-0.02,0.043l-0.007,0.013l-0.022,0.044l-0.006,0.013l-0.023,0.042l-0.005,0.009l-0.023,0.041l-0.007,0.012l-0.025,0.041l-0.006,0.01l-0.025,0.039l-0.006,0.009l-0.026,0.039l-0.008,0.012l-0.028,0.039l-0.007,0.01l-0.027,0.037l-0.007,0.008l-0.029,0.038l-0.01,0.012l-0.031,0.037l-0.007,0.009l-0.03,0.035l-0.008,0.009l-0.032,0.034l-0.007,0.009l-0.033,0.033l-0.008,0.009l-0.033,0.033l-0.009,0.009l-0.034,0.032l-0.009,0.008l-0.035,0.032l-0.009,0.008l-0.036,0.031l-0.008,0.007l-0.037,0.03l-0.01,0.008l-0.036,0.029l-0.008,0.006l-0.037,0.028l-0.011,0.007l-0.038,0.028l-0.01,0.006l-0.039,0.027l-0.011,0.007l-0.039,0.025l-0.01,0.006l-0.04,0.024l-0.009,0.006l-0.042,0.024l-0.013,0.007l-0.04,0.022l-0.007,0.004l-0.041,0.022l-0.015,0.007l-0.044,0.021l-0.009,0.004l-0.043,0.02l-0.011,0.005l-0.043,0.018l-0.009,0.004l-0.044,0.018l-0.013,0.005l-0.045,0.016l-0.011,0.004l-0.044,0.016l-0.011,0.003l-0.046,0.015l-0.014,0.004l-0.046,0.014l-0.01,0.002l-0.045,0.013l-0.013,0.003l-0.047,0.011l-0.011,0.003l-0.047,0.01l-0.012,0.002l-0.048,0.01l-0.012,0.002l-0.048,0.008l-0.012,0.002l-0.048,0.007l-0.011,0.001l-0.048,0.006l-0.014,0.001l-0.049,0.005l-0.011,0.001l-0.05,0.003l-0.013,0.001l-0.049,0.002l-0.011,0l-0.049,0.001l-0.013,0.001l-0.051,-0.001l-0.013,0l-0.05,-0.001l-0.011,-0.001l-0.05,-0.002l-0.011,-0.001l-0.05,-0.004l-0.013,-0.001l-0.051,-0.005l-0.012,-0.002l-0.05,-0.006l-0.012,-0.002l-0.049,-0.007l-0.012,-0.002l-0.05,-0.009l-0.012,-0.002l-0.049,-0.01l-0.012,-0.002l-0.048,-0.011l-0.011,-0.003l-0.048,-0.012l-0.012,-0.003l-0.048,-0.014l-0.011,-0.003l-0.047,-0.014l-0.011,-0.004l-0.046,-0.015l-0.012,-0.004l-0.046,-0.017l-0.013,-0.004l-0.044,-0.017l-0.009,-0.004l-0.045,-0.018l-0.013,-0.006l-0.044,-0.02l-0.01,-0.004l-0.043,-0.02l-0.01,-0.005l-0.044,-0.022l-0.013,-0.007l-0.042,-0.022l-0.007,-0.004l-0.042,-0.023l-0.013,-0.008l-0.041,-0.025l-0.009,-0.005l-0.04,-0.025l-0.01,-0.007l-0.04,-0.026l-0.01,-0.006l-0.038,-0.027l-0.009,-0.006l-0.039,-0.028l-0.01,-0.009l-0.038,-0.028l-0.009,-0.007l-0.036,-0.029l-0.008,-0.007l-0.037,-0.031l-0.011,-0.01l-0.036,-0.031l-0.007,-0.007l-0.033,-0.031l-0.008,-0.008l-0.035,-0.033l-0.01,-0.01l-0.032,-0.033l-0.007,-0.007l-0.032,-0.034l-0.009,-0.011l-0.032,-0.035l-0.007,-0.009l-0.03,-0.035l-0.007,-0.009l-0.03,-0.036l-0.007,-0.009l-0.029,-0.038l-0.008,-0.011l-0.027,-0.037l-0.004,-0.005l-0.028,-0.039l-0.01,-0.015l-0.027,-0.042l-0.006,-0.009l-0.024,-0.038l-0.005,-0.009l-0.023,-0.039l-0.005,-0.009l-0.023,-0.041l-0.007,-0.012l-0.023,-0.044l-0.007,-0.012l-0.02,-0.042l-0.005,-0.009l-0.02,-0.043l-0.005,-0.012l-0.02,-0.045l-0.005,-0.013l-0.018,-0.043l-0.003,-0.009l-0.017,-0.043l-0.005,-0.013l-0.016,-0.046l-0.004,-0.013l-0.014,-0.045l-0.003,-0.008l-0.013,-0.045l-0.004,-0.013l-0.013,-0.048l-0.005,-0.018l-0.011,-0.047l-0.002,-0.009l-0.009,-0.045l-0.003,-0.012l-0.009,-0.048l-0.002,-0.013l-0.008,-0.048l-0.002,-0.013l-0.006,-0.048l-0.002,-0.012l-0.005,-0.049l-0.001,-0.012l-0.004,-0.049l-0.001,-0.012l-0.003,-0.051l-0.001,-0.016l-0.001,-0.049l0,-0.008l0,-0.049l0,-0.016l0.001,-0.05l0,-0.013l0.003,-0.05l0.001,-0.016l0.004,-0.049l0.001,-0.008l0.004,-0.049l0.002,-0.017l0.007,-0.05l0.002,-0.013l0.007,-0.049l0.002,-0.012l0.009,-0.049l0.003,-0.013l0.01,-0.048l0.003,-0.013l0.011,-0.047l0.003,-0.013l0.013,-0.048l0.004,-0.012l0.013,-0.048l0.005,-0.013l0.015,-0.047l0.004,-0.013l0.016,-0.044l0.003,-0.009l0.017,-0.044l0.005,-0.013l0.019,-0.046l0.005,-0.013l0.019,-0.044l0.005,-0.009l0.02,-0.043l0.006,-0.012l0.022,-0.044l0.006,-0.013l0.023,-0.042l0.005,-0.009l0.024,-0.042l0.007,-0.012l0.025,-0.041l0.005,-0.009l0.025,-0.039l0.006,-0.009l0.026,-0.039l0.009,-0.013l0.027,-0.039l0.007,-0.009l0.028,-0.038l0.01,-0.012l0.029,-0.037l0.005,-0.006l0.029,-0.036l0.009,-0.011l0.031,-0.036l0.008,-0.009l0.032,-0.034l0.008,-0.01l0.033,-0.034l0.008,-0.008l0.032,-0.033l0.009,-0.008l0.034,-0.032l0.009,-0.009l0.035,-0.031l0.009,-0.008l0.035,-0.031l0.01,-0.008l0.037,-0.03l0.009,-0.008l0.036,-0.028l0.008,-0.006l0.038,-0.029l0.012,-0.008l0.039,-0.028l0.008,-0.005l0.038,-0.026l0.009,-0.006l0.04,-0.026l0.012,-0.007l0.04,-0.025l0.008,-0.004l0.04,-0.024l0.013,-0.007l0.043,-0.023l0.009,-0.005l0.042,-0.021l0.01,-0.005l0.042,-0.021l0.011,-0.005l0.043,-0.02l0.011,-0.004l0.043,-0.019l0.011,-0.005l0.044,-0.017l0.011,-0.005l0.045,-0.016l0.012,-0.004l0.045,-0.016l0.011,-0.004l0.046,-0.015l0.012,-0.003l0.046,-0.014l0.01,-0.003l0.047,-0.012l0.012,-0.003l0.047,-0.012l0.011,-0.002l0.047,-0.01l0.014,-0.003l0.047,-0.009l0.011,-0.002l0.047,-0.008l0.012,-0.002l0.049,-0.007l0.012,-0.002l0.049,-0.005l0.013,-0.002l0.048,-0.004l0.011,-0.001l0.049,-0.004l0.012,0l0.05,-0.002l0.013,-0.001l0.05,-0.001l0.012,0l0.049,0Zm-0.085,1.001l-0.037,0.001l-0.037,0.003l-0.037,0.003l-0.037,0.005l-0.036,0.005l-0.036,0.006l-0.036,0.007l-0.035,0.008l-0.036,0.008l-0.035,0.01l-0.034,0.01l-0.034,0.011l-0.034,0.011l-0.034,0.013l-0.033,0.013l-0.033,0.014l-0.032,0.015l-0.032,0.015l-0.031,0.017l-0.031,0.017l-0.031,0.017l-0.03,0.019l-0.03,0.019l-0.029,0.019l-0.028,0.021l-0.028,0.021l-0.028,0.021l-0.027,0.022l-0.026,0.023l-0.026,0.024l-0.026,0.024l-0.024,0.024l-0.024,0.026l-0.024,0.025l-0.023,0.027l-0.022,0.027l-0.021,0.027l-0.021,0.028l-0.02,0.029l-0.02,0.029l-0.019,0.029l-0.018,0.03l-0.017,0.031l-0.016,0.031l-0.016,0.031l-0.015,0.032l-0.014,0.032l-0.014,0.033l-0.012,0.033l-0.012,0.033l-0.011,0.034l-0.01,0.035l-0.009,0.034l-0.009,0.035l-0.007,0.036l-0.007,0.035l-0.005,0.036l-0.005,0.037l-0.004,0.037l-0.003,0.036l-0.001,0.037l-0.001,0.036l0,0.037l0.001,0.036l0.002,0.036l0.003,0.036l0.004,0.035l0.004,0.035l0.006,0.036l0.007,0.034l0.007,0.035l0.008,0.034l0.009,0.034l0.01,0.034l0.011,0.033l0.012,0.033l0.012,0.033l0.013,0.032l0.014,0.032l0.015,0.032l0.016,0.031l0.016,0.031l0.017,0.03l0.018,0.03l0.018,0.03l0.02,0.029l0.019,0.029l0.021,0.028l0.021,0.028l0.022,0.027l0.023,0.026l0.023,0.027l0.024,0.025l0.025,0.025l0.025,0.025l0.026,0.024l0.026,0.023l0.027,0.023l0.028,0.022l0.028,0.022l0.028,0.02l0.03,0.021l0.029,0.019l0.031,0.019l0.03,0.019l0.032,0.017l0.031,0.017l0.033,0.016l0.032,0.015l0.033,0.015l0.034,0.014l0.034,0.013l0.035,0.012l0.034,0.012l0.036,0.011l0.035,0.01l0.037,0.009l0.036,0.008l0.037,0.008l0.037,0.006l0.037,0.006l0.038,0.005l0.038,0.003l0.039,0.003l0.038,0.002l0.038,0.001l0.037,0.001l0.038,-0.001l0.037,-0.002l0.037,-0.002l0.037,-0.004l0.037,-0.004l0.036,-0.005l0.036,-0.006l0.036,-0.007l0.036,-0.008l0.035,-0.009l0.035,-0.009l0.034,-0.01l0.035,-0.011l0.034,-0.012l0.033,-0.012l0.033,-0.014l0.033,-0.014l0.032,-0.014l0.032,-0.016l0.032,-0.016l0.031,-0.017l0.03,-0.018l0.03,-0.018l0.03,-0.019l0.029,-0.02l0.029,-0.02l0.028,-0.021l0.027,-0.022l0.027,-0.022l0.027,-0.023l0.026,-0.023l0.025,-0.024l0.025,-0.025l0.024,-0.025l0.023,-0.026l0.023,-0.026l0.022,-0.027l0.022,-0.028l0.021,-0.028l0.02,-0.028l0.019,-0.029l0.019,-0.03l0.018,-0.03l0.017,-0.03l0.017,-0.031l0.016,-0.031l0.014,-0.032l0.015,-0.032l0.013,-0.033l0.013,-0.033l0.011,-0.034l0.011,-0.034l0.01,-0.034l0.01,-0.035l0.008,-0.035l0.007,-0.035l0.007,-0.036l0.006,-0.036l0.004,-0.036l0.004,-0.037l0.003,-0.037l0.002,-0.036l0.001,-0.037l-0.001,-0.036l-0.001,-0.036l-0.002,-0.036l-0.002,-0.036l-0.004,-0.036l-0.005,-0.035l-0.006,-0.035l-0.006,-0.035l-0.008,-0.034l-0.008,-0.035l-0.009,-0.034l-0.01,-0.033l-0.011,-0.034l-0.011,-0.033l-0.013,-0.032l-0.013,-0.033l-0.014,-0.032l-0.015,-0.031l-0.015,-0.032l-0.017,-0.03l-0.017,-0.031l-0.018,-0.03l-0.018,-0.029l-0.019,-0.03l-0.02,-0.028l-0.021,-0.028l-0.021,-0.028l-0.022,-0.027l-0.023,-0.027l-0.023,-0.026l-0.024,-0.026l-0.024,-0.025l-0.026,-0.024l-0.025,-0.024l-0.027,-0.024l-0.027,-0.022l-0.027,-0.022l-0.028,-0.022l-0.029,-0.021l-0.029,-0.02l-0.03,-0.02l-0.03,-0.019l-0.031,-0.018l-0.031,-0.017l-0.032,-0.017l-0.032,-0.016l-0.033,-0.016l-0.033,-0.015l-0.034,-0.013l-0.034,-0.014l-0.034,-0.012l-0.035,-0.011l-0.035,-0.011l-0.036,-0.01l-0.036,-0.009l-0.037,-0.009l-0.036,-0.007l-0.038,-0.007l-0.037,-0.005l-0.038,-0.005l-0.038,-0.004l-0.038,-0.003l-0.038,-0.002l-0.038,-0.001l-0.038,0l-0.038,0.001Z"/><path d="M84.114,116.974l2.974,3.216l17.398,1.554l4.014,-2.592" style="fill:none;stroke:#000;stroke-width:1px;"/><path d="M84.114,116.974l2.974,3.216l17.398,1.554l4.014,-2.592" style="fill:none;stroke:#000;stroke-width:1px;"/></g><g transform="matrix(1,0,0,1,11,13.8138)"><text x="73.989px" y="11.2px" style="font-family:'PTSans-Bold', 'PT Sans', sans-serif;font-weight:700;font-size:16px;fill:url(#_Linear1);">Sorry</text><text x="5.157px" y="35.2px" style="font-family:'PTSans-Regular', 'PT Sans', sans-serif;font-size:16px;fill:url(#_Linear2);">There are no settings <tspan x="154.261px 161.541px 169.669px 175.349px " y="35.2px 35.2px 35.2px 35.2px ">yet.</tspan></text></g><path d="M191.531,1.001l0.181,0.004l0.182,0.005l0.181,0.008l0.181,0.01l0.181,0.012l0.18,0.015l0.18,0.017l0.179,0.019l0.179,0.021l0.179,0.023l0.178,0.026l0.178,0.027l0.177,0.03l0.177,0.032l0.176,0.034l0.176,0.036l0.175,0.039l0.175,0.04l0.174,0.043l0.173,0.045l0.173,0.046l0.172,0.049l0.172,0.051l0.171,0.053l0.17,0.056l0.169,0.057l0.169,0.059l0.168,0.061l0.167,0.064l0.166,0.065l0.165,0.067l0.165,0.07l0.164,0.071l0.163,0.073l0.162,0.076l0.161,0.077l0.16,0.079l0.159,0.082l0.159,0.083l0.157,0.085l0.156,0.087l0.156,0.089l0.154,0.091l0.153,0.093l0.152,0.095l0.151,0.097l0.15,0.099l0.149,0.1l0.148,0.103l0.146,0.104l0.145,0.106l0.144,0.108l0.143,0.11l0.142,0.112l0.14,0.113l0.139,0.115l0.138,0.118l0.136,0.119l0.135,0.12l0.134,0.123l0.132,0.124l0.131,0.126l0.13,0.128l0.128,0.13l0.126,0.131l0.124,0.132l0.123,0.134l0.12,0.135l0.119,0.136l0.118,0.138l0.115,0.139l0.113,0.14l0.112,0.142l0.11,0.143l0.108,0.144l0.106,0.145l0.104,0.146l0.103,0.148l0.1,0.149l0.099,0.15l0.097,0.151l0.095,0.152l0.093,0.153l0.091,0.154l0.089,0.156l0.087,0.156l0.085,0.157l0.083,0.159l0.082,0.159l0.079,0.16l0.077,0.161l0.076,0.162l0.073,0.163l0.071,0.164l0.07,0.165l0.067,0.165l0.065,0.166l0.064,0.167l0.061,0.168l0.059,0.169l0.057,0.169l0.056,0.17l0.053,0.171l0.051,0.172l0.049,0.172l0.046,0.173l0.045,0.173l0.043,0.174l0.04,0.175l0.039,0.175l0.036,0.176l0.034,0.176l0.032,0.177l0.03,0.177l0.027,0.178l0.026,0.178l0.023,0.179l0.021,0.179l0.019,0.179l0.017,0.18l0.015,0.18l0.012,0.181l0.01,0.181l0.008,0.181l0.005,0.182l0.004,0.181l0.001,0.182l0,34.625l-0.001,0.182l-0.004,0.182l-0.005,0.181l-0.008,0.182l-0.01,0.181l-0.012,0.18l-0.015,0.18l-0.017,0.18l-0.019,0.18l-0.021,0.179l-0.023,0.178l-0.026,0.179l-0.027,0.177l-0.03,0.178l-0.032,0.177l-0.034,0.176l-0.036,0.176l-0.039,0.175l-0.04,0.174l-0.043,0.174l-0.045,0.174l-0.046,0.173l-0.049,0.172l-0.051,0.171l-0.053,0.171l-0.056,0.17l-0.057,0.17l-0.059,0.168l-0.061,0.168l-0.064,0.167l-0.065,0.167l-0.067,0.165l-0.07,0.165l-0.071,0.163l-0.073,0.163l-0.076,0.162l-0.077,0.162l-0.079,0.16l-0.082,0.159l-0.083,0.158l-0.085,0.158l-0.087,0.156l-0.089,0.155l-0.091,0.155l-0.093,0.153l-0.095,0.152l-0.097,0.151l-0.099,0.15l-0.1,0.149l-0.103,0.147l-0.104,0.147l-0.106,0.145l-0.108,0.144l-0.11,0.143l-0.112,0.141l-0.113,0.141l-0.115,0.139l-0.118,0.137l-0.119,0.137l-0.12,0.135l-0.123,0.134l-0.124,0.132l-0.126,0.131l-0.128,0.129l-0.13,0.128l-0.131,0.126l-0.132,0.125l-0.134,0.122l-0.135,0.121l-0.136,0.119l-0.138,0.117l-0.139,0.116l-0.14,0.113l-0.142,0.112l-0.143,0.11l-0.144,0.108l-0.145,0.106l-0.146,0.104l-0.148,0.102l-0.149,0.101l-0.15,0.099l-0.151,0.096l-0.152,0.095l-0.153,0.093l-0.154,0.091l-0.156,0.089l-0.156,0.087l-0.157,0.086l-0.159,0.083l-0.159,0.081l-0.16,0.079l-0.161,0.078l-0.162,0.075l-0.163,0.074l-0.164,0.071l-0.165,0.069l-0.165,0.068l-0.166,0.065l-0.167,0.063l-0.168,0.062l-0.169,0.059l-0.169,0.057l-0.17,0.055l-0.171,0.053l-0.172,0.051l-0.172,0.049l-0.173,0.047l-0.173,0.045l-0.174,0.042l-0.175,0.041l-0.175,0.038l-0.176,0.036l-0.176,0.035l-0.177,0.032l-0.177,0.029l-0.178,0.028l-0.178,0.026l-0.179,0.023l-0.179,0.021l-0.179,0.019l-0.18,0.017l-0.18,0.014l-0.181,0.012l-0.181,0.011l-0.181,0.007l-0.182,0.006l-0.181,0.003l-0.182,0.002l-80.764,0l-11.429,9.5l-11.58,-9.5l-71.925,0l-0.182,-0.002l-0.181,-0.003l-0.182,-0.006l-0.181,-0.007l-0.181,-0.011l-0.181,-0.012l-0.18,-0.014l-0.18,-0.017l-0.179,-0.019l-0.179,-0.021l-0.179,-0.023l-0.178,-0.026l-0.178,-0.028l-0.177,-0.029l-0.177,-0.032l-0.176,-0.035l-0.176,-0.036l-0.175,-0.038l-0.175,-0.041l-0.174,-0.042l-0.173,-0.045l-0.173,-0.047l-0.172,-0.049l-0.172,-0.051l-0.171,-0.053l-0.17,-0.055l-0.169,-0.057l-0.169,-0.059l-0.168,-0.062l-0.167,-0.063l-0.166,-0.065l-0.165,-0.068l-0.165,-0.069l-0.164,-0.071l-0.163,-0.074l-0.162,-0.075l-0.161,-0.078l-0.16,-0.079l-0.159,-0.081l-0.159,-0.083l-0.157,-0.086l-0.156,-0.087l-0.156,-0.089l-0.154,-0.091l-0.153,-0.093l-0.152,-0.095l-0.151,-0.096l-0.15,-0.099l-0.149,-0.101l-0.148,-0.102l-0.146,-0.104l-0.145,-0.106l-0.144,-0.108l-0.143,-0.11l-0.142,-0.112l-0.14,-0.113l-0.139,-0.116l-0.138,-0.117l-0.136,-0.119l-0.135,-0.121l-0.134,-0.122l-0.132,-0.125l-0.131,-0.126l-0.13,-0.128l-0.128,-0.129l-0.126,-0.131l-0.124,-0.132l-0.123,-0.134l-0.12,-0.135l-0.119,-0.137l-0.118,-0.137l-0.115,-0.139l-0.113,-0.141l-0.112,-0.141l-0.11,-0.143l-0.108,-0.144l-0.106,-0.145l-0.104,-0.147l-0.103,-0.147l-0.1,-0.149l-0.099,-0.15l-0.097,-0.151l-0.095,-0.152l-0.093,-0.153l-0.091,-0.155l-0.089,-0.155l-0.087,-0.156l-0.085,-0.158l-0.083,-0.158l-0.082,-0.159l-0.079,-0.16l-0.077,-0.162l-0.076,-0.162l-0.073,-0.163l-0.071,-0.163l-0.07,-0.165l-0.067,-0.165l-0.065,-0.167l-0.064,-0.167l-0.061,-0.168l-0.059,-0.168l-0.057,-0.17l-0.056,-0.17l-0.053,-0.171l-0.051,-0.171l-0.049,-0.172l-0.046,-0.173l-0.045,-0.174l-0.043,-0.174l-0.04,-0.174l-0.039,-0.175l-0.036,-0.176l-0.034,-0.176l-0.032,-0.177l-0.03,-0.178l-0.027,-0.177l-0.026,-0.179l-0.023,-0.178l-0.021,-0.179l-0.019,-0.18l-0.017,-0.18l-0.015,-0.18l-0.012,-0.18l-0.01,-0.181l-0.008,-0.182l-0.005,-0.181l-0.004,-0.182l-0.001,-0.182l0,-34.625l0.001,-0.182l0.004,-0.181l0.005,-0.182l0.008,-0.181l0.01,-0.181l0.012,-0.181l0.015,-0.18l0.017,-0.18l0.019,-0.179l0.021,-0.179l0.023,-0.179l0.026,-0.178l0.027,-0.178l0.03,-0.177l0.032,-0.177l0.034,-0.176l0.036,-0.176l0.039,-0.175l0.04,-0.175l0.043,-0.174l0.045,-0.173l0.046,-0.173l0.049,-0.172l0.051,-0.172l0.053,-0.171l0.056,-0.17l0.057,-0.169l0.059,-0.169l0.061,-0.168l0.064,-0.167l0.065,-0.166l0.067,-0.165l0.07,-0.165l0.071,-0.164l0.073,-0.163l0.076,-0.162l0.077,-0.161l0.079,-0.16l0.082,-0.159l0.083,-0.159l0.085,-0.157l0.087,-0.156l0.089,-0.156l0.091,-0.154l0.093,-0.153l0.095,-0.152l0.097,-0.151l0.099,-0.15l0.1,-0.149l0.103,-0.148l0.104,-0.146l0.106,-0.145l0.108,-0.144l0.11,-0.143l0.112,-0.142l0.113,-0.14l0.115,-0.139l0.118,-0.138l0.119,-0.136l0.12,-0.135l0.123,-0.134l0.124,-0.132l0.126,-0.131l0.128,-0.13l0.13,-0.128l0.131,-0.126l0.132,-0.124l0.134,-0.123l0.135,-0.12l0.136,-0.119l0.138,-0.118l0.139,-0.115l0.14,-0.113l0.142,-0.112l0.143,-0.11l0.144,-0.108l0.145,-0.106l0.146,-0.104l0.148,-0.103l0.149,-0.1l0.15,-0.099l0.151,-0.097l0.152,-0.095l0.153,-0.093l0.154,-0.091l0.156,-0.089l0.156,-0.087l0.157,-0.085l0.159,-0.083l0.159,-0.082l0.16,-0.079l0.161,-0.077l0.162,-0.076l0.163,-0.073l0.164,-0.071l0.165,-0.07l0.165,-0.067l0.166,-0.065l0.167,-0.064l0.168,-0.061l0.169,-0.059l0.169,-0.057l0.17,-0.056l0.171,-0.053l0.172,-0.051l0.172,-0.049l0.173,-0.046l0.173,-0.045l0.174,-0.043l0.175,-0.04l0.175,-0.039l0.176,-0.036l0.176,-0.034l0.177,-0.032l0.177,-0.03l0.178,-0.027l0.178,-0.026l0.179,-0.023l0.179,-0.021l0.179,-0.019l0.18,-0.017l0.18,-0.015l0.181,-0.012l0.181,-0.01l0.181,-0.008l0.182,-0.005l0.181,-0.004l0.182,-0.001l175.698,0l0.182,0.001Zm-175.876,0.999l-0.173,0.001l-0.17,0.003l-0.169,0.005l-0.168,0.008l-0.169,0.009l-0.168,0.012l-0.168,0.013l-0.168,0.016l-0.167,0.017l-0.167,0.02l-0.166,0.022l-0.167,0.024l-0.165,0.025l-0.165,0.028l-0.165,0.03l-0.165,0.032l-0.163,0.033l-0.163,0.036l-0.163,0.038l-0.162,0.04l-0.162,0.041l-0.161,0.044l-0.16,0.046l-0.16,0.047l-0.159,0.05l-0.158,0.051l-0.158,0.053l-0.158,0.055l-0.156,0.057l-0.156,0.06l-0.155,0.06l-0.154,0.063l-0.153,0.065l-0.153,0.066l-0.152,0.069l-0.151,0.07l-0.15,0.072l-0.149,0.074l-0.148,0.076l-0.148,0.077l-0.146,0.08l-0.146,0.081l-0.145,0.083l-0.144,0.085l-0.142,0.086l-0.142,0.089l-0.14,0.09l-0.14,0.092l-0.139,0.093l-0.138,0.096l-0.136,0.097l-0.135,0.099l-0.135,0.101l-0.133,0.102l-0.131,0.104l-0.131,0.106l-0.13,0.107l-0.128,0.109l-0.127,0.111l-0.126,0.113l-0.124,0.114l-0.124,0.116l-0.122,0.117l-0.12,0.119l-0.12,0.121l-0.118,0.123l-0.115,0.122l-0.114,0.125l-0.113,0.126l-0.111,0.127l-0.109,0.128l-0.107,0.13l-0.106,0.13l-0.105,0.133l-0.102,0.132l-0.1,0.134l-0.099,0.136l-0.097,0.136l-0.095,0.138l-0.094,0.139l-0.092,0.139l-0.09,0.141l-0.089,0.142l-0.087,0.143l-0.085,0.144l-0.082,0.144l-0.081,0.145l-0.08,0.147l-0.077,0.147l-0.076,0.149l-0.074,0.15l-0.072,0.149l-0.07,0.151l-0.069,0.152l-0.066,0.153l-0.065,0.153l-0.063,0.154l-0.061,0.156l-0.059,0.155l-0.057,0.156l-0.055,0.157l-0.053,0.159l-0.052,0.158l-0.049,0.159l-0.047,0.16l-0.046,0.16l-0.044,0.162l-0.041,0.161l-0.04,0.162l-0.038,0.163l-0.035,0.163l-0.034,0.164l-0.032,0.165l-0.03,0.164l-0.028,0.165l-0.025,0.166l-0.024,0.165l-0.022,0.166l-0.02,0.169l-0.017,0.167l-0.016,0.166l-0.013,0.169l-0.012,0.168l-0.009,0.168l-0.008,0.169l-0.005,0.169l-0.003,0.17l-0.001,0.172l0,34.62l0.001,0.172l0.003,0.169l0.005,0.169l0.008,0.169l0.009,0.169l0.012,0.168l0.013,0.168l0.016,0.167l0.017,0.167l0.02,0.168l0.022,0.166l0.024,0.166l0.025,0.166l0.028,0.165l0.03,0.164l0.032,0.165l0.034,0.164l0.035,0.163l0.038,0.163l0.04,0.161l0.041,0.162l0.044,0.161l0.046,0.161l0.047,0.16l0.049,0.158l0.052,0.159l0.053,0.158l0.055,0.157l0.057,0.157l0.059,0.155l0.061,0.155l0.063,0.154l0.065,0.153l0.066,0.153l0.069,0.153l0.07,0.15l0.072,0.15l0.074,0.15l0.076,0.149l0.077,0.146l0.08,0.147l0.081,0.146l0.082,0.144l0.085,0.144l0.087,0.143l0.089,0.142l0.09,0.14l0.092,0.14l0.094,0.139l0.095,0.137l0.097,0.136l0.099,0.136l0.1,0.134l0.103,0.133l0.104,0.132l0.106,0.131l0.107,0.129l0.109,0.128l0.111,0.128l0.113,0.126l0.114,0.124l0.115,0.123l0.118,0.123l0.12,0.12l0.12,0.119l0.122,0.118l0.124,0.116l0.124,0.114l0.126,0.112l0.127,0.111l0.128,0.11l0.13,0.107l0.13,0.106l0.132,0.104l0.133,0.102l0.135,0.101l0.135,0.099l0.136,0.097l0.138,0.095l0.139,0.094l0.14,0.092l0.14,0.09l0.142,0.088l0.142,0.087l0.144,0.085l0.145,0.083l0.146,0.081l0.146,0.079l0.148,0.078l0.148,0.076l0.149,0.074l0.15,0.072l0.151,0.07l0.152,0.068l0.153,0.067l0.153,0.064l0.154,0.063l0.155,0.061l0.156,0.059l0.156,0.057l0.158,0.055l0.158,0.054l0.158,0.051l0.159,0.049l0.16,0.048l0.16,0.046l0.161,0.043l0.162,0.042l0.162,0.04l0.163,0.037l0.163,0.036l0.164,0.034l0.164,0.032l0.165,0.029l0.165,0.028l0.165,0.026l0.167,0.024l0.166,0.021l0.167,0.02l0.167,0.018l0.168,0.015l0.168,0.014l0.168,0.011l0.169,0.01l0.168,0.007l0.17,0.005l0.169,0.004l0.173,0.001l71.92,0l0.227,0.026l0.216,0.077l0.192,0.123l10.942,8.977l10.794,-8.972l0.193,-0.126l0.217,-0.079l0.229,-0.026l80.761,0l0.172,-0.001l0.169,-0.004l0.17,-0.005l0.169,-0.007l0.168,-0.01l0.168,-0.011l0.168,-0.014l0.168,-0.015l0.167,-0.018l0.167,-0.02l0.167,-0.021l0.165,-0.024l0.166,-0.026l0.166,-0.028l0.164,-0.029l0.164,-0.032l0.164,-0.034l0.163,-0.036l0.163,-0.037l0.162,-0.04l0.162,-0.042l0.161,-0.043l0.16,-0.046l0.16,-0.048l0.159,-0.049l0.158,-0.051l0.158,-0.054l0.157,-0.055l0.157,-0.057l0.156,-0.059l0.155,-0.061l0.154,-0.063l0.153,-0.064l0.153,-0.067l0.152,-0.068l0.151,-0.07l0.15,-0.072l0.149,-0.074l0.149,-0.076l0.147,-0.078l0.146,-0.079l0.146,-0.081l0.145,-0.083l0.143,-0.085l0.143,-0.087l0.142,-0.088l0.141,-0.09l0.139,-0.092l0.139,-0.094l0.137,-0.095l0.137,-0.097l0.135,-0.099l0.134,-0.101l0.134,-0.102l0.131,-0.104l0.131,-0.106l0.13,-0.107l0.128,-0.11l0.127,-0.111l0.126,-0.112l0.124,-0.114l0.124,-0.116l0.122,-0.118l0.121,-0.119l0.119,-0.121l0.117,-0.121l0.116,-0.123l0.114,-0.126l0.113,-0.125l0.111,-0.127l0.109,-0.129l0.107,-0.129l0.106,-0.131l0.104,-0.132l0.103,-0.133l0.1,-0.134l0.099,-0.136l0.097,-0.136l0.096,-0.138l0.094,-0.138l0.091,-0.14l0.091,-0.14l0.088,-0.142l0.086,-0.143l0.085,-0.143l0.083,-0.145l0.081,-0.146l0.08,-0.147l0.077,-0.147l0.076,-0.148l0.074,-0.15l0.072,-0.15l0.07,-0.15l0.069,-0.153l0.066,-0.153l0.065,-0.153l0.062,-0.154l0.062,-0.155l0.059,-0.155l0.056,-0.157l0.056,-0.158l0.053,-0.157l0.051,-0.158l0.05,-0.16l0.048,-0.159l0.045,-0.161l0.044,-0.161l0.041,-0.161l0.04,-0.163l0.038,-0.162l0.035,-0.163l0.034,-0.164l0.032,-0.164l0.03,-0.165l0.028,-0.165l0.025,-0.166l0.024,-0.167l0.022,-0.166l0.02,-0.166l0.017,-0.167l0.016,-0.168l0.013,-0.168l0.012,-0.168l0.009,-0.169l0.008,-0.17l0.005,-0.168l0.003,-0.169l0.001,-0.173l0,-34.618l-0.001,-0.173l-0.003,-0.17l-0.005,-0.168l-0.008,-0.17l-0.009,-0.168l-0.012,-0.168l-0.013,-0.169l-0.016,-0.167l-0.017,-0.167l-0.02,-0.167l-0.022,-0.166l-0.024,-0.166l-0.025,-0.166l-0.028,-0.165l-0.03,-0.165l-0.032,-0.164l-0.034,-0.164l-0.035,-0.163l-0.038,-0.162l-0.04,-0.164l-0.041,-0.16l-0.044,-0.162l-0.045,-0.16l-0.048,-0.16l-0.05,-0.16l-0.051,-0.157l-0.053,-0.158l-0.056,-0.158l-0.056,-0.156l-0.059,-0.155l-0.062,-0.156l-0.062,-0.154l-0.065,-0.153l-0.066,-0.153l-0.069,-0.152l-0.07,-0.151l-0.072,-0.15l-0.074,-0.149l-0.076,-0.148l-0.077,-0.148l-0.08,-0.147l-0.081,-0.145l-0.083,-0.145l-0.085,-0.144l-0.086,-0.142l-0.089,-0.142l-0.09,-0.141l-0.091,-0.139l-0.094,-0.139l-0.096,-0.138l-0.097,-0.136l-0.099,-0.135l-0.1,-0.135l-0.103,-0.132l-0.104,-0.133l-0.106,-0.13l-0.107,-0.13l-0.109,-0.128l-0.111,-0.127l-0.112,-0.126l-0.115,-0.125l-0.116,-0.123l-0.117,-0.121l-0.119,-0.121l-0.121,-0.12l-0.122,-0.117l-0.124,-0.116l-0.124,-0.114l-0.126,-0.113l-0.127,-0.111l-0.128,-0.109l-0.13,-0.107l-0.131,-0.106l-0.132,-0.104l-0.133,-0.103l-0.134,-0.1l-0.135,-0.099l-0.137,-0.097l-0.137,-0.096l-0.139,-0.093l-0.139,-0.092l-0.141,-0.09l-0.142,-0.089l-0.143,-0.087l-0.143,-0.084l-0.145,-0.083l-0.145,-0.081l-0.147,-0.08l-0.148,-0.077l-0.148,-0.076l-0.149,-0.074l-0.151,-0.072l-0.15,-0.07l-0.152,-0.069l-0.153,-0.066l-0.153,-0.065l-0.154,-0.063l-0.155,-0.06l-0.156,-0.06l-0.157,-0.057l-0.157,-0.055l-0.158,-0.053l-0.158,-0.051l-0.159,-0.05l-0.16,-0.047l-0.16,-0.046l-0.161,-0.044l-0.162,-0.041l-0.162,-0.04l-0.163,-0.038l-0.163,-0.035l-0.164,-0.034l-0.164,-0.032l-0.165,-0.03l-0.165,-0.028l-0.166,-0.025l-0.166,-0.024l-0.166,-0.022l-0.167,-0.02l-0.167,-0.017l-0.168,-0.016l-0.168,-0.013l-0.168,-0.012l-0.169,-0.009l-0.168,-0.008l-0.169,-0.005l-0.17,-0.003l-0.172,-0.001l-175.691,0Z"/><path d="M103.156,164.24l5.943,2.104c0.111,0.004 0.221,0.042 0.305,0.123l3.561,3.329c0.025,0.018 0.045,0.038 0.066,0.061l0.005,0.004c0.003,0.003 0.003,0.007 0.006,0.009c0.029,0.034 0.056,0.069 0.076,0.111c0.021,0.04 0.031,0.082 0.039,0.126c0.002,0.01 0.007,0.017 0.009,0.027c0,0.004 -0.002,0.008 -0.002,0.012c0.004,0.043 -0.002,0.085 -0.011,0.128c-0.003,0.022 -0.006,0.044 -0.013,0.064c-0.007,0.021 -0.019,0.039 -0.03,0.059c-0.02,0.039 -0.042,0.075 -0.072,0.107c-0.002,0.003 -0.003,0.006 -0.006,0.009c-0.007,0.007 -0.016,0.01 -0.024,0.016c-0.033,0.029 -0.068,0.055 -0.109,0.073c-0.042,0.02 -0.084,0.031 -0.129,0.039c-0.004,0 -0.007,0.003 -0.01,0.003l-0.007,0c-0.03,0.004 -0.059,0.008 -0.089,0.007l-4.859,0.348c-0.116,0.009 -0.225,-0.031 -0.314,-0.098l-4.519,-1.6l-1.438,-0.509l0.304,-0.852l5.631,1.994l1.006,-2.851l-5.623,-1.991l0.304,-0.852Zm8.407,5.539l-2.317,-2.165l-0.844,2.392l3.161,-0.227Zm-13.365,-2.168l-7.838,-2.775c-0.295,0.277 -0.396,0.72 -0.212,1.105c0.122,0.255 0.342,0.428 0.593,0.502l0,0.001l2.005,0.71l0.001,-0.002l4.219,1.494c0.235,0.083 0.358,0.342 0.276,0.577c-0.083,0.235 -0.342,0.359 -0.577,0.276l-6.2,-2.196c-0.011,-0.004 -0.017,-0.012 -0.027,-0.016c-0.465,-0.152 -0.871,-0.483 -1.099,-0.959c-0.289,-0.606 -0.211,-1.285 0.133,-1.807l-1.551,-0.549c-0.026,-0.005 -0.053,-0.002 -0.079,-0.011c-0.121,-0.044 -0.211,-0.134 -0.26,-0.243c-0.054,-0.107 -0.068,-0.233 -0.025,-0.355c0.009,-0.026 0.028,-0.045 0.041,-0.068l0.15,-0.426l-1.66,-0.588c-0.026,-0.004 -0.053,-0.002 -0.079,-0.011c-0.121,-0.043 -0.211,-0.134 -0.26,-0.243c-0.054,-0.106 -0.068,-0.233 -0.025,-0.355c0.009,-0.026 0.028,-0.045 0.041,-0.068l0.601,-1.705c0.004,-0.026 0.002,-0.053 0.011,-0.079c0.044,-0.12 0.134,-0.21 0.243,-0.258c0.106,-0.054 0.233,-0.068 0.354,-0.026c0.026,0.01 0.045,0.028 0.069,0.042l1.66,0.587l0.15,-0.426c0.004,-0.026 0.002,-0.053 0.011,-0.079c0.043,-0.121 0.133,-0.211 0.242,-0.26c0.106,-0.054 0.233,-0.067 0.354,-0.025c0.026,0.009 0.045,0.028 0.069,0.041l10.283,3.641l-0.302,0.852l-9.929,-3.515l-1.006,2.851l9.925,3.514l-0.302,0.852Zm-11.456,-6.057l1.307,0.463l0.353,-0.999l-1.308,-0.463l-0.352,0.999Z"/><defs><linearGradient id="_Linear1" x1="0" y1="0" x2="1" y2="0" gradientUnits="userSpaceOnUse" gradientTransform="matrix(5,-2,2,5,1682,716.51)"><stop offset="0" style="stop-color:#000;stop-opacity:1"/><stop offset="1" style="stop-color:#000;stop-opacity:0"/></linearGradient><linearGradient id="_Linear2" x1="0" y1="0" x2="1" y2="0" gradientUnits="userSpaceOnUse" gradientTransform="matrix(5,-2,2,5,1682,716.51)"><stop offset="0" style="stop-color:#000;stop-opacity:1"/><stop offset="1" style="stop-color:#000;stop-opacity:0"/></linearGradient></defs></svg>