<?xml version="1.0" standalone="no"?><!DOCTYPE svg PUBLIC "-//W3C//DTD SVG 1.1//EN" "http://www.w3.org/Graphics/SVG/1.1/DTD/svg11.dtd"><svg width="100%" height="100%" viewBox="0 0 18 19" version="1.1" xmlns="http://www.w3.org/2000/svg" xmlns:xlink="http://www.w3.org/1999/xlink" xml:space="preserve" style="fill-rule:evenodd;clip-rule:evenodd;stroke-linejoin:round;stroke-miterlimit:1.41421;"><clipPath id="_clip1"><path id="Artboard Default" d="M225.566,-693.492c0,-0.931 -0.369,-1.823 -1.027,-2.481c-0.658,-0.657 -1.55,-1.027 -2.48,-1.027c-66.31,0 -1051.57,0 -1145.83,0c-1.918,0 -3.757,0.762 -5.112,2.118c-1.356,1.355 -2.118,3.194 -2.118,5.112c0,71.85 0,656.219 0,713.72c0,2.513 2.037,4.55 4.55,4.55c75.579,0 1068.36,0 1147.07,0c2.732,0 4.946,-2.215 4.946,-4.946c0,-60.944 0,-665.443 0,-717.046Z"/></clipPath><g clip-path="url(#_clip1)"><g><path d="M10.5,0.276c-3.966,7.344 -3.5,11 -3.5,11l3.5,0l0,7.5" style="fill:none;stroke-width:1px;stroke:#000;"/><path d="M0.5,14.276c2.532,1.123 4.874,1.5 8.454,1.5c3.58,0 6.014,-0.377 8.546,-1.5l-0.587,-0.957c-2.111,0.936 -4.974,1.462 -7.959,1.462c-2.985,0 -5.848,-0.526 -7.959,-1.462l-0.495,0.957Z" style="fill:#000;"/><rect x="13" y="2.776" width="1" height="3" style="fill:#000;"/><rect x="3" y="2.859" width="1" height="2.917" style="fill:#000;"/></g></g></svg>