<?xml version="1.0" standalone="no"?><!DOCTYPE svg PUBLIC "-//W3C//DTD SVG 1.1//EN" "http://www.w3.org/Graphics/SVG/1.1/DTD/svg11.dtd"><svg width="100%" height="100%" viewBox="0 0 24 14" version="1.1" xmlns="http://www.w3.org/2000/svg" xmlns:xlink="http://www.w3.org/1999/xlink" xml:space="preserve" style="fill-rule:evenodd;clip-rule:evenodd;stroke-linejoin:round;stroke-miterlimit:1.41421;"><clipPath id="_clip1"><path id="Artboard Default" d="M973.566,-12.492c0,-0.931 -0.369,-1.823 -1.027,-2.481c-0.658,-0.657 -1.55,-1.027 -2.48,-1.027c-66.31,0 -1051.57,0 -1145.83,0c-1.918,0 -3.757,0.762 -5.112,2.118c-1.356,1.355 -2.118,3.194 -2.118,5.112c0,71.85 0,656.219 0,713.72c0,2.513 2.037,4.55 4.55,4.55c75.579,0 1068.36,0 1147.07,0c2.732,0 4.946,-2.215 4.946,-4.946c0,-60.944 0,-665.443 0,-717.046Z"/></clipPath><g clip-path="url(#_clip1)"><g id="fav bar"><path d="M21.724,12.715c-0.127,-0.003 -0.248,-0.055 -0.339,-0.145c-1.186,-1.186 -9.488,-9.489 -9.488,-9.489c0,0 -8.341,8.341 -9.497,9.497c-0.085,0.085 -0.199,0.134 -0.319,0.137c-0.001,0 -0.001,0 -0.002,0c-0.449,0.01 -0.859,-0.253 -1.035,-0.666c-0.177,-0.412 -0.085,-0.891 0.232,-1.208c2.695,-2.694 7.475,-7.475 9.579,-9.578c0.575,-0.576 1.509,-0.576 2.084,0c2.105,2.105 6.893,6.892 9.585,9.585c0.317,0.316 0.408,0.793 0.232,1.204c-0.176,0.411 -0.584,0.674 -1.031,0.663c0,0 0,0 -0.001,0Z" style="fill:#000;fill-rule:nonzero;"/></g></g></svg>