<?xml version="1.0" standalone="no"?><!DOCTYPE svg PUBLIC "-//W3C//DTD SVG 1.1//EN" "http://www.w3.org/Graphics/SVG/1.1/DTD/svg11.dtd"><svg width="100%" height="100%" viewBox="0 0 19 20" version="1.1" xmlns="http://www.w3.org/2000/svg" xmlns:xlink="http://www.w3.org/1999/xlink" xml:space="preserve" style="fill-rule:evenodd;clip-rule:evenodd;stroke-linejoin:round;stroke-miterlimit:1.41421;"><clipPath id="_clip1"><path id="Artboard Default" d="M428.566,-6.492c0,-0.931 -0.369,-1.823 -1.027,-2.481c-0.658,-0.657 -1.55,-1.027 -2.48,-1.027c-66.31,0 -1051.57,0 -1145.83,0c-1.918,0 -3.757,0.762 -5.112,2.118c-1.356,1.355 -2.118,3.194 -2.118,5.112c0,71.85 0,656.219 0,713.72c0,2.513 2.037,4.55 4.55,4.55c75.579,0 1068.36,0 1147.07,0c2.732,0 4.946,-2.215 4.946,-4.946c0,-60.944 0,-665.443 0,-717.046Z"/></clipPath><g clip-path="url(#_clip1)"><g id="View Center"><g><path d="M17,0l0,1l2,2l0,8l-2,2l0,6l-15,0l0,-19l15,0ZM3,1l0,17l13,0l0,-5l0.003,-0.078l0.009,-0.078l0.016,-0.077l0.021,-0.076l0.027,-0.074l0.033,-0.071l0.038,-0.069l0.044,-0.065l0.049,-0.061l0.053,-0.058l1.707,-1.707l0,-7.172l-1.707,-1.707l-0.053,-0.058l-0.049,-0.061l-0.044,-0.065l-0.038,-0.069l-0.033,-0.071l-0.027,-0.074l-0.021,-0.076l-0.016,-0.077l-0.009,-0.078l-0.003,-0.078c0,0 -13,0 -13,0Z" style="fill:#000;"/><path d="M14,0l0,19l-12,0l0,-19l12,0ZM3,1l0,17l10,0l0,-17l-10,0Z" style="fill:#000;"/><g><circle cx="6.5" cy="13.5" r="6.5" style="fill:#fff;"/><path d="M6.584,7.001l0.084,0.001l0.083,0.003l0.083,0.003l0.083,0.005l0.083,0.006l0.082,0.007l0.082,0.008l0.082,0.008l0.081,0.01l0.082,0.011l0.08,0.012l0.081,0.013l0.08,0.014l0.08,0.014l0.079,0.016l0.079,0.017l0.079,0.018l0.079,0.018l0.078,0.02l0.077,0.02l0.078,0.022l0.077,0.022l0.076,0.023l0.076,0.025l0.076,0.025l0.075,0.026l0.075,0.027l0.074,0.027l0.074,0.029l0.074,0.03l0.073,0.03l0.073,0.031l0.072,0.033l0.072,0.033l0.071,0.033l0.071,0.035l0.07,0.036l0.07,0.036l0.069,0.037l0.069,0.038l0.068,0.039l0.068,0.039l0.067,0.041l0.067,0.041l0.066,0.042l0.066,0.042l0.065,0.044l0.065,0.044l0.064,0.045l0.063,0.046l0.063,0.046l0.062,0.047l0.062,0.048l0.061,0.049l0.061,0.049l0.06,0.05l0.059,0.051l0.058,0.051l0.058,0.052l0.058,0.053l0.057,0.054l0.056,0.054l0.055,0.055l0.055,0.055l0.054,0.056l0.054,0.057l0.053,0.058l0.052,0.058l0.051,0.058l0.051,0.059l0.05,0.06l0.049,0.061l0.049,0.061l0.048,0.062l0.047,0.062l0.046,0.063l0.046,0.063l0.045,0.064l0.044,0.065l0.044,0.065l0.042,0.066l0.042,0.066l0.041,0.067l0.041,0.067l0.039,0.068l0.039,0.068l0.038,0.069l0.037,0.069l0.036,0.07l0.036,0.07l0.035,0.071l0.033,0.071l0.033,0.072l0.033,0.072l0.031,0.073l0.03,0.073l0.03,0.074l0.029,0.074l0.027,0.074l0.027,0.075l0.026,0.075l0.025,0.076l0.025,0.076l0.023,0.076l0.022,0.077l0.022,0.078l0.02,0.077l0.02,0.078l0.018,0.079l0.018,0.079l0.017,0.079l0.016,0.079l0.014,0.08l0.014,0.08l0.013,0.081l0.012,0.08l0.011,0.082l0.01,0.081l0.008,0.082l0.008,0.082l0.007,0.082l0.006,0.083l0.005,0.083l0.003,0.083l0.003,0.083l0.001,0.084l0.001,0.084l-0.001,0.084l-0.001,0.084l-0.003,0.083l-0.003,0.083l-0.005,0.083l-0.006,0.083l-0.007,0.082l-0.008,0.082l-0.008,0.082l-0.01,0.081l-0.011,0.082l-0.012,0.08l-0.013,0.081l-0.014,0.08l-0.014,0.08l-0.016,0.079l-0.017,0.079l-0.018,0.079l-0.018,0.079l-0.02,0.078l-0.02,0.077l-0.022,0.078l-0.022,0.077l-0.023,0.076l-0.025,0.076l-0.025,0.076l-0.026,0.075l-0.027,0.075l-0.027,0.074l-0.029,0.074l-0.03,0.074l-0.03,0.073l-0.031,0.073l-0.033,0.072l-0.033,0.072l-0.033,0.071l-0.035,0.071l-0.036,0.07l-0.036,0.07l-0.037,0.069l-0.038,0.069l-0.039,0.068l-0.039,0.068l-0.041,0.067l-0.041,0.067l-0.042,0.066l-0.042,0.066l-0.044,0.065l-0.044,0.065l-0.045,0.064l-0.046,0.063l-0.046,0.063l-0.047,0.062l-0.048,0.062l-0.049,0.061l-0.049,0.061l-0.05,0.06l-0.051,0.059l-0.051,0.058l-0.052,0.058l-0.053,0.058l-0.054,0.057l-0.054,0.056l-0.055,0.055l-0.055,0.055l-0.056,0.054l-0.057,0.054l-0.058,0.053l-0.058,0.052l-0.058,0.051l-0.059,0.051l-0.06,0.05l-0.061,0.049l-0.061,0.049l-0.062,0.048l-0.062,0.047l-0.063,0.046l-0.063,0.046l-0.064,0.045l-0.065,0.044l-0.065,0.044l-0.066,0.042l-0.066,0.042l-0.067,0.041l-0.067,0.041l-0.068,0.039l-0.068,0.039l-0.069,0.038l-0.069,0.037l-0.07,0.036l-0.07,0.036l-0.071,0.035l-0.071,0.033l-0.072,0.033l-0.072,0.033l-0.073,0.031l-0.073,0.03l-0.074,0.03l-0.074,0.029l-0.074,0.027l-0.075,0.027l-0.075,0.026l-0.076,0.025l-0.076,0.025l-0.076,0.023l-0.077,0.022l-0.078,0.022l-0.077,0.02l-0.078,0.02l-0.079,0.018l-0.079,0.018l-0.079,0.017l-0.079,0.016l-0.08,0.014l-0.08,0.014l-0.081,0.013l-0.08,0.012l-0.082,0.011l-0.081,0.01l-0.082,0.008l-0.082,0.008l-0.082,0.007l-0.083,0.006l-0.083,0.005l-0.083,0.003l-0.083,0.003l-0.084,0.001l-0.084,0.001l-0.084,-0.001l-0.084,-0.001l-0.083,-0.003l-0.083,-0.003l-0.083,-0.005l-0.083,-0.006l-0.082,-0.007l-0.082,-0.008l-0.082,-0.008l-0.081,-0.01l-0.082,-0.011l-0.08,-0.012l-0.081,-0.013l-0.08,-0.014l-0.08,-0.014l-0.079,-0.016l-0.079,-0.017l-0.079,-0.018l-0.079,-0.018l-0.078,-0.02l-0.077,-0.02l-0.078,-0.022l-0.077,-0.022l-0.076,-0.023l-0.076,-0.025l-0.076,-0.025l-0.075,-0.026l-0.075,-0.027l-0.074,-0.027l-0.074,-0.029l-0.074,-0.03l-0.073,-0.03l-0.073,-0.031l-0.072,-0.033l-0.072,-0.033l-0.071,-0.033l-0.071,-0.035l-0.07,-0.036l-0.07,-0.036l-0.069,-0.037l-0.069,-0.038l-0.068,-0.039l-0.068,-0.039l-0.067,-0.041l-0.067,-0.041l-0.066,-0.042l-0.066,-0.042l-0.065,-0.044l-0.065,-0.044l-0.064,-0.045l-0.063,-0.046l-0.063,-0.046l-0.062,-0.047l-0.062,-0.048l-0.061,-0.049l-0.061,-0.049l-0.06,-0.05l-0.059,-0.051l-0.058,-0.051l-0.058,-0.052l-0.058,-0.053l-0.057,-0.054l-0.056,-0.054l-0.055,-0.055l-0.055,-0.055l-0.054,-0.056l-0.054,-0.057l-0.053,-0.058l-0.052,-0.058l-0.051,-0.058l-0.051,-0.059l-0.05,-0.06l-0.049,-0.061l-0.049,-0.061l-0.048,-0.062l-0.047,-0.062l-0.046,-0.063l-0.046,-0.063l-0.045,-0.064l-0.044,-0.065l-0.044,-0.065l-0.042,-0.066l-0.042,-0.066l-0.041,-0.067l-0.041,-0.067l-0.039,-0.068l-0.039,-0.068l-0.038,-0.069l-0.037,-0.069l-0.036,-0.07l-0.036,-0.07l-0.035,-0.071l-0.033,-0.071l-0.033,-0.072l-0.033,-0.072l-0.031,-0.073l-0.03,-0.073l-0.03,-0.074l-0.029,-0.074l-0.027,-0.074l-0.027,-0.075l-0.026,-0.075l-0.025,-0.076l-0.025,-0.076l-0.023,-0.076l-0.022,-0.077l-0.022,-0.078l-0.02,-0.077l-0.02,-0.078l-0.018,-0.079l-0.018,-0.079l-0.017,-0.079l-0.016,-0.079l-0.014,-0.08l-0.014,-0.08l-0.013,-0.081l-0.012,-0.08l-0.011,-0.082l-0.01,-0.081l-0.008,-0.082l-0.008,-0.082l-0.007,-0.082l-0.006,-0.083l-0.005,-0.083l-0.003,-0.083l-0.003,-0.083l-0.001,-0.084l-0.001,-0.084l0.001,-0.084l0.001,-0.084l0.003,-0.083l0.003,-0.083l0.005,-0.083l0.006,-0.083l0.007,-0.082l0.008,-0.082l0.008,-0.082l0.01,-0.081l0.011,-0.082l0.012,-0.08l0.013,-0.081l0.014,-0.08l0.014,-0.08l0.016,-0.079l0.017,-0.079l0.018,-0.079l0.018,-0.079l0.02,-0.078l0.02,-0.077l0.022,-0.078l0.022,-0.077l0.023,-0.076l0.025,-0.076l0.025,-0.076l0.026,-0.075l0.027,-0.075l0.027,-0.074l0.029,-0.074l0.03,-0.074l0.03,-0.073l0.031,-0.073l0.033,-0.072l0.033,-0.072l0.033,-0.071l0.035,-0.071l0.036,-0.07l0.036,-0.07l0.037,-0.069l0.038,-0.069l0.039,-0.068l0.039,-0.068l0.041,-0.067l0.041,-0.067l0.042,-0.066l0.042,-0.066l0.044,-0.065l0.044,-0.065l0.045,-0.064l0.046,-0.063l0.046,-0.063l0.047,-0.062l0.048,-0.062l0.049,-0.061l0.049,-0.061l0.05,-0.06l0.051,-0.059l0.051,-0.058l0.052,-0.058l0.053,-0.058l0.054,-0.057l0.054,-0.056l0.055,-0.055l0.055,-0.055l0.056,-0.054l0.057,-0.054l0.058,-0.053l0.058,-0.052l0.058,-0.051l0.059,-0.051l0.06,-0.05l0.061,-0.049l0.061,-0.049l0.062,-0.048l0.062,-0.047l0.063,-0.046l0.063,-0.046l0.064,-0.045l0.065,-0.044l0.065,-0.044l0.066,-0.042l0.066,-0.042l0.067,-0.041l0.067,-0.041l0.068,-0.039l0.068,-0.039l0.069,-0.038l0.069,-0.037l0.07,-0.036l0.07,-0.036l0.071,-0.035l0.071,-0.033l0.072,-0.033l0.072,-0.033l0.073,-0.031l0.073,-0.03l0.074,-0.03l0.074,-0.029l0.074,-0.027l0.075,-0.027l0.075,-0.026l0.076,-0.025l0.076,-0.025l0.076,-0.023l0.077,-0.022l0.078,-0.022l0.077,-0.02l0.078,-0.02l0.079,-0.018l0.079,-0.018l0.079,-0.017l0.079,-0.016l0.08,-0.014l0.08,-0.014l0.081,-0.013l0.08,-0.012l0.082,-0.011l0.081,-0.01l0.082,-0.008l0.082,-0.008l0.082,-0.007l0.083,-0.006l0.083,-0.005l0.083,-0.003l0.083,-0.003l0.084,-0.001l0.084,-0.001l0.084,0.001ZM6.429,8l-0.071,0.002l-0.071,0.002l-0.071,0.003l-0.07,0.004l-0.07,0.005l-0.07,0.006l-0.069,0.006l-0.069,0.008l-0.069,0.008l-0.069,0.009l-0.068,0.01l-0.068,0.011l-0.068,0.012l-0.067,0.012l-0.068,0.014l-0.067,0.014l-0.066,0.015l-0.066,0.016l-0.066,0.016l-0.066,0.018l-0.065,0.018l-0.065,0.019l-0.065,0.019l-0.064,0.021l-0.064,0.021l-0.064,0.022l-0.063,0.023l-0.063,0.023l-0.062,0.024l-0.062,0.025l-0.062,0.026l-0.062,0.026l-0.061,0.028l-0.06,0.028l-0.061,0.028l-0.06,0.03l-0.059,0.029l-0.059,0.031l-0.059,0.032l-0.058,0.032l-0.058,0.032l-0.057,0.034l-0.057,0.034l-0.056,0.035l-0.056,0.035l-0.056,0.037l-0.055,0.036l-0.055,0.038l-0.054,0.038l-0.054,0.039l-0.053,0.039l-0.053,0.04l-0.052,0.04l-0.052,0.042l-0.051,0.041l-0.051,0.043l-0.05,0.043l-0.05,0.043l-0.049,0.044l-0.049,0.045l-0.048,0.046l-0.047,0.045l-0.047,0.047l-0.047,0.047l-0.046,0.047l-0.045,0.048l-0.045,0.049l-0.044,0.049l-0.043,0.05l-0.043,0.05l-0.043,0.051l-0.042,0.051l-0.041,0.052l-0.04,0.052l-0.04,0.053l-0.04,0.053l-0.038,0.054l-0.038,0.054l-0.038,0.055l-0.037,0.055l-0.036,0.056l-0.035,0.056l-0.035,0.056l-0.034,0.057l-0.033,0.057l-0.033,0.058l-0.033,0.059l-0.031,0.058l-0.03,0.059l-0.03,0.059l-0.03,0.06l-0.028,0.06l-0.028,0.061l-0.028,0.061l-0.026,0.062l-0.026,0.061l-0.025,0.063l-0.024,0.062l-0.023,0.063l-0.023,0.064l-0.022,0.063l-0.021,0.064l-0.021,0.064l-0.019,0.065l-0.019,0.065l-0.019,0.065l-0.017,0.066l-0.016,0.066l-0.016,0.066l-0.015,0.066l-0.014,0.067l-0.014,0.068l-0.012,0.067l-0.012,0.068l-0.011,0.068l-0.01,0.068l-0.009,0.069l-0.008,0.069l-0.008,0.069l-0.006,0.069l-0.006,0.07l-0.005,0.07l-0.004,0.07l-0.003,0.071l-0.002,0.071l-0.001,0.071l-0.001,0.071l0.001,0.071l0.001,0.071l0.002,0.071l0.003,0.071l0.004,0.07l0.005,0.07l0.006,0.07l0.006,0.069l0.008,0.069l0.008,0.069l0.009,0.069l0.01,0.068l0.011,0.068l0.012,0.068l0.012,0.067l0.014,0.068l0.014,0.067l0.015,0.066l0.016,0.066l0.016,0.066l0.017,0.066l0.019,0.065l0.019,0.065l0.019,0.065l0.021,0.064l0.021,0.064l0.022,0.063l0.023,0.064l0.023,0.063l0.024,0.062l0.025,0.063l0.026,0.061l0.026,0.062l0.028,0.061l0.028,0.061l0.028,0.06l0.03,0.06l0.03,0.059l0.03,0.059l0.031,0.058l0.033,0.059l0.033,0.058l0.033,0.057l0.034,0.057l0.035,0.056l0.035,0.056l0.036,0.056l0.037,0.055l0.038,0.055l0.038,0.054l0.038,0.054l0.04,0.053l0.04,0.053l0.04,0.052l0.041,0.052l0.042,0.051l0.043,0.051l0.043,0.05l0.043,0.05l0.044,0.049l0.045,0.049l0.045,0.048l0.046,0.047l0.047,0.047l0.047,0.047l0.047,0.045l0.048,0.046l0.049,0.045l0.049,0.044l0.05,0.043l0.05,0.043l0.051,0.043l0.051,0.041l0.052,0.042l0.052,0.04l0.053,0.04l0.053,0.039l0.054,0.039l0.054,0.038l0.055,0.038l0.055,0.036l0.056,0.037l0.056,0.035l0.056,0.035l0.057,0.034l0.057,0.034l0.058,0.032l0.058,0.032l0.059,0.032l0.059,0.031l0.059,0.029l0.06,0.03l0.061,0.028l0.06,0.028l0.061,0.028l0.062,0.026l0.062,0.026l0.062,0.025l0.062,0.024l0.063,0.023l0.063,0.023l0.064,0.022l0.064,0.021l0.064,0.021l0.065,0.019l0.065,0.019l0.065,0.018l0.066,0.018l0.066,0.016l0.066,0.016l0.066,0.015l0.067,0.014l0.068,0.014l0.067,0.012l0.068,0.012l0.068,0.011l0.068,0.01l0.069,0.009l0.069,0.008l0.069,0.008l0.069,0.006l0.07,0.006l0.07,0.005l0.07,0.004l0.071,0.003l0.071,0.002l0.071,0.002l0.071,0l0.071,0l0.071,-0.002l0.071,-0.002l0.071,-0.003l0.07,-0.004l0.07,-0.005l0.07,-0.006l0.069,-0.006l0.069,-0.008l0.069,-0.008l0.069,-0.009l0.068,-0.01l0.068,-0.011l0.068,-0.012l0.067,-0.012l0.068,-0.014l0.067,-0.014l0.066,-0.015l0.066,-0.016l0.066,-0.016l0.066,-0.018l0.065,-0.018l0.065,-0.019l0.065,-0.019l0.064,-0.021l0.064,-0.021l0.064,-0.022l0.063,-0.023l0.063,-0.023l0.062,-0.024l0.062,-0.025l0.062,-0.026l0.062,-0.026l0.061,-0.028l0.06,-0.028l0.061,-0.028l0.06,-0.03l0.059,-0.029l0.059,-0.031l0.059,-0.032l0.058,-0.032l0.058,-0.032l0.057,-0.034l0.057,-0.034l0.056,-0.035l0.056,-0.035l0.056,-0.037l0.055,-0.036l0.055,-0.038l0.054,-0.038l0.054,-0.039l0.053,-0.039l0.053,-0.04l0.052,-0.04l0.052,-0.042l0.051,-0.041l0.051,-0.043l0.05,-0.043l0.05,-0.043l0.049,-0.044l0.049,-0.045l0.048,-0.046l0.047,-0.045l0.047,-0.047l0.047,-0.047l0.046,-0.047l0.045,-0.048l0.045,-0.049l0.044,-0.049l0.043,-0.05l0.043,-0.05l0.043,-0.051l0.042,-0.051l0.041,-0.052l0.04,-0.052l0.04,-0.053l0.04,-0.053l0.038,-0.054l0.038,-0.054l0.038,-0.055l0.037,-0.055l0.036,-0.056l0.035,-0.056l0.035,-0.056l0.034,-0.057l0.033,-0.057l0.033,-0.058l0.033,-0.059l0.031,-0.058l0.03,-0.059l0.03,-0.059l0.03,-0.06l0.028,-0.06l0.028,-0.061l0.028,-0.061l0.026,-0.062l0.026,-0.061l0.025,-0.063l0.024,-0.062l0.023,-0.063l0.023,-0.064l0.022,-0.063l0.021,-0.064l0.021,-0.064l0.019,-0.065l0.019,-0.065l0.019,-0.065l0.017,-0.066l0.016,-0.066l0.016,-0.066l0.015,-0.066l0.014,-0.067l0.014,-0.068l0.012,-0.067l0.012,-0.068l0.011,-0.068l0.01,-0.068l0.009,-0.069l0.008,-0.069l0.008,-0.069l0.006,-0.069l0.006,-0.07l0.005,-0.07l0.004,-0.07l0.003,-0.071l0.002,-0.071l0.001,-0.071l0.001,-0.071l-0.001,-0.071l-0.001,-0.071l-0.002,-0.071l-0.003,-0.071l-0.004,-0.07l-0.005,-0.07l-0.006,-0.07l-0.006,-0.069l-0.008,-0.069l-0.008,-0.069l-0.009,-0.069l-0.01,-0.068l-0.011,-0.068l-0.012,-0.068l-0.012,-0.067l-0.014,-0.068l-0.014,-0.067l-0.015,-0.066l-0.016,-0.066l-0.016,-0.066l-0.017,-0.066l-0.019,-0.065l-0.019,-0.065l-0.019,-0.065l-0.021,-0.064l-0.021,-0.064l-0.022,-0.063l-0.023,-0.064l-0.023,-0.063l-0.024,-0.062l-0.025,-0.063l-0.026,-0.061l-0.026,-0.062l-0.028,-0.061l-0.028,-0.061l-0.028,-0.06l-0.03,-0.06l-0.03,-0.059l-0.03,-0.059l-0.031,-0.058l-0.033,-0.059l-0.033,-0.058l-0.033,-0.057l-0.034,-0.057l-0.035,-0.056l-0.035,-0.056l-0.036,-0.056l-0.037,-0.055l-0.038,-0.055l-0.038,-0.054l-0.038,-0.054l-0.04,-0.053l-0.04,-0.053l-0.04,-0.052l-0.041,-0.052l-0.042,-0.051l-0.043,-0.051l-0.043,-0.05l-0.043,-0.05l-0.044,-0.049l-0.045,-0.049l-0.045,-0.048l-0.046,-0.047l-0.047,-0.047l-0.047,-0.047l-0.047,-0.045l-0.048,-0.046l-0.049,-0.045l-0.049,-0.044l-0.05,-0.043l-0.05,-0.043l-0.051,-0.043l-0.051,-0.041l-0.052,-0.042l-0.052,-0.04l-0.053,-0.04l-0.053,-0.039l-0.054,-0.039l-0.054,-0.038l-0.055,-0.038l-0.055,-0.036l-0.056,-0.037l-0.056,-0.035l-0.056,-0.035l-0.057,-0.034l-0.057,-0.034l-0.058,-0.032l-0.058,-0.032l-0.059,-0.032l-0.059,-0.031l-0.059,-0.029l-0.06,-0.03l-0.061,-0.028l-0.06,-0.028l-0.061,-0.028l-0.062,-0.026l-0.062,-0.026l-0.062,-0.025l-0.062,-0.024l-0.063,-0.023l-0.063,-0.023l-0.064,-0.022l-0.064,-0.021l-0.064,-0.021l-0.065,-0.019l-0.065,-0.019l-0.065,-0.018l-0.066,-0.018l-0.066,-0.016l-0.066,-0.016l-0.066,-0.015l-0.067,-0.014l-0.068,-0.014l-0.067,-0.012l-0.068,-0.012l-0.068,-0.011l-0.068,-0.01l-0.069,-0.009l-0.069,-0.008l-0.069,-0.008l-0.069,-0.006l-0.07,-0.006l-0.07,-0.005l-0.07,-0.004l-0.071,-0.003l-0.071,-0.002l-0.071,-0.002l-0.071,0l-0.071,0Z" style="fill:#000;"/><rect x="4" y="13" width="5" height="1" style="fill:#000;"/><path d="M7,16l0,-5l-1,0l0,5l1,0Z" style="fill:#000;"/></g></g></g></g></svg>