<?xml version="1.0" standalone="no"?><!DOCTYPE svg PUBLIC "-//W3C//DTD SVG 1.1//EN" "http://www.w3.org/Graphics/SVG/1.1/DTD/svg11.dtd"><svg width="100%" height="100%" viewBox="0 0 16 19" version="1.1" xmlns="http://www.w3.org/2000/svg" xmlns:xlink="http://www.w3.org/1999/xlink" xml:space="preserve" style="fill-rule:evenodd;clip-rule:evenodd;stroke-linejoin:round;stroke-miterlimit:1.41421;"><clipPath id="_clip1"><path id="Artboard Default" d="M1135.57,-253.492c0,-0.931 -0.369,-1.823 -1.027,-2.481c-0.658,-0.657 -1.55,-1.027 -2.48,-1.027c-66.31,0 -1051.57,0 -1145.83,0c-1.918,0 -3.757,0.762 -5.112,2.118c-1.356,1.355 -2.118,3.194 -2.118,5.112c0,71.85 0,656.219 0,713.72c0,2.513 2.037,4.55 4.55,4.55c75.579,0 1068.36,0 1147.07,0c2.732,0 4.946,-2.215 4.946,-4.946c0,-60.944 0,-665.443 0,-717.046Z"/></clipPath><g clip-path="url(#_clip1)"><g id="fav bar"><g><g><path id="Shape" d="M14.051,0.001l0.052,0.002l0.05,0.003l0.051,0.004l0.05,0.006l0.05,0.007l0.049,0.008l0.049,0.01l0.048,0.01l0.048,0.012l0.048,0.013l0.047,0.014l0.047,0.016l0.046,0.016l0.045,0.017l0.046,0.019l0.044,0.019l0.044,0.021l0.043,0.022l0.043,0.022l0.042,0.024l0.042,0.025l0.041,0.025l0.04,0.027l0.04,0.027l0.039,0.029l0.038,0.029l0.037,0.03l0.037,0.031l0.036,0.032l0.035,0.033l0.035,0.033l0.033,0.035l0.033,0.035l0.032,0.036l0.031,0.037l0.03,0.037l0.029,0.038l0.029,0.039l0.027,0.04l0.027,0.04l0.025,0.041l0.025,0.042l0.024,0.042l0.022,0.043l0.022,0.043l0.021,0.044l0.019,0.044l0.019,0.046l0.017,0.045l0.016,0.046l0.016,0.047l0.014,0.047l0.013,0.048l0.012,0.048l0.01,0.048l0.01,0.049l0.008,0.049l0.007,0.05l0.006,0.05l0.004,0.051l0.003,0.05l0.002,0.052l0.001,0.051l0,15l-0.001,0.051l-0.002,0.052l-0.003,0.05l-0.004,0.051l-0.006,0.05l-0.007,0.05l-0.008,0.049l-0.01,0.049l-0.01,0.048l-0.012,0.048l-0.013,0.048l-0.014,0.047l-0.016,0.047l-0.016,0.046l-0.017,0.045l-0.019,0.046l-0.019,0.044l-0.021,0.044l-0.022,0.043l-0.022,0.043l-0.024,0.042l-0.025,0.042l-0.025,0.041l-0.027,0.04l-0.027,0.04l-0.029,0.039l-0.029,0.038l-0.03,0.037l-0.031,0.037l-0.032,0.036l-0.033,0.035l-0.033,0.034l-0.035,0.034l-0.035,0.033l-0.036,0.032l-0.037,0.031l-0.037,0.03l-0.038,0.029l-0.039,0.029l-0.04,0.027l-0.04,0.027l-0.041,0.025l-0.042,0.025l-0.042,0.024l-0.043,0.022l-0.043,0.022l-0.044,0.021l-0.044,0.019l-0.046,0.019l-0.045,0.017l-0.046,0.016l-0.047,0.016l-0.047,0.014l-0.048,0.013l-0.048,0.012l-0.048,0.01l-0.049,0.01l-0.049,0.008l-0.05,0.007l-0.05,0.006l-0.051,0.004l-0.05,0.003l-0.052,0.002l-0.051,0.001l-12,0l-0.051,-0.001l-0.052,-0.002l-0.05,-0.003l-0.051,-0.004l-0.05,-0.006l-0.05,-0.007l-0.049,-0.008l-0.049,-0.01l-0.048,-0.01l-0.048,-0.012l-0.048,-0.013l-0.047,-0.014l-0.047,-0.016l-0.046,-0.016l-0.045,-0.017l-0.046,-0.019l-0.044,-0.019l-0.044,-0.021l-0.043,-0.022l-0.043,-0.022l-0.042,-0.024l-0.042,-0.025l-0.041,-0.025l-0.04,-0.027l-0.04,-0.027l-0.039,-0.029l-0.038,-0.029l-0.037,-0.03l-0.037,-0.031l-0.036,-0.032l-0.035,-0.033l-0.034,-0.034l-0.034,-0.034l-0.033,-0.035l-0.032,-0.036l-0.031,-0.037l-0.03,-0.037l-0.029,-0.038l-0.029,-0.039l-0.027,-0.04l-0.027,-0.04l-0.025,-0.041l-0.025,-0.042l-0.024,-0.042l-0.022,-0.043l-0.022,-0.043l-0.021,-0.044l-0.019,-0.044l-0.019,-0.046l-0.017,-0.045l-0.016,-0.046l-0.016,-0.047l-0.014,-0.047l-0.013,-0.048l-0.012,-0.048l-0.01,-0.048l-0.01,-0.049l-0.008,-0.049l-0.007,-0.05l-0.006,-0.05l-0.004,-0.051l-0.003,-0.05l-0.002,-0.052l-0.001,-0.051l0,-12l5,-5l9,0l0.051,0.001ZM5.414,1l-4.414,4.414l0,11.58l0,0.032l0.001,0.025l0.002,0.026l0.002,0.025l0.003,0.025l0.004,0.024l0.004,0.025l0.004,0.024l0.006,0.024l0.005,0.024l0.007,0.023l0.007,0.024l0.007,0.023l0.008,0.023l0.009,0.022l0.009,0.022l0.01,0.023l0.01,0.022l0.011,0.021l0.011,0.022l0.012,0.021l0.013,0.021l0.013,0.02l0.013,0.021l0.014,0.02l0.014,0.019l0.015,0.019l0.015,0.019l0.016,0.019l0.016,0.018l0.017,0.018l0.017,0.017l0.017,0.017l0.018,0.017l0.018,0.016l0.019,0.016l0.019,0.015l0.019,0.015l0.02,0.014l0.02,0.014l0.02,0.013l0.02,0.013l0.021,0.013l0.021,0.012l0.022,0.011l0.021,0.011l0.022,0.01l0.023,0.01l0.022,0.009l0.022,0.009l0.023,0.008l0.024,0.007l0.023,0.007l0.023,0.007l0.024,0.005l0.024,0.006l0.024,0.004l0.025,0.004l0.024,0.004l0.025,0.003l0.025,0.002l0.025,0.002l0.026,0.001l0.032,0l11.988,0l0.032,0l0.026,-0.001l0.025,-0.002l0.025,-0.002l0.025,-0.003l0.024,-0.004l0.025,-0.004l0.024,-0.004l0.024,-0.006l0.024,-0.005l0.023,-0.007l0.024,-0.007l0.023,-0.007l0.023,-0.008l0.022,-0.009l0.022,-0.009l0.023,-0.01l0.022,-0.01l0.021,-0.011l0.022,-0.011l0.021,-0.012l0.021,-0.013l0.02,-0.013l0.02,-0.013l0.02,-0.014l0.02,-0.014l0.019,-0.015l0.019,-0.015l0.019,-0.016l0.018,-0.016l0.018,-0.017l0.017,-0.017l0.017,-0.017l0.017,-0.018l0.016,-0.018l0.016,-0.019l0.015,-0.019l0.015,-0.019l0.014,-0.019l0.014,-0.02l0.013,-0.021l0.013,-0.02l0.013,-0.021l0.012,-0.021l0.011,-0.022l0.011,-0.021l0.01,-0.022l0.01,-0.023l0.009,-0.022l0.009,-0.022l0.008,-0.023l0.007,-0.023l0.007,-0.024l0.007,-0.023l0.005,-0.024l0.006,-0.024l0.004,-0.024l0.004,-0.025l0.004,-0.024l0.003,-0.025l0.002,-0.025l0.002,-0.026l0.001,-0.025l0,-0.032l0,-14.988l0,-0.032l-0.001,-0.025l-0.002,-0.026l-0.002,-0.025l-0.003,-0.025l-0.004,-0.024l-0.004,-0.025l-0.004,-0.024l-0.006,-0.024l-0.005,-0.024l-0.007,-0.023l-0.007,-0.024l-0.007,-0.023l-0.008,-0.022l-0.009,-0.023l-0.009,-0.023l-0.01,-0.022l-0.01,-0.022l-0.011,-0.021l-0.011,-0.022l-0.012,-0.021l-0.013,-0.021l-0.013,-0.02l-0.013,-0.021l-0.014,-0.02l-0.014,-0.019l-0.015,-0.019l-0.015,-0.019l-0.016,-0.019l-0.016,-0.018l-0.017,-0.018l-0.017,-0.017l-0.017,-0.017l-0.018,-0.017l-0.018,-0.016l-0.019,-0.016l-0.019,-0.015l-0.019,-0.015l-0.02,-0.014l-0.019,-0.014l-0.021,-0.013l-0.02,-0.013l-0.021,-0.013l-0.021,-0.012l-0.022,-0.011l-0.021,-0.011l-0.022,-0.01l-0.023,-0.01l-0.022,-0.009l-0.022,-0.009l-0.023,-0.008l-0.023,-0.007l-0.024,-0.007l-0.023,-0.007l-0.024,-0.005l-0.024,-0.006l-0.024,-0.004l-0.025,-0.004l-0.024,-0.004l-0.025,-0.003l-0.025,-0.002l-0.026,-0.002l-0.025,-0.001l-0.032,0l-8.58,0Z" style="fill:#9e9e9e;"/><rect x="6" y="2" width="1" height="4" style="fill:#9e9e9e;"/><rect x="8" y="2" width="1" height="4" style="fill:#9e9e9e;"/><rect x="10" y="2" width="1" height="4" style="fill:#9e9e9e;"/><rect x="12" y="2" width="1" height="4" style="fill:#9e9e9e;"/></g></g></g></g></svg>