<?xml version="1.0" standalone="no"?><!DOCTYPE svg PUBLIC "-//W3C//DTD SVG 1.1//EN" "http://www.w3.org/Graphics/SVG/1.1/DTD/svg11.dtd"><svg width="100%" height="100%" viewBox="0 0 15 13" version="1.1" xmlns="http://www.w3.org/2000/svg" xmlns:xlink="http://www.w3.org/1999/xlink" xml:space="preserve" style="fill-rule:evenodd;clip-rule:evenodd;stroke-linejoin:round;stroke-miterlimit:1.41421;"><clipPath id="_clip1"><path id="Artboard Default" d="M334.566,-696.492c0,-0.931 -0.369,-1.823 -1.027,-2.481c-0.658,-0.657 -1.55,-1.027 -2.48,-1.027c-66.31,0 -1051.57,0 -1145.83,0c-1.918,0 -3.757,0.762 -5.112,2.118c-1.356,1.355 -2.118,3.194 -2.118,5.112c0,71.85 0,656.219 0,713.72c0,2.513 2.037,4.55 4.55,4.55c75.579,0 1068.36,0 1147.07,0c2.732,0 4.946,-2.215 4.946,-4.946c0,-60.944 0,-665.443 0,-717.046Z"/></clipPath><g clip-path="url(#_clip1)"><g><rect x="6.959" y="0.8" width="1" height="12" style="fill:#000;"/><path d="M7.823,0.643l-0.707,-0.707l-7.011,7.01l0.707,0.707l7.011,-7.01Z" style="fill:#000;"/><path d="M7.802,-0.2l-0.707,0.707l7.093,7.093l0.707,-0.707l-7.093,-7.093Z" style="fill:#000;"/></g></g></svg>