<?xml version="1.0" standalone="no"?><!DOCTYPE svg PUBLIC "-//W3C//DTD SVG 1.1//EN" "http://www.w3.org/Graphics/SVG/1.1/DTD/svg11.dtd"><svg width="100%" height="100%" viewBox="0 0 15 19" version="1.1" xmlns="http://www.w3.org/2000/svg" xmlns:xlink="http://www.w3.org/1999/xlink" xml:space="preserve" style="fill-rule:evenodd;clip-rule:evenodd;stroke-linejoin:round;stroke-miterlimit:1.41421;"><clipPath id="_clip1"><path id="Artboard Default" d="M906.566,-399.492c0,-0.931 -0.369,-1.823 -1.027,-2.481c-0.658,-0.657 -1.55,-1.027 -2.48,-1.027c-66.31,0 -1051.57,0 -1145.83,0c-1.918,0 -3.757,0.762 -5.112,2.118c-1.356,1.355 -2.118,3.194 -2.118,5.112c0,71.85 0,656.219 0,713.72c0,2.513 2.037,4.55 4.55,4.55c75.579,0 1068.36,0 1147.07,0c2.732,0 4.946,-2.215 4.946,-4.946c0,-60.944 0,-665.443 0,-717.046Z"/></clipPath><g clip-path="url(#_clip1)"><g><g opacity="0.5"><path d="M10,0l5,5l0,14l-15,0l0,-19l10,0Z" style="fill:#fff;"/><path d="M15,5l0,14l-15,0l0,-19l10,0l5,5ZM1,1l0,17l13,0l0,-12.586l-4.414,-4.414l-8.586,0Z" style="fill:#9e9e9e;"/><path d="M15,5l-5,-5l0,5l5,0Z" style="fill:#9e9e9e;"/></g></g><path d="M7.013,11.966c1.088,0.153 2.185,-0.214 2.962,-0.991c1.366,-1.366 1.366,-3.584 0,-4.95c-1.366,-1.366 -3.584,-1.366 -4.95,0c-0.656,0.657 -1.025,1.547 -1.025,2.475l0.98,0c0,-0.668 0.265,-1.309 0.738,-1.782c0.984,-0.983 2.58,-0.983 3.564,0c0.983,0.984 0.983,2.58 0,3.564c-0.56,0.559 -1.349,0.824 -2.133,0.713l-0.136,0.971Z" style="fill:#818181;"/><rect x="7" y="11.5" width="1" height="2.5" style="fill:#818181;"/><rect x="7" y="15" width="1" height="1" style="fill:#818181;"/></g></svg>