<?xml version="1.0" standalone="no"?><!DOCTYPE svg PUBLIC "-//W3C//DTD SVG 1.1//EN" "http://www.w3.org/Graphics/SVG/1.1/DTD/svg11.dtd"><svg width="100%" height="100%" viewBox="0 0 15 19" version="1.1" xmlns="http://www.w3.org/2000/svg" xmlns:xlink="http://www.w3.org/1999/xlink" xml:space="preserve" style="fill-rule:evenodd;clip-rule:evenodd;stroke-linejoin:round;stroke-miterlimit:1.41421;"><g><clipPath id="_clip1"><path d="M4.808,19.446l-5.629,-5.629l3.377,-3.378l2.252,2.252l3.378,-3.378l-2.252,-2.251l1.126,-1.126l5.629,5.629l-7.881,7.881Z"/></clipPath><g clip-path="url(#_clip1)"><path d="M5.689,7.307c0.182,-0.168 0.39,-0.31 0.622,-0.401c0.179,-0.07 0.365,-0.118 0.558,-0.136c0.577,-0.055 1.14,0.147 1.561,0.537c0.987,0.962 1.986,1.914 2.922,2.925c0.175,0.199 0.313,0.424 0.401,0.675c0.175,0.501 0.141,1.064 -0.094,1.54c-0.089,0.18 -0.206,0.342 -0.342,0.489c-1.703,1.746 -3.387,3.515 -5.176,5.173c-0.199,0.175 -0.424,0.313 -0.674,0.401c-0.502,0.175 -1.065,0.141 -1.541,-0.094c-0.18,-0.089 -0.342,-0.205 -0.489,-0.342c-0.986,-0.961 -1.985,-1.913 -2.921,-2.924c-0.175,-0.199 -0.313,-0.424 -0.401,-0.675c-0.175,-0.501 -0.141,-1.064 0.094,-1.54c0.089,-0.18 0.205,-0.342 0.341,-0.489c1.691,-1.734 3.405,-3.448 5.139,-5.139ZM1.719,13.528c-0.037,0.039 -0.068,0.08 -0.09,0.129c-0.065,0.145 -0.031,0.319 0.075,0.433c0.926,0.951 1.877,1.877 2.815,2.816c0.017,0.017 0.035,0.033 0.055,0.047c0.151,0.108 0.361,0.097 0.5,-0.025c1.754,-1.626 3.383,-3.383 5.074,-5.074c0.018,-0.018 0.034,-0.036 0.049,-0.055c0.108,-0.151 0.096,-0.361 -0.026,-0.5c-0.905,-0.975 -1.882,-1.882 -2.823,-2.823c-0.017,-0.017 -0.035,-0.033 -0.054,-0.047c-0.151,-0.109 -0.361,-0.097 -0.5,0.025c-1.755,1.626 -3.383,3.383 -5.075,5.074Z" style="fill:#0164a7;fill-rule:nonzero;"/></g><clipPath id="_clip2"><path d="M9.296,-0.835l5.678,5.678l-3.378,3.378l-5.678,-5.678l3.378,-3.378ZM1.431,7.062l1.125,-1.126l0.009,0.009l3.378,-3.378l3.368,3.369l-3.377,3.377l2.252,2.252l-1.126,1.126l-5.629,-5.629Z"/></clipPath><g clip-path="url(#_clip2)"><path d="M7.959,0.534c0.182,-0.168 0.39,-0.31 0.622,-0.401c0.179,-0.07 0.365,-0.118 0.558,-0.136c0.577,-0.056 1.14,0.147 1.561,0.537c0.987,0.962 1.985,1.914 2.922,2.925c0.175,0.199 0.313,0.424 0.4,0.674c0.176,0.501 0.142,1.065 -0.093,1.541c-0.089,0.18 -0.206,0.342 -0.342,0.488c-1.703,1.747 -3.387,3.516 -5.176,5.174c-0.199,0.175 -0.424,0.313 -0.675,0.4c-0.501,0.176 -1.064,0.142 -1.54,-0.093c-0.18,-0.089 -0.342,-0.206 -0.489,-0.342c-0.986,-0.962 -1.985,-1.914 -2.922,-2.924c-0.175,-0.199 -0.312,-0.424 -0.4,-0.675c-0.175,-0.501 -0.141,-1.065 0.094,-1.541c0.089,-0.179 0.205,-0.341 0.341,-0.488c1.691,-1.734 3.405,-3.448 5.139,-5.139ZM3.989,6.755c-0.037,0.038 -0.071,0.079 -0.091,0.129c-0.059,0.149 -0.033,0.315 0.077,0.433c0.926,0.951 1.876,1.877 2.814,2.815c0.017,0.018 0.036,0.034 0.055,0.048c0.151,0.108 0.361,0.097 0.5,-0.026c1.754,-1.625 3.383,-3.382 5.075,-5.074c0.017,-0.017 0.033,-0.035 0.047,-0.054c0.108,-0.151 0.097,-0.361 -0.026,-0.5c-0.904,-0.975 -1.881,-1.882 -2.822,-2.823c-0.017,-0.017 -0.035,-0.033 -0.054,-0.048c-0.151,-0.108 -0.361,-0.096 -0.5,0.026c-1.754,1.627 -3.383,3.382 -5.075,5.074Z" style="fill:#0164a7;fill-rule:nonzero;"/></g></g></svg>