<?xml version="1.0" standalone="no"?><!DOCTYPE svg PUBLIC "-//W3C//DTD SVG 1.1//EN" "http://www.w3.org/Graphics/SVG/1.1/DTD/svg11.dtd"><svg width="100%" height="100%" viewBox="0 0 73 47" version="1.1" xmlns="http://www.w3.org/2000/svg" xmlns:xlink="http://www.w3.org/1999/xlink" xml:space="preserve" style="fill-rule:evenodd;clip-rule:evenodd;stroke-linejoin:round;stroke-miterlimit:1.41421;"><g><g><path d="M47.226,8c0,-2.76 -2.24,-5 -5,-5l-11.226,0c-2.76,0 -5,2.24 -5,5c0,2.76 2.24,5 5,5l11.226,0c2.76,0 5,-2.24 5,-5Z" style="fill:#000;"/><path d="M46.226,7.975c0,-2.194 -1.781,-3.975 -3.975,-3.975c-2.194,0 -3.975,1.781 -3.975,3.975l0,0.05c0,2.194 1.781,3.975 3.975,3.975c2.194,0 3.975,-1.781 3.975,-3.975l0,-0.05Z" style="fill:#fff;"/></g><g><g opacity="0.5"><path d="M21.052,0.001l0.051,0.002l0.051,0.003l0.05,0.004l0.051,0.006l0.049,0.007l0.05,0.008l0.049,0.01l0.048,0.01l0.049,0.012l0.047,0.013l0.047,0.014l0.047,0.015l0.046,0.016l0.046,0.018l0.045,0.018l0.045,0.02l0.044,0.02l0.043,0.022l0.043,0.023l0.042,0.023l0.042,0.025l0.041,0.025l0.04,0.027l0.039,0.027l0.039,0.029l0.038,0.029l0.038,0.03l0.037,0.031l0.035,0.032l0.036,0.033l0.034,0.033l0.033,0.034l0.033,0.036l0.032,0.035l0.031,0.037l0.03,0.038l0.029,0.038l0.029,0.039l0.027,0.039l0.027,0.04l0.025,0.041l0.025,0.042l0.023,0.042l0.023,0.043l0.022,0.043l0.02,0.044l0.02,0.045l0.018,0.045l0.018,0.046l0.016,0.046l0.015,0.047l0.014,0.047l0.013,0.047l0.012,0.049l0.01,0.048l0.01,0.049l0.008,0.05l0.007,0.049l0.006,0.051l0.004,0.05l0.003,0.051l0.002,0.051l0.001,0.052l0,13l-0.001,0.052l-0.002,0.051l-0.003,0.051l-0.004,0.05l-0.006,0.051l-0.007,0.049l-0.008,0.05l-0.01,0.049l-0.01,0.048l-0.012,0.049l-0.013,0.047l-0.014,0.047l-0.015,0.047l-0.016,0.046l-0.018,0.046l-0.018,0.045l-0.02,0.045l-0.02,0.044l-0.022,0.043l-0.023,0.043l-0.023,0.042l-0.025,0.042l-0.025,0.041l-0.027,0.04l-0.027,0.039l-0.029,0.039l-0.029,0.038l-0.03,0.038l-0.031,0.037l-0.032,0.035l-0.033,0.036l-0.033,0.034l-0.034,0.033l-0.036,0.033l-0.035,0.032l-0.037,0.031l-0.038,0.03l-0.038,0.029l-0.039,0.029l-0.039,0.027l-0.04,0.027l-0.041,0.025l-0.042,0.025l-0.042,0.023l-0.043,0.023l-0.043,0.022l-0.044,0.02l-0.045,0.02l-0.045,0.018l-0.046,0.018l-0.046,0.016l-0.047,0.015l-0.047,0.014l-0.047,0.013l-0.049,0.012l-0.048,0.01l-0.049,0.01l-0.05,0.008l-0.049,0.007l-0.051,0.006l-0.05,0.004l-0.051,0.003l-0.051,0.002l-0.052,0.001l-19,0l-0.052,-0.001l-0.051,-0.002l-0.051,-0.003l-0.05,-0.004l-0.051,-0.006l-0.049,-0.007l-0.05,-0.008l-0.049,-0.01l-0.048,-0.01l-0.049,-0.012l-0.047,-0.013l-0.047,-0.014l-0.047,-0.015l-0.046,-0.016l-0.046,-0.018l-0.045,-0.018l-0.045,-0.02l-0.044,-0.02l-0.043,-0.022l-0.043,-0.023l-0.042,-0.023l-0.042,-0.025l-0.041,-0.025l-0.04,-0.027l-0.039,-0.027l-0.039,-0.029l-0.038,-0.029l-0.038,-0.03l-0.037,-0.031l-0.035,-0.032l-0.036,-0.033l-0.034,-0.033l-0.033,-0.034l-0.033,-0.036l-0.032,-0.035l-0.031,-0.037l-0.03,-0.038l-0.029,-0.038l-0.029,-0.039l-0.027,-0.039l-0.027,-0.04l-0.025,-0.041l-0.025,-0.042l-0.023,-0.042l-0.023,-0.043l-0.022,-0.043l-0.02,-0.044l-0.02,-0.045l-0.018,-0.045l-0.018,-0.046l-0.016,-0.046l-0.015,-0.047l-0.014,-0.047l-0.013,-0.047l-0.012,-0.049l-0.01,-0.048l-0.01,-0.049l-0.008,-0.05l-0.007,-0.049l-0.006,-0.051l-0.004,-0.05l-0.003,-0.051l-0.002,-0.051l-0.001,-0.052l0,-13l0.001,-0.052l0.002,-0.051l0.003,-0.051l0.004,-0.05l0.006,-0.051l0.007,-0.049l0.008,-0.05l0.01,-0.049l0.01,-0.048l0.012,-0.049l0.013,-0.047l0.014,-0.047l0.015,-0.047l0.016,-0.046l0.018,-0.046l0.018,-0.045l0.02,-0.045l0.02,-0.044l0.022,-0.043l0.023,-0.043l0.023,-0.042l0.025,-0.042l0.025,-0.041l0.027,-0.04l0.027,-0.039l0.029,-0.039l0.029,-0.038l0.03,-0.038l0.031,-0.037l0.032,-0.035l0.033,-0.036l0.033,-0.034l0.034,-0.033l0.036,-0.033l0.035,-0.032l0.037,-0.031l0.038,-0.03l0.038,-0.029l0.039,-0.029l0.039,-0.027l0.04,-0.027l0.041,-0.025l0.042,-0.025l0.042,-0.023l0.043,-0.023l0.043,-0.022l0.044,-0.02l0.045,-0.02l0.045,-0.018l0.046,-0.018l0.046,-0.016l0.047,-0.015l0.047,-0.014l0.047,-0.013l0.049,-0.012l0.048,-0.01l0.049,-0.01l0.05,-0.008l0.049,-0.007l0.051,-0.006l0.05,-0.004l0.051,-0.003l0.051,-0.002l0.052,-0.001l19,0l0.052,0.001ZM2.006,1l-0.032,0l-0.026,0.001l-0.026,0.002l-0.025,0.002l-0.025,0.003l-0.025,0.004l-0.025,0.004l-0.024,0.004l-0.024,0.006l-0.024,0.005l-0.024,0.007l-0.023,0.007l-0.024,0.007l-0.023,0.009l-0.022,0.008l-0.022,0.009l-0.022,0.01l-0.022,0.01l-0.022,0.011l-0.021,0.011l-0.021,0.012l-0.021,0.012l-0.021,0.013l-0.02,0.013l-0.019,0.014l-0.02,0.015l-0.02,0.014l-0.018,0.015l-0.019,0.016l-0.018,0.016l-0.017,0.016l-0.018,0.017l-0.017,0.018l-0.017,0.018l-0.015,0.017l-0.015,0.018l-0.017,0.02l-0.014,0.019l-0.014,0.019l-0.014,0.02l-0.013,0.02l-0.013,0.021l-0.012,0.02l-0.012,0.021l-0.011,0.021l-0.011,0.022l-0.01,0.023l-0.01,0.021l-0.009,0.023l-0.009,0.024l-0.008,0.022l-0.007,0.022l-0.007,0.025l-0.007,0.023l-0.005,0.023l-0.006,0.025l-0.004,0.025l-0.004,0.023l-0.004,0.025l-0.003,0.027l-0.002,0.025l-0.002,0.025l-0.001,0.026l0,0.032l0,12.988l0,0.032l0.001,0.026l0.002,0.025l0.002,0.025l0.003,0.027l0.004,0.025l0.004,0.023l0.004,0.025l0.006,0.025l0.005,0.023l0.007,0.023l0.007,0.025l0.007,0.022l0.008,0.022l0.009,0.024l0.009,0.023l0.01,0.021l0.01,0.023l0.011,0.022l0.011,0.021l0.012,0.021l0.012,0.02l0.013,0.021l0.013,0.02l0.014,0.02l0.014,0.019l0.014,0.019l0.017,0.02l0.015,0.018l0.015,0.017l0.017,0.018l0.017,0.018l0.018,0.017l0.017,0.016l0.018,0.016l0.019,0.016l0.018,0.015l0.02,0.014l0.02,0.015l0.019,0.014l0.02,0.013l0.021,0.013l0.021,0.012l0.021,0.012l0.021,0.011l0.022,0.011l0.022,0.01l0.022,0.01l0.022,0.009l0.022,0.008l0.023,0.009l0.024,0.007l0.023,0.007l0.024,0.007l0.024,0.005l0.024,0.006l0.024,0.004l0.025,0.004l0.025,0.004l0.025,0.003l0.025,0.002l0.026,0.002l0.026,0.001l0.032,0l18.988,0l0.032,0l0.026,-0.001l0.026,-0.002l0.025,-0.002l0.025,-0.003l0.025,-0.004l0.025,-0.004l0.024,-0.004l0.024,-0.006l0.024,-0.006l0.024,-0.006l0.023,-0.007l0.024,-0.007l0.022,-0.008l0.023,-0.009l0.022,-0.009l0.022,-0.01l0.022,-0.01l0.022,-0.011l0.022,-0.011l0.021,-0.012l0.02,-0.012l0.02,-0.013l0.021,-0.013l0.02,-0.014l0.019,-0.014l0.02,-0.015l0.019,-0.016l0.018,-0.015l0.018,-0.016l0.017,-0.016l0.018,-0.017l0.017,-0.018l0.016,-0.017l0.016,-0.018l0.016,-0.019l0.015,-0.018l0.015,-0.02l0.014,-0.019l0.013,-0.02l0.014,-0.02l0.012,-0.02l0.013,-0.022l0.012,-0.021l0.011,-0.02l0.011,-0.022l0.01,-0.023l0.01,-0.021l0.009,-0.023l0.008,-0.022l0.009,-0.024l0.007,-0.024l0.007,-0.023l0.006,-0.022l0.006,-0.024l0.006,-0.025l0.004,-0.024l0.004,-0.025l0.004,-0.025l0.003,-0.024l0.002,-0.026l0.002,-0.026l0.001,-0.026l0,-0.033l0,-12.986l0,-0.033l-0.001,-0.026l-0.002,-0.026l-0.002,-0.026l-0.003,-0.024l-0.004,-0.025l-0.004,-0.025l-0.004,-0.024l-0.006,-0.025l-0.006,-0.024l-0.006,-0.022l-0.007,-0.023l-0.007,-0.024l-0.009,-0.024l-0.008,-0.022l-0.009,-0.023l-0.01,-0.021l-0.01,-0.023l-0.011,-0.022l-0.011,-0.02l-0.012,-0.021l-0.013,-0.022l-0.012,-0.02l-0.014,-0.02l-0.013,-0.02l-0.014,-0.019l-0.015,-0.02l-0.015,-0.018l-0.016,-0.019l-0.016,-0.018l-0.016,-0.017l-0.017,-0.018l-0.018,-0.017l-0.017,-0.016l-0.018,-0.016l-0.018,-0.015l-0.019,-0.016l-0.02,-0.015l-0.019,-0.014l-0.02,-0.014l-0.021,-0.013l-0.02,-0.013l-0.02,-0.012l-0.021,-0.012l-0.022,-0.011l-0.022,-0.011l-0.022,-0.01l-0.022,-0.01l-0.022,-0.009l-0.023,-0.009l-0.022,-0.008l-0.024,-0.007l-0.023,-0.007l-0.024,-0.006l-0.024,-0.006l-0.024,-0.006l-0.024,-0.004l-0.025,-0.004l-0.025,-0.004l-0.025,-0.003l-0.025,-0.002l-0.026,-0.002l-0.026,-0.001l-0.032,0l-18.988,0Z" style="fill:#000;"/><path d="M18,6.263l0,4.474l3.16,-2.237l-3.16,-2.237Z" style="fill:#000;"/><path d="M5,10.737l0,-4.474l-3.16,2.237l3.16,2.237Z" style="fill:#000;"/><rect x="2.76" y="8" width="5.24" height="1" style="fill:#000;"/><rect x="14" y="8" width="5.415" height="1" style="fill:#000;"/></g></g><g><path d="M71.052,0.001l0.051,0.002l0.051,0.003l0.05,0.004l0.051,0.006l0.049,0.007l0.05,0.008l0.049,0.01l0.048,0.01l0.049,0.012l0.047,0.013l0.047,0.014l0.047,0.015l0.046,0.016l0.046,0.018l0.045,0.018l0.045,0.02l0.044,0.02l0.043,0.022l0.043,0.023l0.042,0.023l0.042,0.025l0.041,0.025l0.04,0.027l0.039,0.027l0.039,0.029l0.038,0.029l0.038,0.03l0.037,0.031l0.035,0.032l0.036,0.033l0.034,0.033l0.033,0.034l0.033,0.036l0.032,0.035l0.031,0.037l0.03,0.038l0.029,0.038l0.029,0.039l0.027,0.039l0.027,0.04l0.025,0.041l0.025,0.042l0.023,0.042l0.023,0.043l0.022,0.043l0.02,0.044l0.02,0.045l0.018,0.045l0.018,0.046l0.016,0.046l0.015,0.047l0.014,0.047l0.013,0.047l0.012,0.049l0.01,0.048l0.01,0.049l0.008,0.05l0.007,0.049l0.006,0.051l0.004,0.05l0.003,0.051l0.002,0.051l0.001,0.052l0,13l-0.001,0.052l-0.002,0.051l-0.003,0.051l-0.004,0.05l-0.006,0.051l-0.007,0.049l-0.008,0.05l-0.01,0.049l-0.01,0.048l-0.012,0.049l-0.013,0.047l-0.014,0.047l-0.015,0.047l-0.016,0.046l-0.018,0.046l-0.018,0.045l-0.02,0.045l-0.02,0.044l-0.022,0.043l-0.023,0.043l-0.023,0.042l-0.025,0.042l-0.025,0.041l-0.027,0.04l-0.027,0.039l-0.029,0.039l-0.029,0.038l-0.03,0.038l-0.031,0.037l-0.032,0.035l-0.033,0.036l-0.033,0.034l-0.034,0.033l-0.036,0.033l-0.035,0.032l-0.037,0.031l-0.038,0.03l-0.038,0.029l-0.039,0.029l-0.039,0.027l-0.04,0.027l-0.041,0.025l-0.042,0.025l-0.042,0.023l-0.043,0.023l-0.043,0.022l-0.044,0.02l-0.045,0.02l-0.045,0.018l-0.046,0.018l-0.046,0.016l-0.047,0.015l-0.047,0.014l-0.047,0.013l-0.049,0.012l-0.048,0.01l-0.049,0.01l-0.05,0.008l-0.049,0.007l-0.051,0.006l-0.05,0.004l-0.051,0.003l-0.051,0.002l-0.052,0.001l-19,0l-0.052,-0.001l-0.051,-0.002l-0.051,-0.003l-0.05,-0.004l-0.051,-0.006l-0.049,-0.007l-0.05,-0.008l-0.049,-0.01l-0.048,-0.01l-0.049,-0.012l-0.047,-0.013l-0.047,-0.014l-0.047,-0.015l-0.046,-0.016l-0.046,-0.018l-0.045,-0.018l-0.045,-0.02l-0.044,-0.02l-0.043,-0.022l-0.043,-0.023l-0.042,-0.023l-0.042,-0.025l-0.041,-0.025l-0.04,-0.027l-0.039,-0.027l-0.039,-0.029l-0.038,-0.029l-0.038,-0.03l-0.037,-0.031l-0.035,-0.032l-0.036,-0.033l-0.034,-0.033l-0.033,-0.034l-0.033,-0.036l-0.032,-0.035l-0.031,-0.037l-0.03,-0.038l-0.029,-0.038l-0.029,-0.039l-0.027,-0.039l-0.027,-0.04l-0.025,-0.041l-0.025,-0.042l-0.023,-0.042l-0.023,-0.043l-0.022,-0.043l-0.02,-0.044l-0.02,-0.045l-0.018,-0.045l-0.018,-0.046l-0.016,-0.046l-0.015,-0.047l-0.014,-0.047l-0.013,-0.047l-0.012,-0.049l-0.01,-0.048l-0.01,-0.049l-0.008,-0.05l-0.007,-0.049l-0.006,-0.051l-0.004,-0.05l-0.003,-0.051l-0.002,-0.051l-0.001,-0.052l0,-13l0.001,-0.052l0.002,-0.051l0.003,-0.051l0.004,-0.05l0.006,-0.051l0.007,-0.049l0.008,-0.05l0.01,-0.049l0.01,-0.048l0.012,-0.049l0.013,-0.047l0.014,-0.047l0.015,-0.047l0.016,-0.046l0.018,-0.046l0.018,-0.045l0.02,-0.045l0.02,-0.044l0.022,-0.043l0.023,-0.043l0.023,-0.042l0.025,-0.042l0.025,-0.041l0.027,-0.04l0.027,-0.039l0.029,-0.039l0.029,-0.038l0.03,-0.038l0.031,-0.037l0.032,-0.035l0.033,-0.036l0.033,-0.034l0.034,-0.033l0.036,-0.033l0.035,-0.032l0.037,-0.031l0.038,-0.03l0.038,-0.029l0.039,-0.029l0.039,-0.027l0.04,-0.027l0.041,-0.025l0.042,-0.025l0.042,-0.023l0.043,-0.023l0.043,-0.022l0.044,-0.02l0.045,-0.02l0.045,-0.018l0.046,-0.018l0.046,-0.016l0.047,-0.015l0.047,-0.014l0.047,-0.013l0.049,-0.012l0.048,-0.01l0.049,-0.01l0.05,-0.008l0.049,-0.007l0.051,-0.006l0.05,-0.004l0.051,-0.003l0.051,-0.002l0.052,-0.001l19,0l0.052,0.001ZM52.006,1l-0.032,0l-0.026,0.001l-0.026,0.002l-0.025,0.002l-0.025,0.003l-0.025,0.004l-0.025,0.004l-0.024,0.004l-0.024,0.006l-0.024,0.006l-0.024,0.006l-0.023,0.007l-0.024,0.007l-0.022,0.008l-0.023,0.009l-0.023,0.009l-0.022,0.01l-0.021,0.01l-0.022,0.011l-0.021,0.011l-0.021,0.012l-0.021,0.012l-0.021,0.013l-0.02,0.013l-0.019,0.014l-0.02,0.015l-0.02,0.014l-0.018,0.015l-0.019,0.016l-0.018,0.016l-0.017,0.016l-0.018,0.017l-0.017,0.018l-0.017,0.018l-0.015,0.017l-0.015,0.018l-0.017,0.02l-0.014,0.019l-0.014,0.019l-0.014,0.02l-0.013,0.02l-0.013,0.021l-0.012,0.02l-0.012,0.021l-0.011,0.021l-0.011,0.022l-0.01,0.023l-0.01,0.021l-0.009,0.023l-0.009,0.024l-0.008,0.022l-0.007,0.022l-0.007,0.025l-0.007,0.023l-0.005,0.023l-0.006,0.025l-0.004,0.025l-0.004,0.023l-0.004,0.025l-0.003,0.025l-0.002,0.026l-0.002,0.026l-0.001,0.026l0,0.033l0,12.986l0,0.033l0.001,0.026l0.002,0.026l0.002,0.026l0.003,0.025l0.004,0.025l0.004,0.023l0.004,0.025l0.006,0.025l0.005,0.023l0.007,0.023l0.007,0.025l0.007,0.022l0.008,0.022l0.009,0.024l0.009,0.023l0.01,0.021l0.01,0.023l0.011,0.022l0.011,0.021l0.012,0.021l0.012,0.02l0.013,0.021l0.013,0.02l0.014,0.02l0.014,0.019l0.014,0.019l0.017,0.02l0.015,0.018l0.015,0.017l0.017,0.018l0.017,0.018l0.018,0.017l0.017,0.016l0.018,0.016l0.019,0.016l0.018,0.015l0.02,0.014l0.02,0.015l0.019,0.014l0.02,0.013l0.021,0.013l0.021,0.012l0.021,0.012l0.021,0.011l0.022,0.011l0.021,0.01l0.022,0.01l0.023,0.009l0.023,0.009l0.022,0.008l0.024,0.007l0.023,0.007l0.024,0.006l0.024,0.006l0.024,0.006l0.024,0.004l0.025,0.004l0.025,0.004l0.025,0.003l0.025,0.002l0.026,0.002l0.026,0.001l0.032,0l18.988,0l0.032,0l0.026,-0.001l0.026,-0.002l0.025,-0.002l0.025,-0.003l0.025,-0.004l0.025,-0.004l0.024,-0.004l0.024,-0.006l0.024,-0.006l0.024,-0.006l0.023,-0.007l0.024,-0.007l0.023,-0.009l0.022,-0.008l0.022,-0.009l0.023,-0.01l0.021,-0.01l0.022,-0.011l0.021,-0.011l0.021,-0.012l0.021,-0.012l0.02,-0.013l0.021,-0.014l0.02,-0.013l0.019,-0.015l0.02,-0.014l0.017,-0.014l0.019,-0.016l0.02,-0.018l0.017,-0.016l0.017,-0.016l0.016,-0.017l0.016,-0.017l0.018,-0.02l0.015,-0.018l0.016,-0.019l0.013,-0.018l0.015,-0.02l0.014,-0.021l0.013,-0.019l0.012,-0.02l0.012,-0.02l0.013,-0.023l0.011,-0.022l0.011,-0.022l0.01,-0.02l0.01,-0.022l0.009,-0.024l0.008,-0.021l0.009,-0.025l0.007,-0.02l0.006,-0.023l0.008,-0.026l0.005,-0.024l0.006,-0.025l0.004,-0.023l0.004,-0.025l0.004,-0.027l0.003,-0.021l0.002,-0.025l0.001,-0.028l0.002,-0.026l0,-0.032l0,-12.988l0,-0.032l-0.002,-0.026l-0.001,-0.028l-0.002,-0.025l-0.003,-0.021l-0.004,-0.027l-0.004,-0.025l-0.004,-0.023l-0.006,-0.025l-0.005,-0.024l-0.008,-0.026l-0.006,-0.023l-0.007,-0.02l-0.009,-0.025l-0.008,-0.021l-0.009,-0.024l-0.01,-0.022l-0.01,-0.02l-0.011,-0.022l-0.011,-0.022l-0.013,-0.023l-0.012,-0.02l-0.012,-0.02l-0.013,-0.019l-0.014,-0.021l-0.015,-0.02l-0.013,-0.018l-0.016,-0.019l-0.015,-0.018l-0.018,-0.02l-0.016,-0.017l-0.016,-0.017l-0.017,-0.016l-0.017,-0.016l-0.02,-0.018l-0.019,-0.016l-0.017,-0.014l-0.02,-0.014l-0.019,-0.015l-0.02,-0.013l-0.021,-0.014l-0.02,-0.013l-0.021,-0.012l-0.021,-0.012l-0.021,-0.011l-0.022,-0.011l-0.022,-0.01l-0.022,-0.01l-0.022,-0.009l-0.022,-0.008l-0.023,-0.009l-0.024,-0.007l-0.023,-0.007l-0.024,-0.006l-0.024,-0.006l-0.024,-0.006l-0.024,-0.004l-0.025,-0.004l-0.025,-0.004l-0.025,-0.003l-0.025,-0.002l-0.026,-0.002l-0.026,-0.001l-0.032,0l-18.988,0Z" style="fill:#000;"/><rect x="56.979" y="0" width="1.021" height="17" style="fill:#fff;"/><rect x="56.979" y="0" width="1.021" height="17" style="fill:#000;"/><rect x="65" y="0" width="1.021" height="17" style="fill:#fff;"/><rect x="65" y="0" width="1.021" height="17" style="fill:#000;"/></g></g><g><g><path d="M47.226,38c0,-2.76 -2.24,-5 -5,-5l-11.226,0c-2.76,0 -5,2.24 -5,5c0,2.76 2.24,5 5,5l11.226,0c2.76,0 5,-2.24 5,-5Z" style="fill:#000;"/><path d="M35,37.975c0,-2.194 -1.781,-3.975 -3.975,-3.975c-2.194,0 -3.975,1.781 -3.975,3.975l0,0.05c0,2.194 1.781,3.975 3.975,3.975c2.194,0 3.975,-1.781 3.975,-3.975l0,-0.05Z" style="fill:#fff;"/></g><g><path d="M21.052,30.001l0.051,0.002l0.051,0.003l0.05,0.004l0.051,0.006l0.049,0.007l0.05,0.008l0.049,0.01l0.048,0.01l0.049,0.012l0.047,0.013l0.047,0.014l0.047,0.015l0.046,0.016l0.046,0.018l0.045,0.018l0.045,0.02l0.044,0.02l0.043,0.022l0.043,0.023l0.042,0.023l0.042,0.025l0.041,0.025l0.04,0.027l0.039,0.027l0.039,0.029l0.038,0.029l0.038,0.03l0.037,0.031l0.035,0.032l0.036,0.033l0.034,0.033l0.033,0.034l0.033,0.036l0.032,0.035l0.031,0.037l0.03,0.038l0.029,0.038l0.029,0.039l0.027,0.039l0.027,0.04l0.025,0.041l0.025,0.042l0.023,0.042l0.023,0.043l0.022,0.043l0.02,0.044l0.02,0.045l0.018,0.045l0.018,0.046l0.016,0.046l0.015,0.047l0.014,0.047l0.013,0.047l0.012,0.049l0.01,0.048l0.01,0.049l0.008,0.05l0.007,0.049l0.006,0.051l0.004,0.05l0.003,0.051l0.002,0.051l0.001,0.052l0,13l-0.001,0.052l-0.002,0.051l-0.003,0.051l-0.004,0.05l-0.006,0.051l-0.007,0.049l-0.008,0.05l-0.01,0.049l-0.01,0.048l-0.012,0.049l-0.013,0.047l-0.014,0.047l-0.015,0.047l-0.016,0.046l-0.018,0.046l-0.018,0.045l-0.02,0.045l-0.02,0.044l-0.022,0.043l-0.023,0.043l-0.023,0.042l-0.025,0.042l-0.025,0.041l-0.027,0.04l-0.027,0.039l-0.029,0.039l-0.029,0.038l-0.03,0.038l-0.031,0.037l-0.032,0.035l-0.033,0.036l-0.033,0.034l-0.034,0.033l-0.036,0.033l-0.035,0.032l-0.037,0.031l-0.038,0.03l-0.038,0.029l-0.039,0.029l-0.039,0.027l-0.04,0.027l-0.041,0.025l-0.042,0.025l-0.042,0.023l-0.043,0.023l-0.043,0.022l-0.044,0.02l-0.045,0.02l-0.045,0.018l-0.046,0.018l-0.046,0.016l-0.047,0.015l-0.047,0.014l-0.047,0.013l-0.049,0.012l-0.048,0.01l-0.049,0.01l-0.05,0.008l-0.049,0.007l-0.051,0.006l-0.05,0.004l-0.051,0.003l-0.051,0.002l-0.052,0.001l-19,0l-0.052,-0.001l-0.051,-0.002l-0.051,-0.003l-0.05,-0.004l-0.051,-0.006l-0.049,-0.007l-0.05,-0.008l-0.049,-0.01l-0.048,-0.01l-0.049,-0.012l-0.047,-0.013l-0.047,-0.014l-0.047,-0.015l-0.046,-0.016l-0.046,-0.018l-0.045,-0.018l-0.045,-0.02l-0.044,-0.02l-0.043,-0.022l-0.043,-0.023l-0.042,-0.023l-0.042,-0.025l-0.041,-0.025l-0.04,-0.027l-0.039,-0.027l-0.039,-0.029l-0.038,-0.029l-0.038,-0.03l-0.037,-0.031l-0.035,-0.032l-0.036,-0.033l-0.034,-0.033l-0.033,-0.034l-0.033,-0.036l-0.032,-0.035l-0.031,-0.037l-0.03,-0.038l-0.029,-0.038l-0.029,-0.039l-0.027,-0.039l-0.027,-0.04l-0.025,-0.041l-0.025,-0.042l-0.023,-0.042l-0.023,-0.043l-0.022,-0.043l-0.02,-0.044l-0.02,-0.045l-0.018,-0.045l-0.018,-0.046l-0.016,-0.046l-0.015,-0.047l-0.014,-0.047l-0.013,-0.047l-0.012,-0.049l-0.01,-0.048l-0.01,-0.049l-0.008,-0.05l-0.007,-0.049l-0.006,-0.051l-0.004,-0.05l-0.003,-0.051l-0.002,-0.051l-0.001,-0.052l0,-13l0.001,-0.052l0.002,-0.051l0.003,-0.051l0.004,-0.05l0.006,-0.051l0.007,-0.049l0.008,-0.05l0.01,-0.049l0.01,-0.048l0.012,-0.049l0.013,-0.047l0.014,-0.047l0.015,-0.047l0.016,-0.046l0.018,-0.046l0.018,-0.045l0.02,-0.045l0.02,-0.044l0.022,-0.043l0.023,-0.043l0.023,-0.042l0.025,-0.042l0.025,-0.041l0.027,-0.04l0.027,-0.039l0.029,-0.039l0.029,-0.038l0.03,-0.038l0.031,-0.037l0.032,-0.035l0.033,-0.036l0.033,-0.034l0.034,-0.033l0.036,-0.033l0.035,-0.032l0.037,-0.031l0.038,-0.03l0.038,-0.029l0.039,-0.029l0.039,-0.027l0.04,-0.027l0.041,-0.025l0.042,-0.025l0.042,-0.023l0.043,-0.023l0.043,-0.022l0.044,-0.02l0.045,-0.02l0.045,-0.018l0.046,-0.018l0.046,-0.016l0.047,-0.015l0.047,-0.014l0.047,-0.013l0.049,-0.012l0.048,-0.01l0.049,-0.01l0.05,-0.008l0.049,-0.007l0.051,-0.006l0.05,-0.004l0.051,-0.003l0.051,-0.002l0.052,-0.001l19,0l0.052,0.001ZM2.006,31l-0.032,0l-0.026,0.001l-0.026,0.002l-0.025,0.002l-0.025,0.003l-0.025,0.004l-0.025,0.004l-0.024,0.004l-0.024,0.006l-0.024,0.005l-0.024,0.007l-0.023,0.007l-0.024,0.007l-0.023,0.009l-0.022,0.008l-0.022,0.009l-0.022,0.01l-0.022,0.01l-0.022,0.011l-0.021,0.011l-0.021,0.012l-0.021,0.012l-0.021,0.013l-0.02,0.013l-0.019,0.014l-0.02,0.015l-0.02,0.014l-0.018,0.015l-0.019,0.016l-0.018,0.016l-0.017,0.016l-0.018,0.017l-0.017,0.018l-0.017,0.018l-0.015,0.017l-0.015,0.018l-0.017,0.02l-0.014,0.019l-0.014,0.019l-0.014,0.02l-0.013,0.02l-0.013,0.021l-0.012,0.02l-0.012,0.021l-0.011,0.021l-0.011,0.022l-0.01,0.023l-0.01,0.021l-0.009,0.023l-0.009,0.024l-0.008,0.022l-0.007,0.022l-0.007,0.025l-0.007,0.023l-0.005,0.023l-0.006,0.025l-0.004,0.025l-0.004,0.023l-0.004,0.025l-0.003,0.027l-0.002,0.024l-0.002,0.026l-0.001,0.026l0,0.032l0,12.988l0,0.032l0.001,0.026l0.002,0.025l0.002,0.025l0.003,0.027l0.004,0.025l0.004,0.023l0.004,0.025l0.006,0.025l0.005,0.023l0.007,0.023l0.007,0.025l0.007,0.022l0.008,0.022l0.009,0.024l0.009,0.023l0.01,0.021l0.01,0.023l0.011,0.022l0.011,0.021l0.012,0.021l0.012,0.02l0.013,0.021l0.013,0.02l0.014,0.02l0.014,0.019l0.014,0.019l0.017,0.02l0.015,0.018l0.015,0.017l0.017,0.018l0.017,0.018l0.018,0.017l0.017,0.016l0.018,0.016l0.019,0.016l0.018,0.015l0.02,0.014l0.02,0.015l0.019,0.014l0.02,0.013l0.021,0.013l0.021,0.012l0.021,0.012l0.021,0.011l0.022,0.011l0.022,0.01l0.022,0.01l0.022,0.009l0.022,0.008l0.023,0.008l0.024,0.008l0.023,0.007l0.024,0.007l0.024,0.005l0.024,0.006l0.024,0.004l0.025,0.004l0.025,0.004l0.025,0.003l0.025,0.002l0.026,0.002l0.026,0.001l0.032,0l18.988,0l0.032,0l0.026,-0.001l0.026,-0.002l0.025,-0.002l0.025,-0.003l0.025,-0.004l0.025,-0.004l0.024,-0.004l0.024,-0.006l0.024,-0.006l0.024,-0.006l0.023,-0.007l0.024,-0.008l0.022,-0.007l0.023,-0.009l0.022,-0.009l0.022,-0.01l0.022,-0.01l0.022,-0.011l0.022,-0.011l0.021,-0.012l0.02,-0.012l0.02,-0.013l0.021,-0.013l0.02,-0.014l0.019,-0.014l0.02,-0.015l0.019,-0.016l0.018,-0.015l0.018,-0.016l0.017,-0.016l0.018,-0.017l0.017,-0.018l0.016,-0.017l0.016,-0.018l0.016,-0.019l0.015,-0.018l0.015,-0.02l0.014,-0.019l0.014,-0.02l0.013,-0.02l0.012,-0.02l0.013,-0.022l0.012,-0.021l0.011,-0.02l0.011,-0.022l0.01,-0.023l0.01,-0.021l0.009,-0.023l0.008,-0.022l0.009,-0.024l0.007,-0.024l0.007,-0.023l0.006,-0.022l0.006,-0.024l0.006,-0.025l0.004,-0.024l0.004,-0.025l0.004,-0.025l0.003,-0.024l0.002,-0.026l0.002,-0.026l0.001,-0.026l0,-0.033l0,-12.986l0,-0.033l-0.001,-0.026l-0.002,-0.026l-0.002,-0.026l-0.003,-0.024l-0.004,-0.025l-0.004,-0.025l-0.004,-0.024l-0.006,-0.025l-0.006,-0.024l-0.006,-0.022l-0.007,-0.023l-0.007,-0.024l-0.009,-0.024l-0.008,-0.022l-0.009,-0.023l-0.01,-0.021l-0.01,-0.023l-0.011,-0.022l-0.011,-0.02l-0.012,-0.021l-0.013,-0.022l-0.012,-0.02l-0.013,-0.02l-0.014,-0.02l-0.014,-0.019l-0.015,-0.02l-0.015,-0.018l-0.016,-0.019l-0.016,-0.018l-0.016,-0.017l-0.017,-0.018l-0.018,-0.017l-0.017,-0.016l-0.018,-0.016l-0.018,-0.015l-0.019,-0.016l-0.02,-0.015l-0.019,-0.014l-0.02,-0.014l-0.021,-0.013l-0.02,-0.013l-0.02,-0.012l-0.021,-0.012l-0.022,-0.011l-0.022,-0.011l-0.022,-0.01l-0.022,-0.01l-0.022,-0.009l-0.023,-0.009l-0.022,-0.008l-0.024,-0.007l-0.023,-0.007l-0.024,-0.006l-0.024,-0.006l-0.024,-0.006l-0.024,-0.004l-0.025,-0.004l-0.025,-0.004l-0.025,-0.003l-0.025,-0.002l-0.026,-0.002l-0.026,-0.001l-0.032,0l-18.988,0Z" style="fill:#000;"/><path d="M18,36.263l0,4.474l3.16,-2.237l-3.16,-2.237Z" style="fill:#000;"/><path d="M5,40.737l0,-4.474l-3.16,2.237l3.16,2.237Z" style="fill:#000;"/><rect x="2.76" y="38" width="5.24" height="1" style="fill:#000;"/><rect x="14" y="38" width="5.415" height="1" style="fill:#000;"/></g><g><g opacity="0.5"><path d="M71.052,30.001l0.051,0.002l0.051,0.003l0.05,0.004l0.051,0.006l0.049,0.007l0.05,0.008l0.049,0.01l0.048,0.01l0.049,0.012l0.047,0.013l0.047,0.014l0.047,0.015l0.046,0.016l0.046,0.018l0.045,0.018l0.045,0.02l0.044,0.02l0.043,0.022l0.043,0.023l0.042,0.023l0.042,0.025l0.041,0.025l0.04,0.027l0.039,0.027l0.039,0.029l0.038,0.029l0.038,0.03l0.037,0.031l0.035,0.032l0.036,0.033l0.034,0.033l0.033,0.034l0.033,0.036l0.032,0.035l0.031,0.037l0.03,0.038l0.029,0.038l0.029,0.039l0.027,0.039l0.027,0.04l0.025,0.041l0.025,0.042l0.023,0.042l0.023,0.043l0.022,0.043l0.02,0.044l0.02,0.045l0.018,0.045l0.018,0.046l0.016,0.046l0.015,0.047l0.014,0.047l0.013,0.047l0.012,0.049l0.01,0.048l0.01,0.049l0.008,0.05l0.007,0.049l0.006,0.051l0.004,0.05l0.003,0.051l0.002,0.051l0.001,0.052l0,13l-0.001,0.052l-0.002,0.051l-0.003,0.051l-0.004,0.05l-0.006,0.051l-0.007,0.049l-0.008,0.05l-0.01,0.049l-0.01,0.048l-0.012,0.049l-0.013,0.047l-0.014,0.047l-0.015,0.047l-0.016,0.046l-0.018,0.046l-0.018,0.045l-0.02,0.045l-0.02,0.044l-0.022,0.043l-0.023,0.043l-0.023,0.042l-0.025,0.042l-0.025,0.041l-0.027,0.04l-0.027,0.039l-0.029,0.039l-0.029,0.038l-0.03,0.038l-0.031,0.037l-0.032,0.035l-0.033,0.036l-0.033,0.034l-0.034,0.033l-0.036,0.033l-0.035,0.032l-0.037,0.031l-0.038,0.03l-0.038,0.029l-0.039,0.029l-0.039,0.027l-0.04,0.027l-0.041,0.025l-0.042,0.025l-0.042,0.023l-0.043,0.023l-0.043,0.022l-0.044,0.02l-0.045,0.02l-0.045,0.018l-0.046,0.018l-0.046,0.016l-0.047,0.015l-0.047,0.014l-0.047,0.013l-0.049,0.012l-0.048,0.01l-0.049,0.01l-0.05,0.008l-0.049,0.007l-0.051,0.006l-0.05,0.004l-0.051,0.003l-0.051,0.002l-0.052,0.001l-19,0l-0.052,-0.001l-0.051,-0.002l-0.051,-0.003l-0.05,-0.004l-0.051,-0.006l-0.049,-0.007l-0.05,-0.008l-0.049,-0.01l-0.048,-0.01l-0.049,-0.012l-0.047,-0.013l-0.047,-0.014l-0.047,-0.015l-0.046,-0.016l-0.046,-0.018l-0.045,-0.018l-0.045,-0.02l-0.044,-0.02l-0.043,-0.022l-0.043,-0.023l-0.042,-0.023l-0.042,-0.025l-0.041,-0.025l-0.04,-0.027l-0.039,-0.027l-0.039,-0.029l-0.038,-0.029l-0.038,-0.03l-0.037,-0.031l-0.035,-0.032l-0.036,-0.033l-0.034,-0.033l-0.033,-0.034l-0.033,-0.036l-0.032,-0.035l-0.031,-0.037l-0.03,-0.038l-0.029,-0.038l-0.029,-0.039l-0.027,-0.039l-0.027,-0.04l-0.025,-0.041l-0.025,-0.042l-0.023,-0.042l-0.023,-0.043l-0.022,-0.043l-0.02,-0.044l-0.02,-0.045l-0.018,-0.045l-0.018,-0.046l-0.016,-0.046l-0.015,-0.047l-0.014,-0.047l-0.013,-0.047l-0.012,-0.049l-0.01,-0.048l-0.01,-0.049l-0.008,-0.05l-0.007,-0.049l-0.006,-0.051l-0.004,-0.05l-0.003,-0.051l-0.002,-0.051l-0.001,-0.052l0,-13l0.001,-0.052l0.002,-0.051l0.003,-0.051l0.004,-0.05l0.006,-0.051l0.007,-0.049l0.008,-0.05l0.01,-0.049l0.01,-0.048l0.012,-0.049l0.013,-0.047l0.014,-0.047l0.015,-0.047l0.016,-0.046l0.018,-0.046l0.018,-0.045l0.02,-0.045l0.02,-0.044l0.022,-0.043l0.023,-0.043l0.023,-0.042l0.025,-0.042l0.025,-0.041l0.027,-0.04l0.027,-0.039l0.029,-0.039l0.029,-0.038l0.03,-0.038l0.031,-0.037l0.032,-0.035l0.033,-0.036l0.033,-0.034l0.034,-0.033l0.036,-0.033l0.035,-0.032l0.037,-0.031l0.038,-0.03l0.038,-0.029l0.039,-0.029l0.039,-0.027l0.04,-0.027l0.041,-0.025l0.042,-0.025l0.042,-0.023l0.043,-0.023l0.043,-0.022l0.044,-0.02l0.045,-0.02l0.045,-0.018l0.046,-0.018l0.046,-0.016l0.047,-0.015l0.047,-0.014l0.047,-0.013l0.049,-0.012l0.048,-0.01l0.049,-0.01l0.05,-0.008l0.049,-0.007l0.051,-0.006l0.05,-0.004l0.051,-0.003l0.051,-0.002l0.052,-0.001l19,0l0.052,0.001ZM52.006,31l-0.032,0l-0.026,0.001l-0.026,0.002l-0.025,0.002l-0.025,0.003l-0.025,0.004l-0.025,0.004l-0.024,0.004l-0.024,0.006l-0.024,0.006l-0.024,0.006l-0.023,0.007l-0.024,0.007l-0.022,0.008l-0.023,0.009l-0.023,0.009l-0.022,0.01l-0.021,0.01l-0.022,0.011l-0.021,0.011l-0.021,0.012l-0.021,0.012l-0.021,0.013l-0.02,0.013l-0.019,0.014l-0.02,0.015l-0.02,0.014l-0.018,0.015l-0.019,0.016l-0.018,0.016l-0.017,0.016l-0.018,0.017l-0.017,0.018l-0.017,0.018l-0.015,0.017l-0.015,0.018l-0.017,0.02l-0.014,0.019l-0.014,0.019l-0.014,0.02l-0.013,0.02l-0.013,0.021l-0.012,0.02l-0.012,0.021l-0.011,0.021l-0.011,0.022l-0.01,0.023l-0.01,0.021l-0.009,0.023l-0.009,0.024l-0.008,0.022l-0.007,0.022l-0.007,0.025l-0.007,0.023l-0.005,0.023l-0.006,0.025l-0.004,0.025l-0.004,0.023l-0.004,0.025l-0.003,0.025l-0.002,0.026l-0.002,0.026l-0.001,0.026l0,0.033l0,12.986l0,0.033l0.001,0.026l0.002,0.026l0.002,0.026l0.003,0.025l0.004,0.025l0.004,0.023l0.004,0.025l0.006,0.025l0.005,0.023l0.007,0.023l0.007,0.025l0.007,0.022l0.008,0.022l0.009,0.024l0.009,0.023l0.01,0.021l0.01,0.023l0.011,0.022l0.011,0.021l0.012,0.021l0.012,0.02l0.013,0.021l0.013,0.02l0.014,0.02l0.014,0.019l0.014,0.019l0.017,0.02l0.015,0.018l0.015,0.017l0.017,0.018l0.017,0.018l0.018,0.017l0.017,0.016l0.018,0.016l0.019,0.016l0.018,0.015l0.02,0.014l0.02,0.015l0.019,0.014l0.02,0.013l0.021,0.013l0.021,0.012l0.021,0.012l0.021,0.011l0.022,0.011l0.021,0.01l0.022,0.01l0.023,0.009l0.023,0.009l0.022,0.007l0.024,0.008l0.023,0.007l0.024,0.006l0.024,0.006l0.024,0.006l0.024,0.004l0.025,0.004l0.025,0.004l0.025,0.003l0.025,0.002l0.026,0.002l0.026,0.001l0.032,0l18.988,0l0.032,0l0.026,-0.001l0.026,-0.002l0.025,-0.002l0.025,-0.003l0.025,-0.004l0.025,-0.004l0.024,-0.004l0.024,-0.006l0.024,-0.006l0.024,-0.006l0.023,-0.007l0.024,-0.008l0.023,-0.008l0.022,-0.008l0.022,-0.009l0.022,-0.01l0.022,-0.01l0.022,-0.011l0.021,-0.011l0.021,-0.012l0.021,-0.012l0.02,-0.013l0.021,-0.014l0.02,-0.013l0.019,-0.015l0.02,-0.014l0.017,-0.014l0.019,-0.016l0.02,-0.018l0.017,-0.016l0.017,-0.016l0.016,-0.017l0.016,-0.017l0.018,-0.02l0.015,-0.018l0.016,-0.019l0.013,-0.018l0.015,-0.02l0.014,-0.021l0.013,-0.019l0.012,-0.02l0.012,-0.02l0.013,-0.023l0.011,-0.022l0.011,-0.022l0.01,-0.02l0.01,-0.022l0.009,-0.024l0.008,-0.021l0.009,-0.025l0.007,-0.02l0.006,-0.023l0.008,-0.026l0.005,-0.024l0.006,-0.025l0.004,-0.023l0.004,-0.025l0.004,-0.027l0.003,-0.021l0.002,-0.025l0.001,-0.028l0.002,-0.026l0,-0.032l0,-12.988l0,-0.032l-0.002,-0.026l-0.001,-0.028l-0.002,-0.025l-0.003,-0.021l-0.004,-0.027l-0.004,-0.025l-0.004,-0.023l-0.006,-0.025l-0.005,-0.024l-0.008,-0.026l-0.006,-0.023l-0.007,-0.02l-0.009,-0.025l-0.008,-0.021l-0.009,-0.024l-0.01,-0.022l-0.01,-0.02l-0.011,-0.022l-0.011,-0.022l-0.013,-0.023l-0.012,-0.02l-0.012,-0.02l-0.013,-0.019l-0.014,-0.021l-0.015,-0.02l-0.013,-0.018l-0.016,-0.019l-0.015,-0.018l-0.018,-0.02l-0.016,-0.017l-0.016,-0.017l-0.017,-0.016l-0.017,-0.016l-0.02,-0.018l-0.019,-0.016l-0.017,-0.014l-0.02,-0.014l-0.019,-0.015l-0.02,-0.013l-0.021,-0.014l-0.02,-0.013l-0.021,-0.012l-0.021,-0.012l-0.021,-0.011l-0.022,-0.011l-0.022,-0.01l-0.022,-0.01l-0.022,-0.009l-0.022,-0.008l-0.023,-0.009l-0.024,-0.007l-0.023,-0.007l-0.024,-0.006l-0.024,-0.006l-0.024,-0.006l-0.024,-0.004l-0.025,-0.004l-0.025,-0.004l-0.025,-0.003l-0.025,-0.002l-0.026,-0.002l-0.026,-0.001l-0.032,0l-18.988,0Z" style="fill:#000;"/><rect x="56.979" y="30" width="1.021" height="17" style="fill:#fff;"/><rect x="56.979" y="30" width="1.021" height="17" style="fill:#000;"/><rect x="65" y="30" width="1.021" height="17" style="fill:#fff;"/><rect x="65" y="30" width="1.021" height="17" style="fill:#000;"/></g></g></g></svg>