<?xml version="1.0" standalone="no"?><!DOCTYPE svg PUBLIC "-//W3C//DTD SVG 1.1//EN" "http://www.w3.org/Graphics/SVG/1.1/DTD/svg11.dtd"><svg width="100%" height="100%" viewBox="0 0 13 23" version="1.1" xmlns="http://www.w3.org/2000/svg" xmlns:xlink="http://www.w3.org/1999/xlink" xml:space="preserve" style="fill-rule:evenodd;clip-rule:evenodd;stroke-linejoin:round;stroke-miterlimit:1.41421;"><clipPath id="_clip1"><path id="Artboard Default" d="M1021.57,-8.492c0,-0.931 -0.369,-1.823 -1.027,-2.481c-0.658,-0.657 -1.55,-1.027 -2.48,-1.027c-66.31,0 -1051.57,0 -1145.83,0c-1.918,0 -3.757,0.762 -5.112,2.118c-1.356,1.355 -2.118,3.194 -2.118,5.112c0,71.85 0,656.219 0,713.72c0,2.513 2.037,4.55 4.55,4.55c75.579,0 1068.36,0 1147.07,0c2.732,0 4.946,-2.215 4.946,-4.946c0,-60.944 0,-665.443 0,-717.046Z"/></clipPath><g clip-path="url(#_clip1)"><g id="fav bar"><path d="M0.179,21.268c0.003,-0.127 0.055,-0.249 0.145,-0.339c1.186,-1.186 9.488,-9.488 9.488,-9.488c0,0 -8.341,-8.342 -9.497,-9.497c-0.084,-0.085 -0.133,-0.199 -0.136,-0.319c0,-0.001 0,-0.002 0,-0.002c-0.011,-0.449 0.253,-0.859 0.665,-1.036c0.413,-0.177 0.892,-0.084 1.209,0.233c2.694,2.694 7.475,7.475 9.578,9.578c0.576,0.576 0.576,1.509 0,2.085c-2.105,2.105 -6.892,6.892 -9.585,9.585c-0.316,0.316 -0.793,0.408 -1.204,0.232c-0.411,-0.176 -0.674,-0.584 -0.663,-1.032c0,0 0,0 0,0Z" style="fill:#000;fill-rule:nonzero;"/></g></g></svg>