<?xml version="1.0" standalone="no"?><!DOCTYPE svg PUBLIC "-//W3C//DTD SVG 1.1//EN" "http://www.w3.org/Graphics/SVG/1.1/DTD/svg11.dtd"><svg width="100%" height="100%" viewBox="0 0 127 82" version="1.1" xmlns="http://www.w3.org/2000/svg" xmlns:xlink="http://www.w3.org/1999/xlink" xml:space="preserve" style="fill-rule:evenodd;clip-rule:evenodd;stroke-linejoin:round;stroke-miterlimit:1.41421;"><g id="Edit switch"><g><g><path d="M119.197,61.066l0.077,0.002l0.077,0.003l0.077,0.003l0.076,0.005l0.077,0.005l0.076,0.007l0.075,0.007l0.076,0.009l0.075,0.009l0.075,0.011l0.075,0.011l0.074,0.013l0.074,0.013l0.074,0.014l0.073,0.016l0.073,0.016l0.073,0.017l0.072,0.018l0.072,0.019l0.072,0.02l0.071,0.02l0.071,0.022l0.071,0.022l0.07,0.024l0.07,0.024l0.069,0.025l0.069,0.026l0.069,0.027l0.069,0.028l0.067,0.028l0.068,0.03l0.067,0.03l0.067,0.031l0.066,0.032l0.066,0.032l0.065,0.034l0.065,0.034l0.064,0.035l0.064,0.036l0.064,0.037l0.063,0.037l0.063,0.038l0.062,0.039l0.061,0.04l0.061,0.041l0.061,0.041l0.06,0.042l0.06,0.042l0.059,0.044l0.058,0.044l0.058,0.045l0.058,0.045l0.057,0.047l0.056,0.047l0.056,0.047l0.055,0.049l0.055,0.049l0.054,0.049l0.054,0.051l0.053,0.051l0.052,0.051l0.052,0.053l0.051,0.053l0.051,0.053l0.05,0.054l0.049,0.055l0.049,0.056l0.048,0.056l0.048,0.056l0.046,0.058l0.047,0.057l0.045,0.059l0.045,0.059l0.044,0.059l0.044,0.061l0.043,0.06l0.042,0.062l0.041,0.061l0.041,0.063l0.04,0.063l0.04,0.063l0.038,0.064l0.038,0.065l0.037,0.065l0.037,0.065l0.036,0.066l0.035,0.066l0.034,0.067l0.034,0.068l0.032,0.068l0.032,0.068l0.032,0.069l0.03,0.069l0.03,0.07l0.029,0.07l0.028,0.071l0.027,0.071l0.026,0.071l0.026,0.072l0.025,0.073l0.024,0.072l0.023,0.073l0.022,0.074l0.022,0.074l0.021,0.074l0.019,0.075l0.019,0.075l0.018,0.075l0.018,0.076l0.016,0.076l0.015,0.076l0.015,0.077l0.014,0.077l0.012,0.078l0.012,0.077l0.011,0.078l0.01,0.079l0.009,0.078l0.008,0.079l0.008,0.08l0.006,0.079l0.005,0.08l0.005,0.08l0.003,0.08l0.002,0.081l0.002,0.081l0,0.081l0,3.637l-12,0l0,-3.637l0.001,-0.081l0.001,-0.081l0.003,-0.081l0.003,-0.08l0.005,-0.08l0.005,-0.08l0.006,-0.079l0.007,-0.08l0.009,-0.079l0.009,-0.078l0.01,-0.079l0.011,-0.078l0.011,-0.077l0.013,-0.078l0.014,-0.077l0.014,-0.077l0.016,-0.076l0.016,-0.076l0.017,-0.076l0.018,-0.075l0.019,-0.075l0.02,-0.075l0.021,-0.074l0.021,-0.074l0.023,-0.074l0.023,-0.073l0.024,-0.073l0.025,-0.072l0.025,-0.072l0.027,-0.071l0.027,-0.071l0.028,-0.071l0.029,-0.07l0.03,-0.07l0.03,-0.069l0.031,-0.069l0.032,-0.068l0.033,-0.068l0.034,-0.068l0.034,-0.067l0.035,-0.066l0.036,-0.066l0.036,-0.066l0.038,-0.064l0.038,-0.065l0.038,-0.064l0.04,-0.063l0.04,-0.063l0.04,-0.063l0.042,-0.061l0.042,-0.062l0.043,-0.06l0.044,-0.061l0.044,-0.059l0.045,-0.059l0.045,-0.059l0.046,-0.057l0.047,-0.058l0.048,-0.056l0.048,-0.056l0.049,-0.056l0.049,-0.055l0.05,-0.054l0.051,-0.053l0.051,-0.053l0.052,-0.053l0.052,-0.051l0.053,-0.051l0.054,-0.051l0.054,-0.049l0.054,-0.049l0.056,-0.049l0.056,-0.047l0.056,-0.047l0.057,-0.047l0.057,-0.045l0.058,-0.045l0.059,-0.044l0.059,-0.044l0.06,-0.042l0.06,-0.042l0.06,-0.041l0.062,-0.041l0.061,-0.04l0.062,-0.039l0.063,-0.038l0.063,-0.037l0.063,-0.037l0.064,-0.036l0.065,-0.035l0.065,-0.034l0.065,-0.034l0.066,-0.032l0.066,-0.032l0.067,-0.031l0.067,-0.03l0.067,-0.03l0.068,-0.028l0.069,-0.028l0.068,-0.027l0.069,-0.026l0.07,-0.025l0.07,-0.024l0.07,-0.024l0.071,-0.022l0.071,-0.022l0.071,-0.02l0.072,-0.02l0.072,-0.019l0.072,-0.018l0.073,-0.017l0.073,-0.016l0.073,-0.016l0.074,-0.014l0.074,-0.013l0.074,-0.013l0.075,-0.011l0.075,-0.011l0.075,-0.009l0.075,-0.009l0.076,-0.007l0.076,-0.007l0.076,-0.005l0.077,-0.005l0.077,-0.003l0.077,-0.003l0.077,-0.002l0.077,0l0.078,0ZM119.056,62.124l-0.064,0.001l-0.062,0.002l-0.063,0.003l-0.063,0.004l-0.062,0.005l-0.062,0.005l-0.062,0.006l-0.061,0.007l-0.061,0.008l-0.062,0.008l-0.061,0.01l-0.06,0.01l-0.06,0.011l-0.06,0.011l-0.061,0.013l-0.059,0.013l-0.059,0.014l-0.06,0.015l-0.058,0.015l-0.058,0.016l-0.059,0.017l-0.058,0.018l-0.057,0.018l-0.058,0.019l-0.057,0.02l-0.056,0.02l-0.057,0.022l-0.056,0.022l-0.056,0.022l-0.056,0.024l-0.055,0.024l-0.054,0.024l-0.055,0.026l-0.054,0.026l-0.054,0.027l-0.055,0.027l-0.052,0.028l-0.053,0.029l-0.053,0.029l-0.052,0.031l-0.052,0.031l-0.051,0.031l-0.051,0.032l-0.051,0.032l-0.05,0.034l-0.05,0.034l-0.049,0.034l-0.05,0.035l-0.049,0.037l-0.048,0.036l-0.047,0.036l-0.048,0.038l-0.047,0.038l-0.047,0.04l-0.046,0.039l-0.045,0.039l-0.046,0.041l-0.045,0.041l-0.044,0.042l-0.044,0.042l-0.043,0.043l-0.043,0.044l-0.043,0.043l-0.041,0.044l-0.042,0.046l-0.042,0.046l-0.039,0.045l-0.04,0.047l-0.04,0.047l-0.039,0.047l-0.038,0.049l-0.038,0.048l-0.038,0.049l-0.036,0.05l-0.036,0.05l-0.036,0.05l-0.035,0.051l-0.035,0.052l-0.034,0.051l-0.033,0.053l-0.033,0.053l-0.032,0.053l-0.032,0.054l-0.031,0.054l-0.03,0.055l-0.03,0.055l-0.029,0.055l-0.029,0.056l-0.028,0.056l-0.027,0.057l-0.027,0.056l-0.026,0.058l-0.025,0.058l-0.025,0.059l-0.024,0.058l-0.024,0.059l-0.022,0.059l-0.022,0.059l-0.022,0.061l-0.021,0.06l-0.02,0.061l-0.019,0.061l-0.019,0.061l-0.018,0.062l-0.017,0.063l-0.017,0.061l-0.015,0.063l-0.016,0.063l-0.014,0.064l-0.014,0.064l-0.013,0.064l-0.012,0.064l-0.011,0.064l-0.011,0.065l-0.01,0.065l-0.009,0.066l-0.008,0.065l-0.008,0.067l-0.007,0.066l-0.006,0.065l-0.005,0.068l-0.005,0.067l-0.003,0.067l-0.003,0.068l-0.002,0.067l-0.002,0.069l0,0.071l0,2.576l9.885,0l0,-2.576l-0.001,-0.071l-0.001,-0.068l-0.002,-0.068l-0.003,-0.069l-0.003,-0.066l-0.005,-0.066l-0.005,-0.068l-0.006,-0.067l-0.007,-0.066l-0.008,-0.065l-0.008,-0.067l-0.009,-0.066l-0.01,-0.064l-0.011,-0.065l-0.011,-0.064l-0.013,-0.064l-0.012,-0.064l-0.014,-0.064l-0.015,-0.064l-0.015,-0.062l-0.015,-0.063l-0.017,-0.063l-0.017,-0.062l-0.018,-0.061l-0.019,-0.062l-0.02,-0.062l-0.019,-0.06l-0.021,-0.06l-0.021,-0.06l-0.023,-0.06l-0.022,-0.059l-0.024,-0.059l-0.024,-0.059l-0.025,-0.058l-0.025,-0.058l-0.026,-0.057l-0.027,-0.057l-0.028,-0.058l-0.027,-0.055l-0.028,-0.055l-0.03,-0.056l-0.03,-0.056l-0.03,-0.054l-0.031,-0.053l-0.032,-0.055l-0.033,-0.054l-0.032,-0.053l-0.033,-0.052l-0.034,-0.051l-0.035,-0.052l-0.035,-0.051l-0.036,-0.05l-0.036,-0.05l-0.037,-0.05l-0.037,-0.049l-0.038,-0.048l-0.038,-0.049l-0.039,-0.047l-0.039,-0.047l-0.041,-0.047l-0.04,-0.046l-0.041,-0.046l-0.042,-0.045l-0.041,-0.043l-0.043,-0.044l-0.043,-0.044l-0.043,-0.043l-0.044,-0.042l-0.045,-0.042l-0.044,-0.041l-0.045,-0.04l-0.046,-0.04l-0.047,-0.04l-0.046,-0.038l-0.047,-0.039l-0.048,-0.038l-0.047,-0.036l-0.049,-0.037l-0.049,-0.036l-0.049,-0.035l-0.049,-0.034l-0.05,-0.034l-0.05,-0.034l-0.051,-0.032l-0.051,-0.032l-0.051,-0.031l-0.053,-0.032l-0.052,-0.03l-0.052,-0.029l-0.053,-0.029l-0.053,-0.028l-0.053,-0.027l-0.055,-0.027l-0.054,-0.026l-0.054,-0.026l-0.055,-0.024l-0.056,-0.024l-0.055,-0.024l-0.056,-0.022l-0.057,-0.022l-0.056,-0.022l-0.056,-0.02l-0.057,-0.02l-0.058,-0.019l-0.057,-0.018l-0.059,-0.018l-0.058,-0.017l-0.058,-0.016l-0.059,-0.016l-0.059,-0.014l-0.059,-0.014l-0.06,-0.013l-0.06,-0.013l-0.06,-0.011l-0.06,-0.011l-0.06,-0.01l-0.061,-0.01l-0.062,-0.008l-0.061,-0.008l-0.061,-0.007l-0.062,-0.006l-0.062,-0.005l-0.062,-0.005l-0.063,-0.004l-0.063,-0.003l-0.063,-0.002l-0.063,-0.001l-0.064,0l-0.063,0Z" style="fill:#000;"/><path d="M125.714,69.99l0.037,0.001l0.037,0.003l0.036,0.003l0.036,0.004l0.036,0.005l0.036,0.006l0.035,0.007l0.035,0.008l0.035,0.008l0.034,0.009l0.034,0.01l0.034,0.011l0.033,0.012l0.033,0.013l0.033,0.013l0.032,0.014l0.032,0.015l0.031,0.015l0.031,0.017l0.031,0.017l0.03,0.018l0.029,0.018l0.029,0.019l0.029,0.02l0.028,0.02l0.027,0.021l0.027,0.022l0.027,0.023l0.025,0.023l0.026,0.023l0.025,0.024l0.024,0.025l0.023,0.025l0.023,0.026l0.023,0.027l0.021,0.027l0.022,0.027l0.02,0.028l0.02,0.029l0.019,0.029l0.018,0.029l0.018,0.03l0.017,0.031l0.016,0.031l0.016,0.031l0.015,0.032l0.014,0.032l0.013,0.032l0.013,0.033l0.012,0.034l0.01,0.033l0.011,0.034l0.009,0.035l0.008,0.035l0.008,0.035l0.007,0.035l0.006,0.036l0.005,0.036l0.004,0.036l0.003,0.036l0.002,0.037l0.002,0.037l0,0.037l0,9.191l0,0.037l-0.002,0.037l-0.002,0.037l-0.003,0.037l-0.004,0.036l-0.005,0.036l-0.006,0.035l-0.007,0.036l-0.008,0.035l-0.008,0.035l-0.009,0.034l-0.011,0.034l-0.01,0.034l-0.012,0.033l-0.013,0.033l-0.013,0.033l-0.014,0.032l-0.015,0.031l-0.016,0.032l-0.016,0.031l-0.017,0.03l-0.018,0.03l-0.018,0.03l-0.019,0.029l-0.02,0.028l-0.02,0.028l-0.022,0.028l-0.021,0.027l-0.023,0.026l-0.023,0.026l-0.023,0.025l-0.024,0.025l-0.025,0.024l-0.026,0.024l-0.025,0.023l-0.027,0.022l-0.027,0.022l-0.027,0.021l-0.028,0.021l-0.029,0.019l-0.029,0.019l-0.029,0.019l-0.03,0.018l-0.031,0.017l-0.031,0.016l-0.031,0.016l-0.032,0.014l-0.032,0.014l-0.033,0.014l-0.033,0.012l-0.033,0.012l-0.034,0.011l-0.034,0.01l-0.034,0.009l-0.035,0.009l-0.035,0.008l-0.035,0.006l-0.036,0.006l-0.036,0.005l-0.036,0.004l-0.036,0.004l-0.037,0.002l-0.037,0.001l-0.037,0.001l-13.133,0l-0.037,-0.001l-0.037,-0.001l-0.037,-0.002l-0.036,-0.004l-0.036,-0.004l-0.036,-0.005l-0.036,-0.006l-0.035,-0.006l-0.035,-0.008l-0.035,-0.009l-0.034,-0.009l-0.034,-0.01l-0.034,-0.011l-0.034,-0.012l-0.032,-0.012l-0.033,-0.014l-0.032,-0.014l-0.032,-0.014l-0.031,-0.016l-0.031,-0.016l-0.031,-0.017l-0.03,-0.018l-0.029,-0.019l-0.029,-0.019l-0.029,-0.019l-0.028,-0.021l-0.027,-0.021l-0.027,-0.022l-0.027,-0.022l-0.026,-0.023l-0.025,-0.024l-0.025,-0.024l-0.024,-0.025l-0.023,-0.025l-0.023,-0.026l-0.023,-0.026l-0.022,-0.027l-0.021,-0.028l-0.02,-0.028l-0.02,-0.028l-0.019,-0.029l-0.018,-0.03l-0.018,-0.03l-0.017,-0.03l-0.016,-0.031l-0.016,-0.032l-0.015,-0.031l-0.014,-0.032l-0.013,-0.033l-0.013,-0.033l-0.012,-0.033l-0.01,-0.034l-0.011,-0.034l-0.009,-0.034l-0.008,-0.035l-0.008,-0.035l-0.007,-0.036l-0.006,-0.035l-0.005,-0.036l-0.004,-0.036l-0.003,-0.037l-0.003,-0.037l-0.001,-0.037l0,-0.037l0,-9.191l0,-0.037l0.001,-0.037l0.003,-0.037l0.003,-0.036l0.004,-0.036l0.005,-0.036l0.006,-0.036l0.007,-0.035l0.008,-0.035l0.008,-0.035l0.009,-0.035l0.011,-0.034l0.01,-0.033l0.012,-0.034l0.013,-0.033l0.013,-0.032l0.014,-0.032l0.015,-0.032l0.016,-0.031l0.016,-0.031l0.017,-0.031l0.018,-0.03l0.018,-0.029l0.019,-0.029l0.02,-0.029l0.02,-0.028l0.021,-0.027l0.022,-0.027l0.023,-0.027l0.023,-0.026l0.023,-0.025l0.024,-0.025l0.025,-0.024l0.025,-0.023l0.026,-0.023l0.027,-0.023l0.027,-0.022l0.027,-0.021l0.028,-0.02l0.029,-0.02l0.029,-0.019l0.029,-0.018l0.03,-0.018l0.031,-0.017l0.031,-0.017l0.031,-0.015l0.032,-0.015l0.032,-0.014l0.033,-0.013l0.032,-0.013l0.034,-0.012l0.034,-0.011l0.034,-0.01l0.034,-0.009l0.035,-0.008l0.035,-0.008l0.035,-0.007l0.036,-0.006l0.036,-0.005l0.036,-0.004l0.036,-0.003l0.037,-0.003l0.037,-0.001l0.037,0l13.133,0l0.037,0ZM112.551,70.99l-0.018,0l-0.013,0l-0.011,0.001l-0.011,0.001l-0.011,0.001l-0.011,0.002l-0.011,0.002l-0.011,0.002l-0.011,0.002l-0.01,0.003l-0.01,0.002l-0.01,0.003l-0.011,0.004l-0.01,0.003l-0.009,0.004l-0.01,0.004l-0.01,0.004l-0.01,0.005l-0.009,0.005l-0.01,0.005l-0.008,0.004l-0.01,0.006l-0.01,0.006l-0.008,0.005l-0.008,0.006l-0.01,0.008l-0.008,0.005l-0.009,0.008l-0.009,0.007l-0.005,0.005l-0.009,0.008l-0.009,0.009l-0.008,0.008l-0.007,0.008l-0.006,0.006l-0.007,0.009l-0.007,0.009l-0.008,0.009l-0.005,0.008l-0.006,0.008l-0.007,0.011l-0.004,0.006l-0.005,0.01l-0.007,0.012l-0.005,0.01l-0.004,0.008l-0.004,0.008l-0.005,0.011l-0.004,0.009l-0.004,0.01l-0.004,0.012l-0.002,0.008l-0.004,0.011l-0.003,0.011l-0.002,0.008l-0.002,0.012l-0.003,0.013l-0.001,0.01l-0.001,0.008l-0.002,0.013l-0.001,0.012l-0.001,0.009l0,0.015l0,0.018l0,9.175l0,0.018l0,0.015l0.001,0.01l0.001,0.011l0.002,0.014l0.001,0.008l0.001,0.01l0.003,0.012l0.002,0.012l0.002,0.009l0.003,0.011l0.004,0.01l0.002,0.008l0.004,0.013l0.004,0.009l0.004,0.009l0.005,0.011l0.004,0.009l0.004,0.008l0.005,0.01l0.007,0.012l0.005,0.009l0.004,0.006l0.007,0.011l0.006,0.008l0.006,0.008l0.007,0.01l0.007,0.009l0.007,0.008l0.006,0.007l0.008,0.008l0.007,0.007l0.009,0.009l0.009,0.008l0.005,0.005l0.009,0.008l0.009,0.007l0.008,0.006l0.01,0.007l0.008,0.006l0.008,0.005l0.01,0.007l0.01,0.006l0.007,0.003l0.011,0.006l0.01,0.005l0.009,0.004l0.01,0.005l0.01,0.003l0.009,0.004l0.011,0.004l0.01,0.003l0.009,0.003l0.012,0.003l0.01,0.003l0.01,0.002l0.011,0.002l0.011,0.002l0.011,0.001l0.011,0.001l0.011,0.001l0.012,0.001l0.012,0.001l0.018,0l13.119,0l0.018,0l0.012,-0.001l0.012,-0.001l0.011,-0.001l0.011,-0.001l0.011,-0.001l0.011,-0.002l0.01,-0.002l0.011,-0.002l0.01,-0.003l0.011,-0.003l0.011,-0.003l0.009,-0.003l0.01,-0.004l0.01,-0.004l0.01,-0.003l0.01,-0.005l0.009,-0.004l0.01,-0.005l0.01,-0.005l0.009,-0.005l0.009,-0.005l0.009,-0.006l0.01,-0.007l0.009,-0.006l0.007,-0.005l0.009,-0.007l0.009,-0.007l0.009,-0.008l0.007,-0.006l0.008,-0.007l0.008,-0.009l0.006,-0.005l0.007,-0.009l0.009,-0.009l0.007,-0.009l0.006,-0.007l0.006,-0.008l0.007,-0.01l0.006,-0.008l0.007,-0.011l0.005,-0.008l0.005,-0.007l0.006,-0.012l0.004,-0.008l0.004,-0.008l0.006,-0.013l0.004,-0.009l0.004,-0.009l0.003,-0.009l0.004,-0.01l0.004,-0.013l0.003,-0.008l0.002,-0.011l0.003,-0.012l0.002,-0.009l0.002,-0.009l0.002,-0.011l0.002,-0.013l0.001,-0.011l0.001,-0.011l0.001,-0.012l0,-0.01l0,-0.018l0,-9.18l0,-0.019l0,-0.009l-0.001,-0.012l-0.001,-0.012l-0.001,-0.011l-0.002,-0.013l-0.002,-0.01l-0.002,-0.01l-0.002,-0.009l-0.003,-0.011l-0.002,-0.011l-0.003,-0.008l-0.004,-0.013l-0.004,-0.01l-0.003,-0.01l-0.004,-0.009l-0.004,-0.008l-0.006,-0.014l-0.004,-0.008l-0.004,-0.007l-0.006,-0.012l-0.005,-0.007l-0.005,-0.009l-0.007,-0.011l-0.006,-0.008l-0.007,-0.009l-0.006,-0.008l-0.006,-0.008l-0.007,-0.008l-0.009,-0.01l-0.007,-0.008l-0.006,-0.006l-0.009,-0.009l-0.007,-0.007l-0.007,-0.006l-0.009,-0.007l-0.009,-0.008l-0.009,-0.006l-0.007,-0.006l-0.009,-0.006l-0.01,-0.007l-0.009,-0.005l-0.009,-0.005l-0.01,-0.006l-0.009,-0.004l-0.009,-0.005l-0.01,-0.005l-0.01,-0.004l-0.01,-0.004l-0.01,-0.004l-0.009,-0.003l-0.011,-0.004l-0.011,-0.003l-0.009,-0.002l-0.011,-0.003l-0.011,-0.002l-0.01,-0.002l-0.011,-0.002l-0.011,-0.002l-0.011,-0.001l-0.011,-0.001l-0.011,-0.001l-0.013,0l-0.018,0l-13.119,0Z" style="fill:#000;"/><path d="M126.28,72.066c0,0 -5.795,0 -7.569,0c-0.135,0 -0.264,0.054 -0.36,0.149c-0.095,0.096 -0.149,0.225 -0.149,0.36c0,0.005 0,0.01 0,0.015c0,0.263 0.213,0.476 0.476,0.476c1.732,0 7.602,0 7.602,0l0,-1Z" style="fill:#000;"/><path d="M126.28,74.066c0,0 -5.858,0 -7.597,0c-0.266,0 -0.481,0.215 -0.481,0.481c0,0.008 0,0.016 0,0.023c0,0.132 0.052,0.258 0.145,0.351c0.093,0.093 0.219,0.145 0.351,0.145c1.756,0 7.582,0 7.582,0l0,-1Z" style="fill:#000;"/><path d="M126.28,76.066c0,0 -5.809,0 -7.575,0c-0.133,0 -0.261,0.053 -0.356,0.147c-0.094,0.095 -0.147,0.222 -0.147,0.356c0,0 0,0.001 0,0.001c0,0.131 0.052,0.258 0.145,0.351c0.093,0.093 0.22,0.145 0.351,0.145c1.757,0 7.582,0 7.582,0l0,-1Z" style="fill:#000;"/><path d="M126.28,78.017c0,0 -5.774,0 -7.559,0c-0.137,0 -0.269,0.055 -0.367,0.152c-0.097,0.097 -0.152,0.23 -0.152,0.367c0,0.009 0,0.018 0,0.026c0,0.134 0.053,0.262 0.148,0.356c0.094,0.095 0.222,0.148 0.355,0.148c1.767,0 7.575,0 7.575,0l0,-1.049Z" style="fill:#000;"/></g><g><path d="M90.581,82.066l0,-1.566l2.143,-0.496l5.957,-16.077l2.612,-0.131l5.8,16.208l2.169,0.496l0,1.566l-7.577,0l0,-1.566l2.43,-0.496l-0.993,-2.897l-6.793,0l-1.019,2.897l2.456,0.496l0,1.566l-7.185,0ZM99.778,67.163l-2.743,7.856l5.382,0l-2.639,-7.856Z" style="fill:#000;fill-rule:nonzero;"/></g></g><g><clipPath id="_clip1"><rect x="0" y="60.5" width="40.39" height="21.434"/></clipPath><g clip-path="url(#_clip1)"><g opacity="0.5"><g><path d="M0,81.934l0,-1.566l2.142,-0.496l5.957,-16.077l2.613,-0.13l5.8,16.207l2.168,0.496l0,1.566l-7.576,0l0,-1.566l2.43,-0.496l-0.993,-2.897l-6.793,0l-1.019,2.897l2.456,0.496l0,1.566l-7.185,0ZM9.197,67.032l-2.744,7.855l5.382,0l-2.638,-7.855Z" style="fill:#000;fill-rule:nonzero;"/></g><path d="M40.39,62.348c0.003,0.12 -0.039,0.24 -0.13,0.331c-0.02,0.02 -0.044,0.029 -0.067,0.044l-1.245,1.245l0.319,0.319c0.022,0.015 0.047,0.024 0.067,0.044c0.091,0.091 0.133,0.211 0.13,0.33c0.003,0.119 -0.039,0.24 -0.13,0.331c-0.02,0.019 -0.045,0.028 -0.067,0.044l-14.687,14.672c-0.051,0.099 -0.133,0.182 -0.242,0.223l-4.539,1.778c-0.027,0.015 -0.054,0.024 -0.084,0.033l-0.005,0.002c-0.004,0.002 -0.008,0.001 -0.011,0.002c-0.043,0.012 -0.086,0.022 -0.133,0.021c-0.045,0.002 -0.087,-0.007 -0.131,-0.019c-0.009,-0.003 -0.018,-0.001 -0.028,-0.004c-0.003,-0.001 -0.006,-0.005 -0.009,-0.006c-0.041,-0.015 -0.076,-0.038 -0.111,-0.065c-0.019,-0.013 -0.038,-0.025 -0.053,-0.04c-0.015,-0.015 -0.027,-0.034 -0.04,-0.052c-0.026,-0.035 -0.049,-0.071 -0.065,-0.111c-0.002,-0.004 -0.005,-0.006 -0.006,-0.01c-0.003,-0.009 -0.001,-0.019 -0.004,-0.028c-0.012,-0.043 -0.02,-0.085 -0.019,-0.13c0,-0.047 0.009,-0.09 0.021,-0.133c0.002,-0.004 0,-0.007 0.002,-0.011l0.002,-0.006c0.01,-0.029 0.018,-0.057 0.033,-0.083l1.78,-4.534c0.042,-0.109 0.125,-0.191 0.223,-0.242l12.858,-12.843c-0.123,-0.386 -0.48,-0.668 -0.907,-0.668c-0.282,0 -0.533,0.125 -0.707,0.319l-0.002,-0.001l-1.505,1.504l0.002,0.001l-3.167,3.163c-0.176,0.176 -0.462,0.176 -0.639,0c-0.177,-0.176 -0.177,-0.463 0,-0.639l4.654,-4.648c0.007,-0.008 0.017,-0.01 0.025,-0.017c0.338,-0.355 0.811,-0.578 1.34,-0.578c0.671,0 1.25,0.362 1.573,0.898l1.164,-1.162c0.015,-0.022 0.024,-0.047 0.044,-0.067c0.091,-0.091 0.211,-0.133 0.331,-0.13c0.119,-0.003 0.24,0.039 0.331,0.13c0.02,0.02 0.029,0.045 0.044,0.067l0.32,0.319l1.245,-1.245c0.016,-0.021 0.025,-0.046 0.044,-0.066c0.092,-0.091 0.212,-0.133 0.332,-0.13c0.119,-0.003 0.239,0.039 0.331,0.13c0.019,0.02 0.028,0.045 0.044,0.066l1.279,1.278c0.022,0.015 0.047,0.025 0.066,0.044c0.09,0.091 0.132,0.211 0.129,0.33ZM20.418,80.451l2.953,-1.158l-1.794,-1.792l-1.159,2.95ZM36.224,62.525l-14.18,14.165l2.139,2.137l14.18,-14.165l-2.139,-2.137ZM38.54,61.599l-0.982,0.981l0.75,0.749l0.981,-0.981l-0.749,-0.749Z" style="fill:#000;"/></g></g></g><g><path d="M77.783,72.8c0,-3.396 -2.757,-6.153 -6.153,-6.153l-18.052,0c-3.396,0 -6.153,2.757 -6.153,6.153c0,3.395 2.757,6.152 6.153,6.152l18.052,0c3.396,0 6.153,-2.757 6.153,-6.152Z" style="fill:#000;"/><path d="M76.869,72.8c0,-2.853 -2.315,-5.169 -5.168,-5.169l-0.163,0c-2.853,0 -5.169,2.316 -5.169,5.169c0,2.852 2.316,5.168 5.169,5.168l0.163,0c2.853,0 5.168,-2.316 5.168,-5.168Z" style="fill:#fff;"/></g></g><g id="Edit switch1"><g><g opacity="0.5"><g><path d="M119.197,1.066l0.077,0.002l0.077,0.003l0.077,0.003l0.076,0.005l0.077,0.005l0.076,0.007l0.075,0.007l0.076,0.009l0.075,0.009l0.075,0.011l0.075,0.011l0.074,0.013l0.074,0.013l0.074,0.014l0.073,0.016l0.073,0.016l0.073,0.017l0.072,0.018l0.072,0.019l0.072,0.02l0.071,0.02l0.071,0.022l0.071,0.022l0.07,0.024l0.07,0.024l0.069,0.025l0.069,0.026l0.069,0.027l0.069,0.028l0.067,0.028l0.068,0.03l0.067,0.03l0.067,0.031l0.066,0.032l0.066,0.032l0.065,0.034l0.065,0.034l0.064,0.035l0.064,0.036l0.064,0.037l0.063,0.037l0.063,0.038l0.062,0.039l0.061,0.04l0.061,0.041l0.061,0.041l0.06,0.042l0.06,0.042l0.059,0.044l0.058,0.044l0.058,0.045l0.058,0.045l0.057,0.047l0.056,0.047l0.056,0.047l0.055,0.049l0.055,0.049l0.054,0.049l0.054,0.051l0.053,0.051l0.052,0.051l0.052,0.053l0.051,0.053l0.051,0.053l0.05,0.054l0.049,0.055l0.049,0.056l0.048,0.056l0.048,0.056l0.046,0.058l0.047,0.057l0.045,0.059l0.045,0.059l0.044,0.059l0.044,0.061l0.043,0.06l0.042,0.062l0.041,0.061l0.041,0.063l0.04,0.063l0.04,0.063l0.038,0.064l0.038,0.065l0.037,0.065l0.037,0.065l0.036,0.066l0.035,0.066l0.034,0.067l0.034,0.068l0.032,0.068l0.032,0.068l0.032,0.069l0.03,0.069l0.03,0.07l0.029,0.07l0.028,0.071l0.027,0.071l0.026,0.071l0.026,0.072l0.025,0.073l0.024,0.072l0.023,0.073l0.022,0.074l0.022,0.074l0.021,0.074l0.019,0.075l0.019,0.075l0.018,0.075l0.018,0.076l0.016,0.076l0.015,0.076l0.015,0.077l0.014,0.077l0.012,0.078l0.012,0.077l0.011,0.078l0.01,0.079l0.009,0.078l0.008,0.079l0.008,0.08l0.006,0.079l0.005,0.08l0.005,0.08l0.003,0.08l0.002,0.081l0.002,0.081l0,0.081l0,3.637l-12,0l0,-3.637l0.001,-0.081l0.001,-0.081l0.003,-0.081l0.003,-0.08l0.005,-0.08l0.005,-0.08l0.006,-0.079l0.007,-0.08l0.009,-0.079l0.009,-0.078l0.01,-0.079l0.011,-0.078l0.011,-0.077l0.013,-0.078l0.014,-0.077l0.014,-0.077l0.016,-0.076l0.016,-0.076l0.017,-0.076l0.018,-0.075l0.019,-0.075l0.02,-0.075l0.021,-0.074l0.021,-0.074l0.023,-0.074l0.023,-0.073l0.024,-0.073l0.025,-0.072l0.025,-0.072l0.027,-0.071l0.027,-0.071l0.028,-0.071l0.029,-0.07l0.03,-0.07l0.03,-0.069l0.031,-0.069l0.032,-0.068l0.033,-0.068l0.034,-0.068l0.034,-0.067l0.035,-0.066l0.036,-0.066l0.036,-0.066l0.038,-0.064l0.038,-0.065l0.038,-0.064l0.04,-0.063l0.04,-0.063l0.04,-0.063l0.042,-0.061l0.042,-0.062l0.043,-0.06l0.044,-0.061l0.044,-0.059l0.045,-0.059l0.045,-0.059l0.046,-0.057l0.047,-0.058l0.048,-0.056l0.048,-0.056l0.049,-0.056l0.049,-0.055l0.05,-0.054l0.051,-0.053l0.051,-0.053l0.052,-0.053l0.052,-0.051l0.053,-0.051l0.054,-0.051l0.054,-0.049l0.054,-0.049l0.056,-0.049l0.056,-0.047l0.056,-0.047l0.057,-0.047l0.057,-0.045l0.058,-0.045l0.059,-0.044l0.059,-0.044l0.06,-0.042l0.06,-0.042l0.06,-0.041l0.062,-0.041l0.061,-0.04l0.062,-0.039l0.063,-0.038l0.063,-0.037l0.063,-0.037l0.064,-0.036l0.065,-0.035l0.065,-0.034l0.065,-0.034l0.066,-0.032l0.066,-0.032l0.067,-0.031l0.067,-0.03l0.067,-0.03l0.068,-0.028l0.069,-0.028l0.068,-0.027l0.069,-0.026l0.07,-0.025l0.07,-0.024l0.07,-0.024l0.071,-0.022l0.071,-0.022l0.071,-0.02l0.072,-0.02l0.072,-0.019l0.072,-0.018l0.073,-0.017l0.073,-0.016l0.073,-0.016l0.074,-0.014l0.074,-0.013l0.074,-0.013l0.075,-0.011l0.075,-0.011l0.075,-0.009l0.075,-0.009l0.076,-0.007l0.076,-0.007l0.076,-0.005l0.077,-0.005l0.077,-0.003l0.077,-0.003l0.077,-0.002l0.077,0l0.078,0ZM119.056,2.124l-0.063,0.001l-0.063,0.002l-0.063,0.003l-0.062,0.004l-0.063,0.005l-0.062,0.005l-0.062,0.006l-0.061,0.007l-0.062,0.008l-0.061,0.008l-0.061,0.01l-0.06,0.01l-0.06,0.011l-0.061,0.011l-0.059,0.013l-0.06,0.013l-0.06,0.014l-0.059,0.015l-0.058,0.015l-0.059,0.016l-0.058,0.017l-0.058,0.018l-0.057,0.018l-0.058,0.019l-0.057,0.02l-0.057,0.02l-0.056,0.022l-0.056,0.022l-0.056,0.022l-0.056,0.024l-0.055,0.024l-0.055,0.024l-0.054,0.026l-0.055,0.026l-0.053,0.027l-0.054,0.027l-0.053,0.028l-0.053,0.029l-0.053,0.03l-0.052,0.03l-0.052,0.03l-0.051,0.032l-0.051,0.032l-0.051,0.032l-0.05,0.033l-0.05,0.035l-0.05,0.034l-0.048,0.035l-0.05,0.037l-0.048,0.036l-0.048,0.037l-0.047,0.037l-0.047,0.038l-0.047,0.04l-0.046,0.039l-0.045,0.039l-0.046,0.041l-0.045,0.041l-0.044,0.042l-0.044,0.042l-0.043,0.043l-0.043,0.044l-0.043,0.043l-0.041,0.044l-0.043,0.046l-0.041,0.046l-0.039,0.045l-0.04,0.047l-0.04,0.047l-0.039,0.047l-0.039,0.049l-0.037,0.048l-0.038,0.049l-0.036,0.05l-0.037,0.05l-0.035,0.05l-0.035,0.051l-0.035,0.052l-0.034,0.051l-0.033,0.053l-0.033,0.053l-0.032,0.053l-0.032,0.054l-0.031,0.053l-0.03,0.056l-0.03,0.055l-0.029,0.055l-0.029,0.056l-0.028,0.056l-0.027,0.057l-0.027,0.056l-0.026,0.058l-0.025,0.058l-0.025,0.059l-0.024,0.058l-0.024,0.059l-0.022,0.059l-0.022,0.059l-0.022,0.061l-0.021,0.06l-0.02,0.061l-0.019,0.061l-0.019,0.061l-0.018,0.062l-0.017,0.063l-0.017,0.061l-0.015,0.063l-0.016,0.063l-0.014,0.064l-0.014,0.064l-0.013,0.064l-0.012,0.064l-0.011,0.064l-0.011,0.065l-0.01,0.065l-0.009,0.066l-0.008,0.065l-0.008,0.066l-0.007,0.067l-0.006,0.065l-0.005,0.068l-0.005,0.067l-0.003,0.067l-0.003,0.068l-0.002,0.067l-0.002,0.068l0,0.072l0,2.576l9.885,0l0,-2.576l-0.001,-0.072l-0.001,-0.067l-0.002,-0.068l-0.003,-0.069l-0.003,-0.066l-0.005,-0.066l-0.005,-0.068l-0.006,-0.067l-0.007,-0.066l-0.008,-0.065l-0.008,-0.067l-0.009,-0.065l-0.01,-0.065l-0.011,-0.065l-0.011,-0.064l-0.013,-0.064l-0.012,-0.064l-0.014,-0.064l-0.015,-0.064l-0.015,-0.062l-0.015,-0.063l-0.017,-0.063l-0.017,-0.062l-0.018,-0.061l-0.019,-0.062l-0.02,-0.062l-0.019,-0.06l-0.021,-0.06l-0.021,-0.06l-0.023,-0.06l-0.022,-0.059l-0.024,-0.059l-0.024,-0.059l-0.025,-0.058l-0.025,-0.058l-0.026,-0.057l-0.027,-0.057l-0.028,-0.058l-0.027,-0.055l-0.028,-0.055l-0.03,-0.056l-0.03,-0.056l-0.03,-0.054l-0.031,-0.054l-0.032,-0.054l-0.032,-0.053l-0.033,-0.054l-0.033,-0.052l-0.034,-0.051l-0.035,-0.052l-0.035,-0.051l-0.036,-0.05l-0.036,-0.05l-0.037,-0.05l-0.037,-0.049l-0.038,-0.048l-0.038,-0.049l-0.039,-0.047l-0.039,-0.047l-0.04,-0.047l-0.041,-0.046l-0.041,-0.046l-0.042,-0.045l-0.041,-0.044l-0.043,-0.043l-0.043,-0.044l-0.043,-0.043l-0.044,-0.042l-0.045,-0.042l-0.044,-0.041l-0.045,-0.04l-0.046,-0.04l-0.047,-0.04l-0.046,-0.038l-0.047,-0.039l-0.048,-0.037l-0.048,-0.037l-0.048,-0.037l-0.049,-0.036l-0.049,-0.035l-0.049,-0.034l-0.05,-0.034l-0.051,-0.034l-0.05,-0.032l-0.051,-0.032l-0.051,-0.031l-0.053,-0.032l-0.052,-0.03l-0.052,-0.029l-0.053,-0.029l-0.053,-0.028l-0.053,-0.027l-0.055,-0.027l-0.054,-0.026l-0.054,-0.025l-0.055,-0.025l-0.056,-0.025l-0.055,-0.023l-0.056,-0.022l-0.056,-0.022l-0.057,-0.022l-0.056,-0.02l-0.057,-0.02l-0.058,-0.019l-0.058,-0.018l-0.057,-0.018l-0.059,-0.017l-0.058,-0.016l-0.059,-0.016l-0.059,-0.014l-0.059,-0.014l-0.06,-0.013l-0.06,-0.013l-0.06,-0.011l-0.06,-0.011l-0.061,-0.01l-0.06,-0.01l-0.061,-0.008l-0.062,-0.008l-0.061,-0.007l-0.062,-0.006l-0.062,-0.005l-0.063,-0.005l-0.062,-0.004l-0.063,-0.003l-0.063,-0.002l-0.063,-0.001l-0.064,0l-0.063,0Z" style="fill:#000;"/><path d="M125.714,9.99l0.037,0.001l0.037,0.003l0.036,0.003l0.036,0.004l0.036,0.005l0.036,0.006l0.035,0.007l0.035,0.008l0.035,0.008l0.034,0.009l0.034,0.01l0.034,0.011l0.033,0.012l0.033,0.013l0.033,0.013l0.032,0.014l0.032,0.015l0.031,0.015l0.031,0.017l0.031,0.017l0.03,0.018l0.029,0.018l0.029,0.019l0.029,0.02l0.028,0.02l0.027,0.021l0.027,0.022l0.027,0.023l0.025,0.023l0.026,0.023l0.025,0.024l0.024,0.025l0.023,0.025l0.023,0.026l0.023,0.027l0.021,0.027l0.022,0.027l0.02,0.028l0.02,0.029l0.019,0.029l0.018,0.029l0.018,0.03l0.017,0.031l0.016,0.031l0.016,0.031l0.015,0.032l0.014,0.032l0.013,0.032l0.013,0.033l0.012,0.034l0.01,0.033l0.011,0.034l0.009,0.035l0.008,0.035l0.008,0.035l0.007,0.035l0.006,0.036l0.005,0.036l0.004,0.036l0.003,0.036l0.002,0.037l0.002,0.037l0,0.037l0,9.191l0,0.037l-0.002,0.037l-0.002,0.037l-0.003,0.037l-0.004,0.036l-0.005,0.036l-0.006,0.035l-0.007,0.036l-0.008,0.035l-0.008,0.035l-0.009,0.034l-0.011,0.034l-0.01,0.034l-0.012,0.033l-0.013,0.033l-0.013,0.033l-0.014,0.032l-0.015,0.031l-0.016,0.032l-0.016,0.031l-0.017,0.03l-0.018,0.03l-0.018,0.03l-0.019,0.029l-0.02,0.028l-0.02,0.028l-0.022,0.028l-0.021,0.027l-0.023,0.026l-0.023,0.026l-0.023,0.025l-0.024,0.025l-0.025,0.024l-0.026,0.024l-0.025,0.023l-0.027,0.022l-0.027,0.022l-0.027,0.021l-0.028,0.021l-0.029,0.019l-0.029,0.019l-0.029,0.019l-0.03,0.018l-0.031,0.017l-0.031,0.016l-0.031,0.016l-0.032,0.014l-0.032,0.014l-0.033,0.014l-0.033,0.012l-0.033,0.012l-0.034,0.011l-0.034,0.01l-0.034,0.009l-0.035,0.009l-0.035,0.008l-0.035,0.006l-0.036,0.006l-0.036,0.005l-0.036,0.004l-0.036,0.004l-0.037,0.002l-0.037,0.001l-0.037,0.001l-13.133,0l-0.037,-0.001l-0.037,-0.001l-0.037,-0.002l-0.036,-0.004l-0.036,-0.004l-0.036,-0.005l-0.036,-0.006l-0.035,-0.006l-0.035,-0.008l-0.035,-0.009l-0.034,-0.009l-0.034,-0.01l-0.034,-0.011l-0.034,-0.012l-0.032,-0.012l-0.033,-0.014l-0.032,-0.014l-0.032,-0.014l-0.031,-0.016l-0.031,-0.016l-0.031,-0.017l-0.03,-0.018l-0.029,-0.019l-0.029,-0.019l-0.029,-0.019l-0.028,-0.021l-0.027,-0.021l-0.027,-0.022l-0.027,-0.022l-0.026,-0.023l-0.025,-0.024l-0.025,-0.024l-0.024,-0.025l-0.023,-0.025l-0.023,-0.026l-0.023,-0.026l-0.022,-0.027l-0.021,-0.028l-0.02,-0.028l-0.02,-0.028l-0.019,-0.029l-0.018,-0.03l-0.018,-0.03l-0.017,-0.03l-0.016,-0.031l-0.016,-0.032l-0.015,-0.031l-0.014,-0.032l-0.013,-0.033l-0.013,-0.033l-0.012,-0.033l-0.01,-0.034l-0.011,-0.034l-0.009,-0.034l-0.008,-0.035l-0.008,-0.035l-0.007,-0.036l-0.006,-0.035l-0.005,-0.036l-0.004,-0.036l-0.003,-0.037l-0.003,-0.037l-0.001,-0.037l0,-0.037l0,-9.191l0,-0.037l0.001,-0.037l0.003,-0.037l0.003,-0.036l0.004,-0.036l0.005,-0.036l0.006,-0.036l0.007,-0.035l0.008,-0.035l0.008,-0.035l0.009,-0.035l0.011,-0.034l0.01,-0.033l0.012,-0.034l0.013,-0.033l0.013,-0.032l0.014,-0.032l0.015,-0.032l0.016,-0.031l0.016,-0.031l0.017,-0.031l0.018,-0.03l0.018,-0.029l0.019,-0.029l0.02,-0.029l0.02,-0.028l0.021,-0.027l0.022,-0.027l0.023,-0.027l0.023,-0.026l0.023,-0.025l0.024,-0.025l0.025,-0.024l0.025,-0.023l0.026,-0.023l0.027,-0.023l0.027,-0.022l0.027,-0.021l0.028,-0.02l0.029,-0.02l0.029,-0.019l0.029,-0.018l0.03,-0.018l0.031,-0.017l0.031,-0.017l0.031,-0.015l0.032,-0.015l0.032,-0.014l0.033,-0.013l0.032,-0.013l0.034,-0.012l0.034,-0.011l0.034,-0.01l0.034,-0.009l0.035,-0.008l0.035,-0.008l0.035,-0.007l0.036,-0.006l0.036,-0.005l0.036,-0.004l0.036,-0.003l0.037,-0.003l0.037,-0.001l0.037,0l13.133,0l0.037,0ZM112.551,10.99l-0.018,0l-0.013,0l-0.011,0.001l-0.011,0.001l-0.012,0.001l-0.01,0.002l-0.01,0.001l-0.012,0.003l-0.011,0.002l-0.01,0.003l-0.01,0.002l-0.01,0.003l-0.011,0.004l-0.01,0.003l-0.009,0.004l-0.01,0.004l-0.01,0.004l-0.01,0.005l-0.009,0.005l-0.01,0.005l-0.008,0.004l-0.01,0.006l-0.01,0.006l-0.008,0.005l-0.008,0.006l-0.01,0.008l-0.008,0.005l-0.009,0.008l-0.009,0.007l-0.005,0.005l-0.009,0.008l-0.009,0.009l-0.008,0.008l-0.007,0.008l-0.006,0.006l-0.007,0.009l-0.007,0.009l-0.007,0.009l-0.006,0.008l-0.006,0.008l-0.007,0.011l-0.004,0.006l-0.005,0.01l-0.007,0.012l-0.005,0.01l-0.004,0.008l-0.004,0.008l-0.005,0.011l-0.004,0.009l-0.004,0.01l-0.004,0.012l-0.002,0.008l-0.004,0.011l-0.003,0.011l-0.002,0.008l-0.002,0.012l-0.003,0.013l-0.001,0.01l-0.001,0.008l-0.002,0.013l-0.001,0.012l-0.001,0.009l0,0.015l0,0.018l0,9.175l0,0.018l0,0.016l0.001,0.009l0.001,0.011l0.002,0.014l0.001,0.008l0.001,0.01l0.003,0.012l0.002,0.012l0.002,0.009l0.003,0.011l0.004,0.01l0.002,0.008l0.004,0.013l0.004,0.009l0.004,0.009l0.005,0.011l0.004,0.009l0.004,0.008l0.005,0.01l0.007,0.012l0.005,0.009l0.004,0.006l0.007,0.011l0.006,0.008l0.006,0.008l0.007,0.01l0.007,0.009l0.007,0.008l0.006,0.007l0.008,0.008l0.007,0.007l0.009,0.009l0.008,0.008l0.006,0.005l0.01,0.008l0.008,0.007l0.008,0.006l0.01,0.007l0.008,0.006l0.008,0.005l0.01,0.007l0.01,0.006l0.007,0.003l0.01,0.006l0.011,0.005l0.01,0.004l0.009,0.005l0.01,0.003l0.009,0.004l0.011,0.004l0.01,0.003l0.009,0.003l0.012,0.003l0.009,0.002l0.011,0.003l0.012,0.002l0.01,0.002l0.011,0.001l0.011,0.001l0.011,0.001l0.012,0.001l0.011,0.001l0.018,0l13.121,0l0.018,0l0.011,-0.001l0.012,-0.001l0.011,-0.001l0.011,-0.001l0.011,-0.001l0.011,-0.002l0.01,-0.002l0.011,-0.003l0.01,-0.002l0.011,-0.003l0.011,-0.003l0.009,-0.003l0.01,-0.004l0.01,-0.004l0.01,-0.003l0.009,-0.005l0.01,-0.004l0.011,-0.005l0.009,-0.005l0.009,-0.005l0.009,-0.005l0.009,-0.006l0.01,-0.007l0.009,-0.006l0.007,-0.005l0.009,-0.007l0.008,-0.007l0.01,-0.008l0.007,-0.006l0.008,-0.007l0.008,-0.009l0.006,-0.005l0.007,-0.009l0.009,-0.009l0.007,-0.009l0.006,-0.007l0.006,-0.008l0.007,-0.01l0.006,-0.008l0.007,-0.011l0.005,-0.008l0.005,-0.007l0.006,-0.012l0.004,-0.008l0.004,-0.008l0.006,-0.013l0.004,-0.009l0.004,-0.009l0.003,-0.009l0.004,-0.01l0.004,-0.013l0.003,-0.008l0.002,-0.011l0.003,-0.012l0.002,-0.009l0.002,-0.009l0.002,-0.011l0.002,-0.013l0.001,-0.011l0.001,-0.011l0.001,-0.012l0,-0.01l0,-0.018l0,-9.18l0,-0.019l0,-0.009l-0.001,-0.012l-0.001,-0.012l-0.001,-0.011l-0.002,-0.013l-0.002,-0.01l-0.002,-0.01l-0.002,-0.009l-0.003,-0.011l-0.002,-0.011l-0.003,-0.008l-0.004,-0.013l-0.004,-0.01l-0.003,-0.01l-0.004,-0.009l-0.004,-0.008l-0.006,-0.014l-0.004,-0.008l-0.004,-0.007l-0.006,-0.012l-0.005,-0.007l-0.005,-0.009l-0.007,-0.011l-0.006,-0.008l-0.007,-0.01l-0.006,-0.007l-0.005,-0.007l-0.008,-0.009l-0.009,-0.01l-0.007,-0.008l-0.006,-0.006l-0.009,-0.009l-0.007,-0.007l-0.007,-0.006l-0.009,-0.007l-0.009,-0.008l-0.009,-0.006l-0.007,-0.006l-0.009,-0.006l-0.01,-0.007l-0.009,-0.005l-0.009,-0.005l-0.01,-0.006l-0.009,-0.004l-0.009,-0.005l-0.01,-0.005l-0.01,-0.004l-0.01,-0.004l-0.01,-0.004l-0.009,-0.003l-0.011,-0.004l-0.011,-0.003l-0.009,-0.002l-0.011,-0.003l-0.011,-0.002l-0.01,-0.002l-0.011,-0.002l-0.011,-0.002l-0.011,-0.001l-0.011,-0.001l-0.011,-0.001l-0.013,0l-0.018,0l-13.119,0Z" style="fill:#000;"/><path d="M126.28,12.066c0,0 -5.795,0 -7.569,0c-0.135,0 -0.264,0.054 -0.36,0.149c-0.095,0.096 -0.149,0.225 -0.149,0.36c0,0.005 0,0.01 0,0.015c0,0.263 0.213,0.476 0.476,0.476c1.732,0 7.602,0 7.602,0l0,-1Z" style="fill:#000;"/><path d="M126.28,14.066c0,0 -5.858,0 -7.597,0c-0.266,0 -0.481,0.215 -0.481,0.481c0,0.008 0,0.016 0,0.023c0,0.132 0.052,0.258 0.145,0.351c0.093,0.093 0.219,0.145 0.351,0.145c1.756,0 7.582,0 7.582,0l0,-1Z" style="fill:#000;"/><path d="M126.28,16.066c0,0 -5.809,0 -7.575,0c-0.133,0 -0.261,0.053 -0.356,0.147c-0.094,0.095 -0.147,0.222 -0.147,0.356c0,0 0,0.001 0,0.001c0,0.131 0.052,0.258 0.145,0.351c0.093,0.093 0.22,0.145 0.351,0.145c1.757,0 7.582,0 7.582,0l0,-1Z" style="fill:#000;"/><path d="M126.28,18.017c0,0 -5.774,0 -7.559,0c-0.137,0 -0.269,0.055 -0.367,0.152c-0.097,0.097 -0.152,0.23 -0.152,0.367c0,0.009 0,0.018 0,0.026c0,0.134 0.053,0.262 0.148,0.356c0.094,0.095 0.222,0.148 0.355,0.148c1.767,0 7.575,0 7.575,0l0,-1.049Z" style="fill:#000;"/></g><g><path d="M90.581,22.066l0,-1.566l2.143,-0.496l5.957,-16.077l2.612,-0.131l5.8,16.208l2.169,0.496l0,1.566l-7.577,0l0,-1.566l2.43,-0.496l-0.993,-2.897l-6.793,0l-1.019,2.897l2.456,0.496l0,1.566l-7.185,0ZM99.778,7.163l-2.743,7.856l5.382,0l-2.639,-7.856Z" style="fill:#000;fill-rule:nonzero;"/></g></g></g><g><g><path d="M0,21.934l0,-1.566l2.142,-0.496l5.957,-16.077l2.613,-0.13l5.8,16.207l2.168,0.496l0,1.566l-7.576,0l0,-1.566l2.43,-0.496l-0.993,-2.897l-6.793,0l-1.019,2.897l2.456,0.496l0,1.566l-7.185,0ZM9.197,7.032l-2.744,7.855l5.382,0l-2.638,-7.855Z" style="fill:#000;fill-rule:nonzero;"/></g><path d="M40.39,2.348c0.003,0.12 -0.039,0.24 -0.13,0.331c-0.02,0.02 -0.044,0.029 -0.067,0.044l-1.245,1.245l0.319,0.319c0.022,0.015 0.047,0.024 0.067,0.044c0.091,0.091 0.133,0.211 0.13,0.33c0.003,0.119 -0.039,0.24 -0.13,0.331c-0.02,0.019 -0.045,0.028 -0.067,0.044l-14.687,14.672c-0.051,0.099 -0.133,0.182 -0.242,0.223l-4.539,1.778c-0.027,0.015 -0.054,0.024 -0.084,0.033l-0.005,0.002c-0.004,0.002 -0.008,0.001 -0.011,0.002c-0.043,0.012 -0.086,0.022 -0.133,0.021c-0.045,0.002 -0.087,-0.007 -0.131,-0.019c-0.009,-0.003 -0.018,-0.001 -0.028,-0.004c-0.003,-0.001 -0.006,-0.005 -0.009,-0.006c-0.041,-0.015 -0.076,-0.038 -0.111,-0.065c-0.019,-0.013 -0.038,-0.025 -0.053,-0.04c-0.015,-0.015 -0.027,-0.034 -0.04,-0.052c-0.026,-0.035 -0.049,-0.071 -0.065,-0.111c-0.002,-0.004 -0.005,-0.006 -0.006,-0.01c-0.003,-0.009 -0.001,-0.019 -0.004,-0.028c-0.012,-0.043 -0.02,-0.085 -0.019,-0.13c0,-0.047 0.009,-0.09 0.021,-0.133c0.002,-0.004 0,-0.007 0.002,-0.011l0.002,-0.006c0.01,-0.029 0.018,-0.057 0.033,-0.083l1.78,-4.534c0.042,-0.109 0.125,-0.191 0.223,-0.242l12.858,-12.843c-0.123,-0.386 -0.48,-0.668 -0.907,-0.668c-0.282,0 -0.533,0.125 -0.707,0.319l-0.002,-0.001l-1.505,1.504l0.002,0.001l-3.167,3.163c-0.176,0.176 -0.462,0.176 -0.639,0c-0.177,-0.176 -0.177,-0.463 0,-0.639l4.654,-4.648c0.007,-0.008 0.017,-0.01 0.025,-0.017c0.338,-0.355 0.811,-0.578 1.34,-0.578c0.671,0 1.25,0.362 1.573,0.898l1.164,-1.162c0.015,-0.022 0.024,-0.047 0.044,-0.067c0.091,-0.091 0.211,-0.133 0.331,-0.13c0.119,-0.003 0.24,0.039 0.331,0.13c0.02,0.02 0.029,0.045 0.044,0.067l0.32,0.319l1.245,-1.245c0.016,-0.021 0.025,-0.046 0.044,-0.066c0.092,-0.091 0.212,-0.133 0.332,-0.13c0.119,-0.003 0.239,0.039 0.331,0.13c0.019,0.02 0.028,0.045 0.044,0.066l1.279,1.278c0.022,0.015 0.047,0.025 0.066,0.044c0.09,0.091 0.132,0.211 0.129,0.33ZM20.418,20.451l2.953,-1.158l-1.794,-1.792l-1.159,2.95ZM36.224,2.525l-14.18,14.165l2.139,2.137l14.18,-14.165l-2.139,-2.137ZM38.54,1.599l-0.982,0.981l0.75,0.749l0.981,-0.981l-0.749,-0.749Z" style="fill:#000;"/></g><g><path d="M77.783,12.8c0,-3.396 -2.757,-6.153 -6.153,-6.153l-18.052,0c-3.396,0 -6.153,2.757 -6.153,6.153c0,3.395 2.757,6.152 6.153,6.152l18.052,0c3.396,0 6.153,-2.757 6.153,-6.152Z" style="fill:#000;"/><path d="M58.925,12.8c0,-2.853 -2.316,-5.169 -5.168,-5.169l-0.164,0c-2.852,0 -5.168,2.316 -5.168,5.169c0,2.852 2.316,5.168 5.168,5.168l0.164,0c2.852,0 5.168,-2.316 5.168,-5.168Z" style="fill:#fff;"/></g></g></svg>