<?xml version="1.0" standalone="no"?><!DOCTYPE svg PUBLIC "-//W3C//DTD SVG 1.1//EN" "http://www.w3.org/Graphics/SVG/1.1/DTD/svg11.dtd"><svg width="100%" height="100%" viewBox="0 0 15 15" version="1.1" xmlns="http://www.w3.org/2000/svg" xmlns:xlink="http://www.w3.org/1999/xlink" xml:space="preserve" style="fill-rule:evenodd;clip-rule:evenodd;stroke-linejoin:round;stroke-miterlimit:1.41421;"><path d="M7.5,0c4.139,0 7.5,3.361 7.5,7.5c0,4.139 -3.361,7.5 -7.5,7.5c-4.139,0 -7.5,-3.361 -7.5,-7.5c0,-4.139 3.361,-7.5 7.5,-7.5ZM7.507,6.729c1.06,-1.038 2.126,-2.069 3.175,-3.118c0.065,-0.06 0.138,-0.106 0.224,-0.13c0.037,-0.009 0.073,-0.013 0.111,-0.016c0.037,0 0.037,0 0.075,0.003c0.075,0.011 0.145,0.032 0.21,0.073c0.183,0.115 0.273,0.343 0.217,0.553c-0.02,0.074 -0.057,0.137 -0.104,0.197c-1.02,1.099 -2.076,2.163 -3.144,3.216c1.038,1.06 2.07,2.126 3.118,3.175c0.052,0.056 0.093,0.116 0.119,0.188c0.085,0.244 -0.036,0.521 -0.272,0.624c-0.058,0.025 -0.119,0.039 -0.182,0.041c-0.128,0.005 -0.245,-0.041 -0.345,-0.12c-1.099,-1.02 -2.163,-2.076 -3.216,-3.144c-1.06,1.038 -2.126,2.069 -3.175,3.118c-0.093,0.087 -0.206,0.141 -0.335,0.146c-0.258,0.01 -0.486,-0.187 -0.515,-0.443c-0.007,-0.062 -0.003,-0.126 0.014,-0.186c0.019,-0.074 0.056,-0.137 0.104,-0.197c1.019,-1.099 2.075,-2.163 3.143,-3.216c-1.038,-1.06 -2.069,-2.126 -3.118,-3.175c-0.052,-0.056 -0.093,-0.116 -0.118,-0.188c-0.077,-0.218 0.01,-0.466 0.206,-0.589c0.064,-0.041 0.134,-0.062 0.21,-0.073c0.038,-0.003 0.073,-0.003 0.112,0c0.102,0.015 0.188,0.053 0.27,0.117c1.099,1.02 2.163,2.076 3.216,3.144Z" style="fill:#fff;"/></svg>