<?xml version="1.0" standalone="no"?><!DOCTYPE svg PUBLIC "-//W3C//DTD SVG 1.1//EN" "http://www.w3.org/Graphics/SVG/1.1/DTD/svg11.dtd"><svg width="100%" height="100%" viewBox="0 0 17 19" version="1.1" xmlns="http://www.w3.org/2000/svg" xmlns:xlink="http://www.w3.org/1999/xlink" xml:space="preserve" style="fill-rule:evenodd;clip-rule:evenodd;stroke-linejoin:round;stroke-miterlimit:1.41421;"><clipPath id="_clip1"><path id="Artboard Default" d="M1136.57,-131.492c0,-0.931 -0.369,-1.823 -1.027,-2.481c-0.658,-0.657 -1.55,-1.027 -2.48,-1.027c-66.31,0 -1051.57,0 -1145.83,0c-1.918,0 -3.757,0.762 -5.112,2.118c-1.356,1.355 -2.118,3.194 -2.118,5.112c0,71.85 0,656.219 0,713.72c0,2.513 2.037,4.55 4.55,4.55c75.579,0 1068.36,0 1147.07,0c2.732,0 4.946,-2.215 4.946,-4.946c0,-60.944 0,-665.443 0,-717.046Z"/></clipPath><g clip-path="url(#_clip1)"><g id="fav bar"><g><g><g><path d="M14.941,0.047l0,1l2,2l0,8l-2,2l0,6l-15,0l0,-19l15,0ZM0.941,1.047l0,17l13,0l0,-5l0.003,-0.079l0.009,-0.078l0.016,-0.077l0.021,-0.075l0.027,-0.074l0.033,-0.071l0.038,-0.069l0.044,-0.065l0.049,-0.062l0.053,-0.057l1.707,-1.708l0,-7.171l-1.707,-1.707l-0.053,-0.058l-0.049,-0.062l-0.044,-0.065l-0.038,-0.068l-0.033,-0.072l-0.027,-0.073l-0.021,-0.076l-0.016,-0.077l-0.009,-0.078l-0.003,-0.078l0,0l-13,0Z" style="fill:#9e9e9e;"/><path d="M11.941,0.047l0,19l-12,0l0,-19l12,0ZM0.941,1.047l0,17l10,0l0,-17l-10,0Z" style="fill:#9e9e9e;"/></g></g></g></g></g></svg>