<?xml version="1.0" standalone="no"?><!DOCTYPE svg PUBLIC "-//W3C//DTD SVG 1.1//EN" "http://www.w3.org/Graphics/SVG/1.1/DTD/svg11.dtd"><svg width="100%" height="100%" viewBox="0 0 15 19" version="1.1" xmlns="http://www.w3.org/2000/svg" xmlns:xlink="http://www.w3.org/1999/xlink" xml:space="preserve" style="fill-rule:evenodd;clip-rule:evenodd;stroke-linejoin:round;stroke-miterlimit:1.41421;"><clipPath id="_clip1"><path id="Artboard Default" d="M906.566,-304.492c0,-0.931 -0.369,-1.823 -1.027,-2.481c-0.658,-0.657 -1.55,-1.027 -2.48,-1.027c-66.31,0 -1051.57,0 -1145.83,0c-1.918,0 -3.757,0.762 -5.112,2.118c-1.356,1.355 -2.118,3.194 -2.118,5.112c0,71.85 0,656.219 0,713.72c0,2.513 2.037,4.55 4.55,4.55c75.579,0 1068.36,0 1147.07,0c2.732,0 4.946,-2.215 4.946,-4.946c0,-60.944 0,-665.443 0,-717.046Z"/></clipPath><g clip-path="url(#_clip1)"><g><path d="M10,0l5,5l0,14l-15,0l0,-19l10,0Z" style="fill:#fff;"/><path d="M15,5l0,14l-15,0l0,-19l10,0l5,5ZM1,1l0,17l13,0l0,-12.586l-4.414,-4.414l-8.586,0Z" style="fill:#9e9e9e;"/><path d="M15,5l-5,-5l0,5l5,0Z" style="fill:#9e9e9e;"/></g><g><clipPath id="_clip2"><path d="M5.091,17.5l-3.536,-3.536l2.122,-2.121l1.414,1.414l2.121,-2.121l-1.414,-1.414l0.707,-0.707l3.536,3.535l-4.95,4.95Z"/></clipPath><g clip-path="url(#_clip2)"><path d="M5.644,9.876c0.114,-0.106 0.245,-0.195 0.39,-0.252c0.113,-0.044 0.23,-0.074 0.351,-0.086c0.362,-0.034 0.716,0.093 0.981,0.338c0.619,0.604 1.247,1.202 1.835,1.837c0.11,0.125 0.196,0.266 0.251,0.424c0.11,0.314 0.089,0.668 -0.058,0.967c-0.056,0.113 -0.129,0.215 -0.215,0.307c-1.069,1.097 -2.127,2.208 -3.251,3.249c-0.125,0.11 -0.266,0.197 -0.424,0.252c-0.314,0.11 -0.668,0.089 -0.967,-0.059c-0.113,-0.056 -0.215,-0.129 -0.307,-0.214c-0.62,-0.605 -1.247,-1.202 -1.835,-1.837c-0.11,-0.125 -0.197,-0.267 -0.252,-0.424c-0.11,-0.315 -0.088,-0.669 0.059,-0.968c0.056,-0.113 0.129,-0.214 0.215,-0.306c1.062,-1.09 2.138,-2.166 3.227,-3.228ZM3.151,13.783c-0.024,0.024 -0.043,0.05 -0.057,0.081c-0.041,0.091 -0.019,0.2 0.047,0.272c0.582,0.597 1.179,1.179 1.768,1.768c0.011,0.011 0.022,0.021 0.035,0.03c0.094,0.068 0.226,0.061 0.314,-0.016c1.102,-1.021 2.125,-2.124 3.187,-3.186c0.011,-0.011 0.021,-0.023 0.03,-0.035c0.068,-0.095 0.06,-0.226 -0.016,-0.314c-0.569,-0.612 -1.182,-1.182 -1.773,-1.773c-0.01,-0.011 -0.022,-0.021 -0.034,-0.03c-0.095,-0.068 -0.227,-0.06 -0.314,0.016c-1.102,1.021 -2.125,2.125 -3.187,3.187Z" style="fill:#9e9e9e;fill-rule:nonzero;"/></g><clipPath id="_clip3"><path d="M7.909,4.762l3.567,3.567l-2.122,2.121l-3.566,-3.567l2.121,-2.121ZM2.969,9.722l0.708,-0.707l0.005,0.005l2.121,-2.121l2.116,2.116l-2.121,2.121l1.414,1.414l-0.707,0.707l-3.536,-3.535Z"/></clipPath><g clip-path="url(#_clip3)"><path d="M7.07,5.622c0.114,-0.106 0.245,-0.195 0.39,-0.252c0.113,-0.044 0.23,-0.074 0.351,-0.086c0.362,-0.034 0.716,0.093 0.98,0.338c0.62,0.604 1.247,1.202 1.836,1.837c0.109,0.125 0.196,0.266 0.251,0.424c0.11,0.314 0.089,0.668 -0.059,0.967c-0.056,0.113 -0.129,0.215 -0.214,0.307c-1.07,1.097 -2.127,2.208 -3.251,3.249c-0.125,0.11 -0.267,0.197 -0.424,0.252c-0.315,0.11 -0.669,0.089 -0.968,-0.059c-0.113,-0.056 -0.214,-0.129 -0.306,-0.214c-0.62,-0.605 -1.247,-1.203 -1.836,-1.837c-0.109,-0.125 -0.196,-0.267 -0.251,-0.424c-0.11,-0.315 -0.089,-0.669 0.059,-0.968c0.056,-0.113 0.129,-0.214 0.214,-0.306c1.062,-1.09 2.138,-2.166 3.228,-3.228ZM4.576,9.529c-0.023,0.024 -0.044,0.05 -0.057,0.081c-0.037,0.094 -0.02,0.198 0.048,0.272c0.582,0.597 1.179,1.179 1.768,1.768c0.011,0.011 0.022,0.021 0.035,0.031c0.094,0.067 0.226,0.06 0.313,-0.017c1.102,-1.021 2.125,-2.124 3.188,-3.187c0.011,-0.01 0.02,-0.022 0.03,-0.034c0.067,-0.095 0.06,-0.226 -0.017,-0.314c-0.568,-0.612 -1.181,-1.182 -1.772,-1.773c-0.011,-0.011 -0.022,-0.021 -0.034,-0.03c-0.095,-0.068 -0.227,-0.06 -0.314,0.016c-1.102,1.022 -2.125,2.125 -3.188,3.187Z" style="fill:#9e9e9e;fill-rule:nonzero;"/></g></g></g></svg>