<?xml version="1.0" standalone="no"?><!DOCTYPE svg PUBLIC "-//W3C//DTD SVG 1.1//EN" "http://www.w3.org/Graphics/SVG/1.1/DTD/svg11.dtd"><svg width="100%" height="100%" viewBox="0 0 15 15" version="1.1" xmlns="http://www.w3.org/2000/svg" xmlns:xlink="http://www.w3.org/1999/xlink" xml:space="preserve" style="fill-rule:evenodd;clip-rule:evenodd;stroke-linecap:round;stroke-linejoin:round;stroke-miterlimit:1.41421;"><clipPath id="_clip1"><path id="Artboard Default" d="M955.566,-109.492c0,-0.931 -0.369,-1.823 -1.027,-2.481c-0.658,-0.657 -1.55,-1.027 -2.48,-1.027c-66.31,0 -1051.57,0 -1145.83,0c-1.918,0 -3.757,0.762 -5.112,2.118c-1.356,1.355 -2.118,3.194 -2.118,5.112c0,71.85 0,656.219 0,713.72c0,2.513 2.037,4.55 4.55,4.55c75.579,0 1068.36,0 1147.07,0c2.732,0 4.946,-2.215 4.946,-4.946c0,-60.944 0,-665.443 0,-717.046Z"/></clipPath><g clip-path="url(#_clip1)"><g id="fav bar"><g><circle cx="7.5" cy="7.5" r="7.5" style="fill:#c5c5c5;"/><path d="M3.964,11.036l7.072,-7.072" style="fill:none;stroke-width:1px;stroke:#fff;"/><path d="M11.036,11.036l-7.072,-7.072" style="fill:none;stroke-width:1px;stroke:#fff;"/></g></g></g></svg>