<?xml version="1.0" encoding="UTF-8" standalone="no"?><!DOCTYPE svg PUBLIC "-//W3C//DTD SVG 1.1//EN" "http://www.w3.org/Graphics/SVG/1.1/DTD/svg11.dtd"><svg width="100%" height="100%" viewBox="0 0 25 25" version="1.1" xmlns="http://www.w3.org/2000/svg" xmlns:xlink="http://www.w3.org/1999/xlink" xml:space="preserve" style="fill-rule:evenodd;clip-rule:evenodd;stroke-linejoin:round;stroke-miterlimit:1.41421;"><g><path d="M12.163,14.046l-1.383,-1.383l4.672,-4.673l-2.074,-2.074l5.532,0l0,5.532l-2.075,-2.075l-4.672,4.673Z" style="fill:#509bc9;"/><path d="M18.91,11.448l-2.075,-2.075l-4.672,4.673l-1.383,-1.383l4.672,-4.673l-2.074,-2.074l5.532,0l0,5.532Zm-4.577,-5.137l1.399,1.4l0.023,0.025l0.021,0.028l0.019,0.029l0.016,0.03l0.013,0.032l0.01,0.033l0.008,0.034l0.004,0.034l0.002,0.034l-0.002,0.035l-0.004,0.034l-0.008,0.034l-0.01,0.033l-0.013,0.032l-0.016,0.03l-0.019,0.029l-0.021,0.028l-0.023,0.025l-4.393,4.393l0.824,0.824l4.393,-4.393l0.025,-0.024l0.028,-0.021l0.029,-0.018l0.03,-0.016l0.032,-0.013l0.033,-0.011l0.034,-0.007l0.034,-0.005l0.034,-0.001l0.035,0.001l0.034,0.005l0.034,0.007l0.033,0.011l0.032,0.013l0.03,0.016l0.029,0.018l0.028,0.021l0.025,0.024l1.399,1.399l0,-4.182l-4.181,0Z" style="fill:#3c96da;"/><clipPath id="_clip1"><path d="M2.262,5.092l10.851,0l0,7.171l14.663,0l0,14.463l-21.886,0l0,-2.258l-3.628,0l0,-19.376Z"/></clipPath><g clip-path="url(#_clip1)"><path d="M15.595,7.213l0.049,0l0.049,0.002l0.049,0.003l0.048,0.004l0.049,0.006l0.048,0.006l0.048,0.008l0.047,0.009l0.047,0.01l0.047,0.011l0.047,0.013l0.046,0.013l0.046,0.015l0.046,0.015l0.045,0.017l0.045,0.018l0.044,0.019l0.044,0.02l0.043,0.021l0.043,0.022l0.042,0.024l0.042,0.024l0.041,0.025l0.041,0.027l0.04,0.027l0.039,0.028l0.039,0.03l0.038,0.03l0.037,0.031l0.037,0.033l0.036,0.033l0.035,0.034l0.034,0.035l0.033,0.036l0.033,0.037l0.031,0.037l0.03,0.038l0.03,0.039l0.028,0.039l0.027,0.04l0.027,0.041l0.025,0.041l0.024,0.041l0.024,0.043l0.022,0.043l0.021,0.043l0.02,0.044l0.019,0.044l0.018,0.045l0.017,0.045l0.015,0.045l0.015,0.046l0.013,0.047l0.013,0.046l0.011,0.047l0.01,0.048l0.009,0.047l0.008,0.048l0.006,0.048l0.006,0.049l0.004,0.048l0.003,0.049l0.002,0.049l0,0.049l0,7.721l0,0.049l-0.002,0.049l-0.003,0.049l-0.004,0.048l-0.006,0.049l-0.006,0.048l-0.008,0.048l-0.009,0.047l-0.01,0.047l-0.011,0.047l-0.013,0.047l-0.013,0.046l-0.015,0.046l-0.015,0.046l-0.017,0.045l-0.018,0.045l-0.019,0.044l-0.02,0.044l-0.021,0.043l-0.022,0.043l-0.024,0.042l-0.024,0.042l-0.025,0.041l-0.027,0.041l-0.027,0.04l-0.028,0.039l-0.03,0.039l-0.03,0.038l-0.031,0.037l-0.033,0.037l-0.033,0.036l-0.034,0.035l-0.035,0.034l-0.036,0.033l-0.037,0.032l-0.037,0.032l-0.038,0.03l-0.039,0.03l-0.039,0.028l-0.04,0.027l-0.041,0.027l-0.041,0.025l-0.042,0.024l-0.042,0.023l-0.043,0.023l-0.043,0.021l-0.044,0.02l-0.044,0.019l-0.045,0.018l-0.045,0.016l-0.046,0.016l-0.046,0.015l-0.046,0.013l-0.047,0.013l-0.047,0.011l-0.047,0.01l-0.047,0.009l-0.048,0.007l-0.048,0.007l-0.049,0.005l-0.048,0.005l-0.049,0.003l-0.049,0.002l-0.049,0l-7.73,0l-0.049,0l-0.049,-0.002l-0.048,-0.003l-0.049,-0.005l-0.048,-0.005l-0.048,-0.007l-0.048,-0.007l-0.048,-0.009l-0.047,-0.01l-0.047,-0.011l-0.047,-0.013l-0.046,-0.013l-0.046,-0.015l-0.046,-0.016l-0.045,-0.016l-0.045,-0.018l-0.044,-0.019l-0.044,-0.02l-0.043,-0.021l-0.043,-0.023l-0.042,-0.023l-0.042,-0.024l-0.041,-0.025l-0.041,-0.027l-0.04,-0.027l-0.039,-0.028l-0.039,-0.03l-0.038,-0.03l-0.037,-0.032l-0.036,-0.032l-0.036,-0.033l-0.035,-0.034l-0.035,-0.035l-0.033,-0.036l-0.032,-0.037l-0.032,-0.037l-0.03,-0.038l-0.029,-0.039l-0.029,-0.039l-0.027,-0.04l-0.026,-0.041l-0.026,-0.041l-0.024,-0.042l-0.023,-0.042l-0.022,-0.043l-0.022,-0.043l-0.02,-0.044l-0.019,-0.044l-0.017,-0.045l-0.017,-0.045l-0.016,-0.046l-0.015,-0.046l-0.013,-0.046l-0.012,-0.047l-0.012,-0.047l-0.01,-0.047l-0.009,-0.047l-0.007,-0.048l-0.007,-0.048l-0.005,-0.049l-0.005,-0.048l-0.003,-0.049l-0.001,-0.049l-0.001,-0.049l0,-7.721l0.001,-0.049l0.001,-0.049l0.003,-0.049l0.005,-0.048l0.005,-0.049l0.007,-0.048l0.007,-0.048l0.009,-0.047l0.01,-0.048l0.012,-0.047l0.012,-0.046l0.013,-0.047l0.015,-0.046l0.016,-0.045l0.017,-0.045l0.017,-0.045l0.019,-0.044l0.02,-0.044l0.022,-0.043l0.022,-0.043l0.023,-0.043l0.024,-0.041l0.026,-0.041l0.026,-0.041l0.027,-0.04l0.029,-0.039l0.029,-0.039l0.03,-0.038l0.032,-0.037l0.032,-0.037l0.033,-0.036l0.035,-0.035l0.035,-0.034l0.036,-0.033l0.036,-0.033l0.037,-0.031l0.038,-0.03l0.039,-0.03l0.039,-0.028l0.04,-0.027l0.041,-0.027l0.041,-0.025l0.042,-0.024l0.042,-0.024l0.043,-0.022l0.043,-0.021l0.044,-0.02l0.044,-0.019l0.045,-0.018l0.045,-0.017l0.046,-0.015l0.046,-0.015l0.046,-0.013l0.047,-0.013l0.047,-0.011l0.047,-0.01l0.048,-0.009l0.048,-0.008l0.048,-0.006l0.048,-0.006l0.049,-0.004l0.048,-0.003l0.049,-0.002l0.049,0l7.73,0Zm-7.722,1.301l-0.025,0.001l-0.016,0l-0.017,0.001l-0.016,0.002l-0.017,0.002l-0.016,0.002l-0.017,0.002l-0.016,0.003l-0.016,0.004l-0.016,0.004l-0.016,0.004l-0.016,0.005l-0.015,0.004l-0.016,0.006l-0.015,0.006l-0.015,0.006l-0.016,0.006l-0.015,0.007l-0.014,0.007l-0.015,0.008l-0.014,0.008l-0.015,0.008l-0.014,0.009l-0.013,0.009l-0.014,0.009l-0.013,0.01l-0.014,0.01l-0.013,0.01l-0.012,0.011l-0.013,0.011l-0.012,0.011l-0.012,0.012l-0.012,0.012l-0.011,0.012l-0.011,0.012l-0.011,0.013l-0.01,0.013l-0.01,0.013l-0.01,0.014l-0.009,0.013l-0.009,0.014l-0.009,0.014l-0.008,0.014l-0.008,0.015l-0.007,0.014l-0.008,0.015l-0.006,0.015l-0.007,0.015l-0.006,0.015l-0.006,0.016l-0.005,0.015l-0.005,0.016l-0.005,0.016l-0.004,0.016l-0.004,0.016l-0.003,0.016l-0.003,0.016l-0.003,0.016l-0.002,0.017l-0.002,0.016l-0.001,0.017l-0.001,0.016l-0.001,0.017l0,0.025l0,7.705l0,0.025l0.001,0.016l0.001,0.017l0.001,0.017l0.002,0.016l0.002,0.016l0.003,0.017l0.003,0.016l0.003,0.016l0.004,0.016l0.004,0.016l0.005,0.016l0.005,0.015l0.005,0.016l0.006,0.015l0.006,0.016l0.007,0.015l0.006,0.015l0.008,0.015l0.007,0.014l0.008,0.015l0.008,0.014l0.009,0.014l0.009,0.014l0.009,0.013l0.01,0.014l0.01,0.013l0.01,0.013l0.011,0.012l0.011,0.013l0.011,0.012l0.012,0.012l0.012,0.012l0.012,0.011l0.013,0.011l0.012,0.011l0.013,0.01l0.014,0.01l0.013,0.01l0.014,0.009l0.013,0.009l0.014,0.009l0.015,0.008l0.014,0.008l0.015,0.008l0.014,0.007l0.015,0.007l0.016,0.006l0.015,0.006l0.015,0.006l0.016,0.005l0.015,0.005l0.016,0.005l0.016,0.004l0.016,0.004l0.016,0.003l0.016,0.003l0.017,0.003l0.016,0.002l0.017,0.002l0.016,0.002l0.017,0.001l0.016,0l0.025,0.001l7.714,0l0.025,-0.001l0.016,0l0.017,-0.001l0.017,-0.002l0.016,-0.002l0.016,-0.002l0.017,-0.003l0.016,-0.003l0.016,-0.003l0.016,-0.004l0.016,-0.004l0.016,-0.005l0.016,-0.005l0.015,-0.005l0.015,-0.006l0.016,-0.006l0.015,-0.006l0.015,-0.007l0.015,-0.007l0.014,-0.008l0.015,-0.008l0.014,-0.008l0.014,-0.009l0.014,-0.009l0.013,-0.009l0.014,-0.01l0.013,-0.01l0.013,-0.01l0.012,-0.011l0.013,-0.011l0.012,-0.011l0.012,-0.012l0.012,-0.012l0.011,-0.012l0.011,-0.013l0.011,-0.012l0.01,-0.013l0.01,-0.013l0.01,-0.014l0.009,-0.013l0.009,-0.014l0.009,-0.014l0.008,-0.014l0.008,-0.015l0.008,-0.014l0.007,-0.015l0.007,-0.015l0.006,-0.015l0.006,-0.016l0.006,-0.015l0.005,-0.016l0.005,-0.015l0.005,-0.016l0.004,-0.016l0.004,-0.016l0.003,-0.016l0.003,-0.016l0.003,-0.017l0.002,-0.016l0.002,-0.016l0.002,-0.017l0.001,-0.017l0,-0.016l0.001,-0.025l0,-7.705l-0.001,-0.025l0,-0.017l-0.001,-0.016l-0.002,-0.017l-0.002,-0.016l-0.002,-0.017l-0.003,-0.016l-0.003,-0.016l-0.003,-0.016l-0.004,-0.016l-0.004,-0.016l-0.005,-0.016l-0.005,-0.016l-0.005,-0.015l-0.006,-0.016l-0.006,-0.015l-0.006,-0.015l-0.007,-0.015l-0.007,-0.015l-0.008,-0.014l-0.008,-0.015l-0.008,-0.014l-0.009,-0.014l-0.009,-0.014l-0.009,-0.013l-0.01,-0.014l-0.01,-0.013l-0.01,-0.013l-0.011,-0.013l-0.011,-0.012l-0.011,-0.012l-0.012,-0.012l-0.012,-0.012l-0.012,-0.011l-0.013,-0.011l-0.012,-0.011l-0.013,-0.01l-0.013,-0.01l-0.014,-0.01l-0.013,-0.009l-0.014,-0.009l-0.014,-0.009l-0.014,-0.008l-0.015,-0.008l-0.014,-0.008l-0.015,-0.007l-0.015,-0.007l-0.015,-0.006l-0.016,-0.006l-0.015,-0.006l-0.015,-0.006l-0.016,-0.004l-0.016,-0.005l-0.016,-0.004l-0.016,-0.004l-0.016,-0.004l-0.016,-0.003l-0.017,-0.002l-0.016,-0.002l-0.016,-0.002l-0.017,-0.002l-0.017,-0.001l-0.016,0l-0.025,-0.001l-7.714,0Z" style="fill:#3c96da;"/></g></g></svg>