<?xml version="1.0" encoding="UTF-8" standalone="no"?><!DOCTYPE svg PUBLIC "-//W3C//DTD SVG 1.1//EN" "http://www.w3.org/Graphics/SVG/1.1/DTD/svg11.dtd"><svg width="100%" height="100%" viewBox="0 0 25 25" version="1.1" xmlns="http://www.w3.org/2000/svg" xmlns:xlink="http://www.w3.org/1999/xlink" xml:space="preserve" style="fill-rule:evenodd;clip-rule:evenodd;stroke-linejoin:round;stroke-miterlimit:1.41421;"><path d="M15.034,12.335c0.762,-0.526 1.296,-1.391 1.296,-2.192c0,-1.776 -1.375,-3.143 -3.143,-3.143l-4.91,0l0,11l5.531,0c1.642,0 2.915,-1.336 2.915,-2.978c0,-1.194 -0.675,-2.216 -1.689,-2.687l0,0Zm-4.4,-3.371l2.357,0c0.652,0 1.179,0.527 1.179,1.179c0,0.652 -0.527,1.178 -1.179,1.178l-2.357,0l0,-2.357Zm2.75,7.072l-2.75,0l0,-2.357l2.75,0c0.652,0 1.178,0.526 1.178,1.178c0,0.652 -0.526,1.179 -1.178,1.179Z" style="fill-rule:nonzero;"/></svg>