<?xml version="1.0" encoding="UTF-8" standalone="no"?><!DOCTYPE svg PUBLIC "-//W3C//DTD SVG 1.1//EN" "http://www.w3.org/Graphics/SVG/1.1/DTD/svg11.dtd"><svg width="100%" height="100%" viewBox="0 0 25 25" version="1.1" xmlns="http://www.w3.org/2000/svg" xmlns:xlink="http://www.w3.org/1999/xlink" xml:space="preserve" style="fill-rule:evenodd;clip-rule:evenodd;stroke-linejoin:round;stroke-miterlimit:1.41421;"><g></g><rect x="-196" y="-156" width="400" height="1430" style="fill:none;"/><g><path d="M6.537,3l0.037,0.002l0.037,0.002l0.037,0.003l0.037,0.004l0.037,0.005l0.036,0.006l0.036,0.007l0.036,0.008l0.036,0.008l0.035,0.01l0.035,0.01l0.035,0.011l0.035,0.012l0.034,0.013l0.034,0.013l0.034,0.015l0.033,0.015l0.033,0.016l0.032,0.017l0.032,0.017l0.032,0.019l0.031,0.019l0.031,0.02l0.031,0.021l0.029,0.021l0.03,0.023l0.029,0.023l0.028,0.024l0.028,0.024l0.027,0.025l0.027,0.026l0.026,0.027l0.025,0.027l0.025,0.028l0.023,0.028l0.023,0.029l0.023,0.03l0.021,0.029l0.021,0.031l0.02,0.031l0.019,0.031l0.019,0.032l0.017,0.032l0.017,0.032l0.016,0.033l0.015,0.033l0.015,0.034l0.013,0.034l0.013,0.034l0.012,0.035l0.011,0.035l0.01,0.035l0.01,0.035l0.008,0.036l0.008,0.036l0.007,0.036l0.006,0.037l0.005,0.036l0.004,0.037l0.003,0.037l0.002,0.037l0.002,0.037l0,0.037l0,8l0,0.037l-0.002,0.037l-0.002,0.037l-0.003,0.037l-0.004,0.037l-0.005,0.036l-0.006,0.037l-0.007,0.036l-0.008,0.036l-0.008,0.036l-0.01,0.035l-0.01,0.035l-0.011,0.035l-0.012,0.035l-0.013,0.034l-0.013,0.034l-0.015,0.034l-0.015,0.033l-0.016,0.033l-0.017,0.032l-0.017,0.032l-0.019,0.032l-0.019,0.031l-0.02,0.031l-0.021,0.031l-0.021,0.029l-0.023,0.03l-0.023,0.029l-0.023,0.028l-0.025,0.028l-0.025,0.027l-0.026,0.027l-0.027,0.026l-0.027,0.025l-0.028,0.024l-0.028,0.024l-0.029,0.023l-0.03,0.023l-0.029,0.021l-0.031,0.021l-0.031,0.02l-0.031,0.019l-0.032,0.019l-0.032,0.017l-0.032,0.017l-0.033,0.016l-0.033,0.015l-0.034,0.015l-0.034,0.013l-0.034,0.013l-0.035,0.012l-0.035,0.011l-0.035,0.01l-0.035,0.01l-0.036,0.008l-0.036,0.008l-0.036,0.007l-0.036,0.006l-0.037,0.005l-0.037,0.004l-0.037,0.003l-0.037,0.002l-0.037,0.002l-0.037,0l-4.955,0l-0.037,0l-0.037,-0.002l-0.037,-0.002l-0.037,-0.003l-0.037,-0.004l-0.036,-0.005l-0.036,-0.006l-0.037,-0.007l-0.035,-0.008l-0.036,-0.008l-0.036,-0.01l-0.035,-0.01l-0.035,-0.011l-0.034,-0.012l-0.035,-0.013l-0.034,-0.013l-0.033,-0.015l-0.033,-0.015l-0.033,-0.016l-0.033,-0.017l-0.032,-0.017l-0.032,-0.019l-0.031,-0.019l-0.031,-0.02l-0.03,-0.021l-0.03,-0.021l-0.029,-0.023l-0.029,-0.023l-0.029,-0.024l-0.027,-0.024l-0.028,-0.025l-0.026,-0.026l-0.026,-0.027l-0.026,-0.027l-0.024,-0.028l-0.024,-0.028l-0.023,-0.029l-0.022,-0.03l-0.022,-0.029l-0.021,-0.031l-0.02,-0.031l-0.019,-0.031l-0.018,-0.032l-0.018,-0.032l-0.017,-0.032l-0.016,-0.033l-0.015,-0.033l-0.014,-0.034l-0.014,-0.034l-0.013,-0.034l-0.012,-0.035l-0.011,-0.035l-0.01,-0.035l-0.009,-0.035l-0.009,-0.036l-0.007,-0.036l-0.007,-0.036l-0.006,-0.037l-0.005,-0.036l-0.004,-0.037l-0.003,-0.037l-0.003,-0.037l-0.001,-0.037l-0.001,-0.037l0,-8l0.001,-0.037l0.001,-0.037l0.003,-0.037l0.003,-0.037l0.004,-0.037l0.005,-0.036l0.006,-0.037l0.007,-0.036l0.007,-0.036l0.009,-0.036l0.009,-0.035l0.01,-0.035l0.011,-0.035l0.012,-0.035l0.013,-0.034l0.014,-0.034l0.014,-0.034l0.015,-0.033l0.016,-0.033l0.017,-0.032l0.018,-0.032l0.018,-0.032l0.019,-0.031l0.02,-0.031l0.021,-0.031l0.022,-0.029l0.022,-0.03l0.023,-0.029l0.024,-0.028l0.024,-0.028l0.026,-0.027l0.026,-0.027l0.026,-0.026l0.028,-0.025l0.027,-0.024l0.029,-0.024l0.029,-0.023l0.029,-0.023l0.03,-0.021l0.03,-0.021l0.031,-0.02l0.031,-0.019l0.032,-0.019l0.032,-0.017l0.033,-0.017l0.033,-0.016l0.033,-0.015l0.033,-0.015l0.034,-0.013l0.035,-0.013l0.034,-0.012l0.035,-0.011l0.035,-0.01l0.036,-0.01l0.036,-0.008l0.035,-0.008l0.037,-0.007l0.036,-0.006l0.036,-0.005l0.037,-0.004l0.037,-0.003l0.037,-0.002l0.037,-0.002l0.037,0l4.955,0l0.037,0Zm-4.985,1l-0.019,0l-0.012,0.001l-0.013,0l-0.012,0.002l-0.012,0.001l-0.012,0.002l-0.013,0.002l-0.012,0.002l-0.012,0.002l-0.011,0.003l-0.011,0.003l-0.013,0.004l-0.012,0.003l-0.012,0.005l-0.01,0.003l-0.012,0.005l-0.012,0.005l-0.009,0.005l-0.012,0.005l-0.011,0.006l-0.011,0.006l-0.01,0.006l-0.01,0.006l-0.012,0.008l-0.009,0.006l-0.009,0.007l-0.011,0.008l-0.009,0.007l-0.01,0.008l-0.009,0.008l-0.009,0.009l-0.01,0.009l-0.007,0.007l-0.009,0.01l-0.009,0.01l-0.006,0.008l-0.009,0.011l-0.008,0.011l-0.007,0.009l-0.006,0.009l-0.008,0.012l-0.006,0.009l-0.005,0.01l-0.006,0.01l-0.007,0.014l-0.005,0.01l-0.004,0.008l-0.006,0.014l-0.004,0.012l-0.003,0.008l-0.006,0.015l-0.003,0.012l-0.003,0.009l-0.003,0.013l-0.003,0.013l-0.003,0.01l-0.002,0.013l-0.002,0.014l-0.002,0.01l-0.001,0.01l-0.001,0.015l-0.001,0.015l0,0.011l-0.001,0.018l0,7.986l0.001,0.018l0,0.012l0.002,0.029l0.003,0.02l0.004,0.027l0.006,0.023l0.006,0.022l0.009,0.027l0.007,0.02l0.01,0.022l0.012,0.024l0.011,0.02l0.006,0.009l0.014,0.021l0.015,0.02l0.015,0.019l0.018,0.02l0.017,0.016l0.009,0.009l0.009,0.008l0.009,0.008l0.01,0.007l0.02,0.015l0.009,0.006l0.022,0.014l0.021,0.012l0.023,0.011l0.021,0.01l0.012,0.005l0.022,0.008l0.012,0.003l0.024,0.007l0.023,0.005l0.012,0.002l0.025,0.004l0.024,0.003l0.012,0l0.013,0.001l0.019,0l4.942,0l0.018,0l0.013,-0.001l0.012,0l0.012,-0.002l0.013,-0.001l0.012,-0.002l0.012,-0.002l0.012,-0.002l0.011,-0.002l0.013,-0.003l0.012,-0.003l0.011,-0.004l0.012,-0.003l0.011,-0.004l0.012,-0.004l0.011,-0.005l0.011,-0.005l0.012,-0.005l0.011,-0.006l0.01,-0.005l0.011,-0.006l0.011,-0.006l0.011,-0.007l0.009,-0.006l0.011,-0.007l0.009,-0.007l0.009,-0.007l0.011,-0.008l0.011,-0.01l0.009,-0.008l0.008,-0.007l0.008,-0.007l0.008,-0.009l0.009,-0.01l0.009,-0.01l0.009,-0.011l0.007,-0.008l0.006,-0.009l0.008,-0.011l0.006,-0.009l0.006,-0.009l0.008,-0.012l0.007,-0.013l0.006,-0.01l0.004,-0.008l0.005,-0.01l0.006,-0.014l0.005,-0.011l0.005,-0.012l0.004,-0.011l0.003,-0.009l0.005,-0.015l0.004,-0.013l0.002,-0.009l0.002,-0.009l0.003,-0.014l0.002,-0.013l0.002,-0.01l0.002,-0.014l0.002,-0.014l0,-0.011l0.001,-0.011l0.001,-0.015l0,-0.018l0,-7.986l0,-0.018l-0.001,-0.015l-0.001,-0.011l0,-0.011l-0.002,-0.014l-0.002,-0.014l-0.002,-0.01l-0.002,-0.013l-0.003,-0.014l-0.002,-0.009l-0.002,-0.009l-0.004,-0.013l-0.005,-0.015l-0.003,-0.009l-0.004,-0.011l-0.005,-0.012l-0.005,-0.011l-0.006,-0.014l-0.005,-0.01l-0.004,-0.008l-0.006,-0.01l-0.007,-0.013l-0.008,-0.012l-0.006,-0.009l-0.006,-0.009l-0.008,-0.011l-0.006,-0.009l-0.007,-0.009l-0.009,-0.01l-0.009,-0.01l-0.009,-0.01l-0.008,-0.009l-0.008,-0.007l-0.008,-0.007l-0.009,-0.008l-0.011,-0.01l-0.011,-0.008l-0.009,-0.007l-0.01,-0.007l-0.01,-0.007l-0.009,-0.006l-0.011,-0.007l-0.011,-0.006l-0.011,-0.006l-0.01,-0.006l-0.011,-0.005l-0.012,-0.005l-0.01,-0.005l-0.012,-0.005l-0.012,-0.004l-0.011,-0.004l-0.011,-0.003l-0.012,-0.004l-0.012,-0.003l-0.013,-0.003l-0.011,-0.002l-0.012,-0.002l-0.012,-0.002l-0.013,-0.002l-0.012,-0.002l-0.011,-0.001l-0.013,0l-0.013,-0.001l-0.018,0l-4.942,0Z"/><path d="M23.537,3l0.037,0.002l0.037,0.002l0.037,0.003l0.037,0.004l0.037,0.005l0.036,0.006l0.036,0.007l0.036,0.008l0.036,0.008l0.035,0.01l0.035,0.01l0.035,0.011l0.035,0.012l0.034,0.013l0.034,0.013l0.034,0.015l0.033,0.015l0.033,0.016l0.032,0.017l0.032,0.017l0.032,0.019l0.031,0.019l0.031,0.02l0.031,0.021l0.029,0.021l0.03,0.023l0.029,0.023l0.028,0.024l0.028,0.024l0.027,0.025l0.027,0.026l0.026,0.027l0.025,0.027l0.025,0.028l0.023,0.028l0.023,0.029l0.023,0.03l0.021,0.029l0.021,0.031l0.02,0.031l0.019,0.031l0.019,0.032l0.017,0.032l0.017,0.032l0.016,0.033l0.015,0.033l0.015,0.034l0.013,0.034l0.013,0.034l0.012,0.035l0.011,0.035l0.01,0.035l0.01,0.035l0.008,0.036l0.008,0.036l0.007,0.036l0.006,0.037l0.005,0.036l0.004,0.037l0.003,0.037l0.002,0.037l0.002,0.037l0,0.037l0,8l0,0.037l-0.002,0.037l-0.002,0.037l-0.003,0.037l-0.004,0.037l-0.005,0.036l-0.006,0.037l-0.007,0.036l-0.008,0.036l-0.008,0.036l-0.01,0.035l-0.01,0.035l-0.011,0.035l-0.012,0.035l-0.013,0.034l-0.013,0.034l-0.015,0.034l-0.015,0.033l-0.016,0.033l-0.017,0.032l-0.017,0.032l-0.019,0.032l-0.019,0.031l-0.02,0.031l-0.021,0.031l-0.021,0.029l-0.023,0.03l-0.023,0.029l-0.023,0.028l-0.025,0.028l-0.025,0.027l-0.026,0.027l-0.027,0.026l-0.027,0.025l-0.028,0.024l-0.028,0.024l-0.029,0.023l-0.03,0.023l-0.029,0.021l-0.031,0.021l-0.031,0.02l-0.031,0.019l-0.032,0.019l-0.032,0.017l-0.032,0.017l-0.033,0.016l-0.033,0.015l-0.034,0.015l-0.034,0.013l-0.034,0.013l-0.035,0.012l-0.035,0.011l-0.035,0.01l-0.035,0.01l-0.036,0.008l-0.036,0.008l-0.036,0.007l-0.036,0.006l-0.037,0.005l-0.037,0.004l-0.037,0.003l-0.037,0.002l-0.037,0.002l-0.037,0l-4.955,0l-0.037,0l-0.037,-0.002l-0.037,-0.002l-0.037,-0.003l-0.037,-0.004l-0.036,-0.005l-0.036,-0.006l-0.037,-0.007l-0.035,-0.008l-0.036,-0.008l-0.036,-0.01l-0.035,-0.01l-0.035,-0.011l-0.034,-0.012l-0.035,-0.013l-0.034,-0.013l-0.033,-0.015l-0.033,-0.015l-0.033,-0.016l-0.033,-0.017l-0.032,-0.017l-0.032,-0.019l-0.031,-0.019l-0.031,-0.02l-0.03,-0.021l-0.03,-0.021l-0.029,-0.023l-0.029,-0.023l-0.029,-0.024l-0.027,-0.024l-0.028,-0.025l-0.026,-0.026l-0.026,-0.027l-0.026,-0.027l-0.024,-0.028l-0.024,-0.028l-0.023,-0.029l-0.022,-0.03l-0.022,-0.029l-0.021,-0.031l-0.02,-0.031l-0.019,-0.031l-0.018,-0.032l-0.018,-0.032l-0.017,-0.032l-0.016,-0.033l-0.015,-0.033l-0.014,-0.034l-0.014,-0.034l-0.013,-0.034l-0.012,-0.035l-0.011,-0.035l-0.01,-0.035l-0.009,-0.035l-0.009,-0.036l-0.007,-0.036l-0.007,-0.036l-0.006,-0.037l-0.005,-0.036l-0.004,-0.037l-0.003,-0.037l-0.003,-0.037l-0.001,-0.037l-0.001,-0.037l0,-8l0.001,-0.037l0.001,-0.037l0.003,-0.037l0.003,-0.037l0.004,-0.037l0.005,-0.036l0.006,-0.037l0.007,-0.036l0.007,-0.036l0.009,-0.036l0.009,-0.035l0.01,-0.035l0.011,-0.035l0.012,-0.035l0.013,-0.034l0.014,-0.034l0.014,-0.034l0.015,-0.033l0.016,-0.033l0.017,-0.032l0.018,-0.032l0.018,-0.032l0.019,-0.031l0.02,-0.031l0.021,-0.031l0.022,-0.029l0.022,-0.03l0.023,-0.029l0.024,-0.028l0.024,-0.028l0.026,-0.027l0.026,-0.027l0.026,-0.026l0.028,-0.025l0.027,-0.024l0.029,-0.024l0.029,-0.023l0.029,-0.023l0.03,-0.021l0.03,-0.021l0.031,-0.02l0.031,-0.019l0.032,-0.019l0.032,-0.017l0.033,-0.017l0.033,-0.016l0.033,-0.015l0.033,-0.015l0.034,-0.013l0.035,-0.013l0.034,-0.012l0.035,-0.011l0.035,-0.01l0.036,-0.01l0.036,-0.008l0.035,-0.008l0.037,-0.007l0.036,-0.006l0.036,-0.005l0.037,-0.004l0.037,-0.003l0.037,-0.002l0.037,-0.002l0.037,0l4.955,0l0.037,0Zm-4.985,1l-0.019,0l-0.012,0.001l-0.013,0l-0.012,0.001l-0.012,0.002l-0.012,0.002l-0.013,0.002l-0.012,0.002l-0.011,0.002l-0.012,0.003l-0.012,0.003l-0.012,0.004l-0.012,0.003l-0.012,0.005l-0.01,0.003l-0.011,0.005l-0.012,0.005l-0.011,0.005l-0.011,0.005l-0.011,0.006l-0.011,0.006l-0.01,0.006l-0.011,0.007l-0.009,0.006l-0.011,0.007l-0.011,0.008l-0.009,0.007l-0.009,0.007l-0.01,0.008l-0.009,0.008l-0.009,0.009l-0.008,0.007l-0.009,0.009l-0.011,0.012l-0.007,0.008l-0.007,0.008l-0.008,0.011l-0.007,0.009l-0.008,0.011l-0.008,0.011l-0.006,0.01l-0.006,0.009l-0.005,0.01l-0.006,0.01l-0.005,0.011l-0.007,0.013l-0.005,0.011l-0.005,0.011l-0.004,0.012l-0.003,0.008l-0.006,0.015l-0.003,0.012l-0.003,0.009l-0.003,0.013l-0.004,0.013l-0.002,0.01l-0.002,0.013l-0.002,0.014l-0.002,0.01l-0.001,0.01l-0.001,0.015l-0.001,0.015l0,0.007l0,0.019l0,7.992l0,0.019l0.001,0.022l0.001,0.015l0.003,0.02l0.004,0.027l0.006,0.023l0.006,0.022l0.009,0.027l0.007,0.02l0.005,0.011l0.012,0.024l0.011,0.021l0.011,0.019l0.006,0.01l0.008,0.011l0.008,0.011l0.007,0.009l0.015,0.019l0.007,0.008l0.011,0.012l0.009,0.009l0.017,0.016l0.009,0.008l0.009,0.008l0.019,0.014l0.011,0.008l0.011,0.007l0.02,0.013l0.01,0.006l0.022,0.011l0.01,0.006l0.012,0.005l0.023,0.01l0.022,0.008l0.012,0.003l0.012,0.004l0.024,0.006l0.011,0.002l0.012,0.002l0.013,0.002l0.012,0.002l0.012,0.001l0.012,0.002l0.012,0l0.013,0.001l0.019,0l4.942,0l0.018,0l0.013,-0.001l0.012,0l0.012,-0.002l0.013,-0.001l0.012,-0.002l0.012,-0.002l0.013,-0.002l0.011,-0.002l0.011,-0.003l0.013,-0.003l0.011,-0.004l0.012,-0.003l0.012,-0.005l0.011,-0.003l0.01,-0.005l0.012,-0.005l0.012,-0.005l0.011,-0.006l0.01,-0.005l0.011,-0.006l0.011,-0.006l0.011,-0.007l0.009,-0.006l0.011,-0.007l0.011,-0.008l0.009,-0.007l0.009,-0.007l0.009,-0.008l0.009,-0.008l0.01,-0.009l0.008,-0.007l0.008,-0.009l0.009,-0.01l0.009,-0.01l0.009,-0.011l0.007,-0.008l0.006,-0.009l0.008,-0.011l0.008,-0.011l0.006,-0.01l0.006,-0.009l0.006,-0.01l0.005,-0.01l0.006,-0.011l0.006,-0.013l0.005,-0.011l0.004,-0.008l0.006,-0.015l0.004,-0.011l0.004,-0.012l0.004,-0.012l0.003,-0.009l0.003,-0.013l0.003,-0.013l0.002,-0.01l0.003,-0.013l0.002,-0.014l0.001,-0.01l0.001,-0.01l0.002,-0.015l0.001,-0.014l0,-0.008l0,-0.019l0,-7.992l0,-0.019l0,-0.007l-0.001,-0.015l-0.002,-0.015l-0.001,-0.01l-0.001,-0.01l-0.002,-0.014l-0.003,-0.013l-0.002,-0.01l-0.003,-0.013l-0.003,-0.013l-0.003,-0.009l-0.004,-0.012l-0.004,-0.012l-0.004,-0.011l-0.006,-0.015l-0.004,-0.008l-0.005,-0.011l-0.006,-0.013l-0.006,-0.011l-0.005,-0.01l-0.006,-0.01l-0.006,-0.009l-0.006,-0.01l-0.008,-0.011l-0.008,-0.011l-0.006,-0.009l-0.007,-0.009l-0.009,-0.01l-0.009,-0.01l-0.009,-0.01l-0.008,-0.009l-0.008,-0.007l-0.01,-0.009l-0.009,-0.008l-0.009,-0.008l-0.009,-0.007l-0.009,-0.007l-0.012,-0.008l-0.01,-0.007l-0.009,-0.006l-0.011,-0.007l-0.011,-0.006l-0.011,-0.006l-0.01,-0.006l-0.011,-0.005l-0.012,-0.005l-0.012,-0.005l-0.01,-0.005l-0.011,-0.003l-0.012,-0.005l-0.011,-0.003l-0.012,-0.004l-0.013,-0.003l-0.011,-0.003l-0.011,-0.002l-0.013,-0.002l-0.012,-0.002l-0.013,-0.002l-0.012,-0.002l-0.012,-0.001l-0.012,0l-0.013,-0.001l-0.018,0l-4.942,0Z"/><path d="M19.864,18l0.037,0l0.038,0.002l0.037,0.002l0.036,0.003l0.037,0.004l0.037,0.005l0.036,0.006l0.036,0.007l0.036,0.008l0.036,0.008l0.035,0.01l0.035,0.01l0.035,0.011l0.035,0.012l0.034,0.013l0.034,0.013l0.034,0.015l0.033,0.015l0.033,0.016l0.033,0.017l0.032,0.017l0.031,0.019l0.032,0.019l0.03,0.02l0.031,0.021l0.03,0.021l0.029,0.023l0.029,0.023l0.028,0.023l0.028,0.025l0.027,0.025l0.027,0.026l0.026,0.027l0.025,0.027l0.025,0.028l0.024,0.028l0.023,0.029l0.022,0.03l0.021,0.029l0.021,0.031l0.02,0.031l0.019,0.031l0.019,0.032l0.018,0.032l0.016,0.032l0.016,0.033l0.016,0.033l0.014,0.034l0.014,0.034l0.012,0.034l0.012,0.035l0.011,0.035l0.011,0.035l0.009,0.035l0.009,0.036l0.007,0.036l0.007,0.036l0.006,0.036l0.005,0.037l0.004,0.037l0.003,0.037l0.002,0.037l0.002,0.037l0,0.037l0,0.037l-0.002,0.037l-0.002,0.037l-0.003,0.037l-0.004,0.037l-0.005,0.037l-0.006,0.036l-0.007,0.036l-0.007,0.036l-0.009,0.036l-0.009,0.035l-0.011,0.035l-0.011,0.035l-0.012,0.035l-0.012,0.034l-0.014,0.034l-0.014,0.034l-0.016,0.033l-0.016,0.033l-0.016,0.032l-0.018,0.032l-0.019,0.032l-0.019,0.031l-0.02,0.031l-0.021,0.031l-0.021,0.029l-0.022,0.03l-0.023,0.029l-0.024,0.028l-0.025,0.028l-0.025,0.027l-0.026,0.027l-0.027,0.026l-0.027,0.025l-0.028,0.025l-0.028,0.023l-0.029,0.023l-0.029,0.023l-0.03,0.021l-0.031,0.021l-0.03,0.02l-0.032,0.019l-0.031,0.019l-0.032,0.017l-0.033,0.017l-0.033,0.016l-0.033,0.015l-0.034,0.015l-0.034,0.013l-0.034,0.013l-0.035,0.012l-0.035,0.011l-0.035,0.01l-0.035,0.01l-0.036,0.008l-0.036,0.008l-0.036,0.007l-0.036,0.006l-0.037,0.005l-0.037,0.004l-0.036,0.003l-0.037,0.002l-0.038,0.002l-0.037,0l-15,0l-0.037,0l-0.037,-0.002l-0.037,-0.002l-0.037,-0.003l-0.037,-0.004l-0.036,-0.005l-0.037,-0.006l-0.036,-0.007l-0.036,-0.008l-0.035,-0.008l-0.036,-0.01l-0.035,-0.01l-0.035,-0.011l-0.035,-0.012l-0.034,-0.013l-0.034,-0.013l-0.033,-0.015l-0.034,-0.015l-0.033,-0.016l-0.032,-0.017l-0.032,-0.017l-0.032,-0.019l-0.031,-0.019l-0.031,-0.02l-0.03,-0.021l-0.03,-0.021l-0.03,-0.023l-0.028,-0.023l-0.029,-0.023l-0.028,-0.025l-0.027,-0.025l-0.026,-0.026l-0.026,-0.027l-0.026,-0.027l-0.024,-0.028l-0.024,-0.028l-0.023,-0.029l-0.022,-0.03l-0.022,-0.029l-0.021,-0.031l-0.02,-0.031l-0.019,-0.031l-0.018,-0.032l-0.018,-0.032l-0.017,-0.032l-0.016,-0.033l-0.015,-0.033l-0.015,-0.034l-0.013,-0.034l-0.013,-0.034l-0.012,-0.035l-0.011,-0.035l-0.01,-0.035l-0.01,-0.035l-0.008,-0.036l-0.008,-0.036l-0.006,-0.036l-0.006,-0.036l-0.005,-0.037l-0.004,-0.037l-0.004,-0.037l-0.002,-0.037l-0.001,-0.037l-0.001,-0.037c0,0 0.001,-0.037 0.001,-0.037l0.001,-0.037l0.002,-0.037l0.004,-0.037l0.004,-0.037l0.005,-0.037l0.006,-0.036l0.006,-0.036l0.008,-0.036l0.008,-0.036l0.01,-0.035l0.01,-0.035l0.011,-0.035l0.012,-0.035l0.013,-0.034l0.013,-0.034l0.015,-0.034l0.015,-0.033l0.016,-0.033l0.017,-0.032l0.018,-0.032l0.018,-0.032l0.019,-0.031l0.02,-0.031l0.021,-0.031l0.022,-0.029l0.022,-0.03l0.023,-0.029l0.024,-0.028l0.024,-0.028l0.026,-0.027l0.026,-0.027l0.026,-0.026l0.027,-0.025l0.028,-0.025l0.029,-0.023l0.028,-0.023l0.03,-0.023l0.03,-0.021l0.03,-0.021l0.031,-0.02l0.031,-0.019l0.032,-0.019l0.032,-0.017l0.032,-0.017l0.033,-0.016l0.034,-0.015l0.033,-0.015l0.034,-0.013l0.034,-0.013l0.035,-0.012l0.035,-0.011l0.035,-0.01l0.036,-0.01l0.035,-0.008l0.036,-0.008l0.036,-0.007l0.037,-0.006l0.036,-0.005l0.037,-0.004l0.037,-0.003l0.037,-0.002l0.037,-0.002l0.037,0l15,0Zm-14.994,1l-0.018,0l-0.013,0.001l-0.012,0l-0.012,0.002l-0.012,0.001l-0.013,0.002l-0.012,0.002l-0.012,0.002l-0.011,0.002l-0.012,0.003l-0.013,0.003l-0.012,0.004l-0.011,0.003l-0.011,0.004l-0.011,0.004l-0.013,0.005l-0.01,0.005l-0.011,0.005l-0.012,0.006l-0.01,0.005l-0.012,0.006l-0.01,0.006l-0.01,0.006l-0.009,0.006l-0.01,0.007l-0.012,0.009l-0.009,0.007l-0.009,0.007l-0.009,0.008l-0.009,0.008l-0.011,0.009l-0.01,0.01l-0.007,0.007l-0.008,0.009l-0.009,0.01l-0.007,0.009l-0.007,0.009l-0.009,0.011l-0.008,0.011l-0.005,0.008l-0.007,0.01l-0.008,0.013l-0.004,0.008l-0.006,0.011l-0.006,0.011l-0.006,0.011l-0.005,0.012l-0.005,0.012l-0.004,0.01l-0.004,0.01l-0.004,0.012l-0.004,0.013l-0.004,0.014l-0.002,0.008l-0.003,0.011l-0.003,0.014l-0.003,0.014l-0.002,0.012l-0.001,0.009l-0.001,0.012l-0.001,0.013l-0.001,0.015l-0.001,0.013l0,0.01l0,0.01l0.001,0.013l0.001,0.015l0.001,0.013l0.001,0.012l0.001,0.009l0.002,0.012l0.003,0.014l0.003,0.014l0.003,0.011l0.002,0.008l0.004,0.014l0.004,0.013l0.004,0.012l0.004,0.01l0.004,0.01l0.005,0.012l0.005,0.012l0.006,0.011l0.006,0.011l0.006,0.011l0.004,0.008l0.008,0.013l0.007,0.01l0.005,0.008l0.008,0.011l0.009,0.011l0.007,0.009l0.007,0.009l0.009,0.01l0.008,0.008l0.007,0.008l0.01,0.01l0.011,0.009l0.009,0.008l0.009,0.008l0.009,0.007l0.009,0.007l0.012,0.009l0.01,0.007l0.009,0.006l0.01,0.006l0.01,0.006l0.012,0.006l0.01,0.005l0.012,0.006l0.011,0.005l0.01,0.005l0.013,0.005l0.011,0.004l0.011,0.004l0.011,0.003l0.012,0.004l0.012,0.003l0.013,0.003l0.012,0.002l0.011,0.002l0.012,0.002l0.013,0.002l0.012,0.001l0.012,0.002l0.012,0l0.013,0.001l0.018,0l14.988,0l0.019,0l0.012,-0.001l0.013,0l0.012,-0.002l0.012,-0.001l0.012,-0.002l0.012,-0.002l0.012,-0.002l0.013,-0.002l0.011,-0.003l0.012,-0.003l0.012,-0.004l0.011,-0.003l0.012,-0.004l0.011,-0.004l0.011,-0.005l0.011,-0.005l0.012,-0.005l0.011,-0.006l0.012,-0.006l0.01,-0.005l0.009,-0.005l0.01,-0.007l0.012,-0.007l0.01,-0.007l0.009,-0.007l0.011,-0.008l0.01,-0.008l0.008,-0.007l0.009,-0.008l0.01,-0.009l0.009,-0.008l0.009,-0.01l0.009,-0.009l0.007,-0.009l0.008,-0.009l0.007,-0.009l0.008,-0.011l0.007,-0.009l0.007,-0.01l0.008,-0.012l0.006,-0.011l0.005,-0.008l0.006,-0.011l0.006,-0.011l0.005,-0.011l0.006,-0.012l0.004,-0.01l0.005,-0.012l0.004,-0.012l0.004,-0.01l0.004,-0.013l0.003,-0.011l0.003,-0.011l0.003,-0.014l0.002,-0.011l0.003,-0.011l0.002,-0.015l0.002,-0.012l0.001,-0.009l0.001,-0.013l0,-0.012l0.001,-0.013l0,-0.013l0,-0.013l-0.001,-0.013l0,-0.012l-0.001,-0.013l-0.001,-0.009l-0.002,-0.012l-0.002,-0.015l-0.003,-0.011l-0.002,-0.011l-0.003,-0.014l-0.003,-0.011l-0.003,-0.011l-0.004,-0.013l-0.004,-0.01l-0.004,-0.012l-0.005,-0.012l-0.004,-0.01l-0.006,-0.012l-0.005,-0.011l-0.006,-0.011l-0.006,-0.011l-0.005,-0.008l-0.006,-0.011l-0.008,-0.012l-0.007,-0.01l-0.007,-0.009l-0.008,-0.011l-0.007,-0.009l-0.008,-0.009l-0.007,-0.009l-0.01,-0.01l-0.008,-0.009l-0.008,-0.008l-0.011,-0.009l-0.009,-0.008l-0.008,-0.007l-0.01,-0.008l-0.011,-0.008l-0.009,-0.007l-0.01,-0.007l-0.012,-0.007l-0.01,-0.007l-0.009,-0.005l-0.01,-0.005l-0.012,-0.006l-0.011,-0.006l-0.012,-0.005l-0.011,-0.005l-0.011,-0.005l-0.011,-0.004l-0.012,-0.004l-0.011,-0.003l-0.012,-0.004l-0.012,-0.003l-0.011,-0.003l-0.013,-0.002l-0.012,-0.002l-0.012,-0.002l-0.012,-0.002l-0.012,-0.001l-0.012,-0.002l-0.013,0l-0.012,-0.001l-0.019,0l-14.988,0Z"/><rect x="4.115" y="18.748" width="8.249" height="1.398"/><rect x="2.023" y="6" width="4" height="1"/><rect x="2.023" y="10" width="4" height="1"/><rect x="2.023" y="8" width="4" height="1"/><path d="M15.282,8.464l-2.035,2.036l0.026,-1.464l-3.991,0l0,-1l4.008,0l0.028,-1.536l1.964,1.964Z"/></g></svg>