<?xml version="1.0" encoding="UTF-8" standalone="no"?><!DOCTYPE svg PUBLIC "-//W3C//DTD SVG 1.1//EN" "http://www.w3.org/Graphics/SVG/1.1/DTD/svg11.dtd"><svg width="100%" height="100%" viewBox="0 0 300 375" version="1.1" xmlns="http://www.w3.org/2000/svg" xmlns:xlink="http://www.w3.org/1999/xlink" xml:space="preserve" style="fill-rule:evenodd;clip-rule:evenodd;stroke-linejoin:round;stroke-miterlimit:1.5;"><g><g><g opacity="0.4"><g><path d="M204.346,25.198l0.085,0.002l0.086,0.003l0.086,0.004l0.085,0.005l0.086,0.006l0.086,0.007l0.085,0.008l0.086,0.01l0.086,0.01l0.085,0.011l0.086,0.013l0.085,0.014l51.679,8.569l0.085,0.014l0.085,0.016l0.085,0.017l0.084,0.018l0.084,0.019l0.084,0.019l0.083,0.021l0.083,0.022l0.083,0.023l0.083,0.024l0.082,0.025l0.081,0.025l0.081,0.027l0.081,0.028l0.081,0.029l0.08,0.029l0.079,0.031l0.079,0.032l0.079,0.032l0.079,0.034l0.077,0.034l0.078,0.036l0.077,0.036l0.076,0.037l0.076,0.038l0.076,0.04l0.075,0.04l0.074,0.04l0.074,0.042l0.074,0.043l0.073,0.044l0.072,0.044l0.072,0.045l0.071,0.047l0.071,0.047l0.07,0.048l0.069,0.048l0.069,0.05l0.069,0.051l0.068,0.051l0.067,0.052l0.066,0.053l0.066,0.054l0.066,0.055l0.064,0.055l0.064,0.057l0.063,0.057l0.063,0.058l0.062,0.058l0.061,0.06l0.061,0.06l0.06,0.061l0.059,0.062l0.058,0.063l0.058,0.063l0.057,0.064l0.056,0.065l0.056,0.066l0.055,0.066l0.053,0.067l0.054,0.068l0.052,0.069l0.052,0.069l0.05,0.07l0.05,0.071l0.049,0.071l0.048,0.072l0.047,0.072l0.047,0.073l0.045,0.073l0.044,0.074l0.043,0.074l0.043,0.075l0.041,0.075l0.04,0.075l0.04,0.076l0.038,0.077l0.038,0.077l0.036,0.077l0.036,0.077l0.035,0.078l0.033,0.079l0.033,0.078l0.032,0.08l0.03,0.079l0.03,0.08l0.029,0.08l0.027,0.08l0.027,0.081l0.026,0.081l0.025,0.081l0.023,0.082l0.023,0.082l0.022,0.082l0.021,0.082l0.019,0.083l0.019,0.083l0.018,0.083l0.017,0.083l0.015,0.084l0.015,0.083l0.014,0.084l0.012,0.084l0.012,0.085l0.01,0.084l0.01,0.085l0.008,0.084l0.008,0.085l0.006,0.085l0.006,0.085l0.004,0.085l0.004,0.085l0.002,0.086l0.001,0.085l0,0.086l-0.001,0.085l-0.001,0.086l-0.003,0.085l-0.004,0.086l-0.006,0.086l-0.006,0.085l-0.007,0.086l-0.008,0.086l-0.009,0.085l-0.011,0.086l-0.011,0.085l-0.013,0.086l-0.014,0.087l-0.015,0.086l-0.015,0.085l-0.017,0.084l-0.018,0.085l-0.019,0.084l-0.019,0.083l-0.021,0.084l-0.022,0.083l-0.023,0.083l-0.024,0.082l-0.025,0.082l-0.025,0.082l-0.027,0.081l-0.028,0.081l-0.029,0.08l-0.029,0.08l-0.031,0.08l-0.032,0.079l-0.032,0.079l-0.034,0.078l-0.034,0.078l-0.036,0.077l-0.036,0.077l-0.037,0.077l-0.038,0.076l-0.04,0.075l-0.04,0.075l-0.04,0.075l-0.042,0.074l-0.043,0.073l-0.044,0.073l-0.044,0.072l-0.045,0.072l-0.047,0.072l-0.047,0.07l-0.048,0.07l-0.048,0.07l-0.05,0.069l-0.051,0.068l-0.051,0.068l-0.052,0.067l-0.053,0.067l-0.054,0.066l-0.055,0.065l-0.055,0.065l-0.057,0.064l-0.057,0.063l-0.058,0.063l-0.058,0.062l-0.06,0.061l-0.06,0.06l-0.061,0.06l-0.062,0.059l-0.063,0.059l-0.063,0.058l-0.064,0.057l-0.065,0.056l-0.066,0.055l-0.066,0.055l-0.067,0.054l-0.068,0.053l-0.069,0.053l-0.069,0.051l-0.07,0.051l-0.071,0.05l-0.071,0.049l-0.072,0.048l-0.072,0.047l-0.073,0.046l-0.073,0.045l-0.074,0.045l-0.074,0.043l-0.075,0.042l-0.075,0.042l-0.075,0.04l-0.076,0.039l-0.077,0.039l-0.077,0.037l-0.077,0.037l-0.077,0.036l-0.078,0.034l-0.079,0.034l-0.078,0.032l-0.08,0.032l-0.079,0.031l-0.08,0.03l-0.08,0.028l-0.08,0.028l-0.081,0.027l-0.081,0.025l-0.081,0.025l-0.082,0.024l-0.082,0.023l-0.082,0.021l-0.082,0.021l-0.083,0.02l-0.083,0.019l-0.083,0.017l-0.083,0.017l-0.084,0.016l-0.083,0.014l-0.084,0.014l-0.084,0.013l-0.085,0.011l-0.084,0.011l-0.085,0.009l-0.084,0.009l-0.085,0.007l-0.085,0.007l-0.085,0.005l-0.085,0.005l-0.085,0.003l-0.086,0.002l-0.085,0.002l-0.086,0l-0.085,-0.001l-0.086,-0.002l-0.085,-0.003l-0.086,-0.004l-0.086,-0.005l-0.085,-0.006l-0.086,-0.007l-0.086,-0.009l-0.085,-0.009l-0.086,-0.01l-0.086,-0.012l-0.085,-0.012l-0.086,-0.014l-51.678,-8.569l-0.085,-0.015l-0.085,-0.016l-0.085,-0.016l-0.084,-0.018l-0.085,-0.019l-0.083,-0.02l-0.084,-0.021l-0.083,-0.021l-0.082,-0.023l-0.083,-0.024l-0.082,-0.025l-0.081,-0.026l-0.082,-0.027l-0.081,-0.027l-0.08,-0.029l-0.08,-0.03l-0.08,-0.03l-0.079,-0.032l-0.079,-0.033l-0.078,-0.033l-0.078,-0.035l-0.077,-0.035l-0.077,-0.036l-0.077,-0.038l-0.076,-0.038l-0.075,-0.039l-0.075,-0.04l-0.075,-0.041l-0.073,-0.042l-0.074,-0.042l-0.073,-0.044l-0.072,-0.044l-0.072,-0.046l-0.071,-0.046l-0.071,-0.047l-0.07,-0.048l-0.07,-0.049l-0.069,-0.05l-0.068,-0.05l-0.068,-0.051l-0.067,-0.053l-0.067,-0.053l-0.066,-0.053l-0.065,-0.055l-0.064,-0.056l-0.064,-0.056l-0.064,-0.057l-0.062,-0.058l-0.062,-0.059l-0.062,-0.059l-0.06,-0.061l-0.06,-0.061l-0.059,-0.062l-0.059,-0.062l-0.057,-0.064l-0.057,-0.064l-0.057,-0.065l-0.055,-0.065l-0.055,-0.067l-0.054,-0.067l-0.053,-0.068l-0.052,-0.068l-0.052,-0.07l-0.051,-0.07l-0.05,-0.07l-0.049,-0.072l-0.048,-0.071l-0.047,-0.073l-0.046,-0.072l-0.045,-0.074l-0.044,-0.073l-0.044,-0.075l-0.042,-0.074l-0.041,-0.075l-0.041,-0.076l-0.039,-0.076l-0.039,-0.076l-0.037,-0.077l-0.037,-0.077l-0.035,-0.078l-0.035,-0.078l-0.034,-0.078l-0.032,-0.079l-0.032,-0.079l-0.031,-0.079l-0.029,-0.08l-0.029,-0.08l-0.028,-0.081l-0.027,-0.08l-0.025,-0.081l-0.025,-0.082l-0.024,-0.081l-0.023,-0.082l-0.021,-0.082l-0.021,-0.083l-0.02,-0.082l-0.018,-0.083l-0.018,-0.083l-0.017,-0.084l-0.016,-0.083l-0.014,-0.084l-0.014,-0.084l-0.013,-0.084l-0.011,-0.084l-0.011,-0.084l-0.009,-0.085l-0.009,-0.085l-0.007,-0.084l-0.007,-0.085l-0.005,-0.085l-0.005,-0.086l-0.003,-0.085l-0.002,-0.085l-0.001,-0.086l-0.001,-0.085l0.001,-0.086l0.002,-0.085l0.003,-0.086l0.004,-0.085l0.005,-0.086l0.006,-0.086l0.008,-0.085l0.008,-0.086l0.009,-0.086l0.011,-0.085l0.011,-0.086l0.013,-0.085l0.013,-0.086l0.001,-0.002l0.014,-0.085l0.016,-0.085l0.017,-0.085l0.017,-0.084l0.019,-0.084l0.02,-0.084l0.021,-0.083l0.022,-0.083l0.023,-0.083l0.023,-0.082l0.025,-0.082l0.026,-0.082l0.027,-0.081l0.028,-0.081l0.028,-0.081l0.03,-0.08l0.031,-0.079l0.031,-0.079l0.033,-0.079l0.034,-0.078l0.034,-0.078l0.035,-0.078l0.037,-0.077l0.037,-0.076l0.038,-0.076l0.039,-0.076l0.04,-0.075l0.041,-0.074l0.042,-0.074l0.043,-0.074l0.043,-0.072l0.045,-0.073l0.045,-0.072l0.046,-0.071l0.047,-0.071l0.048,-0.07l0.049,-0.069l0.05,-0.069l0.05,-0.069l0.052,-0.068l0.052,-0.067l0.053,-0.066l0.054,-0.066l0.054,-0.065l0.056,-0.065l0.056,-0.064l0.057,-0.063l0.058,-0.063l0.059,-0.062l0.06,-0.061l0.06,-0.061l0.061,-0.06l0.062,-0.059l0.062,-0.058l0.064,-0.058l0.064,-0.057l0.065,-0.056l0.066,-0.056l0.066,-0.054l0.067,-0.054l0.068,-0.054l0.069,-0.052l0.069,-0.052l0.07,-0.05l0.071,-0.05l0.071,-0.049l0.072,-0.048l0.072,-0.047l0.073,-0.047l0.073,-0.045l0.074,-0.044l0.074,-0.043l0.075,-0.043l0.075,-0.041l0.075,-0.04l0.076,-0.04l0.076,-0.038l0.077,-0.038l0.077,-0.036l0.078,-0.036l0.078,-0.035l0.078,-0.033l0.079,-0.033l0.079,-0.032l0.08,-0.03l0.079,-0.03l0.081,-0.029l0.08,-0.027l0.081,-0.027l0.081,-0.026l0.081,-0.025l0.082,-0.023l0.081,-0.023l0.083,-0.022l0.082,-0.021l0.083,-0.019l0.082,-0.019l0.084,-0.018l0.083,-0.016l0.083,-0.016l0.084,-0.015l0.084,-0.014l0.084,-0.012l0.084,-0.012l0.085,-0.01l0.084,-0.01l0.085,-0.008l0.085,-0.008l0.085,-0.006l0.085,-0.006l0.085,-0.004l0.085,-0.003l0.086,-0.003l0.085,-0.001l0.085,0l0.086,0.001Zm-0.159,1.499l-0.066,0.001l-0.067,0.002l-0.067,0.002l-0.067,0.004l-0.067,0.004l-0.066,0.005l-0.067,0.006l-0.066,0.007l-0.067,0.007l-0.066,0.008l-0.066,0.01l-0.067,0.01l-0.065,0.01l-0.066,0.012l-0.065,0.012l-0.065,0.013l-0.065,0.014l-0.066,0.015l-0.065,0.015l-0.064,0.016l-0.065,0.018l-0.064,0.018l-0.063,0.018l-0.065,0.02l-0.064,0.02l-0.063,0.021l-0.062,0.021l-0.063,0.023l-0.063,0.023l-0.063,0.025l-0.062,0.024l-0.061,0.026l-0.062,0.026l-0.061,0.027l-0.062,0.029l-0.06,0.028l-0.059,0.029l-0.061,0.031l-0.06,0.031l-0.058,0.031l-0.059,0.033l-0.059,0.033l-0.059,0.034l-0.057,0.034l-0.058,0.036l-0.058,0.037l-0.055,0.036l-0.056,0.037l-0.056,0.039l-0.057,0.04l-0.054,0.04l-0.054,0.039l-0.054,0.042l-0.053,0.041l-0.052,0.042l-0.053,0.044l-0.053,0.044l-0.05,0.044l-0.05,0.044l-0.051,0.047l-0.047,0.043l-0.048,0.047l-0.049,0.048l-0.049,0.049l-0.047,0.048l-0.044,0.046l-0.045,0.049l-0.046,0.052l-0.045,0.05l-0.041,0.048l-0.045,0.054l-0.043,0.052l-0.039,0.05l-0.043,0.055l-0.041,0.053l-0.038,0.052l-0.039,0.054l-0.039,0.055l-0.038,0.056l-0.035,0.053l-0.037,0.057l-0.036,0.057l-0.035,0.058l-0.035,0.058l-0.033,0.056l-0.033,0.059l-0.031,0.057l-0.031,0.057l-0.032,0.063l-0.03,0.058l-0.028,0.059l-0.029,0.062l-0.027,0.059l-0.028,0.063l-0.027,0.063l-0.026,0.061l-0.023,0.058l-0.024,0.064l-0.025,0.065l-0.022,0.062l-0.021,0.063l-0.021,0.063l-0.021,0.067l-0.02,0.063l-0.017,0.061l-0.019,0.068l-0.018,0.068l-0.015,0.062l-0.016,0.066l-0.015,0.066l-0.013,0.066l-0.014,0.066l-0.012,0.067l-0.016,0.096l-0.007,0.034l0.005,-0.026l-0.005,0.033l-0.01,0.068l-0.008,0.065l-0.009,0.068l-0.007,0.067l-0.007,0.068l-0.005,0.068l-0.005,0.065l-0.004,0.067l-0.003,0.068l-0.002,0.068l-0.002,0.068l-0.001,0.064l0.001,0.067l0.001,0.071l0.001,0.064l0.003,0.067l0.003,0.071l0.004,0.063l0.006,0.067l0.005,0.067l0.007,0.062l0.008,0.07l0.008,0.067l0.009,0.066l0.01,0.066l0.01,0.062l0.013,0.069l0.012,0.066l0.013,0.065l0.014,0.068l0.014,0.061l0.016,0.065l0.017,0.068l0.016,0.06l0.018,0.064l0.019,0.067l0.019,0.064l0.02,0.063l0.022,0.066l0.02,0.059l0.023,0.062l0.024,0.066l0.024,0.061l0.025,0.061l0.025,0.062l0.027,0.063l0.027,0.061l0.028,0.06l0.03,0.063l0.028,0.059l0.029,0.056l0.032,0.062l0.032,0.061l0.033,0.058l0.032,0.058l0.034,0.057l0.035,0.06l0.037,0.059l0.035,0.056l0.037,0.055l0.037,0.056l0.038,0.055l0.04,0.056l0.041,0.058l0.041,0.054l0.039,0.051l0.043,0.055l0.042,0.053l0.042,0.051l0.045,0.053l0.043,0.05l0.044,0.05l0.045,0.049l0.047,0.05l0.047,0.05l0.046,0.046l0.048,0.048l0.049,0.048l0.048,0.045l0.049,0.046l0.05,0.045l0.049,0.043l0.051,0.043l0.051,0.044l0.053,0.042l0.052,0.042l0.052,0.041l0.054,0.04l0.053,0.04l0.054,0.038l0.055,0.039l0.056,0.038l0.055,0.037l0.056,0.036l0.055,0.035l0.058,0.036l0.057,0.034l0.057,0.032l0.058,0.034l0.059,0.032l0.059,0.031l0.06,0.031l0.06,0.03l0.058,0.029l0.06,0.028l0.061,0.028l0.062,0.027l0.062,0.027l0.062,0.025l0.061,0.025l0.063,0.024l0.063,0.024l0.063,0.022l0.062,0.021l0.064,0.021l0.065,0.021l0.065,0.02l0.064,0.018l0.064,0.018l0.066,0.017l0.066,0.017l0.065,0.015l0.065,0.015l0.067,0.014l0.067,0.013l0.067,0.013l0.071,0.012l51.669,8.567l0.072,0.012l0.067,0.01l0.067,0.009l0.068,0.008l0.067,0.007l0.067,0.007l0.067,0.005l0.067,0.005l0.068,0.004l0.067,0.003l0.067,0.003l0.067,0.001l0.067,0.001l0.067,0l0.067,-0.001l0.067,-0.002l0.067,-0.003l0.067,-0.003l0.067,-0.004l0.066,-0.006l0.067,-0.005l0.066,-0.007l0.066,-0.008l0.067,-0.008l0.067,-0.009l0.064,-0.01l0.066,-0.011l0.066,-0.011l0.066,-0.012l0.065,-0.014l0.066,-0.014l0.064,-0.014l0.065,-0.016l0.066,-0.016l0.064,-0.017l0.063,-0.018l0.065,-0.019l0.064,-0.019l0.063,-0.02l0.063,-0.021l0.063,-0.022l0.063,-0.022l0.064,-0.024l0.061,-0.024l0.061,-0.024l0.064,-0.027l0.062,-0.026l0.059,-0.026l0.061,-0.028l0.062,-0.03l0.06,-0.029l0.059,-0.03l0.059,-0.031l0.06,-0.031l0.059,-0.033l0.059,-0.034l0.058,-0.034l0.059,-0.035l0.056,-0.035l0.056,-0.035l0.058,-0.038l0.057,-0.038l0.055,-0.038l0.055,-0.039l0.056,-0.04l0.055,-0.041l0.053,-0.041l0.053,-0.041l0.054,-0.043l0.051,-0.042l0.051,-0.043l0.052,-0.045l0.05,-0.045l0.049,-0.045l0.051,-0.047l0.048,-0.046l0.047,-0.046l0.047,-0.048l0.046,-0.047l0.048,-0.051l0.046,-0.049l0.043,-0.047l0.043,-0.05l0.046,-0.053l0.043,-0.051l0.042,-0.052l0.042,-0.052l0.039,-0.051l0.041,-0.053l0.039,-0.054l0.039,-0.055l0.039,-0.055l0.038,-0.055l0.038,-0.056l0.036,-0.057l0.035,-0.055l0.033,-0.054l0.035,-0.058l0.034,-0.059l0.033,-0.059l0.033,-0.06l0.031,-0.057l0.03,-0.058l0.03,-0.061l0.029,-0.058l0.029,-0.062l0.029,-0.063l0.026,-0.059l0.026,-0.061l0.025,-0.06l0.026,-0.064l0.023,-0.062l0.024,-0.065l0.023,-0.062l0.021,-0.063l0.022,-0.066l0.019,-0.06l0.019,-0.064l0.02,-0.067l0.018,-0.065l0.017,-0.064l0.016,-0.066l0.015,-0.065l0.016,-0.069l0.013,-0.063l0.013,-0.067l0.013,-0.07l-0.009,0.052l0,0.067l0.01,-0.121l0.022,-0.132l0.009,-0.064l0.009,-0.071l0.008,-0.065l0.007,-0.064l0.007,-0.072l0.006,-0.068l0.005,-0.064l0.003,-0.068l0.004,-0.068l0.002,-0.067l0.002,-0.068l0,-0.068l0,-0.067l-0.001,-0.064l-0.002,-0.067l-0.002,-0.067l-0.004,-0.067l-0.004,-0.067l-0.005,-0.067l-0.006,-0.067l-0.007,-0.066l-0.007,-0.067l-0.008,-0.066l-0.009,-0.066l-0.01,-0.066l-0.011,-0.066l-0.012,-0.066l-0.012,-0.065l-0.013,-0.065l-0.014,-0.065l-0.015,-0.065l-0.015,-0.064l-0.016,-0.065l-0.018,-0.067l-0.018,-0.064l-0.018,-0.064l-0.019,-0.063l-0.02,-0.063l-0.021,-0.063l-0.022,-0.062l-0.023,-0.066l-0.023,-0.062l-0.023,-0.058l-0.026,-0.065l-0.027,-0.064l-0.024,-0.058l-0.029,-0.063l-0.028,-0.063l-0.027,-0.057l-0.029,-0.06l-0.032,-0.062l-0.03,-0.058l-0.032,-0.059l-0.033,-0.061l-0.034,-0.06l-0.033,-0.057l-0.035,-0.057l-0.034,-0.057l-0.036,-0.056l-0.038,-0.058l-0.039,-0.058l-0.038,-0.055l-0.038,-0.054l-0.04,-0.055l-0.04,-0.054l-0.043,-0.056l-0.041,-0.053l-0.042,-0.052l-0.042,-0.052l-0.044,-0.05l-0.045,-0.053l-0.044,-0.049l-0.046,-0.051l-0.047,-0.05l-0.045,-0.048l-0.046,-0.047l-0.049,-0.048l-0.046,-0.045l-0.05,-0.047l-0.05,-0.046l-0.048,-0.044l-0.052,-0.046l-0.049,-0.042l-0.052,-0.043l-0.052,-0.042l-0.052,-0.042l-0.053,-0.041l-0.053,-0.04l-0.053,-0.04l-0.054,-0.039l-0.056,-0.039l-0.054,-0.037l-0.056,-0.037l-0.055,-0.036l-0.057,-0.035l-0.057,-0.036l-0.057,-0.034l-0.057,-0.033l-0.059,-0.033l-0.059,-0.033l-0.058,-0.031l-0.058,-0.03l-0.061,-0.03l-0.06,-0.03l-0.061,-0.028l-0.061,-0.028l-0.06,-0.027l-0.061,-0.026l-0.063,-0.026l-0.061,-0.024l-0.062,-0.024l-0.064,-0.024l-0.063,-0.022l-0.064,-0.022l-0.063,-0.021l-0.064,-0.02l-0.064,-0.02l-0.065,-0.019l-0.065,-0.018l-0.065,-0.017l-0.065,-0.016l-0.067,-0.016l-0.065,-0.014l-0.067,-0.014l-0.067,-0.014l-0.065,-0.012l-0.072,-0.012l-51.67,-8.568l-0.071,-0.011l-0.068,-0.01l-0.067,-0.009l-0.066,-0.008l-0.068,-0.008l-0.067,-0.006l-0.067,-0.006l-0.068,-0.005l-0.067,-0.004l-0.067,-0.003l-0.067,-0.002l-0.067,-0.002l-0.067,0l-0.068,0Z" style="fill:#474747;"/><path d="M211.156,22.831l0.116,0.003l0.115,0.006l0.116,0.009l0.117,0.011l0.116,0.015l0.059,0.009l0.058,0.009l38.487,6.382l0.058,0.01l0.058,0.011l0.116,0.023l0.114,0.027l0.112,0.029l0.112,0.032l0.11,0.034l0.108,0.037l0.107,0.04l0.106,0.042l0.105,0.044l0.103,0.047l0.101,0.05l0.1,0.051l0.098,0.055l0.097,0.056l0.095,0.058l0.093,0.061l0.092,0.063l0.09,0.065l0.088,0.067l0.087,0.069l0.085,0.071l0.082,0.073l0.081,0.075l0.079,0.077l0.078,0.079l0.075,0.08l0.073,0.082l0.071,0.084l0.069,0.085l0.068,0.087l0.065,0.089l0.062,0.09l0.061,0.092l0.059,0.093l0.056,0.094l0.054,0.096l0.052,0.097l0.049,0.098l0.047,0.1l0.045,0.101l0.043,0.102l0.039,0.103l0.038,0.104l0.035,0.105l0.032,0.107l0.03,0.107l0.028,0.108l0.024,0.109l0.023,0.109l0.019,0.111l0.017,0.111l0.014,0.112l0.011,0.113l0.009,0.113l0.005,0.113l0.003,0.115l0,0.115l-0.003,0.115l-0.006,0.115l-0.008,0.116l-0.012,0.117l-0.015,0.116l-0.009,0.059l-0.009,0.058l0,0.002l-47.524,-7.881l0.001,-0.001l0.01,-0.058l0.011,-0.058l0.023,-0.115l0.027,-0.114l0.029,-0.113l0.031,-0.111l0.035,-0.11l0.037,-0.109l0.039,-0.107l0.043,-0.106l0.044,-0.104l0.047,-0.103l0.05,-0.102l0.051,-0.1l0.054,-0.098l0.057,-0.097l0.058,-0.095l0.061,-0.093l0.063,-0.092l0.065,-0.09l0.067,-0.088l0.069,-0.087l0.071,-0.084l0.073,-0.083l0.075,-0.081l0.077,-0.079l0.079,-0.077l0.08,-0.076l0.082,-0.073l0.084,-0.071l0.085,-0.069l0.087,-0.067l0.089,-0.065l0.09,-0.063l0.092,-0.061l0.093,-0.058l0.094,-0.057l0.096,-0.054l0.097,-0.052l0.098,-0.049l0.1,-0.047l0.101,-0.045l0.102,-0.042l0.103,-0.04l0.104,-0.038l0.105,-0.035l0.106,-0.032l0.108,-0.03l0.108,-0.028l0.108,-0.024l0.11,-0.022l0.111,-0.02l0.111,-0.017l0.112,-0.014l0.112,-0.011l0.114,-0.008l0.113,-0.006l0.115,-0.003l0.114,0Zm-0.172,1.502l-0.077,0.004l-0.075,0.005l-0.076,0.008l-0.075,0.009l-0.074,0.012l-0.074,0.013l-0.074,0.015l-0.073,0.016l-0.073,0.018l-0.071,0.02l-0.071,0.022l-0.071,0.024l-0.07,0.025l-0.069,0.027l-0.069,0.028l-0.068,0.03l-0.067,0.032l-0.067,0.034l-0.065,0.035l-0.064,0.036l-0.064,0.038l-0.063,0.039l-0.061,0.041l-0.061,0.043l-0.06,0.044l-0.059,0.045l-0.057,0.047l-0.057,0.048l-0.055,0.048l-0.054,0.051l-0.053,0.052l-0.052,0.054l-0.05,0.054l-0.049,0.055l-0.049,0.059l-0.023,0.029l43.797,7.262l-0.012,-0.035l-0.027,-0.07l-0.029,-0.069l-0.03,-0.068l-0.033,-0.068l-0.032,-0.064l-0.035,-0.066l-0.037,-0.065l-0.038,-0.064l-0.039,-0.062l-0.041,-0.062l-0.042,-0.061l-0.045,-0.06l-0.045,-0.059l-0.046,-0.057l-0.049,-0.058l-0.048,-0.054l-0.05,-0.053l-0.053,-0.054l-0.054,-0.052l-0.054,-0.05l-0.056,-0.05l-0.057,-0.047l-0.057,-0.046l-0.06,-0.045l-0.061,-0.044l-0.061,-0.043l-0.062,-0.04l-0.064,-0.039l-0.066,-0.038l-0.065,-0.036l-0.067,-0.035l-0.068,-0.033l-0.069,-0.032l-0.07,-0.029l-0.07,-0.029l-0.073,-0.026l-0.073,-0.025l-0.074,-0.023l-0.074,-0.022l-0.076,-0.019l-0.078,-0.018l-0.083,-0.017l-0.034,-0.007l-0.044,-0.007l-38.477,-6.38l-0.045,-0.007l-0.035,-0.006l-0.084,-0.01l-0.078,-0.008l-0.078,-0.006l-0.078,-0.004l-0.078,-0.002l-0.077,0l-0.076,0.002Z" style="fill:#474747;"/><path d="M231.384,12.791l0.192,0.003l0.193,0.005l0.193,0.008l0.193,0.01l0.194,0.012l0.194,0.014l0.194,0.017l0.195,0.02l0.195,0.021l0.195,0.024l0.195,0.027l0.196,0.028l0.195,0.032l0.196,0.033l0.194,0.036l0.193,0.038l0.193,0.04l0.191,0.043l0.191,0.044l0.189,0.047l0.188,0.049l0.187,0.051l0.187,0.053l0.185,0.055l0.184,0.057l0.182,0.06l0.182,0.061l0.181,0.063l0.179,0.066l0.178,0.067l0.177,0.069l0.176,0.072l0.175,0.073l0.173,0.075l0.172,0.077l0.171,0.079l0.17,0.08l0.169,0.083l0.167,0.084l0.166,0.087l0.164,0.088l0.163,0.09l0.162,0.091l0.161,0.093l0.159,0.096l0.158,0.096l0.157,0.099l0.155,0.1l0.153,0.102l0.153,0.103l0.151,0.106l0.149,0.106l0.148,0.109l0.146,0.11l0.145,0.111l0.144,0.113l0.142,0.115l0.14,0.116l0.139,0.118l0.138,0.119l0.136,0.12l0.134,0.122l0.133,0.124l0.131,0.125l0.129,0.126l0.128,0.128l0.126,0.129l0.125,0.13l0.123,0.132l0.121,0.133l0.12,0.135l0.118,0.135l0.116,0.137l0.114,0.139l0.113,0.139l0.111,0.141l0.11,0.142l0.107,0.143l0.106,0.144l0.104,0.145l0.102,0.147l0.1,0.147l0.098,0.149l0.097,0.15l0.095,0.151l0.093,0.152l0.091,0.153l0.089,0.154l0.087,0.155l0.085,0.156l0.084,0.157l0.081,0.158l0.079,0.159l0.078,0.16l0.075,0.161l0.074,0.161l0.071,0.163l0.07,0.163l0.067,0.165l0.066,0.165l0.063,0.166l0.061,0.166l0.059,0.168l0.057,0.168l0.055,0.169l0.053,0.169l0.051,0.171l0.048,0.171l0.047,0.172l0.044,0.172l0.042,0.173l0.04,0.174l0.038,0.174l0.035,0.175l0.033,0.175l0.031,0.176l0.029,0.177l0.026,0.177l0.024,0.178l0.022,0.178l0.02,0.178l0.017,0.179l0.015,0.18l0.012,0.18l0.01,0.18l0.008,0.181l0.005,0.181l0.003,0.181l0.001,0.182l-0.002,0.182l-0.004,0.183l-0.007,0.183l-0.009,0.183l-0.012,0.183l-0.014,0.183l-0.017,0.184l-0.019,0.184l-0.022,0.184l-0.024,0.185l-0.027,0.184l-0.029,0.185l-30.282,-5.021l0.032,-0.185l0.034,-0.183l0.037,-0.182l0.039,-0.182l0.041,-0.18l0.044,-0.179l0.045,-0.178l0.048,-0.178l0.051,-0.176l0.052,-0.175l0.055,-0.174l0.057,-0.173l0.06,-0.172l0.061,-0.171l0.063,-0.17l0.066,-0.168l0.068,-0.167l0.07,-0.167l0.072,-0.165l0.074,-0.164l0.076,-0.162l0.078,-0.162l0.08,-0.16l0.082,-0.159l0.084,-0.158l0.087,-0.157l0.088,-0.155l0.09,-0.154l0.091,-0.153l0.094,-0.152l0.096,-0.15l0.097,-0.149l0.1,-0.147l0.101,-0.147l0.103,-0.144l0.105,-0.144l0.106,-0.142l0.108,-0.141l0.11,-0.139l0.112,-0.138l0.114,-0.137l0.115,-0.135l0.117,-0.134l0.118,-0.132l0.12,-0.131l0.122,-0.129l0.123,-0.128l0.125,-0.126l0.127,-0.125l0.128,-0.123l0.129,-0.122l0.131,-0.12l0.133,-0.119l0.134,-0.117l0.136,-0.115l0.137,-0.114l0.138,-0.112l0.14,-0.111l0.141,-0.109l0.142,-0.107l0.144,-0.106l0.146,-0.104l0.146,-0.103l0.148,-0.1l0.149,-0.099l0.151,-0.098l0.152,-0.095l0.153,-0.094l0.154,-0.092l0.155,-0.091l0.157,-0.088l0.158,-0.087l0.158,-0.085l0.161,-0.083l0.161,-0.082l0.162,-0.079l0.163,-0.078l0.165,-0.076l0.165,-0.074l0.167,-0.072l0.167,-0.07l0.169,-0.069l0.169,-0.066l0.171,-0.065l0.171,-0.063l0.172,-0.06l0.174,-0.059l0.174,-0.057l0.175,-0.055l0.176,-0.053l0.176,-0.05l0.178,-0.049l0.178,-0.047l0.179,-0.045l0.18,-0.042l0.181,-0.041l0.181,-0.039l0.182,-0.036l0.183,-0.035l0.184,-0.032l0.184,-0.03l0.185,-0.028l0.185,-0.026l0.186,-0.024l0.187,-0.022l0.187,-0.019l0.188,-0.017l0.189,-0.016l0.189,-0.012l0.189,-0.011l0.19,-0.009l0.19,-0.006l0.191,-0.004l0.192,-0.001l0.191,0Zm-0.361,1.501l-0.173,0.004l-0.172,0.005l-0.173,0.008l-0.172,0.01l-0.171,0.011l-0.17,0.014l-0.17,0.016l-0.17,0.017l-0.169,0.02l-0.168,0.021l-0.169,0.024l-0.167,0.025l-0.167,0.028l-0.166,0.029l-0.165,0.031l-0.165,0.033l-0.165,0.035l-0.162,0.037l-0.163,0.039l-0.163,0.04l-0.161,0.042l-0.16,0.045l-0.16,0.046l-0.16,0.047l-0.158,0.05l-0.157,0.051l-0.156,0.053l-0.156,0.055l-0.155,0.057l-0.155,0.058l-0.152,0.06l-0.152,0.062l-0.152,0.064l-0.15,0.065l-0.15,0.067l-0.147,0.068l-0.148,0.07l-0.147,0.072l-0.146,0.074l-0.143,0.074l-0.144,0.077l-0.142,0.079l-0.141,0.08l-0.14,0.081l-0.14,0.083l-0.137,0.085l-0.137,0.086l-0.136,0.087l-0.134,0.089l-0.134,0.092l-0.131,0.091l-0.13,0.094l-0.13,0.095l-0.128,0.097l-0.127,0.098l-0.126,0.1l-0.124,0.1l-0.123,0.102l-0.122,0.104l-0.12,0.105l-0.119,0.107l-0.119,0.108l-0.116,0.109l-0.114,0.11l-0.114,0.112l-0.112,0.114l-0.11,0.114l-0.109,0.116l-0.108,0.118l-0.106,0.118l-0.105,0.119l-0.102,0.121l-0.102,0.122l-0.1,0.123l-0.099,0.126l-0.096,0.125l-0.095,0.126l-0.094,0.13l-0.092,0.129l-0.09,0.13l-0.089,0.132l-0.087,0.133l-0.086,0.135l-0.083,0.135l-0.082,0.135l-0.08,0.137l-0.078,0.139l-0.077,0.14l-0.076,0.141l-0.072,0.141l-0.071,0.142l-0.07,0.145l-0.069,0.146l-0.066,0.146l-0.063,0.145l-0.062,0.148l-0.061,0.151l-0.058,0.148l-0.057,0.152l-0.055,0.152l-0.052,0.153l-0.051,0.154l-0.049,0.155l-0.041,0.137l27.141,4.501l0.006,-0.144l0.003,-0.162l0.002,-0.162l-0.001,-0.161l-0.002,-0.162l-0.005,-0.163l-0.007,-0.16l-0.009,-0.161l-0.011,-0.161l-0.013,-0.157l-0.016,-0.16l-0.017,-0.16l-0.019,-0.159l-0.022,-0.157l-0.023,-0.158l-0.026,-0.158l-0.028,-0.157l-0.029,-0.156l-0.031,-0.156l-0.034,-0.154l-0.036,-0.156l-0.037,-0.155l-0.04,-0.153l-0.041,-0.154l-0.043,-0.152l-0.046,-0.152l-0.047,-0.152l-0.049,-0.151l-0.051,-0.151l-0.053,-0.148l-0.055,-0.15l-0.056,-0.149l-0.059,-0.147l-0.061,-0.148l-0.061,-0.146l-0.064,-0.145l-0.067,-0.145l-0.067,-0.145l-0.069,-0.142l-0.071,-0.142l-0.074,-0.143l-0.075,-0.141l-0.076,-0.139l-0.078,-0.14l-0.08,-0.138l-0.082,-0.137l-0.083,-0.137l-0.086,-0.136l-0.086,-0.135l-0.089,-0.133l-0.09,-0.134l-0.092,-0.131l-0.093,-0.13l-0.096,-0.13l-0.096,-0.129l-0.099,-0.129l-0.1,-0.126l-0.101,-0.125l-0.103,-0.125l-0.105,-0.123l-0.106,-0.123l-0.109,-0.121l-0.109,-0.12l-0.111,-0.119l-0.112,-0.117l-0.113,-0.116l-0.116,-0.116l-0.118,-0.114l-0.117,-0.113l-0.121,-0.111l-0.121,-0.111l-0.122,-0.108l-0.124,-0.108l-0.127,-0.107l-0.126,-0.105l-0.128,-0.103l-0.13,-0.102l-0.131,-0.101l-0.133,-0.099l-0.134,-0.099l-0.135,-0.096l-0.136,-0.095l-0.137,-0.093l-0.14,-0.093l-0.14,-0.09l-0.142,-0.09l-0.142,-0.087l-0.144,-0.086l-0.146,-0.085l-0.146,-0.082l-0.148,-0.082l-0.149,-0.079l-0.15,-0.078l-0.152,-0.077l-0.152,-0.075l-0.154,-0.073l-0.155,-0.071l-0.156,-0.07l-0.157,-0.068l-0.158,-0.066l-0.159,-0.065l-0.161,-0.063l-0.162,-0.061l-0.163,-0.059l-0.163,-0.058l-0.165,-0.055l-0.166,-0.054l-0.167,-0.052l-0.168,-0.05l-0.168,-0.048l-0.17,-0.046l-0.171,-0.045l-0.172,-0.042l-0.173,-0.041l-0.174,-0.038l-0.175,-0.037l-0.176,-0.034l-0.177,-0.033l-0.177,-0.031l-0.178,-0.028l-0.178,-0.026l-0.177,-0.024l-0.178,-0.022l-0.177,-0.02l-0.177,-0.017l-0.176,-0.015l-0.176,-0.014l-0.176,-0.011l-0.175,-0.009l-0.175,-0.006l-0.175,-0.005l-0.174,-0.003l-0.174,0l-0.174,0.001Z" style="fill:#474747;"/><path d="M227.913,18.593l-0.113,0.028l-0.109,0.028l-0.108,0.029l-0.107,0.031l-0.107,0.032l-0.106,0.032l-0.105,0.034l-0.106,0.036l-0.104,0.036l-0.103,0.038l-0.103,0.039l-0.102,0.04l-0.102,0.041l-0.1,0.042l-0.1,0.044l-0.103,0.046l-0.615,-1.368l0.109,-0.05l0.005,-0.002l0.113,-0.048l0.004,-0.002l0.113,-0.048l0.004,-0.002l0.114,-0.046l0.005,-0.002l0.114,-0.044l0.004,-0.002l0.116,-0.044l0.004,-0.001l0.117,-0.043l0.005,-0.001l0.117,-0.041l0.004,-0.002l0.117,-0.039l0.004,-0.002l0.118,-0.038l0.005,-0.001l0.119,-0.037l0.005,-0.002l0.119,-0.035l0.004,-0.001l0.121,-0.035l0.005,-0.001l0.121,-0.033l0.004,-0.001l0.122,-0.031l0.004,-0.001l0.12,-0.03l0.357,1.457Z" style="fill:#474747;"/><path d="M225.341,19.642l-0.072,0.044l-0.067,0.042l-0.066,0.043l-0.067,0.044l-0.067,0.044l-0.065,0.044l-0.065,0.046l-0.064,0.045l-0.064,0.046l-0.064,0.048l-0.063,0.047l-0.062,0.048l-0.062,0.048l-0.061,0.049l-0.06,0.05l-0.06,0.05l-0.059,0.051l-0.059,0.051l-0.058,0.051l-0.058,0.053l-0.057,0.052l-0.057,0.054l-0.056,0.054l-0.055,0.054l-0.055,0.054l-0.053,0.055l-0.054,0.056l-0.052,0.056l-0.053,0.056l-0.051,0.058l-0.052,0.058l-0.05,0.057l-0.049,0.058l-0.049,0.06l-0.049,0.06l-0.047,0.059l-0.047,0.061l-0.046,0.06l-0.045,0.061l-0.046,0.062l-0.044,0.062l-0.044,0.063l-0.042,0.063l-0.042,0.063l-0.042,0.065l-0.04,0.063l-0.04,0.064l-0.04,0.066l-0.038,0.066l-0.038,0.065l-0.038,0.068l-0.036,0.067l-0.035,0.065l-0.035,0.068l-0.034,0.068l-0.034,0.068l-0.033,0.071l-0.032,0.069l-0.031,0.068l-0.03,0.069l-0.029,0.071l-0.03,0.072l-0.028,0.07l-0.028,0.074l-1.402,-0.532l0.031,-0.082l0.002,-0.005l0.033,-0.083l0.002,-0.004l0.033,-0.082l0.001,-0.002l0.034,-0.082l0.002,-0.005l0.036,-0.082l0.002,-0.004l0.036,-0.082l0.003,-0.005l0.037,-0.081l0.001,-0.002l0.038,-0.079l0.002,-0.004l0.039,-0.08l0.001,-0.003l0.04,-0.079l0.002,-0.004l0.041,-0.079l0.002,-0.004l0.041,-0.078l0.003,-0.005l0.043,-0.078l0.001,-0.002l0.043,-0.077l0.002,-0.004l0.044,-0.076l0.002,-0.004l0.045,-0.076l0.002,-0.004l0.045,-0.075l0.002,-0.002l0.046,-0.075l0.003,-0.005l0.048,-0.076l0.002,-0.003l0.048,-0.074l0.002,-0.002l0.048,-0.074l0.004,-0.005l0.05,-0.073l0.001,-0.002l0.05,-0.072l0.003,-0.004l0.051,-0.072l0.002,-0.003l0.052,-0.071l0.002,-0.003l0.053,-0.07l0.003,-0.005l0.054,-0.07l0.001,-0.003l0.054,-0.069l0.003,-0.004l0.055,-0.069l0.003,-0.003l0.056,-0.069l0.001,-0.002l0.056,-0.068l0.003,-0.003l0.057,-0.068l0.003,-0.003l0.058,-0.067l0.003,-0.003l0.059,-0.066l0.002,-0.003l0.059,-0.065l0.003,-0.003l0.06,-0.065l0.002,-0.002l0.06,-0.065l0.004,-0.004l0.062,-0.064l0.001,-0.001l0.061,-0.064l0.005,-0.004l0.063,-0.063l0.002,-0.002l0.063,-0.062l0.003,-0.003l0.064,-0.061l0.003,-0.002l0.064,-0.061l0.003,-0.003l0.066,-0.061l0.002,-0.002l0.066,-0.059l0.003,-0.003l0.067,-0.059l0.002,-0.002l0.067,-0.059l0.004,-0.003l0.067,-0.057l0.003,-0.002l0.068,-0.058l0.003,-0.002l0.07,-0.057l0.002,-0.002l0.07,-0.056l0.003,-0.003l0.071,-0.055l0.002,-0.002l0.071,-0.055l0.003,-0.002l0.072,-0.054l0.003,-0.002l0.072,-0.053l0.002,-0.002l0.073,-0.053l0.003,-0.002l0.074,-0.053l0.002,-0.001l0.074,-0.052l0.004,-0.002l0.074,-0.051l0.003,-0.002l0.075,-0.05l0.003,-0.002l0.075,-0.049l0.003,-0.002l0.076,-0.049l0.003,-0.002l0.077,-0.048l0.003,-0.002l0.076,-0.046l0.785,1.278Z" style="fill:#474747;"/><path d="M235.311,9.133l-0.663,4.001l-1.48,-0.245l0.664,-4.001l1.479,0.245Z" style="fill:#474747;"/><path d="M235.231,2.362l0.019,0l0.061,0.002l0.016,0.001l0.061,0.003l0.019,0.001l0.062,0.005l0.019,0.002l0.062,0.007l0.019,0.002l0.061,0.008l0.016,0.002l0.061,0.009l0.018,0.003l0.063,0.011l0.02,0.004l0.061,0.013l0.015,0.003l0.061,0.014l0.019,0.005l0.059,0.015l0.016,0.004l0.059,0.016l0.019,0.006l0.06,0.018l0.016,0.006l0.059,0.019l0.018,0.007l0.057,0.02l0.015,0.006l0.056,0.022l0.017,0.007l0.056,0.023l0.016,0.007l0.056,0.024l0.017,0.008l0.055,0.027l0.017,0.008l0.054,0.027l0.016,0.009l0.052,0.027l0.014,0.008l0.05,0.029l0.013,0.007l0.053,0.031l0.019,0.012l0.052,0.033l0.014,0.009l0.048,0.032l0.012,0.009l0.048,0.033l0.015,0.011l0.048,0.035l0.014,0.01l0.047,0.037l0.015,0.011l0.046,0.038l0.013,0.011l0.046,0.039l0.016,0.014l0.043,0.039l0.011,0.01l0.041,0.038l0.012,0.012l0.041,0.04l0.012,0.012l0.042,0.043l0.015,0.016l0.041,0.044l0.01,0.012l0.037,0.041l0.008,0.01l0.039,0.046l0.016,0.019l0.037,0.047l0.007,0.009l0.035,0.045l0.013,0.017l0.034,0.048l0.01,0.014l0.032,0.046l0.008,0.012l0.033,0.049l0.011,0.018l0.033,0.052l0.011,0.019l0.028,0.048l0.004,0.008l0.029,0.051l0.013,0.024l0.028,0.054l0.007,0.013l0.024,0.05l0.007,0.013l0.024,0.052l0.009,0.019l0.024,0.055l0.008,0.019l0.022,0.054l0.005,0.014l0.021,0.054l0.006,0.018l0.021,0.057l0.006,0.02l0.019,0.057l0.006,0.02l0.016,0.055l0.003,0.013l0.016,0.055l0.004,0.019l0.015,0.059l0.004,0.019l0.013,0.059l0.004,0.019l0.011,0.059l0.003,0.019l0.01,0.059l0.003,0.02l0.008,0.059l0.002,0.019l0.007,0.06l0.002,0.019l0.005,0.06l0.001,0.019l0.003,0.06l0.001,0.019l0.002,0.06l0.001,0.018l0,0.063l0,0.025l-0.002,0.06l0,0.012l-0.002,0.06l-0.002,0.025l-0.004,0.063l-0.002,0.018l-0.006,0.062l-0.003,0.024l-0.008,0.06l-0.001,0.012l-0.009,0.06l-0.004,0.024l-0.011,0.063l-0.004,0.019l-0.013,0.061l-0.004,0.019l-0.014,0.06l-0.005,0.019l-0.015,0.059l-0.006,0.02l-0.017,0.06l-0.006,0.019l-0.019,0.059l-0.006,0.019l-0.02,0.056l-0.005,0.013l-0.021,0.058l-0.01,0.026l-0.024,0.057l-0.006,0.014l-0.023,0.052l-0.006,0.014l-0.026,0.056l-0.011,0.024l-0.028,0.053l-0.005,0.01l-0.027,0.053l-0.013,0.023l-0.031,0.054l-0.009,0.015l-0.029,0.048l-0.008,0.014l-0.032,0.05l-0.013,0.02l-0.033,0.049l-0.009,0.013l-0.033,0.047l-0.011,0.014l-0.036,0.049l-0.013,0.017l-0.037,0.047l-0.011,0.014l-0.037,0.045l-0.011,0.013l-0.038,0.043l-0.012,0.014l-0.039,0.043l-0.013,0.013l-0.04,0.042l-0.012,0.013l-0.044,0.043l-0.017,0.017l-0.042,0.039l-0.01,0.009l-0.041,0.038l-0.015,0.012l-0.044,0.039l-0.014,0.011l-0.045,0.037l-0.015,0.012l-0.047,0.037l-0.016,0.011l-0.046,0.035l-0.012,0.008l-0.047,0.033l-0.014,0.01l-0.048,0.032l-0.014,0.01l-0.051,0.032l-0.018,0.011l-0.05,0.03l-0.011,0.006l-0.05,0.029l-0.02,0.011l-0.052,0.028l-0.013,0.007l-0.05,0.026l-0.017,0.008l-0.053,0.026l-0.018,0.008l-0.054,0.024l-0.016,0.007l-0.054,0.023l-0.017,0.007l-0.053,0.021l-0.015,0.006l-0.054,0.02l-0.017,0.006l-0.056,0.019l-0.018,0.006l-0.057,0.018l-0.018,0.005l-0.056,0.016l-0.016,0.005l-0.057,0.015l-0.019,0.005l-0.058,0.013l-0.016,0.004l-0.058,0.012l-0.017,0.004l-0.059,0.011l-0.019,0.003l-0.059,0.01l-0.016,0.003l-0.059,0.008l-0.019,0.002l-0.06,0.007l-0.017,0.002l-0.06,0.005l-0.018,0.002l-0.06,0.004l-0.019,0.001l-0.061,0.002l-0.018,0.001l-0.061,0.001l-0.018,0l-0.06,0l-0.018,-0.001l-0.062,-0.001l-0.019,-0.001l-0.062,-0.004l-0.017,-0.001l-0.062,-0.005l-0.018,-0.001l-0.062,-0.007l-0.017,-0.002l-0.062,-0.008l-0.017,-0.002l-0.063,-0.01l-0.019,-0.003l-0.061,-0.011l-0.017,-0.003l-0.062,-0.012l-0.02,-0.005l-0.061,-0.014l-0.015,-0.004l-0.059,-0.015l-0.018,-0.004l-0.06,-0.017l-0.018,-0.006l-0.058,-0.018l-0.017,-0.005l-0.058,-0.019l-0.017,-0.006l-0.057,-0.021l-0.016,-0.006l-0.057,-0.022l-0.019,-0.008l-0.056,-0.023l-0.015,-0.006l-0.054,-0.024l-0.016,-0.008l-0.055,-0.026l-0.018,-0.009l-0.054,-0.027l-0.015,-0.008l-0.051,-0.027l-0.015,-0.008l-0.052,-0.03l-0.018,-0.01l-0.052,-0.032l-0.015,-0.009l-0.048,-0.03l-0.013,-0.008l-0.051,-0.034l-0.019,-0.013l-0.048,-0.034l-0.01,-0.007l-0.047,-0.034l-0.016,-0.012l-0.046,-0.037l-0.013,-0.01l-0.046,-0.037l-0.014,-0.012l-0.045,-0.038l-0.014,-0.012l-0.043,-0.038l-0.012,-0.012l-0.044,-0.041l-0.016,-0.015l-0.042,-0.041l-0.009,-0.01l-0.039,-0.039l-0.011,-0.012l-0.04,-0.043l-0.015,-0.017l-0.04,-0.045l-0.01,-0.012l-0.037,-0.044l-0.011,-0.013l-0.038,-0.047l-0.013,-0.017l-0.034,-0.044l-0.006,-0.009l-0.035,-0.048l-0.015,-0.021l-0.033,-0.049l-0.007,-0.009l-0.031,-0.047l-0.011,-0.018l-0.031,-0.049l-0.008,-0.014l-0.03,-0.05l-0.01,-0.018l-0.028,-0.051l-0.008,-0.014l-0.027,-0.051l-0.009,-0.018l-0.027,-0.054l-0.009,-0.02l-0.025,-0.053l-0.006,-0.013l-0.022,-0.051l-0.005,-0.013l-0.024,-0.056l-0.009,-0.024l-0.021,-0.057l-0.005,-0.013l-0.019,-0.055l-0.007,-0.019l-0.017,-0.055l-0.005,-0.013l-0.017,-0.058l-0.007,-0.025l-0.015,-0.058l-0.004,-0.013l-0.013,-0.056l-0.005,-0.019l-0.012,-0.059l-0.004,-0.019l-0.011,-0.059l-0.004,-0.02l-0.01,-0.059l-0.002,-0.019l-0.008,-0.059l-0.003,-0.02l-0.006,-0.059l-0.002,-0.019l-0.005,-0.06l-0.002,-0.019l-0.003,-0.06l-0.001,-0.019l-0.002,-0.06l0,-0.018l-0.001,-0.06l0,-0.019l0.001,-0.063l0.001,-0.025l0.003,-0.063l0.001,-0.018l0.005,-0.06l0.001,-0.018l0.006,-0.06l0.002,-0.018l0.008,-0.062l0.003,-0.024l0.01,-0.063l0.003,-0.018l0.011,-0.06l0.003,-0.019l0.013,-0.061l0.004,-0.019l0.014,-0.06l0.005,-0.019l0.016,-0.06l0.005,-0.019l0.017,-0.059l0.006,-0.02l0.018,-0.056l0.005,-0.014l0.02,-0.059l0.009,-0.025l0.022,-0.057l0.005,-0.014l0.022,-0.055l0.009,-0.02l0.025,-0.057l0.008,-0.019l0.026,-0.053l0.007,-0.015l0.026,-0.053l0.01,-0.019l0.028,-0.052l0.008,-0.015l0.029,-0.051l0.011,-0.019l0.032,-0.053l0.012,-0.02l0.031,-0.048l0.006,-0.009l0.031,-0.047l0.013,-0.019l0.036,-0.051l0.013,-0.017l0.034,-0.046l0.009,-0.011l0.035,-0.045l0.013,-0.017l0.039,-0.046l0.012,-0.015l0.04,-0.045l0.014,-0.017l0.039,-0.042l0.01,-0.01l0.038,-0.04l0.013,-0.013l0.041,-0.041l0.013,-0.013l0.044,-0.042l0.018,-0.016l0.043,-0.039l0.01,-0.008l0.043,-0.037l0.015,-0.013l0.046,-0.038l0.014,-0.011l0.045,-0.035l0.012,-0.009l0.046,-0.034l0.014,-0.01l0.049,-0.035l0.016,-0.011l0.05,-0.033l0.014,-0.01l0.05,-0.031l0.015,-0.01l0.05,-0.03l0.015,-0.008l0.05,-0.029l0.015,-0.008l0.051,-0.028l0.016,-0.008l0.053,-0.027l0.017,-0.008l0.052,-0.025l0.014,-0.007l0.053,-0.024l0.017,-0.008l0.055,-0.023l0.016,-0.006l0.055,-0.022l0.019,-0.007l0.055,-0.02l0.012,-0.005l0.055,-0.019l0.021,-0.007l0.057,-0.017l0.014,-0.005l0.055,-0.016l0.018,-0.005l0.059,-0.015l0.018,-0.005l0.058,-0.014l0.017,-0.003l0.057,-0.013l0.017,-0.003l0.059,-0.011l0.018,-0.003l0.059,-0.01l0.018,-0.003l0.06,-0.008l0.018,-0.003l0.059,-0.006l0.017,-0.002l0.061,-0.006l0.02,-0.001l0.06,-0.004l0.017,-0.001l0.059,-0.003l0.017,0l0.061,-0.001l0.019,0l0.063,0Zm-0.105,1.5l-0.042,0.002l-0.042,0.003l-0.042,0.004l-0.042,0.005l-0.042,0.005l-0.041,0.007l-0.041,0.008l-0.04,0.009l-0.041,0.009l-0.04,0.011l-0.039,0.011l-0.04,0.013l-0.038,0.013l-0.039,0.014l-0.038,0.015l-0.037,0.016l-0.037,0.017l-0.037,0.017l-0.036,0.019l-0.036,0.019l-0.035,0.02l-0.035,0.021l-0.034,0.022l-0.033,0.022l-0.033,0.023l-0.033,0.024l-0.032,0.025l-0.031,0.026l-0.03,0.026l-0.03,0.027l-0.029,0.027l-0.029,0.029l-0.028,0.029l-0.027,0.029l-0.026,0.031l-0.026,0.031l-0.025,0.031l-0.024,0.033l-0.023,0.033l-0.022,0.033l-0.022,0.034l-0.021,0.035l-0.02,0.035l-0.019,0.036l-0.018,0.036l-0.018,0.037l-0.016,0.038l-0.016,0.038l-0.014,0.038l-0.014,0.039l-0.012,0.04l-0.012,0.04l-0.011,0.04l-0.009,0.041l-0.009,0.042l-0.007,0.042l-0.007,0.042l-0.005,0.042l-0.004,0.042l-0.003,0.041l-0.002,0.042l-0.001,0.041l0,0.042l0.002,0.041l0.002,0.041l0.004,0.041l0.004,0.04l0.006,0.041l0.006,0.04l0.008,0.04l0.008,0.039l0.01,0.039l0.01,0.039l0.012,0.039l0.012,0.038l0.013,0.038l0.015,0.038l0.015,0.037l0.016,0.037l0.017,0.036l0.018,0.036l0.018,0.036l0.02,0.035l0.02,0.035l0.022,0.034l0.022,0.034l0.023,0.033l0.023,0.032l0.025,0.032l0.025,0.032l0.026,0.031l0.027,0.03l0.028,0.03l0.028,0.029l0.029,0.029l0.03,0.027l0.03,0.028l0.031,0.026l0.032,0.026l0.032,0.025l0.033,0.024l0.034,0.024l0.035,0.023l0.035,0.022l0.035,0.021l0.037,0.021l0.036,0.02l0.038,0.019l0.038,0.018l0.038,0.017l0.039,0.016l0.04,0.015l0.04,0.015l0.041,0.014l0.041,0.012l0.042,0.012l0.042,0.011l0.042,0.009l0.043,0.009l0.044,0.008l0.044,0.007l0.043,0.005l0.044,0.005l0.043,0.003l0.043,0.003l0.043,0.001l0.043,0l0.043,-0.001l0.042,-0.001l0.043,-0.003l0.042,-0.004l0.041,-0.005l0.042,-0.006l0.041,-0.006l0.041,-0.008l0.041,-0.009l0.04,-0.009l0.04,-0.011l0.04,-0.012l0.039,-0.012l0.039,-0.013l0.038,-0.014l0.038,-0.015l0.038,-0.016l0.037,-0.017l0.036,-0.018l0.037,-0.018l0.035,-0.019l0.035,-0.02l0.035,-0.021l0.034,-0.022l0.034,-0.022l0.033,-0.024l0.032,-0.024l0.032,-0.024l0.031,-0.026l0.03,-0.026l0.03,-0.027l0.029,-0.028l0.029,-0.028l0.028,-0.029l0.027,-0.03l0.026,-0.03l0.026,-0.031l0.025,-0.032l0.024,-0.032l0.023,-0.033l0.023,-0.033l0.021,-0.034l0.021,-0.035l0.02,-0.035l0.019,-0.036l0.019,-0.037l0.017,-0.037l0.016,-0.037l0.016,-0.038l0.014,-0.039l0.014,-0.039l0.013,-0.039l0.011,-0.04l0.011,-0.041l0.009,-0.041l0.009,-0.041l0.007,-0.042l0.007,-0.042l0.005,-0.042l0.004,-0.042l0.003,-0.041l0.002,-0.042l0.001,-0.042l0,-0.041l-0.002,-0.041l-0.002,-0.041l-0.003,-0.041l-0.005,-0.04l-0.005,-0.041l-0.007,-0.04l-0.007,-0.04l-0.009,-0.039l-0.01,-0.04l-0.01,-0.039l-0.011,-0.038l-0.013,-0.039l-0.013,-0.038l-0.014,-0.037l-0.016,-0.037l-0.016,-0.037l-0.017,-0.037l-0.017,-0.036l-0.019,-0.035l-0.02,-0.035l-0.02,-0.035l-0.021,-0.034l-0.022,-0.034l-0.023,-0.033l-0.024,-0.033l-0.025,-0.032l-0.025,-0.031l-0.026,-0.031l-0.027,-0.03l-0.027,-0.03l-0.029,-0.029l-0.029,-0.029l-0.029,-0.028l-0.031,-0.027l-0.031,-0.026l-0.032,-0.026l-0.032,-0.025l-0.033,-0.025l-0.034,-0.023l-0.034,-0.023l-0.035,-0.022l-0.036,-0.022l-0.036,-0.02l-0.037,-0.02l-0.038,-0.019l-0.038,-0.018l-0.038,-0.017l-0.039,-0.016l-0.04,-0.016l-0.04,-0.014l-0.041,-0.014l-0.041,-0.012l-0.041,-0.012l-0.043,-0.011l-0.042,-0.01l-0.043,-0.008l-0.044,-0.008l-0.043,-0.007l-0.044,-0.005l-0.043,-0.005l-0.044,-0.003l-0.043,-0.003l-0.043,-0.001l-0.043,0l-0.043,0Z" style="fill:#474747;"/><path d="M213.973,40.857l3.138,3.954l19.86,3.293l4.836,-2.631" style="fill:none;stroke:#474747;stroke-width:1.5px;"/><path d="M213.973,40.857l3.138,3.954l19.86,3.293l4.836,-2.631" style="fill:none;stroke:#474747;stroke-width:1.5px;"/></g></g></g><path d="M222.91,43.938l-214.993,331.788l284.166,0l-60.916,-329l-8.257,-2.788Z" style="fill:url(#_Linear1);"/></g><g></g><defs><linearGradient id="_Linear1" x1="0" y1="0" x2="1" y2="0" gradientUnits="userSpaceOnUse" gradientTransform="matrix(6.73593,-26.6664,26.6664,6.73593,218.914,71.2967)"><stop offset="0" style="stop-color:#fff;stop-opacity:0.375074"/><stop offset="1" style="stop-color:#fff;stop-opacity:0"/></linearGradient></defs></svg>