<?xml version="1.0" encoding="UTF-8" standalone="no"?><!DOCTYPE svg PUBLIC "-//W3C//DTD SVG 1.1//EN" "http://www.w3.org/Graphics/SVG/1.1/DTD/svg11.dtd"><svg width="100%" height="100%" viewBox="0 0 24 24" version="1.1" xmlns="http://www.w3.org/2000/svg" xmlns:xlink="http://www.w3.org/1999/xlink" xml:space="preserve" style="fill-rule:evenodd;clip-rule:evenodd;stroke-linejoin:round;stroke-miterlimit:1.41421;"><path d="M0,0l24,0l0,24l-24,0l0,-24Z" style="fill:none;"/><path d="M2.835,17.959l0,-13.988l2.824,0l0,5.505l5.534,0l0,-5.505l2.825,0l0,13.988l-2.825,0l0,-6.116l-5.534,0l0,6.116l-2.824,0Z" style="fill:#fff;fill-rule:nonzero;"/><path d="M21.829,16.122l-3.154,0l0.96,-0.918c0.59,-0.562 1.07,-1.029 1.467,-1.577c0.439,-0.617 0.686,-1.206 0.686,-2.015c0,-0.946 -0.357,-1.7 -0.85,-2.194c-0.329,-0.315 -1.042,-0.864 -2.372,-0.864c-1.303,0 -2.084,0.48 -2.523,0.946c-0.562,0.59 -0.877,1.495 -0.946,2.29l2.111,0c0,-0.357 0.138,-0.85 0.384,-1.124c0.179,-0.192 0.439,-0.329 0.837,-0.329c0.356,0 0.658,0.096 0.836,0.26c0.219,0.206 0.356,0.562 0.356,0.905c0,0.631 -0.342,1.22 -0.548,1.549c-0.288,0.439 -1.015,1.33 -1.494,1.865l-2.742,2.989l6.992,0l0,-1.783Z" style="fill:#fff;fill-rule:nonzero;"/></svg>