<?xml version="1.0" encoding="UTF-8" standalone="no"?><!DOCTYPE svg PUBLIC "-//W3C//DTD SVG 1.1//EN" "http://www.w3.org/Graphics/SVG/1.1/DTD/svg11.dtd"><svg width="100%" height="100%" viewBox="0 0 24 24" version="1.1" xmlns="http://www.w3.org/2000/svg" xmlns:xlink="http://www.w3.org/1999/xlink" xml:space="preserve" style="fill-rule:evenodd;clip-rule:evenodd;stroke-linejoin:round;stroke-miterlimit:1.41421;"><path d="M0,0l24,0l0,24l-24,0l0,-24Z" style="fill:none;"/><path d="M2.835,17.959l0,-13.988l2.824,0l0,5.505l5.534,0l0,-5.505l2.825,0l0,13.988l-2.825,0l0,-6.116l-5.534,0l0,6.116l-2.824,0Z" style="fill:#fff;fill-rule:nonzero;"/><path d="M17.154,11.502c0.013,-0.288 0.137,-0.644 0.329,-0.85c0.178,-0.178 0.466,-0.302 0.822,-0.302c0.343,0 0.617,0.124 0.782,0.275c0.178,0.164 0.301,0.425 0.301,0.74c0,0.37 -0.15,0.658 -0.342,0.822c-0.302,0.247 -0.796,0.261 -0.919,0.261l-0.123,0l0,1.453l0.164,0c0.315,0 0.795,0.028 1.124,0.288c0.22,0.178 0.398,0.494 0.398,0.878c0,0.37 -0.151,0.726 -0.37,0.932c-0.22,0.206 -0.562,0.315 -0.919,0.315c-0.439,0 -0.795,-0.15 -1.014,-0.37c-0.247,-0.247 -0.412,-0.672 -0.439,-1.028l-2.111,0c0.095,0.918 0.493,1.727 1.014,2.262c0.809,0.809 1.782,0.946 2.674,0.946c0.74,0 1.631,-0.082 2.413,-0.795c0.644,-0.59 0.918,-1.385 0.918,-2.084c0,-0.494 -0.151,-1.07 -0.425,-1.44c-0.247,-0.342 -0.658,-0.603 -1.042,-0.74c0.261,-0.123 0.494,-0.302 0.686,-0.576c0.288,-0.397 0.37,-0.795 0.37,-1.248c0,-0.891 -0.315,-1.494 -0.699,-1.864c-0.466,-0.466 -1.275,-0.809 -2.4,-0.809c-0.754,0 -1.645,0.164 -2.317,0.864c-0.48,0.493 -0.822,1.302 -0.905,2.07l2.03,0Z" style="fill:#fff;fill-rule:nonzero;"/></svg>