<?xml version="1.0" encoding="UTF-8" standalone="no"?><!DOCTYPE svg PUBLIC "-//W3C//DTD SVG 1.1//EN" "http://www.w3.org/Graphics/SVG/1.1/DTD/svg11.dtd"><svg width="100%" height="100%" viewBox="0 0 40 40" version="1.1" xmlns="http://www.w3.org/2000/svg" xmlns:xlink="http://www.w3.org/1999/xlink" xml:space="preserve" style="fill-rule:evenodd;clip-rule:evenodd;stroke-linejoin:round;stroke-miterlimit:1.41421;"><path id="search" d="M23.638,24.645c-1.262,0.904 -2.806,1.436 -4.473,1.436c-4.263,0 -7.718,-3.474 -7.718,-7.759c0,-4.285 3.455,-7.758 7.718,-7.758c4.262,0 7.717,3.473 7.717,7.758c0,2.143 -0.864,4.082 -2.261,5.486l5.445,5.474c0.25,0.251 0.244,0.654 -0.007,0.906c-0.252,0.254 -0.654,0.255 -0.9,0.007l-5.521,-5.55Zm-4.473,0.523c3.76,0 6.809,-3.065 6.809,-6.846c0,-3.781 -3.049,-6.845 -6.809,-6.845c-3.761,0 -6.81,3.064 -6.81,6.845c0,3.781 3.049,6.846 6.81,6.846Z" style="fill:#1f3236;"/></svg>