<?xml version="1.0" encoding="UTF-8" standalone="no"?><!DOCTYPE svg PUBLIC "-//W3C//DTD SVG 1.1//EN" "http://www.w3.org/Graphics/SVG/1.1/DTD/svg11.dtd"><svg width="100%" height="100%" viewBox="0 0 18 18" version="1.1" xmlns="http://www.w3.org/2000/svg" xmlns:xlink="http://www.w3.org/1999/xlink" xml:space="preserve" style="fill-rule:evenodd;clip-rule:evenodd;stroke-linejoin:round;stroke-miterlimit:1.41421;"><path d="M4.016,1l9.984,0l0.051,0.001l0.05,0.004l0.049,0.006l0.048,0.009l0.048,0.011l0.047,0.013l0.046,0.015l0.045,0.017l0.043,0.02l0.043,0.021l0.041,0.023l0.041,0.026l0.039,0.027l0.037,0.029l0.036,0.03l0.035,0.033l0.033,0.033l0.031,0.036l0.03,0.037l0.028,0.038l0.026,0.039l0.025,0.041l0.022,0.042l0.021,0.044l0.018,0.044l0.016,0.046l0.015,0.046l0.011,0.048l0.01,0.048l0.007,0.049l0.005,0.05l0.003,0.051l0,0.012l0,13.549l0,0.036l-0.002,0.036l-0.002,0.037l-0.003,0.035l-0.004,0.036l-0.005,0.036l-0.006,0.035l-0.006,0.036l-0.008,0.035l-0.008,0.034l-0.009,0.035l-0.01,0.034l-0.011,0.034l-0.012,0.034l-0.012,0.033l-0.013,0.033l-0.014,0.033l-0.015,0.033l-0.016,0.032l-0.016,0.031l-0.017,0.032l-0.018,0.031l-0.019,0.03l-0.02,0.03l-0.02,0.03l-0.021,0.029l-0.022,0.028l-0.022,0.029l-0.023,0.027l-0.024,0.027l-0.025,0.027l-0.025,0.026l-0.026,0.025l-0.027,0.025l-0.027,0.024l-0.027,0.023l-0.029,0.022l-0.028,0.022l-0.029,0.021l-0.03,0.02l-0.03,0.02l-0.03,0.019l-0.031,0.018l-0.032,0.017l-0.031,0.016l-0.032,0.016l-0.033,0.015l-0.033,0.014l-0.033,0.013l-0.033,0.012l-0.034,0.012l-0.034,0.011l-0.034,0.01l-0.035,0.009l-0.034,0.008l-0.035,0.008l-0.036,0.006l-0.035,0.006l-0.036,0.005l-0.036,0.004l-0.035,0.003l-0.037,0.002l-0.036,0.002l-0.036,0l-9.141,0l-0.035,0l-0.034,-0.002l-0.035,-0.002l-0.034,-0.003l-0.034,-0.004l-0.034,-0.004l-0.034,-0.006l-0.034,-0.006l-0.033,-0.007l-0.033,-0.008l-0.033,-0.009l-0.033,-0.009l-0.033,-0.011l-0.032,-0.011l-0.032,-0.012l-0.032,-0.012l-0.031,-0.014l-0.031,-0.014l-0.03,-0.015l-0.031,-0.016l-0.03,-0.016l-0.029,-0.017l-0.029,-0.018l-0.029,-0.019l-0.028,-0.019l-0.028,-0.02l-0.027,-0.021l-0.027,-0.021l-0.027,-0.023l-0.026,-0.022l-0.025,-0.024l-0.025,-0.024l-0.024,-0.025l-0.024,-0.025l-0.022,-0.026l-0.023,-0.027l-0.021,-0.027l-0.021,-0.027l-0.02,-0.028l-0.019,-0.028l-0.019,-0.029l-0.018,-0.029l-0.017,-0.029l-0.016,-0.03l-0.016,-0.031l-0.015,-0.03l-0.014,-0.031l-0.014,-0.032l-0.012,-0.031l-0.012,-0.032l-0.011,-0.032l-0.011,-0.033l-0.009,-0.033l-0.009,-0.033l-0.008,-0.033l-0.007,-0.033l-0.006,-0.034l-0.006,-0.034l-0.004,-0.034l-0.004,-0.034l-0.003,-0.034l-0.002,-0.035l-0.002,-0.034l0,-0.035l0,-13.615l0,-0.01l0,-0.001l0.002,-0.05l0.005,-0.05l0.007,-0.049l0.009,-0.049l0.012,-0.047l0.013,-0.046l0.017,-0.046l0.018,-0.044l0.02,-0.044l0.022,-0.042l0.024,-0.041l0.026,-0.039l0.028,-0.039l0.029,-0.036l0.032,-0.036l0.032,-0.034l0.035,-0.032l0.036,-0.031l0.037,-0.029l0.039,-0.027l0.04,-0.025l0.041,-0.024l0.043,-0.021l0.043,-0.02l0.045,-0.017l0.046,-0.015l0.046,-0.013l0.048,-0.011l0.048,-0.009l0.05,-0.006l0.049,-0.004l0.051,-0.001l0.023,0Zm-0.011,1l-0.005,0l0,13.597l0,0.016l0.001,0.008l0,0.012l0.001,0.009l0.003,0.02l0.001,0.009l0.002,0.01l0.004,0.018l0.002,0.009l0.003,0.011l0.006,0.017l0.007,0.019l0.004,0.008l0.004,0.01l0.005,0.009l0.009,0.016l0.004,0.008l0.006,0.009l0.01,0.015l0.006,0.009l0.006,0.008l0.006,0.007l0.007,0.008l0.006,0.007l0.013,0.014l0.008,0.008l0.007,0.007l0.007,0.006l0.007,0.006l0.008,0.006l0.008,0.006l0.008,0.006l0.008,0.005l0.008,0.006l0.016,0.009l0.009,0.005l0.009,0.005l0.008,0.004l0.009,0.004l0.01,0.004l0.008,0.003l0.009,0.004l0.01,0.003l0.009,0.003l0.009,0.002l0.009,0.003l0.01,0.002l0.009,0.002l0.01,0.002l0.01,0.002l0.009,0.001l0.01,0.001l0.01,0.001l0.009,0l0.01,0.001l0.016,0l9.129,0l0.018,0l0.011,-0.001l0.011,0l0.012,-0.001l0.011,-0.002l0.011,-0.001l0.011,-0.002l0.012,-0.002l0.011,-0.002l0.01,-0.003l0.012,-0.003l0.01,-0.003l0.011,-0.003l0.011,-0.004l0.011,-0.004l0.009,-0.004l0.011,-0.005l0.01,-0.004l0.01,-0.005l0.011,-0.006l0.009,-0.005l0.01,-0.006l0.01,-0.006l0.009,-0.006l0.01,-0.006l0.009,-0.007l0.008,-0.006l0.01,-0.008l0.009,-0.008l0.008,-0.006l0.008,-0.008l0.008,-0.008l0.009,-0.009l0.008,-0.008l0.007,-0.008l0.008,-0.009l0.006,-0.009l0.007,-0.009l0.007,-0.01l0.007,-0.009l0.005,-0.009l0.006,-0.01l0.006,-0.01l0.005,-0.009l0.005,-0.01l0.006,-0.011l0.004,-0.01l0.005,-0.01l0.004,-0.011l0.004,-0.01l0.003,-0.011l0.004,-0.011l0.003,-0.01l0.003,-0.011l0.002,-0.011l0.003,-0.011l0.002,-0.013l0.002,-0.01l0.001,-0.01l0.002,-0.013l0.001,-0.011l0,-0.01l0.001,-0.013l0,-0.018l0,-13.527l0,-0.004l-0.012,0l-9.983,0Zm9.996,0.076l0.017,0.09l-0.011,-0.071l-0.006,-0.071l-0.001,-0.017l0.001,0.069Zm-10.001,-0.083l0,0.001l0,0l0,-0.012l0,0.011Z" style="fill:#1d3037;"/><rect id="Stuff" x="10.857" y="-226.977" width="2770.72" height="2461.53" style="fill:none;"/></svg>