<?xml version="1.0" encoding="UTF-8" standalone="no"?><!DOCTYPE svg PUBLIC "-//W3C//DTD SVG 1.1//EN" "http://www.w3.org/Graphics/SVG/1.1/DTD/svg11.dtd"><svg width="100%" height="100%" viewBox="0 0 18 18" version="1.1" xmlns="http://www.w3.org/2000/svg" xmlns:xlink="http://www.w3.org/1999/xlink" xml:space="preserve" style="fill-rule:evenodd;clip-rule:evenodd;stroke-linejoin:round;stroke-miterlimit:1.41421;"><rect id="Stuff" x="10.857" y="-202.977" width="2770.72" height="2461.53" style="fill:none;"/><path d="M9.259,2l0.048,0.001l0.047,0.004l0.047,0.006l0.047,0.009l0.046,0.011l0.045,0.013l0.045,0.016l0.043,0.018l0.043,0.02l0.042,0.023l0.04,0.024l0.039,0.027l0.038,0.029l0.036,0.031l0.035,0.032l0.033,0.035l0.031,0.037l0.029,0.037l0.028,0.04l0.024,0.04l0.023,0.041l0.021,0.043l0.018,0.044l0.016,0.044l0.013,0.045l0.012,0.046l0.008,0.046l0.007,0.047l0.004,0.047l0.002,0.048l-0.001,0.048l-0.004,0.048l0,0l-0.003,0.048l-0.001,0.048l0.001,0.048l0.004,0.047l0.007,0.047l0.009,0.046l0.011,0.046l0.013,0.045l0.016,0.044l0.019,0.044l0.02,0.043l0.023,0.041l0.025,0.04l0.027,0.04l0.029,0.037l0.031,0.037l0.033,0.035l0.035,0.032l0.036,0.031l0.038,0.029l0.039,0.027l0.041,0.024l0.041,0.023l0.043,0.02l0.043,0.018l0.045,0.016l0.045,0.013l0.046,0.011l0.047,0.009l0.047,0.006l0.048,0.004l0.048,0.001l4.557,0l0.036,0l0.035,0.002l0.035,0.002l0.035,0.003l0.034,0.004l0.034,0.005l0.034,0.005l0.034,0.007l0.033,0.007l0.033,0.008l0.033,0.009l0.033,0.01l0.032,0.01l0.031,0.011l0.032,0.012l0.031,0.013l0.03,0.013l0.03,0.014l0.03,0.015l0.03,0.016l0.029,0.016l0.028,0.017l0.028,0.017l0.028,0.018l0.027,0.019l0.027,0.02l0.026,0.02l0.025,0.02l0.026,0.022l0.024,0.022l0.024,0.022l0.024,0.023l0.023,0.024l0.022,0.024l0.022,0.024l0.022,0.026l0.02,0.025l0.02,0.026l0.02,0.027l0.019,0.027l0.018,0.028l0.017,0.028l0.017,0.028l0.016,0.029l0.016,0.03l0.015,0.03l0.014,0.03l0.013,0.03l0.013,0.031l0.012,0.032l0.011,0.031l0.01,0.032l0.01,0.033l0.009,0.033l0.008,0.033l0.007,0.033l0.007,0.034l0.005,0.034l0.005,0.034l0.004,0.034l0.003,0.035l0.002,0.035l0.002,0.035l0,0.036l0,8.165l0,0.038l-0.002,0.037l-0.002,0.037l-0.004,0.037l-0.004,0.037l-0.005,0.037l-0.006,0.036l-0.007,0.036l-0.007,0.035l-0.009,0.035l-0.009,0.035l-0.011,0.035l-0.011,0.034l-0.012,0.034l-0.012,0.033l-0.014,0.033l-0.014,0.033l-0.015,0.032l-0.016,0.032l-0.016,0.031l-0.018,0.031l-0.018,0.03l-0.018,0.03l-0.02,0.029l-0.02,0.029l-0.02,0.029l-0.022,0.028l-0.022,0.027l-0.023,0.027l-0.023,0.026l-0.024,0.026l-0.024,0.025l-0.025,0.024l-0.026,0.024l-0.026,0.023l-0.027,0.023l-0.027,0.022l-0.028,0.022l-0.029,0.02l-0.029,0.02l-0.029,0.02l-0.03,0.018l-0.03,0.018l-0.031,0.018l-0.031,0.016l-0.032,0.016l-0.032,0.015l-0.033,0.014l-0.033,0.014l-0.033,0.012l-0.034,0.012l-0.034,0.011l-0.035,0.011l-0.035,0.009l-0.035,0.009l-0.035,0.007l-0.036,0.007l-0.036,0.006l-0.037,0.005l-0.037,0.004l-0.037,0.004l-0.037,0.002l-0.037,0.002l-0.038,0l-13.141,0l-0.036,0l-0.036,-0.002l-0.035,-0.002l-0.036,-0.003l-0.035,-0.004l-0.035,-0.005l-0.034,-0.006l-0.034,-0.006l-0.034,-0.008l-0.034,-0.008l-0.033,-0.009l-0.033,-0.01l-0.033,-0.01l-0.032,-0.012l-0.032,-0.012l-0.032,-0.013l-0.031,-0.013l-0.031,-0.015l-0.03,-0.015l-0.03,-0.016l-0.029,-0.016l-0.029,-0.017l-0.029,-0.018l-0.028,-0.019l-0.028,-0.019l-0.027,-0.02l-0.026,-0.02l-0.027,-0.021l-0.025,-0.022l-0.025,-0.022l-0.025,-0.023l-0.024,-0.023l-0.023,-0.024l-0.023,-0.025l-0.022,-0.025l-0.022,-0.025l-0.021,-0.027l-0.02,-0.026l-0.02,-0.027l-0.019,-0.028l-0.019,-0.028l-0.018,-0.029l-0.017,-0.029l-0.016,-0.029l-0.016,-0.03l-0.015,-0.03l-0.015,-0.031l-0.013,-0.031l-0.013,-0.032l-0.012,-0.032l-0.012,-0.032l-0.01,-0.033l-0.01,-0.033l-0.009,-0.033l-0.008,-0.034l-0.008,-0.034l-0.006,-0.034l-0.006,-0.034l-0.005,-0.035l-0.004,-0.035l-0.003,-0.036l-0.002,-0.035l-0.002,-0.036l0,-0.036l0,-10.586l0,-0.034l0.001,-0.042l0.002,-0.049l0.004,-0.048l0.007,-0.047l0.009,-0.046l0.011,-0.046l0.013,-0.045l0.016,-0.044l0.017,-0.042l0.019,-0.042l0.022,-0.041l0.023,-0.039l0.025,-0.038l0.027,-0.037l0.028,-0.036l0.03,-0.034l0.032,-0.032l0.033,-0.031l0.034,-0.03l0.036,-0.028l0.037,-0.026l0.039,-0.024l0.04,-0.023l0.041,-0.021l0.041,-0.018l0.044,-0.017l0.044,-0.015l0.044,-0.013l0.046,-0.01l0.047,-0.008l0.047,-0.006l0.048,-0.004l0.049,-0.001l7.303,0Zm-7.259,1l0,0.022l0,10.574l0,0.018l0.001,0.01l0,0.01l0.001,0.011l0.001,0.009l0.002,0.011l0.001,0.009l0.002,0.009l0.002,0.01l0.003,0.01l0.002,0.009l0.003,0.009l0.003,0.009l0.003,0.009l0.003,0.009l0.008,0.018l0.004,0.009l0.004,0.009l0.009,0.015l0.005,0.009l0.005,0.009l0.01,0.015l0.007,0.008l0.006,0.008l0.005,0.007l0.013,0.015l0.006,0.006l0.007,0.008l0.007,0.007l0.008,0.006l0.014,0.012l0.007,0.007l0.008,0.006l0.008,0.005l0.008,0.006l0.008,0.005l0.008,0.005l0.008,0.005l0.009,0.005l0.008,0.004l0.008,0.004l0.009,0.004l0.009,0.004l0.008,0.004l0.01,0.003l0.009,0.003l0.008,0.003l0.01,0.003l0.009,0.003l0.01,0.002l0.009,0.002l0.01,0.002l0.009,0.001l0.01,0.002l0.01,0.001l0.011,0.001l0.01,0l0.01,0.001l0.017,0l13.129,0l0.018,0l0.013,-0.001l0.012,0l0.011,-0.002l0.012,-0.001l0.012,-0.001l0.011,-0.002l0.011,-0.003l0.011,-0.002l0.011,-0.003l0.011,-0.002l0.011,-0.004l0.011,-0.003l0.01,-0.004l0.01,-0.004l0.011,-0.004l0.009,-0.004l0.011,-0.005l0.01,-0.005l0.009,-0.005l0.01,-0.006l0.01,-0.005l0.009,-0.006l0.009,-0.006l0.01,-0.007l0.009,-0.006l0.009,-0.008l0.009,-0.006l0.008,-0.007l0.008,-0.008l0.009,-0.008l0.008,-0.007l0.007,-0.008l0.008,-0.009l0.007,-0.008l0.008,-0.009l0.007,-0.008l0.007,-0.009l0.007,-0.01l0.006,-0.008l0.006,-0.009l0.005,-0.01l0.006,-0.01l0.006,-0.01l0.005,-0.009l0.004,-0.009l0.006,-0.012l0.004,-0.01l0.004,-0.01l0.004,-0.01l0.004,-0.011l0.003,-0.01l0.003,-0.011l0.004,-0.012l0.002,-0.009l0.003,-0.012l0.002,-0.012l0.002,-0.011l0.001,-0.011l0.001,-0.01l0.001,-0.013l0.001,-0.013l0.001,-0.012l0,-0.019l0,-8.153l0,-0.015l-0.001,-0.01l0,-0.01l-0.001,-0.01l-0.001,-0.009l-0.001,-0.009l-0.002,-0.009l-0.002,-0.01l-0.002,-0.009l-0.001,-0.007l-0.003,-0.01l-0.003,-0.009l-0.002,-0.008l-0.003,-0.008l-0.003,-0.009l-0.004,-0.007l-0.004,-0.009l-0.003,-0.008l-0.004,-0.008l-0.004,-0.008l-0.005,-0.009l-0.005,-0.008l-0.004,-0.006l-0.005,-0.008l-0.005,-0.007l-0.005,-0.007l-0.006,-0.008l-0.006,-0.007l-0.005,-0.006l-0.007,-0.008l-0.006,-0.007l-0.006,-0.006l-0.006,-0.006l-0.007,-0.006l-0.007,-0.006l-0.007,-0.006l-0.007,-0.006l-0.008,-0.006l-0.007,-0.005l-0.007,-0.005l-0.008,-0.005l-0.007,-0.005l-0.008,-0.004l-0.007,-0.004l-0.009,-0.005l-0.008,-0.004l-0.008,-0.003l-0.008,-0.004l-0.008,-0.003l-0.008,-0.004l-0.009,-0.003l-0.008,-0.002l-0.009,-0.003l-0.009,-0.002l-0.009,-0.002l-0.009,-0.002l-0.009,-0.002l-0.009,-0.002l-0.009,-0.001l-0.009,-0.001l-0.01,-0.001l-0.01,0l-0.01,-0.001l-0.016,0l-4.565,0l-0.087,-0.002l-0.1,-0.008l-0.099,-0.013l-0.098,-0.019l-0.097,-0.023l-0.095,-0.028l-0.093,-0.033l-0.092,-0.038l-0.089,-0.042l-0.088,-0.047l-0.084,-0.052l-0.082,-0.056l-0.079,-0.06l-0.077,-0.065l-0.073,-0.069l-0.069,-0.072l-0.066,-0.077l-0.061,-0.079l-0.057,-0.082l-0.052,-0.085l-0.048,-0.088l-0.043,-0.09l-0.038,-0.09l-0.033,-0.093l-0.029,-0.096l-0.024,-0.096l-0.018,-0.096l-0.014,-0.099l-0.008,-0.099l-0.004,-0.101l0.002,-0.101l0,-0.001l-7.161,0Z" style="fill:#1d3037;"/></svg>