<?xml version="1.0" encoding="UTF-8" standalone="no"?><!DOCTYPE svg PUBLIC "-//W3C//DTD SVG 1.1//EN" "http://www.w3.org/Graphics/SVG/1.1/DTD/svg11.dtd"><svg width="100%" height="100%" viewBox="0 0 40 40" version="1.1" xmlns="http://www.w3.org/2000/svg" xmlns:xlink="http://www.w3.org/1999/xlink" xml:space="preserve" style="fill-rule:evenodd;clip-rule:evenodd;stroke-linejoin:round;stroke-miterlimit:1.41421;"><g><path d="M15.955,13.5c0,-0.398 -0.158,-0.779 -0.44,-1.061c-0.281,-0.281 -0.663,-0.439 -1.06,-0.439c-1.419,0 -3.536,0 -4.955,0c-0.398,0 -0.779,0.158 -1.061,0.439c-0.281,0.282 -0.439,0.663 -0.439,1.061c0,2.101 0,5.899 0,8c0,0.398 0.158,0.779 0.439,1.061c0.282,0.281 0.663,0.439 1.061,0.439c1.419,0 3.536,0 4.955,0c0.397,0 0.779,-0.158 1.06,-0.439c0.282,-0.282 0.44,-0.663 0.44,-1.061c0,-2.101 0,-5.899 0,-8Z" style="fill:#1d3037;"/><path d="M14.492,12l0.037,0.002l0.037,0.002l0.037,0.003l0.037,0.004l0.036,0.005l0.036,0.006l0.037,0.007l0.035,0.008l0.036,0.008l0.036,0.01l0.035,0.01l0.035,0.011l0.034,0.012l0.035,0.013l0.034,0.013l0.033,0.015l0.033,0.015l0.033,0.016l0.033,0.017l0.032,0.017l0.032,0.019l0.031,0.019l0.031,0.02l0.03,0.021l0.03,0.021l0.029,0.023l0.029,0.023l0.029,0.024l0.027,0.024l0.028,0.025l0.026,0.026l0.026,0.027l0.026,0.027l0.024,0.028l0.024,0.028l0.023,0.029l0.022,0.03l0.022,0.029l0.021,0.031l0.02,0.031l0.019,0.031l0.018,0.032l0.018,0.032l0.017,0.032l0.016,0.033l0.015,0.033l0.014,0.034l0.014,0.034l0.013,0.034l0.012,0.035l0.011,0.035l0.01,0.035l0.009,0.035l0.009,0.036l0.007,0.036l0.007,0.036l0.006,0.037l0.005,0.036l0.004,0.037l0.003,0.037l0.003,0.037l0.001,0.037l0.001,0.037l0,8l-0.001,0.037l-0.001,0.037l-0.003,0.037l-0.003,0.037l-0.004,0.037l-0.005,0.036l-0.006,0.037l-0.007,0.036l-0.007,0.036l-0.009,0.036l-0.009,0.035l-0.01,0.035l-0.011,0.035l-0.012,0.035l-0.013,0.034l-0.014,0.034l-0.014,0.034l-0.015,0.033l-0.016,0.033l-0.017,0.032l-0.018,0.032l-0.018,0.032l-0.019,0.031l-0.02,0.031l-0.021,0.031l-0.022,0.029l-0.022,0.03l-0.023,0.029l-0.024,0.028l-0.024,0.028l-0.026,0.027l-0.026,0.027l-0.026,0.026l-0.028,0.025l-0.027,0.024l-0.029,0.024l-0.029,0.023l-0.029,0.023l-0.03,0.021l-0.03,0.021l-0.031,0.02l-0.031,0.019l-0.032,0.019l-0.032,0.017l-0.033,0.017l-0.033,0.016l-0.033,0.015l-0.033,0.015l-0.034,0.013l-0.035,0.013l-0.034,0.012l-0.035,0.011l-0.035,0.01l-0.036,0.01l-0.036,0.008l-0.035,0.008l-0.037,0.007l-0.036,0.006l-0.036,0.005l-0.037,0.004l-0.037,0.003l-0.037,0.002l-0.037,0.002l-0.037,0l-4.955,0l-0.037,0l-0.037,-0.002l-0.037,-0.002l-0.037,-0.003l-0.037,-0.004l-0.037,-0.005l-0.036,-0.006l-0.036,-0.007l-0.036,-0.008l-0.036,-0.008l-0.035,-0.01l-0.035,-0.01l-0.035,-0.011l-0.035,-0.012l-0.034,-0.013l-0.034,-0.013l-0.034,-0.015l-0.033,-0.015l-0.033,-0.016l-0.032,-0.017l-0.032,-0.017l-0.032,-0.019l-0.031,-0.019l-0.031,-0.02l-0.031,-0.021l-0.029,-0.021l-0.03,-0.023l-0.029,-0.023l-0.028,-0.024l-0.028,-0.024l-0.027,-0.025l-0.027,-0.026l-0.026,-0.027l-0.025,-0.027l-0.025,-0.028l-0.023,-0.028l-0.023,-0.029l-0.023,-0.03l-0.021,-0.029l-0.021,-0.031l-0.02,-0.031l-0.019,-0.031l-0.019,-0.032l-0.017,-0.032l-0.017,-0.032l-0.016,-0.033l-0.015,-0.033l-0.015,-0.034l-0.013,-0.034l-0.013,-0.034l-0.012,-0.035l-0.011,-0.035l-0.01,-0.035l-0.01,-0.035l-0.008,-0.036l-0.008,-0.036l-0.007,-0.036l-0.006,-0.037l-0.005,-0.036l-0.004,-0.037l-0.003,-0.037l-0.002,-0.037l-0.002,-0.037l0,-0.037l0,-8l0,-0.037l0.002,-0.037l0.002,-0.037l0.003,-0.037l0.004,-0.037l0.005,-0.036l0.006,-0.037l0.007,-0.036l0.008,-0.036l0.008,-0.036l0.01,-0.035l0.01,-0.035l0.011,-0.035l0.012,-0.035l0.013,-0.034l0.013,-0.034l0.015,-0.034l0.015,-0.033l0.016,-0.033l0.017,-0.032l0.017,-0.032l0.019,-0.032l0.019,-0.031l0.02,-0.031l0.021,-0.031l0.021,-0.029l0.023,-0.03l0.023,-0.029l0.023,-0.028l0.025,-0.028l0.025,-0.027l0.026,-0.027l0.027,-0.026l0.027,-0.025l0.028,-0.024l0.028,-0.024l0.029,-0.023l0.03,-0.023l0.029,-0.021l0.031,-0.021l0.031,-0.02l0.031,-0.019l0.032,-0.019l0.032,-0.017l0.032,-0.017l0.033,-0.016l0.033,-0.015l0.034,-0.015l0.034,-0.013l0.034,-0.013l0.035,-0.012l0.035,-0.011l0.035,-0.01l0.035,-0.01l0.036,-0.008l0.036,-0.008l0.036,-0.007l0.036,-0.006l0.037,-0.005l0.037,-0.004l0.037,-0.003l0.037,-0.002l0.037,-0.002l0.037,0l4.955,0l0.037,0Zm-4.986,1l-0.018,0l-0.013,0.001l-0.012,0l-0.012,0.002l-0.013,0.001l-0.012,0.002l-0.012,0.001l-0.012,0.003l-0.012,0.002l-0.012,0.003l-0.011,0.003l-0.012,0.004l-0.012,0.003l-0.011,0.004l-0.012,0.004l-0.012,0.005l-0.011,0.005l-0.01,0.005l-0.012,0.005l-0.01,0.006l-0.011,0.006l-0.011,0.006l-0.01,0.006l-0.011,0.007l-0.01,0.007l-0.01,0.007l-0.009,0.007l-0.009,0.008l-0.011,0.009l-0.009,0.008l-0.009,0.008l-0.008,0.008l-0.009,0.009l-0.008,0.009l-0.008,0.009l-0.009,0.01l-0.008,0.01l-0.007,0.01l-0.007,0.01l-0.006,0.009l-0.007,0.011l-0.007,0.01l-0.007,0.012l-0.005,0.01l-0.006,0.01l-0.005,0.012l-0.005,0.01l-0.004,0.011l-0.006,0.013l-0.004,0.011l-0.004,0.011l-0.003,0.012l-0.004,0.012l-0.003,0.011l-0.003,0.011l-0.002,0.012l-0.002,0.013l-0.003,0.014l-0.001,0.01l-0.001,0.012l-0.002,0.013l0,0.011l-0.001,0.015l0,0.018l0,7.986l0,0.018l0.001,0.015l0,0.011l0.003,0.025l0.004,0.024l0.002,0.013l0.002,0.012l0.006,0.022l0.007,0.024l0.008,0.022l0.01,0.024l0.01,0.022l0.006,0.01l0.012,0.022l0.007,0.01l0.007,0.011l0.013,0.019l0.008,0.01l0.007,0.01l0.009,0.01l0.008,0.009l0.016,0.018l0.018,0.016l0.009,0.008l0.011,0.009l0.009,0.008l0.019,0.014l0.01,0.007l0.011,0.007l0.01,0.006l0.022,0.012l0.022,0.011l0.021,0.01l0.012,0.005l0.012,0.004l0.011,0.004l0.012,0.003l0.012,0.004l0.011,0.003l0.012,0.003l0.012,0.002l0.012,0.003l0.012,0.001l0.012,0.002l0.013,0.001l0.012,0.002l0.012,0l0.013,0.001l0.018,0l4.942,0l0.019,0l0.012,-0.001l0.013,0l0.012,-0.002l0.012,-0.001l0.012,-0.002l0.013,-0.002l0.012,-0.002l0.011,-0.002l0.012,-0.003l0.012,-0.003l0.012,-0.004l0.012,-0.003l0.011,-0.004l0.011,-0.004l0.012,-0.005l0.011,-0.005l0.011,-0.005l0.011,-0.005l0.011,-0.006l0.011,-0.006l0.01,-0.006l0.011,-0.007l0.01,-0.006l0.01,-0.007l0.009,-0.007l0.01,-0.007l0.01,-0.008l0.01,-0.008l0.009,-0.008l0.009,-0.009l0.01,-0.009l0.008,-0.008l0.008,-0.009l0.009,-0.01l0.007,-0.009l0.008,-0.01l0.008,-0.01l0.007,-0.01l0.006,-0.009l0.007,-0.011l0.007,-0.01l0.005,-0.01l0.007,-0.012l0.006,-0.012l0.004,-0.009l0.005,-0.011l0.006,-0.012l0.004,-0.012l0.004,-0.01l0.004,-0.012l0.004,-0.012l0.003,-0.012l0.003,-0.011l0.003,-0.011l0.003,-0.013l0.002,-0.012l0.002,-0.012l0.002,-0.012l0.001,-0.012l0.001,-0.013l0.001,-0.013l0,-0.013l0.001,-0.018l0,-7.986l-0.001,-0.018l0,-0.013l-0.001,-0.013l-0.001,-0.013l-0.001,-0.012l-0.002,-0.012l-0.002,-0.012l-0.002,-0.012l-0.003,-0.013l-0.003,-0.011l-0.003,-0.011l-0.003,-0.012l-0.004,-0.012l-0.004,-0.012l-0.004,-0.01l-0.004,-0.012l-0.006,-0.012l-0.005,-0.011l-0.004,-0.009l-0.006,-0.012l-0.007,-0.012l-0.005,-0.01l-0.007,-0.01l-0.007,-0.011l-0.006,-0.009l-0.007,-0.01l-0.008,-0.01l-0.008,-0.01l-0.007,-0.009l-0.009,-0.01l-0.008,-0.009l-0.008,-0.008l-0.01,-0.009l-0.009,-0.009l-0.009,-0.008l-0.01,-0.008l-0.01,-0.008l-0.01,-0.007l-0.009,-0.007l-0.01,-0.007l-0.01,-0.006l-0.011,-0.007l-0.01,-0.006l-0.011,-0.006l-0.011,-0.006l-0.011,-0.005l-0.011,-0.005l-0.011,-0.005l-0.012,-0.005l-0.011,-0.004l-0.011,-0.004l-0.012,-0.003l-0.012,-0.004l-0.012,-0.003l-0.011,-0.003l-0.013,-0.002l-0.011,-0.002l-0.013,-0.002l-0.012,-0.002l-0.012,-0.001l-0.012,-0.002l-0.013,0l-0.012,-0.001l-0.019,0l-4.942,0Z" style="fill:#1d3037;"/><path d="M31.537,12l0.037,0.002l0.037,0.002l0.037,0.003l0.037,0.004l0.037,0.005l0.036,0.006l0.036,0.007l0.036,0.008l0.036,0.008l0.035,0.01l0.035,0.01l0.035,0.011l0.035,0.012l0.034,0.013l0.034,0.013l0.034,0.015l0.033,0.015l0.033,0.016l0.032,0.017l0.032,0.017l0.032,0.019l0.031,0.019l0.031,0.02l0.031,0.021l0.029,0.021l0.03,0.023l0.029,0.023l0.028,0.024l0.028,0.024l0.027,0.025l0.027,0.026l0.026,0.027l0.025,0.027l0.025,0.028l0.023,0.028l0.023,0.029l0.023,0.03l0.021,0.029l0.021,0.031l0.02,0.031l0.019,0.031l0.019,0.032l0.017,0.032l0.017,0.032l0.016,0.033l0.015,0.033l0.015,0.034l0.013,0.034l0.013,0.034l0.012,0.035l0.011,0.035l0.01,0.035l0.01,0.035l0.008,0.036l0.008,0.036l0.007,0.036l0.006,0.037l0.005,0.036l0.004,0.037l0.003,0.037l0.002,0.037l0.002,0.037l0,0.037l0,8l0,0.037l-0.002,0.037l-0.002,0.037l-0.003,0.037l-0.004,0.037l-0.005,0.036l-0.006,0.037l-0.007,0.036l-0.008,0.036l-0.008,0.036l-0.01,0.035l-0.01,0.035l-0.011,0.035l-0.012,0.035l-0.013,0.034l-0.013,0.034l-0.015,0.034l-0.015,0.033l-0.016,0.033l-0.017,0.032l-0.017,0.032l-0.019,0.032l-0.019,0.031l-0.02,0.031l-0.021,0.031l-0.021,0.029l-0.023,0.03l-0.023,0.029l-0.023,0.028l-0.025,0.028l-0.025,0.027l-0.026,0.027l-0.027,0.026l-0.027,0.025l-0.028,0.024l-0.028,0.024l-0.029,0.023l-0.03,0.023l-0.029,0.021l-0.031,0.021l-0.031,0.02l-0.031,0.019l-0.032,0.019l-0.032,0.017l-0.032,0.017l-0.033,0.016l-0.033,0.015l-0.034,0.015l-0.034,0.013l-0.034,0.013l-0.035,0.012l-0.035,0.011l-0.035,0.01l-0.035,0.01l-0.036,0.008l-0.036,0.008l-0.036,0.007l-0.036,0.006l-0.037,0.005l-0.037,0.004l-0.037,0.003l-0.037,0.002l-0.037,0.002l-0.037,0l-4.955,0l-0.037,0l-0.037,-0.002l-0.037,-0.002l-0.037,-0.003l-0.037,-0.004l-0.036,-0.005l-0.036,-0.006l-0.037,-0.007l-0.035,-0.008l-0.036,-0.008l-0.036,-0.01l-0.035,-0.01l-0.035,-0.011l-0.034,-0.012l-0.035,-0.013l-0.034,-0.013l-0.033,-0.015l-0.033,-0.015l-0.033,-0.016l-0.033,-0.017l-0.032,-0.017l-0.032,-0.019l-0.031,-0.019l-0.031,-0.02l-0.03,-0.021l-0.03,-0.021l-0.029,-0.023l-0.029,-0.023l-0.029,-0.024l-0.027,-0.024l-0.028,-0.025l-0.026,-0.026l-0.026,-0.027l-0.026,-0.027l-0.024,-0.028l-0.024,-0.028l-0.023,-0.029l-0.022,-0.03l-0.022,-0.029l-0.021,-0.031l-0.02,-0.031l-0.019,-0.031l-0.018,-0.032l-0.018,-0.032l-0.017,-0.032l-0.016,-0.033l-0.015,-0.033l-0.014,-0.034l-0.014,-0.034l-0.013,-0.034l-0.012,-0.035l-0.011,-0.035l-0.01,-0.035l-0.009,-0.035l-0.009,-0.036l-0.007,-0.036l-0.007,-0.036l-0.006,-0.037l-0.005,-0.036l-0.004,-0.037l-0.003,-0.037l-0.003,-0.037l-0.001,-0.037l-0.001,-0.037l0,-8l0.001,-0.037l0.001,-0.037l0.003,-0.037l0.003,-0.037l0.004,-0.037l0.005,-0.036l0.006,-0.037l0.007,-0.036l0.007,-0.036l0.009,-0.036l0.009,-0.035l0.01,-0.035l0.011,-0.035l0.012,-0.035l0.013,-0.034l0.014,-0.034l0.014,-0.034l0.015,-0.033l0.016,-0.033l0.017,-0.032l0.018,-0.032l0.018,-0.032l0.019,-0.031l0.02,-0.031l0.021,-0.031l0.022,-0.029l0.022,-0.03l0.023,-0.029l0.024,-0.028l0.024,-0.028l0.026,-0.027l0.026,-0.027l0.026,-0.026l0.028,-0.025l0.027,-0.024l0.029,-0.024l0.029,-0.023l0.029,-0.023l0.03,-0.021l0.03,-0.021l0.031,-0.02l0.031,-0.019l0.032,-0.019l0.032,-0.017l0.033,-0.017l0.033,-0.016l0.033,-0.015l0.033,-0.015l0.034,-0.013l0.035,-0.013l0.034,-0.012l0.035,-0.011l0.035,-0.01l0.036,-0.01l0.036,-0.008l0.035,-0.008l0.037,-0.007l0.036,-0.006l0.036,-0.005l0.037,-0.004l0.037,-0.003l0.037,-0.002l0.037,-0.002l0.037,0l4.955,0l0.037,0Zm-4.985,1l-0.019,0l-0.012,0.001l-0.013,0l-0.012,0.002l-0.012,0.001l-0.012,0.002l-0.012,0.001l-0.012,0.003l-0.013,0.002l-0.012,0.003l-0.011,0.003l-0.012,0.004l-0.011,0.003l-0.012,0.004l-0.011,0.004l-0.012,0.005l-0.011,0.005l-0.011,0.005l-0.011,0.005l-0.011,0.006l-0.011,0.006l-0.01,0.006l-0.01,0.006l-0.011,0.007l-0.01,0.007l-0.01,0.007l-0.009,0.007l-0.01,0.008l-0.011,0.009l-0.008,0.007l-0.009,0.009l-0.009,0.008l-0.009,0.009l-0.008,0.009l-0.008,0.009l-0.008,0.01l-0.008,0.01l-0.007,0.01l-0.008,0.01l-0.006,0.009l-0.007,0.011l-0.007,0.01l-0.006,0.012l-0.006,0.01l-0.005,0.01l-0.006,0.012l-0.004,0.01l-0.005,0.011l-0.005,0.013l-0.005,0.011l-0.003,0.011l-0.004,0.012l-0.004,0.012l-0.002,0.011l-0.003,0.011l-0.002,0.012l-0.003,0.013l-0.002,0.014l-0.002,0.01l-0.001,0.012l-0.001,0.013l-0.001,0.011l0,0.015l-0.001,0.018l0,7.986l0.001,0.018l0,0.015l0.001,0.011l0.002,0.025l0.004,0.024l0.003,0.013l0.002,0.012l0.005,0.022l0.008,0.024l0.008,0.022l0.01,0.024l0.01,0.022l0.005,0.01l0.012,0.022l0.007,0.01l0.007,0.011l0.014,0.019l0.007,0.01l0.008,0.01l0.008,0.01l0.008,0.009l0.017,0.018l0.009,0.008l0.017,0.016l0.021,0.017l0.019,0.014l0.01,0.007l0.011,0.007l0.01,0.006l0.021,0.012l0.022,0.011l0.022,0.01l0.012,0.005l0.011,0.004l0.023,0.007l0.023,0.007l0.013,0.003l0.011,0.002l0.013,0.003l0.012,0.001l0.012,0.002l0.012,0.001l0.012,0.002l0.013,0l0.012,0.001l0.019,0l4.942,0l0.018,0l0.013,-0.001l0.012,0l0.012,-0.002l0.013,-0.001l0.012,-0.002l0.012,-0.002l0.012,-0.002l0.012,-0.002l0.012,-0.003l0.011,-0.003l0.013,-0.004l0.011,-0.003l0.011,-0.004l0.012,-0.004l0.012,-0.005l0.011,-0.005l0.01,-0.005l0.011,-0.005l0.011,-0.006l0.011,-0.006l0.011,-0.006l0.011,-0.007l0.009,-0.006l0.011,-0.007l0.01,-0.007l0.009,-0.007l0.01,-0.008l0.009,-0.008l0.009,-0.008l0.01,-0.009l0.008,-0.008l0.009,-0.009l0.009,-0.01l0.008,-0.009l0.008,-0.009l0.008,-0.01l0.007,-0.01l0.007,-0.01l0.006,-0.009l0.007,-0.011l0.007,-0.01l0.006,-0.01l0.006,-0.012l0.006,-0.012l0.005,-0.009l0.005,-0.011l0.005,-0.012l0.005,-0.012l0.003,-0.01l0.004,-0.012l0.004,-0.012l0.003,-0.01l0.004,-0.013l0.003,-0.013l0.002,-0.011l0.002,-0.012l0.002,-0.012l0.002,-0.012l0.001,-0.012l0.002,-0.013l0,-0.013l0.001,-0.011l0,-0.019l0,-7.988l0,-0.019l-0.001,-0.011l0,-0.013l-0.002,-0.013l-0.001,-0.012l-0.002,-0.012l-0.002,-0.012l-0.002,-0.012l-0.002,-0.011l-0.003,-0.013l-0.004,-0.013l-0.003,-0.01l-0.004,-0.012l-0.004,-0.012l-0.003,-0.01l-0.005,-0.012l-0.005,-0.012l-0.005,-0.011l-0.005,-0.009l-0.006,-0.012l-0.006,-0.012l-0.006,-0.01l-0.007,-0.01l-0.007,-0.011l-0.006,-0.009l-0.007,-0.01l-0.007,-0.01l-0.008,-0.01l-0.008,-0.009l-0.008,-0.009l-0.009,-0.01l-0.009,-0.009l-0.008,-0.008l-0.01,-0.009l-0.009,-0.008l-0.009,-0.008l-0.01,-0.008l-0.009,-0.007l-0.01,-0.007l-0.011,-0.007l-0.009,-0.006l-0.011,-0.007l-0.011,-0.006l-0.011,-0.006l-0.011,-0.006l-0.011,-0.005l-0.01,-0.005l-0.011,-0.005l-0.012,-0.005l-0.011,-0.004l-0.012,-0.004l-0.012,-0.003l-0.012,-0.004l-0.011,-0.003l-0.012,-0.003l-0.012,-0.002l-0.012,-0.002l-0.012,-0.002l-0.012,-0.002l-0.013,-0.001l-0.012,-0.002l-0.012,0l-0.013,-0.001l-0.018,0l-4.942,0Z" style="fill:#1d3037;"/><path d="M29.082,26.5c0,-0.398 -0.158,-0.779 -0.439,-1.061c-0.282,-0.281 -0.663,-0.439 -1.061,-0.439c-3.39,0 -11.61,0 -15,0c-0.398,0 -0.779,0.158 -1.061,0.439c-0.281,0.282 -0.439,0.663 -0.439,1.061c0,0.398 0.158,0.779 0.439,1.061c0.282,0.281 0.663,0.439 1.061,0.439c3.39,0 11.61,0 15,0c0.398,0 0.779,-0.158 1.061,-0.439c0.281,-0.282 0.439,-0.663 0.439,-1.061c0,0 0,0 0,0Z" style="fill:#fff;"/><path d="M27.582,25l0.037,0l0.037,0.002l0.037,0.002l0.037,0.003l0.037,0.004l0.037,0.005l0.036,0.006l0.036,0.007l0.036,0.008l0.036,0.008l0.035,0.01l0.035,0.01l0.035,0.011l0.035,0.012l0.034,0.013l0.034,0.013l0.034,0.015l0.033,0.015l0.033,0.016l0.032,0.017l0.032,0.017l0.032,0.019l0.031,0.019l0.031,0.02l0.031,0.021l0.029,0.021l0.03,0.023l0.029,0.023l0.028,0.023l0.028,0.025l0.027,0.025l0.027,0.026l0.026,0.027l0.025,0.027l0.025,0.028l0.023,0.028l0.023,0.029l0.023,0.03l0.021,0.029l0.021,0.031l0.02,0.031l0.019,0.031l0.019,0.032l0.017,0.032l0.017,0.032l0.016,0.033l0.015,0.033l0.015,0.034l0.013,0.034l0.013,0.034l0.012,0.035l0.011,0.035l0.01,0.035l0.01,0.035l0.008,0.036l0.008,0.036l0.007,0.036l0.006,0.036l0.005,0.037l0.004,0.037l0.003,0.037l0.002,0.037l0.002,0.037l0,0.037l0,0.037l-0.002,0.037l-0.002,0.037l-0.003,0.037l-0.004,0.037l-0.005,0.037l-0.006,0.036l-0.007,0.036l-0.008,0.036l-0.008,0.036l-0.01,0.035l-0.01,0.035l-0.011,0.035l-0.012,0.035l-0.013,0.034l-0.013,0.034l-0.015,0.034l-0.015,0.033l-0.016,0.033l-0.017,0.032l-0.017,0.032l-0.019,0.032l-0.019,0.031l-0.02,0.031l-0.021,0.031l-0.021,0.029l-0.023,0.03l-0.023,0.029l-0.023,0.028l-0.025,0.028l-0.025,0.027l-0.026,0.027l-0.027,0.026l-0.027,0.025l-0.028,0.025l-0.028,0.023l-0.029,0.023l-0.03,0.023l-0.029,0.021l-0.031,0.021l-0.031,0.02l-0.031,0.019l-0.032,0.019l-0.032,0.017l-0.032,0.017l-0.033,0.016l-0.033,0.015l-0.034,0.015l-0.034,0.013l-0.034,0.013l-0.035,0.012l-0.035,0.011l-0.035,0.01l-0.035,0.01l-0.036,0.008l-0.036,0.008l-0.036,0.007l-0.036,0.006l-0.037,0.005l-0.037,0.004l-0.037,0.003l-0.037,0.002l-0.037,0.002l-0.037,0l-15,0l-0.037,0l-0.037,-0.002l-0.037,-0.002l-0.037,-0.003l-0.037,-0.004l-0.036,-0.005l-0.037,-0.006l-0.036,-0.007l-0.036,-0.008l-0.036,-0.008l-0.035,-0.01l-0.035,-0.01l-0.035,-0.011l-0.035,-0.012l-0.034,-0.013l-0.034,-0.013l-0.034,-0.015l-0.033,-0.015l-0.033,-0.016l-0.032,-0.017l-0.032,-0.017l-0.032,-0.019l-0.031,-0.019l-0.031,-0.02l-0.031,-0.021l-0.029,-0.021l-0.03,-0.023l-0.029,-0.023l-0.028,-0.023l-0.028,-0.025l-0.027,-0.025l-0.027,-0.026l-0.026,-0.027l-0.025,-0.027l-0.024,-0.028l-0.024,-0.028l-0.023,-0.029l-0.023,-0.03l-0.021,-0.029l-0.021,-0.031l-0.02,-0.031l-0.019,-0.031l-0.019,-0.032l-0.017,-0.032l-0.017,-0.032l-0.016,-0.033l-0.015,-0.033l-0.015,-0.034l-0.013,-0.034l-0.013,-0.034l-0.012,-0.035l-0.011,-0.035l-0.01,-0.035l-0.01,-0.035l-0.008,-0.036l-0.008,-0.036l-0.007,-0.036l-0.006,-0.036l-0.005,-0.037l-0.004,-0.037l-0.003,-0.037l-0.002,-0.037l-0.002,-0.037l0,-0.037c0,0 0,-0.037 0,-0.037l0.002,-0.037l0.002,-0.037l0.003,-0.037l0.004,-0.037l0.005,-0.037l0.006,-0.036l0.007,-0.036l0.008,-0.036l0.008,-0.036l0.01,-0.035l0.01,-0.035l0.011,-0.035l0.012,-0.035l0.013,-0.034l0.013,-0.034l0.015,-0.034l0.015,-0.033l0.016,-0.033l0.017,-0.032l0.017,-0.032l0.019,-0.032l0.019,-0.031l0.02,-0.031l0.021,-0.031l0.021,-0.029l0.023,-0.03l0.023,-0.029l0.024,-0.028l0.024,-0.028l0.025,-0.027l0.026,-0.027l0.027,-0.026l0.027,-0.025l0.028,-0.025l0.028,-0.023l0.029,-0.023l0.03,-0.023l0.029,-0.021l0.031,-0.021l0.031,-0.02l0.031,-0.019l0.032,-0.019l0.032,-0.017l0.032,-0.017l0.033,-0.016l0.033,-0.015l0.034,-0.015l0.034,-0.013l0.034,-0.013l0.035,-0.012l0.035,-0.011l0.035,-0.01l0.035,-0.01l0.036,-0.008l0.036,-0.008l0.036,-0.007l0.037,-0.006l0.036,-0.005l0.037,-0.004l0.037,-0.003l0.037,-0.002l0.037,-0.002l0.037,0l15,0Zm-14.994,1l-0.018,0l-0.013,0.001l-0.012,0l-0.013,0.002l-0.012,0.001l-0.012,0.002l-0.012,0.001l-0.012,0.003l-0.012,0.002l-0.012,0.003l-0.012,0.003l-0.011,0.004l-0.012,0.003l-0.011,0.004l-0.012,0.004l-0.011,0.005l-0.012,0.005l-0.01,0.005l-0.011,0.005l-0.012,0.006l-0.011,0.006l-0.009,0.006l-0.011,0.006l-0.011,0.007l-0.009,0.007l-0.01,0.007l-0.01,0.008l-0.01,0.008l-0.009,0.007l-0.009,0.008l-0.01,0.009l-0.008,0.008l-0.009,0.009l-0.009,0.01l-0.008,0.009l-0.008,0.01l-0.007,0.009l-0.007,0.009l-0.008,0.01l-0.007,0.011l-0.007,0.01l-0.006,0.011l-0.006,0.01l-0.006,0.01l-0.005,0.011l-0.006,0.011l-0.005,0.011l-0.005,0.012l-0.005,0.012l-0.003,0.01l-0.004,0.011l-0.005,0.014l-0.003,0.01l-0.003,0.012l-0.003,0.013l-0.002,0.011l-0.002,0.011l-0.002,0.014l-0.002,0.012l-0.001,0.01l-0.002,0.014l0,0.013l-0.001,0.011l0,0.013l0,0.013l0.001,0.011l0,0.013l0.002,0.014l0.001,0.01l0.002,0.012l0.002,0.014l0.002,0.011l0.002,0.011l0.003,0.013l0.003,0.012l0.003,0.01l0.005,0.014l0.004,0.011l0.003,0.01l0.005,0.012l0.005,0.012l0.005,0.011l0.006,0.011l0.005,0.011l0.006,0.01l0.006,0.01l0.006,0.011l0.007,0.01l0.007,0.011l0.008,0.01l0.007,0.009l0.007,0.009l0.008,0.01l0.008,0.009l0.009,0.009l0.009,0.01l0.009,0.008l0.009,0.009l0.009,0.008l0.009,0.007l0.01,0.008l0.01,0.008l0.01,0.007l0.009,0.007l0.011,0.007l0.011,0.006l0.009,0.006l0.011,0.006l0.012,0.006l0.011,0.005l0.01,0.005l0.012,0.005l0.011,0.005l0.012,0.004l0.011,0.004l0.012,0.003l0.011,0.004l0.012,0.003l0.012,0.003l0.012,0.002l0.012,0.003l0.012,0.001l0.012,0.002l0.012,0.001l0.013,0.002l0.012,0l0.013,0.001l0.018,0l14.988,0l0.018,0l0.013,-0.001l0.012,0l0.013,-0.002l0.012,-0.001l0.012,-0.002l0.012,-0.002l0.012,-0.002l0.012,-0.002l0.012,-0.003l0.012,-0.003l0.011,-0.004l0.012,-0.003l0.012,-0.004l0.011,-0.005l0.011,-0.004l0.011,-0.005l0.011,-0.005l0.012,-0.006l0.01,-0.005l0.011,-0.006l0.011,-0.006l0.01,-0.007l0.01,-0.006l0.01,-0.007l0.011,-0.007l0.009,-0.007l0.009,-0.008l0.01,-0.008l0.009,-0.008l0.009,-0.009l0.01,-0.009l0.008,-0.008l0.009,-0.01l0.008,-0.009l0.007,-0.009l0.008,-0.01l0.008,-0.01l0.008,-0.01l0.006,-0.009l0.006,-0.01l0.007,-0.012l0.006,-0.01l0.006,-0.011l0.005,-0.01l0.006,-0.011l0.005,-0.012l0.005,-0.011l0.004,-0.011l0.005,-0.011l0.003,-0.011l0.004,-0.012l0.004,-0.013l0.003,-0.011l0.003,-0.011l0.002,-0.013l0.003,-0.013l0.002,-0.012l0.001,-0.01l0.001,-0.014l0.002,-0.012l0,-0.013l0.001,-0.012l0,-0.012l0,-0.012l-0.001,-0.012l0,-0.013l-0.002,-0.012l-0.001,-0.014l-0.001,-0.01l-0.002,-0.012l-0.003,-0.013l-0.002,-0.013l-0.003,-0.011l-0.003,-0.011l-0.004,-0.013l-0.004,-0.012l-0.003,-0.011l-0.005,-0.011l-0.004,-0.011l-0.005,-0.011l-0.005,-0.012l-0.006,-0.011l-0.005,-0.01l-0.006,-0.011l-0.006,-0.01l-0.007,-0.012l-0.006,-0.01l-0.006,-0.009l-0.008,-0.01l-0.008,-0.01l-0.008,-0.01l-0.007,-0.009l-0.008,-0.009l-0.009,-0.01l-0.008,-0.008l-0.009,-0.009l-0.01,-0.009l-0.009,-0.008l-0.01,-0.008l-0.009,-0.008l-0.009,-0.007l-0.011,-0.007l-0.01,-0.007l-0.01,-0.006l-0.01,-0.007l-0.011,-0.006l-0.011,-0.006l-0.01,-0.005l-0.012,-0.006l-0.011,-0.005l-0.011,-0.005l-0.011,-0.004l-0.011,-0.005l-0.012,-0.004l-0.012,-0.003l-0.011,-0.004l-0.012,-0.003l-0.012,-0.003l-0.012,-0.002l-0.012,-0.002l-0.012,-0.002l-0.012,-0.002l-0.012,-0.001l-0.013,-0.002l-0.012,0l-0.013,-0.001l-0.018,0l-14.988,0Z" style="fill:#1d3037;"/><rect x="11.833" y="26" width="8.249" height="1" style="fill:#ededed;"/><rect x="11.833" y="26" width="8.249" height="1" style="fill:#1d3037;"/><path d="M23,17.464l-2.036,2.036l0.026,-1.464l-3.99,0l0,-1l4.008,0l0.028,-1.536l1.964,1.964Z" style="fill:#1d3037;"/></g></svg>