<?xml version="1.0" encoding="UTF-8" standalone="no"?><!DOCTYPE svg PUBLIC "-//W3C//DTD SVG 1.1//EN" "http://www.w3.org/Graphics/SVG/1.1/DTD/svg11.dtd"><svg width="100%" height="100%" viewBox="0 0 17 20" version="1.1" xmlns="http://www.w3.org/2000/svg" xmlns:xlink="http://www.w3.org/1999/xlink" xml:space="preserve" style="fill-rule:evenodd;clip-rule:evenodd;stroke-linejoin:round;stroke-miterlimit:1.41421;"><path d="M0.963,3l7.821,0c0.048,0.001 0.047,0.001 0.095,0.005c0.095,0.013 0.186,0.034 0.273,0.073c0.247,0.11 0.436,0.331 0.506,0.593c0.02,0.076 0.031,0.154 0.031,0.233c0,0.064 -0.009,0.128 -0.01,0.192c0.001,0.047 0.001,0.047 0.005,0.094c0.012,0.095 0.034,0.185 0.073,0.272c0.097,0.218 0.28,0.392 0.502,0.478c0.09,0.034 0.182,0.051 0.277,0.059l5.109,0.003c0.149,0.009 0.294,0.039 0.433,0.093c0.361,0.143 0.652,0.44 0.786,0.806c0.051,0.14 0.077,0.287 0.083,0.436l-0.002,8.273c-0.009,0.156 -0.04,0.309 -0.096,0.454c-0.143,0.371 -0.438,0.673 -0.805,0.825c-0.155,0.064 -0.319,0.099 -0.487,0.109l-14.282,0c-0.149,-0.009 -0.295,-0.038 -0.434,-0.092c-0.365,-0.141 -0.659,-0.435 -0.8,-0.8c-0.058,-0.15 -0.035,-0.308 -0.041,-0.468l0,-10.638c0.005,-0.118 -0.001,-0.265 0.041,-0.375c0.097,-0.257 0.272,-0.442 0.525,-0.547c0.093,-0.039 0.188,-0.06 0.287,-0.073c0.037,-0.003 0.073,-0.005 0.11,-0.005Zm0.037,1l0,1.003l7.909,0c0,0 -0.101,-0.208 -0.137,-0.319c-0.073,-0.223 -0.097,-0.451 -0.091,-0.684c-2.571,0 -7.681,0 -7.681,0Z" style="fill:#fff;fill-rule:nonzero;"/></svg>