<?xml version="1.0" encoding="UTF-8" standalone="no"?><!DOCTYPE svg PUBLIC "-//W3C//DTD SVG 1.1//EN" "http://www.w3.org/Graphics/SVG/1.1/DTD/svg11.dtd"><svg width="100%" height="100%" viewBox="0 0 17 20" version="1.1" xmlns="http://www.w3.org/2000/svg" xmlns:xlink="http://www.w3.org/1999/xlink" xml:space="preserve" style="fill-rule:evenodd;clip-rule:evenodd;stroke-linejoin:round;stroke-miterlimit:1.41421;"><path d="M3.074,2l10.897,0c0.544,0 0.988,0.433 1.002,0.976l0,0.014c0,0.286 0,9.83 0,13.548c0,0.388 -0.154,0.76 -0.428,1.034c-0.274,0.274 -0.646,0.428 -1.034,0.428c-2.523,0 -7.663,0 -10.141,0c-0.37,0 -0.726,-0.147 -0.988,-0.409c-0.262,-0.262 -0.409,-0.618 -0.409,-0.988c0,-3.67 0,-13.322 0,-13.613l0,-0.014c0.01,-0.542 0.452,-0.976 0.993,-0.976c0.066,0 0.107,0 0.108,0Z" style="fill:#6d6d6d;"/><path d="M13.971,2l0.051,0.001l0.05,0.004l0.049,0.006l0.049,0.009l0.048,0.01l0.046,0.014l0.046,0.015l0.045,0.017l0.044,0.02l0.043,0.021l0.041,0.023l0.04,0.026l0.039,0.027l0.038,0.029l0.036,0.03l0.035,0.032l0.033,0.034l0.031,0.036l0.03,0.036l0.028,0.039l0.027,0.039l0.024,0.041l0.023,0.042l0.02,0.044l0.019,0.044l0.016,0.046l0.014,0.046l0.012,0.047l0.01,0.049l0.008,0.049l0.005,0.05l0.002,0.05l0,0.014l0,13.548l0,0.036l-0.002,0.036l-0.002,0.037l-0.003,0.035l-0.004,0.036l-0.005,0.036l-0.005,0.035l-0.007,0.036l-0.008,0.035l-0.008,0.034l-0.009,0.035l-0.01,0.034l-0.011,0.034l-0.011,0.034l-0.013,0.033l-0.013,0.033l-0.014,0.033l-0.015,0.033l-0.016,0.032l-0.016,0.031l-0.017,0.032l-0.018,0.031l-0.019,0.03l-0.019,0.03l-0.021,0.03l-0.021,0.029l-0.021,0.028l-0.023,0.029l-0.023,0.027l-0.024,0.027l-0.025,0.027l-0.025,0.026l-0.026,0.025l-0.026,0.025l-0.028,0.024l-0.027,0.023l-0.028,0.022l-0.029,0.022l-0.029,0.021l-0.03,0.02l-0.03,0.02l-0.03,0.019l-0.031,0.018l-0.031,0.017l-0.032,0.016l-0.032,0.016l-0.032,0.015l-0.033,0.014l-0.033,0.013l-0.034,0.012l-0.034,0.012l-0.034,0.011l-0.034,0.01l-0.034,0.009l-0.035,0.008l-0.035,0.008l-0.035,0.006l-0.036,0.006l-0.035,0.005l-0.036,0.004l-0.036,0.003l-0.036,0.002l-0.036,0.002l-0.037,0l-10.141,0l-0.034,0l-0.035,-0.002l-0.034,-0.002l-0.035,-0.003l-0.034,-0.004l-0.034,-0.004l-0.034,-0.006l-0.033,-0.006l-0.034,-0.007l-0.033,-0.008l-0.033,-0.009l-0.033,-0.009l-0.032,-0.011l-0.033,-0.011l-0.032,-0.012l-0.031,-0.012l-0.032,-0.014l-0.031,-0.014l-0.03,-0.015l-0.03,-0.016l-0.03,-0.016l-0.03,-0.017l-0.029,-0.018l-0.029,-0.019l-0.028,-0.019l-0.028,-0.02l-0.027,-0.021l-0.027,-0.021l-0.026,-0.023l-0.026,-0.022l-0.026,-0.024l-0.025,-0.024l-0.024,-0.025l-0.023,-0.025l-0.023,-0.026l-0.022,-0.027l-0.022,-0.027l-0.021,-0.027l-0.02,-0.028l-0.019,-0.028l-0.019,-0.029l-0.018,-0.029l-0.017,-0.029l-0.016,-0.03l-0.016,-0.031l-0.015,-0.03l-0.014,-0.031l-0.013,-0.032l-0.013,-0.031l-0.012,-0.032l-0.011,-0.032l-0.01,-0.033l-0.01,-0.033l-0.009,-0.033l-0.008,-0.033l-0.007,-0.033l-0.006,-0.034l-0.005,-0.034l-0.005,-0.034l-0.004,-0.034l-0.003,-0.034l-0.002,-0.035l-0.001,-0.034l-0.001,-0.035l0,-13.613l0,-0.014l0,0l0.003,-0.051l0.004,-0.049l0.007,-0.049l0.01,-0.049l0.011,-0.047l0.014,-0.046l0.016,-0.046l0.018,-0.044l0.021,-0.043l0.022,-0.043l0.024,-0.04l0.026,-0.04l0.028,-0.038l0.029,-0.037l0.031,-0.035l0.033,-0.034l0.035,-0.032l0.036,-0.031l0.037,-0.029l0.039,-0.027l0.04,-0.025l0.041,-0.024l0.042,-0.021l0.044,-0.02l0.045,-0.017l0.045,-0.015l0.047,-0.013l0.047,-0.011l0.049,-0.009l0.049,-0.006l0.05,-0.004l0.05,-0.001l11.005,0Zm-10.992,1l-0.006,0l0,13.596l0,0.017l0.001,0.01l0.001,0.019l0.001,0.01l0.002,0.01l0.003,0.018l0.004,0.02l0.006,0.018l0.005,0.018l0.008,0.019l0.007,0.017l0.009,0.018l0.01,0.017l0.01,0.016l0.005,0.008l0.006,0.008l0.006,0.008l0.013,0.015l0.006,0.007l0.007,0.007l0.007,0.008l0.014,0.013l0.008,0.007l0.014,0.012l0.008,0.006l0.009,0.006l0.015,0.01l0.017,0.01l0.017,0.009l0.017,0.009l0.01,0.004l0.018,0.007l0.017,0.006l0.02,0.005l0.018,0.004l0.019,0.003l0.02,0.003l0.021,0.001l0.008,0.001l0.016,0l10.128,0l0.019,0l0.012,-0.001l0.01,0l0.011,-0.001l0.013,-0.002l0.011,-0.001l0.01,-0.002l0.012,-0.002l0.011,-0.003l0.011,-0.002l0.011,-0.003l0.01,-0.003l0.012,-0.004l0.011,-0.003l0.009,-0.004l0.011,-0.004l0.01,-0.005l0.01,-0.004l0.011,-0.006l0.01,-0.005l0.009,-0.005l0.01,-0.006l0.01,-0.006l0.009,-0.005l0.009,-0.007l0.01,-0.007l0.009,-0.007l0.009,-0.007l0.009,-0.007l0.008,-0.007l0.009,-0.008l0.008,-0.009l0.008,-0.008l0.008,-0.008l0.007,-0.008l0.007,-0.009l0.008,-0.01l0.007,-0.008l0.006,-0.009l0.007,-0.01l0.006,-0.009l0.005,-0.009l0.006,-0.01l0.006,-0.01l0.005,-0.011l0.005,-0.01l0.005,-0.01l0.004,-0.011l0.004,-0.009l0.004,-0.011l0.004,-0.011l0.003,-0.011l0.003,-0.01l0.003,-0.012l0.003,-0.01l0.002,-0.011l0.002,-0.012l0.002,-0.011l0.002,-0.011l0.001,-0.011l0.001,-0.012l0.001,-0.011l0,-0.012l0,-0.017l0,-13.527l0,-0.004l-0.001,0l0,-0.001l-0.013,0l-10.98,0Zm-0.006,-0.006l0,0l0,-0.013l0,0.013Z" style="fill:#585858;"/></svg>