<?xml version="1.0" encoding="UTF-8" standalone="no"?><!DOCTYPE svg PUBLIC "-//W3C//DTD SVG 1.1//EN" "http://www.w3.org/Graphics/SVG/1.1/DTD/svg11.dtd"><svg width="100%" height="100%" viewBox="0 0 17 26" version="1.1" xmlns="http://www.w3.org/2000/svg" xmlns:xlink="http://www.w3.org/1999/xlink" xml:space="preserve" style="fill-rule:evenodd;clip-rule:evenodd;stroke-linejoin:round;stroke-miterlimit:1.41421;"><path id="App" d="M1283.08,-242c0,-1.326 -0.527,-2.598 -1.464,-3.536c-0.938,-0.937 -2.21,-1.464 -3.536,-1.464c-84.243,0 -1205.84,0 -1290.08,0c-1.326,0 -2.598,0.527 -3.536,1.464c-0.937,0.938 -1.464,2.21 -1.464,3.536c0,61.774 0,676.226 0,738c0,1.326 0.527,2.598 1.464,3.536c0.938,0.937 2.21,1.464 3.536,1.464c84.243,0 1205.84,0 1290.08,0c1.326,0 2.598,-0.527 3.536,-1.464c0.937,-0.938 1.464,-2.21 1.464,-3.536c0,-61.774 0,-676.226 0,-738Z" style="fill:none;"/><clipPath id="_clip1"><path d="M1283.08,-242c0,-1.326 -0.527,-2.598 -1.464,-3.536c-0.938,-0.937 -2.21,-1.464 -3.536,-1.464c-84.243,0 -1205.84,0 -1290.08,0c-1.326,0 -2.598,0.527 -3.536,1.464c-0.937,0.938 -1.464,2.21 -1.464,3.536c0,61.774 0,676.226 0,738c0,1.326 0.527,2.598 1.464,3.536c0.938,0.937 2.21,1.464 3.536,1.464c84.243,0 1205.84,0 1290.08,0c1.326,0 2.598,-0.527 3.536,-1.464c0.937,-0.938 1.464,-2.21 1.464,-3.536c0,-61.774 0,-676.226 0,-738Z"/></clipPath><g clip-path="url(#_clip1)"><rect id="sidebar" x="-17" y="-247" width="237" height="748" style="fill:none;"/><path d="M15.625,5l0.034,0l0.035,0.002l0.033,0.002l0.034,0.003l0.034,0.003l0.033,0.005l0.034,0.005l0.033,0.007l0.033,0.007l0.032,0.007l0.033,0.009l0.032,0.009l0.032,0.011l0.032,0.01l0.031,0.012l0.031,0.013l0.031,0.013l0.031,0.014l0.03,0.014l0.03,0.016l0.029,0.016l0.029,0.017l0.029,0.018l0.028,0.018l0.028,0.019l0.027,0.02l0.027,0.02l0.027,0.021l0.026,0.022l0.025,0.023l0.025,0.023l0.024,0.024l0.024,0.024l0.023,0.025l0.023,0.025l0.022,0.026l0.021,0.027l0.02,0.027l0.02,0.027l0.019,0.028l0.018,0.028l0.018,0.029l0.017,0.029l0.016,0.029l0.015,0.03l0.015,0.03l0.014,0.031l0.013,0.031l0.013,0.031l0.012,0.031l0.01,0.032l0.011,0.032l0.009,0.032l0.009,0.033l0.007,0.032l0.007,0.033l0.007,0.033l0.005,0.034l0.005,0.033l0.003,0.034l0.003,0.034l0.002,0.033l0.002,0.034l0,0.035l0,13.25l0,0.035l-0.002,0.034l-0.002,0.033l-0.003,0.034l-0.003,0.034l-0.005,0.033l-0.005,0.034l-0.007,0.033l-0.007,0.033l-0.007,0.032l-0.009,0.033l-0.009,0.032l-0.011,0.032l-0.01,0.032l-0.012,0.031l-0.013,0.031l-0.013,0.031l-0.014,0.031l-0.015,0.03l-0.015,0.03l-0.016,0.029l-0.017,0.029l-0.018,0.029l-0.018,0.028l-0.019,0.028l-0.02,0.027l-0.02,0.027l-0.021,0.027l-0.022,0.026l-0.023,0.025l-0.023,0.025l-0.024,0.024l-0.024,0.024l-0.025,0.023l-0.025,0.023l-0.026,0.022l-0.027,0.021l-0.027,0.02l-0.027,0.02l-0.028,0.019l-0.028,0.018l-0.029,0.018l-0.029,0.017l-0.029,0.016l-0.03,0.016l-0.03,0.014l-0.031,0.014l-0.031,0.013l-0.031,0.013l-0.031,0.012l-0.032,0.01l-0.032,0.011l-0.032,0.009l-0.033,0.009l-0.032,0.007l-0.033,0.007l-0.033,0.007l-0.034,0.005l-0.033,0.005l-0.034,0.003l-0.034,0.003l-0.033,0.002l-0.035,0.002l-0.034,0l-10.25,0l-0.034,0l-0.035,-0.002l-0.033,-0.002l-0.034,-0.003l-0.034,-0.003l-0.033,-0.005l-0.034,-0.005l-0.033,-0.007l-0.033,-0.007l-0.032,-0.007l-0.033,-0.009l-0.032,-0.009l-0.032,-0.011l-0.032,-0.01l-0.031,-0.012l-0.031,-0.013l-0.031,-0.013l-0.031,-0.014l-0.03,-0.014l-0.03,-0.016l-0.029,-0.016l-0.029,-0.017l-0.029,-0.018l-0.028,-0.018l-0.028,-0.019l-0.027,-0.02l-0.027,-0.02l-0.027,-0.021l-0.026,-0.022l-0.025,-0.023l-0.025,-0.023l-0.024,-0.024l-0.024,-0.024l-0.023,-0.025l-0.023,-0.025l-0.022,-0.026l-0.021,-0.027l-0.02,-0.027l-0.02,-0.027l-0.019,-0.028l-0.018,-0.028l-0.018,-0.029l-0.017,-0.029l-0.016,-0.029l-0.015,-0.03l-0.015,-0.03l-0.014,-0.031l-0.013,-0.031l-0.013,-0.031l-0.012,-0.031l-0.01,-0.032l-0.011,-0.032l-0.009,-0.032l-0.009,-0.033l-0.007,-0.032l-0.007,-0.033l-0.007,-0.033l-0.005,-0.034l-0.005,-0.033l-0.003,-0.034l-0.003,-0.034l-0.002,-0.033l-0.002,-0.034l0,-0.035l0,-13.25l0,-0.035l0.002,-0.034l0.002,-0.033l0.003,-0.034l0.003,-0.034l0.005,-0.033l0.005,-0.034l0.007,-0.033l0.007,-0.033l0.007,-0.032l0.009,-0.033l0.009,-0.032l0.011,-0.032l0.01,-0.032l0.012,-0.031l0.013,-0.031l0.013,-0.031l0.014,-0.031l0.015,-0.03l0.015,-0.03l0.016,-0.029l0.017,-0.029l0.018,-0.029l0.018,-0.028l0.019,-0.028l0.02,-0.027l0.02,-0.027l0.021,-0.027l0.022,-0.026l0.023,-0.025l0.023,-0.025l0.024,-0.024l0.024,-0.024l0.025,-0.023l0.025,-0.023l0.026,-0.022l0.027,-0.021l0.027,-0.02l0.027,-0.02l0.028,-0.019l0.028,-0.018l0.029,-0.018l0.029,-0.017l0.029,-0.016l0.03,-0.016l0.03,-0.014l0.031,-0.014l0.031,-0.013l0.031,-0.013l0.031,-0.012l0.032,-0.01l0.032,-0.011l0.032,-0.009l0.033,-0.009l0.032,-0.007l0.033,-0.007l0.033,-0.007l0.034,-0.005l0.033,-0.005l0.034,-0.003l0.034,-0.003l0.033,-0.002l0.035,-0.002l0.034,0l10.25,0Zm-10.244,1l-0.016,0l-0.009,0.001l-0.009,0l-0.01,0.001l-0.008,0.001l-0.01,0.001l-0.009,0.002l-0.009,0.001l-0.009,0.002l-0.008,0.002l-0.009,0.003l-0.009,0.002l-0.009,0.003l-0.009,0.003l-0.008,0.003l-0.009,0.003l-0.008,0.004l-0.009,0.004l-0.008,0.004l-0.008,0.004l-0.008,0.005l-0.008,0.004l-0.007,0.005l-0.008,0.005l-0.008,0.005l-0.007,0.006l-0.007,0.005l-0.008,0.006l-0.007,0.006l-0.007,0.006l-0.006,0.006l-0.007,0.007l-0.007,0.007l-0.006,0.006l-0.006,0.007l-0.006,0.007l-0.006,0.008l-0.005,0.007l-0.006,0.007l-0.005,0.008l-0.005,0.008l-0.005,0.007l-0.004,0.008l-0.005,0.008l-0.004,0.008l-0.004,0.009l-0.004,0.008l-0.003,0.008l-0.004,0.009l-0.003,0.008l-0.003,0.009l-0.003,0.009l-0.002,0.008l-0.003,0.009l-0.002,0.009l-0.002,0.009l-0.001,0.009l-0.002,0.009l-0.001,0.009l-0.001,0.01l-0.001,0.009l0,0.009l-0.001,0.009l0,0.016l0,13.238l0,0.016l0.001,0.009l0,0.009l0.001,0.009l0.001,0.01l0.001,0.009l0.002,0.009l0.001,0.009l0.002,0.009l0.002,0.009l0.003,0.009l0.002,0.008l0.003,0.009l0.003,0.009l0.003,0.008l0.004,0.009l0.003,0.008l0.004,0.008l0.004,0.009l0.004,0.008l0.005,0.008l0.004,0.008l0.005,0.007l0.005,0.008l0.005,0.008l0.006,0.007l0.005,0.007l0.006,0.008l0.006,0.007l0.006,0.007l0.006,0.006l0.007,0.007l0.007,0.007l0.006,0.006l0.007,0.006l0.007,0.006l0.008,0.006l0.007,0.005l0.007,0.006l0.008,0.005l0.008,0.005l0.007,0.005l0.008,0.004l0.008,0.005l0.008,0.004l0.008,0.004l0.009,0.004l0.008,0.004l0.009,0.003l0.008,0.003l0.009,0.003l0.009,0.003l0.009,0.002l0.009,0.003l0.008,0.002l0.009,0.002l0.009,0.001l0.009,0.002l0.01,0.001l0.008,0.001l0.01,0.001l0.009,0l0.009,0.001l0.016,0l10.238,0l0.016,0l0.009,-0.001l0.009,0l0.01,-0.001l0.008,-0.001l0.01,-0.001l0.009,-0.002l0.009,-0.001l0.009,-0.002l0.008,-0.002l0.009,-0.003l0.009,-0.002l0.009,-0.003l0.009,-0.003l0.008,-0.003l0.009,-0.004l0.008,-0.003l0.009,-0.004l0.008,-0.004l0.008,-0.004l0.008,-0.005l0.008,-0.004l0.007,-0.005l0.008,-0.005l0.008,-0.005l0.007,-0.006l0.007,-0.005l0.008,-0.006l0.007,-0.006l0.007,-0.006l0.006,-0.006l0.007,-0.007l0.007,-0.007l0.006,-0.006l0.006,-0.007l0.006,-0.007l0.006,-0.008l0.005,-0.007l0.006,-0.007l0.005,-0.008l0.005,-0.008l0.005,-0.007l0.004,-0.008l0.005,-0.008l0.004,-0.008l0.004,-0.009l0.004,-0.008l0.003,-0.008l0.004,-0.009l0.003,-0.008l0.003,-0.009l0.003,-0.009l0.002,-0.009l0.003,-0.008l0.002,-0.009l0.002,-0.009l0.001,-0.009l0.002,-0.009l0.001,-0.009l0.001,-0.01l0.001,-0.009l0,-0.009l0.001,-0.009l0,-0.016l0,-13.238l0,-0.016l-0.001,-0.009l0,-0.009l-0.001,-0.009l-0.001,-0.01l-0.001,-0.009l-0.002,-0.009l-0.001,-0.009l-0.002,-0.009l-0.002,-0.009l-0.003,-0.008l-0.002,-0.009l-0.003,-0.009l-0.003,-0.009l-0.003,-0.008l-0.004,-0.009l-0.003,-0.008l-0.004,-0.008l-0.004,-0.009l-0.004,-0.008l-0.005,-0.008l-0.004,-0.008l-0.005,-0.007l-0.005,-0.008l-0.005,-0.008l-0.006,-0.007l-0.005,-0.007l-0.006,-0.008l-0.006,-0.007l-0.006,-0.007l-0.006,-0.006l-0.007,-0.007l-0.007,-0.007l-0.006,-0.006l-0.007,-0.006l-0.007,-0.006l-0.008,-0.006l-0.007,-0.005l-0.007,-0.006l-0.008,-0.005l-0.008,-0.005l-0.007,-0.005l-0.008,-0.004l-0.008,-0.005l-0.008,-0.004l-0.008,-0.004l-0.009,-0.004l-0.008,-0.003l-0.009,-0.004l-0.008,-0.003l-0.009,-0.003l-0.009,-0.003l-0.009,-0.002l-0.009,-0.003l-0.008,-0.002l-0.009,-0.002l-0.009,-0.001l-0.009,-0.002l-0.01,-0.001l-0.008,-0.001l-0.01,-0.001l-0.009,0l-0.009,-0.001l-0.016,0l-10.238,0Z" style="fill:#fff;"/></g></svg>