<?xml version="1.0" encoding="UTF-8" standalone="no"?><!DOCTYPE svg PUBLIC "-//W3C//DTD SVG 1.1//EN" "http://www.w3.org/Graphics/SVG/1.1/DTD/svg11.dtd"><svg width="100%" height="100%" viewBox="0 0 17 26" version="1.1" xmlns="http://www.w3.org/2000/svg" xmlns:xlink="http://www.w3.org/1999/xlink" xml:space="preserve" style="fill-rule:evenodd;clip-rule:evenodd;stroke-linejoin:round;stroke-miterlimit:1.41421;"><path id="App" d="M1283.08,-159c0,-1.326 -0.527,-2.598 -1.464,-3.536c-0.938,-0.937 -2.21,-1.464 -3.536,-1.464c-84.243,0 -1205.84,0 -1290.08,0c-1.326,0 -2.598,0.527 -3.536,1.464c-0.937,0.938 -1.464,2.21 -1.464,3.536c0,61.774 0,676.226 0,738c0,1.326 0.527,2.598 1.464,3.536c0.938,0.937 2.21,1.464 3.536,1.464c84.243,0 1205.84,0 1290.08,0c1.326,0 2.598,-0.527 3.536,-1.464c0.937,-0.938 1.464,-2.21 1.464,-3.536c0,-61.774 0,-676.226 0,-738Z" style="fill:none;"/><clipPath id="_clip1"><path d="M1283.08,-159c0,-1.326 -0.527,-2.598 -1.464,-3.536c-0.938,-0.937 -2.21,-1.464 -3.536,-1.464c-84.243,0 -1205.84,0 -1290.08,0c-1.326,0 -2.598,0.527 -3.536,1.464c-0.937,0.938 -1.464,2.21 -1.464,3.536c0,61.774 0,676.226 0,738c0,1.326 0.527,2.598 1.464,3.536c0.938,0.937 2.21,1.464 3.536,1.464c84.243,0 1205.84,0 1290.08,0c1.326,0 2.598,-0.527 3.536,-1.464c0.937,-0.938 1.464,-2.21 1.464,-3.536c0,-61.774 0,-676.226 0,-738Z"/></clipPath><g clip-path="url(#_clip1)"><rect id="sidebar" x="-17" y="-164" width="237" height="748" style="fill:none;"/><clipPath id="_clip2"><rect x="-17" y="-164" width="237" height="748"/></clipPath><g clip-path="url(#_clip2)"><g id="favorite-group__folder-item"><path id="Folder" d="M220,-26l-220.965,0l-16.035,0l0,26l237,0l0,-26Z" style="fill:none;"/></g><g id="favorite-group__folder-item--active"><rect id="FolderActive" x="-17" y="0" width="237" height="26" style="fill:none;"/><clipPath id="_clip3"><rect id="FolderActive1" x="-17" y="0" width="237" height="26"/></clipPath><g clip-path="url(#_clip3)"><g><path d="M1.066,6l7.821,0l0.048,0.001l0.048,0.004l0.047,0.006l0.046,0.009l0.046,0.011l0.045,0.013l0.045,0.016l0.043,0.018l0.043,0.021l0.041,0.022l0.04,0.025l0.039,0.026l0.038,0.029l0.036,0.031l0.035,0.033l0.033,0.034l0.031,0.037l0.029,0.038l0.027,0.039l0.025,0.04l0.022,0.042l0.02,0.043l0.018,0.043l0.016,0.044l0.013,0.046l0.011,0.045l0.009,0.047l0.006,0.047l0.004,0.047l0.001,0.047l-0.001,0.048l-0.004,0.048l0,0l-0.004,0.048l-0.001,0.048l0.001,0.047l0.004,0.047l0.006,0.047l0.009,0.047l0.011,0.045l0.013,0.046l0.016,0.044l0.018,0.043l0.02,0.043l0.023,0.042l0.025,0.04l0.026,0.039l0.029,0.038l0.032,0.037l0.033,0.034l0.034,0.033l0.036,0.031l0.038,0.029l0.039,0.026l0.04,0.025l0.042,0.022l0.042,0.021l0.044,0.018l0.044,0.016l0.045,0.013l0.046,0.011l0.047,0.009l0.047,0.006l0.047,0.004l0.048,0.001l4.991,0l0.035,0l0.035,0.002l0.035,0.002l0.035,0.003l0.035,0.004l0.034,0.005l0.034,0.005l0.033,0.007l0.034,0.007l0.033,0.008l0.032,0.009l0.033,0.01l0.032,0.01l0.032,0.011l0.031,0.012l0.031,0.013l0.031,0.013l0.03,0.014l0.03,0.015l0.029,0.016l0.029,0.016l0.028,0.017l0.029,0.017l0.027,0.018l0.027,0.019l0.027,0.02l0.026,0.02l0.026,0.02l0.025,0.022l0.025,0.022l0.024,0.022l0.023,0.023l0.023,0.024l0.023,0.024l0.022,0.024l0.021,0.026l0.021,0.025l0.02,0.026l0.019,0.027l0.019,0.027l0.018,0.028l0.018,0.028l0.016,0.028l0.017,0.029l0.015,0.03l0.015,0.03l0.014,0.03l0.013,0.03l0.013,0.031l0.012,0.032l0.011,0.031l0.011,0.032l0.009,0.033l0.009,0.033l0.008,0.033l0.007,0.033l0.007,0.034l0.006,0.034l0.004,0.034l0.004,0.034l0.003,0.035l0.003,0.035l0.001,0.035l0,0.036l0,8.165l0,0.036l-0.001,0.036l-0.003,0.037l-0.003,0.035l-0.004,0.036l-0.005,0.036l-0.005,0.035l-0.007,0.036l-0.007,0.035l-0.009,0.034l-0.009,0.035l-0.01,0.034l-0.011,0.034l-0.011,0.034l-0.013,0.033l-0.013,0.033l-0.014,0.033l-0.015,0.033l-0.015,0.032l-0.017,0.031l-0.017,0.032l-0.018,0.031l-0.019,0.03l-0.019,0.03l-0.021,0.03l-0.021,0.029l-0.021,0.028l-0.023,0.029l-0.023,0.027l-0.024,0.027l-0.025,0.027l-0.025,0.026l-0.026,0.025l-0.026,0.025l-0.027,0.024l-0.028,0.023l-0.028,0.022l-0.029,0.022l-0.029,0.021l-0.03,0.02l-0.03,0.02l-0.03,0.019l-0.031,0.018l-0.031,0.017l-0.032,0.016l-0.032,0.016l-0.032,0.015l-0.033,0.014l-0.033,0.013l-0.034,0.012l-0.033,0.012l-0.034,0.011l-0.035,0.01l-0.034,0.009l-0.035,0.008l-0.035,0.008l-0.035,0.006l-0.036,0.006l-0.035,0.005l-0.036,0.004l-0.036,0.003l-0.036,0.002l-0.036,0.002l-0.037,0l-14.14,0l-0.035,0l-0.035,-0.002l-0.034,-0.002l-0.035,-0.003l-0.034,-0.004l-0.034,-0.004l-0.034,-0.006l-0.033,-0.006l-0.034,-0.007l-0.033,-0.008l-0.033,-0.009l-0.033,-0.009l-0.032,-0.011l-0.033,-0.011l-0.032,-0.012l-0.031,-0.012l-0.031,-0.014l-0.031,-0.014l-0.031,-0.015l-0.03,-0.016l-0.03,-0.016l-0.03,-0.017l-0.029,-0.018l-0.029,-0.019l-0.028,-0.019l-0.028,-0.02l-0.027,-0.021l-0.027,-0.021l-0.026,-0.023l-0.026,-0.022l-0.026,-0.024l-0.024,-0.024l-0.025,-0.025l-0.023,-0.025l-0.023,-0.026l-0.022,-0.027l-0.022,-0.027l-0.02,-0.027l-0.021,-0.028l-0.019,-0.028l-0.019,-0.029l-0.017,-0.029l-0.018,-0.029l-0.016,-0.03l-0.016,-0.031l-0.015,-0.03l-0.014,-0.031l-0.013,-0.031l-0.013,-0.032l-0.012,-0.032l-0.011,-0.032l-0.01,-0.033l-0.01,-0.033l-0.009,-0.033l-0.007,-0.033l-0.008,-0.033l-0.006,-0.034l-0.005,-0.034l-0.005,-0.034l-0.004,-0.034l-0.003,-0.034l-0.002,-0.035l-0.001,-0.034l-0.001,-0.035l0,-10.596l0,-0.014l0,-0.001l0.003,-0.051l0.004,-0.051l0.007,-0.05l0.01,-0.049l0.011,-0.048l0.015,-0.047l0.016,-0.046l0.018,-0.045l0.021,-0.044l0.022,-0.043l0.025,-0.041l0.026,-0.041l0.028,-0.039l0.03,-0.037l0.032,-0.036l0.033,-0.034l0.035,-0.033l0.037,-0.031l0.038,-0.03l0.039,-0.027l0.04,-0.026l0.042,-0.024l0.044,-0.022l0.044,-0.019l0.045,-0.018l0.047,-0.016l0.047,-0.013l0.048,-0.011l0.049,-0.009l0.05,-0.006l0.051,-0.004l0.051,-0.001l0.008,0Zm0.005,1l-0.014,0l-0.001,0l0,0l0,0l0,0l0,0.001l-0.001,0l0,0l0,0l0,0l-0.001,0l0,0.001l-0.001,0l0,0l0,0.001l-0.001,0l0,0.001l-0.001,0l0,0.001l0,0l0,0l0,0l0,0l0,0l0,0l0,0.001l0,0.001l-0.001,0.009l0,10.581l0.001,0.016l0,0.01l0.001,0.009l0,0.01l0.001,0.01l0.002,0.01l0.001,0.009l0.002,0.01l0.002,0.009l0.002,0.01l0.003,0.009l0.003,0.009l0.003,0.01l0.003,0.009l0.003,0.009l0.004,0.009l0.003,0.009l0.005,0.009l0.004,0.008l0.004,0.009l0.005,0.008l0.005,0.009l0.005,0.008l0.005,0.008l0.006,0.008l0.005,0.008l0.006,0.008l0.006,0.007l0.007,0.008l0.006,0.007l0.007,0.008l0.007,0.007l0.007,0.007l0.007,0.006l0.007,0.007l0.008,0.006l0.007,0.006l0.008,0.006l0.008,0.006l0.008,0.005l0.008,0.005l0.009,0.006l0.008,0.005l0.009,0.004l0.008,0.005l0.009,0.004l0.009,0.004l0.009,0.004l0.009,0.003l0.009,0.004l0.009,0.003l0.009,0.003l0.009,0.002l0.01,0.003l0.009,0.002l0.01,0.002l0.009,0.002l0.01,0.002l0.01,0.001l0.009,0.001l0.01,0.001l0.01,0l0.01,0.001l0.016,0l14.128,0l0.018,0l0.011,-0.001l0.012,0l0.011,-0.001l0.011,-0.002l0.012,-0.001l0.011,-0.002l0.011,-0.002l0.011,-0.002l0.011,-0.003l0.011,-0.003l0.011,-0.003l0.01,-0.003l0.011,-0.004l0.011,-0.004l0.01,-0.004l0.011,-0.005l0.01,-0.004l0.01,-0.005l0.01,-0.006l0.01,-0.005l0.009,-0.006l0.01,-0.006l0.01,-0.006l0.009,-0.006l0.009,-0.007l0.009,-0.007l0.009,-0.007l0.009,-0.007l0.008,-0.008l0.009,-0.007l0.008,-0.008l0.008,-0.009l0.008,-0.008l0.007,-0.009l0.008,-0.008l0.007,-0.009l0.007,-0.009l0.006,-0.009l0.007,-0.01l0.006,-0.009l0.006,-0.01l0.005,-0.01l0.006,-0.009l0.005,-0.01l0.005,-0.011l0.005,-0.01l0.004,-0.01l0.004,-0.011l0.004,-0.01l0.004,-0.011l0.003,-0.011l0.003,-0.011l0.003,-0.01l0.003,-0.011l0.002,-0.012l0.002,-0.011l0.002,-0.011l0.002,-0.011l0.001,-0.011l0.001,-0.012l0.001,-0.011l0,-0.011l0,-0.018l0,-8.153l0,-0.016l0,-0.01l-0.001,-0.01l-0.001,-0.01l-0.001,-0.009l-0.001,-0.009l-0.002,-0.009l-0.001,-0.009l-0.002,-0.009l-0.002,-0.009l-0.003,-0.009l-0.002,-0.009l-0.003,-0.008l-0.003,-0.008l-0.003,-0.009l-0.004,-0.008l-0.003,-0.008l-0.004,-0.008l-0.004,-0.008l-0.004,-0.008l-0.004,-0.008l-0.005,-0.008l-0.005,-0.007l-0.005,-0.008l-0.005,-0.007l-0.005,-0.008l-0.006,-0.007l-0.006,-0.007l-0.005,-0.007l-0.006,-0.007l-0.006,-0.006l-0.007,-0.007l-0.006,-0.006l-0.007,-0.006l-0.007,-0.006l-0.007,-0.006l-0.007,-0.006l-0.007,-0.005l-0.007,-0.006l-0.008,-0.005l-0.007,-0.005l-0.008,-0.005l-0.008,-0.004l-0.007,-0.004l-0.008,-0.005l-0.008,-0.004l-0.008,-0.003l-0.009,-0.004l-0.008,-0.003l-0.008,-0.004l-0.009,-0.003l-0.008,-0.002l-0.009,-0.003l-0.008,-0.002l-0.009,-0.002l-0.009,-0.002l-0.009,-0.002l-0.009,-0.002l-0.01,-0.001l-0.009,-0.001l-0.01,-0.001l-0.009,0l-0.01,-0.001l-0.017,0l-4.997,0l-0.088,-0.002l-0.1,-0.008l-0.099,-0.013l-0.098,-0.019l-0.097,-0.023l-0.095,-0.028l-0.093,-0.034l-0.092,-0.037l-0.089,-0.043l-0.087,-0.047l-0.085,-0.052l-0.082,-0.056l-0.079,-0.061l-0.076,-0.065l-0.073,-0.069l-0.07,-0.073l-0.065,-0.077l-0.061,-0.08l-0.057,-0.082l-0.052,-0.085l-0.047,-0.088l-0.043,-0.089l-0.038,-0.092l-0.033,-0.093l-0.028,-0.095l-0.023,-0.097l-0.018,-0.097l-0.014,-0.099l-0.007,-0.099l-0.003,-0.1l0.002,-0.097l-7.713,0Z" style="fill:#fff;"/><path d="M16.277,8.5l-1.277,-0.5l-14.5,0l0,10l0.872,0.5l14.128,0l0.777,-0.5l0,-9.5Z" style="fill:#fff;"/></g></g></g><g id="favorite-group__folder-item1"><path id="Folder1" d="M220,26.38l-220.965,0l-16.035,0l0,26l237,0l0,-26Z" style="fill:none;"/></g></g></g></svg>