<?xml version="1.0" encoding="UTF-8" standalone="no"?><!DOCTYPE svg PUBLIC "-//W3C//DTD SVG 1.1//EN" "http://www.w3.org/Graphics/SVG/1.1/DTD/svg11.dtd"><svg width="100%" height="100%" viewBox="0 0 17 26" version="1.1" xmlns="http://www.w3.org/2000/svg" xmlns:xlink="http://www.w3.org/1999/xlink" xml:space="preserve" style="fill-rule:evenodd;clip-rule:evenodd;stroke-linejoin:round;stroke-miterlimit:1.41421;"><path id="App" d="M1283.08,-213c0,-1.326 -0.527,-2.598 -1.464,-3.536c-0.938,-0.937 -2.21,-1.464 -3.536,-1.464c-84.243,0 -1205.84,0 -1290.08,0c-1.326,0 -2.598,0.527 -3.536,1.464c-0.937,0.938 -1.464,2.21 -1.464,3.536c0,61.774 0,676.226 0,738c0,1.326 0.527,2.598 1.464,3.536c0.938,0.937 2.21,1.464 3.536,1.464c84.243,0 1205.84,0 1290.08,0c1.326,0 2.598,-0.527 3.536,-1.464c0.937,-0.938 1.464,-2.21 1.464,-3.536c0,-61.774 0,-676.226 0,-738Z" style="fill:none;"/><clipPath id="_clip1"><path d="M1283.08,-213c0,-1.326 -0.527,-2.598 -1.464,-3.536c-0.938,-0.937 -2.21,-1.464 -3.536,-1.464c-84.243,0 -1205.84,0 -1290.08,0c-1.326,0 -2.598,0.527 -3.536,1.464c-0.937,0.938 -1.464,2.21 -1.464,3.536c0,61.774 0,676.226 0,738c0,1.326 0.527,2.598 1.464,3.536c0.938,0.937 2.21,1.464 3.536,1.464c84.243,0 1205.84,0 1290.08,0c1.326,0 2.598,-0.527 3.536,-1.464c0.937,-0.938 1.464,-2.21 1.464,-3.536c0,-61.774 0,-676.226 0,-738Z"/></clipPath><g clip-path="url(#_clip1)"><rect id="sidebar" x="-17" y="-218" width="237" height="748" style="fill:none;"/><clipPath id="_clip2"><rect x="-17" y="-218" width="237" height="748"/></clipPath><g clip-path="url(#_clip2)"><g id="favorite-group__folder-item"><path id="Folder" d="M220,0.383l-220.965,0l-16.035,0l0,26l237,0l0,-26Z" style="fill:none;"/><clipPath id="_clip3"><path id="Folder1" d="M220,0.383l-220.965,0l-16.035,0l0,26l237,0l0,-26Z"/></clipPath><g clip-path="url(#_clip3)"><g><path id="Shape" d="M15.154,4.001l0.048,0.001l0.048,0.004l0.048,0.004l0.048,0.005l0.047,0.007l0.047,0.008l0.046,0.009l0.046,0.01l0.045,0.011l0.045,0.012l0.045,0.014l0.044,0.014l0.044,0.015l0.043,0.017l0.043,0.018l0.042,0.018l0.042,0.02l0.041,0.02l0.04,0.022l0.04,0.022l0.04,0.023l0.039,0.025l0.038,0.025l0.037,0.026l0.037,0.027l0.036,0.027l0.036,0.029l0.034,0.029l0.035,0.031l0.033,0.031l0.032,0.032l0.032,0.032l0.031,0.033l0.031,0.035l0.029,0.034l0.029,0.036l0.027,0.036l0.027,0.037l0.026,0.037l0.025,0.038l0.025,0.039l0.023,0.04l0.022,0.04l0.022,0.04l0.02,0.041l0.02,0.042l0.018,0.042l0.018,0.043l0.017,0.043l0.015,0.044l0.014,0.044l0.014,0.045l0.012,0.045l0.011,0.045l0.01,0.046l0.009,0.046l0.008,0.047l0.007,0.047l0.005,0.048l0.004,0.048l0.004,0.048l0.001,0.048l0.001,0.049l0,14.21l-0.001,0.049l-0.001,0.048l-0.004,0.048l-0.004,0.048l-0.005,0.048l-0.007,0.047l-0.008,0.047l-0.009,0.046l-0.01,0.046l-0.011,0.045l-0.012,0.045l-0.014,0.045l-0.014,0.044l-0.015,0.044l-0.017,0.043l-0.018,0.043l-0.018,0.042l-0.02,0.042l-0.02,0.041l-0.022,0.04l-0.022,0.04l-0.023,0.04l-0.025,0.039l-0.025,0.038l-0.026,0.037l-0.027,0.037l-0.027,0.036l-0.029,0.036l-0.029,0.034l-0.031,0.035l-0.031,0.033l-0.032,0.032l-0.032,0.032l-0.033,0.031l-0.035,0.031l-0.034,0.029l-0.036,0.029l-0.036,0.027l-0.037,0.027l-0.037,0.026l-0.038,0.025l-0.039,0.025l-0.04,0.023l-0.04,0.022l-0.04,0.022l-0.041,0.02l-0.042,0.02l-0.042,0.018l-0.043,0.018l-0.043,0.017l-0.044,0.015l-0.044,0.014l-0.045,0.014l-0.045,0.012l-0.045,0.011l-0.046,0.01l-0.046,0.009l-0.047,0.008l-0.047,0.007l-0.048,0.005l-0.048,0.004l-0.048,0.004l-0.048,0.001l-0.049,0.001l-11.21,0l-0.049,-0.001l-0.048,-0.001l-0.048,-0.004l-0.048,-0.004l-0.048,-0.005l-0.047,-0.007l-0.047,-0.008l-0.046,-0.009l-0.046,-0.01l-0.045,-0.011l-0.045,-0.012l-0.045,-0.014l-0.044,-0.014l-0.044,-0.015l-0.043,-0.017l-0.043,-0.018l-0.042,-0.018l-0.042,-0.02l-0.041,-0.02l-0.04,-0.022l-0.04,-0.022l-0.04,-0.023l-0.039,-0.025l-0.038,-0.025l-0.037,-0.026l-0.037,-0.027l-0.036,-0.027l-0.036,-0.029l-0.034,-0.029l-0.035,-0.031l-0.033,-0.031l-0.032,-0.032l-0.032,-0.032l-0.031,-0.033l-0.031,-0.035l-0.029,-0.034l-0.029,-0.036l-0.027,-0.036l-0.027,-0.037l-0.026,-0.037l-0.025,-0.038l-0.025,-0.039l-0.023,-0.04l-0.022,-0.04l-0.022,-0.04l-0.02,-0.041l-0.02,-0.042l-0.018,-0.042l-0.018,-0.043l-0.017,-0.043l-0.015,-0.044l-0.014,-0.044l-0.014,-0.045l-0.012,-0.045l-0.011,-0.045l-0.01,-0.046l-0.009,-0.046l-0.008,-0.047l-0.007,-0.047l-0.005,-0.048l-0.004,-0.048l-0.004,-0.048l-0.001,-0.048l-0.001,-0.049l0,-12.105l4,-4l9.105,0l0.049,0.001Zm-8.74,0.999l-3.414,3.414l0,11.685l0,0.029l0.001,0.023l0.002,0.023l0.002,0.022l0.002,0.023l0.003,0.022l0.004,0.022l0.004,0.021l0.005,0.022l0.005,0.021l0.006,0.021l0.006,0.021l0.007,0.02l0.007,0.021l0.008,0.02l0.008,0.02l0.009,0.02l0.009,0.019l0.009,0.02l0.011,0.019l0.01,0.019l0.011,0.018l0.012,0.019l0.012,0.018l0.012,0.018l0.013,0.017l0.013,0.018l0.014,0.017l0.014,0.016l0.015,0.017l0.014,0.016l0.016,0.015l0.015,0.015l0.016,0.015l0.017,0.015l0.016,0.014l0.017,0.014l0.017,0.013l0.018,0.013l0.018,0.012l0.018,0.012l0.018,0.012l0.019,0.011l0.019,0.01l0.019,0.011l0.019,0.009l0.02,0.009l0.02,0.009l0.02,0.008l0.02,0.008l0.021,0.007l0.02,0.007l0.021,0.006l0.021,0.006l0.021,0.005l0.022,0.005l0.021,0.004l0.022,0.004l0.022,0.003l0.023,0.002l0.022,0.002l0.023,0.002l0.023,0.001l0.029,0l11.198,0l0.029,0l0.023,-0.001l0.023,-0.002l0.022,-0.002l0.023,-0.002l0.022,-0.003l0.022,-0.004l0.021,-0.004l0.022,-0.005l0.021,-0.005l0.021,-0.006l0.021,-0.006l0.02,-0.007l0.021,-0.007l0.02,-0.008l0.02,-0.008l0.02,-0.009l0.02,-0.009l0.019,-0.009l0.019,-0.011l0.019,-0.01l0.019,-0.011l0.018,-0.012l0.018,-0.012l0.018,-0.012l0.018,-0.013l0.017,-0.013l0.017,-0.014l0.016,-0.014l0.017,-0.015l0.016,-0.015l0.015,-0.015l0.016,-0.015l0.014,-0.016l0.015,-0.017l0.014,-0.016l0.014,-0.017l0.013,-0.018l0.013,-0.017l0.012,-0.018l0.012,-0.018l0.012,-0.019l0.011,-0.018l0.01,-0.019l0.011,-0.019l0.009,-0.02l0.009,-0.019l0.009,-0.02l0.008,-0.02l0.008,-0.02l0.007,-0.021l0.007,-0.02l0.006,-0.021l0.006,-0.021l0.005,-0.021l0.005,-0.022l0.004,-0.022l0.004,-0.021l0.003,-0.022l0.002,-0.023l0.002,-0.022l0.002,-0.023l0.001,-0.023l0,-0.029l0,-14.198l0,-0.029l-0.001,-0.023l-0.002,-0.023l-0.002,-0.022l-0.002,-0.023l-0.003,-0.022l-0.004,-0.021l-0.004,-0.022l-0.005,-0.022l-0.005,-0.021l-0.006,-0.021l-0.006,-0.021l-0.007,-0.02l-0.007,-0.021l-0.008,-0.02l-0.008,-0.02l-0.009,-0.02l-0.009,-0.019l-0.01,-0.02l-0.01,-0.019l-0.01,-0.019l-0.011,-0.018l-0.012,-0.019l-0.012,-0.018l-0.012,-0.018l-0.013,-0.017l-0.013,-0.018l-0.014,-0.017l-0.014,-0.016l-0.015,-0.017l-0.014,-0.016l-0.016,-0.015l-0.015,-0.016l-0.016,-0.014l-0.017,-0.015l-0.016,-0.014l-0.017,-0.014l-0.017,-0.013l-0.018,-0.013l-0.018,-0.012l-0.018,-0.012l-0.018,-0.012l-0.019,-0.011l-0.019,-0.01l-0.019,-0.01l-0.02,-0.01l-0.019,-0.009l-0.02,-0.009l-0.02,-0.008l-0.02,-0.008l-0.021,-0.007l-0.02,-0.007l-0.021,-0.006l-0.021,-0.006l-0.022,-0.005l-0.021,-0.005l-0.022,-0.004l-0.021,-0.004l-0.022,-0.003l-0.023,-0.002l-0.022,-0.002l-0.023,-0.002l-0.023,-0.001l-0.029,0l-8.685,0Z" style="fill:#fff;"/><rect x="8" y="6" width="1" height="3" style="fill:#fff;"/><rect x="10" y="6" width="1" height="3" style="fill:#fff;"/><rect x="12" y="6" width="1" height="3" style="fill:#fff;"/><rect x="14" y="6" width="1" height="3" style="fill:#fff;"/></g></g></g></g></g></svg>