<?xml version="1.0" encoding="UTF-8" standalone="no"?><!DOCTYPE svg PUBLIC "-//W3C//DTD SVG 1.1//EN" "http://www.w3.org/Graphics/SVG/1.1/DTD/svg11.dtd"><svg width="100%" height="100%" viewBox="0 0 128 35" version="1.1" xmlns="http://www.w3.org/2000/svg" xmlns:xlink="http://www.w3.org/1999/xlink" xml:space="preserve" style="fill-rule:evenodd;clip-rule:evenodd;stroke-linejoin:round;stroke-miterlimit:1.41421;"><g><path id="Base" d="M77,17.5c0,-3.863 -3.137,-7 -7,-7l-12,0c-3.863,0 -7,3.137 -7,7c0,3.863 3.137,7 7,7l12,0c3.863,0 7,-3.137 7,-7Z" style="fill:#36968b;"/></g><g><path d="M101.129,5.706l0.078,0.001l0.077,0.003l0.078,0.003l0.077,0.005l0.077,0.006l0.077,0.006l0.076,0.008l0.077,0.008l0.076,0.01l0.075,0.01l0.075,0.012l0.076,0.012l0.074,0.013l0.075,0.015l0.074,0.015l0.073,0.016l0.074,0.017l0.073,0.018l0.073,0.019l0.072,0.02l0.072,0.021l0.072,0.021l0.071,0.023l0.071,0.023l0.071,0.024l0.07,0.025l0.07,0.026l0.069,0.027l0.069,0.028l0.069,0.028l0.068,0.03l0.067,0.03l0.068,0.031l0.067,0.032l0.066,0.033l0.066,0.033l0.066,0.034l0.065,0.035l0.064,0.036l0.064,0.037l0.064,0.037l0.063,0.038l0.063,0.039l0.062,0.04l0.062,0.04l0.061,0.042l0.061,0.042l0.06,0.042l0.06,0.044l0.059,0.044l0.058,0.045l0.058,0.045l0.058,0.046l0.057,0.047l0.056,0.048l0.056,0.048l0.055,0.049l0.055,0.05l0.054,0.05l0.054,0.051l0.053,0.052l0.052,0.052l0.052,0.053l0.051,0.054l0.05,0.054l0.05,0.055l0.049,0.055l0.049,0.056l0.048,0.057l0.047,0.057l0.047,0.058l0.046,0.058l0.045,0.059l0.045,0.06l0.044,0.06l0.043,0.061l0.043,0.061l0.042,0.062l0.041,0.062l0.04,0.063l0.04,0.063l0.039,0.064l0.038,0.065l0.038,0.065l0.037,0.065l0.036,0.066l0.035,0.066l0.035,0.067l0.034,0.068l0.033,0.068l0.032,0.068l0.032,0.069l0.031,0.069l0.029,0.07l0.03,0.07l0.028,0.07l0.028,0.072l0.026,0.071l0.026,0.072l0.025,0.072l0.025,0.073l0.023,0.073l0.023,0.073l0.021,0.074l0.021,0.074l0.02,0.075l0.019,0.075l0.018,0.075l0.018,0.076l0.016,0.076l0.016,0.077l0.015,0.076l0.013,0.077l0.013,0.078l0.012,0.077l0.011,0.078l0.01,0.079l0.01,0.078l0.008,0.079l0.007,0.079l0.006,0.08l0.006,0.08l0.004,0.08l0.004,0.08l0.002,0.081l0.002,0.08l0,0.082l0,3.635l-12.117,0l0,-3.635l0,-0.082l0.002,-0.08l0.002,-0.081l0.003,-0.08l0.005,-0.08l0.005,-0.08l0.007,-0.08l0.007,-0.079l0.008,-0.079l0.009,-0.078l0.01,-0.079l0.011,-0.078l0.012,-0.077l0.013,-0.078l0.014,-0.077l0.015,-0.077l0.015,-0.076l0.017,-0.076l0.017,-0.076l0.018,-0.075l0.02,-0.075l0.02,-0.075l0.02,-0.074l0.022,-0.074l0.023,-0.073l0.023,-0.073l0.024,-0.073l0.025,-0.072l0.026,-0.072l0.027,-0.072l0.028,-0.071l0.028,-0.07l0.029,-0.07l0.03,-0.07l0.031,-0.069l0.031,-0.069l0.033,-0.068l0.033,-0.068l0.034,-0.068l0.034,-0.067l0.036,-0.066l0.036,-0.066l0.037,-0.065l0.037,-0.065l0.039,-0.065l0.039,-0.064l0.039,-0.063l0.041,-0.063l0.041,-0.062l0.042,-0.062l0.043,-0.061l0.043,-0.061l0.044,-0.06l0.045,-0.06l0.045,-0.059l0.046,-0.058l0.046,-0.058l0.048,-0.057l0.048,-0.057l0.048,-0.056l0.05,-0.055l0.049,-0.055l0.051,-0.054l0.051,-0.054l0.052,-0.053l0.052,-0.052l0.053,-0.052l0.053,-0.051l0.055,-0.05l0.054,-0.05l0.056,-0.049l0.055,-0.048l0.057,-0.048l0.057,-0.047l0.057,-0.046l0.058,-0.045l0.059,-0.045l0.059,-0.044l0.06,-0.044l0.06,-0.042l0.061,-0.042l0.061,-0.042l0.061,-0.04l0.063,-0.04l0.062,-0.039l0.064,-0.038l0.063,-0.037l0.064,-0.037l0.065,-0.036l0.065,-0.035l0.066,-0.034l0.066,-0.033l0.066,-0.033l0.067,-0.032l0.067,-0.031l0.068,-0.03l0.068,-0.03l0.069,-0.028l0.069,-0.028l0.069,-0.027l0.07,-0.026l0.07,-0.025l0.071,-0.024l0.07,-0.023l0.072,-0.023l0.071,-0.021l0.073,-0.021l0.072,-0.02l0.073,-0.019l0.073,-0.018l0.073,-0.017l0.074,-0.016l0.074,-0.015l0.074,-0.015l0.075,-0.013l0.075,-0.012l0.075,-0.012l0.076,-0.01l0.076,-0.01l0.076,-0.008l0.077,-0.008l0.076,-0.006l0.077,-0.006l0.078,-0.005l0.077,-0.003l0.078,-0.003l0.078,-0.001l0.078,-0.001l0.079,0.001Zm-0.143,1.057l-0.064,0.002l-0.064,0.002l-0.063,0.003l-0.064,0.004l-0.064,0.004l-0.063,0.005l-0.062,0.007l-0.062,0.007l-0.062,0.007l-0.063,0.009l-0.062,0.009l-0.061,0.01l-0.061,0.011l-0.061,0.012l-0.061,0.013l-0.06,0.013l-0.06,0.014l-0.06,0.014l-0.06,0.016l-0.059,0.016l-0.058,0.017l-0.06,0.018l-0.058,0.018l-0.058,0.019l-0.059,0.021l-0.057,0.02l-0.057,0.021l-0.056,0.022l-0.057,0.023l-0.057,0.023l-0.055,0.024l-0.056,0.025l-0.055,0.026l-0.055,0.026l-0.055,0.027l-0.054,0.027l-0.054,0.028l-0.054,0.029l-0.052,0.03l-0.053,0.03l-0.053,0.031l-0.052,0.031l-0.052,0.033l-0.051,0.032l-0.051,0.033l-0.051,0.035l-0.049,0.034l-0.05,0.035l-0.051,0.037l-0.048,0.036l-0.048,0.036l-0.048,0.038l-0.047,0.038l-0.048,0.039l-0.046,0.04l-0.047,0.04l-0.046,0.041l-0.045,0.041l-0.045,0.042l-0.044,0.042l-0.043,0.042l-0.045,0.044l-0.042,0.044l-0.042,0.044l-0.042,0.045l-0.043,0.047l-0.04,0.045l-0.04,0.046l-0.04,0.047l-0.039,0.048l-0.039,0.048l-0.038,0.049l-0.038,0.049l-0.037,0.049l-0.036,0.05l-0.037,0.051l-0.035,0.051l-0.035,0.051l-0.034,0.052l-0.034,0.053l-0.034,0.053l-0.032,0.052l-0.031,0.054l-0.032,0.054l-0.03,0.054l-0.03,0.055l-0.03,0.056l-0.029,0.056l-0.028,0.055l-0.028,0.057l-0.027,0.057l-0.026,0.058l-0.026,0.057l-0.025,0.059l-0.024,0.058l-0.024,0.059l-0.022,0.059l-0.023,0.059l-0.021,0.061l-0.021,0.06l-0.021,0.061l-0.019,0.061l-0.019,0.06l-0.018,0.062l-0.018,0.063l-0.016,0.061l-0.016,0.063l-0.015,0.063l-0.015,0.064l-0.014,0.063l-0.013,0.064l-0.012,0.064l-0.011,0.064l-0.011,0.065l-0.01,0.065l-0.01,0.066l-0.008,0.064l-0.008,0.067l-0.007,0.066l-0.006,0.065l-0.005,0.067l-0.004,0.068l-0.004,0.067l-0.003,0.067l-0.002,0.068l-0.001,0.067l-0.001,0.071l0,2.575l10.002,0l0,-2.574l0,-0.072l-0.001,-0.067l-0.002,-0.068l-0.003,-0.068l-0.004,-0.066l-0.004,-0.067l-0.006,-0.067l-0.006,-0.067l-0.007,-0.065l-0.007,-0.066l-0.009,-0.066l-0.009,-0.066l-0.01,-0.064l-0.011,-0.065l-0.011,-0.063l-0.013,-0.065l-0.013,-0.065l-0.013,-0.062l-0.015,-0.064l-0.015,-0.062l-0.016,-0.063l-0.017,-0.063l-0.017,-0.062l-0.018,-0.061l-0.019,-0.062l-0.02,-0.061l-0.02,-0.06l-0.021,-0.06l-0.021,-0.06l-0.023,-0.059l-0.023,-0.06l-0.024,-0.06l-0.024,-0.058l-0.025,-0.058l-0.025,-0.057l-0.026,-0.057l-0.028,-0.058l-0.028,-0.057l-0.027,-0.055l-0.029,-0.055l-0.03,-0.056l-0.03,-0.056l-0.03,-0.054l-0.031,-0.053l-0.033,-0.055l-0.032,-0.053l-0.033,-0.052l-0.034,-0.053l-0.035,-0.053l-0.035,-0.051l-0.035,-0.05l-0.036,-0.051l-0.036,-0.05l-0.037,-0.049l-0.038,-0.049l-0.038,-0.049l-0.039,-0.048l-0.039,-0.048l-0.04,-0.046l-0.04,-0.047l-0.042,-0.046l-0.041,-0.046l-0.042,-0.045l-0.042,-0.044l-0.043,-0.044l-0.043,-0.043l-0.045,-0.043l-0.044,-0.043l-0.045,-0.041l-0.045,-0.041l-0.045,-0.04l-0.047,-0.041l-0.047,-0.04l-0.046,-0.038l-0.048,-0.039l-0.049,-0.038l-0.048,-0.036l-0.048,-0.036l-0.05,-0.037l-0.05,-0.035l-0.05,-0.034l-0.05,-0.034l-0.051,-0.034l-0.052,-0.033l-0.051,-0.031l-0.052,-0.032l-0.053,-0.031l-0.053,-0.03l-0.052,-0.029l-0.055,-0.03l-0.054,-0.028l-0.053,-0.027l-0.055,-0.027l-0.055,-0.026l-0.055,-0.025l-0.056,-0.026l-0.056,-0.024l-0.056,-0.023l-0.057,-0.023l-0.056,-0.022l-0.058,-0.021l-0.058,-0.021l-0.058,-0.02l-0.058,-0.019l-0.058,-0.018l-0.059,-0.018l-0.058,-0.017l-0.059,-0.016l-0.061,-0.016l-0.06,-0.014l-0.059,-0.014l-0.061,-0.013l-0.061,-0.013l-0.06,-0.012l-0.062,-0.011l-0.061,-0.01l-0.061,-0.009l-0.063,-0.009l-0.063,-0.007l-0.061,-0.007l-0.063,-0.007l-0.063,-0.005l-0.063,-0.004l-0.064,-0.004l-0.063,-0.003l-0.064,-0.002l-0.065,-0.002l-0.064,0l-0.064,0Z" style="fill:#fff;"/><path d="M107.29,14.625l0.036,0.001l0.035,0.003l0.035,0.003l0.035,0.004l0.034,0.005l0.035,0.005l0.034,0.007l0.033,0.007l0.034,0.008l0.033,0.009l0.032,0.01l0.033,0.01l0.032,0.012l0.031,0.012l0.031,0.013l0.031,0.013l0.031,0.014l0.03,0.015l0.03,0.016l0.029,0.016l0.029,0.017l0.028,0.018l0.028,0.018l0.027,0.019l0.027,0.02l0.026,0.02l0.026,0.021l0.026,0.022l0.025,0.022l0.024,0.022l0.024,0.024l0.023,0.023l0.023,0.025l0.022,0.025l0.021,0.025l0.021,0.026l0.02,0.026l0.02,0.027l0.019,0.028l0.018,0.027l0.018,0.029l0.017,0.029l0.016,0.029l0.016,0.029l0.015,0.031l0.014,0.03l0.014,0.031l0.013,0.031l0.012,0.032l0.011,0.032l0.01,0.032l0.01,0.033l0.009,0.033l0.008,0.033l0.008,0.034l0.006,0.034l0.006,0.034l0.005,0.035l0.004,0.034l0.003,0.035l0.002,0.036l0.001,0.035l0.001,0.036l0,8.824l-0.001,0.036l-0.001,0.036l-0.002,0.035l-0.003,0.035l-0.004,0.035l-0.005,0.034l-0.006,0.035l-0.006,0.033l-0.008,0.034l-0.008,0.033l-0.009,0.034l-0.01,0.032l-0.01,0.033l-0.011,0.032l-0.012,0.031l-0.013,0.031l-0.014,0.031l-0.014,0.031l-0.015,0.03l-0.016,0.03l-0.016,0.029l-0.017,0.029l-0.018,0.028l-0.018,0.028l-0.019,0.027l-0.02,0.027l-0.02,0.026l-0.021,0.026l-0.021,0.026l-0.022,0.025l-0.023,0.024l-0.023,0.024l-0.024,0.023l-0.024,0.023l-0.025,0.022l-0.026,0.021l-0.026,0.021l-0.026,0.02l-0.027,0.02l-0.027,0.019l-0.028,0.018l-0.028,0.018l-0.029,0.017l-0.029,0.016l-0.03,0.016l-0.03,0.015l-0.031,0.014l-0.031,0.014l-0.031,0.013l-0.031,0.012l-0.032,0.011l-0.033,0.01l-0.032,0.01l-0.033,0.009l-0.034,0.008l-0.033,0.008l-0.034,0.006l-0.035,0.006l-0.034,0.005l-0.035,0.004l-0.035,0.003l-0.035,0.002l-0.036,0.001l-0.036,0.001l-12.408,0l-0.036,-0.001l-0.035,-0.001l-0.035,-0.002l-0.035,-0.003l-0.035,-0.004l-0.035,-0.005l-0.034,-0.006l-0.034,-0.006l-0.034,-0.008l-0.033,-0.008l-0.033,-0.009l-0.033,-0.01l-0.032,-0.01l-0.032,-0.011l-0.032,-0.012l-0.031,-0.013l-0.031,-0.014l-0.03,-0.014l-0.03,-0.015l-0.03,-0.016l-0.029,-0.016l-0.029,-0.017l-0.028,-0.018l-0.028,-0.018l-0.028,-0.019l-0.026,-0.02l-0.027,-0.02l-0.026,-0.021l-0.025,-0.021l-0.025,-0.022l-0.024,-0.023l-0.024,-0.023l-0.023,-0.024l-0.023,-0.024l-0.022,-0.025l-0.022,-0.026l-0.02,-0.026l-0.021,-0.026l-0.019,-0.027l-0.019,-0.027l-0.019,-0.028l-0.017,-0.028l-0.017,-0.029l-0.017,-0.029l-0.015,-0.03l-0.015,-0.03l-0.015,-0.031l-0.013,-0.031l-0.013,-0.031l-0.012,-0.031l-0.011,-0.032l-0.011,-0.033l-0.009,-0.032l-0.009,-0.034l-0.009,-0.033l-0.007,-0.034l-0.006,-0.033l-0.006,-0.035l-0.005,-0.034l-0.004,-0.035l-0.003,-0.035l-0.002,-0.035l-0.002,-0.036l0,-0.036l0,-8.824l0,-0.036l0.002,-0.035l0.002,-0.036l0.003,-0.035l0.004,-0.034l0.005,-0.035l0.006,-0.034l0.006,-0.034l0.007,-0.034l0.009,-0.033l0.009,-0.033l0.009,-0.033l0.011,-0.032l0.011,-0.032l0.012,-0.032l0.013,-0.031l0.013,-0.031l0.015,-0.03l0.015,-0.031l0.015,-0.029l0.017,-0.029l0.017,-0.029l0.017,-0.029l0.019,-0.027l0.019,-0.028l0.019,-0.027l0.021,-0.026l0.02,-0.026l0.022,-0.025l0.022,-0.025l0.023,-0.025l0.023,-0.023l0.024,-0.024l0.024,-0.022l0.025,-0.022l0.025,-0.022l0.026,-0.021l0.027,-0.02l0.026,-0.02l0.028,-0.019l0.028,-0.018l0.028,-0.018l0.029,-0.017l0.029,-0.016l0.03,-0.016l0.03,-0.015l0.03,-0.014l0.031,-0.013l0.031,-0.013l0.032,-0.012l0.032,-0.012l0.032,-0.01l0.033,-0.01l0.033,-0.009l0.033,-0.008l0.034,-0.007l0.034,-0.007l0.034,-0.005l0.035,-0.005l0.035,-0.004l0.035,-0.003l0.035,-0.003l0.035,-0.001l0.036,0l12.408,0l0.036,0Zm-12.436,1l-0.017,0l-0.011,0l-0.011,0.001l-0.01,0.001l-0.007,0.001l-0.01,0.001l-0.011,0.002l-0.009,0.002l-0.011,0.002l-0.008,0.002l-0.007,0.002l-0.012,0.003l-0.007,0.002l-0.008,0.004l-0.008,0.003l-0.01,0.003l-0.01,0.005l-0.006,0.003l-0.009,0.004l-0.009,0.005l-0.007,0.004l-0.008,0.005l-0.008,0.005l-0.009,0.005l-0.007,0.005l-0.008,0.006l-0.007,0.006l-0.005,0.004l-0.009,0.007l-0.009,0.009l-0.006,0.004l-0.005,0.005l-0.009,0.01l-0.005,0.005l-0.005,0.006l-0.007,0.009l-0.006,0.007l-0.007,0.009l-0.004,0.006l-0.005,0.006l-0.006,0.01l-0.005,0.007l-0.005,0.009l-0.004,0.007l-0.004,0.008l-0.005,0.009l-0.003,0.007l-0.005,0.011l-0.003,0.008l-0.002,0.005l-0.004,0.012l-0.003,0.009l-0.002,0.007l-0.003,0.011l-0.002,0.009l-0.002,0.008l-0.002,0.009l-0.002,0.012l-0.001,0.009l-0.001,0.007l-0.001,0.011l0,0.011l-0.001,0.008l0,0.017l0,8.814l0,0.017l0.001,0.009l0,0.011l0.001,0.01l0.001,0.007l0.001,0.009l0.002,0.012l0.002,0.009l0.002,0.008l0.002,0.01l0.003,0.011l0.002,0.006l0.003,0.009l0.004,0.012l0.002,0.005l0.003,0.008l0.005,0.011l0.003,0.007l0.004,0.009l0.005,0.008l0.005,0.008l0.004,0.008l0.005,0.008l0.006,0.009l0.005,0.007l0.004,0.006l0.007,0.008l0.006,0.008l0.007,0.008l0.005,0.007l0.005,0.005l0.009,0.009l0.005,0.005l0.006,0.005l0.008,0.007l0.01,0.008l0.007,0.006l0.005,0.004l0.008,0.006l0.007,0.005l0.009,0.006l0.008,0.005l0.008,0.004l0.007,0.004l0.009,0.005l0.009,0.004l0.006,0.003l0.01,0.005l0.01,0.004l0.008,0.003l0.008,0.003l0.007,0.002l0.012,0.003l0.007,0.003l0.008,0.001l0.011,0.003l0.009,0.001l0.011,0.002l0.01,0.002l0.007,0.001l0.01,0l0.011,0.001l0.011,0.001l0.017,0l12.393,0l0.017,0l0.011,-0.001l0.011,-0.001l0.01,0l0.007,-0.001l0.009,-0.002l0.012,-0.002l0.009,-0.001l0.011,-0.003l0.008,-0.001l0.006,-0.002l0.012,-0.004l0.007,-0.002l0.01,-0.004l0.007,-0.002l0.008,-0.004l0.011,-0.005l0.007,-0.003l0.01,-0.004l0.009,-0.005l0.005,-0.003l0.009,-0.005l0.009,-0.006l0.006,-0.004l0.007,-0.005l0.009,-0.007l0.007,-0.005l0.007,-0.006l0.009,-0.007l0.007,-0.006l0.005,-0.005l0.008,-0.007l0.007,-0.008l0.004,-0.004l0.008,-0.01l0.008,-0.008l0.003,-0.004l0.006,-0.009l0.006,-0.007l0.006,-0.009l0.005,-0.007l0.005,-0.008l0.004,-0.008l0.004,-0.006l0.005,-0.01l0.004,-0.009l0.005,-0.009l0.003,-0.009l0.003,-0.005l0.003,-0.01l0.004,-0.01l0.002,-0.006l0.003,-0.012l0.003,-0.011l0.002,-0.005l0.002,-0.01l0.002,-0.009l0.001,-0.009l0.002,-0.012l0,-0.007l0.001,-0.01l0.001,-0.011l0.001,-0.011l0,-0.017l0,-8.809l0,-0.017l-0.001,-0.011l-0.001,-0.011l-0.001,-0.011l0,-0.007l-0.002,-0.012l-0.001,-0.009l-0.002,-0.009l-0.002,-0.01l-0.002,-0.005l-0.003,-0.011l-0.003,-0.012l-0.002,-0.006l-0.004,-0.009l-0.003,-0.01l-0.003,-0.006l-0.003,-0.009l-0.005,-0.009l-0.004,-0.009l-0.005,-0.01l-0.003,-0.005l-0.005,-0.009l-0.005,-0.007l-0.005,-0.008l-0.006,-0.008l-0.006,-0.008l-0.006,-0.009l-0.003,-0.004l-0.008,-0.008l-0.008,-0.01l-0.004,-0.003l-0.007,-0.008l-0.008,-0.008l-0.005,-0.005l-0.009,-0.007l-0.007,-0.006l-0.005,-0.004l-0.009,-0.007l-0.009,-0.007l-0.007,-0.005l-0.006,-0.004l-0.009,-0.005l-0.009,-0.006l-0.005,-0.002l-0.009,-0.005l-0.01,-0.005l-0.007,-0.003l-0.011,-0.005l-0.008,-0.003l-0.007,-0.003l-0.01,-0.004l-0.007,-0.002l-0.012,-0.003l-0.006,-0.002l-0.008,-0.002l-0.011,-0.002l-0.009,-0.002l-0.012,-0.002l-0.009,-0.001l-0.007,-0.001l-0.01,-0.001l-0.011,-0.001l-0.011,0l-0.017,0l-12.393,0Z" style="fill:#fff;"/></g><path d="M33.253,8.983c0.003,0.12 -0.039,0.24 -0.13,0.331c-0.02,0.02 -0.044,0.029 -0.066,0.044l-1.246,1.245l0.319,0.319c0.023,0.015 0.048,0.024 0.067,0.044c0.091,0.091 0.133,0.211 0.13,0.33c0.003,0.119 -0.039,0.24 -0.13,0.331c-0.019,0.019 -0.044,0.029 -0.067,0.044l-14.687,14.673c-0.051,0.098 -0.133,0.181 -0.242,0.222l-4.539,1.778c-0.026,0.015 -0.054,0.024 -0.083,0.033l-0.006,0.003c-0.004,0.001 -0.008,0 -0.011,0.001c-0.043,0.012 -0.086,0.022 -0.132,0.021c-0.046,0.002 -0.088,-0.007 -0.132,-0.019c-0.009,-0.003 -0.018,-0.001 -0.027,-0.004c-0.004,-0.001 -0.006,-0.005 -0.01,-0.006c-0.041,-0.015 -0.076,-0.038 -0.111,-0.065c-0.018,-0.013 -0.037,-0.025 -0.053,-0.04c-0.015,-0.015 -0.026,-0.034 -0.039,-0.052c-0.027,-0.035 -0.05,-0.071 -0.066,-0.111c-0.002,-0.004 -0.004,-0.006 -0.006,-0.01c-0.003,-0.009 -0.001,-0.018 -0.004,-0.028c-0.011,-0.043 -0.02,-0.085 -0.019,-0.13c0,-0.046 0.009,-0.089 0.021,-0.133c0.002,-0.004 0,-0.007 0.002,-0.011l0.003,-0.006c0.009,-0.029 0.018,-0.057 0.032,-0.083l1.78,-4.534c0.042,-0.109 0.125,-0.191 0.223,-0.242l12.858,-12.843c-0.122,-0.386 -0.479,-0.668 -0.906,-0.668c-0.282,0 -0.533,0.125 -0.708,0.319l-0.001,-0.001l-1.506,1.504l0.002,0.001l-3.166,3.163c-0.177,0.176 -0.463,0.176 -0.64,0c-0.176,-0.176 -0.176,-0.463 0,-0.639l4.654,-4.648c0.008,-0.008 0.017,-0.01 0.026,-0.017c0.337,-0.355 0.811,-0.578 1.339,-0.578c0.672,0 1.25,0.363 1.573,0.898l1.164,-1.162c0.015,-0.022 0.025,-0.047 0.044,-0.067c0.091,-0.091 0.212,-0.133 0.331,-0.13c0.12,-0.003 0.24,0.039 0.331,0.13c0.02,0.02 0.029,0.045 0.044,0.067l0.32,0.319l1.246,-1.245c0.015,-0.021 0.024,-0.046 0.044,-0.066c0.091,-0.091 0.211,-0.133 0.331,-0.13c0.119,-0.003 0.24,0.039 0.331,0.13c0.019,0.02 0.029,0.045 0.044,0.066l1.279,1.278c0.022,0.015 0.047,0.025 0.067,0.044c0.089,0.091 0.131,0.212 0.128,0.33Zm-19.971,18.103l2.952,-1.157l-1.794,-1.793l-1.158,2.95Zm15.805,-17.926l-14.18,14.165l2.139,2.137l14.18,-14.165l-2.139,-2.137Zm2.316,-0.926l-0.982,0.981l0.75,0.749l0.982,-0.981l-0.75,-0.749Z" style="fill:#fff;fill-opacity:0.5;"/></svg>