<?xml version="1.0" encoding="UTF-8" standalone="no"?><!DOCTYPE svg PUBLIC "-//W3C//DTD SVG 1.1//EN" "http://www.w3.org/Graphics/SVG/1.1/DTD/svg11.dtd"><svg width="100%" height="100%" viewBox="0 0 143 59" version="1.1" xmlns="http://www.w3.org/2000/svg" xmlns:xlink="http://www.w3.org/1999/xlink" xml:space="preserve" style="fill-rule:evenodd;clip-rule:evenodd;stroke-linejoin:round;stroke-miterlimit:1.41421;"><g><path d="M62.119,27.661l0.109,0l0.109,0.001l0.109,0.002l0.109,0.003l0.109,0.003l0.108,0.004l0.217,0.011l0.217,0.013l0.216,0.017l0.216,0.019l0.215,0.022l0.214,0.025l0.214,0.028l0.213,0.031l0.213,0.034l0.212,0.037l0.211,0.04l0.211,0.042l0.209,0.045l0.209,0.048l0.208,0.051l0.208,0.054l0.206,0.056l0.206,0.06l0.204,0.062l0.204,0.064l0.203,0.068l0.202,0.07l0.2,0.073l0.2,0.075l0.199,0.078l0.197,0.081l0.196,0.084l0.195,0.086l0.194,0.089l0.193,0.091l0.192,0.094l0.19,0.097l0.189,0.099l0.187,0.102l0.187,0.104l0.185,0.107l0.183,0.109l0.182,0.112l0.181,0.114l0.179,0.117l0.177,0.119l0.176,0.122l0.175,0.124l0.173,0.127l0.171,0.129l0.169,0.132l0.168,0.133l0.167,0.137l0.164,0.138l0.163,0.141l0.161,0.144l0.159,0.145l0.157,0.148l0.155,0.151l0.154,0.152l0.151,0.155l0.15,0.157l0.148,0.16l0.073,0.08l0.072,0.082l0.072,0.081l0.072,0.082l0.071,0.083l0.07,0.084l0.003,0.003l0.049,0.059l0.047,0.06l0.047,0.06l0.045,0.061l0.044,0.062l0.042,0.063l0.042,0.063l0.04,0.064l0.039,0.064l0.038,0.065l0.037,0.065l0.035,0.066l0.034,0.067l0.033,0.067l0.032,0.067l0.03,0.068l0.029,0.069l0.028,0.068l0.027,0.07l0.026,0.069l0.024,0.07l0.023,0.071l0.021,0.07l0.021,0.071l0.019,0.072l0.018,0.071l0.017,0.072l0.015,0.072l0.014,0.073l0.013,0.072l0.012,0.073l0.01,0.073l0.009,0.074l0.008,0.073l0.006,0.073l0.005,0.074l0.004,0.074l0.003,0.073l0.001,0.074l0,0.074l-0.001,0.074l-0.003,0.074l-0.004,0.074l-0.005,0.074l-0.006,0.074l-0.008,0.073l-0.009,0.074l-0.011,0.074l-0.012,0.073l-0.013,0.074l-0.014,0.073l-0.016,0.073l-0.017,0.073l-0.018,0.073l-0.02,0.072l-0.021,0.072l-0.022,0.072l-0.024,0.072l-0.025,0.072l-0.026,0.071l-0.028,0.071l-0.029,0.07l-0.03,0.07l-0.032,0.07l-0.033,0.069l-0.034,0.069l-0.035,0.067l-0.037,0.067l-0.037,0.066l-0.039,0.065l-0.04,0.064l-0.04,0.064l-0.042,0.062l-0.043,0.062l-0.044,0.061l-0.045,0.06l-0.046,0.059l-0.046,0.058l-0.048,0.057l-0.049,0.056l-0.05,0.056l-0.05,0.054l-0.052,0.053l-0.052,0.053l-0.053,0.051l-0.054,0.051l-0.055,0.05l-0.056,0.048l-0.057,0.048l-0.057,0.046l-0.058,0.046l-0.059,0.044l-0.06,0.043l-0.06,0.043l-0.061,0.041l-0.062,0.04l-0.063,0.039l-0.063,0.038l-0.064,0.037l-0.064,0.036l-0.066,0.034l-0.065,0.034l-0.067,0.032l-0.067,0.032l-0.067,0.03l-0.068,0.028l-0.069,0.028l-0.069,0.027l-0.07,0.025l-0.07,0.024l-0.071,0.023l-0.071,0.022l-0.071,0.02l-0.072,0.019l-0.073,0.018l-0.073,0.017l-0.073,0.015l-0.074,0.014l-0.074,0.013l-0.074,0.011l-0.075,0.011l-0.075,0.008l-0.075,0.008l-0.076,0.006l-0.076,0.005l-0.076,0.003l-0.076,0.002l-0.077,0.001l-59.994,0l-0.094,-0.001l-0.093,-0.002l-0.093,-0.005l-0.092,-0.006l-0.092,-0.008l-0.092,-0.009l-0.091,-0.012l-0.091,-0.013l-0.09,-0.014l-0.09,-0.017l-0.09,-0.018l-0.089,-0.019l-0.088,-0.021l-0.088,-0.023l-0.087,-0.025l-0.087,-0.026l-0.086,-0.027l-0.086,-0.029l-0.084,-0.031l-0.085,-0.032l-0.083,-0.034l-0.083,-0.035l-0.082,-0.037l-0.081,-0.038l-0.081,-0.04l-0.079,-0.041l-0.079,-0.042l-0.079,-0.044l-0.077,-0.046l-0.076,-0.046l-0.076,-0.048l-0.075,-0.05l-0.073,-0.051l-0.073,-0.052l-0.072,-0.054l-0.071,-0.054l-0.07,-0.057l-0.069,-0.057l-0.067,-0.059l-0.067,-0.06l-0.066,-0.061l-0.065,-0.063l-0.063,-0.063l-0.062,-0.065l-0.062,-0.066l-0.06,-0.068l-0.058,-0.068l-0.058,-0.07l-0.057,-0.071l-0.055,-0.072l-0.054,-0.073l-0.052,-0.074l-0.051,-0.075l-0.05,-0.076l-0.049,-0.078l-0.047,-0.078l-0.046,-0.08l-0.045,-0.08l-0.043,-0.082l-0.041,-0.082l-0.04,-0.084l-0.039,-0.084l-0.037,-0.086l-0.036,-0.086l-0.034,-0.087l-0.032,-0.088l-0.03,-0.087l-0.029,-0.088l-0.027,-0.089l-0.025,-0.089l-0.024,-0.088l-0.022,-0.09l-0.02,-0.089l-0.018,-0.09l-0.017,-0.089l-0.015,-0.09l-0.013,-0.09l-0.011,-0.09l-0.01,-0.09l-0.008,-0.09l-0.007,-0.09l-0.005,-0.091l-0.003,-0.09l-0.001,-0.09l0,-0.09l0.002,-0.09l0.003,-0.09l0.005,-0.089l0.007,-0.09l0.009,-0.089l0.01,-0.089l0.011,-0.089l0.014,-0.089l0.015,-0.088l0.016,-0.088l0.018,-0.088l0.02,-0.087l0.022,-0.087l0.022,-0.087l0.025,-0.086l0.026,-0.086l0.028,-0.085l0.029,-0.085l0.031,-0.084l0.032,-0.084l0.034,-0.083l0.036,-0.083l0.037,-0.082l0.038,-0.082l0.04,-0.08l0.042,-0.08l0.043,-0.08l0.045,-0.079l0.046,-0.078l0.048,-0.077l0.049,-0.076l0.051,-0.076l0.052,-0.075l0.054,-0.074l0.055,-0.073l0.057,-0.072l0.058,-0.071l0.06,-0.07l0.061,-0.07l0.062,-0.068l0.064,-0.067l0.066,-0.067l0.067,-0.065l0.002,-0.002l0.131,-0.124l0.132,-0.121l0.133,-0.12l0.135,-0.118l0.135,-0.117l0.137,-0.115l0.139,-0.112l0.139,-0.112l0.141,-0.109l0.142,-0.108l0.143,-0.105l0.144,-0.104l0.145,-0.103l0.147,-0.1l0.147,-0.099l0.149,-0.096l0.149,-0.095l0.151,-0.094l0.152,-0.091l0.152,-0.089l0.154,-0.088l0.155,-0.086l0.155,-0.083l0.157,-0.082l0.158,-0.08l0.158,-0.079l0.159,-0.076l0.16,-0.074l0.161,-0.073l0.162,-0.07l0.163,-0.069l0.163,-0.067l0.164,-0.064l0.165,-0.063l0.166,-0.061l0.167,-0.059l0.167,-0.057l0.168,-0.055l0.168,-0.053l0.169,-0.051l0.17,-0.049l0.171,-0.047l0.171,-0.044l0.171,-0.043l0.172,-0.041l0.173,-0.039l0.173,-0.037l0.174,-0.035l0.174,-0.033l0.175,-0.03l0.175,-0.029l0.176,-0.026l0.176,-0.025l0.177,-0.022l0.177,-0.02l0.177,-0.019l0.177,-0.016l0.178,-0.014l0.179,-0.011l0.178,-0.01l0.179,-0.008l0.179,-0.005l0.18,-0.003l0.179,-0.001l44.221,0Zm-44.215,2l-0.161,0.001l-0.156,0.002l-0.155,0.005l-0.154,0.007l-0.155,0.008l-0.154,0.01l-0.154,0.012l-0.154,0.014l-0.154,0.016l-0.153,0.017l-0.153,0.02l-0.152,0.021l-0.152,0.023l-0.152,0.025l-0.151,0.026l-0.151,0.029l-0.15,0.03l-0.15,0.032l-0.15,0.033l-0.149,0.036l-0.149,0.037l-0.148,0.039l-0.147,0.04l-0.147,0.043l-0.147,0.044l-0.146,0.046l-0.145,0.047l-0.145,0.05l-0.144,0.051l-0.143,0.052l-0.143,0.055l-0.142,0.056l-0.142,0.057l-0.14,0.06l-0.14,0.061l-0.14,0.063l-0.139,0.064l-0.138,0.066l-0.137,0.068l-0.136,0.069l-0.135,0.071l-0.135,0.073l-0.134,0.074l-0.133,0.076l-0.132,0.077l-0.132,0.079l-0.13,0.081l-0.13,0.082l-0.128,0.084l-0.128,0.085l-0.127,0.087l-0.125,0.088l-0.125,0.09l-0.124,0.092l-0.123,0.093l-0.122,0.095l-0.121,0.096l-0.119,0.098l-0.119,0.099l-0.117,0.101l-0.117,0.102l-0.115,0.104l-0.114,0.105l-0.126,0.119l-0.009,0.009l0.013,-0.012l-0.033,0.032l-0.039,0.039l-0.039,0.041l-0.037,0.04l-0.036,0.041l-0.035,0.041l-0.034,0.043l-0.034,0.042l-0.032,0.043l-0.032,0.044l-0.031,0.044l-0.03,0.045l-0.029,0.045l-0.028,0.045l-0.027,0.046l-0.026,0.047l-0.026,0.047l-0.024,0.046l-0.024,0.048l-0.023,0.049l-0.022,0.048l-0.021,0.049l-0.02,0.049l-0.019,0.05l-0.018,0.05l-0.017,0.049l-0.017,0.051l-0.015,0.051l-0.015,0.051l-0.013,0.051l-0.013,0.051l-0.012,0.053l-0.011,0.052l-0.009,0.05l-0.009,0.053l-0.008,0.053l-0.007,0.053l-0.006,0.052l-0.005,0.053l-0.004,0.053l-0.003,0.052l-0.002,0.054l-0.001,0.054l0,0.052l0.001,0.053l0.002,0.054l0.002,0.053l0.004,0.052l0.005,0.054l0.006,0.053l0.007,0.054l0.007,0.052l0.009,0.053l0.01,0.053l0.011,0.054l0.012,0.053l0.012,0.051l0.014,0.053l0.015,0.052l0.016,0.053l0.017,0.052l0.018,0.052l0.019,0.052l0.02,0.051l0.022,0.051l0.022,0.051l0.023,0.051l0.023,0.049l0.025,0.048l0.026,0.049l0.025,0.047l0.027,0.047l0.029,0.046l0.028,0.046l0.03,0.045l0.03,0.045l0.031,0.043l0.032,0.043l0.032,0.042l0.033,0.042l0.035,0.041l0.034,0.041l0.036,0.04l0.036,0.038l0.037,0.039l0.038,0.038l0.037,0.037l0.039,0.036l0.04,0.035l0.04,0.035l0.041,0.034l0.041,0.033l0.042,0.033l0.042,0.031l0.044,0.031l0.043,0.03l0.044,0.029l0.045,0.029l0.045,0.028l0.046,0.026l0.046,0.027l0.047,0.025l0.047,0.024l0.048,0.023l0.047,0.023l0.049,0.022l0.049,0.021l0.049,0.019l0.05,0.019l0.05,0.018l0.051,0.018l0.05,0.016l0.051,0.015l0.052,0.015l0.052,0.013l0.052,0.013l0.052,0.011l0.053,0.011l0.053,0.009l0.053,0.009l0.054,0.008l0.054,0.006l0.054,0.006l0.054,0.005l0.055,0.003l0.055,0.003l0.055,0.001l0.065,0.001l59.976,0l0.05,0l0.04,-0.001l0.04,-0.002l0.04,-0.003l0.04,-0.003l0.039,-0.004l0.04,-0.005l0.039,-0.005l0.039,-0.006l0.039,-0.007l0.038,-0.007l0.039,-0.008l0.038,-0.009l0.037,-0.009l0.039,-0.01l0.037,-0.011l0.037,-0.011l0.037,-0.012l0.037,-0.013l0.037,-0.013l0.036,-0.014l0.036,-0.015l0.036,-0.015l0.035,-0.016l0.035,-0.016l0.035,-0.017l0.035,-0.018l0.034,-0.018l0.034,-0.019l0.034,-0.019l0.033,-0.02l0.033,-0.021l0.032,-0.021l0.033,-0.021l0.031,-0.023l0.031,-0.022l0.032,-0.024l0.03,-0.024l0.03,-0.024l0.03,-0.025l0.03,-0.026l0.028,-0.026l0.029,-0.026l0.027,-0.027l0.028,-0.028l0.027,-0.027l0.026,-0.029l0.027,-0.03l0.026,-0.03l0.024,-0.028l0.024,-0.031l0.025,-0.032l0.023,-0.031l0.023,-0.031l0.023,-0.033l0.022,-0.033l0.021,-0.033l0.021,-0.033l0.02,-0.035l0.02,-0.035l0.02,-0.036l0.018,-0.034l0.018,-0.036l0.017,-0.037l0.017,-0.036l0.016,-0.037l0.015,-0.038l0.015,-0.037l0.013,-0.036l0.014,-0.039l0.012,-0.038l0.012,-0.036l0.011,-0.039l0.01,-0.039l0.01,-0.036l0.009,-0.039l0.008,-0.039l0.007,-0.038l0.007,-0.039l0.006,-0.038l0.006,-0.039l0.005,-0.039l0.004,-0.037l0.003,-0.04l0.003,-0.039l0.002,-0.039l0.001,-0.038l0.001,-0.039l0,-0.039l-0.001,-0.039l-0.001,-0.039l-0.002,-0.038l-0.003,-0.039l-0.003,-0.038l-0.004,-0.04l-0.005,-0.038l-0.005,-0.037l-0.007,-0.04l-0.006,-0.037l-0.008,-0.039l-0.008,-0.039l-0.009,-0.037l-0.009,-0.037l-0.01,-0.037l-0.011,-0.038l-0.011,-0.036l-0.012,-0.038l-0.013,-0.037l-0.013,-0.036l-0.014,-0.037l-0.015,-0.036l-0.015,-0.036l-0.016,-0.034l-0.017,-0.037l-0.017,-0.035l-0.018,-0.034l-0.019,-0.036l-0.018,-0.033l-0.02,-0.034l-0.021,-0.034l-0.021,-0.034l-0.022,-0.033l-0.023,-0.033l-0.022,-0.032l-0.024,-0.032l-0.025,-0.032l-0.025,-0.032l-0.027,-0.033l0.007,0.008l-0.002,-0.003l-0.067,-0.079l-0.062,-0.072l-0.063,-0.072l-0.063,-0.071l-0.063,-0.071l-0.062,-0.068l-0.131,-0.141l-0.131,-0.138l-0.132,-0.135l-0.134,-0.133l-0.136,-0.132l-0.137,-0.129l-0.139,-0.127l-0.141,-0.125l-0.141,-0.123l-0.144,-0.121l-0.145,-0.119l-0.147,-0.117l-0.148,-0.115l-0.149,-0.113l-0.151,-0.11l-0.153,-0.109l-0.153,-0.106l-0.156,-0.104l-0.156,-0.102l-0.157,-0.1l-0.16,-0.098l-0.16,-0.095l-0.161,-0.094l-0.163,-0.091l-0.164,-0.088l-0.165,-0.087l-0.166,-0.084l-0.167,-0.083l-0.168,-0.079l-0.17,-0.078l-0.17,-0.075l-0.171,-0.073l-0.173,-0.071l-0.173,-0.068l-0.175,-0.066l-0.175,-0.064l-0.176,-0.061l-0.177,-0.059l-0.178,-0.056l-0.179,-0.054l-0.179,-0.052l-0.181,-0.049l-0.181,-0.047l-0.181,-0.045l-0.183,-0.042l-0.183,-0.039l-0.184,-0.037l-0.184,-0.035l-0.185,-0.032l-0.186,-0.029l-0.186,-0.027l-0.187,-0.025l-0.187,-0.022l-0.188,-0.019l-0.188,-0.017l-0.189,-0.015l-0.189,-0.011l-0.193,-0.01l-0.091,-0.003l-0.096,-0.003l-0.094,-0.002l-0.096,-0.002l-0.095,-0.001l-0.099,0l-44.211,0Z" style="fill:#166c4f;"/><path d="M64.707,30.793l0.076,0l0.007,0l0.078,0.002l0.006,0l0.078,0.003l0.007,0l0.078,0.004l0.006,0l0.078,0.005l0.006,0l0.078,0.006l0.007,0.001l0.077,0.007l0.006,0l0.077,0.008l0.007,0.001l0.077,0.009l0.006,0.001l0.077,0.009l0.007,0.001l0.076,0.011l0.007,0.001l0.076,0.012l0.006,0.002l0.076,0.013l0.007,0.001l0.075,0.014l0.007,0.001l0.075,0.015l0.007,0.001l0.075,0.017l0.007,0.001l0.074,0.017l0.007,0.002l0.074,0.018l0.007,0.001l0.074,0.019l0.006,0.002l0.074,0.02l0.007,0.002l0.073,0.021l0.007,0.002l0.073,0.022l0.007,0.002l0.072,0.023l0.007,0.002l0.072,0.023l0.006,0.003l0.073,0.025l0.006,0.002l0.072,0.026l0.006,0.002l0.072,0.027l0.006,0.002l0.071,0.028l0.006,0.002l0.071,0.029l0.006,0.003l0.07,0.029l0.006,0.003l0.07,0.03l0.007,0.003l0.069,0.032l0.006,0.002l0.069,0.033l0.006,0.003l0.069,0.033l0.006,0.003l0.068,0.035l0.005,0.002l0.068,0.035l0.007,0.004l0.067,0.036l0.005,0.003l0.067,0.037l0.007,0.004l0.066,0.037l0.005,0.003l0.066,0.039l0.006,0.004l0.065,0.04l0.006,0.003l0.064,0.041l0.006,0.003l0.064,0.042l0.006,0.004l0.064,0.042l0.005,0.003l0.063,0.043l0.006,0.005l0.063,0.044l0.005,0.003l0.062,0.045l0.006,0.005l0.061,0.046l0.005,0.003l0.061,0.047l0.006,0.004l0.06,0.048l0.005,0.004l0.06,0.049l0.005,0.004l0.059,0.049l0.005,0.004l0.058,0.05l0.005,0.004l0.058,0.051l0.006,0.005l0.057,0.052l0.005,0.004l0.056,0.053l0.006,0.005l0.055,0.053l0.005,0.005l0.055,0.054l0.005,0.005l0.055,0.055l0.004,0.004l0.054,0.056l0.005,0.005l0.053,0.057l0.005,0.005l0.053,0.058l0.004,0.005l0.052,0.058l0.004,0.005l0.05,0.057l0.002,0.003l3.005,3.525l-1.522,1.297l-3.001,-3.52l-0.041,-0.047l-0.038,-0.043l-0.038,-0.042l-0.039,-0.041l-0.04,-0.041l-0.04,-0.041l-0.041,-0.04l-0.041,-0.039l-0.041,-0.039l-0.042,-0.038l-0.043,-0.037l-0.043,-0.037l-0.044,-0.037l-0.044,-0.035l-0.044,-0.035l-0.045,-0.034l-0.045,-0.034l-0.046,-0.033l-0.046,-0.033l-0.046,-0.031l-0.047,-0.032l-0.047,-0.03l-0.048,-0.03l-0.048,-0.029l-0.048,-0.029l-0.049,-0.028l-0.049,-0.027l-0.05,-0.026l-0.05,-0.026l-0.05,-0.026l-0.05,-0.024l-0.051,-0.024l-0.051,-0.023l-0.052,-0.023l-0.051,-0.022l-0.053,-0.021l-0.052,-0.02l-0.052,-0.02l-0.053,-0.019l-0.053,-0.018l-0.054,-0.018l-0.054,-0.017l-0.053,-0.016l-0.054,-0.015l-0.055,-0.015l-0.055,-0.014l-0.054,-0.013l-0.055,-0.013l-0.056,-0.012l-0.055,-0.011l-0.056,-0.01l-0.055,-0.01l-0.056,-0.008l-0.056,-0.009l-0.057,-0.007l-0.056,-0.006l-0.057,-0.006l-0.056,-0.005l-0.057,-0.005l-0.057,-0.003l-0.057,-0.003l-0.058,-0.002l-0.057,-0.001l-0.061,0l0.003,0l0,-2l0.006,0Z" style="fill:#166c4f;"/><path d="M59.69,38.717l0,0.067l-0.002,0.066l-0.002,0.066l-0.003,0.066l-0.003,0.066l-0.005,0.066l-0.005,0.066l-0.006,0.065l-0.007,0.066l-0.008,0.065l-0.008,0.065l-0.01,0.065l-0.01,0.065l-0.011,0.065l-0.011,0.064l-0.013,0.065l-0.013,0.064l-0.014,0.064l-0.015,0.063l-0.015,0.064l-0.016,0.063l-0.018,0.063l-0.017,0.063l-0.019,0.062l-0.019,0.063l-0.02,0.062l-0.021,0.062l-0.022,0.061l-0.022,0.061l-0.023,0.061l-0.024,0.061l-0.025,0.06l-0.025,0.06l-0.026,0.06l-0.027,0.06l-0.027,0.059l-0.029,0.058l-0.029,0.059l-0.029,0.058l-0.031,0.058l-0.031,0.057l-0.031,0.057l-0.033,0.057l-0.033,0.056l-0.034,0.056l-0.035,0.055l-0.035,0.055l-0.036,0.055l-0.037,0.054l-0.037,0.054l-0.038,0.054l-0.039,0.053l-0.039,0.052l-0.04,0.052l-0.041,0.052l-0.041,0.051l-0.042,0.051l-0.043,0.05l-0.043,0.05l-0.045,0.049l-0.044,0.049l-0.046,0.048l-0.046,0.048l-0.046,0.047l-0.047,0.047l-0.048,0.046l-0.048,0.045l-0.049,0.045l-0.05,0.044l-0.049,0.043l-0.051,0.043l-0.05,0.042l-0.051,0.041l-0.052,0.041l-0.052,0.04l-0.053,0.04l-0.053,0.038l-0.053,0.038l-0.054,0.038l-0.054,0.036l-0.055,0.036l-0.055,0.036l-0.055,0.034l-0.056,0.034l-0.057,0.033l-0.056,0.033l-0.057,0.032l-0.058,0.031l-0.057,0.03l-0.058,0.03l-0.059,0.029l-0.059,0.028l-0.059,0.027l-0.059,0.027l-0.06,0.026l-0.06,0.025l-0.06,0.025l-0.061,0.024l-0.061,0.023l-0.061,0.022l-0.062,0.022l-0.061,0.021l-0.063,0.02l-0.062,0.019l-0.062,0.019l-0.063,0.018l-0.063,0.017l-0.063,0.016l-0.064,0.016l-0.064,0.014l-0.063,0.014l-0.065,0.014l-0.064,0.012l-0.064,0.012l-0.065,0.011l-0.065,0.01l-0.065,0.009l-0.065,0.008l-0.065,0.008l-0.066,0.007l-0.065,0.006l-0.066,0.005l-0.066,0.005l-0.066,0.004l-0.066,0.002l-0.066,0.003l-0.067,0.001l-0.066,0l-31.113,0l-0.067,0l-0.066,-0.001l-0.066,-0.003l-0.066,-0.002l-0.066,-0.004l-0.066,-0.005l-0.066,-0.005l-0.065,-0.006l-0.066,-0.007l-0.065,-0.008l-0.065,-0.008l-0.065,-0.009l-0.065,-0.01l-0.065,-0.011l-0.064,-0.012l-0.065,-0.012l-0.064,-0.014l-0.064,-0.014l-0.063,-0.014l-0.064,-0.016l-0.063,-0.016l-0.063,-0.017l-0.063,-0.018l-0.062,-0.019l-0.063,-0.019l-0.062,-0.02l-0.062,-0.021l-0.061,-0.022l-0.061,-0.022l-0.061,-0.023l-0.061,-0.024l-0.06,-0.025l-0.06,-0.025l-0.06,-0.026l-0.06,-0.027l-0.059,-0.027l-0.058,-0.028l-0.059,-0.029l-0.058,-0.03l-0.058,-0.03l-0.057,-0.031l-0.057,-0.032l-0.057,-0.033l-0.056,-0.033l-0.056,-0.034l-0.055,-0.034l-0.055,-0.036l-0.055,-0.036l-0.054,-0.036l-0.054,-0.038l-0.054,-0.038l-0.053,-0.038l-0.052,-0.04l-0.052,-0.04l-0.052,-0.041l-0.051,-0.041l-0.051,-0.042l-0.05,-0.043l-0.05,-0.043l-0.049,-0.044l-0.049,-0.045l-0.048,-0.045l-0.048,-0.046l-0.047,-0.047l-0.047,-0.047l-0.046,-0.048l-0.045,-0.048l-0.045,-0.049l-0.044,-0.049l-0.043,-0.05l-0.043,-0.05l-0.042,-0.051l-0.041,-0.051l-0.041,-0.052l-0.04,-0.052l-0.04,-0.052l-0.038,-0.053l-0.038,-0.054l-0.038,-0.054l-0.036,-0.054l-0.036,-0.055l-0.036,-0.055l-0.034,-0.055l-0.034,-0.056l-0.033,-0.056l-0.033,-0.057l-0.032,-0.057l-0.031,-0.057l-0.03,-0.058l-0.03,-0.058l-0.029,-0.059l-0.028,-0.058l-0.027,-0.059l-0.027,-0.06l-0.026,-0.06l-0.025,-0.06l-0.025,-0.06l-0.024,-0.061l-0.023,-0.061l-0.022,-0.061l-0.022,-0.061l-0.021,-0.062l-0.02,-0.062l-0.019,-0.063l-0.019,-0.062l-0.018,-0.063l-0.017,-0.063l-0.016,-0.063l-0.016,-0.064l-0.014,-0.063l-0.014,-0.064l-0.014,-0.064l-0.012,-0.065l-0.012,-0.064l-0.011,-0.065l-0.01,-0.065l-0.009,-0.065l-0.008,-0.065l-0.008,-0.065l-0.007,-0.066l-0.006,-0.065l-0.005,-0.066l-0.005,-0.066l-0.004,-0.066l-0.003,-0.066l-0.002,-0.066l-0.001,-0.066l0,-0.067l0,-0.001l41.801,0l0,0.001Zm-39.138,1.999l0.018,0.024l0.024,0.032l0.026,0.032l0.026,0.032l0.027,0.032l0.026,0.032l0.028,0.031l0.026,0.03l0.028,0.031l0.03,0.031l0.028,0.03l0.029,0.029l0.029,0.028l0.031,0.03l0.031,0.029l0.03,0.028l0.03,0.027l0.031,0.026l0.032,0.027l0.032,0.027l0.032,0.026l0.032,0.025l0.032,0.025l0.033,0.025l0.033,0.024l0.034,0.024l0.034,0.024l0.033,0.022l0.035,0.023l0.035,0.022l0.033,0.021l0.035,0.021l0.036,0.022l0.036,0.02l0.035,0.02l0.036,0.019l0.036,0.019l0.037,0.019l0.036,0.018l0.037,0.018l0.037,0.017l0.037,0.016l0.038,0.017l0.037,0.016l0.038,0.015l0.039,0.015l0.037,0.014l0.038,0.014l0.039,0.014l0.038,0.013l0.039,0.013l0.039,0.012l0.04,0.011l0.039,0.011l0.039,0.011l0.04,0.01l0.039,0.01l0.04,0.009l0.04,0.009l0.04,0.008l0.041,0.008l0.04,0.007l0.04,0.007l0.041,0.007l0.041,0.005l0.04,0.006l0.041,0.004l0.041,0.005l0.041,0.004l0.042,0.003l0.041,0.003l0.041,0.002l0.041,0.002l0.042,0.001l0.041,0.001l0.048,0l31.101,0l0.047,0l0.042,-0.001l0.042,-0.001l0.041,-0.002l0.041,-0.002l0.041,-0.003l0.041,-0.003l0.042,-0.004l0.041,-0.005l0.041,-0.004l0.04,-0.006l0.041,-0.005l0.041,-0.007l0.04,-0.007l0.04,-0.007l0.04,-0.008l0.041,-0.008l0.039,-0.009l0.041,-0.009l0.039,-0.01l0.04,-0.01l0.039,-0.011l0.039,-0.011l0.04,-0.011l0.039,-0.012l0.038,-0.013l0.039,-0.013l0.039,-0.014l0.038,-0.014l0.037,-0.014l0.039,-0.015l0.038,-0.015l0.037,-0.016l0.038,-0.017l0.037,-0.016l0.037,-0.017l0.036,-0.018l0.037,-0.018l0.037,-0.019l0.035,-0.019l0.037,-0.019l0.035,-0.02l0.035,-0.02l0.036,-0.022l0.035,-0.021l0.034,-0.021l0.035,-0.022l0.034,-0.023l0.034,-0.022l0.034,-0.024l0.034,-0.024l0.033,-0.024l0.032,-0.025l0.033,-0.025l0.032,-0.025l0.032,-0.026l0.032,-0.027l0.032,-0.027l0.031,-0.026l0.03,-0.027l0.031,-0.029l0.03,-0.028l0.03,-0.029l0.03,-0.029l0.028,-0.029l0.029,-0.03l0.029,-0.031l0.028,-0.031l0.027,-0.03l0.027,-0.031l0.027,-0.032l0.027,-0.032l0.026,-0.032l0.025,-0.032l0.025,-0.032l0.018,-0.024l-36.475,0Z" style="fill:#166c4f;"/><path d="M54.346,23.917l0.066,0l0.067,0.001l0.066,0.002l0.066,0.003l0.066,0.004l0.066,0.004l0.066,0.006l0.065,0.006l0.066,0.007l0.065,0.007l0.065,0.009l0.065,0.009l0.065,0.01l0.065,0.011l0.064,0.012l0.064,0.012l0.065,0.013l0.063,0.014l0.064,0.015l0.064,0.016l0.063,0.016l0.063,0.017l0.063,0.018l0.062,0.019l0.062,0.019l0.063,0.02l0.061,0.021l0.062,0.021l0.061,0.023l0.061,0.023l0.061,0.024l0.06,0.024l0.06,0.026l0.06,0.026l0.059,0.026l0.059,0.028l0.059,0.028l0.059,0.029l0.058,0.03l0.057,0.03l0.058,0.031l0.057,0.032l0.056,0.032l0.057,0.034l0.056,0.034l0.055,0.034l0.055,0.035l0.055,0.036l0.054,0.037l0.054,0.037l0.053,0.038l0.053,0.039l0.053,0.04l0.052,0.04l0.052,0.04l0.051,0.042l0.05,0.042l0.051,0.043l0.049,0.043l0.05,0.044l0.049,0.045l0.048,0.045l0.048,0.046l0.047,0.047l0.046,0.047l0.046,0.048l0.046,0.048l0.044,0.049l0.045,0.049l0.043,0.05l0.043,0.05l0.042,0.051l0.041,0.051l0.041,0.052l0.04,0.052l0.039,0.052l0.039,0.053l0.038,0.054l0.037,0.053l0.037,0.055l0.036,0.054l0.035,0.055l0.035,0.056l0.034,0.056l0.033,0.056l0.033,0.057l0.031,0.057l0.031,0.057l0.031,0.058l0.029,0.058l0.029,0.058l0.029,0.059l0.027,0.059l0.027,0.06l0.026,0.059l0.025,0.06l0.025,0.061l0.024,0.06l0.023,0.061l0.022,0.062l0.022,0.061l0.021,0.062l0.02,0.062l0.019,0.062l0.019,0.063l0.017,0.063l0.018,0.063l0.016,0.063l0.015,0.063l0.015,0.064l0.014,0.064l0.013,0.064l0.013,0.064l0.011,0.065l0.011,0.065l0.01,0.064l0.01,0.065l0.008,0.066l0.008,0.065l0.007,0.065l0.006,0.066l0.005,0.066l0.005,0.066l0.003,0.066l0.003,0.066l0.002,0.066l0.002,0.066l0,0.067l0,0.001l-41.801,0l0,-0.001l0,-0.067l0.001,-0.066l0.002,-0.066l0.003,-0.066l0.004,-0.066l0.005,-0.066l0.005,-0.066l0.006,-0.066l0.007,-0.065l0.008,-0.065l0.008,-0.066l0.009,-0.065l0.01,-0.064l0.011,-0.065l0.012,-0.065l0.012,-0.064l0.014,-0.064l0.014,-0.064l0.014,-0.064l0.016,-0.063l0.016,-0.063l0.017,-0.063l0.018,-0.063l0.019,-0.063l0.019,-0.062l0.02,-0.062l0.021,-0.062l0.022,-0.061l0.022,-0.062l0.023,-0.061l0.024,-0.06l0.025,-0.061l0.025,-0.06l0.026,-0.059l0.027,-0.06l0.027,-0.059l0.028,-0.059l0.029,-0.058l0.03,-0.058l0.03,-0.058l0.031,-0.057l0.032,-0.057l0.033,-0.057l0.033,-0.056l0.034,-0.056l0.034,-0.056l0.036,-0.055l0.036,-0.054l0.036,-0.055l0.038,-0.053l0.038,-0.054l0.038,-0.053l0.04,-0.052l0.04,-0.052l0.041,-0.052l0.041,-0.051l0.042,-0.051l0.043,-0.05l0.043,-0.05l0.044,-0.049l0.045,-0.049l0.045,-0.048l0.046,-0.048l0.047,-0.047l0.047,-0.047l0.048,-0.046l0.048,-0.045l0.049,-0.045l0.049,-0.044l0.05,-0.043l0.05,-0.043l0.051,-0.042l0.051,-0.042l0.052,-0.04l0.052,-0.04l0.052,-0.04l0.053,-0.039l0.054,-0.038l0.054,-0.037l0.054,-0.037l0.055,-0.036l0.055,-0.035l0.055,-0.034l0.056,-0.034l0.056,-0.034l0.057,-0.032l0.057,-0.032l0.057,-0.031l0.058,-0.03l0.058,-0.03l0.059,-0.029l0.058,-0.028l0.059,-0.028l0.06,-0.026l0.06,-0.026l0.06,-0.026l0.06,-0.024l0.061,-0.024l0.061,-0.023l0.061,-0.023l0.061,-0.021l0.062,-0.021l0.062,-0.02l0.063,-0.019l0.062,-0.019l0.063,-0.018l0.063,-0.017l0.063,-0.016l0.064,-0.016l0.063,-0.015l0.064,-0.014l0.064,-0.013l0.065,-0.012l0.064,-0.012l0.065,-0.011l0.065,-0.01l0.065,-0.009l0.065,-0.009l0.065,-0.007l0.066,-0.007l0.065,-0.006l0.066,-0.006l0.066,-0.004l0.066,-0.004l0.066,-0.003l0.066,-0.002l0.066,-0.001l0.067,0l31.113,0Zm-31.107,2l-0.048,0l-0.041,0.001l-0.042,0.001l-0.041,0.002l-0.041,0.002l-0.042,0.003l-0.041,0.003l-0.041,0.004l-0.041,0.004l-0.041,0.005l-0.04,0.005l-0.041,0.006l-0.041,0.007l-0.04,0.006l-0.04,0.008l-0.041,0.007l-0.04,0.009l-0.04,0.008l-0.04,0.01l-0.039,0.009l-0.04,0.011l-0.039,0.01l-0.039,0.011l-0.04,0.012l-0.039,0.012l-0.039,0.013l-0.038,0.013l-0.039,0.013l-0.038,0.014l-0.037,0.015l-0.039,0.015l-0.038,0.015l-0.037,0.016l-0.038,0.016l-0.037,0.017l-0.037,0.017l-0.037,0.018l-0.036,0.018l-0.037,0.019l-0.036,0.018l-0.036,0.02l-0.035,0.02l-0.036,0.02l-0.036,0.021l-0.035,0.021l-0.033,0.022l-0.035,0.022l-0.035,0.022l-0.033,0.023l-0.034,0.024l-0.034,0.024l-0.033,0.024l-0.033,0.024l-0.032,0.025l-0.032,0.026l-0.032,0.026l-0.032,0.026l-0.032,0.027l-0.031,0.027l-0.03,0.027l-0.03,0.028l-0.031,0.029l-0.031,0.03l-0.029,0.028l-0.029,0.029l-0.028,0.03l-0.03,0.031l-0.028,0.031l-0.026,0.03l-0.028,0.031l-0.026,0.031l-0.027,0.032l-0.026,0.033l-0.026,0.032l-0.024,0.032l-0.018,0.024l36.475,0l-0.018,-0.024l-0.025,-0.032l-0.025,-0.032l-0.026,-0.033l-0.027,-0.032l-0.027,-0.031l-0.027,-0.031l-0.027,-0.03l-0.028,-0.031l-0.029,-0.031l-0.029,-0.03l-0.028,-0.029l-0.03,-0.029l-0.03,-0.029l-0.03,-0.028l-0.031,-0.029l-0.03,-0.027l-0.031,-0.027l-0.032,-0.027l-0.032,-0.026l-0.032,-0.026l-0.032,-0.026l-0.033,-0.025l-0.032,-0.024l-0.033,-0.024l-0.034,-0.024l-0.034,-0.024l-0.034,-0.023l-0.034,-0.022l-0.035,-0.022l-0.034,-0.022l-0.035,-0.021l-0.036,-0.021l-0.035,-0.02l-0.035,-0.02l-0.037,-0.02l-0.035,-0.018l-0.037,-0.019l-0.037,-0.018l-0.036,-0.018l-0.037,-0.017l-0.037,-0.017l-0.038,-0.016l-0.037,-0.016l-0.038,-0.015l-0.039,-0.015l-0.037,-0.015l-0.038,-0.014l-0.039,-0.013l-0.039,-0.013l-0.038,-0.013l-0.039,-0.012l-0.04,-0.012l-0.039,-0.011l-0.039,-0.01l-0.04,-0.011l-0.039,-0.009l-0.04,-0.01l-0.04,-0.008l-0.041,-0.009l-0.04,-0.007l-0.04,-0.008l-0.04,-0.006l-0.041,-0.007l-0.041,-0.006l-0.041,-0.005l-0.04,-0.005l-0.041,-0.004l-0.041,-0.004l-0.042,-0.003l-0.041,-0.003l-0.041,-0.002l-0.041,-0.002l-0.042,-0.001l-0.042,-0.001l-0.047,0l-31.101,0Z" style="fill:#166c4f;"/><path d="M39.513,12.781l0.171,0.003l0.171,0.005l0.171,0.008l0.17,0.009l0.169,0.011l0.168,0.013l0.169,0.015l0.167,0.017l0.167,0.019l0.166,0.021l0.166,0.023l0.165,0.025l0.164,0.026l0.163,0.029l0.163,0.03l0.162,0.033l0.162,0.034l0.161,0.036l0.159,0.038l0.16,0.039l0.158,0.042l0.157,0.043l0.157,0.045l0.156,0.047l0.155,0.048l0.154,0.051l0.154,0.051l0.152,0.054l0.152,0.056l0.151,0.057l0.15,0.058l0.148,0.061l0.148,0.062l0.147,0.064l0.146,0.065l0.145,0.067l0.145,0.068l0.143,0.071l0.142,0.071l0.141,0.074l0.14,0.074l0.138,0.077l0.138,0.078l0.137,0.079l0.136,0.081l0.134,0.082l0.134,0.084l0.132,0.086l0.131,0.086l0.13,0.089l0.129,0.089l0.127,0.091l0.127,0.093l0.125,0.094l0.124,0.095l0.123,0.097l0.121,0.098l0.12,0.099l0.119,0.101l0.118,0.102l0.116,0.103l0.115,0.105l0.114,0.106l0.112,0.107l0.111,0.108l0.11,0.11l0.108,0.111l0.107,0.112l0.105,0.113l0.104,0.114l0.103,0.116l0.101,0.117l0.1,0.118l0.098,0.119l0.096,0.12l0.095,0.122l0.094,0.122l0.092,0.124l0.091,0.125l0.089,0.125l0.087,0.127l0.086,0.128l0.084,0.129l0.083,0.13l0.081,0.131l0.079,0.132l0.078,0.133l0.076,0.133l0.075,0.135l0.072,0.136l0.071,0.137l0.07,0.137l0.067,0.139l0.066,0.139l0.064,0.141l0.063,0.141l0.06,0.142l0.059,0.143l0.057,0.144l0.055,0.144l0.053,0.146l0.052,0.146l0.049,0.147l0.048,0.147l0.046,0.149l0.044,0.149l0.042,0.15l0.04,0.151l0.038,0.151l0.037,0.152l0.034,0.153l0.032,0.154l0.03,0.154l0.029,0.155l0.026,0.155l0.024,0.156l0.022,0.157l0.021,0.157l0.018,0.158l0.016,0.158l0.014,0.159l0.012,0.16l0.009,0.16l0.008,0.161l0.005,0.161l0.003,0.162l0.002,0.162l-26.636,0l0.001,-0.162l0.003,-0.162l0.006,-0.161l0.007,-0.161l0.01,-0.16l0.012,-0.16l0.014,-0.159l0.016,-0.158l0.018,-0.158l0.02,-0.157l0.022,-0.157l0.025,-0.156l0.026,-0.155l0.028,-0.155l0.03,-0.154l0.033,-0.154l0.034,-0.153l0.036,-0.152l0.038,-0.151l0.041,-0.151l0.042,-0.15l0.044,-0.149l0.045,-0.149l0.048,-0.147l0.05,-0.147l0.051,-0.146l0.053,-0.146l0.056,-0.144l0.057,-0.144l0.058,-0.143l0.061,-0.142l0.062,-0.141l0.064,-0.141l0.066,-0.139l0.068,-0.139l0.069,-0.137l0.071,-0.137l0.073,-0.136l0.074,-0.135l0.076,-0.133l0.078,-0.133l0.079,-0.132l0.081,-0.131l0.083,-0.13l0.084,-0.129l0.086,-0.128l0.088,-0.127l0.089,-0.125l0.09,-0.125l0.092,-0.124l0.094,-0.122l0.095,-0.122l0.097,-0.12l0.098,-0.119l0.1,-0.118l0.101,-0.117l0.102,-0.116l0.104,-0.114l0.106,-0.113l0.106,-0.112l0.109,-0.111l0.109,-0.11l0.111,-0.108l0.112,-0.107l0.114,-0.106l0.115,-0.105l0.116,-0.103l0.118,-0.102l0.119,-0.101l0.12,-0.099l0.122,-0.098l0.122,-0.097l0.124,-0.095l0.126,-0.094l0.126,-0.093l0.128,-0.091l0.128,-0.089l0.13,-0.089l0.132,-0.086l0.132,-0.086l0.133,-0.084l0.135,-0.082l0.135,-0.081l0.137,-0.079l0.138,-0.078l0.139,-0.077l0.14,-0.074l0.141,-0.074l0.142,-0.071l0.143,-0.071l0.144,-0.068l0.145,-0.067l0.146,-0.065l0.147,-0.064l0.148,-0.062l0.149,-0.061l0.15,-0.058l0.15,-0.057l0.152,-0.056l0.153,-0.054l0.153,-0.051l0.154,-0.051l0.155,-0.048l0.156,-0.047l0.157,-0.045l0.158,-0.043l0.158,-0.042l0.159,-0.039l0.16,-0.038l0.161,-0.036l0.161,-0.034l0.162,-0.033l0.163,-0.03l0.164,-0.029l0.164,-0.026l0.165,-0.025l0.165,-0.023l0.167,-0.021l0.166,-0.019l0.168,-0.017l0.168,-0.015l0.169,-0.013l0.169,-0.011l0.17,-0.009l0.17,-0.008l0.171,-0.005l0.172,-0.003l0.172,-0.001l0.172,0.001Zm-0.32,2l-0.148,0.003l-0.147,0.004l-0.147,0.006l-0.146,0.008l-0.145,0.01l-0.145,0.011l-0.144,0.013l-0.144,0.015l-0.143,0.016l-0.143,0.018l-0.142,0.02l-0.141,0.021l-0.141,0.023l-0.14,0.024l-0.14,0.026l-0.138,0.028l-0.139,0.029l-0.137,0.031l-0.137,0.032l-0.136,0.034l-0.136,0.036l-0.135,0.037l-0.133,0.038l-0.134,0.04l-0.133,0.042l-0.131,0.043l-0.132,0.044l-0.13,0.046l-0.129,0.047l-0.129,0.049l-0.128,0.05l-0.127,0.052l-0.127,0.053l-0.125,0.054l-0.124,0.056l-0.124,0.057l-0.123,0.058l-0.122,0.06l-0.121,0.061l-0.12,0.063l-0.12,0.064l-0.118,0.065l-0.117,0.066l-0.117,0.068l-0.116,0.069l-0.114,0.07l-0.114,0.071l-0.113,0.073l-0.111,0.074l-0.11,0.075l-0.11,0.076l-0.108,0.077l-0.108,0.079l-0.106,0.08l-0.106,0.081l-0.104,0.082l-0.103,0.083l-0.102,0.084l-0.101,0.086l-0.1,0.086l-0.098,0.087l-0.097,0.089l-0.097,0.09l-0.095,0.091l-0.094,0.091l-0.093,0.094l-0.091,0.093l-0.09,0.095l-0.09,0.096l-0.087,0.096l-0.087,0.098l-0.085,0.099l-0.084,0.099l-0.083,0.1l-0.081,0.102l-0.08,0.102l-0.079,0.103l-0.078,0.104l-0.076,0.105l-0.075,0.106l-0.073,0.106l-0.072,0.108l-0.071,0.107l-0.069,0.11l-0.069,0.11l-0.066,0.11l-0.065,0.112l-0.064,0.112l-0.062,0.113l-0.061,0.114l-0.059,0.114l-0.058,0.114l-0.057,0.117l-0.055,0.116l-0.053,0.117l-0.052,0.118l-0.051,0.119l-0.049,0.118l-0.047,0.12l-0.046,0.12l-0.045,0.123l-0.043,0.121l-0.041,0.121l-0.039,0.124l-0.039,0.124l-0.036,0.123l-0.035,0.125l-0.034,0.126l-0.031,0.126l-0.03,0.125l-0.029,0.128l-0.022,0.104l22.229,0l-0.022,-0.104l-0.028,-0.127l-0.03,-0.126l-0.032,-0.127l-0.033,-0.124l-0.035,-0.125l-0.037,-0.125l-0.038,-0.123l-0.04,-0.123l-0.041,-0.122l-0.043,-0.122l-0.044,-0.122l-0.046,-0.119l-0.048,-0.121l-0.049,-0.119l-0.05,-0.117l-0.052,-0.119l-0.054,-0.118l-0.055,-0.116l-0.056,-0.115l-0.058,-0.115l-0.06,-0.115l-0.06,-0.113l-0.063,-0.113l-0.063,-0.112l-0.066,-0.112l-0.066,-0.11l-0.068,-0.11l-0.069,-0.109l-0.071,-0.108l-0.072,-0.108l-0.074,-0.106l-0.075,-0.106l-0.075,-0.104l-0.078,-0.105l-0.079,-0.103l-0.08,-0.102l-0.082,-0.102l-0.083,-0.1l-0.084,-0.1l-0.085,-0.098l-0.086,-0.098l-0.088,-0.096l-0.089,-0.096l-0.09,-0.095l-0.092,-0.094l-0.093,-0.093l-0.094,-0.091l-0.095,-0.091l-0.096,-0.09l-0.097,-0.088l-0.099,-0.088l-0.1,-0.086l-0.101,-0.086l-0.102,-0.084l-0.103,-0.083l-0.104,-0.082l-0.106,-0.081l-0.105,-0.08l-0.108,-0.079l-0.109,-0.077l-0.109,-0.076l-0.111,-0.076l-0.111,-0.073l-0.113,-0.073l-0.113,-0.071l-0.115,-0.07l-0.116,-0.069l-0.116,-0.068l-0.118,-0.066l-0.118,-0.066l-0.119,-0.063l-0.12,-0.063l-0.121,-0.061l-0.122,-0.06l-0.124,-0.058l-0.123,-0.057l-0.125,-0.056l-0.125,-0.054l-0.126,-0.053l-0.128,-0.052l-0.128,-0.05l-0.128,-0.049l-0.13,-0.047l-0.13,-0.046l-0.131,-0.044l-0.132,-0.043l-0.133,-0.042l-0.133,-0.04l-0.134,-0.038l-0.135,-0.037l-0.135,-0.036l-0.136,-0.034l-0.137,-0.032l-0.138,-0.031l-0.138,-0.029l-0.139,-0.028l-0.139,-0.026l-0.14,-0.024l-0.141,-0.023l-0.142,-0.021l-0.142,-0.02l-0.142,-0.018l-0.143,-0.016l-0.144,-0.015l-0.145,-0.013l-0.144,-0.011l-0.146,-0.01l-0.146,-0.008l-0.146,-0.006l-0.148,-0.004l-0.147,-0.003l-0.148,-0.001l-0.148,0.001Z" style="fill:#166c4f;"/><path d="M35.138,18.731l-0.091,0.039l-0.085,0.037l-0.084,0.039l-0.084,0.039l-0.084,0.041l-0.082,0.041l-0.082,0.042l-0.081,0.043l-0.08,0.045l-0.08,0.044l-0.078,0.046l-0.079,0.047l-0.077,0.047l-0.076,0.048l-0.076,0.049l-0.08,0.053l-1.107,-1.666l0.088,-0.058l0.005,-0.003l0.091,-0.059l0.005,-0.003l0.092,-0.058l0.005,-0.004l0.093,-0.057l0.006,-0.003l0.094,-0.056l0.005,-0.003l0.094,-0.054l0.006,-0.004l0.095,-0.053l0.005,-0.003l0.096,-0.053l0.006,-0.003l0.097,-0.051l0.005,-0.003l0.098,-0.051l0.005,-0.003l0.099,-0.049l0.005,-0.003l0.1,-0.048l0.005,-0.003l0.1,-0.047l0.005,-0.002l0.101,-0.046l0.006,-0.003l0.102,-0.045l0.005,-0.002l0.1,-0.043l0.787,1.839Z" style="fill:#166c4f;"/><path d="M33.18,19.933l-0.106,0.093l-0.097,0.088l-0.095,0.091l-0.094,0.091l-0.091,0.093l-0.088,0.095l-0.087,0.096l-0.085,0.097l-0.082,0.098l-0.08,0.1l-0.078,0.101l-0.076,0.103l-0.075,0.106l-0.034,0.05l-0.035,0.052l-0.035,0.053l-0.034,0.054l-0.033,0.053l-0.033,0.053l-0.032,0.055l-0.032,0.054l-0.031,0.054l-0.031,0.055l-0.029,0.055l-0.03,0.056l-0.028,0.055l-0.028,0.056l-0.028,0.056l-0.026,0.056l-0.027,0.057l-0.025,0.057l-0.025,0.057l-0.024,0.057l-0.024,0.058l-0.023,0.057l-0.022,0.058l-0.022,0.059l-0.021,0.059l-0.02,0.058l-0.02,0.059l-0.019,0.059l-0.019,0.059l-0.017,0.06l-0.018,0.06l-0.016,0.06l-0.016,0.06l-0.015,0.06l-0.014,0.06l-0.014,0.062l-0.013,0.061l-0.014,0.067l-1.96,-0.399l0.015,-0.075l0.002,-0.006l0.016,-0.077l0.001,-0.006l0.018,-0.077l0.001,-0.005l0.018,-0.077l0.002,-0.006l0.019,-0.077l0.002,-0.005l0.02,-0.077l0.001,-0.005l0.021,-0.076l0.001,-0.005l0.022,-0.076l0.002,-0.005l0.022,-0.076l0.002,-0.006l0.024,-0.075l0.001,-0.006l0.024,-0.074l0.002,-0.005l0.025,-0.075l0.002,-0.005l0.026,-0.075l0.002,-0.005l0.027,-0.074l0.001,-0.005l0.028,-0.073l0.001,-0.005l0.029,-0.074l0.002,-0.005l0.029,-0.073l0.002,-0.005l0.03,-0.073l0.002,-0.005l0.031,-0.072l0.002,-0.005l0.031,-0.072l0.002,-0.005l0.032,-0.071l0.003,-0.006l0.033,-0.071l0.002,-0.004l0.033,-0.071l0.003,-0.005l0.034,-0.071l0.003,-0.005l0.035,-0.07l0.002,-0.004l0.036,-0.07l0.002,-0.005l0.037,-0.069l0.003,-0.005l0.037,-0.069l0.003,-0.005l0.038,-0.068l0.002,-0.004l0.039,-0.068l0.003,-0.005l0.039,-0.068l0.003,-0.004l0.04,-0.068l0.003,-0.004l0.041,-0.067l0.003,-0.005l0.041,-0.067l0.003,-0.004l0.043,-0.066l0.002,-0.004l0.043,-0.066l0.003,-0.004l0.044,-0.065l0.003,-0.005l0.045,-0.066l0.004,-0.006l0.09,-0.128l0.006,-0.008l0.094,-0.126l0.006,-0.009l0.096,-0.125l0.006,-0.008l0.099,-0.123l0.006,-0.007l0.102,-0.122l0.006,-0.007l0.104,-0.12l0.007,-0.007l0.106,-0.118l0.007,-0.007l0.109,-0.116l0.006,-0.007l0.112,-0.114l0.007,-0.007l0.113,-0.111l0.007,-0.007l0.116,-0.11l0.007,-0.006l0.118,-0.108l0.007,-0.006l0.117,-0.103l1.319,1.504Z" style="fill:#166c4f;"/><rect x="38.341" y="9.261" width="2" height="3.519" style="fill:#166c4f;"/><g><path d="M31.675,43.685l-4.175,6.957l-1.715,-1.029l4.175,-6.957l1.715,1.029Z" style="fill:#166c4f;"/><path d="M51.751,49.572l-1.715,1.029l-4.175,-6.958l1.715,-1.029l4.175,6.958Z" style="fill:#166c4f;"/><path d="M25.461,48.616l0.059,0.001l0.023,0l0.059,0.002l0.024,0.002l0.059,0.003l0.023,0.002l0.06,0.005l0.023,0.002l0.06,0.006l0.024,0.003l0.059,0.008l0.023,0.003l0.059,0.01l0.023,0.003l0.06,0.011l0.023,0.005l0.059,0.012l0.023,0.005l0.059,0.013l0.023,0.006l0.06,0.015l0.024,0.007l0.059,0.016l0.022,0.007l0.058,0.017l0.023,0.008l0.058,0.019l0.023,0.008l0.058,0.021l0.024,0.009l0.057,0.022l0.023,0.009l0.057,0.024l0.023,0.01l0.057,0.026l0.023,0.011l0.056,0.026l0.021,0.011l0.056,0.028l0.022,0.011l0.055,0.03l0.021,0.012l0.055,0.031l0.022,0.013l0.054,0.033l0.019,0.012l0.054,0.034l0.023,0.015l0.051,0.035l0.017,0.012l0.051,0.036l0.022,0.016l0.051,0.038l0.02,0.016l0.048,0.038l0.018,0.014l0.046,0.039l0.019,0.016l0.047,0.041l0.019,0.017l0.045,0.041l0.018,0.018l0.044,0.042l0.018,0.018l0.042,0.042l0.015,0.016l0.042,0.045l0.018,0.02l0.042,0.047l0.016,0.018l0.038,0.045l0.013,0.017l0.038,0.046l0.017,0.022l0.038,0.049l0.014,0.02l0.035,0.048l0.014,0.02l0.034,0.048l0.013,0.021l0.033,0.049l0.013,0.02l0.032,0.052l0.014,0.023l0.029,0.051l0.01,0.017l0.029,0.052l0.013,0.024l0.028,0.055l0.013,0.024l0.025,0.052l0.008,0.018l0.025,0.052l0.011,0.025l0.024,0.057l0.011,0.025l0.021,0.053l0.007,0.018l0.021,0.055l0.01,0.03l0.019,0.056l0.006,0.017l0.018,0.055l0.007,0.025l0.018,0.059l0.007,0.025l0.015,0.057l0.005,0.022l0.014,0.057l0.006,0.026l0.012,0.057l0.004,0.022l0.011,0.058l0.005,0.025l0.009,0.06l0.004,0.026l0.008,0.058l0.003,0.022l0.007,0.06l0.003,0.03l0.004,0.058l0.002,0.018l0.003,0.058l0.002,0.03l0.002,0.063l0.001,0.026l0,0.058l0,0.021l-0.001,0.058l0,0.026l-0.003,0.061l-0.001,0.025l-0.004,0.06l-0.002,0.026l-0.005,0.06l-0.003,0.025l-0.007,0.06l-0.003,0.026l-0.009,0.059l-0.004,0.026l-0.01,0.059l-0.004,0.025l-0.012,0.059l-0.005,0.025l-0.013,0.059l-0.006,0.025l-0.014,0.059l-0.006,0.024l-0.017,0.06l-0.008,0.028l-0.018,0.058l-0.006,0.021l-0.019,0.057l-0.01,0.028l-0.021,0.059l-0.009,0.023l-0.023,0.059l-0.01,0.026l-0.024,0.056l-0.009,0.02l-0.025,0.055l-0.012,0.026l-0.028,0.059l-0.012,0.025l-0.029,0.054l-0.009,0.019l-0.03,0.054l-0.014,0.024l-0.032,0.056l-0.014,0.023l-0.034,0.055l-0.014,0.022l-0.034,0.052l-0.013,0.019l-0.035,0.051l-0.016,0.022l-0.038,0.052l-0.016,0.021l-0.037,0.048l-0.013,0.017l-0.038,0.048l-0.018,0.021l-0.042,0.048l-0.018,0.021l-0.041,0.046l-0.015,0.016l-0.041,0.044l-0.017,0.018l-0.044,0.043l-0.018,0.018l-0.044,0.042l-0.019,0.018l-0.046,0.041l-0.019,0.017l-0.045,0.04l-0.018,0.015l-0.046,0.037l-0.018,0.015l-0.047,0.037l-0.021,0.016l-0.049,0.036l-0.019,0.015l-0.049,0.034l-0.019,0.013l-0.05,0.034l-0.02,0.013l-0.05,0.032l-0.02,0.013l-0.051,0.03l-0.019,0.012l-0.052,0.029l-0.023,0.013l-0.053,0.029l-0.02,0.01l-0.052,0.027l-0.02,0.01l-0.053,0.026l-0.022,0.01l-0.054,0.024l-0.022,0.01l-0.053,0.023l-0.021,0.008l-0.055,0.022l-0.022,0.009l-0.055,0.02l-0.022,0.008l-0.055,0.019l-0.021,0.007l-0.056,0.018l-0.023,0.007l-0.057,0.017l-0.022,0.006l-0.056,0.015l-0.022,0.006l-0.057,0.014l-0.023,0.005l-0.057,0.013l-0.023,0.005l-0.058,0.011l-0.022,0.004l-0.057,0.01l-0.023,0.004l-0.058,0.009l-0.024,0.003l-0.058,0.007l-0.023,0.003l-0.058,0.006l-0.023,0.002l-0.059,0.005l-0.022,0.001l-0.059,0.003l-0.023,0.001l-0.059,0.002l-0.024,0.001l-0.059,0.001l-0.023,0l-0.059,-0.001l-0.024,-0.001l-0.059,-0.002l-0.023,-0.001l-0.06,-0.004l-0.023,-0.001l-0.059,-0.005l-0.024,-0.003l-0.059,-0.006l-0.024,-0.003l-0.059,-0.008l-0.023,-0.003l-0.059,-0.009l-0.025,-0.004l-0.059,-0.011l-0.023,-0.004l-0.059,-0.012l-0.023,-0.005l-0.059,-0.014l-0.023,-0.005l-0.059,-0.015l-0.023,-0.007l-0.06,-0.016l-0.024,-0.007l-0.058,-0.018l-0.022,-0.007l-0.058,-0.02l-0.022,-0.007l-0.058,-0.021l-0.024,-0.009l-0.058,-0.023l-0.022,-0.009l-0.057,-0.024l-0.024,-0.01l-0.056,-0.025l-0.022,-0.01l-0.056,-0.027l-0.025,-0.012l-0.056,-0.028l-0.02,-0.011l-0.055,-0.03l-0.021,-0.011l-0.055,-0.032l-0.022,-0.013l-0.053,-0.032l-0.02,-0.012l-0.052,-0.034l-0.022,-0.014l-0.052,-0.035l-0.021,-0.015l-0.051,-0.036l-0.02,-0.015l-0.05,-0.038l-0.021,-0.015l-0.047,-0.038l-0.018,-0.015l-0.047,-0.038l-0.019,-0.017l-0.047,-0.04l-0.018,-0.017l-0.046,-0.042l-0.018,-0.017l-0.043,-0.042l-0.016,-0.015l-0.042,-0.044l-0.02,-0.02l-0.042,-0.045l-0.017,-0.019l-0.039,-0.044l-0.014,-0.016l-0.039,-0.046l-0.018,-0.022l-0.039,-0.048l-0.015,-0.019l-0.036,-0.048l-0.015,-0.019l-0.035,-0.048l-0.014,-0.02l-0.033,-0.049l-0.014,-0.02l-0.032,-0.05l-0.013,-0.02l-0.032,-0.051l-0.014,-0.024l-0.03,-0.051l-0.01,-0.017l-0.028,-0.051l-0.013,-0.024l-0.029,-0.055l-0.012,-0.025l-0.026,-0.052l-0.008,-0.017l-0.024,-0.053l-0.011,-0.025l-0.025,-0.056l-0.01,-0.025l-0.021,-0.054l-0.007,-0.017l-0.02,-0.054l-0.01,-0.025l-0.02,-0.058l-0.008,-0.026l-0.018,-0.056l-0.007,-0.022l-0.016,-0.056l-0.007,-0.026l-0.015,-0.057l-0.006,-0.021l-0.013,-0.058l-0.006,-0.025l-0.012,-0.058l-0.005,-0.021l-0.011,-0.058l-0.004,-0.026l-0.01,-0.06l-0.004,-0.026l-0.008,-0.058l-0.002,-0.021l-0.007,-0.058l-0.002,-0.026l-0.006,-0.061l-0.002,-0.026l-0.003,-0.06l-0.001,-0.026l-0.002,-0.058l-0.001,-0.022l-0.001,-0.06l0,-0.03l0.001,-0.06l0.001,-0.022l0.002,-0.058l0.001,-0.026l0.004,-0.06l0.002,-0.025l0.006,-0.061l0.002,-0.025l0.007,-0.06l0.004,-0.025l0.008,-0.06l0.004,-0.025l0.01,-0.06l0.005,-0.025l0.011,-0.059l0.005,-0.025l0.013,-0.059l0.006,-0.025l0.015,-0.058l0.006,-0.025l0.016,-0.06l0.009,-0.028l0.017,-0.058l0.007,-0.02l0.019,-0.058l0.009,-0.027l0.021,-0.059l0.009,-0.024l0.023,-0.058l0.011,-0.027l0.024,-0.056l0.008,-0.019l0.025,-0.056l0.012,-0.026l0.027,-0.056l0.011,-0.022l0.029,-0.057l0.014,-0.025l0.03,-0.055l0.012,-0.021l0.032,-0.054l0.013,-0.024l0.034,-0.054l0.014,-0.022l0.034,-0.052l0.013,-0.02l0.036,-0.051l0.015,-0.022l0.037,-0.05l0.014,-0.019l0.038,-0.049l0.017,-0.022l0.04,-0.049l0.015,-0.018l0.041,-0.048l0.018,-0.021l0.041,-0.045l0.015,-0.017l0.041,-0.043l0.018,-0.018l0.043,-0.044l0.018,-0.018l0.045,-0.042l0.018,-0.017l0.046,-0.042l0.019,-0.017l0.046,-0.039l0.017,-0.015l0.046,-0.038l0.018,-0.015l0.048,-0.037l0.02,-0.016l0.049,-0.036l0.02,-0.014l0.048,-0.034l0.02,-0.014l0.049,-0.033l0.02,-0.013l0.051,-0.033l0.02,-0.012l0.05,-0.031l0.019,-0.011l0.052,-0.03l0.023,-0.013l0.053,-0.028l0.02,-0.011l0.052,-0.026l0.02,-0.01l0.053,-0.026l0.023,-0.01l0.053,-0.025l0.02,-0.008l0.054,-0.023l0.022,-0.01l0.056,-0.022l0.023,-0.009l0.055,-0.02l0.021,-0.008l0.054,-0.019l0.021,-0.007l0.056,-0.018l0.024,-0.007l0.057,-0.016l0.021,-0.007l0.057,-0.015l0.021,-0.005l0.057,-0.014l0.023,-0.006l0.058,-0.012l0.022,-0.005l0.057,-0.011l0.024,-0.005l0.058,-0.01l0.022,-0.003l0.057,-0.009l0.023,-0.003l0.059,-0.008l0.023,-0.002l0.059,-0.006l0.022,-0.002l0.058,-0.005l0.024,-0.002l0.059,-0.003l0.023,-0.001l0.059,-0.002l0.023,0l0.059,-0.001l0.024,0Zm-0.051,2l-0.036,0.002l-0.036,0.002l-0.035,0.002l-0.036,0.004l-0.035,0.005l-0.035,0.005l-0.036,0.006l-0.035,0.007l-0.034,0.007l-0.035,0.009l-0.034,0.009l-0.034,0.01l-0.034,0.011l-0.034,0.012l-0.033,0.012l-0.033,0.013l-0.033,0.014l-0.032,0.015l-0.032,0.015l-0.032,0.017l-0.031,0.017l-0.031,0.017l-0.03,0.019l-0.03,0.019l-0.03,0.02l-0.029,0.02l-0.029,0.022l-0.028,0.022l-0.028,0.023l-0.027,0.023l-0.026,0.024l-0.026,0.025l-0.026,0.026l-0.025,0.026l-0.024,0.027l-0.024,0.028l-0.023,0.028l-0.022,0.029l-0.022,0.03l-0.021,0.03l-0.02,0.031l-0.02,0.032l-0.018,0.032l-0.018,0.033l-0.017,0.032l-0.016,0.033l-0.015,0.034l-0.014,0.033l-0.013,0.033l-0.012,0.034l-0.011,0.034l-0.011,0.034l-0.009,0.034l-0.009,0.034l-0.007,0.035l-0.007,0.034l-0.006,0.035l-0.004,0.034l-0.004,0.035l-0.004,0.034l-0.002,0.035l-0.001,0.035l-0.001,0.034l0.001,0.035l0.001,0.034l0.002,0.035l0.003,0.034l0.004,0.034l0.004,0.034l0.006,0.034l0.006,0.034l0.007,0.034l0.008,0.033l0.009,0.033l0.01,0.033l0.01,0.033l0.012,0.033l0.012,0.032l0.013,0.032l0.013,0.032l0.015,0.031l0.015,0.032l0.016,0.03l0.017,0.031l0.018,0.03l0.018,0.03l0.019,0.029l0.02,0.029l0.021,0.028l0.021,0.028l0.022,0.028l0.023,0.027l0.024,0.027l0.024,0.026l0.026,0.025l0.025,0.025l0.027,0.025l0.027,0.024l0.028,0.023l0.029,0.023l0.03,0.022l0.03,0.021l0.031,0.021l0.031,0.021l0.033,0.019l0.033,0.019l0.033,0.018l0.034,0.017l0.034,0.016l0.034,0.016l0.034,0.014l0.035,0.013l0.035,0.013l0.035,0.012l0.035,0.011l0.035,0.01l0.036,0.009l0.036,0.008l0.035,0.007l0.036,0.006l0.036,0.006l0.036,0.005l0.036,0.004l0.036,0.003l0.036,0.002l0.036,0.001l0.036,0.001l0.035,-0.001l0.036,-0.001l0.036,-0.002l0.036,-0.003l0.035,-0.004l0.036,-0.004l0.035,-0.005l0.035,-0.006l0.035,-0.007l0.035,-0.008l0.034,-0.008l0.035,-0.01l0.034,-0.01l0.034,-0.011l0.033,-0.011l0.034,-0.013l0.033,-0.013l0.032,-0.014l0.033,-0.014l0.032,-0.016l0.031,-0.016l0.032,-0.017l0.03,-0.018l0.031,-0.018l0.03,-0.019l0.029,-0.02l0.03,-0.021l0.028,-0.021l0.028,-0.022l0.028,-0.023l0.027,-0.024l0.027,-0.024l0.026,-0.025l0.025,-0.025l0.025,-0.027l0.024,-0.027l0.024,-0.027l0.023,-0.029l0.022,-0.029l0.022,-0.029l0.021,-0.031l0.02,-0.031l0.02,-0.032l0.019,-0.032l0.018,-0.032l0.016,-0.033l0.016,-0.033l0.015,-0.033l0.014,-0.033l0.013,-0.034l0.012,-0.034l0.012,-0.034l0.01,-0.034l0.009,-0.034l0.009,-0.034l0.008,-0.034l0.006,-0.035l0.006,-0.034l0.005,-0.035l0.004,-0.034l0.003,-0.035l0.002,-0.035l0.002,-0.034l0,-0.035l0,-0.034l-0.002,-0.035l-0.002,-0.034l-0.003,-0.034l-0.003,-0.035l-0.005,-0.034l-0.006,-0.034l-0.006,-0.034l-0.007,-0.033l-0.008,-0.034l-0.009,-0.033l-0.009,-0.033l-0.011,-0.033l-0.011,-0.032l-0.012,-0.033l-0.013,-0.032l-0.014,-0.031l-0.014,-0.032l-0.016,-0.031l-0.016,-0.031l-0.016,-0.03l-0.018,-0.03l-0.018,-0.03l-0.02,-0.029l-0.02,-0.029l-0.02,-0.029l-0.022,-0.028l-0.022,-0.027l-0.023,-0.027l-0.023,-0.027l-0.025,-0.026l-0.025,-0.026l-0.026,-0.025l-0.027,-0.024l-0.027,-0.024l-0.028,-0.024l-0.029,-0.022l-0.029,-0.022l-0.03,-0.022l-0.031,-0.021l-0.032,-0.02l-0.032,-0.02l-0.033,-0.018l-0.034,-0.018l-0.033,-0.018l-0.034,-0.016l-0.034,-0.015l-0.035,-0.014l-0.035,-0.014l-0.034,-0.013l-0.035,-0.011l-0.036,-0.011l-0.035,-0.01l-0.036,-0.009l-0.035,-0.008l-0.036,-0.008l-0.036,-0.006l-0.035,-0.006l-0.036,-0.004l-0.036,-0.004l-0.036,-0.003l-0.036,-0.002l-0.036,-0.002l-0.036,0l-0.036,0Z" style="fill:#166c4f;"/><path d="M52.083,48.617l0.023,0l0.059,0.002l0.023,0.001l0.059,0.003l0.023,0.002l0.059,0.005l0.023,0.002l0.058,0.006l0.023,0.002l0.059,0.008l0.022,0.003l0.058,0.009l0.022,0.003l0.058,0.01l0.024,0.005l0.057,0.011l0.022,0.005l0.058,0.012l0.023,0.006l0.057,0.014l0.021,0.005l0.056,0.015l0.022,0.007l0.056,0.016l0.023,0.007l0.056,0.018l0.022,0.007l0.056,0.02l0.022,0.007l0.055,0.021l0.021,0.008l0.055,0.022l0.021,0.009l0.055,0.023l0.023,0.01l0.053,0.024l0.019,0.009l0.053,0.026l0.024,0.012l0.052,0.027l0.019,0.009l0.052,0.028l0.023,0.013l0.051,0.03l0.019,0.011l0.051,0.031l0.02,0.012l0.051,0.033l0.02,0.013l0.049,0.033l0.02,0.014l0.048,0.034l0.02,0.014l0.047,0.036l0.019,0.014l0.048,0.037l0.02,0.016l0.048,0.04l0.019,0.016l0.046,0.04l0.017,0.015l0.045,0.041l0.018,0.017l0.045,0.042l0.018,0.018l0.042,0.043l0.015,0.016l0.043,0.044l0.019,0.021l0.042,0.047l0.016,0.018l0.039,0.047l0.016,0.018l0.04,0.049l0.017,0.022l0.038,0.049l0.014,0.019l0.037,0.05l0.015,0.022l0.035,0.051l0.013,0.02l0.034,0.052l0.015,0.022l0.033,0.054l0.014,0.024l0.032,0.054l0.012,0.021l0.03,0.055l0.014,0.025l0.028,0.057l0.011,0.022l0.027,0.055l0.011,0.022l0.026,0.058l0.011,0.026l0.024,0.058l0.01,0.023l0.022,0.056l0.008,0.024l0.022,0.059l0.009,0.027l0.019,0.058l0.007,0.02l0.017,0.058l0.008,0.028l0.017,0.06l0.006,0.025l0.015,0.058l0.006,0.025l0.013,0.059l0.005,0.025l0.011,0.059l0.005,0.025l0.01,0.06l0.004,0.025l0.008,0.06l0.004,0.025l0.006,0.06l0.003,0.025l0.006,0.061l0.001,0.025l0.004,0.06l0.002,0.026l0.002,0.058l0.001,0.022l0.001,0.06l0,0.03l-0.001,0.06l-0.001,0.022l-0.002,0.058l-0.001,0.026l-0.004,0.06l-0.001,0.026l-0.006,0.061l-0.002,0.026l-0.007,0.058l-0.003,0.021l-0.007,0.058l-0.004,0.026l-0.01,0.06l-0.004,0.026l-0.011,0.058l-0.005,0.021l-0.012,0.058l-0.006,0.025l-0.013,0.058l-0.006,0.021l-0.015,0.057l-0.007,0.026l-0.017,0.056l-0.006,0.022l-0.018,0.056l-0.008,0.026l-0.02,0.056l-0.008,0.021l-0.02,0.056l-0.01,0.025l-0.022,0.055l-0.009,0.022l-0.024,0.054l-0.011,0.025l-0.024,0.053l-0.009,0.017l-0.025,0.052l-0.012,0.025l-0.029,0.055l-0.013,0.024l-0.028,0.051l-0.01,0.017l-0.03,0.051l-0.014,0.024l-0.032,0.051l-0.013,0.02l-0.032,0.05l-0.014,0.02l-0.033,0.049l-0.014,0.02l-0.035,0.048l-0.015,0.019l-0.036,0.048l-0.015,0.019l-0.039,0.048l-0.018,0.022l-0.039,0.046l-0.014,0.016l-0.039,0.044l-0.017,0.019l-0.042,0.045l-0.02,0.02l-0.043,0.044l-0.015,0.015l-0.043,0.042l-0.019,0.017l-0.045,0.042l-0.019,0.017l-0.045,0.039l-0.017,0.015l-0.048,0.04l-0.022,0.017l-0.049,0.039l-0.018,0.014l-0.049,0.037l-0.02,0.015l-0.051,0.036l-0.021,0.015l-0.052,0.035l-0.022,0.014l-0.052,0.034l-0.02,0.012l-0.052,0.032l-0.021,0.012l-0.055,0.031l-0.022,0.013l-0.057,0.03l-0.022,0.012l-0.056,0.028l-0.022,0.011l-0.057,0.027l-0.021,0.01l-0.057,0.025l-0.023,0.01l-0.057,0.024l-0.022,0.009l-0.058,0.023l-0.024,0.009l-0.057,0.02l-0.022,0.008l-0.058,0.019l-0.024,0.008l-0.059,0.018l-0.023,0.007l-0.059,0.016l-0.023,0.007l-0.059,0.015l-0.022,0.005l-0.059,0.014l-0.025,0.005l-0.059,0.012l-0.022,0.004l-0.059,0.011l-0.025,0.004l-0.06,0.009l-0.022,0.003l-0.059,0.008l-0.024,0.003l-0.059,0.006l-0.024,0.003l-0.059,0.005l-0.024,0.001l-0.059,0.004l-0.023,0.001l-0.06,0.002l-0.023,0.001l-0.059,0.001l-0.023,0l-0.059,-0.001l-0.024,-0.001l-0.059,-0.002l-0.023,-0.001l-0.059,-0.003l-0.023,-0.001l-0.058,-0.005l-0.023,-0.002l-0.059,-0.006l-0.022,-0.003l-0.059,-0.007l-0.023,-0.003l-0.058,-0.009l-0.023,-0.004l-0.057,-0.01l-0.022,-0.004l-0.058,-0.011l-0.024,-0.005l-0.057,-0.013l-0.021,-0.005l-0.057,-0.014l-0.023,-0.006l-0.057,-0.015l-0.023,-0.007l-0.056,-0.016l-0.021,-0.007l-0.055,-0.017l-0.023,-0.008l-0.055,-0.019l-0.022,-0.008l-0.055,-0.02l-0.022,-0.009l-0.055,-0.022l-0.021,-0.008l-0.054,-0.023l-0.021,-0.01l-0.054,-0.024l-0.022,-0.01l-0.053,-0.026l-0.021,-0.01l-0.052,-0.027l-0.022,-0.012l-0.052,-0.028l-0.019,-0.011l-0.051,-0.029l-0.021,-0.012l-0.052,-0.031l-0.02,-0.013l-0.05,-0.032l-0.021,-0.013l-0.049,-0.034l-0.019,-0.013l-0.049,-0.034l-0.019,-0.015l-0.049,-0.036l-0.021,-0.016l-0.047,-0.037l-0.019,-0.015l-0.045,-0.037l-0.018,-0.015l-0.046,-0.04l-0.019,-0.017l-0.045,-0.041l-0.019,-0.018l-0.045,-0.042l-0.018,-0.018l-0.043,-0.043l-0.017,-0.018l-0.042,-0.045l-0.017,-0.018l-0.04,-0.045l-0.014,-0.016l-0.041,-0.048l-0.02,-0.023l-0.039,-0.049l-0.013,-0.017l-0.037,-0.048l-0.017,-0.021l-0.037,-0.052l-0.016,-0.022l-0.035,-0.051l-0.013,-0.019l-0.035,-0.054l-0.016,-0.025l-0.033,-0.053l-0.01,-0.017l-0.032,-0.054l-0.015,-0.028l-0.031,-0.055l-0.009,-0.019l-0.029,-0.054l-0.012,-0.025l-0.029,-0.059l-0.012,-0.026l-0.025,-0.055l-0.008,-0.02l-0.024,-0.056l-0.011,-0.026l-0.022,-0.059l-0.009,-0.023l-0.021,-0.059l-0.01,-0.028l-0.019,-0.057l-0.006,-0.021l-0.018,-0.058l-0.008,-0.028l-0.017,-0.06l-0.006,-0.024l-0.015,-0.059l-0.005,-0.025l-0.013,-0.059l-0.006,-0.025l-0.011,-0.059l-0.005,-0.025l-0.01,-0.059l-0.003,-0.026l-0.009,-0.059l-0.003,-0.026l-0.007,-0.06l-0.003,-0.025l-0.005,-0.06l-0.002,-0.026l-0.004,-0.06l-0.001,-0.025l-0.003,-0.061l0,-0.026l-0.001,-0.058l0,-0.021l0,-0.061l0.001,-0.03l0.002,-0.06l0.001,-0.022l0.004,-0.058l0.002,-0.026l0.005,-0.058l0.002,-0.022l0.007,-0.06l0.003,-0.03l0.008,-0.058l0.003,-0.017l0.009,-0.058l0.005,-0.03l0.012,-0.06l0.004,-0.022l0.012,-0.057l0.006,-0.026l0.014,-0.057l0.005,-0.022l0.015,-0.057l0.007,-0.025l0.017,-0.059l0.008,-0.025l0.018,-0.057l0.008,-0.021l0.018,-0.054l0.008,-0.022l0.02,-0.054l0.008,-0.021l0.022,-0.055l0.011,-0.025l0.024,-0.057l0.011,-0.025l0.025,-0.054l0.01,-0.021l0.026,-0.052l0.011,-0.021l0.027,-0.052l0.011,-0.02l0.028,-0.052l0.012,-0.02l0.03,-0.053l0.014,-0.023l0.032,-0.052l0.013,-0.02l0.033,-0.049l0.013,-0.021l0.034,-0.048l0.014,-0.02l0.035,-0.048l0.014,-0.02l0.037,-0.049l0.018,-0.022l0.038,-0.046l0.013,-0.017l0.038,-0.045l0.016,-0.018l0.041,-0.047l0.019,-0.02l0.042,-0.045l0.015,-0.016l0.042,-0.042l0.018,-0.018l0.044,-0.042l0.018,-0.018l0.045,-0.041l0.019,-0.017l0.046,-0.041l0.02,-0.016l0.046,-0.039l0.018,-0.014l0.049,-0.039l0.022,-0.017l0.05,-0.038l0.019,-0.013l0.049,-0.035l0.019,-0.013l0.052,-0.036l0.023,-0.015l0.054,-0.034l0.019,-0.012l0.054,-0.033l0.022,-0.013l0.055,-0.031l0.021,-0.012l0.055,-0.03l0.022,-0.011l0.056,-0.028l0.021,-0.011l0.056,-0.027l0.025,-0.011l0.056,-0.025l0.021,-0.009l0.057,-0.024l0.025,-0.01l0.058,-0.023l0.021,-0.008l0.057,-0.02l0.024,-0.009l0.059,-0.019l0.023,-0.008l0.058,-0.018l0.023,-0.006l0.059,-0.017l0.022,-0.006l0.059,-0.015l0.024,-0.006l0.06,-0.013l0.023,-0.005l0.058,-0.012l0.024,-0.005l0.059,-0.011l0.024,-0.003l0.059,-0.01l0.023,-0.003l0.059,-0.008l0.024,-0.003l0.06,-0.006l0.023,-0.002l0.06,-0.005l0.023,-0.002l0.059,-0.003l0.024,-0.002l0.059,-0.002l0.023,0l0.059,-0.001l0.024,0l0.059,0.001Zm-0.104,1.999l-0.036,0.002l-0.036,0.002l-0.036,0.003l-0.036,0.004l-0.036,0.004l-0.035,0.006l-0.036,0.006l-0.036,0.008l-0.036,0.008l-0.035,0.009l-0.035,0.01l-0.036,0.011l-0.035,0.011l-0.035,0.013l-0.034,0.014l-0.035,0.014l-0.034,0.015l-0.034,0.016l-0.034,0.018l-0.033,0.018l-0.033,0.018l-0.032,0.02l-0.032,0.02l-0.031,0.021l-0.03,0.022l-0.029,0.022l-0.029,0.022l-0.028,0.024l-0.028,0.024l-0.026,0.024l-0.026,0.025l-0.025,0.026l-0.025,0.026l-0.023,0.027l-0.023,0.027l-0.022,0.027l-0.022,0.028l-0.021,0.029l-0.019,0.029l-0.02,0.029l-0.018,0.03l-0.018,0.03l-0.016,0.03l-0.017,0.031l-0.015,0.031l-0.014,0.032l-0.014,0.031l-0.013,0.032l-0.012,0.033l-0.011,0.032l-0.011,0.033l-0.009,0.033l-0.009,0.033l-0.008,0.034l-0.007,0.033l-0.007,0.034l-0.005,0.034l-0.005,0.034l-0.004,0.035l-0.003,0.034l-0.002,0.034l-0.001,0.035l0,0.034l0,0.035l0.002,0.034l0.002,0.035l0.003,0.035l0.004,0.034l0.005,0.035l0.006,0.034l0.006,0.035l0.008,0.034l0.008,0.034l0.01,0.034l0.01,0.034l0.011,0.034l0.013,0.034l0.013,0.034l0.014,0.033l0.015,0.033l0.016,0.033l0.016,0.033l0.018,0.032l0.019,0.032l0.02,0.032l0.02,0.031l0.021,0.031l0.022,0.029l0.022,0.029l0.023,0.029l0.024,0.027l0.024,0.027l0.025,0.027l0.025,0.025l0.026,0.025l0.027,0.024l0.027,0.024l0.028,0.023l0.028,0.022l0.028,0.021l0.029,0.021l0.03,0.02l0.03,0.019l0.031,0.018l0.03,0.018l0.032,0.017l0.031,0.016l0.032,0.016l0.033,0.014l0.032,0.014l0.033,0.013l0.034,0.013l0.033,0.011l0.034,0.011l0.034,0.01l0.035,0.01l0.034,0.008l0.035,0.008l0.035,0.007l0.035,0.006l0.035,0.005l0.036,0.004l0.035,0.004l0.036,0.003l0.036,0.002l0.035,0.001l0.036,0.001l0.036,-0.001l0.036,-0.001l0.036,-0.002l0.036,-0.003l0.036,-0.004l0.036,-0.005l0.036,-0.006l0.036,-0.006l0.035,-0.007l0.036,-0.008l0.035,-0.009l0.036,-0.01l0.035,-0.011l0.035,-0.012l0.035,-0.013l0.035,-0.013l0.034,-0.014l0.034,-0.016l0.034,-0.016l0.034,-0.017l0.033,-0.018l0.033,-0.019l0.033,-0.019l0.031,-0.021l0.031,-0.021l0.03,-0.021l0.03,-0.022l0.028,-0.023l0.029,-0.023l0.027,-0.024l0.026,-0.025l0.026,-0.025l0.026,-0.025l0.024,-0.026l0.024,-0.027l0.023,-0.027l0.022,-0.028l0.021,-0.028l0.021,-0.028l0.02,-0.029l0.019,-0.029l0.018,-0.03l0.018,-0.03l0.017,-0.031l0.016,-0.03l0.015,-0.032l0.015,-0.031l0.013,-0.032l0.013,-0.032l0.012,-0.032l0.012,-0.033l0.01,-0.033l0.01,-0.033l0.008,-0.033l0.008,-0.033l0.008,-0.034l0.006,-0.034l0.005,-0.034l0.005,-0.034l0.004,-0.034l0.003,-0.034l0.002,-0.035l0.001,-0.034l0.001,-0.035l-0.001,-0.034l-0.001,-0.035l-0.003,-0.035l-0.003,-0.034l-0.004,-0.035l-0.005,-0.034l-0.005,-0.035l-0.007,-0.034l-0.008,-0.035l-0.008,-0.034l-0.01,-0.034l-0.01,-0.034l-0.011,-0.034l-0.012,-0.034l-0.013,-0.033l-0.014,-0.033l-0.015,-0.034l-0.016,-0.033l-0.017,-0.032l-0.018,-0.033l-0.019,-0.032l-0.019,-0.032l-0.02,-0.031l-0.021,-0.03l-0.022,-0.03l-0.023,-0.029l-0.023,-0.028l-0.023,-0.028l-0.024,-0.027l-0.025,-0.026l-0.026,-0.026l-0.026,-0.025l-0.026,-0.024l-0.028,-0.023l-0.027,-0.023l-0.028,-0.022l-0.029,-0.022l-0.029,-0.02l-0.03,-0.02l-0.03,-0.019l-0.03,-0.019l-0.031,-0.017l-0.031,-0.017l-0.032,-0.017l-0.032,-0.015l-0.032,-0.015l-0.033,-0.014l-0.033,-0.013l-0.033,-0.012l-0.034,-0.012l-0.034,-0.011l-0.034,-0.01l-0.034,-0.009l-0.035,-0.009l-0.035,-0.007l-0.034,-0.007l-0.036,-0.006l-0.035,-0.005l-0.035,-0.005l-0.036,-0.004l-0.036,-0.002l-0.035,-0.002l-0.036,-0.002l-0.036,0l-0.036,0Z" style="fill:#166c4f;"/></g><path d="M39.459,2.747l0.024,0l0.063,0.003l0.025,0.001l0.062,0.004l0.024,0.002l0.062,0.005l0.024,0.002l0.061,0.007l0.025,0.003l0.06,0.008l0.024,0.004l0.061,0.009l0.024,0.004l0.061,0.012l0.023,0.004l0.06,0.013l0.025,0.005l0.058,0.014l0.023,0.006l0.058,0.015l0.024,0.006l0.059,0.017l0.023,0.007l0.058,0.018l0.022,0.008l0.056,0.019l0.022,0.007l0.057,0.021l0.024,0.009l0.056,0.022l0.021,0.009l0.055,0.023l0.022,0.009l0.054,0.025l0.022,0.01l0.054,0.026l0.021,0.01l0.053,0.027l0.021,0.011l0.052,0.028l0.02,0.011l0.051,0.029l0.02,0.012l0.051,0.031l0.022,0.013l0.05,0.032l0.019,0.012l0.049,0.033l0.021,0.014l0.048,0.034l0.018,0.013l0.047,0.035l0.02,0.014l0.047,0.037l0.019,0.015l0.045,0.037l0.016,0.014l0.045,0.038l0.021,0.018l0.044,0.039l0.015,0.014l0.042,0.04l0.017,0.016l0.043,0.042l0.018,0.019l0.041,0.042l0.014,0.015l0.039,0.042l0.018,0.02l0.04,0.046l0.017,0.02l0.037,0.044l0.012,0.015l0.037,0.046l0.018,0.023l0.036,0.047l0.011,0.015l0.034,0.048l0.017,0.023l0.034,0.05l0.012,0.018l0.032,0.049l0.013,0.021l0.032,0.051l0.012,0.022l0.03,0.052l0.013,0.021l0.028,0.052l0.012,0.022l0.028,0.055l0.013,0.025l0.025,0.053l0.009,0.019l0.025,0.053l0.011,0.026l0.024,0.056l0.009,0.022l0.021,0.055l0.009,0.022l0.021,0.058l0.011,0.03l0.019,0.057l0.006,0.018l0.018,0.058l0.008,0.03l0.017,0.06l0.006,0.021l0.015,0.059l0.006,0.025l0.014,0.061l0.005,0.026l0.012,0.06l0.005,0.026l0.011,0.061l0.004,0.025l0.008,0.061l0.004,0.025l0.007,0.063l0.003,0.03l0.006,0.063l0.002,0.025l0.004,0.061l0.001,0.024l0.003,0.064l0.001,0.028l0,0.063l0,0.024l0,0.064l-0.001,0.028l-0.003,0.063l-0.001,0.025l-0.004,0.061l-0.002,0.025l-0.006,0.063l-0.003,0.029l-0.007,0.063l-0.004,0.026l-0.008,0.061l-0.004,0.025l-0.011,0.061l-0.005,0.026l-0.012,0.06l-0.005,0.026l-0.014,0.06l-0.006,0.026l-0.015,0.058l-0.006,0.022l-0.017,0.06l-0.008,0.03l-0.018,0.057l-0.006,0.019l-0.019,0.057l-0.011,0.029l-0.021,0.059l-0.009,0.022l-0.021,0.055l-0.009,0.022l-0.024,0.056l-0.011,0.025l-0.025,0.054l-0.009,0.019l-0.025,0.053l-0.013,0.025l-0.028,0.055l-0.012,0.021l-0.028,0.053l-0.013,0.021l-0.03,0.052l-0.012,0.021l-0.032,0.051l-0.013,0.022l-0.032,0.049l-0.012,0.018l-0.034,0.049l-0.017,0.024l-0.034,0.048l-0.012,0.015l-0.035,0.047l-0.018,0.023l-0.037,0.046l-0.012,0.015l-0.037,0.044l-0.017,0.02l-0.04,0.046l-0.018,0.019l-0.039,0.043l-0.014,0.015l-0.041,0.042l-0.018,0.019l-0.043,0.042l-0.017,0.016l-0.042,0.039l-0.016,0.015l-0.043,0.039l-0.02,0.018l-0.045,0.038l-0.017,0.014l-0.045,0.037l-0.019,0.015l-0.047,0.036l-0.02,0.015l-0.047,0.035l-0.018,0.013l-0.048,0.034l-0.021,0.014l-0.049,0.033l-0.019,0.012l-0.05,0.032l-0.022,0.013l-0.051,0.031l-0.02,0.011l-0.051,0.029l-0.02,0.012l-0.052,0.028l-0.021,0.011l-0.053,0.026l-0.021,0.011l-0.054,0.026l-0.022,0.01l-0.054,0.024l-0.022,0.01l-0.055,0.023l-0.021,0.009l-0.056,0.022l-0.024,0.009l-0.057,0.02l-0.022,0.008l-0.056,0.019l-0.022,0.007l-0.058,0.019l-0.023,0.007l-0.059,0.016l-0.024,0.007l-0.059,0.015l-0.022,0.006l-0.058,0.013l-0.024,0.006l-0.061,0.012l-0.024,0.005l-0.06,0.011l-0.024,0.004l-0.061,0.01l-0.024,0.004l-0.061,0.008l-0.024,0.003l-0.061,0.007l-0.024,0.002l-0.062,0.005l-0.025,0.002l-0.062,0.004l-0.024,0.001l-0.062,0.002l-0.025,0.001l-0.063,0.001l-0.024,0l-0.063,-0.001l-0.025,-0.001l-0.062,-0.002l-0.024,-0.001l-0.062,-0.004l-0.025,-0.002l-0.062,-0.005l-0.023,-0.002l-0.061,-0.007l-0.025,-0.003l-0.061,-0.008l-0.025,-0.004l-0.06,-0.01l-0.024,-0.004l-0.06,-0.011l-0.024,-0.005l-0.06,-0.012l-0.023,-0.005l-0.059,-0.014l-0.024,-0.006l-0.059,-0.015l-0.023,-0.007l-0.058,-0.016l-0.024,-0.007l-0.057,-0.019l-0.023,-0.007l-0.056,-0.019l-0.022,-0.008l-0.056,-0.02l-0.022,-0.009l-0.057,-0.022l-0.024,-0.01l-0.056,-0.023l-0.02,-0.009l-0.053,-0.024l-0.02,-0.009l-0.054,-0.026l-0.023,-0.011l-0.054,-0.027l-0.021,-0.011l-0.052,-0.029l-0.023,-0.012l-0.051,-0.029l-0.018,-0.011l-0.05,-0.03l-0.021,-0.013l-0.05,-0.032l-0.019,-0.012l-0.05,-0.033l-0.02,-0.014l-0.048,-0.034l-0.018,-0.013l-0.048,-0.035l-0.019,-0.015l-0.047,-0.036l-0.019,-0.015l-0.045,-0.037l-0.017,-0.014l-0.044,-0.037l-0.018,-0.016l-0.045,-0.04l-0.02,-0.019l-0.043,-0.04l-0.015,-0.014l-0.04,-0.04l-0.017,-0.017l-0.042,-0.043l-0.018,-0.019l-0.04,-0.044l-0.016,-0.017l-0.038,-0.044l-0.015,-0.017l-0.038,-0.045l-0.016,-0.021l-0.037,-0.046l-0.014,-0.017l-0.035,-0.047l-0.016,-0.021l-0.035,-0.049l-0.015,-0.021l-0.033,-0.048l-0.012,-0.018l-0.031,-0.049l-0.014,-0.022l-0.031,-0.051l-0.013,-0.021l-0.03,-0.052l-0.012,-0.021l-0.029,-0.053l-0.011,-0.021l-0.028,-0.053l-0.011,-0.022l-0.026,-0.055l-0.012,-0.025l-0.025,-0.054l-0.008,-0.019l-0.024,-0.056l-0.012,-0.029l-0.022,-0.056l-0.007,-0.019l-0.02,-0.055l-0.009,-0.025l-0.02,-0.06l-0.009,-0.025l-0.017,-0.058l-0.007,-0.022l-0.017,-0.06l-0.008,-0.03l-0.015,-0.06l-0.005,-0.022l-0.013,-0.058l-0.006,-0.026l-0.012,-0.06l-0.005,-0.026l-0.01,-0.061l-0.004,-0.025l-0.009,-0.061l-0.003,-0.026l-0.008,-0.063l-0.003,-0.029l-0.006,-0.061l-0.001,-0.021l-0.005,-0.063l-0.001,-0.033l-0.003,-0.063l0,-0.02l-0.001,-0.064l0,-0.032l0.001,-0.063l0,-0.02l0.003,-0.063l0.001,-0.033l0.005,-0.063l0.001,-0.021l0.006,-0.061l0.003,-0.03l0.008,-0.063l0.003,-0.025l0.009,-0.061l0.004,-0.025l0.01,-0.061l0.005,-0.026l0.012,-0.06l0.006,-0.026l0.013,-0.059l0.005,-0.021l0.015,-0.061l0.008,-0.029l0.017,-0.06l0.007,-0.022l0.017,-0.058l0.009,-0.026l0.02,-0.059l0.009,-0.026l0.02,-0.055l0.007,-0.018l0.022,-0.056l0.012,-0.03l0.024,-0.056l0.008,-0.018l0.025,-0.054l0.012,-0.025l0.026,-0.055l0.011,-0.022l0.028,-0.053l0.011,-0.022l0.029,-0.052l0.012,-0.021l0.03,-0.052l0.013,-0.022l0.031,-0.051l0.014,-0.021l0.031,-0.049l0.012,-0.018l0.033,-0.048l0.015,-0.021l0.035,-0.049l0.016,-0.021l0.035,-0.047l0.014,-0.017l0.037,-0.047l0.016,-0.02l0.038,-0.045l0.015,-0.018l0.038,-0.043l0.016,-0.017l0.04,-0.044l0.018,-0.019l0.042,-0.043l0.017,-0.017l0.04,-0.04l0.015,-0.014l0.043,-0.041l0.02,-0.018l0.045,-0.04l0.018,-0.016l0.044,-0.037l0.017,-0.014l0.044,-0.037l0.02,-0.015l0.047,-0.037l0.019,-0.014l0.048,-0.035l0.018,-0.013l0.048,-0.034l0.02,-0.014l0.05,-0.033l0.019,-0.012l0.05,-0.032l0.021,-0.013l0.05,-0.03l0.018,-0.011l0.051,-0.029l0.023,-0.012l0.053,-0.029l0.02,-0.011l0.054,-0.027l0.023,-0.011l0.054,-0.026l0.02,-0.009l0.053,-0.024l0.02,-0.009l0.056,-0.023l0.023,-0.01l0.057,-0.023l0.023,-0.008l0.056,-0.021l0.022,-0.007l0.056,-0.019l0.023,-0.008l0.057,-0.018l0.024,-0.007l0.058,-0.017l0.023,-0.006l0.059,-0.015l0.024,-0.006l0.059,-0.014l0.024,-0.005l0.059,-0.013l0.024,-0.004l0.06,-0.011l0.024,-0.005l0.061,-0.009l0.023,-0.004l0.062,-0.008l0.024,-0.003l0.062,-0.007l0.024,-0.002l0.061,-0.005l0.025,-0.002l0.062,-0.004l0.024,-0.001l0.063,-0.003l0.024,0l0.063,-0.001l0.024,0l0.063,0.001Zm-0.113,2l-0.038,0.001l-0.038,0.002l-0.038,0.003l-0.037,0.005l-0.037,0.005l-0.037,0.005l-0.036,0.007l-0.036,0.008l-0.036,0.008l-0.036,0.009l-0.035,0.01l-0.034,0.011l-0.035,0.012l-0.034,0.012l-0.033,0.014l-0.033,0.014l-0.033,0.014l-0.032,0.016l-0.032,0.016l-0.031,0.017l-0.031,0.017l-0.031,0.019l-0.03,0.019l-0.029,0.019l-0.029,0.02l-0.028,0.021l-0.028,0.022l-0.027,0.022l-0.027,0.023l-0.026,0.023l-0.026,0.024l-0.025,0.025l-0.024,0.025l-0.024,0.026l-0.023,0.026l-0.022,0.027l-0.022,0.027l-0.021,0.028l-0.02,0.028l-0.02,0.029l-0.019,0.029l-0.018,0.03l-0.018,0.03l-0.017,0.03l-0.016,0.032l-0.015,0.031l-0.014,0.032l-0.014,0.032l-0.013,0.033l-0.012,0.033l-0.011,0.033l-0.011,0.034l-0.009,0.034l-0.009,0.035l-0.008,0.034l-0.007,0.035l-0.006,0.036l-0.005,0.035l-0.005,0.036l-0.003,0.036l-0.002,0.037l-0.002,0.036l0,0.037l0,0.037l0.002,0.037l0.002,0.036l0.003,0.037l0.005,0.035l0.005,0.036l0.006,0.035l0.007,0.035l0.008,0.035l0.009,0.035l0.009,0.034l0.011,0.034l0.011,0.033l0.012,0.033l0.013,0.033l0.014,0.032l0.014,0.032l0.015,0.031l0.016,0.031l0.017,0.031l0.018,0.03l0.018,0.03l0.019,0.029l0.02,0.029l0.02,0.028l0.021,0.028l0.022,0.027l0.022,0.027l0.023,0.026l0.024,0.026l0.024,0.025l0.025,0.025l0.026,0.024l0.026,0.023l0.027,0.023l0.027,0.022l0.028,0.021l0.028,0.021l0.029,0.021l0.029,0.019l0.03,0.019l0.031,0.018l0.031,0.018l0.031,0.017l0.032,0.016l0.032,0.016l0.033,0.014l0.033,0.014l0.033,0.013l0.034,0.013l0.035,0.011l0.034,0.011l0.035,0.01l0.036,0.01l0.036,0.008l0.036,0.008l0.036,0.006l0.037,0.006l0.037,0.005l0.037,0.004l0.038,0.003l0.038,0.003l0.038,0.001l0.038,0.001l0.039,-0.001l0.038,-0.001l0.037,-0.003l0.038,-0.003l0.037,-0.004l0.037,-0.005l0.037,-0.006l0.037,-0.006l0.036,-0.008l0.035,-0.008l0.036,-0.01l0.035,-0.01l0.035,-0.011l0.034,-0.011l0.034,-0.013l0.033,-0.013l0.034,-0.014l0.032,-0.014l0.033,-0.016l0.031,-0.016l0.032,-0.017l0.031,-0.018l0.03,-0.018l0.03,-0.019l0.029,-0.019l0.029,-0.021l0.029,-0.021l0.027,-0.021l0.028,-0.022l0.026,-0.023l0.026,-0.023l0.026,-0.024l0.025,-0.025l0.024,-0.025l0.024,-0.026l0.023,-0.026l0.022,-0.027l0.022,-0.027l0.021,-0.028l0.021,-0.028l0.019,-0.029l0.019,-0.029l0.018,-0.03l0.018,-0.03l0.017,-0.031l0.016,-0.031l0.015,-0.031l0.015,-0.032l0.013,-0.032l0.013,-0.033l0.012,-0.033l0.012,-0.033l0.01,-0.034l0.01,-0.034l0.008,-0.035l0.008,-0.035l0.007,-0.035l0.006,-0.035l0.006,-0.036l0.004,-0.035l0.003,-0.037l0.003,-0.036l0.001,-0.037l0.001,-0.037l-0.001,-0.037l-0.001,-0.036l-0.003,-0.037l-0.003,-0.036l-0.004,-0.036l-0.006,-0.035l-0.006,-0.036l-0.007,-0.035l-0.008,-0.034l-0.008,-0.035l-0.01,-0.034l-0.01,-0.034l-0.012,-0.033l-0.012,-0.033l-0.013,-0.033l-0.013,-0.032l-0.015,-0.032l-0.015,-0.031l-0.016,-0.032l-0.017,-0.03l-0.018,-0.03l-0.018,-0.03l-0.019,-0.029l-0.019,-0.029l-0.021,-0.028l-0.021,-0.028l-0.022,-0.027l-0.022,-0.027l-0.023,-0.026l-0.024,-0.026l-0.024,-0.025l-0.025,-0.025l-0.026,-0.024l-0.026,-0.023l-0.026,-0.023l-0.028,-0.022l-0.027,-0.022l-0.029,-0.021l-0.029,-0.02l-0.029,-0.019l-0.03,-0.019l-0.03,-0.019l-0.031,-0.017l-0.032,-0.017l-0.031,-0.016l-0.033,-0.016l-0.032,-0.014l-0.034,-0.014l-0.033,-0.014l-0.034,-0.012l-0.034,-0.012l-0.035,-0.011l-0.035,-0.01l-0.036,-0.009l-0.035,-0.008l-0.036,-0.008l-0.037,-0.007l-0.037,-0.005l-0.037,-0.005l-0.037,-0.005l-0.038,-0.003l-0.037,-0.002l-0.038,-0.001l-0.039,-0.001l-0.038,0.001Z" style="fill:#166c4f;"/></g><g transform="matrix(0.652955,0,0,0.652955,-285.568,-16.2419)"><g transform="matrix(1,0,0,1.01,0,-0.871536)"><text x="576.345px" y="87.154px" style="font-family:'VarelaRound-Regular', 'Varela Round';font-size:48px;fill:none;">uf<tspan x="623.433px " y="87.154px ">o</tspan></text></g><g transform="matrix(1,0,0,1.01,0,-0.871536)"><text x="576.345px" y="87.154px" style="font-family:'VarelaRound-Regular', 'Varela Round';font-size:48px;fill:#166c4f;">uf<tspan x="623.433px " y="87.154px ">o</tspan></text></g></g></svg>