<?xml version="1.0" encoding="UTF-8" standalone="no"?><!DOCTYPE svg PUBLIC "-//W3C//DTD SVG 1.1//EN" "http://www.w3.org/Graphics/SVG/1.1/DTD/svg11.dtd"><svg width="100%" height="100%" viewBox="0 0 21 21" version="1.1" xmlns="http://www.w3.org/2000/svg" xmlns:xlink="http://www.w3.org/1999/xlink" xml:space="preserve" style="fill-rule:evenodd;clip-rule:evenodd;stroke-linejoin:round;stroke-miterlimit:1.41421;"><g><path d="M3.08,3l8.861,0c0.258,0 0.503,0.108 0.677,0.298c0.174,0.19 0.26,0.445 0.237,0.701c0,0.001 -0.001,0.001 -0.001,0.002c-0.023,0.256 0.063,0.511 0.237,0.701c0.174,0.19 0.419,0.298 0.677,0.298c1.468,0 4.206,0 5.859,0c0.364,0 0.714,0.145 0.971,0.402c0.257,0.257 0.402,0.607 0.402,0.971c0,2.28 0,6.827 0,9.165c0,0.807 -0.655,1.462 -1.462,1.462c-3.563,0 -12.658,0 -16.147,0c-0.769,0 -1.394,-0.622 -1.397,-1.391c-0.014,-3.266 -0.048,-11.172 -0.05,-11.482c0,-0.006 0,-0.012 0,-0.019c0,0 0,0 0,0c0.01,-0.615 0.511,-1.108 1.126,-1.108c0.006,0 0.009,0 0.01,0Z" style="fill:#fff;"/><path d="M3.08,3l8.861,0l0.048,0.001l0.048,0.004l0.047,0.006l0.047,0.009l0.046,0.011l0.046,0.013l0.044,0.016l0.044,0.018l0.043,0.02l0.041,0.022l0.041,0.025l0.039,0.026l0.038,0.029l0.037,0.031l0.035,0.033l0.033,0.034l0.032,0.037l0.029,0.037l0.027,0.04l0.026,0.04l0.023,0.041l0.02,0.043l0.019,0.043l0.016,0.045l0.014,0.045l0.012,0.046l0.009,0.046l0.007,0.047l0.004,0.047l0.002,0.048l0,0.048l-0.003,0.048l-0.001,0.002l-0.003,0.048l0,0.048l0.002,0.048l0.004,0.047l0.007,0.047l0.009,0.046l0.012,0.046l0.014,0.045l0.016,0.045l0.019,0.043l0.02,0.043l0.023,0.041l0.026,0.04l0.027,0.04l0.029,0.037l0.032,0.037l0.033,0.034l0.035,0.033l0.037,0.031l0.038,0.029l0.039,0.026l0.041,0.025l0.041,0.022l0.043,0.02l0.044,0.018l0.044,0.016l0.046,0.013l0.046,0.011l0.047,0.009l0.047,0.006l0.048,0.004l0.048,0.001l5.859,0l0.034,0l0.034,0.002l0.034,0.002l0.034,0.003l0.034,0.003l0.033,0.005l0.033,0.005l0.033,0.007l0.033,0.007l0.033,0.007l0.032,0.009l0.033,0.009l0.031,0.01l0.032,0.011l0.032,0.012l0.031,0.012l0.03,0.014l0.031,0.014l0.03,0.014l0.03,0.016l0.029,0.016l0.029,0.017l0.029,0.017l0.028,0.019l0.028,0.019l0.027,0.019l0.027,0.021l0.026,0.021l0.026,0.022l0.026,0.022l0.025,0.023l0.024,0.024l0.024,0.024l0.023,0.025l0.022,0.026l0.022,0.026l0.021,0.026l0.021,0.027l0.019,0.027l0.019,0.028l0.019,0.028l0.017,0.029l0.017,0.029l0.016,0.029l0.016,0.03l0.014,0.03l0.014,0.031l0.014,0.03l0.012,0.031l0.012,0.032l0.011,0.032l0.01,0.031l0.009,0.033l0.009,0.032l0.007,0.033l0.007,0.033l0.007,0.033l0.005,0.033l0.005,0.033l0.003,0.034l0.003,0.034l0.002,0.034l0.002,0.034l0,0.034l0,9.165l0,0.038l-0.002,0.037l-0.002,0.037l-0.004,0.037l-0.004,0.037l-0.005,0.037l-0.006,0.036l-0.007,0.036l-0.007,0.035l-0.009,0.035l-0.009,0.035l-0.011,0.035l-0.011,0.034l-0.012,0.034l-0.012,0.033l-0.014,0.033l-0.014,0.033l-0.015,0.032l-0.016,0.032l-0.016,0.031l-0.018,0.031l-0.018,0.03l-0.018,0.03l-0.02,0.029l-0.02,0.029l-0.02,0.029l-0.022,0.028l-0.022,0.027l-0.023,0.027l-0.023,0.026l-0.024,0.026l-0.024,0.025l-0.025,0.024l-0.026,0.024l-0.026,0.023l-0.027,0.023l-0.027,0.022l-0.028,0.022l-0.029,0.02l-0.029,0.02l-0.029,0.02l-0.03,0.018l-0.03,0.018l-0.031,0.018l-0.031,0.016l-0.032,0.016l-0.032,0.015l-0.033,0.014l-0.033,0.014l-0.033,0.012l-0.034,0.012l-0.034,0.011l-0.035,0.011l-0.035,0.009l-0.035,0.009l-0.035,0.007l-0.036,0.007l-0.036,0.006l-0.037,0.005l-0.037,0.004l-0.037,0.004l-0.037,0.002l-0.037,0.002l-0.038,0l-16.147,0l-0.036,0l-0.036,-0.002l-0.035,-0.002l-0.035,-0.003l-0.035,-0.004l-0.035,-0.005l-0.034,-0.006l-0.035,-0.006l-0.033,-0.008l-0.034,-0.008l-0.033,-0.009l-0.033,-0.009l-0.033,-0.011l-0.032,-0.011l-0.032,-0.012l-0.031,-0.013l-0.031,-0.014l-0.031,-0.014l-0.03,-0.015l-0.03,-0.016l-0.03,-0.016l-0.029,-0.017l-0.028,-0.018l-0.028,-0.018l-0.028,-0.019l-0.027,-0.02l-0.026,-0.02l-0.027,-0.021l-0.025,-0.022l-0.025,-0.022l-0.025,-0.023l-0.024,-0.023l-0.023,-0.024l-0.023,-0.024l-0.022,-0.025l-0.022,-0.026l-0.021,-0.026l-0.02,-0.026l-0.02,-0.027l-0.019,-0.028l-0.019,-0.028l-0.018,-0.028l-0.017,-0.029l-0.016,-0.03l-0.016,-0.029l-0.015,-0.031l-0.015,-0.03l-0.013,-0.031l-0.013,-0.032l-0.013,-0.031l-0.011,-0.033l-0.011,-0.032l-0.01,-0.033l-0.009,-0.033l-0.008,-0.034l-0.008,-0.033l-0.006,-0.035l-0.006,-0.034l-0.005,-0.035l-0.004,-0.035l-0.004,-0.035l-0.002,-0.035l-0.001,-0.036l-0.001,-0.036l-0.05,-11.482l0,-0.019l0,0l0.003,-0.057l0.005,-0.057l0.008,-0.055l0.01,-0.055l0.014,-0.054l0.015,-0.052l0.018,-0.052l0.021,-0.05l0.023,-0.049l0.025,-0.048l0.027,-0.047l0.03,-0.045l0.031,-0.043l0.034,-0.042l0.035,-0.04l0.037,-0.038l0.039,-0.037l0.041,-0.035l0.042,-0.033l0.044,-0.03l0.046,-0.029l0.047,-0.027l0.048,-0.024l0.049,-0.022l0.051,-0.02l0.052,-0.017l0.053,-0.015l0.054,-0.013l0.055,-0.009l0.055,-0.007l0.057,-0.005l0.057,-0.001l0.01,0Zm0.003,1l-0.02,0l-0.007,0.001l-0.006,0.001l-0.005,0.001l-0.007,0.001l-0.006,0.002l-0.004,0.001l-0.005,0.002l-0.007,0.003l-0.005,0.003l-0.003,0.002l-0.007,0.004l-0.005,0.004l-0.004,0.003l-0.006,0.005l-0.004,0.004l-0.004,0.004l-0.005,0.005l-0.003,0.004l-0.004,0.005l-0.003,0.005l-0.003,0.006l-0.003,0.005l-0.002,0.005l-0.003,0.005l-0.001,0.006l-0.002,0.005l-0.001,0.006l-0.002,0.006l0,0.006l-0.001,0.007l-0.001,0.014l0.05,11.467l0,0.017l0.001,0.021l0.002,0.02l0.004,0.02l0.004,0.019l0.004,0.018l0.006,0.019l0.007,0.017l0.007,0.018l0.009,0.017l0.008,0.016l0.011,0.017l0.01,0.016l0.012,0.016l0.011,0.013l0.015,0.016l0.012,0.012l0.016,0.015l0.013,0.011l0.017,0.012l0.016,0.011l0.014,0.008l0.019,0.011l0.017,0.008l0.016,0.006l0.02,0.008l0.018,0.005l0.017,0.005l0.019,0.004l0.01,0.001l0.021,0.003l0.02,0.001l0.008,0.001l0.02,0l16.134,0l0.018,0l0.012,-0.001l0.012,0l0.014,-0.002l0.01,-0.001l0.01,-0.001l0.013,-0.002l0.012,-0.003l0.012,-0.002l0.008,-0.002l0.011,-0.003l0.014,-0.004l0.01,-0.004l0.007,-0.002l0.012,-0.005l0.012,-0.005l0.008,-0.003l0.011,-0.005l0.008,-0.004l0.011,-0.006l0.012,-0.007l0.007,-0.004l0.009,-0.006l0.012,-0.007l0.008,-0.006l0.008,-0.006l0.01,-0.007l0.008,-0.007l0.009,-0.007l0.009,-0.008l0.006,-0.006l0.01,-0.01l0.008,-0.008l0.007,-0.008l0.009,-0.009l0.006,-0.008l0.007,-0.008l0.006,-0.008l0.007,-0.01l0.007,-0.009l0.006,-0.01l0.006,-0.009l0.005,-0.01l0.006,-0.011l0.005,-0.008l0.004,-0.009l0.006,-0.011l0.004,-0.011l0.005,-0.011l0.003,-0.009l0.004,-0.01l0.003,-0.012l0.004,-0.01l0.002,-0.01l0.003,-0.012l0.003,-0.011l0.002,-0.011l0.002,-0.011l0.001,-0.012l0.001,-0.011l0.002,-0.012l0,-0.012l0.001,-0.013l0,-0.018l0,-9.153l0,-0.016l-0.001,-0.009l0,-0.009l-0.001,-0.009l-0.001,-0.01l-0.001,-0.008l-0.002,-0.009l-0.001,-0.009l-0.002,-0.009l-0.002,-0.009l-0.003,-0.01l-0.002,-0.008l-0.003,-0.008l-0.003,-0.009l-0.003,-0.008l-0.003,-0.008l-0.004,-0.009l-0.004,-0.008l-0.004,-0.008l-0.005,-0.01l-0.003,-0.007l-0.005,-0.008l-0.005,-0.008l-0.004,-0.006l-0.005,-0.008l-0.007,-0.009l-0.005,-0.007l-0.006,-0.007l-0.006,-0.007l-0.005,-0.006l-0.007,-0.007l-0.007,-0.008l-0.006,-0.005l-0.006,-0.006l-0.006,-0.005l-0.008,-0.007l-0.009,-0.008l-0.005,-0.003l-0.007,-0.005l-0.01,-0.007l-0.007,-0.005l-0.008,-0.005l-0.008,-0.004l-0.006,-0.003l-0.008,-0.005l-0.009,-0.004l-0.009,-0.004l-0.009,-0.004l-0.007,-0.003l-0.01,-0.003l-0.007,-0.003l-0.01,-0.003l-0.01,-0.003l-0.005,-0.001l-0.011,-0.003l-0.011,-0.002l-0.005,-0.001l-0.011,-0.002l-0.009,-0.001l-0.009,-0.001l-0.009,-0.001l-0.009,0l-0.013,-0.001l-0.013,0l-5.865,0l-0.088,-0.002l-0.1,-0.008l-0.098,-0.013l-0.097,-0.018l-0.097,-0.023l-0.096,-0.028l-0.093,-0.033l-0.092,-0.037l-0.09,-0.043l-0.087,-0.047l-0.083,-0.05l-0.083,-0.056l-0.08,-0.061l-0.075,-0.063l-0.074,-0.069l-0.069,-0.072l-0.066,-0.076l-0.062,-0.079l-0.057,-0.081l-0.053,-0.086l-0.048,-0.087l-0.043,-0.088l-0.039,-0.091l-0.034,-0.093l-0.029,-0.094l-0.024,-0.096l-0.02,-0.097l-0.014,-0.098l-0.009,-0.099l-0.004,-0.1l0.001,-0.1l0,-0.012l-8.769,0Z" style="fill:#97a0a3;"/><path d="M15.5,5l-13.5,0l0,1l13.5,0l0,-1Z" style="fill:#97a0a3;"/><circle cx="6.5" cy="13.395" r="6" style="fill:#fff;"/><path d="M6.577,7.396l0.078,0.001l0.077,0.003l0.077,0.003l0.076,0.004l0.076,0.006l0.076,0.006l0.076,0.007l0.076,0.008l0.075,0.009l0.075,0.01l0.074,0.011l0.075,0.012l0.074,0.013l0.073,0.014l0.074,0.014l0.073,0.016l0.072,0.016l0.073,0.017l0.072,0.018l0.071,0.019l0.072,0.02l0.071,0.021l0.07,0.021l0.071,0.023l0.07,0.023l0.069,0.024l0.069,0.025l0.069,0.025l0.068,0.027l0.068,0.027l0.068,0.028l0.067,0.029l0.066,0.03l0.066,0.03l0.066,0.031l0.066,0.032l0.065,0.033l0.064,0.034l0.064,0.034l0.063,0.035l0.064,0.036l0.062,0.036l0.062,0.037l0.062,0.038l0.061,0.039l0.061,0.039l0.06,0.041l0.059,0.04l0.059,0.042l0.059,0.042l0.058,0.043l0.057,0.043l0.057,0.045l0.057,0.045l0.056,0.045l0.055,0.046l0.055,0.047l0.054,0.048l0.053,0.048l0.053,0.048l0.053,0.05l0.052,0.05l0.051,0.05l0.05,0.052l0.05,0.051l0.05,0.053l0.049,0.053l0.048,0.053l0.047,0.055l0.047,0.054l0.046,0.056l0.046,0.055l0.045,0.057l0.044,0.057l0.043,0.057l0.043,0.058l0.042,0.059l0.042,0.059l0.041,0.06l0.04,0.06l0.039,0.06l0.039,0.061l0.038,0.062l0.037,0.062l0.037,0.063l0.035,0.063l0.035,0.063l0.035,0.064l0.033,0.065l0.033,0.065l0.032,0.065l0.031,0.066l0.031,0.066l0.029,0.067l0.029,0.067l0.028,0.067l0.028,0.068l0.026,0.068l0.026,0.069l0.025,0.069l0.024,0.07l0.023,0.07l0.022,0.07l0.022,0.07l0.02,0.071l0.02,0.072l0.019,0.071l0.018,0.073l0.017,0.072l0.017,0.073l0.015,0.073l0.015,0.073l0.013,0.074l0.013,0.074l0.012,0.074l0.011,0.075l0.01,0.074l0.009,0.076l0.008,0.075l0.007,0.076l0.006,0.076l0.006,0.076l0.004,0.077l0.004,0.076l0.002,0.077l0.002,0.078l0,0.077l0,0.078l-0.002,0.077l-0.002,0.077l-0.004,0.077l-0.004,0.076l-0.006,0.077l-0.006,0.076l-0.007,0.075l-0.008,0.076l-0.009,0.075l-0.01,0.075l-0.011,0.074l-0.012,0.075l-0.013,0.074l-0.013,0.073l-0.015,0.074l-0.015,0.073l-0.017,0.073l-0.017,0.072l-0.018,0.072l-0.019,0.072l-0.02,0.071l-0.02,0.071l-0.022,0.071l-0.022,0.07l-0.023,0.07l-0.024,0.069l-0.025,0.069l-0.026,0.069l-0.026,0.068l-0.028,0.068l-0.028,0.068l-0.029,0.067l-0.029,0.066l-0.031,0.067l-0.031,0.066l-0.032,0.065l-0.033,0.065l-0.033,0.064l-0.035,0.064l-0.035,0.064l-0.035,0.063l-0.037,0.062l-0.037,0.062l-0.038,0.062l-0.039,0.061l-0.039,0.061l-0.04,0.06l-0.041,0.06l-0.042,0.059l-0.042,0.058l-0.043,0.058l-0.043,0.058l-0.044,0.057l-0.045,0.056l-0.046,0.056l-0.046,0.055l-0.047,0.055l-0.047,0.054l-0.048,0.054l-0.049,0.053l-0.05,0.052l-0.05,0.052l-0.05,0.051l-0.051,0.051l-0.052,0.05l-0.053,0.049l-0.053,0.049l-0.053,0.048l-0.054,0.047l-0.055,0.047l-0.055,0.046l-0.056,0.046l-0.057,0.045l-0.057,0.044l-0.057,0.044l-0.058,0.042l-0.059,0.043l-0.059,0.041l-0.059,0.041l-0.06,0.04l-0.061,0.039l-0.061,0.039l-0.062,0.038l-0.062,0.037l-0.062,0.037l-0.064,0.036l-0.063,0.035l-0.064,0.034l-0.064,0.033l-0.065,0.033l-0.066,0.032l-0.066,0.031l-0.066,0.031l-0.066,0.03l-0.067,0.028l-0.068,0.028l-0.068,0.028l-0.068,0.026l-0.069,0.026l-0.069,0.025l-0.069,0.024l-0.07,0.023l-0.071,0.022l-0.07,0.022l-0.071,0.02l-0.072,0.02l-0.071,0.019l-0.072,0.018l-0.073,0.017l-0.072,0.017l-0.073,0.015l-0.074,0.015l-0.073,0.013l-0.074,0.013l-0.075,0.012l-0.074,0.011l-0.075,0.01l-0.075,0.009l-0.076,0.008l-0.076,0.007l-0.076,0.007l-0.076,0.005l-0.076,0.004l-0.077,0.004l-0.077,0.002l-0.078,0.002l-0.077,0l-0.077,0l-0.078,-0.002l-0.077,-0.002l-0.077,-0.004l-0.076,-0.004l-0.076,-0.005l-0.076,-0.007l-0.076,-0.007l-0.076,-0.008l-0.075,-0.009l-0.075,-0.01l-0.074,-0.011l-0.075,-0.012l-0.074,-0.013l-0.073,-0.013l-0.074,-0.015l-0.073,-0.015l-0.072,-0.017l-0.073,-0.017l-0.072,-0.018l-0.071,-0.019l-0.072,-0.02l-0.071,-0.02l-0.07,-0.022l-0.071,-0.022l-0.07,-0.023l-0.069,-0.024l-0.069,-0.025l-0.069,-0.026l-0.068,-0.026l-0.068,-0.028l-0.068,-0.028l-0.067,-0.028l-0.066,-0.03l-0.066,-0.031l-0.066,-0.031l-0.066,-0.032l-0.065,-0.033l-0.064,-0.033l-0.064,-0.034l-0.063,-0.035l-0.064,-0.036l-0.062,-0.037l-0.062,-0.037l-0.062,-0.038l-0.061,-0.039l-0.061,-0.039l-0.06,-0.04l-0.059,-0.041l-0.059,-0.041l-0.059,-0.043l-0.058,-0.042l-0.057,-0.044l-0.057,-0.044l-0.057,-0.045l-0.056,-0.046l-0.055,-0.046l-0.055,-0.047l-0.054,-0.047l-0.053,-0.048l-0.053,-0.049l-0.053,-0.049l-0.052,-0.05l-0.051,-0.051l-0.05,-0.051l-0.05,-0.052l-0.05,-0.052l-0.049,-0.053l-0.048,-0.054l-0.047,-0.054l-0.047,-0.055l-0.046,-0.055l-0.046,-0.056l-0.045,-0.056l-0.044,-0.057l-0.043,-0.058l-0.043,-0.058l-0.042,-0.058l-0.042,-0.059l-0.041,-0.06l-0.04,-0.06l-0.039,-0.061l-0.039,-0.061l-0.038,-0.062l-0.037,-0.062l-0.037,-0.062l-0.035,-0.063l-0.035,-0.064l-0.035,-0.064l-0.033,-0.064l-0.033,-0.065l-0.032,-0.065l-0.031,-0.066l-0.031,-0.067l-0.029,-0.066l-0.029,-0.067l-0.028,-0.068l-0.028,-0.068l-0.026,-0.068l-0.026,-0.069l-0.025,-0.069l-0.024,-0.069l-0.023,-0.07l-0.022,-0.07l-0.022,-0.071l-0.02,-0.071l-0.02,-0.071l-0.019,-0.072l-0.018,-0.072l-0.017,-0.072l-0.017,-0.073l-0.015,-0.073l-0.015,-0.074l-0.013,-0.073l-0.013,-0.074l-0.012,-0.075l-0.011,-0.074l-0.01,-0.075l-0.009,-0.075l-0.008,-0.076l-0.007,-0.075l-0.006,-0.076l-0.006,-0.077l-0.004,-0.076l-0.004,-0.077l-0.002,-0.077l-0.002,-0.077l0,-0.078l0,-0.077l0.002,-0.078l0.002,-0.077l0.004,-0.076l0.004,-0.077l0.006,-0.076l0.006,-0.076l0.007,-0.076l0.008,-0.075l0.009,-0.076l0.01,-0.074l0.011,-0.075l0.012,-0.074l0.013,-0.074l0.013,-0.074l0.015,-0.073l0.015,-0.073l0.017,-0.073l0.017,-0.072l0.018,-0.073l0.019,-0.071l0.02,-0.072l0.02,-0.071l0.022,-0.07l0.022,-0.07l0.023,-0.07l0.024,-0.07l0.025,-0.069l0.026,-0.069l0.026,-0.068l0.028,-0.068l0.028,-0.067l0.029,-0.067l0.029,-0.067l0.031,-0.066l0.031,-0.066l0.032,-0.065l0.033,-0.065l0.033,-0.065l0.035,-0.064l0.035,-0.063l0.035,-0.063l0.037,-0.063l0.037,-0.062l0.038,-0.062l0.039,-0.061l0.039,-0.06l0.04,-0.06l0.041,-0.06l0.042,-0.059l0.042,-0.059l0.043,-0.058l0.043,-0.057l0.044,-0.057l0.045,-0.057l0.046,-0.055l0.046,-0.056l0.047,-0.054l0.047,-0.055l0.048,-0.053l0.049,-0.053l0.05,-0.053l0.05,-0.051l0.05,-0.052l0.051,-0.05l0.052,-0.05l0.053,-0.05l0.053,-0.048l0.053,-0.048l0.054,-0.048l0.055,-0.047l0.055,-0.046l0.056,-0.045l0.057,-0.045l0.057,-0.045l0.057,-0.043l0.058,-0.043l0.059,-0.042l0.059,-0.042l0.059,-0.04l0.06,-0.041l0.061,-0.039l0.061,-0.039l0.062,-0.038l0.062,-0.037l0.062,-0.036l0.064,-0.036l0.063,-0.035l0.064,-0.034l0.064,-0.034l0.065,-0.033l0.066,-0.032l0.066,-0.031l0.066,-0.03l0.066,-0.03l0.067,-0.029l0.068,-0.028l0.068,-0.027l0.068,-0.027l0.069,-0.025l0.069,-0.025l0.069,-0.024l0.07,-0.023l0.071,-0.023l0.07,-0.021l0.071,-0.021l0.072,-0.02l0.071,-0.019l0.072,-0.018l0.073,-0.017l0.072,-0.016l0.073,-0.016l0.074,-0.014l0.073,-0.014l0.074,-0.013l0.075,-0.012l0.074,-0.011l0.075,-0.01l0.075,-0.009l0.076,-0.008l0.076,-0.007l0.076,-0.006l0.076,-0.006l0.076,-0.004l0.077,-0.003l0.077,-0.003l0.078,-0.001l0.077,-0.001l0.077,0.001Zm-0.141,1l-0.065,0.001l-0.066,0.002l-0.063,0.003l-0.064,0.004l-0.065,0.004l-0.062,0.005l-0.061,0.006l-0.064,0.007l-0.065,0.008l-0.061,0.008l-0.062,0.009l-0.062,0.01l-0.062,0.011l-0.061,0.011l-0.061,0.012l-0.06,0.013l-0.061,0.013l-0.062,0.015l-0.059,0.015l-0.059,0.015l-0.059,0.017l-0.059,0.017l-0.059,0.018l-0.058,0.018l-0.058,0.02l-0.058,0.02l-0.059,0.021l-0.058,0.021l-0.055,0.022l-0.056,0.022l-0.056,0.024l-0.057,0.024l-0.056,0.025l-0.053,0.025l-0.056,0.026l-0.056,0.027l-0.052,0.027l-0.054,0.028l-0.053,0.028l-0.053,0.03l-0.053,0.029l-0.052,0.031l-0.051,0.031l-0.051,0.031l-0.052,0.033l-0.051,0.033l-0.049,0.033l-0.051,0.034l-0.049,0.035l-0.048,0.034l-0.049,0.037l-0.049,0.037l-0.046,0.036l-0.047,0.037l-0.047,0.038l-0.046,0.039l-0.046,0.039l-0.046,0.04l-0.044,0.039l-0.044,0.041l-0.044,0.042l-0.042,0.041l-0.044,0.043l-0.042,0.043l-0.041,0.042l-0.042,0.045l-0.041,0.044l-0.039,0.043l-0.04,0.046l-0.04,0.047l-0.038,0.046l-0.038,0.046l-0.037,0.047l-0.037,0.047l-0.037,0.048l-0.035,0.048l-0.035,0.049l-0.036,0.051l-0.033,0.048l-0.033,0.05l-0.034,0.052l-0.032,0.05l-0.031,0.051l-0.032,0.053l-0.03,0.052l-0.03,0.052l-0.029,0.053l-0.028,0.053l-0.028,0.053l-0.027,0.054l-0.027,0.056l-0.026,0.054l-0.025,0.055l-0.025,0.056l-0.024,0.056l-0.023,0.055l-0.023,0.057l-0.023,0.057l-0.021,0.057l-0.02,0.058l-0.02,0.058l-0.02,0.058l-0.018,0.058l-0.018,0.059l-0.017,0.059l-0.017,0.059l-0.016,0.06l-0.015,0.059l-0.014,0.061l-0.013,0.061l-0.013,0.06l-0.012,0.061l-0.012,0.062l-0.01,0.061l-0.01,0.062l-0.009,0.063l-0.009,0.062l-0.007,0.062l-0.007,0.063l-0.006,0.063l-0.005,0.064l-0.005,0.063l-0.003,0.064l-0.003,0.064l-0.002,0.065l-0.002,0.064l0,0.065l0,0.065l0.002,0.065l0.002,0.064l0.003,0.064l0.003,0.064l0.005,0.064l0.005,0.063l0.006,0.063l0.007,0.063l0.007,0.063l0.009,0.062l0.009,0.062l0.01,0.062l0.01,0.062l0.012,0.061l0.012,0.061l0.013,0.061l0.013,0.061l0.014,0.06l0.015,0.06l0.016,0.059l0.017,0.059l0.017,0.06l0.018,0.059l0.018,0.058l0.02,0.058l0.02,0.058l0.02,0.058l0.022,0.057l0.022,0.056l0.022,0.057l0.024,0.056l0.024,0.056l0.025,0.055l0.025,0.055l0.026,0.056l0.026,0.054l0.028,0.054l0.028,0.053l0.028,0.054l0.029,0.053l0.03,0.052l0.031,0.053l0.03,0.051l0.032,0.051l0.033,0.052l0.032,0.05l0.034,0.05l0.034,0.05l0.034,0.049l0.035,0.048l0.036,0.049l0.037,0.049l0.037,0.047l0.037,0.047l0.038,0.046l0.039,0.047l0.039,0.045l0.039,0.045l0.04,0.045l0.041,0.044l0.042,0.045l0.041,0.042l0.042,0.042l0.044,0.044l0.042,0.041l0.044,0.041l0.044,0.041l0.045,0.04l0.046,0.04l0.045,0.039l0.045,0.037l0.047,0.039l0.048,0.038l0.048,0.037l0.048,0.037l0.047,0.034l0.048,0.035l0.05,0.035l0.051,0.035l0.049,0.033l0.051,0.032l0.052,0.033l0.051,0.032l0.051,0.031l0.052,0.03l0.053,0.03l0.053,0.029l0.053,0.029l0.054,0.028l0.054,0.027l0.054,0.027l0.054,0.025l0.055,0.025l0.056,0.025l0.057,0.024l0.056,0.024l0.056,0.022l0.057,0.023l0.056,0.021l0.059,0.021l0.058,0.02l0.056,0.018l0.06,0.019l0.059,0.019l0.059,0.017l0.059,0.016l0.059,0.016l0.061,0.015l0.06,0.014l0.059,0.013l0.062,0.013l0.061,0.013l0.061,0.011l0.062,0.011l0.062,0.009l0.062,0.01l0.063,0.008l0.063,0.008l0.062,0.006l0.063,0.006l0.062,0.006l0.065,0.004l0.064,0.004l0.065,0.002l0.064,0.003l0.063,0.001l0.066,0l0.066,0l0.063,-0.001l0.064,-0.003l0.065,-0.002l0.064,-0.004l0.065,-0.004l0.062,-0.006l0.063,-0.006l0.062,-0.006l0.063,-0.008l0.063,-0.008l0.062,-0.01l0.062,-0.009l0.062,-0.011l0.061,-0.011l0.061,-0.013l0.062,-0.013l0.059,-0.013l0.06,-0.014l0.061,-0.015l0.059,-0.016l0.059,-0.016l0.059,-0.017l0.059,-0.019l0.06,-0.019l0.056,-0.018l0.058,-0.02l0.059,-0.021l0.056,-0.021l0.057,-0.023l0.056,-0.022l0.056,-0.024l0.057,-0.024l0.056,-0.025l0.055,-0.025l0.054,-0.025l0.054,-0.027l0.054,-0.027l0.054,-0.028l0.053,-0.029l0.053,-0.029l0.053,-0.03l0.052,-0.03l0.051,-0.031l0.051,-0.032l0.052,-0.033l0.051,-0.032l0.049,-0.033l0.051,-0.035l0.05,-0.035l0.048,-0.035l0.047,-0.034l0.048,-0.037l0.048,-0.037l0.048,-0.038l0.047,-0.039l0.045,-0.037l0.045,-0.039l0.046,-0.04l0.045,-0.04l0.044,-0.041l0.044,-0.041l0.042,-0.041l0.044,-0.044l0.042,-0.042l0.041,-0.042l0.042,-0.045l0.041,-0.044l0.04,-0.045l0.039,-0.045l0.039,-0.045l0.039,-0.047l0.038,-0.046l0.037,-0.047l0.037,-0.047l0.037,-0.049l0.036,-0.049l0.035,-0.048l0.034,-0.049l0.034,-0.05l0.034,-0.05l0.032,-0.05l0.033,-0.052l0.032,-0.051l0.03,-0.051l0.031,-0.053l0.03,-0.052l0.029,-0.053l0.028,-0.054l0.028,-0.053l0.028,-0.054l0.026,-0.054l0.026,-0.056l0.025,-0.055l0.025,-0.055l0.024,-0.056l0.024,-0.056l0.022,-0.057l0.022,-0.056l0.022,-0.057l0.02,-0.058l0.02,-0.058l0.02,-0.058l0.018,-0.058l0.018,-0.059l0.017,-0.06l0.017,-0.059l0.016,-0.059l0.015,-0.06l0.014,-0.06l0.013,-0.061l0.013,-0.061l0.012,-0.061l0.012,-0.061l0.01,-0.062l0.01,-0.062l0.009,-0.062l0.009,-0.062l0.007,-0.063l0.007,-0.063l0.006,-0.063l0.005,-0.063l0.005,-0.064l0.003,-0.064l0.003,-0.064l0.002,-0.064l0.002,-0.065l0,-0.065l0,-0.065l-0.002,-0.064l-0.002,-0.065l-0.003,-0.064l-0.003,-0.064l-0.005,-0.063l-0.005,-0.064l-0.006,-0.063l-0.007,-0.063l-0.007,-0.062l-0.009,-0.062l-0.009,-0.063l-0.01,-0.062l-0.01,-0.061l-0.012,-0.062l-0.012,-0.061l-0.013,-0.06l-0.013,-0.061l-0.014,-0.061l-0.015,-0.059l-0.016,-0.06l-0.017,-0.059l-0.017,-0.059l-0.018,-0.059l-0.018,-0.058l-0.02,-0.058l-0.02,-0.058l-0.02,-0.058l-0.021,-0.057l-0.023,-0.057l-0.023,-0.057l-0.023,-0.055l-0.024,-0.056l-0.025,-0.056l-0.025,-0.055l-0.026,-0.054l-0.027,-0.056l-0.027,-0.054l-0.028,-0.053l-0.028,-0.053l-0.029,-0.053l-0.03,-0.052l-0.03,-0.052l-0.032,-0.053l-0.031,-0.051l-0.032,-0.05l-0.034,-0.052l-0.033,-0.05l-0.033,-0.048l-0.036,-0.051l-0.035,-0.049l-0.035,-0.048l-0.037,-0.048l-0.037,-0.047l-0.037,-0.047l-0.038,-0.046l-0.038,-0.046l-0.04,-0.047l-0.04,-0.046l-0.039,-0.043l-0.041,-0.044l-0.042,-0.045l-0.041,-0.042l-0.042,-0.043l-0.044,-0.043l-0.042,-0.041l-0.044,-0.042l-0.044,-0.041l-0.044,-0.039l-0.046,-0.04l-0.046,-0.039l-0.046,-0.039l-0.047,-0.038l-0.047,-0.037l-0.046,-0.036l-0.049,-0.037l-0.049,-0.037l-0.048,-0.034l-0.049,-0.035l-0.051,-0.034l-0.049,-0.033l-0.051,-0.033l-0.052,-0.033l-0.051,-0.031l-0.051,-0.031l-0.052,-0.031l-0.053,-0.029l-0.053,-0.03l-0.053,-0.028l-0.054,-0.028l-0.052,-0.027l-0.056,-0.027l-0.056,-0.026l-0.053,-0.025l-0.056,-0.025l-0.057,-0.024l-0.056,-0.024l-0.056,-0.022l-0.055,-0.022l-0.058,-0.021l-0.059,-0.021l-0.058,-0.02l-0.058,-0.02l-0.058,-0.018l-0.059,-0.018l-0.059,-0.017l-0.059,-0.017l-0.059,-0.015l-0.059,-0.015l-0.062,-0.015l-0.061,-0.013l-0.06,-0.013l-0.061,-0.012l-0.061,-0.011l-0.062,-0.011l-0.062,-0.01l-0.062,-0.009l-0.061,-0.008l-0.065,-0.008l-0.064,-0.007l-0.061,-0.006l-0.062,-0.005l-0.065,-0.004l-0.064,-0.004l-0.063,-0.003l-0.066,-0.002l-0.065,-0.001l-0.064,-0.001l-0.064,0.001Z" style="fill:#97a0a3;"/><rect x="4" y="13" width="5" height="1" style="fill:#97a0a3;"/><path d="M7,16l0,-5l-1,0l0,5l1,0Z" style="fill:#97a0a3;"/></g></svg>