<?xml version="1.0" encoding="UTF-8" standalone="no"?><!DOCTYPE svg PUBLIC "-//W3C//DTD SVG 1.1//EN" "http://www.w3.org/Graphics/SVG/1.1/DTD/svg11.dtd"><svg width="100%" height="100%" viewBox="0 0 20 15" version="1.1" xmlns="http://www.w3.org/2000/svg" xmlns:xlink="http://www.w3.org/1999/xlink" xml:space="preserve" style="fill-rule:evenodd;clip-rule:evenodd;stroke-linejoin:round;stroke-miterlimit:1.41421;"><path d="M18.052,0.001c0.234,0.009 0.463,0.052 0.681,0.138c0.527,0.208 0.951,0.642 1.146,1.174c0.075,0.204 0.112,0.418 0.12,0.635c0.047,3.701 0.047,7.403 0,11.104c-0.008,0.217 -0.045,0.431 -0.12,0.635c-0.195,0.532 -0.619,0.966 -1.146,1.174c-0.218,0.086 -0.447,0.129 -0.681,0.138c-5.368,0.068 -10.736,0.068 -16.104,0c-0.234,-0.009 -0.463,-0.052 -0.681,-0.138c-0.527,-0.208 -0.951,-0.642 -1.146,-1.174c-0.075,-0.204 -0.112,-0.418 -0.12,-0.635c-0.047,-3.701 -0.047,-7.403 0,-11.104c0.008,-0.217 0.045,-0.431 0.12,-0.635c0.195,-0.532 0.619,-0.966 1.146,-1.174c0.218,-0.086 0.447,-0.129 0.681,-0.138c5.368,-0.068 10.736,-0.068 16.104,0Zm-16.046,0.999c-0.128,0.002 -0.253,0.022 -0.373,0.069c-0.255,0.101 -0.463,0.309 -0.564,0.564c-0.042,0.109 -0.065,0.223 -0.068,0.34c-0.054,3.693 -0.125,7.389 0,11.081c0.007,0.107 0.029,0.212 0.068,0.313c0.101,0.255 0.309,0.463 0.564,0.564c0.11,0.043 0.224,0.064 0.341,0.069c5.359,0.065 10.723,0.208 16.078,-0.001c0.116,-0.008 0.229,-0.032 0.336,-0.077c0.245,-0.104 0.445,-0.307 0.543,-0.555c0.042,-0.109 0.065,-0.223 0.068,-0.34c0.054,-3.693 0.125,-7.389 0,-11.081c-0.007,-0.107 -0.029,-0.212 -0.068,-0.313c-0.101,-0.255 -0.309,-0.463 -0.564,-0.564c-0.11,-0.043 -0.224,-0.064 -0.341,-0.069c-5.34,-0.064 -10.68,0 -16.02,0Zm3.494,6l3.5,0l0,1l-3.5,0m0,1.737l0,-4.474l-3.16,2.237l3.16,2.237Zm9.5,-2.737l0,-1.737l3.16,2.237l-3.16,2.237l0,-1.737l-4,0l0,-1l4,0Z"/></svg>