<?xml version="1.0" encoding="UTF-8" standalone="no"?><!DOCTYPE svg PUBLIC "-//W3C//DTD SVG 1.1//EN" "http://www.w3.org/Graphics/SVG/1.1/DTD/svg11.dtd"><svg width="100%" height="100%" viewBox="0 0 20 15" version="1.1" xmlns="http://www.w3.org/2000/svg" xmlns:xlink="http://www.w3.org/1999/xlink" xml:space="preserve" style="fill-rule:evenodd;clip-rule:evenodd;stroke-linejoin:round;stroke-miterlimit:1.41421;"><path d="M18.086,-0.05c0.234,0.009 0.463,0.052 0.682,0.138c0.527,0.208 0.95,0.642 1.145,1.174c0.075,0.205 0.113,0.419 0.121,0.636c0.02,1.62 0,4.894 0,4.894l0,1.392c0,0 0.02,3.2 0,4.817c-0.008,0.218 -0.046,0.431 -0.121,0.636c-0.195,0.532 -0.618,0.966 -1.145,1.174c-0.219,0.086 -0.448,0.129 -0.682,0.138c-5.367,0.068 -10.736,0.068 -16.103,0c-0.234,-0.009 -0.463,-0.052 -0.682,-0.138c-0.527,-0.208 -0.95,-0.642 -1.145,-1.174c-0.075,-0.205 -0.113,-0.418 -0.121,-0.636c-0.047,-3.701 -0.047,-7.402 0,-11.103c0.008,-0.217 0.046,-0.431 0.121,-0.636c0.195,-0.532 0.618,-0.966 1.145,-1.174c0.219,-0.086 0.448,-0.129 0.682,-0.138c5.367,-0.068 10.736,-0.068 16.103,0Zm-5.052,0.971c-1.999,-0.001 -4,0.008 -6,0.016l0,13.146c2,0.029 4.001,0.029 6,0l0,-13.162Zm1,0.002l0,13.144c1.352,-0.027 2.703,-0.066 4.053,-0.119c0.107,-0.006 0.213,-0.028 0.314,-0.067c0.257,-0.102 0.463,-0.31 0.565,-0.567c0.04,-0.1 0.06,-0.206 0.067,-0.313c0.066,-1.682 -0.006,-3.367 0,-5.051l-1.838,0l0,-1l1.805,0c-0.006,-1.685 0.099,-3.369 0.033,-5.052c-0.006,-0.099 -0.024,-0.197 -0.059,-0.291c-0.097,-0.266 -0.309,-0.484 -0.573,-0.588c-0.109,-0.043 -0.224,-0.064 -0.34,-0.069c-1.342,-0.016 -2.684,-0.024 -4.027,-0.027Zm-8,6.583l-3.079,2.18l0,-1.736l-1.996,0c-0.006,1.684 0.011,3.368 0.077,5.051c0.007,0.108 0.027,0.213 0.067,0.313c0.102,0.257 0.308,0.465 0.566,0.567c0.1,0.039 0.206,0.061 0.313,0.067c1.35,0.053 2.701,0.092 4.052,0.119l0,-6.561Zm11.161,2.18l0,-4.473l-3.16,2.237l3.16,2.236Zm-11.161,-8.745c-1.331,0.005 -2.662,0.009 -3.994,0.009c-0.119,0.001 -0.237,0.019 -0.35,0.06c-0.274,0.1 -0.495,0.324 -0.595,0.597c-0.038,0.102 -0.056,0.209 -0.06,0.318c-0.024,1.674 -0.056,3.35 -0.07,5.025l1.99,0l0,-1.737l3.079,2.18l0,-6.452Z"/></svg>