<?xml version="1.0" encoding="UTF-8" standalone="no"?><!DOCTYPE svg PUBLIC "-//W3C//DTD SVG 1.1//EN" "http://www.w3.org/Graphics/SVG/1.1/DTD/svg11.dtd"><svg width="100%" height="100%" viewBox="0 0 3175 6" version="1.1" xmlns="http://www.w3.org/2000/svg" xmlns:xlink="http://www.w3.org/1999/xlink" xml:space="preserve" style="fill-rule:evenodd;clip-rule:evenodd;stroke-linejoin:bevel;stroke-miterlimit:1.5;"><g></g><g><path d="M4,3.042l3171.62,0" style="fill:none;stroke:#e93657;stroke-width:2px;"/><circle cx="3" cy="3" r="3" style="fill:#e93657;"/><path d="M3.077,0.001l0.077,0.003l0.077,0.005l0.076,0.007l0.075,0.008l0.075,0.011l0.074,0.012l0.073,0.014l0.073,0.016l0.072,0.018l0.072,0.019l0.071,0.021l0.07,0.023l0.069,0.024l0.069,0.026l0.067,0.028l0.067,0.029l0.066,0.031l0.065,0.032l0.064,0.034l0.064,0.036l0.062,0.037l0.061,0.038l0.061,0.04l0.059,0.041l0.058,0.042l0.058,0.044l0.056,0.045l0.055,0.047l0.054,0.048l0.052,0.049l0.052,0.05l0.05,0.052l0.049,0.052l0.048,0.054l0.047,0.055l0.045,0.056l0.044,0.058l0.042,0.058l0.041,0.059l0.04,0.061l0.038,0.061l0.037,0.062l0.036,0.064l0.034,0.064l0.032,0.065l0.031,0.066l0.029,0.067l0.028,0.067l0.026,0.069l0.024,0.069l0.023,0.07l0.021,0.071l0.019,0.072l0.018,0.072l0.016,0.073l0.014,0.073l0.012,0.074l0.011,0.075l0.008,0.075l0.007,0.076l0.005,0.077l0.003,0.077l0.001,0.077l-0.001,0.077l-0.003,0.077l-0.005,0.077l-0.007,0.076l-0.008,0.075l-0.011,0.075l-0.012,0.074l-0.014,0.073l-0.016,0.073l-0.018,0.072l-0.019,0.072l-0.021,0.071l-0.023,0.07l-0.024,0.069l-0.026,0.069l-0.028,0.067l-0.029,0.067l-0.031,0.066l-0.032,0.065l-0.034,0.064l-0.036,0.064l-0.037,0.062l-0.038,0.061l-0.04,0.061l-0.041,0.059l-0.042,0.058l-0.044,0.058l-0.045,0.056l-0.047,0.055l-0.048,0.054l-0.049,0.052l-0.05,0.052l-0.052,0.05l-0.052,0.049l-0.054,0.048l-0.055,0.047l-0.056,0.045l-0.058,0.044l-0.058,0.042l-0.059,0.041l-0.061,0.04l-0.061,0.038l-0.062,0.037l-0.064,0.036l-0.064,0.034l-0.065,0.032l-0.066,0.031l-0.067,0.029l-0.067,0.028l-0.069,0.026l-0.069,0.024l-0.07,0.023l-0.071,0.021l-0.072,0.019l-0.072,0.018l-0.073,0.016l-0.073,0.014l-0.074,0.012l-0.075,0.011l-0.075,0.008l-0.076,0.007l-0.077,0.005l-0.077,0.003l-0.077,0.001l-0.077,-0.001l-0.077,-0.003l-0.077,-0.005l-0.076,-0.007l-0.075,-0.008l-0.075,-0.011l-0.074,-0.012l-0.073,-0.014l-0.073,-0.016l-0.072,-0.018l-0.072,-0.019l-0.071,-0.021l-0.07,-0.023l-0.069,-0.024l-0.069,-0.026l-0.067,-0.028l-0.067,-0.029l-0.066,-0.031l-0.065,-0.032l-0.064,-0.034l-0.064,-0.036l-0.062,-0.037l-0.061,-0.038l-0.061,-0.04l-0.059,-0.041l-0.058,-0.042l-0.058,-0.044l-0.056,-0.045l-0.055,-0.047l-0.054,-0.048l-0.052,-0.049l-0.052,-0.05l-0.05,-0.052l-0.049,-0.052l-0.048,-0.054l-0.047,-0.055l-0.045,-0.056l-0.044,-0.058l-0.042,-0.058l-0.041,-0.059l-0.04,-0.061l-0.038,-0.061l-0.037,-0.062l-0.036,-0.064l-0.034,-0.064l-0.032,-0.065l-0.031,-0.066l-0.029,-0.067l-0.028,-0.067l-0.026,-0.069l-0.024,-0.069l-0.023,-0.07l-0.021,-0.071l-0.019,-0.072l-0.018,-0.072l-0.016,-0.073l-0.014,-0.073l-0.012,-0.074l-0.011,-0.075l-0.008,-0.075l-0.007,-0.076l-0.005,-0.077l-0.003,-0.077l-0.001,-0.077l0.001,-0.077l0.003,-0.077l0.005,-0.077l0.007,-0.076l0.008,-0.075l0.011,-0.075l0.012,-0.074l0.014,-0.073l0.016,-0.073l0.018,-0.072l0.019,-0.072l0.021,-0.071l0.023,-0.07l0.024,-0.069l0.026,-0.069l0.028,-0.067l0.029,-0.067l0.031,-0.066l0.032,-0.065l0.034,-0.064l0.036,-0.064l0.037,-0.062l0.038,-0.061l0.04,-0.061l0.041,-0.059l0.042,-0.058l0.044,-0.058l0.045,-0.056l0.047,-0.055l0.048,-0.054l0.049,-0.052l0.05,-0.052l0.052,-0.05l0.052,-0.049l0.054,-0.048l0.055,-0.047l0.056,-0.045l0.058,-0.044l0.058,-0.042l0.059,-0.041l0.061,-0.04l0.061,-0.038l0.062,-0.037l0.064,-0.036l0.064,-0.034l0.065,-0.032l0.066,-0.031l0.067,-0.029l0.067,-0.028l0.069,-0.026l0.069,-0.024l0.07,-0.023l0.071,-0.021l0.072,-0.019l0.072,-0.018l0.073,-0.016l0.073,-0.014l0.074,-0.012l0.075,-0.011l0.075,-0.008l0.076,-0.007l0.077,-0.005l0.077,-0.003l0.077,-0.001l0.077,0.001Zm-0.104,2l-0.026,0.001l-0.026,0.001l-0.025,0.002l-0.025,0.003l-0.025,0.004l-0.024,0.004l-0.025,0.004l-0.024,0.006l-0.023,0.005l-0.023,0.007l-0.025,0.007l-0.023,0.007l-0.022,0.008l-0.022,0.009l-0.023,0.009l-0.022,0.01l-0.021,0.01l-0.022,0.01l-0.021,0.012l-0.022,0.012l-0.02,0.011l-0.019,0.013l-0.022,0.014l-0.021,0.015l-0.018,0.013l-0.018,0.014l-0.022,0.017l-0.017,0.015l-0.018,0.015l-0.02,0.019l-0.015,0.015l-0.017,0.017l-0.017,0.019l-0.015,0.017l-0.018,0.02l-0.014,0.019l-0.015,0.018l-0.014,0.02l-0.015,0.021l-0.012,0.019l-0.012,0.019l-0.014,0.023l-0.011,0.02l-0.012,0.022l-0.011,0.023l-0.01,0.022l-0.009,0.021l-0.009,0.021l-0.008,0.022l-0.008,0.023l-0.008,0.023l-0.007,0.025l-0.007,0.025l-0.006,0.022l-0.005,0.023l-0.004,0.024l-0.004,0.025l-0.003,0.022l-0.003,0.027l-0.003,0.028l-0.002,0.024l-0.001,0.026l0,0.027l0,0.027l0.001,0.026l0.002,0.024l0.003,0.028l0.003,0.027l0.003,0.022l0.004,0.025l0.004,0.024l0.005,0.023l0.006,0.022l0.007,0.025l0.007,0.025l0.008,0.023l0.008,0.023l0.008,0.022l0.009,0.021l0.009,0.02l0.01,0.024l0.011,0.022l0.012,0.021l0.011,0.021l0.014,0.023l0.012,0.019l0.012,0.019l0.015,0.021l0.014,0.019l0.015,0.02l0.015,0.018l0.016,0.02l0.015,0.017l0.018,0.019l0.017,0.017l0.016,0.015l0.019,0.019l0.018,0.015l0.018,0.015l0.021,0.018l0.018,0.013l0.017,0.013l0.022,0.015l0.022,0.014l0.019,0.013l0.02,0.011l0.022,0.012l0.021,0.012l0.022,0.01l0.021,0.01l0.022,0.01l0.023,0.009l0.022,0.009l0.022,0.008l0.024,0.007l0.024,0.007l0.023,0.007l0.023,0.005l0.024,0.005l0.025,0.005l0.024,0.004l0.025,0.004l0.025,0.003l0.025,0.002l0.026,0.002l0.027,0.001l0.026,0l0.026,0l0.027,-0.001l0.026,-0.002l0.025,-0.002l0.025,-0.003l0.025,-0.004l0.024,-0.004l0.025,-0.005l0.024,-0.005l0.023,-0.005l0.023,-0.007l0.024,-0.007l0.024,-0.007l0.022,-0.008l0.022,-0.009l0.023,-0.009l0.022,-0.01l0.021,-0.01l0.022,-0.01l0.021,-0.012l0.022,-0.012l0.02,-0.011l0.019,-0.013l0.022,-0.014l0.022,-0.015l0.017,-0.013l0.018,-0.013l0.021,-0.018l0.018,-0.015l0.018,-0.015l0.019,-0.019l0.016,-0.015l0.017,-0.017l0.018,-0.019l0.015,-0.017l0.016,-0.02l0.015,-0.018l0.015,-0.02l0.014,-0.019l0.015,-0.021l0.012,-0.019l0.012,-0.019l0.014,-0.023l0.011,-0.021l0.012,-0.021l0.011,-0.022l0.01,-0.024l0.009,-0.02l0.009,-0.021l0.008,-0.022l0.008,-0.023l0.008,-0.023l0.007,-0.025l0.007,-0.025l0.006,-0.022l0.005,-0.023l0.004,-0.024l0.004,-0.025l0.003,-0.022l0.003,-0.027l0.003,-0.028l0.002,-0.024l0.001,-0.026l0,-0.027l0,-0.027l-0.001,-0.026l-0.002,-0.024l-0.003,-0.028l-0.003,-0.027l-0.003,-0.022l-0.004,-0.025l-0.004,-0.024l-0.005,-0.023l-0.006,-0.022l-0.007,-0.025l-0.007,-0.025l-0.008,-0.023l-0.008,-0.023l-0.008,-0.022l-0.009,-0.021l-0.009,-0.021l-0.01,-0.022l-0.011,-0.023l-0.012,-0.022l-0.011,-0.02l-0.014,-0.023l-0.012,-0.019l-0.012,-0.019l-0.015,-0.021l-0.014,-0.02l-0.015,-0.018l-0.014,-0.019l-0.018,-0.02l-0.015,-0.017l-0.017,-0.019l-0.017,-0.017l-0.015,-0.015l-0.02,-0.019l-0.018,-0.015l-0.017,-0.015l-0.022,-0.017l-0.018,-0.014l-0.018,-0.013l-0.021,-0.015l-0.022,-0.014l-0.019,-0.013l-0.02,-0.011l-0.022,-0.012l-0.021,-0.012l-0.022,-0.01l-0.021,-0.01l-0.022,-0.01l-0.023,-0.009l-0.022,-0.009l-0.022,-0.008l-0.023,-0.007l-0.025,-0.007l-0.023,-0.007l-0.023,-0.005l-0.024,-0.006l-0.025,-0.004l-0.024,-0.004l-0.025,-0.004l-0.025,-0.003l-0.025,-0.002l-0.026,-0.001l-0.026,-0.001l-0.027,-0.001l-0.027,0.001Z" style="fill:#e93657;"/></g></svg>