<?xml version="1.0" encoding="UTF-8" standalone="no"?><!DOCTYPE svg PUBLIC "-//W3C//DTD SVG 1.1//EN" "http://www.w3.org/Graphics/SVG/1.1/DTD/svg11.dtd"><svg width="100%" height="100%" viewBox="0 0 135 30" version="1.1" xmlns="http://www.w3.org/2000/svg" xmlns:xlink="http://www.w3.org/1999/xlink" xml:space="preserve" style="fill-rule:evenodd;clip-rule:evenodd;stroke-linejoin:round;stroke-miterlimit:1.41421;"><g></g><rect x="-117" y="-451" width="400" height="1430" style="fill:none;"/><path id="Base" d="M88.207,14.906c0,-6.062 -4.922,-10.983 -10.983,-10.983l-20.093,0c-6.061,0 -10.983,4.921 -10.983,10.983c0,6.062 4.922,10.983 10.983,10.983l20.093,0c6.061,0 10.983,-4.921 10.983,-10.983Z" style="fill:#4c8ce9;"/><path d="M116.584,4.112l0.084,0.001l0.083,0.003l0.083,0.004l0.083,0.004l0.083,0.006l0.082,0.007l0.082,0.008l0.082,0.009l0.081,0.01l0.082,0.011l0.08,0.011l0.081,0.013l0.08,0.014l0.08,0.015l0.079,0.016l0.079,0.017l0.079,0.018l0.079,0.018l0.078,0.02l0.077,0.021l0.078,0.021l0.077,0.023l0.076,0.023l0.076,0.024l0.076,0.026l0.075,0.026l0.075,0.027l0.074,0.028l0.074,0.029l0.074,0.029l0.073,0.031l0.073,0.031l0.072,0.033l0.072,0.033l0.071,0.034l0.071,0.035l0.07,0.036l0.07,0.036l0.069,0.037l0.069,0.039l0.068,0.038l0.068,0.04l0.067,0.041l0.067,0.041l0.066,0.042l0.066,0.043l0.065,0.044l0.065,0.044l0.064,0.046l0.063,0.045l0.063,0.047l0.062,0.048l0.062,0.048l0.061,0.049l0.061,0.049l0.06,0.051l0.059,0.051l0.058,0.051l0.058,0.053l0.058,0.053l0.057,0.054l0.056,0.054l0.055,0.055l0.055,0.056l0.054,0.056l0.054,0.058l0.053,0.057l0.052,0.059l0.051,0.059l0.051,0.059l0.05,0.06l0.049,0.061l0.049,0.062l0.048,0.062l0.047,0.062l0.046,0.064l0.046,0.063l0.045,0.065l0.044,0.065l0.044,0.065l0.042,0.066l0.042,0.067l0.041,0.067l0.041,0.067l0.039,0.069l0.039,0.068l0.038,0.069l0.037,0.07l0.036,0.07l0.036,0.071l0.035,0.071l0.033,0.072l0.033,0.072l0.033,0.073l0.031,0.073l0.03,0.073l0.03,0.074l0.029,0.075l0.027,0.074l0.027,0.076l0.026,0.075l0.025,0.077l0.025,0.076l0.023,0.077l0.022,0.077l0.022,0.078l0.02,0.078l0.02,0.079l0.018,0.078l0.018,0.08l0.017,0.079l0.016,0.08l0.014,0.08l0.014,0.081l0.013,0.081l0.012,0.081l0.011,0.082l0.01,0.082l0.008,0.082l0.008,0.082l0.007,0.083l0.006,0.083l0.005,0.084l0.003,0.083l0.003,0.084l0.001,0.084l0.001,0.085l0,4.353l-13,0l0,-4.353l0.001,-0.085l0.001,-0.084l0.003,-0.084l0.003,-0.083l0.005,-0.084l0.006,-0.083l0.007,-0.083l0.008,-0.082l0.008,-0.082l0.01,-0.082l0.011,-0.082l0.012,-0.081l0.013,-0.081l0.014,-0.081l0.014,-0.08l0.016,-0.08l0.017,-0.079l0.018,-0.08l0.018,-0.078l0.02,-0.079l0.02,-0.078l0.022,-0.078l0.022,-0.077l0.023,-0.077l0.025,-0.076l0.025,-0.077l0.026,-0.075l0.027,-0.076l0.028,-0.074l0.028,-0.075l0.03,-0.074l0.03,-0.073l0.031,-0.073l0.033,-0.073l0.033,-0.072l0.033,-0.072l0.035,-0.071l0.036,-0.071l0.036,-0.07l0.037,-0.07l0.038,-0.069l0.039,-0.068l0.039,-0.069l0.041,-0.067l0.041,-0.067l0.042,-0.067l0.042,-0.066l0.044,-0.065l0.044,-0.065l0.045,-0.065l0.046,-0.063l0.046,-0.064l0.047,-0.062l0.048,-0.062l0.049,-0.062l0.049,-0.061l0.05,-0.06l0.051,-0.059l0.051,-0.059l0.052,-0.059l0.053,-0.058l0.054,-0.057l0.054,-0.056l0.055,-0.056l0.055,-0.055l0.056,-0.054l0.057,-0.054l0.058,-0.053l0.058,-0.053l0.058,-0.051l0.06,-0.051l0.059,-0.051l0.061,-0.049l0.061,-0.049l0.062,-0.048l0.062,-0.048l0.063,-0.047l0.063,-0.045l0.064,-0.046l0.065,-0.044l0.065,-0.044l0.066,-0.043l0.066,-0.042l0.067,-0.041l0.067,-0.041l0.068,-0.04l0.068,-0.038l0.069,-0.039l0.069,-0.037l0.07,-0.036l0.07,-0.036l0.071,-0.035l0.071,-0.034l0.072,-0.033l0.072,-0.033l0.073,-0.031l0.073,-0.031l0.074,-0.029l0.074,-0.029l0.074,-0.028l0.075,-0.027l0.075,-0.026l0.076,-0.026l0.076,-0.024l0.077,-0.023l0.076,-0.023l0.078,-0.021l0.077,-0.021l0.078,-0.02l0.079,-0.018l0.079,-0.018l0.079,-0.017l0.079,-0.016l0.08,-0.015l0.08,-0.014l0.081,-0.013l0.08,-0.011l0.082,-0.011l0.081,-0.01l0.082,-0.009l0.082,-0.008l0.082,-0.007l0.083,-0.006l0.083,-0.004l0.083,-0.004l0.083,-0.003l0.084,-0.001l0.084,-0.001l0.084,0.001Zm-0.154,1.057l-0.071,0.002l-0.07,0.002l-0.069,0.003l-0.07,0.004l-0.069,0.005l-0.069,0.006l-0.069,0.006l-0.068,0.007l-0.068,0.009l-0.068,0.009l-0.067,0.01l-0.068,0.011l-0.067,0.011l-0.066,0.013l-0.067,0.013l-0.066,0.014l-0.066,0.015l-0.065,0.015l-0.065,0.017l-0.065,0.017l-0.065,0.018l-0.064,0.019l-0.064,0.019l-0.063,0.021l-0.064,0.021l-0.063,0.022l-0.062,0.022l-0.063,0.024l-0.061,0.024l-0.061,0.025l-0.062,0.025l-0.061,0.027l-0.06,0.027l-0.06,0.027l-0.06,0.029l-0.059,0.029l-0.058,0.03l-0.059,0.03l-0.058,0.031l-0.058,0.033l-0.057,0.032l-0.057,0.034l-0.056,0.033l-0.056,0.035l-0.055,0.035l-0.055,0.036l-0.055,0.037l-0.054,0.037l-0.053,0.038l-0.054,0.039l-0.052,0.038l-0.052,0.04l-0.052,0.041l-0.051,0.04l-0.051,0.042l-0.051,0.043l-0.049,0.042l-0.049,0.043l-0.05,0.045l-0.047,0.044l-0.047,0.045l-0.048,0.046l-0.046,0.046l-0.046,0.047l-0.047,0.048l-0.044,0.047l-0.044,0.049l-0.044,0.049l-0.042,0.048l-0.043,0.051l-0.043,0.051l-0.041,0.05l-0.041,0.052l-0.04,0.053l-0.039,0.052l-0.039,0.052l-0.039,0.054l-0.038,0.055l-0.036,0.053l-0.037,0.056l-0.036,0.056l-0.034,0.054l-0.035,0.056l-0.034,0.058l-0.033,0.057l-0.033,0.057l-0.032,0.058l-0.031,0.059l-0.03,0.059l-0.03,0.059l-0.029,0.06l-0.029,0.06l-0.027,0.059l-0.027,0.062l-0.026,0.061l-0.025,0.061l-0.025,0.062l-0.024,0.063l-0.024,0.064l-0.022,0.062l-0.022,0.062l-0.021,0.065l-0.02,0.064l-0.019,0.063l-0.019,0.066l-0.018,0.065l-0.018,0.067l-0.016,0.065l-0.015,0.064l-0.015,0.068l-0.014,0.066l-0.014,0.067l-0.012,0.068l-0.012,0.067l-0.01,0.068l-0.01,0.068l-0.01,0.069l-0.008,0.067l-0.007,0.07l-0.007,0.07l-0.005,0.07l-0.005,0.068l-0.004,0.071l-0.003,0.071l-0.003,0.07l-0.001,0.069l0,0.075l0,3.293l10.884,0l0,-3.291l0,-0.075l-0.001,-0.071l-0.003,-0.07l-0.003,-0.071l-0.004,-0.071l-0.005,-0.068l-0.005,-0.07l-0.007,-0.07l-0.007,-0.07l-0.008,-0.067l-0.01,-0.068l-0.01,-0.069l-0.011,-0.068l-0.011,-0.067l-0.012,-0.068l-0.014,-0.067l-0.014,-0.066l-0.015,-0.068l-0.015,-0.064l-0.016,-0.065l-0.018,-0.067l-0.018,-0.065l-0.019,-0.066l-0.019,-0.063l-0.02,-0.064l-0.021,-0.065l-0.022,-0.062l-0.023,-0.064l-0.022,-0.062l-0.024,-0.061l-0.026,-0.064l-0.026,-0.063l-0.025,-0.059l-0.026,-0.06l-0.028,-0.061l-0.029,-0.06l-0.029,-0.06l-0.03,-0.059l-0.03,-0.059l-0.032,-0.059l-0.031,-0.058l-0.033,-0.057l-0.033,-0.057l-0.034,-0.058l-0.035,-0.056l-0.035,-0.055l-0.035,-0.055l-0.036,-0.055l-0.038,-0.055l-0.037,-0.054l-0.038,-0.053l-0.04,-0.053l-0.04,-0.054l-0.039,-0.051l-0.041,-0.051l-0.041,-0.051l-0.043,-0.051l-0.043,-0.051l-0.042,-0.048l-0.044,-0.049l-0.044,-0.049l-0.046,-0.048l-0.045,-0.048l-0.045,-0.045l-0.047,-0.046l-0.048,-0.047l-0.047,-0.045l-0.048,-0.045l-0.049,-0.044l-0.049,-0.043l-0.049,-0.042l-0.05,-0.042l-0.052,-0.043l-0.051,-0.04l-0.052,-0.041l-0.052,-0.04l-0.052,-0.038l-0.054,-0.039l-0.053,-0.038l-0.055,-0.037l-0.054,-0.037l-0.055,-0.036l-0.055,-0.035l-0.056,-0.035l-0.056,-0.033l-0.057,-0.034l-0.057,-0.032l-0.058,-0.032l-0.058,-0.032l-0.059,-0.03l-0.058,-0.03l-0.06,-0.029l-0.059,-0.029l-0.06,-0.027l-0.06,-0.027l-0.061,-0.027l-0.062,-0.025l-0.061,-0.025l-0.061,-0.024l-0.063,-0.024l-0.062,-0.022l-0.063,-0.022l-0.064,-0.021l-0.063,-0.021l-0.064,-0.019l-0.064,-0.019l-0.065,-0.018l-0.065,-0.017l-0.065,-0.017l-0.065,-0.015l-0.066,-0.015l-0.066,-0.014l-0.066,-0.013l-0.067,-0.013l-0.067,-0.011l-0.068,-0.011l-0.067,-0.01l-0.068,-0.009l-0.068,-0.009l-0.068,-0.007l-0.069,-0.006l-0.069,-0.006l-0.069,-0.005l-0.07,-0.004l-0.069,-0.003l-0.07,-0.002l-0.071,-0.002l-0.07,0l-0.07,0Z" style="fill:#d3d3d3;"/><path d="M116.616,6.117l0.115,0.004l0.115,0.006l0.114,0.008l0.113,0.012l0.112,0.013l0.111,0.016l0.11,0.018l0.11,0.02l0.108,0.023l0.107,0.024l0.107,0.027l0.105,0.029l0.104,0.032l0.102,0.033l0.102,0.035l0.1,0.038l0.099,0.039l0.098,0.042l0.096,0.043l0.095,0.046l0.094,0.047l0.092,0.049l0.09,0.051l0.089,0.052l0.088,0.055l0.086,0.056l0.084,0.058l0.082,0.059l0.081,0.061l0.079,0.063l0.077,0.064l0.076,0.066l0.073,0.068l0.072,0.069l0.07,0.07l0.068,0.072l0.066,0.073l0.063,0.075l0.062,0.076l0.06,0.077l0.057,0.078l0.055,0.08l0.054,0.081l0.05,0.082l0.049,0.084l0.046,0.084l0.044,0.086l0.042,0.086l0.039,0.088l0.036,0.089l0.035,0.089l0.031,0.091l0.029,0.091l0.027,0.093l0.024,0.093l0.021,0.094l0.018,0.095l0.016,0.095l0.013,0.097l0.01,0.097l0.007,0.098l0.005,0.098l0.001,0.099l0,5.046l-9,0l0,-5.046l0.001,-0.099l0.005,-0.098l0.007,-0.098l0.01,-0.097l0.013,-0.097l0.016,-0.095l0.018,-0.095l0.021,-0.094l0.024,-0.093l0.027,-0.093l0.029,-0.091l0.031,-0.091l0.035,-0.09l0.036,-0.088l0.039,-0.088l0.042,-0.086l0.044,-0.086l0.046,-0.084l0.049,-0.084l0.05,-0.082l0.054,-0.081l0.055,-0.08l0.057,-0.078l0.06,-0.077l0.062,-0.076l0.063,-0.075l0.066,-0.073l0.068,-0.072l0.07,-0.07l0.072,-0.069l0.073,-0.068l0.076,-0.066l0.077,-0.064l0.079,-0.063l0.081,-0.061l0.082,-0.059l0.084,-0.058l0.086,-0.056l0.088,-0.055l0.089,-0.052l0.09,-0.051l0.092,-0.049l0.094,-0.048l0.095,-0.045l0.096,-0.043l0.098,-0.042l0.099,-0.039l0.1,-0.038l0.102,-0.035l0.102,-0.033l0.104,-0.032l0.105,-0.029l0.107,-0.027l0.107,-0.024l0.108,-0.023l0.11,-0.02l0.11,-0.018l0.111,-0.016l0.112,-0.013l0.113,-0.012l0.114,-0.008l0.115,-0.006l0.115,-0.004l0.116,-0.001l0.116,0.001Zm-0.209,1.057l-0.093,0.003l-0.091,0.005l-0.091,0.007l-0.091,0.009l-0.089,0.011l-0.089,0.012l-0.088,0.015l-0.086,0.016l-0.086,0.018l-0.085,0.019l-0.084,0.022l-0.083,0.023l-0.082,0.024l-0.081,0.027l-0.08,0.027l-0.078,0.03l-0.078,0.031l-0.076,0.032l-0.075,0.034l-0.074,0.035l-0.073,0.037l-0.071,0.038l-0.07,0.039l-0.068,0.04l-0.068,0.042l-0.066,0.043l-0.064,0.045l-0.063,0.045l-0.061,0.046l-0.059,0.047l-0.059,0.049l-0.057,0.05l-0.055,0.05l-0.053,0.052l-0.051,0.051l-0.051,0.054l-0.048,0.053l-0.046,0.055l-0.046,0.055l-0.043,0.057l-0.042,0.057l-0.04,0.057l-0.038,0.057l-0.036,0.059l-0.034,0.059l-0.032,0.059l-0.032,0.061l-0.029,0.061l-0.027,0.06l-0.025,0.061l-0.024,0.064l-0.022,0.062l-0.02,0.062l-0.018,0.063l-0.016,0.063l-0.014,0.065l-0.013,0.065l-0.011,0.065l-0.009,0.066l-0.006,0.065l-0.005,0.067l-0.003,0.066l-0.001,0.075l0,3.981l6.884,0l0,-3.98l-0.001,-0.076l-0.003,-0.068l-0.005,-0.065l-0.006,-0.065l-0.009,-0.066l-0.011,-0.065l-0.013,-0.065l-0.014,-0.064l-0.017,-0.064l-0.018,-0.064l-0.019,-0.062l-0.022,-0.061l-0.024,-0.063l-0.026,-0.062l-0.026,-0.061l-0.029,-0.06l-0.031,-0.06l-0.033,-0.06l-0.035,-0.06l-0.035,-0.058l-0.038,-0.057l-0.04,-0.057l-0.042,-0.057l-0.043,-0.057l-0.045,-0.055l-0.047,-0.055l-0.048,-0.053l-0.05,-0.053l-0.053,-0.053l-0.053,-0.051l-0.054,-0.05l-0.057,-0.05l-0.059,-0.049l-0.059,-0.047l-0.061,-0.046l-0.064,-0.046l-0.063,-0.044l-0.066,-0.042l-0.068,-0.043l-0.068,-0.04l-0.07,-0.039l-0.072,-0.038l-0.072,-0.037l-0.074,-0.035l-0.074,-0.034l-0.077,-0.032l-0.078,-0.031l-0.078,-0.03l-0.08,-0.027l-0.081,-0.027l-0.082,-0.024l-0.083,-0.023l-0.084,-0.022l-0.085,-0.019l-0.086,-0.018l-0.087,-0.016l-0.087,-0.015l-0.089,-0.012l-0.089,-0.011l-0.09,-0.009l-0.091,-0.007l-0.092,-0.005l-0.093,-0.003l-0.093,-0.001l-0.093,0.001Z" style="fill:#d3d3d3;"/><path d="M123.616,14l0.037,0.002l0.036,0.002l0.036,0.003l0.035,0.004l0.036,0.005l0.035,0.006l0.035,0.007l0.034,0.007l0.034,0.009l0.034,0.009l0.034,0.01l0.033,0.011l0.033,0.011l0.032,0.013l0.032,0.013l0.032,0.014l0.031,0.014l0.031,0.015l0.03,0.017l0.03,0.016l0.03,0.018l0.029,0.018l0.029,0.019l0.028,0.019l0.027,0.02l0.027,0.021l0.027,0.022l0.026,0.022l0.025,0.022l0.025,0.023l0.025,0.024l0.024,0.025l0.023,0.025l0.022,0.025l0.022,0.026l0.022,0.027l0.021,0.027l0.02,0.027l0.019,0.028l0.019,0.029l0.018,0.029l0.018,0.03l0.016,0.03l0.017,0.03l0.015,0.031l0.014,0.031l0.014,0.032l0.013,0.032l0.013,0.032l0.011,0.033l0.011,0.033l0.01,0.034l0.009,0.034l0.009,0.034l0.007,0.034l0.007,0.035l0.006,0.035l0.005,0.036l0.004,0.035l0.003,0.036l0.002,0.036l0.002,0.037l0,0.036l0,9.049l0,0.036l-0.002,0.037l-0.002,0.036l-0.003,0.036l-0.004,0.035l-0.005,0.036l-0.006,0.035l-0.007,0.035l-0.007,0.034l-0.009,0.034l-0.009,0.034l-0.01,0.034l-0.011,0.033l-0.011,0.033l-0.013,0.032l-0.013,0.032l-0.014,0.032l-0.014,0.031l-0.015,0.031l-0.017,0.03l-0.016,0.03l-0.018,0.03l-0.018,0.029l-0.019,0.028l-0.019,0.029l-0.02,0.027l-0.021,0.027l-0.022,0.027l-0.022,0.026l-0.022,0.025l-0.023,0.025l-0.024,0.025l-0.025,0.024l-0.025,0.023l-0.025,0.022l-0.026,0.022l-0.027,0.022l-0.027,0.021l-0.027,0.02l-0.028,0.019l-0.029,0.019l-0.029,0.018l-0.03,0.018l-0.03,0.016l-0.03,0.016l-0.031,0.016l-0.031,0.014l-0.032,0.014l-0.032,0.013l-0.032,0.013l-0.033,0.011l-0.033,0.011l-0.034,0.01l-0.034,0.009l-0.034,0.009l-0.034,0.007l-0.035,0.007l-0.035,0.006l-0.036,0.004l-0.035,0.005l-0.036,0.003l-0.036,0.002l-0.037,0.001l-0.036,0.001l-14.149,0l-0.037,-0.001l-0.036,-0.001l-0.036,-0.002l-0.036,-0.003l-0.036,-0.005l-0.035,-0.004l-0.035,-0.006l-0.035,-0.007l-0.035,-0.007l-0.034,-0.009l-0.034,-0.009l-0.033,-0.01l-0.034,-0.011l-0.032,-0.011l-0.033,-0.013l-0.032,-0.013l-0.031,-0.014l-0.032,-0.014l-0.031,-0.016l-0.03,-0.016l-0.03,-0.016l-0.029,-0.018l-0.029,-0.018l-0.029,-0.019l-0.028,-0.019l-0.028,-0.02l-0.027,-0.021l-0.026,-0.022l-0.026,-0.022l-0.026,-0.022l-0.025,-0.023l-0.024,-0.024l-0.024,-0.025l-0.023,-0.025l-0.023,-0.025l-0.022,-0.026l-0.021,-0.027l-0.021,-0.027l-0.02,-0.027l-0.02,-0.029l-0.019,-0.028l-0.018,-0.029l-0.017,-0.03l-0.017,-0.03l-0.016,-0.03l-0.015,-0.031l-0.015,-0.031l-0.014,-0.032l-0.013,-0.032l-0.012,-0.032l-0.012,-0.033l-0.011,-0.033l-0.01,-0.034l-0.009,-0.034l-0.008,-0.034l-0.008,-0.034l-0.006,-0.035l-0.006,-0.035l-0.005,-0.036l-0.004,-0.035l-0.003,-0.036l-0.003,-0.036l-0.001,-0.037l0,-0.036l0,-9.049l0,-0.036l0.001,-0.037l0.003,-0.036l0.003,-0.036l0.004,-0.035l0.005,-0.036l0.006,-0.035l0.006,-0.035l0.008,-0.034l0.008,-0.034l0.009,-0.034l0.01,-0.034l0.011,-0.033l0.012,-0.033l0.012,-0.032l0.013,-0.032l0.014,-0.032l0.015,-0.031l0.015,-0.031l0.016,-0.03l0.017,-0.03l0.017,-0.03l0.018,-0.029l0.019,-0.029l0.02,-0.028l0.02,-0.027l0.021,-0.027l0.021,-0.027l0.022,-0.026l0.023,-0.025l0.023,-0.025l0.024,-0.025l0.024,-0.024l0.025,-0.023l0.026,-0.022l0.026,-0.022l0.026,-0.022l0.027,-0.021l0.028,-0.02l0.028,-0.019l0.029,-0.019l0.029,-0.018l0.029,-0.018l0.03,-0.016l0.03,-0.017l0.031,-0.015l0.032,-0.014l0.031,-0.014l0.032,-0.013l0.033,-0.013l0.032,-0.011l0.034,-0.011l0.033,-0.01l0.034,-0.009l0.034,-0.009l0.035,-0.007l0.035,-0.007l0.035,-0.006l0.035,-0.005l0.036,-0.004l0.036,-0.003l0.036,-0.002l0.036,-0.002l0.037,0l14.149,0l0.036,0Zm-14.179,1l-0.017,0l-0.011,0.001l-0.012,0l-0.01,0.001l-0.011,0.002l-0.01,0.001l-0.01,0.002l-0.011,0.002l-0.009,0.002l-0.011,0.002l-0.01,0.003l-0.009,0.003l-0.009,0.003l-0.009,0.003l-0.011,0.004l-0.01,0.004l-0.008,0.004l-0.009,0.004l-0.01,0.005l-0.009,0.005l-0.008,0.004l-0.008,0.005l-0.009,0.005l-0.009,0.007l-0.008,0.005l-0.009,0.006l-0.008,0.007l-0.008,0.006l-0.008,0.007l-0.007,0.006l-0.007,0.007l-0.008,0.007l-0.007,0.007l-0.007,0.008l-0.008,0.009l-0.007,0.008l-0.004,0.005l-0.006,0.009l-0.008,0.01l-0.005,0.007l-0.006,0.009l-0.006,0.009l-0.004,0.008l-0.006,0.01l-0.004,0.009l-0.005,0.008l-0.004,0.009l-0.004,0.01l-0.004,0.009l-0.003,0.008l-0.003,0.01l-0.004,0.011l-0.002,0.009l-0.003,0.009l-0.003,0.012l-0.002,0.009l-0.002,0.01l-0.002,0.011l-0.001,0.008l-0.001,0.012l-0.001,0.012l-0.001,0.012l0,0.01l-0.001,0.016l0,9.037l0.001,0.016l0,0.01l0.001,0.012l0.001,0.012l0.001,0.012l0.001,0.008l0.002,0.01l0.002,0.011l0.002,0.009l0.003,0.012l0.003,0.009l0.002,0.009l0.004,0.011l0.003,0.01l0.003,0.008l0.004,0.009l0.004,0.01l0.004,0.009l0.005,0.008l0.004,0.009l0.006,0.01l0.004,0.008l0.006,0.009l0.006,0.009l0.005,0.007l0.008,0.01l0.006,0.009l0.004,0.005l0.007,0.008l0.008,0.009l0.007,0.008l0.007,0.007l0.008,0.007l0.007,0.007l0.007,0.006l0.008,0.007l0.008,0.006l0.008,0.006l0.009,0.007l0.008,0.005l0.009,0.006l0.009,0.006l0.008,0.005l0.008,0.004l0.009,0.005l0.01,0.005l0.009,0.004l0.008,0.004l0.01,0.004l0.011,0.004l0.009,0.003l0.009,0.003l0.009,0.003l0.01,0.003l0.011,0.002l0.009,0.002l0.011,0.002l0.01,0.002l0.01,0.001l0.011,0.002l0.01,0.001l0.012,0l0.011,0.001l0.017,0l14.137,0l0.017,0l0.01,-0.001l0.012,0l0.011,-0.001l0.01,-0.002l0.01,-0.001l0.01,-0.002l0.012,-0.002l0.009,-0.002l0.01,-0.002l0.01,-0.003l0.01,-0.003l0.009,-0.003l0.01,-0.003l0.009,-0.004l0.01,-0.004l0.01,-0.004l0.007,-0.004l0.009,-0.004l0.01,-0.005l0.009,-0.005l0.008,-0.005l0.009,-0.006l0.009,-0.006l0.009,-0.006l0.006,-0.004l0.008,-0.006l0.01,-0.008l0.008,-0.007l0.008,-0.007l0.006,-0.006l0.008,-0.007l0.008,-0.009l0.006,-0.006l0.006,-0.007l0.006,-0.008l0.008,-0.009l0.006,-0.009l0.005,-0.006l0.006,-0.009l0.006,-0.009l0.006,-0.009l0.006,-0.01l0.003,-0.006l0.005,-0.008l0.005,-0.011l0.004,-0.009l0.004,-0.01l0.004,-0.009l0.004,-0.011l0.003,-0.007l0.002,-0.008l0.005,-0.015l0.002,-0.009l0.002,-0.006l0.002,-0.012l0.002,-0.011l0.002,-0.007l0.002,-0.014l0.001,-0.012l0.001,-0.009l0,-0.009l0.001,-0.01l0,-0.019l0,-9.037l0,-0.019l-0.001,-0.01l0,-0.009l-0.001,-0.009l-0.001,-0.012l-0.002,-0.014l-0.002,-0.008l-0.002,-0.01l-0.002,-0.012l-0.002,-0.007l-0.002,-0.009l-0.005,-0.014l-0.002,-0.008l-0.003,-0.007l-0.004,-0.011l-0.004,-0.009l-0.004,-0.01l-0.004,-0.009l-0.005,-0.011l-0.005,-0.008l-0.003,-0.006l-0.006,-0.01l-0.006,-0.009l-0.006,-0.009l-0.006,-0.009l-0.005,-0.006l-0.006,-0.009l-0.008,-0.009l-0.006,-0.008l-0.006,-0.007l-0.006,-0.006l-0.008,-0.009l-0.008,-0.007l-0.006,-0.006l-0.008,-0.007l-0.008,-0.007l-0.01,-0.008l-0.008,-0.006l-0.006,-0.004l-0.009,-0.006l-0.009,-0.007l-0.009,-0.005l-0.009,-0.005l-0.008,-0.005l-0.009,-0.005l-0.01,-0.004l-0.007,-0.004l-0.01,-0.004l-0.01,-0.004l-0.009,-0.004l-0.01,-0.003l-0.009,-0.003l-0.01,-0.003l-0.01,-0.003l-0.01,-0.002l-0.009,-0.002l-0.012,-0.002l-0.01,-0.002l-0.01,-0.001l-0.01,-0.002l-0.011,-0.001l-0.012,0l-0.01,-0.001l-0.017,0l-14.137,0Z" style="fill:#d3d3d3;"/><path d="M26.344,5.698c0.004,0.142 -0.047,0.286 -0.155,0.394c-0.023,0.023 -0.053,0.034 -0.079,0.052l-1.483,1.482l0.38,0.38c0.027,0.018 0.057,0.029 0.08,0.052c0.108,0.109 0.158,0.252 0.155,0.393c0.003,0.142 -0.047,0.286 -0.155,0.394c-0.023,0.023 -0.053,0.034 -0.08,0.052l-17.483,17.467c-0.062,0.117 -0.159,0.216 -0.289,0.265l-5.402,2.117c-0.032,0.017 -0.065,0.028 -0.1,0.039l-0.007,0.003c-0.004,0.001 -0.009,0 -0.013,0.002c-0.051,0.014 -0.103,0.025 -0.158,0.025c-0.054,0.001 -0.104,-0.009 -0.156,-0.023c-0.011,-0.003 -0.021,-0.001 -0.033,-0.005c-0.004,-0.002 -0.007,-0.006 -0.011,-0.007c-0.049,-0.018 -0.091,-0.046 -0.133,-0.078c-0.021,-0.015 -0.044,-0.029 -0.062,-0.047c-0.018,-0.018 -0.032,-0.041 -0.047,-0.062c-0.032,-0.042 -0.059,-0.084 -0.078,-0.133c-0.002,-0.004 -0.006,-0.007 -0.007,-0.011c-0.004,-0.011 -0.002,-0.022 -0.005,-0.034c-0.014,-0.05 -0.024,-0.101 -0.023,-0.154c0,-0.056 0.011,-0.107 0.025,-0.159c0.002,-0.004 0,-0.008 0.002,-0.012l0.003,-0.007c0.011,-0.035 0.022,-0.068 0.039,-0.1l2.119,-5.397c0.05,-0.13 0.148,-0.227 0.266,-0.288l15.306,-15.288c-0.146,-0.46 -0.571,-0.795 -1.079,-0.795c-0.336,0 -0.635,0.148 -0.843,0.379l-0.001,-0.001l-1.792,1.79l0.002,0.002l-3.77,3.765c-0.21,0.21 -0.55,0.21 -0.761,0c-0.21,-0.21 -0.21,-0.551 0,-0.761l5.54,-5.533c0.009,-0.01 0.021,-0.012 0.031,-0.021c0.402,-0.421 0.965,-0.687 1.594,-0.687c0.8,0 1.488,0.431 1.872,1.069l1.386,-1.384c0.019,-0.026 0.03,-0.056 0.053,-0.079c0.108,-0.108 0.252,-0.158 0.394,-0.154c0.142,-0.004 0.285,0.046 0.394,0.154c0.023,0.023 0.034,0.053 0.052,0.079l0.381,0.38l1.483,-1.481c0.018,-0.026 0.029,-0.056 0.052,-0.079c0.109,-0.109 0.252,-0.159 0.394,-0.155c0.143,-0.004 0.286,0.046 0.395,0.155c0.023,0.023 0.034,0.053 0.052,0.079l1.523,1.521c0.026,0.018 0.055,0.029 0.079,0.052c0.106,0.109 0.157,0.252 0.153,0.393Zm-23.774,21.55l3.515,-1.378l-2.137,-2.134l-1.378,3.512Zm18.815,-21.34l-16.88,16.862l2.546,2.544l16.88,-16.862l-2.546,-2.544Zm2.756,-1.101l-1.168,1.167l0.893,0.891l1.168,-1.167l-0.893,-0.891Z" style="fill:#d3d3d3;"/></svg>