<?xml version="1.0" encoding="UTF-8" standalone="no"?><!DOCTYPE svg PUBLIC "-//W3C//DTD SVG 1.1//EN" "http://www.w3.org/Graphics/SVG/1.1/DTD/svg11.dtd"><svg width="100%" height="100%" viewBox="0 0 25 25" version="1.1" xmlns="http://www.w3.org/2000/svg" xmlns:xlink="http://www.w3.org/1999/xlink" xml:space="preserve" style="fill-rule:evenodd;clip-rule:evenodd;stroke-linejoin:round;stroke-miterlimit:1.41421;"><path d="M5.92,12.4c0,-1.368 1.112,-2.48 2.48,-2.48l3.2,0l0,-1.52l-3.2,0c-2.208,0 -4,1.792 -4,4c0,2.208 1.792,4 4,4l3.2,0l0,-1.52l-3.2,0c-1.368,0 -2.48,-1.112 -2.48,-2.48Zm3.28,0.8l6.4,0l0,-1.6l-6.4,0l0,1.6Zm7.2,-4.8l-3.2,0l0,1.52l3.2,0c1.368,0 2.48,1.112 2.48,2.48c0,1.368 -1.112,2.48 -2.48,2.48l-3.2,0l0,1.52l3.2,0c2.208,0 4,-1.792 4,-4c0,-2.208 -1.792,-4 -4,-4Z" style="fill-rule:nonzero;"/></svg>