<?xml version="1.0" encoding="UTF-8" standalone="no"?><!DOCTYPE svg PUBLIC "-//W3C//DTD SVG 1.1//EN" "http://www.w3.org/Graphics/SVG/1.1/DTD/svg11.dtd"><svg width="100%" height="100%" viewBox="0 0 25 25" version="1.1" xmlns="http://www.w3.org/2000/svg" xmlns:xlink="http://www.w3.org/1999/xlink" xml:space="preserve" style="fill-rule:evenodd;clip-rule:evenodd;stroke-linejoin:round;stroke-miterlimit:1.41421;"><g></g><rect x="-196" y="-181" width="400" height="1430" style="fill:none;"/><clipPath id="_clip1"><polygon points="4.729,0.911 24.089,4.729 20.271,24.089 0.911,20.271 4.729,0.911 "/></clipPath><g clip-path="url(#_clip1)"><path d="M4.729,0.911l19.36,3.818l-3.818,19.36l-19.36,-3.818l3.818,-19.36Z" style="fill:none;"/><path d="M18.338,14.473c0.083,-0.252 0.158,-0.505 0.212,-0.78c0.054,-0.274 0.081,-0.537 0.1,-0.801l1.964,-0.996c0.177,-0.091 0.261,-0.3 0.199,-0.497l-1.063,-3.109c-0.062,-0.197 -0.267,-0.304 -0.457,-0.275l-2.168,0.411c-0.356,-0.406 -0.755,-0.761 -1.207,-1.06l0.115,-2.198c0.014,-0.198 -0.127,-0.377 -0.329,-0.417l-3.226,-0.636c-0.202,-0.04 -0.4,0.072 -0.462,0.261l-0.729,2.077c-0.531,0.105 -1.037,0.29 -1.519,0.522l-1.849,-1.203c-0.172,-0.109 -0.396,-0.078 -0.527,0.08l-2.164,2.473c-0.14,0.157 -0.135,0.384 -0.005,0.536l1.439,1.666c-0.083,0.252 -0.16,0.514 -0.212,0.78c-0.053,0.266 -0.081,0.537 -0.1,0.801l-1.964,0.996c-0.177,0.091 -0.261,0.3 -0.199,0.497l1.063,3.109c0.062,0.197 0.267,0.304 0.457,0.275l2.168,-0.411c0.356,0.406 0.755,0.761 1.207,1.06l-0.115,2.198c-0.014,0.198 0.127,0.377 0.329,0.417l3.226,0.636c0.202,0.04 0.4,-0.072 0.462,-0.261l0.729,-2.077c0.531,-0.105 1.037,-0.29 1.519,-0.522l1.849,1.203c0.172,0.109 0.396,0.078 0.527,-0.08l2.164,-2.473c0.132,-0.159 0.135,-0.384 0.005,-0.536l-1.439,-1.666l0,0Zm-6.395,0.85c-1.557,-0.307 -2.573,-1.823 -2.266,-3.38c0.307,-1.557 1.823,-2.573 3.38,-2.266c1.557,0.307 2.573,1.823 2.266,3.38c-0.307,1.557 -1.823,2.573 -3.38,2.266Z" style="fill:none;stroke:#000;stroke-width:0.82px;"/></g></svg>