<?xml version="1.0" encoding="UTF-8" standalone="no"?><!DOCTYPE svg PUBLIC "-//W3C//DTD SVG 1.1//EN" "http://www.w3.org/Graphics/SVG/1.1/DTD/svg11.dtd"><svg width="100%" height="100%" viewBox="0 0 25 25" version="1.1" xmlns="http://www.w3.org/2000/svg" xmlns:xlink="http://www.w3.org/1999/xlink" xml:space="preserve" style="fill-rule:evenodd;clip-rule:evenodd;stroke-linejoin:round;stroke-miterlimit:1.41421;"><g></g><rect x="-196" y="-206" width="400" height="1430" style="fill:none;"/><path d="M5.668,11.21c-0.23,0.123 -0.45,0.261 -0.661,0.412l0.007,-5.203c0,-0.331 -0.01,-0.663 0.003,-0.994c0.01,-0.163 0.042,-0.321 0.102,-0.473c0.156,-0.394 0.481,-0.711 0.88,-0.857c0.141,-0.052 0.288,-0.08 0.438,-0.089c0.316,-0.012 0.652,-0.002 0.953,-0.002c1.767,0 3.534,0 5.301,0c0.33,0 0.66,-0.007 0.989,0.001c0.049,0.004 0.049,0.004 0.098,0.01c0.097,0.017 0.19,0.043 0.279,0.085c0.253,0.119 0.448,0.345 0.529,0.612c0.019,0.063 0.032,0.127 0.039,0.192c0.006,0.067 0.005,0.135 0.01,0.202c0.006,0.05 0.006,0.049 0.015,0.099c0.018,0.08 0.042,0.158 0.078,0.232c0.112,0.233 0.315,0.417 0.557,0.506c0.095,0.034 0.192,0.051 0.293,0.059c0.265,0.007 0.531,0.001 0.797,0.001c1.133,0 2.266,0 3.398,0c0.256,0 0.533,-0.008 0.798,0.002c0.171,0.011 0.34,0.046 0.499,0.112c0.376,0.156 0.678,0.466 0.825,0.846c0.058,0.15 0.089,0.306 0.099,0.466c0.009,0.243 0.002,0.495 0.002,0.732c0,2.13 0,4.261 0,6.392c0,0.34 0.011,0.681 -0.002,1.022c-0.011,0.172 -0.046,0.34 -0.112,0.499c-0.156,0.377 -0.466,0.679 -0.846,0.825c-0.149,0.058 -0.306,0.089 -0.466,0.099c-0.301,0.011 -0.62,0.002 -0.908,0.002l-5.183,0l0.002,-0.015c-0.008,0.093 -0.017,0.186 -0.029,0.279c-0.078,0.612 -0.252,1.211 -0.513,1.77c-0.306,0.655 -0.731,1.253 -1.248,1.758c-0.535,0.523 -1.168,0.945 -1.856,1.236c-0.713,0.302 -1.484,0.462 -2.258,0.472c-0.776,0.009 -1.553,-0.131 -2.276,-0.416c-0.697,-0.275 -1.339,-0.682 -1.887,-1.192c-0.529,-0.492 -0.968,-1.08 -1.29,-1.726c-0.274,-0.551 -0.462,-1.144 -0.555,-1.753c-0.096,-0.629 -0.092,-1.273 0.012,-1.901c0.093,-0.558 0.265,-1.102 0.511,-1.612c0.55,-1.14 1.462,-2.091 2.576,-2.69Zm2.767,0.29c-0.707,0.014 -1.404,0.167 -2.046,0.467c-0.564,0.263 -1.078,0.633 -1.508,1.084c-0.402,0.422 -0.73,0.914 -0.964,1.448c-0.207,0.473 -0.338,0.977 -0.391,1.491c-0.055,0.525 -0.024,1.062 0.088,1.578c0.1,0.458 0.265,0.902 0.489,1.313c0.539,0.992 1.414,1.786 2.453,2.226c0.593,0.252 1.235,0.384 1.879,0.393c0.648,0.008 1.295,-0.109 1.897,-0.347c0.58,-0.229 1.116,-0.568 1.573,-0.993c0.441,-0.411 0.807,-0.9 1.076,-1.44c0.218,-0.439 0.371,-0.912 0.451,-1.396c0.091,-0.544 0.091,-1.104 0,-1.648c-0.077,-0.464 -0.22,-0.918 -0.424,-1.342c-0.482,-0.997 -1.296,-1.821 -2.288,-2.315c-0.632,-0.314 -1.322,-0.484 -2.026,-0.515c-0.086,-0.003 -0.172,-0.004 -0.259,-0.004Zm6.05,5.426l-0.001,0.017l0,-0.005l0.001,-0.012Zm0.004,-0.058l-0.001,0.012l0,-0.004l0.001,-0.008Zm0.003,-0.059l0,0.007l0,-0.002l0,-0.005Zm0.003,-0.059l0,0.002l0,-0.001l0,-0.001Zm0.002,-0.441l0,0.003l0,-0.001l0,-0.002Zm-0.002,-0.066l0,0.008l0,-0.003l0,-0.005Zm-0.004,-0.065l0.001,0.013l0,-0.006l-0.001,-0.007Zm-0.003,-0.065l0.001,0.017l-0.001,-0.007l0,-0.01Zm-0.005,-0.065l0.002,0.022l-0.001,-0.01l-0.001,-0.012Zm6.511,-7.046l-14.984,0l-0.002,1.62l0,0.419l-0.023,0.011c0.462,-0.214 0.952,-0.369 1.453,-0.458c0.275,-0.049 0.552,-0.077 0.83,-0.09c0.103,-0.003 0.206,-0.004 0.309,-0.004c0.28,0.006 0.559,0.027 0.836,0.069c0.56,0.086 1.108,0.252 1.621,0.492c1.16,0.541 2.131,1.456 2.741,2.58c0.281,0.517 0.485,1.074 0.603,1.65c0.049,0.237 0.083,0.477 0.102,0.719l-0.001,-0.012l6.065,0c0,0 0.097,-0.016 0.143,-0.035c0.17,-0.071 0.286,-0.231 0.307,-0.413l0,-6.548Zm-15.273,2.18c-0.018,0.009 -0.035,0.018 -0.052,0.028l0.052,-0.028Zm0.025,-0.013l-0.017,0.009l0.044,-0.023l-0.027,0.014Zm0.065,-0.033l-0.025,0.013l0.039,-0.02l-0.014,0.007Zm0.066,-0.033c-0.012,0.006 -0.024,0.012 -0.036,0.018l0.036,-0.018Zm0.032,-0.015l-0.015,0.007l0.025,-0.012l-0.01,0.005Zm0.066,-0.032c-0.013,0.006 -0.026,0.012 -0.039,0.019l0.039,-0.019Zm15.019,-3.043l0,-0.559c-0.006,-0.053 -0.019,-0.105 -0.041,-0.154c-0.075,-0.168 -0.238,-0.28 -0.42,-0.296c-1.636,-0.103 -3.278,-0.001 -4.916,-0.001c-0.297,-0.007 -0.586,-0.068 -0.855,-0.197c-0.231,-0.111 -0.44,-0.268 -0.613,-0.458c-0.329,-0.362 -0.519,-0.844 -0.519,-1.334l-0.001,-0.01c-2.369,-0.061 -4.739,0 -7.109,0c-0.065,0 -0.128,0.01 -0.189,0.034c-0.186,0.073 -0.309,0.254 -0.316,0.451c-0.005,0.311 -0.001,0.621 -0.002,0.931l-0.002,1.593l14.983,0Z"/><path d="M5.972,15.85l2,0l0,-2l1,0l0,2l2,0l0,1l-2,0l0,2l-1,0l0,-2l-2,0l0,-1Z"/></svg>