<?xml version="1.0" encoding="UTF-8" standalone="no"?><!DOCTYPE svg PUBLIC "-//W3C//DTD SVG 1.1//EN" "http://www.w3.org/Graphics/SVG/1.1/DTD/svg11.dtd"><svg width="100%" height="100%" viewBox="0 0 25 25" version="1.1" xmlns="http://www.w3.org/2000/svg" xmlns:xlink="http://www.w3.org/1999/xlink" xml:space="preserve" style="fill-rule:evenodd;clip-rule:evenodd;stroke-linejoin:round;stroke-miterlimit:1.41421;"><g></g><rect x="-196" y="-231" width="400" height="1430" style="fill:none;"/><path d="M12.595,7.06c0.064,0.007 0.08,0.007 0.143,0.021c0.118,0.026 0.231,0.073 0.332,0.139c0.061,0.041 0.114,0.088 0.167,0.138l6.74,6.885c0.1,0.11 0.18,0.229 0.229,0.369c0.14,0.4 0.006,0.856 -0.327,1.117c-0.076,0.06 -0.162,0.109 -0.252,0.145c-0.114,0.044 -0.235,0.068 -0.357,0.068c-0.195,0.002 -0.389,-0.055 -0.553,-0.161c-0.062,-0.041 -0.116,-0.088 -0.169,-0.139l-6.025,-6.155l-6.025,6.155l-0.053,0.05c-0.115,0.094 -0.238,0.168 -0.381,0.21c-0.406,0.119 -0.855,-0.038 -1.099,-0.384c-0.056,-0.08 -0.1,-0.167 -0.131,-0.26c-0.038,-0.115 -0.055,-0.238 -0.05,-0.36c0.008,-0.17 0.059,-0.338 0.149,-0.483c0.039,-0.063 0.086,-0.117 0.135,-0.172l6.74,-6.885c0.053,-0.05 0.106,-0.097 0.167,-0.138c0.101,-0.066 0.214,-0.113 0.332,-0.139c0.063,-0.014 0.079,-0.014 0.143,-0.021c0.073,-0.003 0.073,-0.002 0.145,0Z" style="fill-rule:nonzero;"/></svg>