<?xml version="1.0" encoding="UTF-8" standalone="no"?><!DOCTYPE svg PUBLIC "-//W3C//DTD SVG 1.1//EN" "http://www.w3.org/Graphics/SVG/1.1/DTD/svg11.dtd"><svg width="100%" height="100%" viewBox="0 0 25 25" version="1.1" xmlns="http://www.w3.org/2000/svg" xmlns:xlink="http://www.w3.org/1999/xlink" xml:space="preserve" style="fill-rule:evenodd;clip-rule:evenodd;stroke-linejoin:round;stroke-miterlimit:1.41421;"><g></g><rect x="-196" y="-381" width="400" height="1430" style="fill:none;"/><path d="M16.21,11.642c0,1.309 -0.296,2.354 -0.889,3.132c-0.593,0.779 -1.409,1.168 -2.449,1.168c-0.615,0 -1.152,-0.115 -1.613,-0.347c-0.461,-0.232 -0.836,-0.563 -1.127,-0.994l0,4.534l-0.971,0l0,-12.109l0.744,0l0.186,1.374c0.291,-0.49 0.667,-0.869 1.128,-1.135c0.461,-0.267 1.006,-0.4 1.637,-0.4c1.051,0 1.872,0.419 2.465,1.257c0.593,0.838 0.889,1.954 0.889,3.35l0,0.17Zm-0.97,-0.17c0,-1.11 -0.221,-2.015 -0.663,-2.716c-0.441,-0.7 -1.088,-1.051 -1.94,-1.051c-0.652,0 -1.181,0.155 -1.588,0.465c-0.407,0.31 -0.713,0.713 -0.917,1.209l0,4.203c0.22,0.48 0.54,0.857 0.957,1.132c0.418,0.275 0.939,0.412 1.565,0.412c0.846,0 1.488,-0.318 1.928,-0.954c0.439,-0.636 0.658,-1.479 0.658,-2.53l0,-0.17Z" style="fill-rule:nonzero;"/></svg>