<?xml version="1.0" encoding="UTF-8" standalone="no"?><!DOCTYPE svg PUBLIC "-//W3C//DTD SVG 1.1//EN" "http://www.w3.org/Graphics/SVG/1.1/DTD/svg11.dtd"><svg width="100%" height="100%" viewBox="0 0 20 20" version="1.1" xmlns="http://www.w3.org/2000/svg" xmlns:xlink="http://www.w3.org/1999/xlink" xml:space="preserve" style="fill-rule:evenodd;clip-rule:evenodd;stroke-linejoin:round;stroke-miterlimit:1.41421;"><g></g><rect x="-117" y="-156" width="400" height="1430" style="fill:none;"/><path d="M3.39,2.998c1.767,0 3.534,0 5.301,0c0.33,0 0.66,-0.006 0.989,0.002c0.049,0.003 0.049,0.003 0.098,0.009c0.097,0.017 0.19,0.043 0.279,0.085c0.253,0.12 0.448,0.345 0.529,0.613c0.019,0.062 0.032,0.127 0.039,0.191c0.006,0.068 0.005,0.135 0.01,0.202c0.006,0.05 0.006,0.05 0.015,0.1c0.018,0.08 0.042,0.157 0.078,0.232c0.112,0.232 0.315,0.416 0.557,0.505c0.095,0.035 0.192,0.052 0.293,0.06c0.265,0.006 0.531,0.001 0.797,0.001c1.133,0 2.266,0 3.398,0c0.256,0 0.533,-0.008 0.798,0.002c0.171,0.01 0.34,0.046 0.499,0.112c0.376,0.156 0.678,0.465 0.825,0.846c0.058,0.149 0.089,0.305 0.099,0.465c0.009,0.243 0.002,0.496 0.002,0.732c0,2.131 0,4.262 0,6.392c0,0.341 0.011,0.682 -0.002,1.022c-0.011,0.172 -0.046,0.34 -0.112,0.5c-0.156,0.376 -0.466,0.678 -0.846,0.825c-0.149,0.058 -0.306,0.089 -0.466,0.099c-0.301,0.011 -0.62,0.002 -0.908,0.002c-4.005,0 -8.011,0 -12.016,0c-0.406,0 -0.812,0.013 -1.218,-0.002c-0.172,-0.011 -0.341,-0.047 -0.5,-0.113c-0.377,-0.156 -0.679,-0.466 -0.825,-0.846c-0.058,-0.15 -0.089,-0.307 -0.099,-0.466c-0.009,-0.251 -0.001,-0.513 -0.001,-0.756l0.011,-8.398c0,-0.332 -0.01,-0.664 0.003,-0.995c0.01,-0.162 0.042,-0.321 0.102,-0.472c0.156,-0.395 0.481,-0.712 0.88,-0.858c0.141,-0.051 0.288,-0.079 0.438,-0.089c0.316,-0.012 0.652,-0.002 0.953,-0.002Zm13.604,4.999l-14.984,0l-0.002,1.619c-0.001,1.399 -0.003,2.798 -0.005,4.197c0,0.144 -0.019,0.494 0.002,0.729c0.006,0.054 0.018,0.106 0.04,0.156c0.074,0.168 0.238,0.28 0.42,0.295l14.079,0c0,0 0.097,-0.017 0.143,-0.036c0.17,-0.071 0.286,-0.23 0.307,-0.413l0,-6.547Zm0,-0.989l0,-0.559c-0.006,-0.054 -0.019,-0.105 -0.041,-0.154c-0.075,-0.169 -0.238,-0.28 -0.42,-0.296c-1.636,-0.103 -3.278,-0.001 -4.916,-0.001c-0.297,-0.008 -0.586,-0.068 -0.855,-0.197c-0.231,-0.112 -0.44,-0.268 -0.613,-0.458c-0.329,-0.362 -0.519,-0.844 -0.519,-1.334l-0.001,-0.01c-2.369,-0.062 -4.739,-0.001 -7.109,-0.001c-0.065,0.001 -0.128,0.011 -0.189,0.035c-0.186,0.072 -0.309,0.253 -0.316,0.451c-0.005,0.31 -0.001,0.621 -0.002,0.931l-0.002,1.593l14.983,0Z"/></svg>