<?xml version="1.0" encoding="UTF-8" standalone="no"?><!DOCTYPE svg PUBLIC "-//W3C//DTD SVG 1.1//EN" "http://www.w3.org/Graphics/SVG/1.1/DTD/svg11.dtd"><svg width="100%" height="100%" viewBox="0 0 20 18" version="1.1" xmlns="http://www.w3.org/2000/svg" xmlns:xlink="http://www.w3.org/1999/xlink" xml:space="preserve" style="fill-rule:evenodd;clip-rule:evenodd;stroke-linejoin:round;stroke-miterlimit:1.41421;"><g></g><rect x="-117" y="-157" width="400" height="1430" style="fill:none;"/><path d="M3.39,1.998c1.767,0 3.534,0 5.301,0c0.33,0 0.66,-0.006 0.989,0.002c0.049,0.003 0.049,0.003 0.098,0.009c0.097,0.017 0.19,0.043 0.279,0.085c0.253,0.12 0.448,0.345 0.529,0.613c0.019,0.062 0.032,0.127 0.039,0.191c0.006,0.068 0.005,0.135 0.01,0.202c0.006,0.05 0.006,0.05 0.015,0.1c0.018,0.08 0.042,0.157 0.078,0.232c0.112,0.232 0.315,0.416 0.557,0.505c0.095,0.035 0.192,0.052 0.293,0.06c0.265,0.006 0.531,0.001 0.797,0.001c1.133,0 2.266,0 3.398,0c0.256,0 0.533,-0.008 0.798,0.002c0.171,0.01 0.34,0.046 0.499,0.112c0.376,0.156 0.678,0.465 0.825,0.846c0.058,0.149 0.089,0.305 0.099,0.465c0.009,0.243 0.002,0.496 0.002,0.732c0,2.131 0,4.262 0,6.392c0,0.341 0.011,0.682 -0.002,1.022c-0.011,0.172 -0.046,0.34 -0.112,0.5c-0.156,0.376 -0.466,0.678 -0.846,0.825c-0.149,0.058 -0.306,0.089 -0.466,0.099c-0.301,0.011 -0.62,0.002 -0.908,0.002c-4.005,0 -8.011,0 -12.016,0c-0.406,0 -0.812,0.013 -1.218,-0.002c-0.172,-0.011 -0.341,-0.047 -0.5,-0.113c-0.377,-0.156 -0.679,-0.466 -0.825,-0.846c-0.058,-0.15 -0.089,-0.307 -0.099,-0.466c-0.009,-0.251 -0.001,-0.513 -0.001,-0.756l0.011,-8.398c0,-0.332 -0.01,-0.664 0.003,-0.995c0.01,-0.162 0.042,-0.321 0.102,-0.472c0.156,-0.395 0.481,-0.712 0.88,-0.858c0.141,-0.051 0.288,-0.079 0.438,-0.089c0.316,-0.012 0.652,-0.002 0.953,-0.002Zm13.604,4.999l-14.984,0l-0.002,1.619c-0.001,1.399 -0.003,2.798 -0.005,4.197c0,0.144 -0.019,0.494 0.002,0.729c0.006,0.054 0.018,0.106 0.04,0.156c0.074,0.168 0.238,0.28 0.42,0.295l14.079,0c0,0 0.097,-0.017 0.143,-0.036c0.17,-0.071 0.286,-0.23 0.307,-0.413l0,-6.547Zm0,-0.989l0,-0.559c-0.006,-0.054 -0.019,-0.105 -0.041,-0.154c-0.075,-0.169 -0.238,-0.28 -0.42,-0.296c-1.636,-0.103 -3.278,-0.001 -4.916,-0.001c-0.297,-0.008 -0.586,-0.068 -0.855,-0.197c-0.231,-0.112 -0.44,-0.268 -0.613,-0.458c-0.329,-0.362 -0.519,-0.844 -0.519,-1.334l-0.001,-0.01c-2.369,-0.062 -4.739,-0.001 -7.109,-0.001c-0.065,0.001 -0.128,0.011 -0.189,0.035c-0.186,0.072 -0.309,0.253 -0.316,0.451c-0.005,0.31 -0.001,0.621 -0.002,0.931l-0.002,1.593l14.983,0Z"/><g><g><path d="M22.119,15c-0.618,0 -1.119,-0.501 -1.119,-1.119c0,-2.45 0,-8.265 0,-10.737c0,-0.632 0.512,-1.144 1.144,-1.144c1.64,0 4.597,0 5.816,0c0.335,0 0.642,0.19 0.791,0.491c0.154,0.31 0.352,0.708 0.505,1.018c0.15,0.301 0.456,0.491 0.792,0.491c1.798,0 7.402,0 7.402,0c0.304,0 0.55,0.238 0.55,0.532c0,1.515 0,6.972 0,9.349c0,0.618 -0.501,1.119 -1.119,1.119c-3.084,0 -11.678,0 -14.762,0Z" style="fill:#94dcff;"/><path d="M27.96,2l0.031,0.001l0.031,0.001l0.031,0.003l0.031,0.004l0.03,0.005l0.031,0.006l0.029,0.006l0.03,0.008l0.029,0.009l0.029,0.01l0.028,0.011l0.028,0.012l0.028,0.013l0.027,0.014l0.026,0.014l0.026,0.016l0.026,0.016l0.025,0.017l0.024,0.018l0.024,0.019l0.023,0.02l0.022,0.021l0.022,0.021l0.021,0.022l0.02,0.023l0.019,0.024l0.019,0.024l0.018,0.025l0.017,0.026l0.016,0.027l0.016,0.027l0.014,0.028l0.505,1.018l0.015,0.028l0.015,0.027l0.016,0.027l0.018,0.026l0.017,0.025l0.019,0.024l0.02,0.024l0.02,0.023l0.021,0.022l0.022,0.021l0.022,0.021l0.023,0.02l0.024,0.019l0.024,0.018l0.025,0.017l0.025,0.016l0.026,0.016l0.027,0.014l0.027,0.014l0.027,0.013l0.028,0.012l0.029,0.011l0.028,0.01l0.03,0.009l0.029,0.008l0.03,0.006l0.03,0.006l0.031,0.005l0.03,0.004l0.031,0.003l0.032,0.001l0.031,0.001l7.402,0l0.029,0.001l0.027,0.002l0.028,0.003l0.027,0.005l0.027,0.006l0.026,0.007l0.025,0.008l0.025,0.01l0.025,0.01l0.023,0.012l0.023,0.013l0.023,0.014l0.021,0.015l0.021,0.016l0.02,0.016l0.019,0.018l0.018,0.018l0.017,0.02l0.017,0.02l0.015,0.021l0.014,0.021l0.014,0.023l0.012,0.023l0.011,0.023l0.01,0.024l0.008,0.025l0.008,0.025l0.006,0.026l0.005,0.026l0.003,0.027l0.002,0.027l0.001,0.027l0,9.349l-0.001,0.057l-0.005,0.057l-0.007,0.056l-0.01,0.055l-0.012,0.054l-0.015,0.054l-0.018,0.052l-0.02,0.05l-0.022,0.05l-0.025,0.048l-0.027,0.047l-0.029,0.045l-0.031,0.044l-0.034,0.043l-0.035,0.04l-0.037,0.039l-0.039,0.037l-0.04,0.035l-0.043,0.034l-0.044,0.031l-0.045,0.029l-0.047,0.027l-0.048,0.025l-0.05,0.022l-0.05,0.02l-0.052,0.018l-0.054,0.015l-0.054,0.012l-0.055,0.01l-0.056,0.007l-0.057,0.005l-0.057,0.001l-14.762,0l-0.057,-0.001l-0.057,-0.005l-0.056,-0.007l-0.055,-0.01l-0.054,-0.012l-0.054,-0.015l-0.052,-0.018l-0.05,-0.02l-0.05,-0.022l-0.048,-0.025l-0.047,-0.027l-0.045,-0.029l-0.044,-0.031l-0.043,-0.034l-0.04,-0.035l-0.039,-0.037l-0.037,-0.039l-0.035,-0.04l-0.034,-0.043l-0.031,-0.044l-0.029,-0.045l-0.027,-0.047l-0.025,-0.048l-0.022,-0.05l-0.02,-0.05l-0.018,-0.052l-0.015,-0.054l-0.012,-0.054l-0.01,-0.055l-0.007,-0.056l-0.005,-0.057l-0.001,-0.057l0,-10.737l0.001,-0.059l0.005,-0.058l0.007,-0.058l0.01,-0.056l0.013,-0.055l0.015,-0.054l0.018,-0.054l0.021,-0.052l0.023,-0.05l0.025,-0.049l0.028,-0.048l0.029,-0.047l0.032,-0.045l0.034,-0.043l0.036,-0.041l0.038,-0.04l0.04,-0.038l0.041,-0.036l0.043,-0.034l0.045,-0.032l0.047,-0.029l0.048,-0.028l0.049,-0.025l0.05,-0.023l0.052,-0.021l0.054,-0.018l0.054,-0.015l0.055,-0.013l0.056,-0.01l0.058,-0.007l0.058,-0.005l0.059,-0.001l5.816,0Zm-5.804,1l-0.021,0.001l-0.007,0l-0.007,0.001l-0.007,0.001l-0.007,0.002l-0.007,0.002l-0.005,0.002l-0.007,0.002l-0.006,0.003l-0.006,0.003l-0.005,0.003l-0.006,0.004l-0.007,0.005l-0.006,0.004l-0.004,0.004l-0.006,0.005l-0.004,0.005l-0.005,0.006l-0.005,0.006l-0.004,0.005l-0.004,0.007l-0.003,0.004l-0.003,0.006l-0.003,0.008l-0.002,0.005l-0.002,0.006l-0.002,0.008l-0.002,0.005l-0.001,0.006l-0.001,0.009l0,0.008l-0.001,0.02l0,10.712l0.001,0.02l0.001,0.012l0.002,0.011l0.003,0.011l0.004,0.009l0.007,0.012l0.005,0.007l0.008,0.011l0.009,0.008l0.009,0.008l0.009,0.006l0.011,0.006l0.009,0.004l0.011,0.003l0.011,0.002l0.006,0.001l0.006,0.001l0.02,0l14.736,0l0.02,0l0.006,-0.001l0.006,-0.001l0.006,-0.001l0.005,-0.001l0.005,-0.001l0.006,-0.002l0.005,-0.002l0.004,-0.002l0.006,-0.003l0.004,-0.003l0.005,-0.003l0.006,-0.004l0.004,-0.003l0.004,-0.004l0.004,-0.004l0.005,-0.005l0.004,-0.004l0.003,-0.004l0.004,-0.006l0.003,-0.005l0.003,-0.004l0.003,-0.006l0.002,-0.005l0.002,-0.004l0.002,-0.006l0.001,-0.005l0.001,-0.005l0.001,-0.006l0.001,-0.006l0.001,-0.006l0,-0.02l0,-8.868l-6.961,0l-0.058,-0.001l-0.066,-0.004l-0.066,-0.005l-0.066,-0.009l-0.064,-0.01l-0.066,-0.013l-0.063,-0.014l-0.062,-0.017l-0.063,-0.019l-0.061,-0.021l-0.061,-0.024l-0.06,-0.025l-0.058,-0.027l-0.058,-0.029l-0.057,-0.032l-0.055,-0.033l-0.054,-0.034l-0.054,-0.038l-0.05,-0.038l-0.051,-0.04l-0.051,-0.044l-0.047,-0.043l-0.045,-0.045l-0.045,-0.047l-0.043,-0.049l-0.042,-0.05l-0.04,-0.053l-0.037,-0.052l-0.037,-0.056l-0.036,-0.058l-0.032,-0.057l-0.026,-0.051l-0.477,-0.962l-5.732,0Z" style="fill:#28bbff;"/></g></g></svg>