<?xml version="1.0" encoding="UTF-8" standalone="no"?><!DOCTYPE svg PUBLIC "-//W3C//DTD SVG 1.1//EN" "http://www.w3.org/Graphics/SVG/1.1/DTD/svg11.dtd"><svg width="100%" height="100%" viewBox="0 0 20 18" version="1.1" xmlns="http://www.w3.org/2000/svg" xmlns:xlink="http://www.w3.org/1999/xlink" xml:space="preserve" style="fill-rule:evenodd;clip-rule:evenodd;stroke-linejoin:round;stroke-miterlimit:1.41421;"><g></g><rect x="-117" y="-237" width="400" height="1430" style="fill:none;"/><g><path d="M9.163,9.027c-1.36,-1.393 -2.711,-2.797 -4.088,-4.173c-0.058,-0.064 -0.103,-0.134 -0.127,-0.218c-0.059,-0.209 0.027,-0.438 0.21,-0.556c0.073,-0.047 0.153,-0.07 0.239,-0.079c0.043,-0.001 0.042,-0.001 0.085,0.002c0.103,0.015 0.187,0.051 0.269,0.115c1.448,1.33 2.843,2.714 4.222,4.116c1.393,-1.36 2.797,-2.711 4.174,-4.088c0.027,-0.025 0.034,-0.032 0.064,-0.054c0.072,-0.051 0.151,-0.076 0.236,-0.089c0.042,-0.003 0.042,-0.003 0.085,-0.002c0.071,0.008 0.139,0.023 0.203,0.057c0.191,0.102 0.297,0.324 0.256,0.537c-0.017,0.086 -0.056,0.159 -0.109,0.227c-1.329,1.448 -2.714,2.843 -4.116,4.222c1.36,1.393 2.711,2.797 4.088,4.174c0.088,0.095 0.143,0.21 0.146,0.342c0.001,0.057 -0.007,0.114 -0.025,0.168c-0.078,0.235 -0.326,0.381 -0.57,0.334c-0.086,-0.017 -0.159,-0.056 -0.227,-0.109c-1.448,-1.329 -2.843,-2.714 -4.222,-4.116c-1.393,1.36 -2.797,2.711 -4.173,4.088c-0.096,0.088 -0.211,0.143 -0.343,0.146c-0.249,0.005 -0.469,-0.18 -0.505,-0.426c-0.009,-0.056 -0.008,-0.113 0.003,-0.169c0.017,-0.086 0.056,-0.159 0.109,-0.227c1.33,-1.448 2.714,-2.843 4.116,-4.222Z"/></g></svg>