<?xml version="1.0" encoding="UTF-8" standalone="no"?><!DOCTYPE svg PUBLIC "-//W3C//DTD SVG 1.1//EN" "http://www.w3.org/Graphics/SVG/1.1/DTD/svg11.dtd"><svg width="100%" height="100%" viewBox="0 0 20 20" version="1.1" xmlns="http://www.w3.org/2000/svg" xmlns:xlink="http://www.w3.org/1999/xlink" xml:space="preserve" style="fill-rule:evenodd;clip-rule:evenodd;stroke-linejoin:round;stroke-miterlimit:1.41421;"><g></g><rect x="-137" y="-156" width="400" height="1430" style="fill:none;"/><g><path d="M2.119,16c-0.618,0 -1.119,-0.501 -1.119,-1.119c0,-2.45 0,-8.265 0,-10.737c0,-0.632 0.512,-1.144 1.144,-1.144c1.64,0 4.597,0 5.816,0c0.335,0 0.642,0.19 0.791,0.491c0.154,0.31 0.352,0.708 0.505,1.018c0.15,0.301 0.456,0.491 0.792,0.491c1.798,0 7.402,0 7.402,0c0.304,0 0.55,0.238 0.55,0.532c0,1.515 0,6.972 0,9.349c0,0.618 -0.501,1.119 -1.119,1.119c-3.084,0 -11.678,0 -14.762,0Z" style="fill:#94dcff;"/><path d="M7.96,3l0.031,0.001l0.031,0.001l0.031,0.003l0.031,0.004l0.03,0.005l0.031,0.006l0.029,0.006l0.03,0.008l0.029,0.009l0.029,0.01l0.028,0.011l0.028,0.012l0.028,0.013l0.027,0.014l0.026,0.014l0.026,0.016l0.026,0.016l0.025,0.017l0.024,0.018l0.024,0.019l0.023,0.02l0.022,0.021l0.022,0.021l0.021,0.022l0.02,0.023l0.019,0.024l0.019,0.024l0.018,0.025l0.017,0.026l0.016,0.027l0.016,0.027l0.014,0.028l0.505,1.018l0.015,0.028l0.015,0.027l0.016,0.027l0.018,0.026l0.017,0.025l0.019,0.024l0.02,0.024l0.02,0.023l0.021,0.022l0.022,0.021l0.022,0.021l0.023,0.02l0.024,0.019l0.024,0.018l0.025,0.017l0.025,0.016l0.026,0.016l0.027,0.014l0.027,0.014l0.027,0.013l0.028,0.012l0.029,0.011l0.028,0.01l0.03,0.009l0.029,0.008l0.03,0.006l0.03,0.006l0.031,0.005l0.03,0.004l0.031,0.003l0.032,0.001l0.031,0.001l7.402,0l0.029,0.001l0.027,0.002l0.028,0.003l0.027,0.005l0.027,0.006l0.026,0.007l0.025,0.008l0.025,0.01l0.025,0.01l0.023,0.012l0.023,0.013l0.023,0.014l0.021,0.015l0.021,0.016l0.02,0.016l0.019,0.018l0.018,0.018l0.017,0.02l0.017,0.02l0.015,0.021l0.014,0.021l0.014,0.023l0.012,0.023l0.011,0.023l0.01,0.024l0.008,0.025l0.008,0.025l0.006,0.026l0.005,0.026l0.003,0.027l0.002,0.027l0.001,0.027l0,9.349l-0.001,0.057l-0.005,0.057l-0.007,0.056l-0.01,0.055l-0.012,0.054l-0.015,0.054l-0.018,0.052l-0.02,0.05l-0.022,0.05l-0.025,0.048l-0.027,0.047l-0.029,0.045l-0.031,0.044l-0.034,0.043l-0.035,0.04l-0.037,0.039l-0.039,0.037l-0.04,0.035l-0.043,0.034l-0.044,0.031l-0.045,0.029l-0.047,0.027l-0.048,0.025l-0.05,0.022l-0.05,0.02l-0.052,0.018l-0.054,0.015l-0.054,0.012l-0.055,0.01l-0.056,0.007l-0.057,0.005l-0.057,0.001l-14.762,0l-0.057,-0.001l-0.057,-0.005l-0.056,-0.007l-0.055,-0.01l-0.054,-0.012l-0.054,-0.015l-0.052,-0.018l-0.05,-0.02l-0.05,-0.022l-0.048,-0.025l-0.047,-0.027l-0.045,-0.029l-0.044,-0.031l-0.043,-0.034l-0.04,-0.035l-0.039,-0.037l-0.037,-0.039l-0.035,-0.04l-0.034,-0.043l-0.031,-0.044l-0.029,-0.045l-0.027,-0.047l-0.025,-0.048l-0.022,-0.05l-0.02,-0.05l-0.018,-0.052l-0.015,-0.054l-0.012,-0.054l-0.01,-0.055l-0.007,-0.056l-0.005,-0.057l-0.001,-0.057l0,-10.737l0.001,-0.059l0.005,-0.058l0.007,-0.058l0.01,-0.056l0.013,-0.055l0.015,-0.054l0.018,-0.054l0.021,-0.052l0.023,-0.05l0.025,-0.049l0.028,-0.048l0.029,-0.047l0.032,-0.045l0.034,-0.043l0.036,-0.041l0.038,-0.04l0.04,-0.038l0.041,-0.036l0.043,-0.034l0.045,-0.032l0.047,-0.029l0.048,-0.028l0.049,-0.025l0.05,-0.023l0.052,-0.021l0.054,-0.018l0.054,-0.015l0.055,-0.013l0.056,-0.01l0.058,-0.007l0.058,-0.005l0.059,-0.001l5.816,0Zm-5.804,1l-0.021,0.001l-0.007,0l-0.007,0.001l-0.007,0.001l-0.007,0.002l-0.007,0.002l-0.005,0.002l-0.007,0.002l-0.006,0.003l-0.006,0.003l-0.005,0.003l-0.006,0.004l-0.007,0.005l-0.006,0.004l-0.004,0.004l-0.006,0.005l-0.004,0.005l-0.005,0.006l-0.005,0.006l-0.004,0.005l-0.004,0.007l-0.003,0.004l-0.003,0.006l-0.003,0.008l-0.002,0.005l-0.002,0.006l-0.002,0.008l-0.002,0.005l-0.001,0.006l-0.001,0.009l0,0.008l-0.001,0.02l0,10.712l0.001,0.02l0.001,0.012l0.002,0.011l0.003,0.011l0.004,0.009l0.007,0.012l0.005,0.007l0.008,0.011l0.009,0.008l0.009,0.008l0.009,0.006l0.011,0.006l0.009,0.004l0.011,0.003l0.011,0.002l0.006,0.001l0.006,0.001l0.02,0l14.736,0l0.02,0l0.006,-0.001l0.006,-0.001l0.006,-0.001l0.005,-0.001l0.005,-0.001l0.006,-0.002l0.005,-0.002l0.004,-0.002l0.006,-0.003l0.004,-0.003l0.005,-0.003l0.006,-0.004l0.004,-0.003l0.004,-0.004l0.004,-0.004l0.005,-0.005l0.004,-0.004l0.003,-0.004l0.004,-0.006l0.003,-0.005l0.003,-0.004l0.003,-0.006l0.002,-0.005l0.002,-0.004l0.002,-0.006l0.001,-0.005l0.001,-0.005l0.001,-0.006l0.001,-0.006l0.001,-0.006l0,-0.02l0,-8.868l-6.961,0l-0.058,-0.001l-0.066,-0.004l-0.066,-0.005l-0.066,-0.009l-0.064,-0.01l-0.066,-0.013l-0.063,-0.014l-0.062,-0.017l-0.063,-0.019l-0.061,-0.021l-0.061,-0.024l-0.06,-0.025l-0.058,-0.027l-0.058,-0.029l-0.057,-0.032l-0.055,-0.033l-0.054,-0.034l-0.054,-0.038l-0.05,-0.038l-0.051,-0.04l-0.051,-0.044l-0.047,-0.043l-0.045,-0.045l-0.045,-0.047l-0.043,-0.049l-0.042,-0.05l-0.04,-0.053l-0.037,-0.052l-0.037,-0.056l-0.036,-0.058l-0.032,-0.057l-0.026,-0.051l-0.477,-0.962l-5.732,0Z" style="fill:#28bbff;"/><rect x="2" y="7" width="15" height="8" style="fill:#69cbf8;"/><rect x="2" y="7" width="15" height="1" style="fill:#69cbf8;"/><rect x="2" y="7" width="15" height="1" style="fill:#28bbff;"/></g></svg>