<?xml version="1.0" encoding="UTF-8" standalone="no"?><!DOCTYPE svg PUBLIC "-//W3C//DTD SVG 1.1//EN" "http://www.w3.org/Graphics/SVG/1.1/DTD/svg11.dtd"><svg width="100%" height="100%" viewBox="0 0 20 18" version="1.1" xmlns="http://www.w3.org/2000/svg" xmlns:xlink="http://www.w3.org/1999/xlink" xml:space="preserve" style="fill-rule:evenodd;clip-rule:evenodd;stroke-linejoin:round;stroke-miterlimit:1.41421;"><g></g><rect x="-117" y="-257" width="400" height="1430" style="fill:none;"/><path id="Shape" d="M15.154,0.072l0.048,0.001l0.096,0.008l0.048,0.005l0.047,0.007l0.047,0.008l0.046,0.009l0.046,0.01l0.045,0.011l0.045,0.012l0.045,0.014l0.044,0.014l0.044,0.015l0.043,0.017l0.043,0.017l0.042,0.018l0.042,0.02l0.041,0.02l0.08,0.044l0.04,0.023l0.039,0.025l0.038,0.025l0.037,0.026l0.037,0.027l0.036,0.026l0.036,0.029l0.034,0.029l0.035,0.031l0.033,0.031l0.064,0.064l0.031,0.033l0.031,0.034l0.029,0.034l0.029,0.036l0.027,0.036l0.027,0.037l0.026,0.037l0.025,0.038l0.025,0.038l0.023,0.04l0.044,0.08l0.02,0.041l0.02,0.042l0.018,0.041l0.018,0.043l0.017,0.043l0.015,0.044l0.014,0.044l0.014,0.045l0.012,0.044l0.011,0.045l0.01,0.046l0.009,0.046l0.008,0.047l0.007,0.047l0.005,0.047l0.008,0.096l0.002,0.097l0,14.153l-0.001,0.049l-0.001,0.048l-0.004,0.048l-0.004,0.048l-0.005,0.048l-0.007,0.046l-0.008,0.047l-0.009,0.046l-0.01,0.046l-0.011,0.045l-0.012,0.044l-0.014,0.045l-0.014,0.044l-0.015,0.044l-0.017,0.043l-0.018,0.043l-0.018,0.041l-0.02,0.042l-0.02,0.041l-0.022,0.04l-0.022,0.04l-0.023,0.04l-0.025,0.038l-0.025,0.038l-0.026,0.037l-0.027,0.037l-0.027,0.036l-0.029,0.036l-0.029,0.034l-0.031,0.034l-0.031,0.033l-0.032,0.032l-0.032,0.032l-0.033,0.031l-0.035,0.031l-0.034,0.029l-0.036,0.029l-0.036,0.026l-0.037,0.027l-0.037,0.026l-0.038,0.025l-0.039,0.025l-0.04,0.023l-0.04,0.022l-0.04,0.022l-0.041,0.02l-0.042,0.02l-0.042,0.018l-0.043,0.018l-0.043,0.016l-0.044,0.015l-0.044,0.014l-0.045,0.014l-0.045,0.012l-0.045,0.011l-0.046,0.01l-0.046,0.009l-0.047,0.008l-0.047,0.007l-0.048,0.005l-0.048,0.004l-0.048,0.004l-0.048,0.001l-0.049,0.001l-11.21,0l-0.049,-0.001l-0.048,-0.001l-0.048,-0.004l-0.048,-0.004l-0.048,-0.005l-0.047,-0.007l-0.047,-0.008l-0.046,-0.009l-0.046,-0.01l-0.045,-0.011l-0.045,-0.012l-0.045,-0.014l-0.044,-0.014l-0.044,-0.015l-0.043,-0.016l-0.043,-0.018l-0.042,-0.018l-0.042,-0.02l-0.041,-0.02l-0.04,-0.022l-0.04,-0.022l-0.04,-0.023l-0.039,-0.025l-0.038,-0.025l-0.037,-0.026l-0.037,-0.027l-0.036,-0.026l-0.036,-0.029l-0.034,-0.029l-0.035,-0.031l-0.033,-0.031l-0.032,-0.032l-0.032,-0.032l-0.031,-0.033l-0.031,-0.034l-0.029,-0.034l-0.029,-0.036l-0.027,-0.036l-0.027,-0.037l-0.026,-0.037l-0.025,-0.038l-0.025,-0.038l-0.023,-0.04l-0.022,-0.04l-0.022,-0.04l-0.02,-0.041l-0.02,-0.042l-0.018,-0.041l-0.018,-0.043l-0.017,-0.043l-0.015,-0.044l-0.014,-0.044l-0.014,-0.045l-0.012,-0.044l-0.011,-0.045l-0.01,-0.046l-0.009,-0.046l-0.008,-0.047l-0.007,-0.046l-0.005,-0.048l-0.004,-0.048l-0.004,-0.048l-0.001,-0.048l-0.001,-0.049l0,-12.057l4,-3.984l9.105,0l0.049,0.001Zm-8.74,0.995l-3.414,3.401l0,11.667l0.001,0.023l0.002,0.023l0.002,0.022l0.002,0.023l0.003,0.022l0.004,0.022l0.004,0.021l0.005,0.022l0.005,0.021l0.012,0.041l0.007,0.02l0.007,0.021l0.016,0.04l0.009,0.02l0.009,0.019l0.009,0.02l0.011,0.019l0.01,0.019l0.011,0.018l0.012,0.019l0.024,0.035l0.013,0.017l0.013,0.018l0.014,0.017l0.014,0.016l0.029,0.033l0.016,0.015l0.015,0.015l0.016,0.015l0.017,0.015l0.016,0.014l0.017,0.014l0.017,0.013l0.018,0.013l0.054,0.035l0.019,0.011l0.019,0.01l0.019,0.011l0.019,0.009l0.04,0.018l0.04,0.016l0.021,0.007l0.02,0.007l0.042,0.012l0.021,0.005l0.022,0.005l0.021,0.004l0.022,0.004l0.022,0.003l0.068,0.006l0.023,0.001l11.256,0l0.023,-0.001l0.023,-0.002l0.022,-0.002l0.023,-0.002l0.022,-0.003l0.022,-0.004l0.021,-0.004l0.022,-0.005l0.021,-0.005l0.021,-0.006l0.021,-0.006l0.02,-0.007l0.021,-0.007l0.02,-0.008l0.02,-0.008l0.02,-0.009l0.02,-0.009l0.019,-0.009l0.019,-0.011l0.019,-0.01l0.019,-0.011l0.018,-0.011l0.018,-0.012l0.018,-0.012l0.018,-0.013l0.017,-0.013l0.017,-0.014l0.016,-0.014l0.017,-0.015l0.016,-0.015l0.015,-0.015l0.016,-0.015l0.014,-0.016l0.015,-0.017l0.014,-0.016l0.014,-0.017l0.013,-0.018l0.013,-0.017l0.012,-0.017l0.012,-0.018l0.012,-0.019l0.011,-0.018l0.01,-0.019l0.011,-0.019l0.009,-0.02l0.009,-0.019l0.009,-0.02l0.008,-0.02l0.008,-0.02l0.007,-0.021l0.007,-0.02l0.006,-0.02l0.006,-0.021l0.005,-0.021l0.005,-0.022l0.004,-0.022l0.004,-0.021l0.003,-0.022l0.002,-0.023l0.002,-0.022l0.002,-0.023l0.001,-0.023l0,-0.028l0,-14.142l0,-0.029l-0.001,-0.023l-0.002,-0.023l-0.002,-0.022l-0.002,-0.023l-0.003,-0.022l-0.004,-0.021l-0.004,-0.022l-0.005,-0.022l-0.005,-0.021l-0.006,-0.02l-0.006,-0.021l-0.007,-0.02l-0.007,-0.021l-0.008,-0.02l-0.008,-0.02l-0.009,-0.02l-0.009,-0.019l-0.01,-0.02l-0.01,-0.019l-0.01,-0.019l-0.011,-0.018l-0.012,-0.019l-0.012,-0.017l-0.012,-0.018l-0.013,-0.017l-0.013,-0.018l-0.014,-0.017l-0.014,-0.016l-0.015,-0.017l-0.014,-0.016l-0.016,-0.015l-0.015,-0.016l-0.016,-0.014l-0.017,-0.015l-0.016,-0.014l-0.017,-0.014l-0.017,-0.013l-0.018,-0.013l-0.018,-0.011l-0.018,-0.012l-0.018,-0.012l-0.019,-0.011l-0.019,-0.01l-0.019,-0.01l-0.02,-0.01l-0.019,-0.009l-0.02,-0.009l-0.02,-0.008l-0.02,-0.008l-0.021,-0.007l-0.02,-0.007l-0.021,-0.006l-0.021,-0.006l-0.022,-0.005l-0.021,-0.005l-0.022,-0.004l-0.021,-0.004l-0.022,-0.003l-0.023,-0.002l-0.022,-0.002l-0.023,-0.002l-0.023,-0.001l-0.029,0l-8.685,0l0,0Z"/><rect x="8" y="2.071" width="1" height="3"/><rect x="10" y="2.071" width="1" height="3"/><rect x="12" y="2.071" width="1" height="3"/><rect x="14" y="2.071" width="1" height="3"/></svg>