<?xml version="1.0" encoding="UTF-8" standalone="no"?><!DOCTYPE svg PUBLIC "-//W3C//DTD SVG 1.1//EN" "http://www.w3.org/Graphics/SVG/1.1/DTD/svg11.dtd"><svg width="100%" height="100%" viewBox="0 0 20 20" version="1.1" xmlns="http://www.w3.org/2000/svg" xmlns:xlink="http://www.w3.org/1999/xlink" xml:space="preserve" style="fill-rule:evenodd;clip-rule:evenodd;stroke-linejoin:round;stroke-miterlimit:1.41421;"><g></g><rect x="-117" y="-336" width="400" height="1430" style="fill:none;"/><g><path d="M3.023,3.07c4.383,0 8.767,0 13.15,0c0.183,0 0.375,-0.005 0.561,0.002c0.045,0.003 0.09,0.007 0.135,0.014c0.13,0.021 0.255,0.058 0.374,0.116c0.31,0.149 0.556,0.419 0.674,0.742c0.05,0.137 0.075,0.279 0.08,0.424c0.002,0.164 0.001,0.328 0.001,0.492c0,3.114 0,6.227 0,9.34c0,0.196 0.006,0.402 -0.002,0.602c-0.009,0.142 -0.036,0.281 -0.087,0.414c-0.131,0.337 -0.399,0.612 -0.734,0.751c-0.141,0.058 -0.291,0.09 -0.443,0.099c-0.163,0.007 -0.329,0.002 -0.49,0.002l-13.321,0c-0.211,0 -0.436,0.007 -0.653,-0.002c-0.142,-0.008 -0.281,-0.036 -0.414,-0.087c-0.338,-0.131 -0.613,-0.4 -0.751,-0.734c-0.058,-0.142 -0.09,-0.292 -0.099,-0.445c-0.008,-0.215 -0.001,-0.439 -0.001,-0.648c0.004,-3.086 0.007,-6.172 0.011,-9.258c0,-0.183 -0.005,-0.375 0.003,-0.562c0.009,-0.144 0.037,-0.285 0.091,-0.419c0.138,-0.351 0.427,-0.633 0.781,-0.762c0.137,-0.05 0.279,-0.075 0.424,-0.08c0.236,-0.003 0.473,-0.001 0.71,-0.001Zm-0.67,1c-0.035,0.001 -0.07,0.004 -0.104,0.014c-0.136,0.043 -0.228,0.168 -0.234,0.309c-0.002,0.167 -0.001,0.335 -0.001,0.502c-0.004,3.086 -0.008,6.172 -0.011,9.258c0,0.078 -0.02,0.425 0.001,0.623c0.023,0.163 0.157,0.286 0.323,0.292l14.38,-0.002c0.162,-0.024 0.284,-0.157 0.291,-0.321c0.033,-3.445 0,-6.891 0,-10.336c0,-0.017 -0.001,-0.033 -0.003,-0.05c-0.022,-0.161 -0.158,-0.283 -0.32,-0.289c-4.773,-0.059 -9.548,0 -14.322,0Z" style="fill-rule:nonzero;"/></g><path d="M11.182,9.506l-3.182,-3.182l0,6.364l3.182,-3.182Z"/></svg>