<?xml version="1.0" encoding="UTF-8" standalone="no"?><!DOCTYPE svg PUBLIC "-//W3C//DTD SVG 1.1//EN" "http://www.w3.org/Graphics/SVG/1.1/DTD/svg11.dtd"><svg width="100%" height="100%" viewBox="0 0 25 25" version="1.1" xmlns="http://www.w3.org/2000/svg" xmlns:xlink="http://www.w3.org/1999/xlink" xml:space="preserve" style="fill-rule:evenodd;clip-rule:evenodd;stroke-linejoin:round;stroke-miterlimit:1.41421;"><g></g><rect x="-196" y="-306" width="400" height="1430" style="fill:none;"/><path d="M12.113,18l-0.906,0l0,-5.099l-6.301,0l0,5.099l-0.906,0l0,-11.081l0.906,0l0,5.206l6.301,0l0,-5.206l0.906,0l0,11.081Z" style="fill-rule:nonzero;"/><g transform="matrix(0.20828,6.73844e-18,-6.73844e-18,0.20828,-11.5298,-43.1667)"><path d="M134.702,265.046l4.933,0c3.761,0 6.612,-0.94 8.552,-2.821c1.94,-1.88 2.91,-4.299 2.91,-7.256c0,-3.218 -0.911,-5.785 -2.733,-7.701c-1.821,-1.916 -4.53,-2.874 -8.126,-2.874c-3.312,0 -6.027,0.976 -8.144,2.927c-2.117,1.952 -3.176,4.525 -3.176,7.719l-3.974,0l-0.071,-0.213c-0.118,-4.022 1.289,-7.37 4.223,-10.043c2.933,-2.673 6.647,-4.01 11.142,-4.01c4.613,0 8.286,1.266 11.018,3.797c2.733,2.532 4.099,6.045 4.099,10.539c0,2.437 -0.757,4.726 -2.271,6.867c-1.514,2.141 -3.643,3.732 -6.388,4.773c3.218,0.922 5.625,2.478 7.222,4.666c1.596,2.188 2.395,4.773 2.395,7.754c0,4.589 -1.485,8.197 -4.454,10.823c-2.968,2.625 -6.783,3.938 -11.444,3.938c-4.518,0 -8.398,-1.283 -11.639,-3.85c-3.241,-2.567 -4.802,-6.133 -4.684,-10.699l0.071,-0.212l3.975,0c0,3.288 1.141,5.973 3.424,8.055c2.283,2.081 5.234,3.122 8.853,3.122c3.667,0 6.53,-0.952 8.588,-2.856c2.058,-1.905 3.087,-4.631 3.087,-8.18c0,-3.619 -1.076,-6.298 -3.229,-8.037c-2.153,-1.739 -5.228,-2.608 -9.226,-2.608l-4.933,0l0,-3.62Z" style="fill:none;"/><path d="M134.702,265.046l4.933,0c3.761,0 6.612,-0.94 8.552,-2.821c1.94,-1.88 2.91,-4.299 2.91,-7.256c0,-3.218 -0.911,-5.785 -2.733,-7.701c-1.821,-1.916 -4.53,-2.874 -8.126,-2.874c-3.312,0 -6.027,0.976 -8.144,2.927c-2.117,1.952 -3.176,4.525 -3.176,7.719l-3.974,0l-0.071,-0.213c-0.118,-4.022 1.289,-7.37 4.223,-10.043c2.933,-2.673 6.647,-4.01 11.142,-4.01c4.613,0 8.286,1.266 11.018,3.797c2.733,2.532 4.099,6.045 4.099,10.539c0,2.437 -0.757,4.726 -2.271,6.867c-1.514,2.141 -3.643,3.732 -6.388,4.773c3.218,0.922 5.625,2.478 7.222,4.666c1.596,2.188 2.395,4.773 2.395,7.754c0,4.589 -1.485,8.197 -4.454,10.823c-2.968,2.625 -6.783,3.938 -11.444,3.938c-4.518,0 -8.398,-1.283 -11.639,-3.85c-3.241,-2.567 -4.802,-6.133 -4.684,-10.699l0.071,-0.212l3.975,0c0,3.288 1.141,5.973 3.424,8.055c2.283,2.081 5.234,3.122 8.853,3.122c3.667,0 6.53,-0.952 8.588,-2.856c2.058,-1.905 3.087,-4.631 3.087,-8.18c0,-3.619 -1.076,-6.298 -3.229,-8.037c-2.153,-1.739 -5.228,-2.608 -9.226,-2.608l-4.933,0l0,-3.62Z" style="fill-rule:nonzero;"/></g></svg>